<?xml version="1.0" encoding="utf-8"?>
<!-- Generator: Adobe Illustrator 24.0.2, SVG Export Plug-In . SVG Version: 6.00 Build 0)  -->
<svg version="1.1" id="Layer_1_copy" xmlns="http://www.w3.org/2000/svg" xmlns:xlink="http://www.w3.org/1999/xlink" x="0px"
	 y="0px" viewBox="0 0 387.8 331.2" style="enable-background:new 0 0 387.8 331.2;" xml:space="preserve">
<style type="text/css">
	.st0{fill:#F8CA10;}
	.st1{fill:#F8CA10;stroke:#231F20;stroke-width:1.46;stroke-miterlimit:10;}
</style>
<g>
	<path class="st0" d="M374.4,190.6c0.1,49.5-19.8,96.9-55.1,131.6L299.7,301c61-61.4,60.6-160.6-0.8-221.5S138.3,18.9,77.4,80.3
		s-60.6,160.6,0.8,221.5c1.5,1.5,3,2.9,4.5,4.3l-19.2,19.3C26.1,290.5,4.9,241.7,5,190.6C5,88.6,87.7,5.9,189.7,5.9
		S374.4,88.6,374.4,190.6z"/>
	<path class="st1" d="M382.8,190.6c0.1,49.5-19.8,96.9-55.1,131.6L308,301c61-61.4,60.6-160.6-0.8-221.5S146.7,18.9,85.7,80.3
		s-60.6,160.6,0.8,221.5c1.5,1.5,3,2.9,4.5,4.3l-19.2,19.3c-37.3-34.9-58.5-83.7-58.4-134.8c0-102,82.7-184.7,184.7-184.7
		S382.8,88.6,382.8,190.6z"/>
</g>
</svg>
