<?xml version="1.0" encoding="utf-8"?>
<!-- Generator: Adobe Illustrator 24.0.2, SVG Export Plug-In . SVG Version: 6.00 Build 0)  -->
<svg version="1.1" id="Layer_1_copy" xmlns="http://www.w3.org/2000/svg" xmlns:xlink="http://www.w3.org/1999/xlink" x="0px"
	 y="0px" viewBox="0 0 1242.1 340.1" style="enable-background:new 0 0 1242.1 340.1;" xml:space="preserve">
<style type="text/css">
	.st0{fill:none;stroke:#000000;stroke-miterlimit:10;}
	.st1{fill:#F8CA10;}
	.st2{fill:none;stroke:#010101;stroke-width:0.5;stroke-miterlimit:10;}
	.st3{fill:none;stroke:#010101;stroke-width:0.5016;stroke-miterlimit:10.0319;}
	.st4{fill:none;stroke:#010101;stroke-width:0.4981;stroke-miterlimit:9.9624;}
	.st5{fill:none;stroke:#010101;stroke-width:0.4996;stroke-miterlimit:9.9925;}
	.st6{fill:none;stroke:#010101;stroke-width:0.4996;stroke-miterlimit:9.993;}
	.st7{fill:none;stroke:#010101;stroke-width:0.4999;stroke-miterlimit:9.9985;}
	.st8{fill:none;stroke:#010101;stroke-width:0.5002;stroke-miterlimit:10.0045;}
	.st9{fill:none;stroke:#010101;stroke-width:0.5004;stroke-miterlimit:10.008;}
	.st10{fill:none;stroke:#010101;stroke-width:0.5014;stroke-miterlimit:10.0285;}
	.st11{fill:none;stroke:#010101;stroke-width:0.4993;stroke-miterlimit:9.986;}
	.st12{fill:#010101;}
</style>
<circle class="st0" cx="404.4" cy="27.7" r="3"/>
<circle class="st0" cx="165.3" cy="187.9" r="3"/>
<circle class="st0" cx="1171.3" cy="38.1" r="3"/>
<line class="st0" x1="368" y1="27.7" x2="0" y2="27.7"/>
<line class="st0" x1="136.1" y1="53.7" x2="333.2" y2="53.7"/>
<line class="st0" x1="105.2" y1="305.8" x2="302.3" y2="305.8"/>
<line class="st0" x1="206.9" y1="185.3" x2="404" y2="185.3"/>
<line class="st0" x1="10.9" y1="305.8" x2="60.9" y2="305.8"/>
<line class="st0" x1="1094.5" y1="132.3" x2="1144.5" y2="132.3"/>
<line class="st0" x1="333.2" y1="162.8" x2="383.2" y2="162.8"/>
<line class="st0" x1="1176.9" y1="7.4" x2="1226.9" y2="7.4"/>
<circle class="st0" cx="1097.5" cy="326.7" r="3"/>
<line class="st0" x1="1119.7" y1="327.4" x2="1242.1" y2="327.4"/>
<line class="st0" x1="1129.5" y1="165.5" x2="1242.1" y2="165.5"/>
<line class="st0" x1="1069.9" y1="38.1" x2="1146.8" y2="38.1"/>
<path class="st1" d="M448.6,291l50-114.2l15.6-68.3l11.7-50.9l-1.6,51.1l-16.2,79.8l-26.8,74.5l-11.8,33L448.6,291z M897.9,75.6
	l32.3,46.2l23.4,58.9l1.2,25.4l-1.5,15.2h7.7l6.6-7.6l-4.7-48.2l-28.3-47.4L897.9,75.6z M908.9,237.3l-0.6-20.6l-19.6-25
	L908.9,237.3z M871,239.6l13.1,11.9l11.6,0.1l12.2-14.1L871,239.6z M839,243.3l6.9,10.8l10.7,9l10.2-10.8l-7.5-13l-11-10.3
	l-13.8-13.8l-22.2-14.8L839,243.3z M604.9,102.8l-4.2,38.4l3.6,59.4l6.5-96.4l-4.2-24.8l-3.7-0.8L604.9,102.8z M892.9,179.6
	l18.1,12.1l-3.1-15.2l-6.8-31l-14.1-30.1l-14.8-31.2L892.9,179.6z M687.5,288.6l6.8,9.6l8.8,1.1l-8-9.4l-4.6-8.7L687.5,288.6z
	 M648.8,265.6l7.3,7.8l8.7,1.5l6.1-5.2l-15.2-8.2l-2.1-9l-5.5,4.4L648.8,265.6z M609.7,247.5l-6-6.2l-4.2-5.5l4.3,13.9l12.6,11.8
	l4.7-6l-0.8-7.1L609.7,247.5z M668,110.4l17.5-1.9l15.8-16l-4.2-6.6l-10.9,1.4L668,110.4z"/>
<path class="st1" d="M794.4,254.1l26.8,23.6l-29.5-21.4l-14.2-23.4L794.4,254.1z M803.3,175.5l8.8,24.8l22.7,15l23.5,23.8l13.3,0.7
	l-18-20.1l-37.9-22.3L803.3,175.5z M857,262.5l-5.3,20.6l13.7-12.9l1.7-18.6L857,262.5z M834.2,286.9l16.6-4.1l-28.2-4.5
	L834.2,286.9z M581.7,218l20.5,10.1l2.5-6.3l0.1-20.2l-4-60.4l-9.6,40.8L581.7,218z M662.5,122.7l24.6,9l71.7-28.6l-46.3,14.4
	l-26.4,6.1l-14.5-2.4l-3.5-9.7L662.5,122.7z M760.3,104l32.3,15.6l45.5,33.4l18.3,16.3l31.8,21.8l19.9,25.2l4.5,0.2l8.8,4.4
	l-4.6-10.7l-5.8-18.3l-97.2-65.5L760.3,104z M781.3,296.4l12.2,7.6l10-0.4L781.3,296.4z M819.1,292.7l3.3-13.7l-18.2,24.9
	L819.1,292.7z M776.8,309.9l3.4-13.3l-16.8,21.9L776.8,309.9z M746.5,264.6l31.2,31.3l3.1-0.1l2.4-0.7L746.5,264.6z M721,281.7
	l6.4,14.2l-0.8-18.4l-4.6-9.9l-18,3.1L721,281.7z M691.1,272.6l12.9-2.2l-20.8-18l2.7,14.4l-1.1,5.6l0.8,5.8L691.1,272.6z
	 M632.7,235.6l8.6,12.9l6.6,3.6l8.6-9.8l-38.4-19.7L632.7,235.6z M728.1,296.2l18.6,17.2l16.6,4.6L728.1,296.2z M952.7,222
	l13.3,34.3l27.6,46.7l-20-68.2L952.7,222z M856.6,260.9c-1.1,0-2,0.9-2,2s0.9,2,2,2s2-0.9,2-2C858.6,261.8,857.7,260.9,856.6,260.9
	C856.6,260.9,856.6,260.9,856.6,260.9L856.6,260.9z"/>
<polygon class="st2" points="763.7,318.3 763.6,318.3 746.3,313.3 746.3,313.3 727.3,296.1 727.6,295.8 746.5,313 763.6,317.9 
	776.6,309.8 780.4,295.7 793.2,304 804.2,303.6 818.9,292.6 822.2,278.4 834.3,286.7 852.2,282.7 865.2,270 866.4,252.1 
	858.9,239.1 871.6,239.6 883.9,251.5 895.7,251.5 908.7,237.2 907.9,216.4 888,190.9 855.5,168.7 827.8,145.4 793.9,120.1 
	759.5,103.6 728.9,103.6 712.9,117.7 712.8,117.7 685.7,123.9 685.7,123.9 671.4,121.4 667.6,110.5 667.7,110.4 686,87.2 698.2,68 
	650.1,79.5 629.9,84.1 629.9,84 603.1,78.8 605.1,100.7 601,140.9 592,179.5 581.9,217.9 602.3,228 602.1,228.3 581.5,218.1 
	591.6,179.4 600.6,140.8 604.7,100.7 602.7,78.3 602.9,78.4 629.9,83.7 650,79.2 699.1,67.4 686.3,87.4 668,110.6 671.7,121.1 
	685.7,123.5 712.7,117.4 728.7,103.2 759.7,103.2 794.1,119.8 828,145.1 855.7,168.5 888.3,190.6 888.3,190.6 908.2,216.3 
	908.2,216.4 909.1,237.4 909,237.4 895.8,251.8 883.8,251.8 871.5,239.9 859.6,239.5 866.8,252 866.8,252.1 865.6,270.2 
	865.5,270.2 852.4,283 852.3,283 834.2,287.1 834.1,287.1 822.4,279 819.2,292.8 819.2,292.8 804.3,303.9 793.2,304.3 793.1,304.3 
	780.6,296.2 777,310 776.9,310 "/>
<path class="st2" d="M961.1,221.5h-38.7l-10-5l3.3-6.7l-15.6-65.6l-28.3-60.6l-31.1-12.3L800.5,59L776.8,48l-47.5,7.8l-23.7,2.9
	l-6.7,9.2l-0.3-0.2l6.8-9.3h0.1l23.8-2.9l47.6-7.8l0,0l23.8,11.1L840.8,71L872,83.3l25.9-7.4l32.9,46.1l23,58.3l0,0l1.6,26.2
	l12.4,7.4L961.1,221.5z M922.5,221.1h38.4l6.4-7.2l-12.2-7.3v-0.1l-1.6-26.2l-23-58.2l-32.7-45.8l-25.5,7.3l28.2,60.5l0,0l15.6,65.7
	l-3.2,6.5L922.5,221.1z"/>
<path class="st2" d="M469.7,296.2h-0.2l-75.8-17.3l49.4-60.9l-9.8-97.7v-0.1L475.2,48h0.1l51,8.2l-0.8,49.4L509.1,186L469.7,296.2z
	 M394.4,278.6l75,17.1l39.3-109.8l16.4-80.4l0.8-49l-50.6-8.2l-41.8,72l9.8,97.6l0,0L394.4,278.6z"/>
<polygon class="st2" points="536.9,265 536.8,265 481.8,262.5 481.8,262.1 536.8,264.6 562.9,249 581.5,217.9 581.8,218.1 
	563.2,249.3 563.2,249.3 "/>
<polygon class="st2" points="602.8,78.7 592.5,71.3 526.1,56.6 526.2,56.2 592.7,71 592.7,71 603,78.4 "/>
<polygon class="st2" points="993.7,304 965.7,255.8 952.4,221.4 952.7,221.2 966.1,255.7 993.9,303.5 1068.2,272.9 1036.3,231.2 
	1036.3,231.1 1059.2,150 998.5,113.9 1015.7,38.6 897.9,76.2 897.8,75.9 1016.2,38.1 1016.1,38.4 998.9,113.7 1059.7,149.8 
	1059.6,150 1036.7,231.1 1068.8,273.1 1068.5,273.1 "/>
<path class="st2" d="M631.7,261.7h-15.5l-12.7-11.9l0,0l-4.7-14.6v-0.1l5.5-13.5l13.6,0.8h0.1l15.3,13.7l8.1,12.2l6.3,3.8l-3.2,5
	h-0.1L631.7,261.7z M616.5,261.3h15.2l12.8-4.3l2.9-4.6l-6-3.6l-8.1-12.2L618,222.8l-13.2-0.8l-5.4,13.2l4.6,14.4L616.5,261.3z"/>
<path class="st2" d="M655.2,285.7l-11.1-11l0.3-17.6l0,0l3-4.9l8.5-10h13.4l0,0l14,10.2L686,267l-1.1,5.6h6.2l-5.5,6.6l-11.2,6l0,0
	L655.2,285.7z M644.5,274.5l10.8,10.8l19-0.5l11.1-6l4.9-6h-5.8l1.1-5.9l-2.7-14.4l-13.8-10h-13l-8.4,9.9l-3,4.8L644.5,274.5z"/>
<path class="st2" d="M698.4,309L698.4,309l-10.2-6.6v0l-4.7-10.7v0l1.9-12.6l0,0l5.2-6.3h0.1l12.9-2.5l17.6,11.2v0.1l6.3,14.9
	l-0.1,0.1l-13.7,12.4h-0.1L698.4,309z M688.5,302.2l10,6.5l15.2-0.3l13.5-12.2l-6.2-14.6l-17.4-11.1l-12.7,2.4l-5.1,6.2l-1.9,12.5
	L688.5,302.2z"/>
<polygon class="st2" points="667.8,110.7 667.8,110.3 685.8,108.2 700.9,92.5 696.7,86.1 686.2,87.5 686.1,87.1 696.9,85.7 
	701.4,92.5 686,108.5 "/>
<path class="st2" d="M703.2,299.4l-9-1.1v-0.1l-6.9-9.7l3.2-7.8l4.5,8.5l12.2,2.5L703.2,299.4z M694.4,298l8.6,1.1l3.7-7.1
	l-11.9-2.4v-0.1l-4.2-7.9l-2.8,6.9L694.4,298z"/>
<path class="st2" d="M664.8,275.1l-8.9-1.7l-7.3-7.8l-0.7-8.9l5.8-4.6l2,9l7,7l8.2,1.7L664.8,275.1z M656.1,273.1l8.6,1.6l5.4-4.6
	l-7.6-1.6l0,0l-7.2-7.1l-1.9-8.5l-5.2,4.1l0.7,8.6L656.1,273.1z"/>
<polygon class="st2" points="621.3,255.6 610.1,255.6 610.1,255.3 620.9,255.3 620.1,248.5 609.7,247.7 603.8,241.6 604,249.7 
	603.6,249.7 603.4,240.7 609.8,247.4 620.5,248.2 "/>
<rect x="603.8" y="248.5" transform="matrix(0.9339 -0.3576 0.3576 0.9339 -48.8214 233.4075)" class="st2" width="5.9" height="0.4"/>
<rect x="614.6" y="243.5" transform="matrix(0.9968 -7.974522e-02 7.974522e-02 0.9968 -17.7623 49.8152)" class="st3" width="0.4" height="7.7"/>
<rect x="609" y="251.6" transform="matrix(0.8096 -0.5869 0.5869 0.8096 -30.7024 408.9685)" class="st2" width="12.3" height="0.4"/>
<rect x="644.4" y="259.1" transform="matrix(0.3458 -0.9383 0.9383 0.3458 182.669 780.5568)" class="st2" width="13.4" height="0.4"/>
<rect x="655.6" y="261.3" transform="matrix(0.9992 -4.013179e-02 4.013179e-02 0.9992 -10.1957 26.5346)" class="st2" width="0.4" height="11.9"/>
<rect x="648.2" y="263.3" transform="matrix(0.8374 -0.5465 0.5465 0.8374 -37.971 399.2702)" class="st2" width="8" height="0.4"/>
<rect x="655.2" y="270.6" transform="matrix(0.7993 -0.601 0.601 0.7993 -30.3992 450.5612)" class="st2" width="8.1" height="0.4"/>
<rect x="663.5" y="268.3" transform="matrix(0.9487 -0.3161 0.3161 0.9487 -51.8604 223.7688)" class="st2" width="0.4" height="6.9"/>
<rect x="690.2" y="293.5" transform="matrix(5.477590e-02 -0.9985 0.9985 5.477590e-02 363.3069 971.2445)" class="st2" width="8.9" height="0.4"/>
<rect x="691.1" y="285.2" transform="matrix(7.393440e-02 -0.9973 0.9973 7.393440e-02 352.1183 956.9254)" class="st2" width="0.4" height="7.4"/>
<rect x="698.9" y="288" transform="matrix(0.7683 -0.6401 0.6401 0.7683 -26.4763 515.6804)" class="st2" width="0.4" height="12.8"/>
<rect x="601.2" y="234.5" transform="matrix(0.8113 -0.5847 0.5847 0.8113 -25.8104 396.5731)" class="st2" width="0.4" height="7.5"/>
<rect x="594.4" y="231.3" transform="matrix(5.460159e-02 -0.9985 0.9985 5.460159e-02 339.9513 822.0326)" class="st2" width="19.4" height="0.4"/>
<rect x="600.7" y="234.9" transform="matrix(0.3165 -0.9486 0.9486 0.3165 196.6029 742.9871)" class="st2" width="26.2" height="0.4"/>
<rect x="617.3" y="241.7" transform="matrix(0.6838 -0.7297 0.7297 0.6838 21.6075 533.5578)" class="st2" width="18.1" height="0.4"/>
<rect x="612.3" y="219.7" transform="matrix(0.8661 -0.4998 0.4998 0.8661 -35.4676 337.6042)" class="st2" width="0.4" height="30.6"/>
<rect x="614.9" y="258.3" transform="matrix(0.6148 -0.7887 0.7887 0.6148 34.4928 587.5129)" class="st2" width="7.7" height="0.4"/>
<rect x="626.2" y="252.3" transform="matrix(0.4958 -0.8685 0.8685 0.4958 91.4257 674.2476)" class="st2" width="0.4" height="12.2"/>
<rect x="628.9" y="254.8" transform="matrix(0.6038 -0.7972 0.7972 0.6038 48.9861 608.5087)" class="st2" width="15.4" height="0.4"/>
<rect x="625.6" y="246.1" transform="matrix(0.7588 -0.6513 0.6513 0.7588 -15.0324 469.0148)" class="st2" width="0.4" height="17.5"/>
<rect x="618.8" y="248.1" transform="matrix(4.292189e-02 -0.9991 0.9991 4.292189e-02 356.7157 869.0152)" class="st2" width="26.3" height="0.4"/>
<rect x="649.8" y="247.4" transform="matrix(0.2324 -0.9726 0.9726 0.2324 261.767 826.9562)" class="st2" width="10" height="0.4"/>
<rect x="650.4" y="249.8" transform="matrix(6.313894e-02 -0.998 0.998 6.313894e-02 357.5166 885.7996)" class="st2" width="0.4" height="5.4"/>
<rect x="644.7" y="256.7" transform="matrix(0.9982 -5.965482e-02 5.965482e-02 0.9982 -14.1723 39.0197)" class="st2" width="3.4" height="0.4"/>
<rect x="647.8" y="252.1" transform="matrix(0.9991 -4.344502e-02 4.344502e-02 0.9991 -10.4447 28.3929)" class="st2" width="0.4" height="4.7"/>
<rect x="641.7" y="269.8" transform="matrix(0.4531 -0.8915 0.8915 0.4531 112.9708 724.0913)" class="st2" width="9.8" height="0.4"/>
<rect x="646.6" y="256.6" transform="matrix(0.9015 -0.4327 0.4327 0.9015 -49.3924 305.5956)" class="st2" width="0.4" height="9.5"/>
<rect x="637.4" y="265.2" transform="matrix(0.1953 -0.9808 0.9808 0.1953 259.616 847.2693)" class="st2" width="17.5" height="0.4"/>
<rect x="652" y="265.1" transform="matrix(0.9477 -0.3191 0.3191 0.9477 -53.8268 222.5188)" class="st2" width="0.4" height="20.8"/>
<rect x="644.3" y="273.7" transform="matrix(0.9957 -9.271816e-02 9.271816e-02 0.9957 -22.5908 61.4642)" class="st2" width="11.7" height="0.4"/>
<rect x="649.6" y="279.2" transform="matrix(6.644800e-02 -0.9978 0.9978 6.644800e-02 333.3425 915.1379)" class="st2" width="12.3" height="0.4"/>
<rect x="669.5" y="272.9" transform="matrix(0.7144 -0.6998 0.6998 0.7144 -4.5629 548.6113)" class="st2" width="0.4" height="14.1"/>
<rect x="653.1" y="280.3" transform="matrix(0.6545 -0.7561 0.7561 0.6545 16.0489 596.0734)" class="st2" width="14.1" height="0.4"/>
<rect x="671.8" y="278.7" transform="matrix(0.637 -0.7708 0.7708 0.637 31.7727 625.2011)" class="st2" width="15.9" height="0.4"/>
<rect x="684.9" y="272.6" transform="matrix(0.9954 -9.601948e-02 9.601948e-02 0.9954 -23.3384 67.0583)" class="st2" width="0.4" height="6.8"/>
<rect x="665.2" y="268.2" transform="matrix(0.5323 -0.8466 0.8466 0.5323 74.9067 693.8862)" class="st2" width="0.4" height="22"/>
<rect x="672.6" y="269.3" transform="matrix(0.9703 -0.2418 0.2418 0.9703 -47.0377 170.86)" class="st2" width="0.4" height="15.7"/>
<rect x="654.1" y="278.8" transform="matrix(0.9177 -0.3973 0.3973 0.9177 -55.6999 289.183)" class="st2" width="31.8" height="0.4"/>
<rect x="659.1" y="242.4" transform="matrix(0.9674 -0.2534 0.2534 0.9674 -43.2577 175.4172)" class="st2" width="0.4" height="26.4"/>
<rect x="662.9" y="256.6" transform="matrix(0.4744 -0.8803 0.8803 0.4744 115.0002 723.1846)" class="st2" width="0.4" height="17.4"/>
<rect x="669.5" y="252.7" transform="matrix(0.9903 -0.1388 0.1388 0.9903 -29.7696 95.4971)" class="st2" width="0.4" height="17"/>
<rect x="667.9" y="237.9" transform="matrix(3.490598e-03 -1 1 3.490598e-03 413.3066 919.7465)" class="st2" width="0.4" height="29.2"/>
<rect x="664.7" y="236.6" transform="matrix(0.3312 -0.9435 0.9435 0.3312 207.9388 795.0639)" class="st4" width="0.4" height="28.5"/>
<rect x="670.8" y="268.3" transform="matrix(0.9798 -0.2001 0.2001 0.9798 -39.9971 141.1439)" class="st2" width="15.2" height="0.4"/>
<rect x="666.5" y="260.9" transform="matrix(0.5744 -0.8186 0.8186 0.5744 74.3385 665.1426)" class="st2" width="20.7" height="0.4"/>
<rect x="670.7" y="235.5" transform="matrix(0.6289 -0.7775 0.7775 0.6289 51.0999 616.0512)" class="st2" width="0.4" height="38"/>
<rect x="686.4" y="276.8" transform="matrix(3.315521e-02 -0.9995 0.9995 3.315521e-02 390.9284 957.9858)" class="st2" width="8.5" height="0.4"/>
<rect x="687.6" y="277.2" transform="matrix(0.3841 -0.9233 0.9233 0.3841 165.0526 807.4979)" class="st2" width="0.4" height="5.7"/>
<rect x="683.1" y="289.8" transform="matrix(0.7864 -0.6177 0.6177 0.7864 -32.6957 485.4226)" class="st2" width="4.9" height="0.4"/>
<rect x="686.4" y="279.1" transform="matrix(0.9769 -0.2135 0.2135 0.9769 -44.7835 153.1654)" class="st2" width="0.4" height="9.6"/>
<rect x="667.1" y="243.6" transform="matrix(7.974522e-02 -0.9968 0.9968 7.974522e-02 375.7547 894.6085)" class="st3" width="10.6" height="0.4"/>
<rect x="655.5" y="260.3" transform="matrix(0.9975 -7.132336e-02 7.132336e-02 0.9975 -16.879 48.2039)" class="st2" width="22" height="0.4"/>
<rect x="687.9" y="299.8" transform="matrix(0.8345 -0.5511 0.5511 0.8345 -50.869 430.6638)" class="st2" width="7" height="0.4"/>
<rect x="687.6" y="288.5" transform="matrix(0.9991 -4.292191e-02 4.292191e-02 0.9991 -12.0414 29.7937)" class="st2" width="0.4" height="13.5"/>
<rect x="696.2" y="297.7" transform="matrix(0.9333 -0.359 0.359 0.9333 -62.4971 270.244)" class="st2" width="0.4" height="11.4"/>
<rect x="708.1" y="296.7" transform="matrix(0.6488 -0.761 0.761 0.6488 17.5523 645.6804)" class="st2" width="0.4" height="14.3"/>
<rect x="703.5" y="294.8" transform="matrix(0.2637 -0.9646 0.9646 0.2637 243.7294 909.3437)" class="st2" width="28.1" height="0.4"/>
<rect x="695.3" y="303.8" transform="matrix(0.437 -0.8995 0.8995 0.437 121.1137 801.3724)" class="st2" width="10.6" height="0.4"/>
<rect x="703.1" y="297.4" transform="matrix(0.9906 -0.1368 0.1368 0.9906 -33.9804 100.6183)" class="st2" width="24.4" height="0.4"/>
<rect x="705.1" y="270.2" transform="matrix(0.9894 -0.145 0.145 0.9894 -33.3388 105.2673)" class="st2" width="0.4" height="22.1"/>
<rect x="705.6" y="261.1" transform="matrix(0.276 -0.9612 0.9612 0.276 244.7522 878.9819)" class="st2" width="0.4" height="31.8"/>
<rect x="688.5" y="275.5" transform="matrix(0.7677 -0.6408 0.6408 0.7677 -14.729 510.6831)" class="st2" width="17.1" height="0.4"/>
<polygon class="st2" points="695.1,289.5 694.7,289.3 703.8,269.9 704.1,270.1 "/>
<rect x="705.2" y="286.5" transform="matrix(0.8072 -0.5903 0.5903 0.8072 -31.5236 476.7803)" class="st2" width="17.6" height="0.4"/>
<rect x="711.6" y="288.7" transform="matrix(0.4752 -0.8799 0.8799 0.4752 114.4275 780.8768)" class="st2" width="0.4" height="11.7"/>
<rect x="688.1" y="266.2" transform="matrix(0.7732 -0.6342 0.6342 0.7732 -15.0583 497.7027)" class="st2" width="0.4" height="7.4"/>
<rect x="727.4" y="295.8" class="st2" width="53.1" height="0.4"/>
<rect x="746.5" y="311.2" transform="matrix(0.995 -9.966708e-02 9.966708e-02 0.995 -27.2458 77.4652)" class="st2" width="30.4" height="0.4"/>
<rect x="776.6" y="281.5" transform="matrix(0.9207 -0.3903 0.3903 0.9207 -46.5486 334.3422)" class="st5" width="45.6" height="0.4"/>
<rect x="780.7" y="294.1" transform="matrix(0.9969 -7.811110e-02 7.811110e-02 0.9969 -20.5403 63.3794)" class="st2" width="38.4" height="0.4"/>
<rect x="813.8" y="258.8" transform="matrix(0.6833 -0.7302 0.7302 0.6833 77.1775 695.9475)" class="st2" width="54" height="0.4"/>
<rect x="826.6" y="269.2" transform="matrix(0.6812 -0.7321 0.7321 0.6812 73.832 708.4244)" class="st2" width="47.6" height="0.4"/>
<rect x="821.9" y="274" transform="matrix(0.9791 -0.2033 0.2033 0.9791 -38.1173 177.2558)" class="st2" width="43.7" height="0.4"/>
<rect x="788.5" y="291.3" transform="matrix(0.7533 -0.6576 0.6576 0.7533 7.5562 603.1505)" class="st2" width="38.7" height="0.4"/>
<rect x="744.4" y="304.3" transform="matrix(0.8924 -0.4512 0.4512 0.8924 -55.246 377.2047)" class="st2" width="38.2" height="0.4"/>
<rect x="862" y="239.2" transform="matrix(0.9819 -0.1893 0.1893 0.9819 -32.619 167.7868)" class="st2" width="0.4" height="31"/>
<rect x="837.3" y="265.6" transform="matrix(0.1504 -0.9886 0.9886 0.1504 434.1465 1066.381)" class="st2" width="0.4" height="30"/>
<rect x="883.6" y="232.3" transform="matrix(0.4412 -0.8974 0.8974 0.4412 273.2944 930.4516)" class="st2" width="0.4" height="27"/>
<rect x="898.3" y="188.5" transform="matrix(0.9135 -0.4067 0.4067 0.9135 -9.3429 383.9534)" class="st2" width="0.4" height="50.9"/>
<rect x="871.5" y="238.2" transform="matrix(0.9978 -6.644805e-02 6.644805e-02 0.9978 -13.8751 59.681)" class="st2" width="37.4" height="0.4"/>
<rect x="880.8" y="245" transform="matrix(0.6289 -0.7775 0.7775 0.6289 139.2921 782.1701)" class="st2" width="16.5" height="0.4"/>
<rect x="891.8" y="190.7" transform="matrix(0.9923 -0.1236 0.1236 0.9923 -20.5153 111.9469)" class="st2" width="0.4" height="61.2"/>
<rect x="843.9" y="272.9" transform="matrix(0.2402 -0.9707 0.9707 0.2402 383.8724 1036.6273)" class="st2" width="20.5" height="0.4"/>
<polygon class="st2" points="804.4,303.8 804.1,303.6 822.2,278.6 822.5,278.8 "/>
<rect x="790.2" y="287.3" transform="matrix(0.3102 -0.9507 0.9507 0.3102 260.1196 958.1728)" class="st6" width="0.4" height="25"/>
<rect x="745.4" y="285.8" transform="matrix(0.5216 -0.8532 0.8532 0.5216 94.7059 783.0026)" class="st2" width="0.4" height="42.5"/>
<rect x="752.3" y="299.7" transform="matrix(0.6 -0.8 0.8 0.6 66.5987 732.8837)" class="st2" width="27.8" height="0.4"/>
<rect x="763.3" y="257.2" transform="matrix(0.6778 -0.7353 0.7353 0.6778 39.9113 651.7219)" class="st2" width="0.4" height="46.3"/>
<rect x="785" y="228.6" transform="matrix(0.783 -0.622 0.622 0.783 19.4589 540.9724)" class="st2" width="0.4" height="28"/>
<rect x="808" y="247.2" transform="matrix(0.6628 -0.7488 0.7488 0.6628 73.2055 694.9481)" class="st2" width="0.4" height="38.1"/>
<rect x="761.9" y="258.2" transform="matrix(0.7087 -0.7055 0.7055 0.7087 24.2314 619.3043)" class="st2" width="0.4" height="44.2"/>
<polygon class="st2" points="782.6,294.9 746.3,264.7 746.6,264.4 782.8,294.6 "/>
<rect x="786" y="235.5" transform="matrix(0.8601 -0.5101 0.5101 0.8601 -17.5749 436.0074)" class="st7" width="0.4" height="29"/>
<rect x="806.8" y="248.5" transform="matrix(0.5907 -0.8069 0.8069 0.5907 114.4311 760.6344)" class="st2" width="0.4" height="38"/>
<rect x="790.9" y="255" transform="matrix(0.6873 -0.7263 0.7263 0.6873 62.4773 655.5673)" class="st2" width="3.6" height="0.4"/>
<rect x="809.3" y="173.6" transform="matrix(0.8603 -0.5098 0.5098 0.8603 18.0439 438.7101)" class="st2" width="0.4" height="25.8"/>
<rect x="862.6" y="216.1" transform="matrix(0.7366 -0.6764 0.6764 0.7366 71.8771 644.0873)" class="st2" width="0.4" height="27.3"/>
<rect x="834.5" y="186.7" transform="matrix(0.5089 -0.8608 0.8608 0.5089 230.4501 820.9279)" class="st2" width="0.4" height="43.5"/>
<rect x="846.5" y="210" transform="matrix(0.7051 -0.7091 0.7091 0.7051 88.417 667.4441)" class="st2" width="0.4" height="34.9"/>
<rect x="807.3" y="174.5" transform="matrix(0.9384 -0.3455 0.3455 0.9384 -15.1574 290.5193)" class="st2" width="0.4" height="26.5"/>
<rect x="823.1" y="194.4" transform="matrix(0.5554 -0.8316 0.8316 0.5554 193.2751 776.931)" class="st2" width="0.4" height="26.7"/>
<rect x="811.6" y="198.7" transform="matrix(0.7775 -0.6289 0.6289 0.7775 56.0517 556.1078)" class="st2" width="4.6" height="0.4"/>
<rect x="843.7" y="207.5" transform="matrix(0.2294 -0.9733 0.9733 0.2294 438.7505 988.8552)" class="st2" width="0.4" height="19.7"/>
<rect x="856.1" y="219.1" transform="matrix(0.9632 -0.2688 0.2688 0.9632 -30.1931 238.5755)" class="st2" width="0.4" height="20.9"/>
<rect x="825.2" y="193.5" transform="matrix(0.6884 -0.7254 0.7254 0.6884 107.5214 663.0647)" class="st2" width="0.4" height="25.8"/>
<rect x="832.7" y="187.2" transform="matrix(0.4237 -0.9058 0.9058 0.4237 289.7444 875.4538)" class="st2" width="0.4" height="45.6"/>
<rect x="873.7" y="206.5" transform="matrix(0.4126 -0.9109 0.9109 0.4126 304.8047 930.3992)" class="st2" width="0.4" height="44.7"/>
<rect x="793.1" y="246.1" transform="matrix(0.9775 -0.2112 0.2112 0.9775 -33.3722 180.0774)" class="st2" width="66.9" height="0.4"/>
<rect x="855.3" y="249.5" transform="matrix(0.6334 -0.7738 0.7738 0.6334 110.9411 758.0681)" class="st2" width="0.4" height="24.8"/>
<rect x="836.9" y="215" transform="matrix(0.9874 -0.1583 0.1583 0.9874 -25.7701 135.4269)" class="st2" width="0.4" height="28.9"/>
<rect x="834.1" y="241.2" transform="matrix(6.644800e-02 -0.9978 0.9978 6.644800e-02 549.7148 1070.3722)" class="st2" width="25.5" height="0.4"/>
<rect x="834.7" y="235.9" transform="matrix(0.459 -0.8885 0.8885 0.459 246.6583 877.1396)" class="st2" width="17.7" height="0.4"/>
<rect x="845.9" y="252.9" transform="matrix(0.9952 -9.758290e-02 9.758290e-02 0.9952 -20.6141 84.7653)" class="st2" width="20.8" height="0.4"/>
<polygon class="st2" points="845.8,254.2 811.9,200.3 812.2,200.1 846.1,254 "/>
<rect x="832.3" y="208.1" transform="matrix(0.9296 -0.3684 0.3684 0.9296 -24.7792 322.6405)" class="st2" width="0.4" height="36.2"/>
<rect x="837.2" y="216.3" transform="matrix(0.1578 -0.9875 0.9875 0.1578 481.5601 1017.6204)" class="st2" width="0.4" height="20.4"/>
<rect x="846.1" y="258.2" transform="matrix(0.9996 -2.998651e-02 2.998651e-02 0.9996 -7.6461 25.4962)" class="st8" width="0.4" height="18.9"/>
<rect x="820.4" y="198.3" transform="matrix(0.9377 -0.3474 0.3474 0.9377 -26.2729 298.9706)" class="st2" width="0.4" height="49"/>
<rect x="808.8" y="262" transform="matrix(0.2009 -0.9796 0.9796 0.2009 402.9659 1018.3822)" class="st2" width="33.7" height="0.4"/>
<rect x="799.9" y="255.2" transform="matrix(0.8601 -0.5101 0.5101 0.8601 -26.4666 446.0387)" class="st7" width="0.4" height="32.1"/>
<rect x="801.4" y="288.6" transform="matrix(0.3279 -0.9447 0.9447 0.3279 269.319 956.179)" class="st2" width="10.4" height="0.4"/>
<rect x="754.8" y="262.4" transform="matrix(0.8791 -0.4767 0.4767 0.8791 -42.3371 393.8045)" class="st2" width="0.4" height="35.9"/>
<rect x="770" y="293.5" transform="matrix(0.7213 -0.6926 0.6926 0.7213 4.7765 617.931)" class="st2" width="0.4" height="19.1"/>
<rect x="852.9" y="214.9" transform="matrix(0.9688 -0.248 0.248 0.9688 -26.0905 222.9796)" class="st2" width="38.1" height="0.4"/>
<rect x="675.2" y="97.6" transform="matrix(4.884982e-02 -0.9988 0.9988 4.884982e-02 554.5295 777.8941)" class="st2" width="21" height="0.4"/>
<rect x="663.2" y="98" transform="matrix(0.7619 -0.6477 0.6477 0.7619 98.8924 465.2778)" class="st2" width="38" height="0.4"/>
<rect x="685.8" y="93.5" transform="matrix(0.9892 -0.1466 0.1466 0.9892 -6.2353 102.6875)" class="st2" width="15.4" height="0.4"/>
<rect x="685.2" y="108.2" transform="matrix(0.9992 -4.048057e-02 4.048057e-02 0.9992 -4.132 27.8414)" class="st2" width="0.4" height="15.4"/>
<rect x="668.9" y="114.5" transform="matrix(0.7225 -0.6914 0.6914 0.7225 108.9629 500.7695)" class="st2" width="18.7" height="0.4"/>
<rect x="699" y="98.6" transform="matrix(0.3138 -0.9495 0.9495 0.3138 372.4404 741.4196)" class="st2" width="0.4" height="28.9"/>
<rect x="706.7" y="90.8" transform="matrix(0.9095 -0.4158 0.4158 0.9095 20.4906 303.4216)" class="st2" width="0.4" height="27.6"/>
<rect x="714.8" y="82.8" transform="matrix(0.3678 -0.9299 0.9299 0.3678 361.2342 726.5338)" class="st2" width="0.4" height="29.6"/>
<rect x="686.8" y="72" transform="matrix(0.2987 -0.9543 0.9543 0.2987 422.8305 719.7756)" class="st2" width="28.8" height="0.4"/>
<rect x="690.7" y="70.6" transform="matrix(0.7226 -0.6913 0.6913 0.7226 148.7934 512.2982)" class="st2" width="44" height="0.4"/>
<rect x="698.7" y="83.5" transform="matrix(0.8542 -0.52 0.52 0.8542 60.8009 384.2256)" class="st2" width="33.5" height="0.4"/>
<rect x="744.5" y="68.7" transform="matrix(0.691 -0.7228 0.7228 0.691 165.5865 565.8682)" class="st2" width="0.4" height="41"/>
<rect x="722.1" y="88.8" transform="matrix(3.996804e-02 -0.9992 0.9992 3.996804e-02 617.907 821.0667)" class="st9" width="28.4" height="0.4"/>
<rect x="724.3" y="62.2" transform="matrix(0.7003 -0.7139 0.7139 0.7003 167.3116 538.0771)" class="st2" width="0.4" height="15.1"/>
<rect x="739" y="75.4" transform="matrix(0.2969 -0.9549 0.9549 0.2969 467.904 786.7241)" class="st2" width="58.3" height="0.4"/>
<rect x="822.3" y="21.6" transform="matrix(0.2181 -0.9759 0.9759 0.2181 572.4134 859.3027)" class="st2" width="0.4" height="101.6"/>
<rect x="870.7" y="167.7" transform="matrix(0.2654 -0.9641 0.9641 0.2654 495.2119 985.7297)" class="st2" width="47.6" height="0.4"/>
<rect x="908.1" y="216.2" class="st2" width="4.5" height="0.4"/>
<rect x="901.8" y="183.5" transform="matrix(0.5668 -0.8238 0.8238 0.5668 225.7306 829.8533)" class="st2" width="0.4" height="33.6"/>
<rect x="906.8" y="212.8" transform="matrix(0.7649 -0.6441 0.6441 0.7649 77.1837 637.4387)" class="st2" width="10.2" height="0.4"/>
<rect x="885.7" y="183" transform="matrix(0.8114 -0.5845 0.5845 0.8114 62.2711 559.3966)" class="st2" width="24.4" height="0.4"/>
<rect x="878.8" y="142.6" transform="matrix(0.9321 -0.3621 0.3621 0.9321 -0.8988 329.6499)" class="st2" width="0.4" height="49.3"/>
<rect x="896.6" y="133.7" transform="matrix(0.7818 -0.6235 0.6235 0.7818 116.2961 600.1166)" class="st2" width="38.1" height="0.4"/>
<rect x="899.1" y="76" transform="matrix(0.999 -4.361939e-02 4.361939e-02 0.999 -3.9642 39.333)" class="st2" width="0.4" height="69"/>
<rect x="918.7" y="209" transform="matrix(0.8832 -0.469 0.469 0.8832 6.2519 456.1514)" class="st2" width="0.4" height="13.1"/>
<rect x="920.4" y="213.7" transform="matrix(0.9128 -0.4085 0.4085 0.9128 -5.4944 402.0711)" class="st2" width="36.4" height="0.4"/>
<rect x="957.9" y="206.3" transform="matrix(0.9294 -0.3691 0.3691 0.9294 -11.3618 368.752)" class="st2" width="0.4" height="15.6"/>
<rect x="915.8" y="208" transform="matrix(0.9965 -8.402568e-02 8.402568e-02 0.9965 -14.183 79.3464)" class="st2" width="39.5" height="0.4"/>
<rect x="910.8" y="194.9" transform="matrix(0.7869 -0.617 0.617 0.7869 78.7938 618.3358)" class="st2" width="47.9" height="0.4"/>
<rect x="927.1" y="130.9" transform="matrix(0.5557 -0.8314 0.8314 0.5557 276.7359 843.1478)" class="st2" width="0.4" height="63.5"/>
<rect x="840.3" y="142.3" transform="matrix(0.4942 -0.8693 0.8693 0.4942 316.9034 829.6375)" class="st2" width="62.3" height="0.4"/>
<rect x="783.1" y="59.5" transform="matrix(0.9398 -0.3417 0.3417 0.9398 16.2438 273.0696)" class="st2" width="0.4" height="61.8"/>
<rect x="831.4" y="91.5" transform="matrix(0.307 -0.9517 0.9517 0.307 450.7227 882.8448)" class="st2" width="0.4" height="80.8"/>
<polygon class="st2" points="759.6,103.5 759.5,103.2 784,92.9 784.1,93.2 "/>
<rect x="827.3" y="68.6" transform="matrix(0.5135 -0.8581 0.8581 0.5135 300.5315 767.8636)" class="st2" width="0.4" height="100.6"/>
<rect x="728.7" y="67.8" transform="matrix(0.9549 -0.2969 0.2969 0.9549 13.6965 226.0999)" class="st2" width="45.1" height="0.4"/>
<rect x="829.8" y="25.3" transform="matrix(0.4288 -0.9034 0.9034 0.4288 394.2172 800.3199)" class="st2" width="0.4" height="126.3"/>
<rect x="718.6" y="272.9" transform="matrix(0.8321 -0.5547 0.5547 0.8321 -28.2187 452.8974)" class="st2" width="30.4" height="0.4"/>
<rect x="749.6" y="265.6" transform="matrix(0.663 -0.7486 0.7486 0.663 40.0996 657.0253)" class="st2" width="0.4" height="36.7"/>
<rect x="766.4" y="240.9" transform="matrix(7.027876e-02 -0.9975 0.9975 7.027876e-02 481.0759 998.3935)" class="st2" width="19.5" height="0.4"/>
<rect x="791.6" y="243.7" transform="matrix(0.7201 -0.6939 0.6939 0.7201 36.195 624.2387)" class="st2" width="0.4" height="47.1"/>
<rect x="783.3" y="244.6" transform="matrix(0.3468 -0.9379 0.9379 0.3468 274.2738 900.3141)" class="st2" width="0.4" height="17.4"/>
<rect x="544.1" y="161.1" transform="matrix(1.919872e-03 -1 1 1.919872e-03 442.27 765.5948)" class="st2" width="121.2" height="0.4"/>
<rect x="593.1" y="208.5" transform="matrix(0.1568 -0.9876 0.9876 0.1568 282.9561 771.4828)" class="st2" width="0.4" height="23.1"/>
<rect x="643" y="226.5" transform="matrix(0.28 -0.96 0.96 0.28 234.1987 789.0764)" class="st2" width="0.4" height="23.7"/>
<rect x="630.3" y="97.8" transform="matrix(0.9392 -0.3433 0.3433 0.9392 -20.8388 226.9365)" class="st2" width="0.4" height="149"/>
<rect x="636.8" y="211" transform="matrix(0.4599 -0.888 0.888 0.4599 137.6387 691.1719)" class="st2" width="0.4" height="42.8"/>
<rect x="604.4" y="177.9" transform="matrix(0.8332 -0.553 0.553 0.8332 -11.0239 368.0196)" class="st2" width="0.4" height="48.8"/>
<rect x="693.1" y="247.7" transform="matrix(0.6549 -0.7557 0.7557 0.6549 41.8382 614.1414)" class="st2" width="0.4" height="27.1"/>
<rect x="703.5" y="267.1" transform="matrix(0.9914 -0.1309 0.1309 0.9914 -28.7463 97.1876)" class="st2" width="43.2" height="0.4"/>
<rect x="744.9" y="257.5" transform="matrix(0.9039 -0.4277 0.4277 0.9039 -37.0855 350.1759)" class="st2" width="32.1" height="0.4"/>
<rect x="782.9" y="255.8" transform="matrix(0.9872 -0.1595 0.1595 0.9872 -34.3385 128.4957)" class="st10" width="0.4" height="44.6"/>
<rect x="802.9" y="211.5" transform="matrix(0.2708 -0.9626 0.9626 0.2708 355.7419 947.2217)" class="st2" width="0.4" height="54.5"/>
<rect x="681.6" y="241.7" transform="matrix(0.9753 -0.2209 0.2209 0.9753 -35.3826 167.2305)" class="st2" width="97.1" height="0.4"/>
<rect x="759.5" y="203" transform="matrix(0.4141 -0.9103 0.9103 0.4141 278.024 838.2621)" class="st2" width="61.3" height="0.4"/>
<rect x="802.7" y="171.8" transform="matrix(0.9926 -0.1212 0.1212 0.9926 -14.7309 101.8091)" class="st2" width="54" height="0.4"/>
<rect x="731" y="107" transform="matrix(0.7637 -0.6456 0.6456 0.7637 58.2154 514.0206)" class="st2" width="0.4" height="141.1"/>
<rect x="757.6" y="92.7" transform="matrix(0.5411 -0.8409 0.8409 0.5411 224.6907 704.4493)" class="st2" width="0.4" height="107.3"/>
<rect x="797.9" y="119.2" transform="matrix(0.9852 -0.1714 0.1714 0.9852 -13.4719 138.9804)" class="st2" width="0.4" height="56.6"/>
<rect x="711.6" y="109.9" transform="matrix(0.9555 -0.295 0.295 0.9555 0.2671 222.0088)" class="st2" width="48.5" height="0.4"/>
<rect x="829.8" y="194.4" transform="matrix(5.285881e-02 -0.9986 0.9986 5.285881e-02 615.3359 1038.0243)" class="st2" width="50.1" height="0.4"/>
<rect x="888.8" y="135.7" transform="matrix(0.6441 -0.7649 0.7649 0.6441 193.7648 737.0623)" class="st2" width="0.4" height="49.2"/>
<rect x="617.5" y="182.8" transform="matrix(0.1387 -0.9903 0.9903 0.1387 402.2509 828.4582)" class="st2" width="119.8" height="0.4"/>
<rect x="638.3" y="77.6" transform="matrix(0.2688 -0.9632 0.9632 0.2688 359.0326 696.8928)" class="st2" width="0.4" height="68.8"/>
<rect x="648.6" y="74" transform="matrix(0.5756 -0.8177 0.8177 0.5756 195.9429 571.7716)" class="st2" width="0.4" height="46.3"/>
<rect x="602.2" y="93.2" transform="matrix(0.8009 -0.5987 0.5987 0.8009 67.1173 388.5883)" class="st2" width="31.5" height="0.4"/>
<rect x="658.2" y="57.7" transform="matrix(6.139689e-02 -0.9981 0.9981 6.139689e-02 532.5281 737.4219)" class="st2" width="0.4" height="55.7"/>
<rect x="587.6" y="171.8" transform="matrix(0.4667 -0.8844 0.8844 0.4667 191.8048 662.092)" class="st2" width="114.7" height="0.4"/>
<rect x="637.6" y="177.7" transform="matrix(0.4569 -0.8895 0.8895 0.4569 233.4837 738.2475)" class="st2" width="167.5" height="0.4"/>
<rect x="892.1" y="233.6" transform="matrix(0.5408 -0.8412 0.8412 0.5408 218.9625 868.6243)" class="st11" width="25.7" height="0.4"/>
<rect x="879.2" y="160.9" transform="matrix(0.763 -0.6464 0.6464 0.763 81.0905 615.1022)" class="st2" width="0.4" height="72"/>
<rect x="667.6" y="225.7" transform="matrix(3.524829e-02 -0.9994 0.9994 3.524829e-02 472.0334 940.6667)" class="st2" width="111.3" height="0.4"/>
<rect x="837.3" y="148.6" transform="matrix(0.9625 -0.2714 0.2714 0.9625 -8.3327 237.3978)" class="st2" width="33.5" height="0.4"/>
<rect x="779.5" y="83.2" transform="matrix(0.5937 -0.8047 0.8047 0.5937 254.5429 670.8297)" class="st2" width="24.2" height="0.4"/>
<rect x="757" y="55.4" transform="matrix(0.3142 -0.9494 0.9494 0.3142 439.4805 776.553)" class="st2" width="0.4" height="57.5"/>
<rect x="752.9" y="78.4" transform="matrix(3.559721e-02 -0.9994 0.9994 3.559721e-02 607.6414 867.1391)" class="st2" width="0.4" height="80.8"/>
<rect x="810.9" y="82.8" transform="matrix(0.7481 -0.6635 0.6635 0.7481 122.5468 569.1959)" class="st2" width="0.4" height="80.7"/>
<rect x="848" y="124.8" transform="matrix(0.9337 -0.358 0.358 0.9337 3.3476 313.4664)" class="st2" width="0.4" height="45.8"/>
<rect x="816.5" y="99.8" transform="matrix(0.1324 -0.9912 0.9912 0.1324 586.3204 916.4073)" class="st2" width="0.4" height="47"/>
<polygon class="st2" points="793.7,119.7 764.5,86.7 764.8,86.5 794,119.4 "/>
<rect x="727.3" y="94.8" transform="matrix(0.901 -0.4338 0.4338 0.901 32.7103 333.385)" class="st2" width="39" height="0.4"/>
<rect x="728.8" y="262.4" transform="matrix(0.2808 -0.9598 0.9598 0.2808 265.4413 893.5502)" class="st2" width="0.4" height="14.6"/>
<rect x="739.1" y="247.4" transform="matrix(0.6721 -0.7405 0.7405 0.6721 66.4093 645.1326)" class="st2" width="45.1" height="0.4"/>
<rect x="913.5" y="80" transform="matrix(0.7144 -0.6998 0.6998 0.7144 221.9279 703.9678)" class="st2" width="119.5" height="0.4"/>
<rect x="935.9" y="146.8" transform="matrix(0.5618 -0.8273 0.8273 0.5618 306.1407 871.8845)" class="st2" width="80.3" height="0.4"/>
<rect x="951.4" y="164.6" transform="matrix(0.9591 -0.2832 0.2832 0.9591 -5.4647 291.7751)" class="st2" width="110.3" height="0.4"/>
<rect x="1001.9" y="187" transform="matrix(0.2426 -0.9701 0.9701 0.2426 543.0953 1140.7313)" class="st2" width="0.4" height="71"/>
<rect x="948.1" y="178.2" transform="matrix(0.8792 -0.4765 0.4765 0.8792 36.7507 501.6161)" class="st2" width="118.6" height="0.4"/>
<rect x="977.2" y="218.2" transform="matrix(0.9291 -0.3697 0.3697 0.9291 -27.8305 380.0026)" class="st2" width="0.4" height="88.7"/>
<rect x="980.6" y="212.9" transform="matrix(0.96 -0.28 0.28 0.96 -33.4906 285.0053)" class="st2" width="0.4" height="93.6"/>
<rect x="1001.9" y="187" transform="matrix(0.2426 -0.9701 0.9701 0.2426 543.0953 1140.7313)" class="st2" width="0.4" height="71"/>
<rect x="710.8" y="110.4" transform="matrix(0.898 -0.4401 0.4401 0.898 25.5209 331.1891)" class="st2" width="32.3" height="0.4"/>
<rect x="741.4" y="100" transform="matrix(0.9848 -0.1738 0.1738 0.9848 -5.8803 133.269)" class="st2" width="33.1" height="0.4"/>
<rect x="806.8" y="75.1" transform="matrix(0.3979 -0.9174 0.9174 0.3979 383.6288 807.3767)" class="st2" width="0.4" height="72.7"/>
<rect x="767.5" y="275.3" transform="matrix(0.2287 -0.9735 0.9735 0.2287 338.9683 978.826)" class="st2" width="39.5" height="0.4"/>
<rect x="840.7" y="113.7" transform="matrix(3.036402e-02 -0.9995 0.9995 3.036402e-02 730.8414 981.2223)" class="st2" width="60.9" height="0.4"/>
<rect x="839.3" y="120.8" transform="matrix(0.9741 -0.2263 0.2263 0.9741 -4.9839 198.5514)" class="st2" width="48.2" height="0.4"/>
<rect x="897.1" y="114.1" transform="matrix(0.9448 -0.3277 0.3277 0.9448 1.7047 302.1239)" class="st2" width="0.4" height="63.8"/>
<rect x="602.3" y="140.8" transform="matrix(0.9985 -5.407881e-02 5.407881e-02 0.9985 -8.3745 32.8307)" class="st2" width="0.4" height="60.7"/>
<rect x="585.4" y="161.2" transform="matrix(0.6428 -0.766 0.766 0.6428 104.2441 546.2535)" class="st2" width="104.9" height="0.4"/>
<rect x="579" y="209.6" transform="matrix(0.803 -0.5959 0.5959 0.803 -8.2695 394.5684)" class="st2" width="27.6" height="0.4"/>
<rect x="522.7" y="183.7" transform="matrix(0.9426 -0.3338 0.3338 0.9426 -45.2625 187.4704)" class="st2" width="0.4" height="83.6"/>
<rect x="565.6" y="33.7" transform="matrix(0.5053 -0.863 0.863 0.5053 211.2247 527.5901)" class="st2" width="0.4" height="91.7"/>
<rect x="524.3" y="104.8" transform="matrix(0.998 -6.244214e-02 6.244214e-02 0.998 -5.4565 35.4616)" class="st2" width="80.7" height="0.4"/>
<rect x="545.1" y="162.2" transform="matrix(0.4026 -0.9154 0.9154 0.4026 140.8568 619.7725)" class="st2" width="0.4" height="79.5"/>
<rect x="562.4" y="82.4" transform="matrix(0.4003 -0.9164 0.9164 0.4003 223.5685 589.9811)" class="st2" width="0.4" height="83.4"/>
<rect x="552.9" y="100.5" transform="matrix(0.8877 -0.4605 0.4605 0.8877 -12.8743 273.0035)" class="st2" width="0.4" height="124.8"/>
<rect x="535.8" y="176" transform="matrix(0.7593 -0.6508 0.6508 0.7593 -12.5833 401.2036)" class="st2" width="0.4" height="83.2"/>
<rect x="432.8" y="111.1" transform="matrix(0.9901 -0.14 0.14 0.9901 -10.863 68.158)" class="st7" width="92.2" height="0.4"/>
<rect x="499.9" y="39.3" transform="matrix(0.7701 -0.638 0.638 0.7701 65.1688 336.9722)" class="st2" width="0.4" height="77.6"/>
<rect x="439.9" y="202.5" transform="matrix(0.9066 -0.422 0.422 0.9066 -41.0379 219.9304)" class="st2" width="72.9" height="0.4"/>
<rect x="471.2" y="103.2" transform="matrix(0.6611 -0.7503 0.7503 0.6611 44.3907 405.7917)" class="st2" width="0.4" height="101.1"/>
<rect x="462.3" y="210.7" transform="matrix(0.7543 -0.6566 0.6566 0.7543 -43.9612 362.6757)" class="st2" width="0.4" height="58.7"/>
<rect x="393.3" y="270.3" transform="matrix(0.983 -0.1838 0.1838 0.983 -42.2412 85.0945)" class="st2" width="89.3" height="0.4"/>
<rect x="945.8" y="234.7" transform="matrix(3.908538e-02 -0.9992 0.9992 3.908538e-02 694.3098 1191.674)" class="st2" width="41.9" height="0.4"/>
<rect x="946.8" y="213.7" transform="matrix(0.1288 -0.9917 0.9917 0.1288 619.2034 1132.5887)" class="st2" width="14.9" height="0.4"/>
<polygon class="st2" points="994,303.8 993.6,303.6 1036.7,232.3 1037,232.5 "/>
<rect x="598.2" y="70.2" transform="matrix(0.9405 -0.3397 0.3397 0.9405 5.9857 208.4615)" class="st2" width="0.4" height="33.8"/>
<rect x="557.8" y="95.3" transform="matrix(0.7452 -0.6668 0.6668 0.7452 45.4693 408.9637)" class="st2" width="0.4" height="99.4"/>
<rect x="759.6" y="133.4" transform="matrix(0.9406 -0.3394 0.3394 0.9406 -17.245 268.7529)" class="st2" width="0.4" height="100.6"/>
<rect x="718.8" y="283.6" transform="matrix(0.3361 -0.9418 0.9418 0.3361 218.4646 877.5472)" class="st2" width="25.7" height="0.4"/>
<rect x="811.5" y="183" transform="matrix(0.8161 -0.5779 0.5779 0.8161 47.9019 516.9529)" class="st2" width="49.6" height="0.4"/>
<rect x="818.7" y="66.6" transform="matrix(0.7791 -0.6269 0.6269 0.7791 118.0905 535.4545)" class="st2" width="0.4" height="67.1"/>
<rect x="717.6" y="56" transform="matrix(0.9605 -0.2782 0.2782 0.9605 13.8684 210.2168)" class="st2" width="60.4" height="0.4"/>
<rect x="712" y="54.2" transform="matrix(0.4191 -0.9079 0.9079 0.4191 357.7918 682.3616)" class="st2" width="0.4" height="14.7"/>
<rect x="772.8" y="60" transform="matrix(0.9961 -8.785120e-02 8.785120e-02 0.9961 -2.2416 69.3456)" class="st2" width="27.9" height="0.4"/>
<rect x="635.1" y="178.7" transform="matrix(0.9817 -0.1903 0.1903 0.9817 -21.6003 132.769)" class="st2" width="90.8" height="0.4"/>
<rect x="620.3" y="155.4" transform="matrix(0.6148 -0.7887 0.7887 0.6148 131.8155 581.0963)" class="st2" width="81" height="0.4"/>
<rect x="930.4" y="117.7" transform="matrix(0.9929 -0.1193 0.1193 0.9929 -7.179 115.8995)" class="st2" width="68.6" height="0.4"/>
<rect x="957.5" y="181.7" transform="matrix(0.8202 -0.5721 0.5721 0.8202 78.2113 612.5716)" class="st2" width="112" height="0.4"/>
<rect x="651.7" y="206.2" transform="matrix(0.6176 -0.7865 0.7865 0.6176 104.4419 627.5343)" class="st2" width="91.7" height="0.4"/>
<rect x="633.1" y="210.8" transform="matrix(0.3203 -0.9473 0.9473 0.3203 253.2006 774.9145)" class="st2" width="66.9" height="0.4"/>
<rect x="729.5" y="175.1" transform="matrix(0.1425 -0.9898 0.9898 0.1425 499.465 926.9761)" class="st2" width="110.4" height="0.4"/>
<rect x="687.5" y="182.2" transform="matrix(0.498 -0.8672 0.8672 0.498 221.9977 748.3539)" class="st2" width="139.8" height="0.4"/>
<rect x="718.3" y="117" transform="matrix(0.9753 -0.2209 0.2209 0.9753 -14.1666 162.2537)" class="st2" width="0.4" height="54.9"/>
<rect x="694.5" y="123.3" transform="matrix(0.9926 -0.1212 0.1212 0.9926 -18.7625 85.6309)" class="st2" width="0.4" height="147.7"/>
<rect x="696.6" y="256.5" transform="matrix(0.5744 -0.8186 0.8186 0.5744 93.3772 693.001)" class="st2" width="33.1" height="0.4"/>
<rect x="415.2" y="162.5" transform="matrix(0.5915 -0.8063 0.8063 0.5915 66.4584 456.5334)" class="st2" width="137.1" height="0.4"/>
<rect x="456.2" y="215.8" transform="matrix(0.9477 -0.3193 0.3193 0.9477 -58.1312 159.1714)" class="st2" width="0.4" height="82.2"/>
<rect x="491.5" y="46.3" transform="matrix(0.9727 -0.2323 0.2323 0.9727 -13.6811 117.3873)" class="st2" width="0.4" height="140.9"/>
<rect x="424.4" y="88.1" transform="matrix(0.8207 -0.5714 0.5714 0.8207 35.5942 289.9819)" class="st2" width="110.7" height="0.4"/>
<rect x="907.2" y="109.1" transform="matrix(0.4021 -0.9156 0.9156 0.4021 488.7207 966.9708)" class="st2" width="155" height="0.4"/>
<rect x="994.8" y="156.6" transform="matrix(0.5114 -0.8593 0.8593 0.5114 310.0503 955.0694)" class="st2" width="0.4" height="96.5"/>
<rect x="1018.5" y="187" transform="matrix(0.5086 -0.861 0.861 0.5086 289.9236 997.327)" class="st2" width="0.4" height="115.3"/>
<rect x="948.6" y="41.4" transform="matrix(0.3543 -0.9351 0.9351 0.3543 523.9047 948.4941)" class="st2" width="0.4" height="106.9"/>
<ellipse transform="matrix(0.9239 -0.3827 0.3827 0.9239 32.1738 391.0245)" class="st12" cx="999" cy="114.6" rx="5.2" ry="5.2"/>
<ellipse transform="matrix(0.7071 -0.7071 0.7071 0.7071 270.2525 729.3602)" class="st12" cx="1015.5" cy="38.5" rx="4" ry="4"/>
<circle class="st12" cx="872" cy="83" r="2.9"/>
<circle class="st12" cx="887.3" cy="115.7" r="2.9"/>
<circle class="st12" cx="856.2" cy="169.4" r="2.9"/>
<circle class="st12" cx="838.1" cy="153.8" r="2.5"/>
<circle class="st12" cx="802.8" cy="175.1" r="2.5"/>
<circle class="st12" cx="604" cy="201.3" r="2.5"/>
<ellipse transform="matrix(0.1602 -0.9871 0.9871 0.1602 489.7738 848.2529)" class="st12" cx="743.4" cy="136.3" rx="3.6" ry="3.6"/>
<ellipse transform="matrix(0.1597 -0.9872 0.9872 0.1597 366.0794 918.1486)" class="st12" cx="722.4" cy="244" rx="3.6" ry="3.6"/>
<ellipse transform="matrix(0.9239 -0.3827 0.3827 0.9239 -10.3502 290.589)" class="st12" cx="725.3" cy="171.3" rx="4.2" ry="4.2"/>
<ellipse transform="matrix(0.553 -0.8332 0.8332 0.553 153.1038 644.1559)" class="st12" cx="676.8" cy="179.4" rx="3.6" ry="3.6"/>
<circle class="st12" cx="692.7" cy="177.3" r="3.1"/>
<circle class="st12" cx="695.8" cy="208.7" r="3.1"/>
<circle class="st12" cx="758.4" cy="180.9" r="3.1"/>
<circle class="st12" cx="772.9" cy="155.8" r="3.1"/>
<circle class="st12" cx="748.7" cy="198.8" r="3.1"/>
<circle class="st12" cx="698.1" cy="223.3" r="3.1"/>
<ellipse transform="matrix(0.2297 -0.9733 0.9733 0.2297 444.9093 892.547)" class="st12" cx="786.3" cy="165.2" rx="4.7" ry="4.7"/>
<circle class="st12" cx="636.2" cy="187.7" r="3.4"/>
<circle class="st12" cx="630" cy="170.9" r="3.2"/>
<ellipse transform="matrix(0.2309 -0.973 0.973 0.2309 208.9181 639.1746)" class="st12" cx="508.8" cy="187.4" rx="4.3" ry="4.3"/>
<ellipse transform="matrix(0.7071 -0.7071 0.7071 0.7071 -81.7577 359.6771)" class="st12" cx="393.3" cy="278.5" rx="4.3" ry="4.3"/>
<ellipse transform="matrix(0.2309 -0.973 0.973 0.2309 114.3532 670.4732)" class="st12" cx="481.3" cy="262.9" rx="4.3" ry="4.3"/>
<ellipse transform="matrix(0.8486 -0.5291 0.5291 0.8486 51.3934 330.5759)" class="st12" cx="603.2" cy="75.5" rx="4.3" ry="4.3"/>
<ellipse transform="matrix(0.9229 -0.3851 0.3851 0.9229 7.2338 240.837)" class="st12" cx="604.9" cy="102.4" rx="3.7" ry="3.7"/>
<circle class="st12" cx="600.7" cy="141.2" r="3.2"/>
<circle class="st12" cx="591.1" cy="182" r="2.2"/>
<ellipse transform="matrix(0.7071 -0.7071 0.7071 0.7071 125.9475 470.3594)" class="st12" cx="630.7" cy="83.1" rx="3" ry="3"/>
<ellipse transform="matrix(0.219 -0.9757 0.9757 0.219 360.6042 553.0396)" class="st12" cx="525.8" cy="51.3" rx="4.3" ry="4.3"/>
<ellipse transform="matrix(0.2009 -0.9796 0.9796 0.2009 313.6036 600.3544)" class="st12" cx="524.8" cy="108" rx="4.3" ry="4.3"/>
<ellipse transform="matrix(0.2285 -0.9735 0.9735 0.2285 217.1688 514.728)" class="st12" cx="433.4" cy="120.3" rx="4.3" ry="4.3"/>
<ellipse transform="matrix(0.2285 -0.9735 0.9735 0.2285 320.1263 499.4398)" class="st12" cx="475.2" cy="47.7" rx="4.3" ry="4.3"/>
<ellipse transform="matrix(0.2285 -0.9735 0.9735 0.2285 129.5299 599.7884)" class="st12" cx="443.2" cy="218.2" rx="4.3" ry="4.3"/>
<ellipse transform="matrix(0.7071 -0.7071 0.7071 0.7071 16.8166 474.9602)" class="st12" cx="581.7" cy="217.2" rx="3.1" ry="3.1"/>
<ellipse transform="matrix(0.9247 -0.3807 0.3807 0.9247 -77.3027 201.0625)" class="st12" cx="469.5" cy="295.9" rx="3.1" ry="3.1"/>
<ellipse transform="matrix(0.229 -0.9734 0.9734 0.229 191.3862 740.0041)" class="st12" cx="562.9" cy="249.2" rx="2.7" ry="2.7"/>
<path class="st12" d="M539.5,264.8c0,1.5-1.2,2.7-2.7,2.7c-1.5,0-2.7-1.2-2.7-2.7s1.2-2.7,2.7-2.7c0,0,0,0,0,0
	C538.3,262.1,539.5,263.3,539.5,264.8C539.5,264.8,539.5,264.8,539.5,264.8z"/>
<circle class="st12" cx="777.1" cy="232" r="2.5"/>
<path class="st12" d="M777.9,251c0,1.4-1.1,2.5-2.5,2.5c-1.4,0-2.5-1.1-2.5-2.5s1.1-2.5,2.5-2.5C776.8,248.4,777.9,249.6,777.9,251
	L777.9,251z"/>
<path class="st12" d="M671.8,242.2c0,1.4-1.1,2.5-2.5,2.5c-1.4,0-2.5-1.1-2.5-2.5s1.1-2.5,2.5-2.5
	C670.6,239.7,671.8,240.8,671.8,242.2L671.8,242.2z"/>
<path class="st12" d="M633.5,261.1c0,1.1-0.9,1.9-2,1.9c-1.1,0-1.9-0.9-1.9-2c0-1.1,0.9-2,2-1.9c0,0,0,0,0,0
	C632.6,259.1,633.5,260,633.5,261.1C633.5,261.1,633.5,261.1,633.5,261.1z"/>
<path class="st12" d="M676.7,284.7c0,1.2-0.9,2.1-2.1,2.1s-2.1-0.9-2.1-2.1c0-1.2,0.9-2.1,2.1-2.1l0,0
	C675.8,282.6,676.7,283.6,676.7,284.7z"/>
<path class="st12" d="M685.2,252.7c0,1.2-0.9,2.1-2.1,2.1s-2.1-0.9-2.1-2.1c0-1.2,0.9-2.1,2.1-2.1l0,0
	C684.2,250.6,685.2,251.6,685.2,252.7z"/>
<path class="st12" d="M656.9,285.6c0,0.9-0.8,1.7-1.7,1.7c-0.9,0-1.7-0.8-1.7-1.7c0-0.9,0.8-1.7,1.7-1.7S656.9,284.6,656.9,285.6
	C656.9,285.6,656.9,285.6,656.9,285.6z"/>
<path class="st12" d="M706,270.2c0,1.2-0.9,2.1-2.1,2.1s-2.1-0.9-2.1-2.1c0-1.2,0.9-2.1,2.1-2.1l0,0C705,268.1,706,269.1,706,270.2z
	"/>
<path class="st12" d="M687.6,279.1c0,1.2-0.9,2.1-2.1,2.1s-2.1-0.9-2.1-2.1c0-1.2,0.9-2.1,2.1-2.1l0,0
	C686.7,277,687.6,278,687.6,279.1z"/>
<path class="st12" d="M646.3,274.1c0,1.2-0.9,2.1-2.1,2.1s-2.1-0.9-2.1-2.1c0-1.2,0.9-2.1,2.1-2.1l0,0
	C645.3,272,646.3,272.9,646.3,274.1z"/>
<path class="st12" d="M693.2,272.6c0,1.2-0.9,2.1-2.1,2.1s-2.1-0.9-2.1-2.1c0-1.2,0.9-2.1,2.1-2.1l0,0
	C692.2,270.5,693.2,271.5,693.2,272.6z"/>
<path class="st12" d="M723.1,281.7c0,1.2-0.9,2.1-2.1,2.1s-2.1-0.9-2.1-2.1c0-1.2,0.9-2.1,2.1-2.1l0,0
	C722.2,279.6,723.1,280.6,723.1,281.7z"/>
<path class="st12" d="M729.3,296.1c0,1.2-0.9,2.1-2.1,2.1c-1.2,0-2.1-0.9-2.1-2.1s0.9-2.1,2.1-2.1c0,0,0,0,0,0
	C728.3,294,729.3,294.9,729.3,296.1C729.3,296.1,729.3,296.1,729.3,296.1z"/>
<path class="st12" d="M749,313c0,1.2-0.9,2.1-2.1,2.1s-2.1-0.9-2.1-2.1c0-1.2,0.9-2.1,2.1-2.1l0,0C748,310.9,749,311.9,749,313z"/>
<circle class="st12" cx="688.5" cy="302.1" r="1.9"/>
<circle class="st12" cx="683.8" cy="291.6" r="1.6"/>
<circle class="st12" cx="690.7" cy="281.1" r="1.3"/>
<path class="st12" d="M686.1,272.7c0,0.6-0.5,1.1-1.1,1.1s-1.1-0.5-1.1-1.1c0-0.6,0.5-1.1,1.1-1.1c0,0,0,0,0,0
	C685.6,271.6,686.1,272.1,686.1,272.7C686.1,272.7,686.1,272.7,686.1,272.7z"/>
<path class="st12" d="M686.8,267.2c0,0.6-0.5,1.1-1.1,1.1s-1.1-0.5-1.1-1.1s0.5-1.1,1.1-1.1l0,0
	C686.3,266.1,686.7,266.6,686.8,267.2z"/>
<circle class="st12" cx="644.6" cy="257.1" r="1.3"/>
<path class="st12" d="M605.9,249.6c0,1.1-0.9,1.9-1.9,1.9c-1.1,0-1.9-0.9-1.9-1.9c0-1.1,0.9-1.9,1.9-1.9S605.9,248.5,605.9,249.6
	C605.9,249.6,605.9,249.6,605.9,249.6z"/>
<path class="st12" d="M601.4,234.9c0,1.3-1,2.3-2.3,2.3s-2.3-1-2.3-2.3c0-1.3,1-2.3,2.3-2.3l0,0
	C600.3,232.6,601.4,233.6,601.4,234.9z"/>
<circle class="st12" cx="604.8" cy="221.8" r="2.4"/>
<path class="st12" d="M616,236.9c0.1,1.6-1.1,2.9-2.7,3c-1.6,0.1-2.9-1.1-3-2.7c-0.1-1.6,1.1-2.9,2.7-3c0,0,0,0,0,0
	C614.6,234.1,616,235.3,616,236.9C616,236.9,616,236.9,616,236.9z"/>
<path class="st12" d="M634.4,235.6c0,1-0.7,1.8-1.7,1.8c-1,0-1.8-0.7-1.8-1.7c0-1,0.7-1.8,1.7-1.8c0,0,0,0,0,0
	C633.5,233.8,634.4,234.6,634.4,235.6z"/>
<path class="st12" d="M620,222.5c0.1,1-0.7,1.9-1.8,2c-1,0.1-1.9-0.7-2-1.8c-0.1-1,0.7-1.9,1.8-2C619,220.7,619.9,221.4,620,222.5
	C620,222.5,620,222.5,620,222.5z"/>
<ellipse transform="matrix(0.9376 -0.3476 0.3476 0.9376 -47.9259 227.3768)" class="st12" cx="609.8" cy="247.3" rx="2.8" ry="2.8"/>
<circle class="st12" cx="620.5" cy="248.5" r="2.4"/>
<path class="st12" d="M604.1,227.7c0,1.3-1.1,2.4-2.4,2.4s-2.4-1.1-2.4-2.4s1.1-2.4,2.4-2.4l0,0C603,225.4,604.1,226.4,604.1,227.7z
	"/>
<path class="st12" d="M617.8,261.4c0,0.8-0.6,1.4-1.4,1.4c-0.8,0-1.4-0.6-1.4-1.4s0.6-1.4,1.4-1.4l0,0
	C617.2,259.9,617.8,260.6,617.8,261.4z"/>
<circle class="st12" cx="610.3" cy="255.7" r="2.1"/>
<circle class="st12" cx="621.1" cy="255.5" r="2.6"/>
<path class="st12" d="M643.1,248.3c0,0.9-0.7,1.6-1.6,1.6c-0.9,0-1.6-0.7-1.6-1.6c0-0.9,0.7-1.6,1.6-1.6l0,0
	C642.4,246.7,643.1,247.4,643.1,248.3z"/>
<circle class="st12" cx="656.1" cy="242.5" r="2.2"/>
<circle class="st12" cx="604" cy="241.2" r="1.9"/>
<circle class="st12" cx="653.7" cy="252.5" r="1.3"/>
<path class="st12" d="M670,252.3c0,0.7-0.6,1.3-1.3,1.3c-0.7,0-1.3-0.6-1.3-1.3c0-0.7,0.6-1.3,1.3-1.3c0,0,0,0,0,0
	C669.4,250.9,670,251.5,670,252.3z"/>
<path class="st12" d="M649.2,256.9c0,0.6-0.5,1.1-1.1,1.1c-0.6,0-1.1-0.5-1.1-1.1c0,0,0,0,0,0c0-0.6,0.5-1.1,1.1-1.1
	C648.7,255.8,649.2,256.3,649.2,256.9C649.2,256.8,649.2,256.9,649.2,256.9z"/>
<path class="st12" d="M650.4,265.5c0,0.8-0.7,1.5-1.5,1.5c-0.8,0-1.5-0.7-1.5-1.5c0-0.8,0.7-1.5,1.5-1.5S650.4,264.7,650.4,265.5
	C650.4,265.5,650.4,265.5,650.4,265.5z"/>
<path class="st12" d="M656.8,261.5c0,0.7-0.6,1.3-1.3,1.3s-1.3-0.6-1.3-1.3s0.6-1.3,1.3-1.3c0,0,0,0,0,0
	C656.3,260.2,656.8,260.7,656.8,261.5C656.8,261.5,656.8,261.5,656.8,261.5z"/>
<path class="st12" d="M678.9,260c0.1,0.7-0.5,1.4-1.2,1.4c-0.7,0.1-1.4-0.5-1.4-1.2c0-0.1,0-0.2,0-0.2c0.1-0.7,0.7-1.3,1.4-1.2
	C678.4,258.8,678.9,259.3,678.9,260z"/>
<path class="st12" d="M657.6,273.2c0,0.7-0.6,1.3-1.3,1.3s-1.3-0.6-1.3-1.3s0.6-1.3,1.3-1.3c0,0,0,0,0,0
	C657,271.9,657.6,272.5,657.6,273.2C657.6,273.2,657.6,273.2,657.6,273.2z"/>
<path class="st12" d="M672.3,269.8c0,0.7-0.6,1.3-1.3,1.3s-1.3-0.6-1.3-1.3c0-0.7,0.6-1.3,1.3-1.3c0,0,0,0,0,0
	C671.7,268.5,672.3,269.1,672.3,269.8z"/>
<path class="st12" d="M666.3,274.6c0,0.7-0.6,1.3-1.3,1.3s-1.3-0.6-1.3-1.3c0-0.7,0.6-1.3,1.3-1.3c0,0,0,0,0,0
	C665.7,273.3,666.3,273.9,666.3,274.6z"/>
<path class="st12" d="M696.4,289.4c0,0.8-0.6,1.4-1.4,1.4c-0.8,0-1.4-0.6-1.4-1.4s0.6-1.4,1.4-1.4l0,0
	C695.7,288,696.4,288.6,696.4,289.4C696.4,289.4,696.4,289.4,696.4,289.4z"/>
<path class="st12" d="M688.8,288.6c0,0.7-0.5,1.2-1.2,1.2c-0.7,0-1.2-0.5-1.2-1.2c0-0.7,0.5-1.2,1.2-1.2S688.8,288,688.8,288.6
	C688.8,288.6,688.8,288.6,688.8,288.6z"/>
<path class="st12" d="M695.4,298c0,0.7-0.5,1.2-1.2,1.2c-0.7,0-1.2-0.5-1.2-1.2c0-0.7,0.5-1.2,1.2-1.2S695.4,297.4,695.4,298
	C695.4,298,695.4,298,695.4,298z"/>
<circle class="st12" cx="703.3" cy="299.3" r="1.6"/>
<path class="st12" d="M701,308.6c0,1.2-0.9,2.1-2.1,2.1s-2.1-0.9-2.1-2.1c0-1.2,0.9-2.1,2.1-2.1l0,0C700,306.5,701,307.4,701,308.6z
	"/>
<path class="st12" d="M715.1,308.3c0,0.8-0.6,1.4-1.4,1.4c-0.8,0-1.4-0.6-1.4-1.4s0.6-1.4,1.4-1.4c0,0,0,0,0,0
	C714.5,306.9,715.1,307.5,715.1,308.3C715.1,308.3,715.1,308.3,715.1,308.3z"/>
<path class="st12" d="M796.1,119.6c0,1.4-1.1,2.5-2.5,2.5c-1.4,0-2.5-1.1-2.5-2.5c0-1.4,1.1-2.5,2.5-2.5
	C795,117,796.1,118.2,796.1,119.6C796.1,119.6,796.1,119.6,796.1,119.6z"/>
<circle class="st12" cx="741.9" cy="103.1" r="2.5"/>
<circle class="st12" cx="729" cy="103.1" r="2.5"/>
<path class="st12" d="M715.3,117.5c0,1.4-1.1,2.5-2.5,2.5c-1.4,0-2.5-1.1-2.5-2.5c0-1.4,1.1-2.5,2.5-2.5
	C714.2,115,715.3,116.1,715.3,117.5C715.3,117.5,715.3,117.5,715.3,117.5z"/>
<circle class="st12" cx="686.6" cy="123.9" r="4.4"/>
<ellipse transform="matrix(0.229 -0.9734 0.9734 0.229 399.3849 747.5307)" class="st12" cx="671.6" cy="121.6" rx="2.8" ry="2.8"/>
<circle class="st12" cx="686" cy="95.1" r="2.2"/>
<path class="st12" d="M671.3,110.6c0,1.4-1.1,2.5-2.5,2.5c-1.4,0-2.5-1.1-2.5-2.5c0-1.4,1.1-2.5,2.5-2.5
	C670.1,108,671.3,109.2,671.3,110.6C671.3,110.6,671.3,110.6,671.3,110.6z"/>
<path class="st12" d="M704,92.9c0,1.2-1,2.2-2.2,2.2s-2.2-1-2.2-2.2s1-2.2,2.2-2.2S704,91.7,704,92.9z"/>
<circle class="st12" cx="730.2" cy="75.9" r="2.5"/>
<circle class="st12" cx="764.8" cy="86.3" r="2.5"/>
<circle class="st12" cx="705.4" cy="58.6" r="1.6"/>
<circle class="st12" cx="718.8" cy="64.8" r="2.1"/>
<path class="st12" d="M687.7,87.2c0,0.9-0.7,1.7-1.7,1.7c-0.9,0-1.7-0.7-1.7-1.7c0-0.9,0.7-1.7,1.7-1.7c0,0,0,0,0,0
	C687,85.6,687.7,86.3,687.7,87.2z"/>
<path class="st12" d="M594.3,71.1c0,0.9-0.7,1.7-1.7,1.7c-0.9,0-1.7-0.7-1.7-1.7c0-0.9,0.7-1.7,1.7-1.7c0,0,0,0,0,0
	C593.5,69.5,594.3,70.2,594.3,71.1z"/>
<ellipse transform="matrix(0.2306 -0.9731 0.9731 0.2306 421.3913 750.2297)" class="st12" cx="685.1" cy="108.7" rx="2.9" ry="2.9"/>
<circle class="st12" cx="697" cy="85.7" r="1.8"/>
<circle class="st12" cx="728" cy="55.6" r="1.8"/>
<path class="st12" d="M815.7,126.3c0,1.1-0.9,2-2,2s-2-0.9-2-2s0.9-2,2-2S815.7,125.1,815.7,126.3z"/>
<ellipse transform="matrix(0.1602 -0.9871 0.9871 0.1602 660.9657 1020.5682)" class="st12" cx="930.3" cy="121.8" rx="4.6" ry="4.6"/>
<circle class="st12" cx="954.8" cy="206.1" r="3.9"/>
<ellipse transform="matrix(0.7071 -0.7071 0.7071 0.7071 151.5487 727.2157)" class="st12" cx="953.6" cy="180.7" rx="3.9" ry="3.9"/>
<circle class="st12" cx="1059.4" cy="149.9" r="5.1"/>
<ellipse transform="matrix(0.7071 -0.7071 0.7071 0.7071 160.9955 679.7462)" class="st12" cx="901" cy="145.5" rx="3" ry="3"/>
<circle class="st12" cx="907.6" cy="175.5" r="3"/>
<circle class="st12" cx="839.5" cy="126.7" r="3"/>
<ellipse transform="matrix(0.7071 -0.7071 0.7071 0.7071 164.0878 581.7812)" class="st12" cx="784.3" cy="92.8" rx="3" ry="3"/>
<circle class="st12" cx="758.9" cy="103.7" r="3"/>
<circle class="st12" cx="799.1" cy="73.1" r="3"/>
<circle class="st12" cx="773" cy="61.6" r="3"/>
<path class="st12" d="M779.3,48.1c0,1.2-1,2.3-2.2,2.3c-1.2,0-2.3-1-2.3-2.2c0-1.2,1-2.3,2.2-2.3c0,0,0,0,0,0
	C778.3,45.9,779.3,46.9,779.3,48.1z"/>
<path class="st12" d="M802.4,59.2c0,1.2-1,2.3-2.3,2.3c-1.2,0-2.3-1-2.3-2.3c0-1.2,1-2.3,2.3-2.3c0,0,0,0,0,0
	C801.4,56.9,802.4,57.9,802.4,59.2C802.4,59.2,802.4,59.2,802.4,59.2z"/>
<ellipse transform="matrix(0.9239 -0.3827 0.3827 0.9239 10.7676 343.9583)" class="st12" cx="870" cy="144.9" rx="3" ry="3"/>
<circle class="st12" cx="916.1" cy="209.4" r="3"/>
<circle class="st12" cx="952.6" cy="221.3" r="4.3"/>
<circle class="st12" cx="966" cy="256.3" r="4.3"/>
<circle class="st12" cx="908.9" cy="237.4" r="3"/>
<circle class="st12" cx="859" cy="239.4" r="2.9"/>
<path class="st12" d="M869.2,251.9c0,1.4-1.1,2.5-2.5,2.5c-1.4,0-2.5-1.1-2.5-2.5c0-1.4,1.1-2.5,2.5-2.5l0,0
	C868.1,249.5,869.2,250.6,869.2,251.9z"/>
<circle class="st12" cx="853.6" cy="219.3" r="3"/>
<circle class="st12" cx="993.6" cy="303.1" r="4.2"/>
<circle class="st12" cx="1068.2" cy="272.7" r="5.1"/>
<circle class="st12" cx="1036.5" cy="231.4" r="4.7"/>
<circle class="st12" cx="968.2" cy="214.2" r="5.4"/>
<circle class="st12" cx="922.3" cy="220.9" r="3"/>
<circle class="st12" cx="908.1" cy="216.4" r="2.6"/>
<circle class="st12" cx="888.2" cy="190.5" r="2.6"/>
<circle class="st12" cx="815.8" cy="197.1" r="2.6"/>
<circle class="st12" cx="829" cy="245.4" r="2.2"/>
<circle class="st12" cx="834.2" cy="286.9" r="2.2"/>
<path class="st12" d="M842.2,243.2c0,1.3-1,2.3-2.3,2.3c-1.3,0-2.3-1-2.3-2.3c0-1.3,1-2.3,2.3-2.3c0,0,0,0,0,0
	C841.1,240.8,842.2,241.9,842.2,243.2z"/>
<circle class="st12" cx="848" cy="228.7" r="2.6"/>
<circle class="st12" cx="835" cy="215.5" r="2.6"/>
<path class="st12" d="M874.7,239.6c0,1.4-1.2,2.6-2.6,2.6s-2.6-1.2-2.6-2.6c0-1.4,1.2-2.6,2.6-2.6c0,0,0,0,0,0
	C873.5,237,874.7,238.2,874.7,239.6z"/>
<circle class="st12" cx="884.1" cy="251.5" r="2.6"/>
<circle class="st12" cx="864.8" cy="269.8" r="2"/>
<path class="st12" d="M898.6,250.8c0,1.4-1.2,2.6-2.6,2.6c-1.4,0-2.6-1.2-2.6-2.6c0-1.4,1.2-2.6,2.6-2.6l0,0
	C897.5,248.2,898.6,249.4,898.6,250.8z"/>
<circle class="st12" cx="894.2" cy="238.4" r="2.6"/>
<path class="st12" d="M847.9,254c0,1.1-0.9,2.1-2,2.1c-1.1,0-2.1-0.9-2.1-2c0-1.1,0.9-2.1,2.1-2.1c0,0,0,0,0,0c1.1,0,2,0.8,2.1,1.9
	C847.9,253.9,847.9,253.9,847.9,254z"/>
<path class="st12" d="M849,273c0,1.4-1.1,2.5-2.5,2.5c-1.4,0-2.5-1.1-2.5-2.5c0-1.4,1.1-2.5,2.5-2.5l0,0
	C847.9,270.6,849,271.7,849,273z"/>
<circle class="st12" cx="793.9" cy="253.8" r="2.6"/>
<circle class="st12" cx="822.6" cy="279.1" r="2.6"/>
<path class="st12" d="M781.9,295.9c0,1.1-0.8,1.9-1.9,1.9c-1.1,0-1.9-0.8-1.9-1.9s0.8-1.9,1.9-1.9c0,0,0,0,0,0
	C781.1,294,781.9,294.8,781.9,295.9z"/>
<path class="st12" d="M784.5,294.7c0,0.7-0.6,1.2-1.2,1.2s-1.2-0.6-1.2-1.2c0-0.7,0.6-1.2,1.2-1.2l0,0
	C783.9,293.5,784.5,294,784.5,294.7z"/>
<path class="st12" d="M770.3,301.8c0,0.7-0.6,1.2-1.2,1.2s-1.2-0.6-1.2-1.2c0-0.7,0.6-1.2,1.2-1.2l0,0
	C769.8,300.6,770.3,301.1,770.3,301.8z"/>
<path class="st12" d="M764.7,295.9c0,0.7-0.5,1.2-1.2,1.2s-1.2-0.5-1.2-1.2c0-0.7,0.5-1.2,1.2-1.2c0,0,0,0,0,0
	C764.1,294.7,764.7,295.2,764.7,295.9z"/>
<circle class="st12" cx="735.9" cy="271.6" r="1.2"/>
<path class="st12" d="M748.4,264.7c0,0.9-0.7,1.7-1.7,1.7c-0.9,0-1.7-0.7-1.7-1.7c0-0.9,0.7-1.7,1.7-1.7c0,0,0,0,0,0
	C747.7,263,748.4,263.7,748.4,264.7z"/>
<path class="st12" d="M723.7,267.6c0,0.9-0.8,1.7-1.7,1.7c-0.9,0-1.7-0.8-1.7-1.7c0-0.9,0.8-1.7,1.7-1.7c0,0,0,0,0,0
	C723,266,723.7,266.7,723.7,267.6C723.7,267.6,723.7,267.6,723.7,267.6z"/>
<circle class="st12" cx="776.8" cy="309.9" r="1.6"/>
<circle class="st12" cx="763.7" cy="318.1" r="1.6"/>
<path class="st12" d="M794.8,304.4c0,0.8-0.7,1.5-1.5,1.5c-0.8,0-1.5-0.7-1.5-1.5s0.7-1.5,1.5-1.5c0,0,0,0,0,0
	C794.2,302.9,794.8,303.5,794.8,304.4z"/>
<path class="st12" d="M806.5,293.6c0,0.9-0.8,1.7-1.7,1.7c-0.9,0-1.7-0.8-1.7-1.7c0-0.9,0.8-1.7,1.7-1.7l0,0
	C805.8,291.9,806.5,292.7,806.5,293.6z"/>
<path class="st12" d="M809.8,284.2c0,0.9-0.8,1.7-1.7,1.7c-0.9,0-1.7-0.8-1.7-1.7c0-0.9,0.8-1.7,1.7-1.7l0,0
	C809,282.5,809.8,283.2,809.8,284.2C809.8,284.2,809.8,284.2,809.8,284.2z"/>
<path class="st12" d="M813.6,293.2c0,0.9-0.7,1.6-1.6,1.6c-0.9,0-1.6-0.7-1.6-1.6c0-0.9,0.7-1.6,1.6-1.6
	C812.9,291.6,813.6,292.3,813.6,293.2C813.6,293.2,813.6,293.2,813.6,293.2z"/>
<path class="st12" d="M806.5,303.8c0,1.1-0.9,2-2,2s-2-0.9-2-2s0.9-2,2-2S806.5,302.7,806.5,303.8z"/>
<circle class="st12" cx="818.9" cy="292.7" r="1.5"/>
<path class="st12" d="M854.9,283.1c0,1.4-1.2,2.6-2.6,2.6c-1.4,0-2.6-1.2-2.6-2.6c0-1.4,1.2-2.6,2.6-2.6l0,0
	C853.7,280.5,854.9,281.7,854.9,283.1z"/>
<circle class="st12" cx="897.9" cy="75.6" r="3.9"/>
</svg>
