<svg id="Layer_1_copy" data-name="Layer 1 copy" xmlns="http://www.w3.org/2000/svg" viewBox="0 0 1242.06 323.26"><defs><style>.cls-1,.cls-10,.cls-100,.cls-101,.cls-102,.cls-103,.cls-104,.cls-105,.cls-106,.cls-107,.cls-108,.cls-109,.cls-11,.cls-110,.cls-111,.cls-112,.cls-113,.cls-114,.cls-115,.cls-116,.cls-117,.cls-118,.cls-119,.cls-12,.cls-120,.cls-121,.cls-122,.cls-123,.cls-124,.cls-125,.cls-126,.cls-127,.cls-128,.cls-129,.cls-13,.cls-130,.cls-131,.cls-132,.cls-133,.cls-134,.cls-135,.cls-136,.cls-137,.cls-138,.cls-139,.cls-14,.cls-140,.cls-141,.cls-142,.cls-143,.cls-144,.cls-145,.cls-146,.cls-147,.cls-148,.cls-149,.cls-15,.cls-150,.cls-151,.cls-152,.cls-153,.cls-154,.cls-155,.cls-156,.cls-157,.cls-158,.cls-159,.cls-16,.cls-160,.cls-161,.cls-162,.cls-163,.cls-164,.cls-165,.cls-166,.cls-167,.cls-168,.cls-169,.cls-17,.cls-170,.cls-171,.cls-172,.cls-173,.cls-174,.cls-175,.cls-176,.cls-177,.cls-178,.cls-179,.cls-18,.cls-180,.cls-181,.cls-182,.cls-183,.cls-184,.cls-185,.cls-186,.cls-187,.cls-188,.cls-189,.cls-19,.cls-190,.cls-191,.cls-192,.cls-193,.cls-194,.cls-195,.cls-196,.cls-197,.cls-198,.cls-199,.cls-20,.cls-200,.cls-201,.cls-202,.cls-203,.cls-204,.cls-205,.cls-206,.cls-207,.cls-208,.cls-209,.cls-21,.cls-210,.cls-211,.cls-212,.cls-213,.cls-214,.cls-215,.cls-216,.cls-217,.cls-218,.cls-219,.cls-22,.cls-220,.cls-221,.cls-222,.cls-223,.cls-224,.cls-225,.cls-226,.cls-227,.cls-228,.cls-229,.cls-23,.cls-230,.cls-231,.cls-232,.cls-233,.cls-234,.cls-235,.cls-236,.cls-237,.cls-238,.cls-239,.cls-24,.cls-240,.cls-241,.cls-242,.cls-243,.cls-244,.cls-245,.cls-246,.cls-247,.cls-248,.cls-249,.cls-25,.cls-250,.cls-251,.cls-26,.cls-27,.cls-28,.cls-29,.cls-3,.cls-30,.cls-31,.cls-32,.cls-33,.cls-34,.cls-35,.cls-36,.cls-37,.cls-38,.cls-39,.cls-4,.cls-40,.cls-41,.cls-42,.cls-43,.cls-44,.cls-45,.cls-46,.cls-47,.cls-48,.cls-49,.cls-5,.cls-50,.cls-51,.cls-52,.cls-53,.cls-54,.cls-55,.cls-56,.cls-57,.cls-58,.cls-59,.cls-6,.cls-60,.cls-61,.cls-62,.cls-63,.cls-64,.cls-65,.cls-66,.cls-67,.cls-68,.cls-69,.cls-7,.cls-70,.cls-71,.cls-72,.cls-73,.cls-74,.cls-75,.cls-76,.cls-77,.cls-78,.cls-79,.cls-8,.cls-80,.cls-81,.cls-82,.cls-83,.cls-84,.cls-85,.cls-86,.cls-87,.cls-88,.cls-89,.cls-9,.cls-90,.cls-91,.cls-92,.cls-93,.cls-94,.cls-95,.cls-96,.cls-97,.cls-98,.cls-99{fill:none;stroke:#fff;}.cls-1,.cls-3{stroke-miterlimit:10;}.cls-2{fill:#f8ca10;}.cls-3{stroke-width:0.3px;}.cls-4{stroke-miterlimit:10;stroke-width:0.3px;}.cls-5{stroke-miterlimit:10.03;stroke-width:0.3px;}.cls-6{stroke-miterlimit:10;stroke-width:0.3px;}.cls-7{stroke-miterlimit:10;stroke-width:0.3px;}.cls-8{stroke-miterlimit:10;stroke-width:0.3px;}.cls-9{stroke-miterlimit:10.04;stroke-width:0.3px;}.cls-10{stroke-miterlimit:10;stroke-width:0.3px;}.cls-11{stroke-miterlimit:10;stroke-width:0.3px;}.cls-12{stroke-miterlimit:10;stroke-width:0.3px;}.cls-13{stroke-miterlimit:10;stroke-width:0.3px;}.cls-14{stroke-miterlimit:10;stroke-width:0.3px;}.cls-15{stroke-miterlimit:10;stroke-width:0.3px;}.cls-16{stroke-miterlimit:10;stroke-width:0.3px;}.cls-17{stroke-miterlimit:10;stroke-width:0.3px;}.cls-18{stroke-miterlimit:9.98;stroke-width:0.3px;}.cls-19{stroke-miterlimit:10;stroke-width:0.3px;}.cls-20{stroke-miterlimit:10;stroke-width:0.3px;}.cls-21{stroke-miterlimit:10;stroke-width:0.3px;}.cls-22{stroke-miterlimit:10;stroke-width:0.3px;}.cls-23{stroke-miterlimit:10;stroke-width:0.3px;}.cls-24{stroke-miterlimit:10;stroke-width:0.3px;}.cls-25{stroke-miterlimit:10;stroke-width:0.3px;}.cls-26{stroke-miterlimit:10;stroke-width:0.3px;}.cls-27{stroke-miterlimit:10;stroke-width:0.3px;}.cls-28{stroke-miterlimit:10;stroke-width:0.3px;}.cls-29{stroke-miterlimit:10;stroke-width:0.3px;}.cls-30{stroke-miterlimit:10;stroke-width:0.3px;}.cls-31{stroke-miterlimit:10;stroke-width:0.3px;}.cls-32{stroke-miterlimit:10;stroke-width:0.3px;}.cls-33{stroke-miterlimit:10;stroke-width:0.3px;}.cls-34{stroke-miterlimit:10;stroke-width:0.3px;}.cls-35{stroke-miterlimit:10;stroke-width:0.3px;}.cls-36{stroke-miterlimit:10;stroke-width:0.3px;}.cls-37{stroke-miterlimit:10;stroke-width:0.3px;}.cls-38{stroke-miterlimit:10;stroke-width:0.3px;}.cls-39{stroke-miterlimit:10;stroke-width:0.3px;}.cls-40{stroke-miterlimit:10;stroke-width:0.3px;}.cls-41{stroke-miterlimit:10;stroke-width:0.3px;}.cls-42{stroke-miterlimit:10;stroke-width:0.3px;}.cls-43{stroke-miterlimit:10;stroke-width:0.3px;}.cls-44{stroke-miterlimit:10;stroke-width:0.3px;}.cls-45{stroke-miterlimit:10;stroke-width:0.3px;}.cls-46{stroke-miterlimit:9.96;stroke-width:0.3px;}.cls-47{stroke-miterlimit:10;stroke-width:0.3px;}.cls-48{stroke-miterlimit:10;stroke-width:0.3px;}.cls-49{stroke-miterlimit:10;stroke-width:0.3px;}.cls-50{stroke-miterlimit:10;stroke-width:0.3px;}.cls-51{stroke-miterlimit:10;stroke-width:0.3px;}.cls-52{stroke-miterlimit:10;stroke-width:0.3px;}.cls-53{stroke-miterlimit:10;stroke-width:0.3px;}.cls-54{stroke-miterlimit:10;stroke-width:0.3px;}.cls-55{stroke-miterlimit:10;stroke-width:0.3px;}.cls-56{stroke-miterlimit:10;stroke-width:0.3px;}.cls-57{stroke-miterlimit:10;stroke-width:0.3px;}.cls-58{stroke-miterlimit:10;stroke-width:0.3px;}.cls-59{stroke-miterlimit:10;stroke-width:0.3px;}.cls-60{stroke-miterlimit:10;stroke-width:0.3px;}.cls-61{stroke-miterlimit:10;stroke-width:0.3px;}.cls-62{stroke-miterlimit:10;stroke-width:0.3px;}.cls-63{stroke-miterlimit:10;stroke-width:0.3px;}.cls-64{stroke-miterlimit:10;stroke-width:0.3px;}.cls-65{stroke-miterlimit:10;stroke-width:0.3px;}.cls-66{stroke-miterlimit:10;stroke-width:0.3px;}.cls-67{stroke-miterlimit:9.95;stroke-width:0.3px;}.cls-68{stroke-miterlimit:10;stroke-width:0.3px;}.cls-69{stroke-miterlimit:9.99;stroke-width:0.3px;}.cls-70{stroke-miterlimit:10;stroke-width:0.3px;}.cls-71{stroke-miterlimit:10;stroke-width:0.3px;}.cls-72{stroke-miterlimit:10;stroke-width:0.3px;}.cls-73{stroke-miterlimit:10;stroke-width:0.3px;}.cls-74{stroke-miterlimit:10;stroke-width:0.3px;}.cls-75{stroke-miterlimit:10;stroke-width:0.3px;}.cls-76{stroke-miterlimit:10;stroke-width:0.3px;}.cls-77{stroke-miterlimit:10;stroke-width:0.3px;}.cls-78{stroke-miterlimit:10;stroke-width:0.3px;}.cls-79{stroke-miterlimit:10;stroke-width:0.3px;}.cls-80{stroke-miterlimit:10;stroke-width:0.3px;}.cls-81{stroke-miterlimit:10;stroke-width:0.3px;}.cls-82{stroke-miterlimit:10;stroke-width:0.3px;}.cls-83{stroke-miterlimit:10;stroke-width:0.3px;}.cls-84{stroke-miterlimit:10;stroke-width:0.3px;}.cls-85{stroke-miterlimit:10;stroke-width:0.3px;}.cls-86{stroke-miterlimit:10;stroke-width:0.3px;}.cls-87{stroke-miterlimit:10;stroke-width:0.3px;}.cls-88{stroke-miterlimit:10;stroke-width:0.3px;}.cls-89{stroke-miterlimit:10;stroke-width:0.3px;}.cls-90{stroke-miterlimit:10;stroke-width:0.3px;}.cls-91{stroke-miterlimit:10;stroke-width:0.3px;}.cls-92{stroke-miterlimit:10;stroke-width:0.3px;}.cls-93{stroke-miterlimit:10;stroke-width:0.3px;}.cls-94{stroke-miterlimit:10;stroke-width:0.3px;}.cls-95{stroke-miterlimit:10;stroke-width:0.3px;}.cls-96{stroke-miterlimit:10;stroke-width:0.3px;}.cls-97{stroke-miterlimit:10;stroke-width:0.3px;}.cls-98{stroke-miterlimit:10;stroke-width:0.3px;}.cls-99{stroke-miterlimit:10;stroke-width:0.3px;}.cls-100{stroke-miterlimit:10;stroke-width:0.3px;}.cls-101{stroke-miterlimit:10;stroke-width:0.3px;}.cls-102{stroke-miterlimit:10;stroke-width:0.3px;}.cls-103{stroke-miterlimit:10;stroke-width:0.3px;}.cls-104{stroke-miterlimit:10;stroke-width:0.3px;}.cls-105{stroke-miterlimit:10;stroke-width:0.3px;}.cls-106{stroke-miterlimit:10;stroke-width:0.3px;}.cls-107{stroke-miterlimit:10;stroke-width:0.3px;}.cls-108{stroke-miterlimit:10;stroke-width:0.3px;}.cls-109{stroke-miterlimit:10;stroke-width:0.3px;}.cls-110{stroke-miterlimit:10;stroke-width:0.3px;}.cls-111{stroke-miterlimit:10;stroke-width:0.3px;}.cls-112{stroke-miterlimit:10;stroke-width:0.3px;}.cls-113{stroke-miterlimit:10;stroke-width:0.3px;}.cls-114{stroke-miterlimit:10;stroke-width:0.3px;}.cls-115{stroke-miterlimit:10;stroke-width:0.3px;}.cls-116{stroke-miterlimit:10;stroke-width:0.3px;}.cls-117{stroke-miterlimit:10;stroke-width:0.3px;}.cls-118{stroke-miterlimit:10;stroke-width:0.3px;}.cls-119{stroke-miterlimit:10;stroke-width:0.3px;}.cls-120{stroke-miterlimit:10;stroke-width:0.3px;}.cls-121{stroke-miterlimit:10;stroke-width:0.3px;}.cls-122{stroke-miterlimit:10;stroke-width:0.3px;}.cls-123{stroke-miterlimit:10;stroke-width:0.3px;}.cls-124{stroke-miterlimit:10;stroke-width:0.3px;}.cls-125{stroke-miterlimit:10;stroke-width:0.3px;}.cls-126{stroke-miterlimit:10;stroke-width:0.3px;}.cls-127{stroke-miterlimit:10;stroke-width:0.3px;}.cls-128{stroke-miterlimit:10;stroke-width:0.3px;}.cls-129{stroke-miterlimit:10;stroke-width:0.3px;}.cls-130{stroke-miterlimit:10;stroke-width:0.3px;}.cls-131{stroke-miterlimit:10.01;stroke-width:0.3px;}.cls-132{stroke-miterlimit:10;stroke-width:0.3px;}.cls-133{stroke-miterlimit:10;stroke-width:0.3px;}.cls-134{stroke-miterlimit:10;stroke-width:0.3px;}.cls-135{stroke-miterlimit:10;stroke-width:0.3px;}.cls-136{stroke-miterlimit:10;stroke-width:0.3px;}.cls-137{stroke-miterlimit:10;stroke-width:0.3px;}.cls-138{stroke-miterlimit:10;stroke-width:0.3px;}.cls-139{stroke-miterlimit:10;stroke-width:0.3px;}.cls-140{stroke-miterlimit:10;stroke-width:0.3px;}.cls-141{stroke-miterlimit:10;stroke-width:0.3px;}.cls-142{stroke-miterlimit:10;stroke-width:0.3px;}.cls-143{stroke-miterlimit:10;stroke-width:0.3px;}.cls-144{stroke-miterlimit:10;stroke-width:0.3px;}.cls-145{stroke-miterlimit:10;stroke-width:0.3px;}.cls-146{stroke-miterlimit:10;stroke-width:0.3px;}.cls-147{stroke-miterlimit:10;stroke-width:0.3px;}.cls-148{stroke-miterlimit:10;stroke-width:0.3px;}.cls-149{stroke-miterlimit:10;stroke-width:0.3px;}.cls-150{stroke-miterlimit:10;stroke-width:0.3px;}.cls-151{stroke-miterlimit:10;stroke-width:0.3px;}.cls-152{stroke-miterlimit:10;stroke-width:0.3px;}.cls-153{stroke-miterlimit:10;stroke-width:0.3px;}.cls-154{stroke-miterlimit:10;stroke-width:0.3px;}.cls-155{stroke-miterlimit:10;stroke-width:0.3px;}.cls-156{stroke-miterlimit:10;stroke-width:0.3px;}.cls-157{stroke-miterlimit:10;stroke-width:0.3px;}.cls-158{stroke-miterlimit:10;stroke-width:0.3px;}.cls-159{stroke-miterlimit:10;stroke-width:0.3px;}.cls-160{stroke-miterlimit:10;stroke-width:0.3px;}.cls-161{stroke-miterlimit:10;stroke-width:0.3px;}.cls-162{stroke-miterlimit:10;stroke-width:0.3px;}.cls-163{stroke-miterlimit:10;stroke-width:0.3px;}.cls-164{stroke-miterlimit:10;stroke-width:0.3px;}.cls-165{stroke-miterlimit:10;stroke-width:0.3px;}.cls-166{stroke-miterlimit:10;stroke-width:0.3px;}.cls-167{stroke-miterlimit:10;stroke-width:0.3px;}.cls-168{stroke-miterlimit:10.03;stroke-width:0.3px;}.cls-169{stroke-miterlimit:10;stroke-width:0.3px;}.cls-170{stroke-miterlimit:10;stroke-width:0.3px;}.cls-171{stroke-miterlimit:10;stroke-width:0.3px;}.cls-172{stroke-miterlimit:10;stroke-width:0.3px;}.cls-173{stroke-miterlimit:10;stroke-width:0.3px;}.cls-174{stroke-miterlimit:10;stroke-width:0.3px;}.cls-175{stroke-miterlimit:10;stroke-width:0.3px;}.cls-176{stroke-miterlimit:10;stroke-width:0.3px;}.cls-177{stroke-miterlimit:10;stroke-width:0.3px;}.cls-178{stroke-miterlimit:10;stroke-width:0.3px;}.cls-179{stroke-miterlimit:10;stroke-width:0.3px;}.cls-180{stroke-miterlimit:10;stroke-width:0.3px;}.cls-181{stroke-miterlimit:10;stroke-width:0.3px;}.cls-182{stroke-miterlimit:10;stroke-width:0.3px;}.cls-183{stroke-miterlimit:10;stroke-width:0.3px;}.cls-184{stroke-miterlimit:10;stroke-width:0.3px;}.cls-185{stroke-miterlimit:9.99;stroke-width:0.3px;}.cls-186{stroke-miterlimit:10;stroke-width:0.3px;}.cls-187{stroke-miterlimit:10;stroke-width:0.3px;}.cls-188{stroke-miterlimit:10;stroke-width:0.3px;}.cls-189{stroke-miterlimit:10;stroke-width:0.3px;}.cls-190{stroke-miterlimit:10;stroke-width:0.3px;}.cls-191{stroke-miterlimit:10;stroke-width:0.3px;}.cls-192{stroke-miterlimit:10;stroke-width:0.3px;}.cls-193{stroke-miterlimit:10;stroke-width:0.3px;}.cls-194{stroke-miterlimit:10;stroke-width:0.3px;}.cls-195{stroke-miterlimit:10;stroke-width:0.3px;}.cls-196{stroke-miterlimit:10;stroke-width:0.3px;}.cls-197{stroke-miterlimit:10;stroke-width:0.3px;}.cls-198{stroke-miterlimit:10;stroke-width:0.3px;}.cls-199{stroke-miterlimit:10;stroke-width:0.3px;}.cls-200{stroke-miterlimit:10;stroke-width:0.3px;}.cls-201{stroke-miterlimit:10;stroke-width:0.3px;}.cls-202{stroke-miterlimit:10;stroke-width:0.3px;}.cls-203{stroke-miterlimit:10;stroke-width:0.3px;}.cls-204{stroke-miterlimit:10;stroke-width:0.3px;}.cls-205{stroke-miterlimit:10;stroke-width:0.3px;}.cls-206{stroke-miterlimit:10;stroke-width:0.3px;}.cls-207{stroke-miterlimit:10;stroke-width:0.3px;}.cls-208{stroke-miterlimit:10;stroke-width:0.3px;}.cls-209{stroke-miterlimit:10;stroke-width:0.3px;}.cls-210{stroke-miterlimit:10;stroke-width:0.3px;}.cls-211{stroke-miterlimit:10;stroke-width:0.3px;}.cls-212{stroke-miterlimit:10;stroke-width:0.3px;}.cls-213{stroke-miterlimit:10;stroke-width:0.3px;}.cls-214{stroke-miterlimit:10;stroke-width:0.3px;}.cls-215{stroke-miterlimit:10;stroke-width:0.3px;}.cls-216{stroke-miterlimit:10;stroke-width:0.3px;}.cls-217{stroke-miterlimit:10;stroke-width:0.3px;}.cls-218{stroke-miterlimit:10;stroke-width:0.3px;}.cls-219{stroke-miterlimit:10;stroke-width:0.3px;}.cls-220{stroke-miterlimit:10;stroke-width:0.3px;}.cls-221{stroke-miterlimit:10;stroke-width:0.3px;}.cls-222{stroke-miterlimit:10;stroke-width:0.3px;}.cls-223{stroke-miterlimit:10;stroke-width:0.3px;}.cls-224{stroke-miterlimit:10;stroke-width:0.3px;}.cls-225{stroke-miterlimit:10;stroke-width:0.3px;}.cls-226{stroke-miterlimit:10;stroke-width:0.3px;}.cls-227{stroke-miterlimit:10;stroke-width:0.3px;}.cls-228{stroke-miterlimit:10;stroke-width:0.3px;}.cls-229{stroke-miterlimit:10;stroke-width:0.3px;}.cls-230{stroke-miterlimit:10;stroke-width:0.3px;}.cls-231{stroke-miterlimit:10;stroke-width:0.3px;}.cls-232{stroke-miterlimit:10;stroke-width:0.3px;}.cls-233{stroke-miterlimit:10;stroke-width:0.3px;}.cls-234{stroke-miterlimit:10;stroke-width:0.3px;}.cls-235{stroke-miterlimit:10;stroke-width:0.3px;}.cls-236{stroke-miterlimit:10;stroke-width:0.3px;}.cls-237{stroke-miterlimit:10;stroke-width:0.3px;}.cls-238{stroke-miterlimit:10;stroke-width:0.3px;}.cls-239{stroke-miterlimit:10;stroke-width:0.3px;}.cls-240{stroke-miterlimit:10;stroke-width:0.3px;}.cls-241{stroke-miterlimit:10;stroke-width:0.3px;}.cls-242{stroke-miterlimit:10;stroke-width:0.3px;}.cls-243{stroke-miterlimit:10;stroke-width:0.3px;}.cls-244{stroke-miterlimit:10;stroke-width:0.3px;}.cls-245{stroke-miterlimit:10;stroke-width:0.3px;}.cls-246{stroke-miterlimit:10;stroke-width:0.3px;}.cls-247{stroke-miterlimit:10;stroke-width:0.3px;}.cls-248{stroke-miterlimit:10;stroke-width:0.3px;}.cls-249{stroke-miterlimit:10;stroke-width:0.3px;}.cls-250{stroke-miterlimit:10;stroke-width:0.3px;}.cls-251{stroke-miterlimit:10;stroke-width:0.3px;}.cls-252{fill:#fff;}</style></defs><title>handshake-white-16</title><circle class="cls-1" cx="404.4" cy="20.75" r="3.02"/><circle class="cls-1" cx="165.28" cy="180.99" r="3.02"/><circle class="cls-1" cx="1171.28" cy="31.13" r="3.02"/><line class="cls-1" x1="368" y1="20.75" y2="20.75"/><line class="cls-1" x1="136.09" y1="46.79" x2="333.2" y2="46.79"/><line class="cls-1" x1="105.16" y1="298.86" x2="302.27" y2="298.86"/><line class="cls-1" x1="206.9" y1="178.34" x2="404.01" y2="178.34"/><line class="cls-1" x1="10.93" y1="298.86" x2="60.93" y2="298.86"/><line class="cls-1" x1="1094.46" y1="125.36" x2="1144.46" y2="125.36"/><line class="cls-1" x1="333.2" y1="155.92" x2="383.2" y2="155.92"/><line class="cls-1" x1="1176.91" y1="0.5" x2="1226.91" y2="0.5"/><circle class="cls-1" cx="1097.48" cy="319.74" r="3.02"/><line class="cls-1" x1="1119.67" y1="320.5" x2="1242.06" y2="320.5"/><line class="cls-1" x1="1129.49" y1="158.61" x2="1242.06" y2="158.61"/><line class="cls-1" x1="1069.87" y1="31.13" x2="1146.76" y2="31.13"/><path class="cls-2" d="M448.62,292.53l50-114.25,15.66-68.34L526,59.07l-1.69,51.11L508.1,189.94l-26.82,74.49-11.76,33ZM897.94,77.09l32.27,46.22,23.39,58.87,1.23,25.43-1.55,15.18h7.66l6.56-7.59L962.79,167l-28.31-47.38Zm10.94,161.7-.55-20.58-19.55-25ZM871,241.11,884.13,253l11.62.13,12.17-14.08Zm-32,3.73,6.87,10.77,10.67,9,10.15-10.77-7.48-13-11.08-10.36-13.81-13.84-22.19-14.82ZM604.91,104.34l-4.2,38.35,3.59,59.38,6.46-96.4-4.21-24.82L602.86,80Zm288,76.81L911,193.25l-3.07-15.17-6.84-31-14.12-30.14L872.17,85.77ZM687.5,290.06l6.84,9.58,8.75,1.09-8-9.37-4.58-8.68Zm-38.7-23,7.29,7.8,8.71,1.5,6.1-5.2L655.73,263l-2.14-9-5.47,4.37Zm-39.07-18-6-6.15-4.24-5.54,4.31,13.88L616.38,263l4.71-6.05-.82-7.08ZM668,111.94,685.42,110l15.75-16L697,87.47l-10.87,1.36Z" transform="translate(0 -8.43)"/><path class="cls-2" d="M794.43,255.61l26.8,23.58-29.53-21.4-14.16-23.38Zm8.85-78.67L812,201.69l22.7,15,23.55,23.87,13.26.69-18-20.1-37.87-22.29Zm53.67,87-5.33,20.51,13.74-12.93L867.1,253Zm-22.77,24.4,16.62-4.1-28.24-4.51ZM581.62,219.43l20.52,10.12,2.46-6.29.07-20.24-4-60.41L591,183.43Zm80.82-95.31,24.61,9,71.72-28.64L712.48,118.9,686,125.06l-14.49-2.44L668,113Zm97.84-18.65,32.27,15.58,45.53,33.37,18.32,16.27,31.82,21.74,19.87,25.23,4.51.21,8.75,4.37-4.64-10.66L911,193.25l-97.22-65.49Zm21,192.47,12.23,7.59,10-.41Zm37.8-3.76,3.29-13.68-18.22,24.92Zm-42.25,17.23,3.49-13.27L763.5,320Zm-30.35-45.33,31.17,31.31,3.08-.07,2.43-.68ZM721,283.24l6.43,14.22-.79-18.36-4.61-10-18,3.08Zm-29.94-9.1L704,272l-20.81-18,2.73,14.42L684.77,274l.79,5.78Zm-58.39-37,8.61,12.92,6.63,3.55,8.62-9.77-38.42-19.73Zm95.36,60.61,18.57,17.19,16.67,4.57Zm224.68-74.29L966,257.78l27.62,46.77-20-68.23Zm-96.13,38.9a2,2,0,1,0,2,2,2,2,0,0,0-2-2h0Z" transform="translate(0 -8.43)"/><polygon class="cls-3" points="763.69 311.37 763.61 311.35 746.35 306.41 746.31 306.38 727.31 289.15 727.55 288.88 746.53 306.08 763.64 310.97 776.63 302.85 780.37 288.73 793.25 297.04 804.21 296.63 818.88 285.63 822.21 271.49 834.26 279.8 852.18 275.72 865.22 263.09 866.44 245.17 858.92 232.21 871.63 232.64 883.93 244.53 895.67 244.53 908.7 230.29 907.88 209.5 888.04 183.95 855.45 161.82 827.75 138.43 793.91 113.21 759.53 96.63 728.87 96.63 712.89 110.77 712.85 110.78 685.74 116.94 685.7 116.93 671.44 114.45 667.61 103.57 667.67 103.49 685.99 80.24 698.25 61.04 650.08 72.6 629.94 77.12 629.9 77.11 603.06 71.83 605.09 93.74 600.99 133.98 591.96 172.56 581.88 210.98 602.26 221.03 602.1 221.36 581.45 211.18 591.61 172.47 600.63 133.91 604.73 93.74 602.66 71.38 602.9 71.42 629.93 76.75 649.99 72.25 699.05 60.48 686.29 80.45 668.02 103.63 671.72 114.13 685.73 116.57 712.72 110.43 728.73 96.26 759.65 96.28 794.1 112.9 827.97 138.14 855.67 161.53 888.29 183.69 888.31 183.71 908.24 209.37 908.24 209.43 909.07 230.43 909.02 230.48 895.84 244.9 883.79 244.9 871.47 233 859.57 232.6 866.82 245.08 866.81 245.14 865.58 263.26 865.52 263.31 852.36 276.06 852.31 276.07 834.18 280.19 834.12 280.14 822.44 272.09 819.21 285.84 819.15 285.88 804.34 296.99 793.15 297.41 793.1 297.38 780.6 289.31 776.95 303.08 776.89 303.12 763.69 311.37"/><path class="cls-3" d="M961.06,222.94H922.38l-10-5,3.33-6.67-15.57-65.55L871.88,85.09,840.77,72.81l-40.19-12.3L776.82,49.45l-47.54,7.79L705.55,60.1l-6.71,9.2-.29-.22,6.8-9.32h.08l23.79-2.87,47.64-7.8h0l23.79,11.08,40.18,12.29L872,84.75l25.91-7.4,32.91,46.09,23,58.28h0l1.63,26.15,12.42,7.45Zm-38.6-.36H960.9l6.36-7.16-12.2-7.32V208l-1.64-26.22-23-58.21L897.69,77.75,872.18,85l28.22,60.54h0L916,211.28l-3.23,6.45Z" transform="translate(0 -8.43)"/><path class="cls-3" d="M469.66,297.66h-.16l-75.77-17.3,49.37-60.88-9.82-97.65h0l41.91-72.3h.12l51,8.23-.82,49.38-16.41,80.44Zm-75.27-17.55,75,17.12,39.33-109.78,16.4-80.38.81-49-50.58-8.16-41.75,72,9.84,97.64v.06Z" transform="translate(0 -8.43)"/><polygon class="cls-3" points="536.86 258.03 536.81 258.02 481.84 255.56 481.85 255.2 536.77 257.66 562.93 242.12 581.51 210.98 581.82 211.17 563.2 242.39 563.16 242.41 536.86 258.03"/><polygon class="cls-3" points="602.75 71.75 592.53 64.39 526.11 49.63 526.19 49.27 592.68 64.05 592.71 64.07 602.97 71.45 602.75 71.75"/><polygon class="cls-3" points="993.72 297.04 965.74 248.91 952.4 214.43 952.74 214.29 966.07 248.75 993.87 296.58 1068.17 265.97 1036.26 224.24 1036.28 224.15 1059.22 143.07 998.51 106.97 1015.7 31.67 897.86 69.32 897.75 68.97 1016.2 31.13 1016.13 31.44 998.93 106.79 1059.65 142.9 1059.61 143.03 1036.66 224.17 1068.75 266.12 1068.53 266.21 993.72 297.04"/><path class="cls-3" d="M631.74,263.17H616.28l-12.66-11.84h0L599,236.77v-.06l5.52-13.52,13.59.83h.05l15.34,13.71L641.51,250l6.28,3.77-3.15,5h-.07Zm-15.27-.36h15.21l12.76-4.35,2.89-4.62-6-3.65-8.12-12.25L618,224.32l-13.2-.8-5.4,13.21L604,251.12Z" transform="translate(0 -8.43)"/><path class="cls-3" d="M655.16,287.24l-11-11.05.27-17.63h0l3-4.86,8.53-10h13.37l14,10.16,2.76,14.6L685,274h6.18l-5.5,6.63-11.25,6h0ZM644.48,276l10.8,10.83,19-.54,11.14-6,4.92-6H684.5l1.12-5.93L682.91,254l-13.84-10h-13l-8.41,9.86-3,4.78Z" transform="translate(0 -8.43)"/><path class="cls-3" d="M698.39,310.49h0l-10.16-6.6v-.05l-4.67-10.71v-.05l1.92-12.63h0l5.23-6.34h.07l12.92-2.47,17.58,11.19v.05l6.34,14.89-.1.09L713.8,310.21h-.07Zm-9.92-6.88,10,6.51,15.19-.27,13.53-12.18L721,283.08,703.6,271.94l-12.72,2.44-5.12,6.2-1.9,12.48Z" transform="translate(0 -8.43)"/><polygon class="cls-3" points="667.83 103.78 667.79 103.42 685.77 101.24 700.94 85.53 696.71 79.18 686.16 80.54 686.11 80.17 696.89 78.79 701.41 85.57 685.95 101.59 667.83 103.78"/><path class="cls-3" d="M703.19,300.94l-9-1.12v-.07l-6.9-9.65,3.2-7.84,4.52,8.47,12.18,2.5Zm-8.75-1.47,8.55,1.07,3.65-7-11.88-2.43V291l-4.19-7.86-2.82,6.93Z" transform="translate(0 -8.43)"/><path class="cls-3" d="M664.85,276.59,656,274.92l-7.33-7.75-.7-8.91,5.78-4.62,2,9,7,7,8.25,1.7Zm-8.71-2,8.61,1.61,5.39-4.62L662.52,270h0l-7.15-7.15-1.87-8.52-5.16,4.13.67,8.59Z" transform="translate(0 -8.43)"/><polygon class="cls-3" points="621.32 248.69 610.14 248.69 610.14 248.33 620.91 248.33 620.13 241.6 609.65 240.79 603.77 234.72 604 242.8 603.63 242.81 603.38 233.79 609.81 240.44 620.46 241.26 621.32 248.69"/><rect class="cls-4" x="603.84" y="250.06" width="5.93" height="0.37" transform="translate(-49.36 225.08) rotate(-20.95)"/><rect class="cls-5" x="614.64" y="244.98" width="0.37" height="7.67" transform="translate(-17.88 41.39) rotate(-4.57)"/><rect class="cls-6" x="608.97" y="253.13" width="12.29" height="0.37" transform="translate(-31.59 400.82) rotate(-35.94)"/><rect class="cls-7" x="644.4" y="260.61" width="13.41" height="0.37" transform="translate(181.25 773.12) rotate(-69.77)"/><rect class="cls-8" x="655.64" y="262.75" width="0.37" height="11.94" transform="translate(-10.26 18.1) rotate(-2.3)"/><rect class="cls-9" x="652.69" y="260.95" width="8.03" height="0.37" transform="translate(-35.75 393.96) rotate(-33.22)"/><rect class="cls-10" x="655.23" y="272.11" width="8.08" height="0.37" transform="translate(-31.31 442.43) rotate(-36.94)"/><rect class="cls-11" x="663.54" y="269.76" width="0.37" height="6.92" transform="translate(-52.34 215.42) rotate(-18.43)"/><rect class="cls-12" x="690.21" y="295.05" width="8.87" height="0.37" transform="translate(361.81 964.24) rotate(-86.86)"/><rect class="cls-13" x="691.13" y="286.67" width="0.37" height="7.4" transform="translate(350.62 949.89) rotate(-85.76)"/><rect class="cls-14" x="698.85" y="289.51" width="0.37" height="12.82" transform="translate(-27.45 507.6) rotate(-39.8)"/><rect class="cls-15" x="601.18" y="236" width="0.37" height="7.54" transform="matrix(0.81, -0.58, 0.58, 0.81, -26.69, 388.42)"/><rect class="cls-16" x="594.39" y="232.82" width="19.38" height="0.37" transform="translate(338.44 815.03) rotate(-86.87)"/><rect class="cls-17" x="600.75" y="236.39" width="26.24" height="0.37" transform="translate(195.17 735.59) rotate(-71.55)"/><rect class="cls-18" x="612.48" y="241.65" width="18.1" height="0.37" transform="translate(20.93 523.35) rotate(-47.03)"/><rect class="cls-19" x="612.28" y="221.23" width="0.37" height="30.57" transform="translate(-36.22 329.37) rotate(-29.99)"/><rect class="cls-20" x="614.91" y="259.76" width="7.67" height="0.37" transform="translate(33.31 579.67) rotate(-52.06)"/><rect class="cls-21" x="626.16" y="253.8" width="0.37" height="12.2" transform="translate(90.12 666.57) rotate(-60.28)"/><rect class="cls-22" x="628.87" y="256.29" width="15.45" height="0.37" transform="translate(47.79 600.66) rotate(-52.86)"/><rect class="cls-23" x="625.58" y="247.58" width="0.37" height="17.48" transform="translate(-16.02 460.95) rotate(-40.64)"/><rect class="cls-24" x="618.79" y="249.65" width="26.28" height="0.37" transform="translate(355.2 862.02) rotate(-87.54)"/><rect class="cls-25" x="649.82" y="248.96" width="9.98" height="0.37" transform="translate(260.3 819.68) rotate(-76.56)"/><rect class="cls-26" x="650.37" y="251.28" width="0.37" height="5.41" transform="translate(356 878.77) rotate(-86.38)"/><rect class="cls-27" x="644.71" y="258.2" width="3.42" height="0.37" transform="translate(-14.26 30.59) rotate(-3.42)"/><rect class="cls-28" x="647.82" y="253.65" width="0.37" height="4.72" transform="translate(-10.51 19.96) rotate(-2.49)"/><rect class="cls-29" x="641.69" y="271.31" width="9.82" height="0.37" transform="translate(111.62 716.49) rotate(-63.06)"/><rect class="cls-30" x="646.57" y="258.09" width="0.37" height="9.48" transform="translate(-50.05 297.31) rotate(-25.64)"/><rect class="cls-31" x="637.35" y="266.75" width="17.5" height="0.37" transform="translate(258.15 840.05) rotate(-78.74)"/><rect class="cls-32" x="651.94" y="266.64" width="0.37" height="20.78" transform="translate(-54.31 214.16) rotate(-18.61)"/><rect class="cls-33" x="644.32" y="275.17" width="11.74" height="0.37" transform="translate(-22.73 53.04) rotate(-5.32)"/><rect class="cls-34" x="649.56" y="280.75" width="12.33" height="0.37" transform="translate(331.83 908.11) rotate(-86.19)"/><rect class="cls-35" x="669.53" y="274.37" width="0.37" height="14.07" transform="translate(-5.62 540.61) rotate(-44.41)"/><rect class="cls-36" x="653.14" y="281.8" width="14.1" height="0.37" transform="translate(14.91 588.16) rotate(-49.12)"/><rect class="cls-37" x="671.8" y="280.18" width="15.88" height="0.37" transform="translate(30.62 617.31) rotate(-50.43)"/><rect class="cls-38" x="684.91" y="274.14" width="0.37" height="6.77" transform="translate(-23.48 58.63) rotate(-5.51)"/><rect class="cls-39" x="665.23" y="269.67" width="0.37" height="21.97" transform="translate(73.63 686.15) rotate(-57.84)"/><rect class="cls-40" x="672.57" y="270.77" width="0.37" height="15.69" transform="translate(-47.4 162.47) rotate(-13.99)"/><rect class="cls-41" x="654.13" y="280.34" width="31.84" height="0.37" transform="translate(-56.3 280.88) rotate(-23.41)"/><rect class="cls-42" x="659.08" y="243.91" width="0.37" height="26.43" transform="translate(-43.64 167.03) rotate(-14.68)"/><rect class="cls-43" x="662.92" y="258.06" width="0.37" height="17.44" transform="translate(113.68 715.53) rotate(-61.68)"/><rect class="cls-44" x="669.48" y="254.17" width="0.37" height="16.98" transform="translate(-29.98 87.08) rotate(-7.98)"/><rect class="cls-45" x="667.96" y="239.43" width="0.37" height="29.16" transform="translate(411.81 912.83) rotate(-89.8)"/><rect class="cls-46" x="664.65" y="238.1" width="0.37" height="28.45" transform="translate(206.53 787.61) rotate(-70.66)"/><rect class="cls-47" x="670.8" y="269.81" width="15.21" height="0.37" transform="translate(-40.3 132.74) rotate(-11.54)"/><rect class="cls-48" x="666.51" y="262.39" width="20.68" height="0.37" transform="translate(73.11 657.35) rotate(-54.94)"/><rect class="cls-49" x="670.72" y="237" width="0.37" height="37.99" transform="translate(49.93 608.17) rotate(-51.03)"/><rect class="cls-50" x="686.38" y="278.26" width="8.48" height="0.37" transform="translate(389.43 951.02) rotate(-88.1)"/><rect class="cls-51" x="687.62" y="278.67" width="0.37" height="5.74" transform="translate(163.66 800) rotate(-67.41)"/><rect class="cls-52" x="683.12" y="291.32" width="4.87" height="0.37" transform="translate(-33.63 477.32) rotate(-38.15)"/><rect class="cls-53" x="686.41" y="280.59" width="0.37" height="9.61" transform="translate(-45.11 144.77) rotate(-12.33)"/><rect class="cls-5" x="667.1" y="245.13" width="10.62" height="0.37" transform="translate(374.26 887.59) rotate(-85.43)"/><rect class="cls-54" x="655.55" y="261.79" width="22" height="0.37" transform="translate(-16.99 39.78) rotate(-4.09)"/><rect class="cls-55" x="687.88" y="301.31" width="7.01" height="0.37" transform="translate(-51.69 422.48) rotate(-33.44)"/><rect class="cls-56" x="687.61" y="290.05" width="0.37" height="13.55" transform="translate(-12.11 21.36) rotate(-2.46)"/><rect class="cls-57" x="696.2" y="299.19" width="0.37" height="11.43" transform="translate(-63.04 261.91) rotate(-21.04)"/><rect class="cls-58" x="708.08" y="298.16" width="0.37" height="14.33" transform="translate(16.41 637.77) rotate(-49.55)"/><rect class="cls-59" x="703.49" y="296.35" width="28.06" height="0.37" transform="translate(242.27 902.03) rotate(-74.71)"/><rect class="cls-60" x="695.35" y="305.26" width="10.64" height="0.37" transform="translate(119.77 793.78) rotate(-64.09)"/><rect class="cls-61" x="703.11" y="298.94" width="24.43" height="0.37" transform="matrix(0.99, -0.14, 0.14, 0.99, -34.19, 92.2)"/><rect class="cls-62" x="705.05" y="271.69" width="0.37" height="22.15" transform="translate(-33.56 96.85) rotate(-8.34)"/><rect class="cls-63" x="705.63" y="262.63" width="0.37" height="31.83" transform="translate(243.3 871.65) rotate(-73.98)"/><rect class="cls-64" x="688.51" y="276.97" width="17.09" height="0.37" transform="translate(-15.69 502.6) rotate(-39.85)"/><polygon class="cls-3" points="695.05 282.53 694.72 282.38 703.81 263 704.14 263.15 695.05 282.53"/><rect class="cls-65" x="705.22" y="287.96" width="17.61" height="0.37" transform="translate(-32.41 468.64) rotate(-36.18)"/><rect class="cls-66" x="711.6" y="290.19" width="0.37" height="11.66" transform="translate(113.1 773.23) rotate(-61.63)"/><rect class="cls-67" x="682.35" y="272.49" width="0.37" height="7.34" transform="matrix(0.77, -0.63, 0.63, 0.77, -20.6, 486.2)"/><rect class="cls-3" x="727.43" y="288.84" width="53.05" height="0.37"/><rect class="cls-68" x="746.49" y="312.75" width="30.37" height="0.37" transform="translate(-27.4 69.04) rotate(-5.72)"/><rect class="cls-69" x="776.6" y="283.02" width="45.63" height="0.37" transform="translate(-47.13 326.03) rotate(-22.97)"/><rect class="cls-70" x="780.69" y="295.58" width="38.4" height="0.37" transform="matrix(1, -0.08, 0.08, 1, -20.66, 54.95)"/><rect class="cls-71" x="813.8" y="260.34" width="53.98" height="0.37" transform="translate(76.08 688) rotate(-46.9)"/><rect class="cls-72" x="826.59" y="270.76" width="47.6" height="0.37" transform="translate(72.73 700.48) rotate(-47.06)"/><rect class="cls-73" x="821.87" y="275.48" width="43.71" height="0.37" transform="matrix(0.98, -0.2, 0.2, 0.98, -38.42, 168.85)"/><rect class="cls-74" x="788.46" y="292.82" width="38.67" height="0.37" transform="translate(6.57 595.08) rotate(-41.12)"/><rect class="cls-75" x="744.36" y="305.78" width="38.16" height="0.37" transform="translate(-55.93 368.94) rotate(-26.82)"/><rect class="cls-76" x="862" y="240.66" width="0.37" height="31.05" transform="translate(-32.9 159.38) rotate(-10.91)"/><rect class="cls-77" x="837.33" y="267.09" width="0.37" height="30.01" transform="matrix(0.15, -0.99, 0.99, 0.15, 432.67, 1059.23)"/><rect class="cls-78" x="883.58" y="233.79" width="0.37" height="26.97" transform="translate(271.94 922.85) rotate(-63.82)"/><rect class="cls-79" x="898.33" y="189.99" width="0.37" height="50.94" transform="translate(-9.96 375.65) rotate(-24)"/><rect class="cls-80" x="871.53" y="239.74" width="37.41" height="0.37" transform="translate(-13.98 51.25) rotate(-3.81)"/><rect class="cls-49" x="880.75" y="246.5" width="16.53" height="0.37" transform="translate(138.11 774.3) rotate(-51.03)"/><rect class="cls-81" x="891.78" y="192.24" width="0.37" height="61.18" transform="translate(-20.7 103.53) rotate(-7.1)"/><rect class="cls-82" x="843.91" y="274.41" width="20.5" height="0.37" transform="translate(382.42 1029.34) rotate(-76.1)"/><polygon class="cls-3" points="804.42 296.92 804.13 296.7 822.18 271.68 822.47 271.9 804.42 296.92"/><rect class="cls-83" x="792.25" y="288.85" width="0.37" height="25.04" transform="translate(259.33 952.15) rotate(-71.86)"/><rect class="cls-84" x="745.4" y="287.32" width="0.37" height="42.47" transform="translate(93.43 775.3) rotate(-58.56)"/><rect class="cls-85" x="752.3" y="301.14" width="27.81" height="0.37" transform="translate(65.42 725.06) rotate(-53.13)"/><rect class="cls-86" x="763.34" y="258.69" width="0.37" height="46.3" transform="translate(38.8 643.78) rotate(-47.33)"/><rect class="cls-87" x="784.96" y="230.09" width="0.37" height="28.03" transform="translate(18.52 532.86) rotate(-38.46)"/><rect class="cls-88" x="807.97" y="248.67" width="0.37" height="38.07" transform="translate(72.08 687.03) rotate(-48.49)"/><rect class="cls-89" x="761.9" y="259.72" width="0.37" height="44.19" transform="translate(23.16 611.31) rotate(-44.87)"/><polygon class="cls-3" points="782.56 287.93 746.32 257.78 746.55 257.5 782.79 287.65 782.56 287.93"/><rect class="cls-90" x="786.02" y="237.06" width="0.37" height="29.01" transform="translate(-18.35 427.78) rotate(-30.67)"/><rect class="cls-91" x="806.85" y="250.05" width="0.37" height="37.96" transform="translate(113.22 752.83) rotate(-53.79)"/><rect class="cls-92" x="790.92" y="256.54" width="3.58" height="0.37" transform="translate(61.38 647.61) rotate(-46.58)"/><rect class="cls-93" x="809.3" y="175.07" width="0.37" height="25.75" transform="translate(17.28 430.49) rotate(-30.65)"/><rect class="cls-94" x="862.6" y="217.64" width="0.37" height="27.29" transform="translate(70.85 636.05) rotate(-42.56)"/><rect class="cls-95" x="834.52" y="188.25" width="0.37" height="43.52" transform="translate(229.15 813.24) rotate(-59.41)"/><rect class="cls-96" x="846.53" y="211.47" width="0.37" height="34.9" transform="translate(87.35 659.46) rotate(-45.16)"/><rect class="cls-97" x="807.31" y="176.04" width="0.37" height="26.52" transform="translate(-15.68 282.18) rotate(-20.21)"/><rect class="cls-98" x="823.07" y="195.87" width="0.37" height="26.68" transform="translate(192.02 769.17) rotate(-56.26)"/><rect class="cls-99" x="811.58" y="200.16" width="4.57" height="0.37" transform="translate(55.11 548) rotate(-38.97)"/><rect class="cls-100" x="843.68" y="209.02" width="0.37" height="19.67" transform="translate(437.28 981.59) rotate(-76.74)"/><rect class="cls-101" x="856.11" y="220.63" width="0.37" height="20.87" transform="translate(-30.59 230.2) rotate(-15.59)"/><rect class="cls-102" x="825.24" y="195" width="0.37" height="25.82" transform="translate(106.43 655.11) rotate(-46.5)"/><rect class="cls-103" x="832.71" y="188.71" width="0.37" height="45.63" transform="translate(288.38 867.89) rotate(-64.93)"/><rect class="cls-104" x="873.65" y="207.99" width="0.37" height="44.73" transform="translate(303.43 922.85) rotate(-65.63)"/><rect class="cls-105" x="793.05" y="247.62" width="66.94" height="0.37" transform="translate(-33.69 171.68) rotate(-12.19)"/><rect class="cls-106" x="855.34" y="251.04" width="0.37" height="24.83" transform="translate(109.77 750.19) rotate(-50.7)"/><rect class="cls-107" x="836.88" y="216.49" width="0.37" height="28.94" transform="translate(-26.01 127.02) rotate(-9.11)"/><rect class="cls-34" x="834.13" y="242.73" width="25.49" height="0.37" transform="translate(548.22 1063.35) rotate(-86.19)"/><rect class="cls-108" x="834.67" y="237.38" width="17.71" height="0.37" transform="translate(245.32 869.53) rotate(-62.68)"/><rect class="cls-109" x="845.85" y="254.45" width="20.82" height="0.37" transform="translate(-20.76 76.34) rotate(-5.6)"/><polygon class="cls-3" points="845.76 247.27 811.91 193.4 812.22 193.2 846.07 247.08 845.76 247.27"/><rect class="cls-110" x="832.3" y="209.62" width="0.37" height="36.18" transform="translate(-25.33 314.32) rotate(-21.62)"/><rect class="cls-111" x="837.19" y="217.82" width="0.37" height="20.36" transform="matrix(0.16, -0.99, 0.99, 0.16, 480.09, 1010.46)"/><rect class="cls-112" x="846.05" y="255.54" width="0.37" height="18.88" transform="translate(-8.2 19.32) rotate(-1.87)"/><rect class="cls-113" x="820.41" y="199.76" width="0.37" height="49" transform="translate(-26.8 290.63) rotate(-20.33)"/><rect class="cls-114" x="808.84" y="263.51" width="33.71" height="0.37" transform="translate(401.49 1011.15) rotate(-78.41)"/><rect class="cls-90" x="799.87" y="256.73" width="0.37" height="32.13" transform="translate(-27.24 437.81) rotate(-30.67)"/><rect class="cls-115" x="801.44" y="290.14" width="10.42" height="0.37" transform="translate(267.89 948.76) rotate(-70.86)"/><rect class="cls-116" x="754.81" y="263.92" width="0.37" height="35.85" transform="translate(-43.05 385.56) rotate(-28.47)"/><rect class="cls-117" x="770.01" y="294.97" width="0.37" height="19.15" transform="translate(3.73 609.92) rotate(-43.84)"/><rect class="cls-118" x="852.92" y="216.36" width="38.11" height="0.37" transform="translate(-26.46 214.6) rotate(-14.36)"/><rect class="cls-119" x="675.2" y="99.12" width="21.01" height="0.37" transform="translate(553.02 770.9) rotate(-87.2)"/><rect class="cls-120" x="663.24" y="99.46" width="38.03" height="0.37" transform="translate(97.92 457.21) rotate(-40.37)"/><rect class="cls-121" x="685.85" y="94.97" width="15.41" height="0.37" transform="translate(-6.46 94.27) rotate(-8.43)"/><rect class="cls-122" x="685.25" y="109.76" width="0.37" height="15.42" transform="translate(-4.19 19.41) rotate(-2.32)"/><rect class="cls-123" x="668.91" y="115.97" width="18.73" height="0.37" transform="translate(107.92 492.75) rotate(-43.74)"/><rect class="cls-124" x="699.01" y="100.11" width="0.37" height="28.85" transform="matrix(0.31, -0.95, 0.95, 0.31, 371.02, 734.03)"/><rect class="cls-125" x="706.75" y="92.34" width="0.37" height="27.63" transform="translate(19.87 295.13) rotate(-24.57)"/><rect class="cls-126" x="714.77" y="84.32" width="0.37" height="29.56" transform="translate(359.84 719.06) rotate(-68.42)"/><rect class="cls-127" x="686.76" y="73.51" width="28.8" height="0.37" transform="matrix(0.3, -0.95, 0.95, 0.3, 421.39, 712.4)"/><rect class="cls-128" x="690.74" y="72.08" width="43.96" height="0.37" transform="translate(147.75 504.29) rotate(-43.73)"/><rect class="cls-129" x="698.7" y="85.03" width="33.53" height="0.37" transform="matrix(0.85, -0.52, 0.52, 0.85, 60.01, 376.01)"/><rect class="cls-130" x="744.5" y="70.25" width="0.37" height="41" transform="translate(164.5 557.9) rotate(-46.29)"/><rect class="cls-131" x="722.05" y="90.32" width="28.37" height="0.37" transform="translate(616.38 814.11) rotate(-87.71)"/><rect class="cls-132" x="724.26" y="63.75" width="0.37" height="15.08" transform="translate(166.23 530.09) rotate(-45.55)"/><rect class="cls-133" x="739.02" y="76.96" width="58.34" height="0.37" transform="translate(466.47 779.36) rotate(-72.73)"/><rect class="cls-134" x="822.32" y="23.13" width="0.37" height="101.58" transform="translate(570.95 852.06) rotate(-77.4)"/><rect class="cls-135" x="870.69" y="169.22" width="47.57" height="0.37" transform="translate(493.76 978.42) rotate(-74.61)"/><rect class="cls-3" x="908.06" y="209.25" width="4.51" height="0.37"/><rect class="cls-136" x="901.82" y="184.97" width="0.37" height="33.61" transform="translate(224.49 822.07) rotate(-55.47)"/><rect class="cls-137" x="906.8" y="214.31" width="10.19" height="0.37" transform="translate(76.21 629.36) rotate(-40.1)"/><rect class="cls-138" x="885.68" y="184.53" width="24.39" height="0.37" transform="translate(61.39 551.25) rotate(-35.77)"/><rect class="cls-139" x="878.83" y="144.09" width="0.37" height="49.29" transform="translate(-1.45 321.32) rotate(-21.23)"/><rect class="cls-140" x="896.62" y="135.19" width="38.14" height="0.37" transform="translate(115.36 592.01) rotate(-38.57)"/><rect class="cls-141" x="899.13" y="77.52" width="0.37" height="68.98" transform="translate(-4.03 30.9) rotate(-2.5)"/><rect class="cls-142" x="918.73" y="210.47" width="0.37" height="13.12" transform="translate(5.55 447.9) rotate(-27.97)"/><rect class="cls-143" x="920.41" y="215.22" width="36.4" height="0.37" transform="translate(-6.11 393.77) rotate(-24.11)"/><rect class="cls-144" x="957.93" y="207.81" width="0.37" height="15.56" transform="translate(-11.92 360.43) rotate(-21.66)"/><rect class="cls-145" x="915.79" y="209.49" width="39.52" height="0.37" transform="translate(-14.31 70.92) rotate(-4.82)"/><rect class="cls-146" x="910.78" y="196.39" width="47.92" height="0.37" transform="translate(77.87 610.22) rotate(-38.1)"/><rect class="cls-147" x="927.05" y="132.42" width="0.37" height="63.49" transform="translate(275.48 835.38) rotate(-56.24)"/><rect class="cls-148" x="840.32" y="143.77" width="62.28" height="0.37" transform="translate(315.6 821.96) rotate(-60.38)"/><rect class="cls-149" x="783.06" y="61.02" width="0.37" height="61.84" transform="matrix(0.94, -0.34, 0.34, 0.94, 15.73, 264.73)"/><rect class="cls-150" x="831.4" y="93.01" width="0.37" height="80.82" transform="translate(449.29 875.45) rotate(-72.12)"/><polygon class="cls-3" points="759.64 96.62 759.5 96.28 783.97 85.93 784.11 86.27 759.64 96.62"/><rect class="cls-151" x="827.29" y="70.07" width="0.37" height="100.64" transform="translate(299.23 760.16) rotate(-59.1)"/><rect class="cls-152" x="728.73" y="69.28" width="45.11" height="0.37" transform="translate(13.25 217.74) rotate(-17.27)"/><rect class="cls-153" x="829.79" y="26.78" width="0.37" height="126.3" transform="translate(392.86 792.75) rotate(-64.61)"/><rect class="cls-154" x="718.59" y="274.36" width="30.42" height="0.37" transform="translate(-29.05 444.72) rotate(-33.69)"/><rect class="cls-155" x="749.64" y="267.12" width="0.37" height="36.71" transform="translate(38.97 649.1) rotate(-48.47)"/><rect class="cls-156" x="766.4" y="242.43" width="19.47" height="0.37" transform="matrix(0.07, -1, 1, 0.07, 479.57, 991.35)"/><rect class="cls-157" x="791.6" y="245.21" width="0.37" height="47.1" transform="translate(35.15 616.23) rotate(-43.94)"/><rect class="cls-158" x="783.32" y="246.08" width="0.37" height="17.35" transform="translate(272.86 892.87) rotate(-69.71)"/><rect class="cls-159" x="544.1" y="162.56" width="121.15" height="0.37" transform="translate(440.77 758.68) rotate(-89.89)"/><rect class="cls-160" x="593.09" y="209.98" width="0.37" height="23.12" transform="translate(281.46 764.31) rotate(-80.98)"/><rect class="cls-161" x="642.97" y="228.05" width="0.37" height="23.72" transform="translate(232.76 781.73) rotate(-73.74)"/><rect class="cls-162" x="630.29" y="99.34" width="0.37" height="148.97" transform="translate(-21.36 218.6) rotate(-20.08)"/><rect class="cls-163" x="636.8" y="212.55" width="0.37" height="42.81" transform="translate(136.3 683.56) rotate(-62.62)"/><rect class="cls-164" x="604.35" y="179.39" width="0.37" height="48.78" transform="translate(-11.85 359.84) rotate(-33.57)"/><rect class="cls-165" x="693.14" y="249.2" width="0.37" height="27.14" transform="translate(40.7 606.23) rotate(-49.09)"/><rect class="cls-166" x="703.45" y="268.63" width="43.17" height="0.37" transform="translate(-28.94 88.77) rotate(-7.52)"/><rect class="cls-167" x="744.88" y="258.95" width="32.08" height="0.37" transform="translate(-37.72 341.89) rotate(-25.32)"/><rect class="cls-168" x="782.86" y="257.31" width="0.37" height="44.62" transform="translate(-34.58 120.08) rotate(-9.18)"/><rect class="cls-169" x="802.89" y="213.04" width="0.37" height="54.54" transform="translate(354.3 939.89) rotate(-74.29)"/><rect class="cls-170" x="681.55" y="243.16" width="97.12" height="0.37" transform="translate(-35.72 158.84) rotate(-12.76)"/><rect class="cls-171" x="759.47" y="204.51" width="61.31" height="0.37" transform="translate(276.64 830.72) rotate(-65.54)"/><rect class="cls-172" x="802.71" y="173.35" width="54" height="0.37" transform="translate(-14.91 93.39) rotate(-6.96)"/><rect class="cls-173" x="726.84" y="101.36" width="0.37" height="141.07" transform="translate(62.79 505.37) rotate(-40.54)"/><rect class="cls-174" x="757.65" y="94.21" width="0.37" height="107.27" transform="translate(223.42 696.71) rotate(-57.24)"/><rect class="cls-175" x="797.87" y="120.69" width="0.37" height="56.63" transform="translate(-13.73 130.57) rotate(-9.87)"/><rect class="cls-176" x="711.62" y="111.44" width="48.47" height="0.37" transform="translate(-0.18 213.64) rotate(-17.16)"/><rect class="cls-177" x="829.82" y="195.95" width="50.12" height="0.37" transform="translate(613.84 1031.02) rotate(-86.97)"/><rect class="cls-137" x="888.82" y="137.2" width="0.37" height="49.2" transform="translate(192.61 729.17) rotate(-49.9)"/><rect class="cls-178" x="617.48" y="184.31" width="119.81" height="0.37" transform="translate(400.75 821.33) rotate(-82.03)"/><rect class="cls-179" x="638.3" y="79.1" width="0.37" height="68.79" transform="translate(357.58 689.56) rotate(-74.41)"/><rect class="cls-180" x="648.61" y="75.47" width="0.37" height="46.32" transform="translate(194.71 563.98) rotate(-54.86)"/><rect class="cls-181" x="602.22" y="94.68" width="31.5" height="0.37" transform="translate(66.21 380.45) rotate(-36.78)"/><rect class="cls-182" x="658.17" y="59.23" width="0.37" height="55.69" transform="translate(531.02 730.41) rotate(-86.48)"/><rect class="cls-183" x="587.55" y="173.33" width="114.7" height="0.37" transform="translate(190.47 654.47) rotate(-62.18)"/><rect class="cls-184" x="637.58" y="179.24" width="167.54" height="0.37" transform="translate(232.14 730.64) rotate(-62.81)"/><rect class="cls-185" x="892.1" y="235.12" width="25.72" height="0.37" transform="translate(217.67 860.86) rotate(-57.26)"/><rect class="cls-186" x="879.2" y="162.45" width="0.37" height="72.04" transform="translate(80.12 607.03) rotate(-40.27)"/><rect class="cls-187" x="667.56" y="227.17" width="111.31" height="0.37" transform="translate(470.52 933.67) rotate(-87.98)"/><rect class="cls-188" x="837.27" y="150.15" width="33.46" height="0.37" transform="matrix(0.96, -0.27, 0.27, 0.96, -8.74, 229.02)"/><rect class="cls-189" x="779.47" y="84.67" width="24.2" height="0.37" transform="translate(253.33 663.01) rotate(-53.58)"/><rect class="cls-190" x="757.02" y="56.88" width="0.37" height="57.47" transform="translate(438.04 769.16) rotate(-71.69)"/><rect class="cls-191" x="752.92" y="79.86" width="0.37" height="80.76" transform="translate(606.13 860.16) rotate(-87.96)"/><rect class="cls-192" x="810.89" y="84.33" width="0.37" height="80.69" transform="translate(121.54 561.14) rotate(-41.57)"/><rect class="cls-193" x="847.97" y="126.27" width="0.37" height="45.84" transform="translate(2.81 305.13) rotate(-20.98)"/><rect class="cls-194" x="816.47" y="101.29" width="0.37" height="46.97" transform="translate(584.83 909.29) rotate(-82.39)"/><polygon class="cls-3" points="793.68 112.75 764.48 79.79 764.76 79.55 793.95 112.5 793.68 112.75"/><rect class="cls-195" x="727.3" y="96.35" width="39.02" height="0.37" transform="translate(32.05 325.11) rotate(-25.71)"/><rect class="cls-196" x="728.77" y="263.85" width="0.37" height="14.6" transform="translate(264 886.19) rotate(-73.69)"/><rect class="cls-197" x="739.11" y="248.91" width="45.06" height="0.37" transform="translate(65.29 637.21) rotate(-47.77)"/><rect class="cls-35" x="913.51" y="81.47" width="119.51" height="0.37" transform="translate(220.87 695.97) rotate(-44.41)"/><rect class="cls-198" x="935.91" y="148.29" width="80.33" height="0.37" transform="translate(304.89 864.12) rotate(-55.82)"/><rect class="cls-199" x="951.37" y="166.12" width="110.33" height="0.37" transform="translate(-5.89 283.4) rotate(-16.45)"/><rect class="cls-200" x="1001.93" y="188.55" width="0.37" height="71.04" transform="translate(541.63 1133.45) rotate(-75.96)"/><rect class="cls-201" x="948.09" y="179.66" width="118.58" height="0.37" transform="translate(36.04 493.36) rotate(-28.46)"/><rect class="cls-202" x="977.21" y="219.74" width="0.37" height="88.74" transform="translate(-28.39 371.68) rotate(-21.7)"/><rect class="cls-161" x="980.58" y="214.43" width="0.37" height="93.6" transform="translate(-33.91 276.63) rotate(-16.26)"/><rect class="cls-200" x="1001.93" y="188.55" width="0.37" height="71.04" transform="translate(541.63 1133.45) rotate(-75.96)"/><rect class="cls-203" x="710.76" y="111.89" width="32.29" height="0.37" transform="translate(24.86 322.91) rotate(-26.11)"/><rect class="cls-204" x="741.41" y="101.53" width="33.05" height="0.37" transform="translate(-6.14 124.86) rotate(-10.01)"/><rect class="cls-205" x="806.78" y="76.57" width="0.37" height="72.66" transform="translate(382.25 799.86) rotate(-66.55)"/><rect class="cls-206" x="767.45" y="276.82" width="39.47" height="0.37" transform="translate(337.5 971.55) rotate(-76.78)"/><rect class="cls-207" x="840.68" y="115.25" width="60.95" height="0.37" transform="translate(729.33 974.25) rotate(-88.26)"/><rect class="cls-208" x="839.35" y="122.33" width="48.23" height="0.37" transform="translate(-5.32 190.16) rotate(-13.08)"/><rect class="cls-209" x="897.13" y="115.6" width="0.37" height="63.83" transform="translate(1.21 293.78) rotate(-19.13)"/><rect class="cls-210" x="602.28" y="142.32" width="0.37" height="60.7" transform="translate(-8.46 24.4) rotate(-3.1)"/><rect class="cls-211" x="585.41" y="162.68" width="104.88" height="0.37" transform="translate(103.09 538.36) rotate(-50)"/><rect class="cls-212" x="578.96" y="211.12" width="27.57" height="0.37" transform="translate(-9.17 386.43) rotate(-36.58)"/><rect class="cls-213" x="522.68" y="185.16" width="0.37" height="83.56" transform="translate(-45.76 179.12) rotate(-19.5)"/><rect class="cls-214" x="565.58" y="35.21" width="0.37" height="91.74" transform="matrix(0.51, -0.86, 0.86, 0.51, 209.93, 519.91)"/><rect class="cls-215" x="524.27" y="106.34" width="80.72" height="0.37" transform="translate(-5.55 27.03) rotate(-3.58)"/><rect class="cls-216" x="545.06" y="163.74" width="0.37" height="79.47" transform="translate(139.48 612.24) rotate(-66.26)"/><rect class="cls-217" x="562.39" y="83.95" width="0.37" height="83.44" transform="translate(222.19 582.46) rotate(-66.4)"/><rect class="cls-218" x="552.91" y="102.02" width="0.37" height="124.75" transform="translate(-13.57 264.74) rotate(-27.42)"/><rect class="cls-219" x="535.82" y="177.52" width="0.37" height="83.2" transform="translate(-13.56 393.14) rotate(-40.6)"/><rect class="cls-220" x="432.83" y="112.6" width="92.25" height="0.37" transform="translate(-11.07 59.74) rotate(-8.05)"/><rect class="cls-221" x="499.88" y="40.76" width="0.37" height="77.64" transform="translate(64.21 328.89) rotate(-39.64)"/><rect class="cls-222" x="439.89" y="204" width="72.86" height="0.37" transform="translate(-41.67 211.64) rotate(-24.96)"/><rect class="cls-223" x="471.17" y="104.7" width="0.37" height="101.14" transform="translate(43.26 397.87) rotate(-48.62)"/><rect class="cls-224" x="462.33" y="212.21" width="0.37" height="58.73" transform="translate(-44.95 354.61) rotate(-41.04)"/><rect class="cls-225" x="393.31" y="271.75" width="89.31" height="0.37" transform="translate(-42.52 76.69) rotate(-10.59)"/><rect class="cls-226" x="945.81" y="236.15" width="41.87" height="0.37" transform="translate(692.81 1184.68) rotate(-87.76)"/><rect class="cls-227" x="946.76" y="215.21" width="14.89" height="0.37" transform="translate(617.71 1125.48) rotate(-82.6)"/><polygon class="cls-3" points="993.95 296.91 993.64 296.72 1036.71 225.34 1037.02 225.53 993.95 296.91"/><rect class="cls-228" x="598.18" y="71.73" width="0.37" height="33.8" transform="translate(5.48 200.12) rotate(-19.86)"/><rect class="cls-229" x="557.76" y="96.81" width="0.37" height="99.36" transform="translate(44.46 400.92) rotate(-41.82)"/><rect class="cls-230" x="759.55" y="134.91" width="0.37" height="100.58" transform="translate(-17.76 260.41) rotate(-19.84)"/><rect class="cls-231" x="718.85" y="285.13" width="25.69" height="0.37" transform="translate(217.04 870.11) rotate(-70.36)"/><rect class="cls-232" x="811.5" y="184.52" width="49.63" height="0.37" transform="translate(47.03 508.8) rotate(-35.3)"/><rect class="cls-233" x="818.69" y="68.12" width="0.37" height="67.1" transform="translate(117.14 527.36) rotate(-38.82)"/><rect class="cls-234" x="717.56" y="57.55" width="60.43" height="0.37" transform="translate(13.45 201.84) rotate(-16.15)"/><rect class="cls-235" x="712" y="55.72" width="0.37" height="14.68" transform="translate(356.43 674.81) rotate(-65.22)"/><rect class="cls-236" x="772.77" y="61.47" width="27.87" height="0.37" transform="translate(-2.37 60.92) rotate(-5.04)"/><rect class="cls-237" x="635.12" y="180.18" width="90.82" height="0.37" transform="translate(-21.89 124.37) rotate(-10.97)"/><rect class="cls-20" x="620.35" y="156.91" width="80.96" height="0.37" transform="translate(130.63 573.24) rotate(-52.06)"/><rect class="cls-238" x="930.38" y="119.25" width="68.59" height="0.37" transform="translate(-7.36 107.48) rotate(-6.85)"/><rect class="cls-239" x="957.49" y="183.21" width="111.98" height="0.37" transform="translate(77.34 604.41) rotate(-34.9)"/><rect class="cls-240" x="651.72" y="207.69" width="91.65" height="0.37" transform="translate(103.26 619.69) rotate(-51.86)"/><rect class="cls-241" x="633.12" y="212.34" width="66.94" height="0.37" transform="translate(251.77 767.5) rotate(-71.32)"/><rect class="cls-242" x="729.5" y="176.56" width="110.42" height="0.37" transform="translate(497.98 919.84) rotate(-81.81)"/><rect class="cls-243" x="687.47" y="183.74" width="139.85" height="0.37" transform="translate(220.69 740.67) rotate(-60.13)"/><rect class="cls-170" x="718.27" y="118.52" width="0.37" height="54.91" transform="translate(-14.5 153.86) rotate(-12.76)"/><rect class="cls-172" x="694.49" y="124.76" width="0.37" height="147.65" transform="matrix(0.99, -0.12, 0.12, 0.99, -18.95, 77.21)"/><rect class="cls-48" x="696.6" y="258.02" width="33.11" height="0.37" transform="translate(92.14 685.21) rotate(-54.94)"/><rect class="cls-244" x="415.22" y="164" width="137.07" height="0.37" transform="translate(65.25 448.72) rotate(-53.74)"/><rect class="cls-245" x="456.22" y="217.27" width="0.37" height="82.24" transform="translate(-58.61 150.82) rotate(-18.62)"/><rect class="cls-246" x="491.48" y="47.85" width="0.37" height="140.9" transform="translate(-14.03 109) rotate(-13.43)"/><rect class="cls-247" x="424.41" y="89.61" width="110.71" height="0.37" transform="translate(34.73 281.82) rotate(-34.85)"/><rect class="cls-248" x="907.25" y="110.6" width="155.03" height="0.37" transform="translate(487.35 959.45) rotate(-66.29)"/><rect class="cls-249" x="994.77" y="158.13" width="0.37" height="96.47" transform="translate(308.76 947.37) rotate(-59.24)"/><rect class="cls-250" x="1018.5" y="188.54" width="0.37" height="115.27" transform="translate(288.63 989.64) rotate(-59.43)"/><rect class="cls-251" x="948.57" y="42.92" width="0.37" height="106.93" transform="translate(522.49 941.02) rotate(-69.25)"/><circle class="cls-252" cx="998.99" cy="116.13" r="5.17" transform="matrix(0.92, -0.38, 0.38, 0.92, 31.6, 382.71)"/><circle class="cls-252" cx="1015.54" cy="39.97" r="3.97" transform="translate(269.18 721.37) rotate(-45)"/><circle class="cls-252" cx="871.96" cy="76.12" r="2.87"/><circle class="cls-252" cx="887.35" cy="108.73" r="2.87"/><circle class="cls-252" cx="856.17" cy="162.47" r="2.87"/><circle class="cls-252" cx="838.12" cy="146.88" r="2.53"/><circle class="cls-252" cx="802.84" cy="168.21" r="2.53"/><circle class="cls-252" cx="604.02" cy="194.39" r="2.53"/><circle class="cls-252" cx="743.42" cy="137.79" r="3.58" transform="translate(488.29 841.09) rotate(-80.78)"/><circle class="cls-252" cx="722.34" cy="245.54" r="3.58" transform="translate(364.59 910.97) rotate(-80.81)"/><circle class="cls-252" cx="725.27" cy="172.81" r="4.17" transform="translate(-10.92 282.27) rotate(-22.5)"/><circle class="cls-252" cx="676.84" cy="180.89" r="3.56" transform="translate(151.85 636.38) rotate(-56.43)"/><circle class="cls-252" cx="692.71" cy="170.34" r="3.12"/><circle class="cls-252" cx="695.85" cy="201.75" r="3.12"/><circle class="cls-252" cx="758.44" cy="174" r="3.12"/><circle class="cls-252" cx="772.88" cy="148.88" r="3.12"/><circle class="cls-252" cx="748.7" cy="191.91" r="3.12"/><circle class="cls-252" cx="698.14" cy="216.4" r="3.12"/><circle class="cls-252" cx="786.33" cy="166.71" r="4.71" transform="translate(443.45 885.28) rotate(-76.72)"/><circle class="cls-252" cx="636.23" cy="180.73" r="3.38"/><circle class="cls-252" cx="630.02" cy="163.96" r="3.21"/><circle class="cls-252" cx="508.76" cy="188.94" r="4.31" transform="translate(207.46 631.9) rotate(-76.65)"/><circle class="cls-252" cx="393.29" cy="280.03" r="4.31" transform="translate(-82.82 351.68) rotate(-45)"/><circle class="cls-252" cx="481.28" cy="264.41" r="4.31" transform="translate(112.88 663.2) rotate(-76.65)"/><circle class="cls-252" cx="602.76" cy="81.14" r="4.31" transform="translate(47.68 321.28) rotate(-31.79)"/><circle class="cls-252" cx="604.89" cy="103.87" r="3.69" transform="translate(6.65 232.52) rotate(-22.65)"/><circle class="cls-252" cx="600.71" cy="134.26" r="3.18"/><circle class="cls-252" cx="591.07" cy="175.08" r="2.15"/><circle class="cls-252" cx="630.75" cy="84.65" r="2.97" transform="translate(124.89 462.37) rotate(-45)"/><circle class="cls-252" cx="525.54" cy="58.3" r="4.31" transform="translate(352.96 549.68) rotate(-77.28)"/><circle class="cls-252" cx="524.8" cy="109.46" r="4.31" transform="translate(312.14 593.13) rotate(-78.41)"/><circle class="cls-252" cx="433.36" cy="121.85" r="4.31" transform="translate(215.7 507.46) rotate(-76.79)"/><circle class="cls-252" cx="475.19" cy="49.24" r="4.31" transform="translate(318.66 492.17) rotate(-76.79)"/><circle class="cls-252" cx="443.21" cy="219.67" r="4.31" transform="translate(128.06 592.52) rotate(-76.79)"/><circle class="cls-252" cx="581.73" cy="218.69" r="3.08" transform="translate(15.75 466.97) rotate(-45)"/><circle class="cls-252" cx="469.54" cy="297.42" r="3.08" transform="translate(-77.88 192.75) rotate(-22.38)"/><circle class="cls-252" cx="562.86" cy="250.69" r="2.67" transform="translate(189.92 732.74) rotate(-76.76)"/><path class="cls-252" d="M539.48,266.27a2.67,2.67,0,1,1-2.68-2.66h0A2.67,2.67,0,0,1,539.48,266.27Z" transform="translate(0 -8.43)"/><circle class="cls-252" cx="777.13" cy="225.02" r="2.53"/><path class="cls-252" d="M777.89,252.46a2.53,2.53,0,1,1-2.53-2.53,2.53,2.53,0,0,1,2.53,2.53Z" transform="translate(0 -8.43)"/><path class="cls-252" d="M671.78,243.71a2.53,2.53,0,1,1-2.53-2.53,2.53,2.53,0,0,1,2.53,2.53Z" transform="translate(0 -8.43)"/><path class="cls-252" d="M633.45,262.58a2,2,0,1,1-2-1.95h0a1.94,1.94,0,0,1,1.94,1.94Z" transform="translate(0 -8.43)"/><path class="cls-252" d="M676.7,286.24a2.12,2.12,0,1,1-2.12-2.12h0A2.12,2.12,0,0,1,676.7,286.24Z" transform="translate(0 -8.43)"/><path class="cls-252" d="M685.18,254.24a2.12,2.12,0,1,1-2.12-2.12h0A2.12,2.12,0,0,1,685.18,254.24Z" transform="translate(0 -8.43)"/><path class="cls-252" d="M656.91,287.06a1.68,1.68,0,1,1-1.68-1.68,1.68,1.68,0,0,1,1.68,1.68Z" transform="translate(0 -8.43)"/><path class="cls-252" d="M706,271.74a2.12,2.12,0,1,1-2.12-2.12h0A2.12,2.12,0,0,1,706,271.74Z" transform="translate(0 -8.43)"/><path class="cls-252" d="M687.64,280.63a2.12,2.12,0,1,1-2.12-2.12h0A2.12,2.12,0,0,1,687.64,280.63Z" transform="translate(0 -8.43)"/><path class="cls-252" d="M646.28,275.6a2.12,2.12,0,1,1-2.12-2.12h0A2.12,2.12,0,0,1,646.28,275.6Z" transform="translate(0 -8.43)"/><path class="cls-252" d="M693.18,274.13a2.12,2.12,0,1,1-2.12-2.12h0A2.12,2.12,0,0,1,693.18,274.13Z" transform="translate(0 -8.43)"/><path class="cls-252" d="M723.12,283.23a2.12,2.12,0,1,1-2.12-2.12h0A2.12,2.12,0,0,1,723.12,283.23Z" transform="translate(0 -8.43)"/><path class="cls-252" d="M729.28,297.59a2.12,2.12,0,1,1-2.12-2.12h0a2.11,2.11,0,0,1,2.11,2.09Z" transform="translate(0 -8.43)"/><path class="cls-252" d="M749,314.51a2.12,2.12,0,1,1-2.12-2.12h0A2.12,2.12,0,0,1,749,314.51Z" transform="translate(0 -8.43)"/><circle class="cls-252" cx="688.46" cy="295.17" r="1.91"/><circle class="cls-252" cx="683.81" cy="284.64" r="1.64"/><circle class="cls-252" cx="690.7" cy="274.2" r="1.33"/><path class="cls-252" d="M686.07,274.22a1.12,1.12,0,1,1-1.13-1.11h0A1.13,1.13,0,0,1,686.07,274.22Z" transform="translate(0 -8.43)"/><path class="cls-252" d="M686.75,268.68a1.11,1.11,0,1,1-1.11-1.11h0A1.11,1.11,0,0,1,686.75,268.68Z" transform="translate(0 -8.43)"/><circle class="cls-252" cx="644.56" cy="250.18" r="1.33"/><path class="cls-252" d="M605.88,251.09a1.93,1.93,0,1,1-1.93-1.93,1.92,1.92,0,0,1,1.93,1.93Z" transform="translate(0 -8.43)"/><path class="cls-252" d="M601.37,236.43a2.34,2.34,0,1,1-2.34-2.34h0A2.34,2.34,0,0,1,601.37,236.43Z" transform="translate(0 -8.43)"/><circle class="cls-252" cx="604.77" cy="214.87" r="2.39"/><path class="cls-252" d="M616,238.43a2.86,2.86,0,1,1-3-2.71h0A2.86,2.86,0,0,1,616,238.43Z" transform="translate(0 -8.43)"/><path class="cls-252" d="M634.42,237.05a1.76,1.76,0,1,1-1.86-1.66h0A1.76,1.76,0,0,1,634.42,237.05Z" transform="translate(0 -8.43)"/><path class="cls-252" d="M620,224a1.88,1.88,0,1,1-2-1.77,1.87,1.87,0,0,1,2,1.77Z" transform="translate(0 -8.43)"/><circle class="cls-252" cx="609.8" cy="248.78" r="2.81" transform="translate(-48.45 219.04) rotate(-20.34)"/><circle class="cls-252" cx="620.46" cy="241.54" r="2.39"/><path class="cls-252" d="M604.06,229.25a2.36,2.36,0,1,1-2.36-2.36h0A2.36,2.36,0,0,1,604.06,229.25Z" transform="translate(0 -8.43)"/><path class="cls-252" d="M617.8,262.94a1.44,1.44,0,1,1-1.44-1.44h0a1.44,1.44,0,0,1,1.44,1.42Z" transform="translate(0 -8.43)"/><circle class="cls-252" cx="610.31" cy="248.82" r="2.13"/><circle class="cls-252" cx="621.08" cy="248.61" r="2.6"/><path class="cls-252" d="M643.09,249.76a1.57,1.57,0,1,1-1.57-1.57h0A1.57,1.57,0,0,1,643.09,249.76Z" transform="translate(0 -8.43)"/><circle class="cls-252" cx="656.09" cy="235.59" r="2.15"/><circle class="cls-252" cx="603.95" cy="234.25" r="1.95"/><circle class="cls-252" cx="653.74" cy="245.62" r="1.33"/><path class="cls-252" d="M670,253.78a1.34,1.34,0,1,1-1.34-1.34h0A1.34,1.34,0,0,1,670,253.78Z" transform="translate(0 -8.43)"/><path class="cls-252" d="M649.16,258.36a1.06,1.06,0,1,1-1.06-1.06,1.05,1.05,0,0,1,1.06,1.06Z" transform="translate(0 -8.43)"/><path class="cls-252" d="M650.38,267a1.51,1.51,0,1,1-3,.35,2,2,0,0,1,0-.35,1.51,1.51,0,0,1,3,0Z" transform="translate(0 -8.43)"/><path class="cls-252" d="M656.85,262.94a1.32,1.32,0,1,1-1.33-1.31h0A1.33,1.33,0,0,1,656.85,262.94Z" transform="translate(0 -8.43)"/><path class="cls-252" d="M678.94,261.47a1.32,1.32,0,1,1-1.32-1.32h0a1.32,1.32,0,0,1,1.32,1.3Z" transform="translate(0 -8.43)"/><path class="cls-252" d="M657.62,274.72a1.32,1.32,0,1,1-1.32-1.32h0a1.31,1.31,0,0,1,1.31,1.31Z" transform="translate(0 -8.43)"/><path class="cls-252" d="M672.28,271.33a1.32,1.32,0,0,1-2.63.23.89.89,0,0,1,0-.23,1.32,1.32,0,0,1,2.63,0Z" transform="translate(0 -8.43)"/><path class="cls-252" d="M666.28,276.15a1.32,1.32,0,1,1-1.33-1.31h0A1.32,1.32,0,0,1,666.28,276.15Z" transform="translate(0 -8.43)"/><path class="cls-252" d="M696.39,290.94A1.44,1.44,0,1,1,695,289.5h0a1.44,1.44,0,0,1,1.44,1.42Z" transform="translate(0 -8.43)"/><path class="cls-252" d="M688.85,290.12a1.18,1.18,0,1,1-1.18-1.18,1.18,1.18,0,0,1,1.18,1.18Z" transform="translate(0 -8.43)"/><path class="cls-252" d="M695.36,299.55a1.18,1.18,0,1,1-1.18-1.18,1.18,1.18,0,0,1,1.18,1.18Z" transform="translate(0 -8.43)"/><circle class="cls-252" cx="703.31" cy="292.35" r="1.64"/><path class="cls-252" d="M701,310.1a2.12,2.12,0,1,1-2.12-2.12h0A2.12,2.12,0,0,1,701,310.1Z" transform="translate(0 -8.43)"/><path class="cls-252" d="M715.12,309.82a1.44,1.44,0,1,1-1.45-1.43h0a1.43,1.43,0,0,1,1.43,1.43Z" transform="translate(0 -8.43)"/><path class="cls-252" d="M796.14,121.05a2.53,2.53,0,1,1-2.54-2.52h0A2.54,2.54,0,0,1,796.14,121.05Z" transform="translate(0 -8.43)"/><circle class="cls-252" cx="741.92" cy="96.22" r="2.53"/><circle class="cls-252" cx="729" cy="96.22" r="2.53"/><path class="cls-252" d="M715.33,119a2.53,2.53,0,1,1-2.53-2.53,2.53,2.53,0,0,1,2.53,2.53Z" transform="translate(0 -8.43)"/><circle class="cls-252" cx="686.55" cy="116.96" r="4.39"/><circle class="cls-252" cx="671.61" cy="123.15" r="2.79" transform="translate(397.92 740.26) rotate(-76.76)"/><circle class="cls-252" cx="686" cy="88.15" r="2.19"/><path class="cls-252" d="M671.28,112.06a2.53,2.53,0,1,1-2.53-2.53A2.53,2.53,0,0,1,671.28,112.06Z" transform="translate(0 -8.43)"/><path class="cls-252" d="M704,94.42a2.25,2.25,0,1,1-2.25-2.25A2.25,2.25,0,0,1,704,94.42Z" transform="translate(0 -8.43)"/><circle class="cls-252" cx="730.23" cy="68.94" r="2.53"/><circle class="cls-252" cx="764.83" cy="79.33" r="2.53"/><circle class="cls-252" cx="705.41" cy="51.71" r="1.64"/><circle class="cls-252" cx="718.85" cy="57.86" r="2.05"/><path class="cls-252" d="M687.71,88.75A1.68,1.68,0,1,1,686,87.08h0A1.69,1.69,0,0,1,687.71,88.75Z" transform="translate(0 -8.43)"/><path class="cls-252" d="M594.28,72.65A1.68,1.68,0,1,1,592.6,71a1.68,1.68,0,0,1,1.68,1.68Z" transform="translate(0 -8.43)"/><circle class="cls-252" cx="685.09" cy="110.17" r="2.86" transform="translate(419.93 742.97) rotate(-76.67)"/><circle class="cls-252" cx="697" cy="78.78" r="1.85"/><circle class="cls-252" cx="727.98" cy="48.63" r="1.85"/><path class="cls-252" d="M815.69,127.76a2,2,0,1,1-2-2A2,2,0,0,1,815.69,127.76Z" transform="translate(0 -8.43)"/><circle class="cls-252" cx="930.28" cy="123.34" r="4.58" transform="translate(659.49 1013.41) rotate(-80.78)"/><circle class="cls-252" cx="954.83" cy="199.18" r="3.91"/><circle class="cls-252" cx="953.6" cy="182.17" r="3.94" transform="translate(150.49 719.23) rotate(-45)"/><circle class="cls-252" cx="1059.43" cy="142.98" r="5.13"/><circle class="cls-252" cx="901.03" cy="147.04" r="3.01" transform="translate(159.93 671.76) rotate(-45)"/><circle class="cls-252" cx="907.58" cy="168.55" r="3.01"/><circle class="cls-252" cx="839.49" cy="119.74" r="3.01"/><circle class="cls-252" cx="784.31" cy="94.32" r="3.01" transform="translate(163.02 573.79) rotate(-45)"/><circle class="cls-252" cx="758.88" cy="96.76" r="3.01"/><circle class="cls-252" cx="799.08" cy="74.63" r="3.01" transform="translate(181.28 578.46) rotate(-45)"/><circle class="cls-252" cx="772.97" cy="54.69" r="3.01"/><path class="cls-252" d="M779.28,49.61A2.26,2.26,0,1,1,777,47.35h0a2.25,2.25,0,0,1,2.25,2.25Z" transform="translate(0 -8.43)"/><path class="cls-252" d="M802.36,60.68a2.26,2.26,0,1,1-2.27-2.25h0A2.27,2.27,0,0,1,802.36,60.68Z" transform="translate(0 -8.43)"/><circle class="cls-252" cx="869.98" cy="146.42" r="3.01" transform="translate(10.19 335.64) rotate(-22.5)"/><circle class="cls-252" cx="916.06" cy="202.44" r="3.01"/><circle class="cls-252" cx="952.57" cy="214.36" r="4.34"/><circle class="cls-252" cx="965.97" cy="249.36" r="4.28"/><circle class="cls-252" cx="908.94" cy="230.49" r="3.01"/><circle class="cls-252" cx="859.05" cy="232.52" r="2.87"/><path class="cls-252" d="M869.16,253.42A2.46,2.46,0,1,1,866.7,251h0A2.46,2.46,0,0,1,869.16,253.42Z" transform="translate(0 -8.43)"/><circle class="cls-252" cx="853.64" cy="212.41" r="3.01"/><circle class="cls-252" cx="993.59" cy="296.13" r="4.25"/><circle class="cls-252" cx="1068.25" cy="265.77" r="5.11"/><circle class="cls-252" cx="1036.53" cy="224.48" r="4.74"/><circle class="cls-252" cx="968.16" cy="207.25" r="5.38"/><circle class="cls-252" cx="922.35" cy="213.98" r="3.01"/><circle class="cls-252" cx="908.06" cy="209.44" r="2.6"/><circle class="cls-252" cx="888.23" cy="183.59" r="2.6"/><circle class="cls-252" cx="815.76" cy="190.16" r="2.6"/><circle class="cls-252" cx="829.03" cy="238.42" r="2.19"/><circle class="cls-252" cx="834.22" cy="279.99" r="2.19"/><path class="cls-252" d="M842.15,244.67a2.33,2.33,0,1,1-2.33-2.33h0a2.32,2.32,0,0,1,2.32,2.32Z" transform="translate(0 -8.43)"/><circle class="cls-252" cx="848.03" cy="221.74" r="2.6"/><circle class="cls-252" cx="835.04" cy="208.62" r="2.6"/><path class="cls-252" d="M874.7,241.11a2.6,2.6,0,1,1-2.6-2.6h0A2.6,2.6,0,0,1,874.7,241.11Z" transform="translate(0 -8.43)"/><circle class="cls-252" cx="884.13" cy="244.58" r="2.6"/><circle class="cls-252" cx="864.85" cy="262.9" r="1.98"/><path class="cls-252" d="M898.63,252.32a2.6,2.6,0,1,1-2.61-2.59h0A2.61,2.61,0,0,1,898.63,252.32Z" transform="translate(0 -8.43)"/><circle class="cls-252" cx="894.25" cy="231.45" r="2.6"/><path class="cls-252" d="M847.9,255.47a2.06,2.06,0,1,1-2.12-2h.06A2.06,2.06,0,0,1,847.9,255.47Z" transform="translate(0 -8.43)"/><path class="cls-252" d="M849,274.48a2.46,2.46,0,1,1-2.46-2.47,2.46,2.46,0,0,1,2.46,2.47Z" transform="translate(0 -8.43)"/><circle class="cls-252" cx="793.88" cy="246.9" r="2.6"/><circle class="cls-252" cx="822.6" cy="272.2" r="2.6"/><path class="cls-252" d="M781.92,297.38a1.92,1.92,0,1,1-1.93-1.91h0a1.92,1.92,0,0,1,1.92,1.9Z" transform="translate(0 -8.43)"/><path class="cls-252" d="M784.45,296.22a1.23,1.23,0,1,1-1.23-1.23h0A1.23,1.23,0,0,1,784.45,296.22Z" transform="translate(0 -8.43)"/><path class="cls-252" d="M770.33,303.29a1.23,1.23,0,1,1-1.23-1.23h0A1.23,1.23,0,0,1,770.33,303.29Z" transform="translate(0 -8.43)"/><path class="cls-252" d="M764.66,297.41a1.24,1.24,0,1,1-2.48,0,1.25,1.25,0,0,1,1.23-1.25h0A1.24,1.24,0,0,1,764.66,297.41Z" transform="translate(0 -8.43)"/><circle class="cls-252" cx="735.87" cy="264.64" r="1.23"/><path class="cls-252" d="M748.42,266.17a1.68,1.68,0,1,1-1.68-1.68,1.68,1.68,0,0,1,1.68,1.68Z" transform="translate(0 -8.43)"/><path class="cls-252" d="M723.7,269.14a1.68,1.68,0,1,1-1.69-1.67h0A1.69,1.69,0,0,1,723.7,269.14Z" transform="translate(0 -8.43)"/><circle class="cls-252" cx="776.79" cy="302.97" r="1.64"/><circle class="cls-252" cx="763.66" cy="311.17" r="1.64"/><path class="cls-252" d="M794.84,305.86a1.51,1.51,0,0,1-3,0,1.51,1.51,0,0,1,3-.35A2,2,0,0,1,794.84,305.86Z" transform="translate(0 -8.43)"/><path class="cls-252" d="M806.53,295.12a1.71,1.71,0,1,1-1.71-1.71h0a1.71,1.71,0,0,1,1.71,1.69Z" transform="translate(0 -8.43)"/><path class="cls-252" d="M809.81,285.69A1.71,1.71,0,1,1,808.1,284h0A1.72,1.72,0,0,1,809.81,285.69Z" transform="translate(0 -8.43)"/><path class="cls-252" d="M813.57,294.71a1.57,1.57,0,1,1-1.57-1.57h0A1.57,1.57,0,0,1,813.57,294.71Z" transform="translate(0 -8.43)"/><path class="cls-252" d="M806.53,305.31a2,2,0,1,1-2-2A2,2,0,0,1,806.53,305.31Z" transform="translate(0 -8.43)"/><circle class="cls-252" cx="818.91" cy="285.8" r="1.5"/><path class="cls-252" d="M854.87,284.59a2.6,2.6,0,1,1-2.61-2.59h0a2.6,2.6,0,0,1,2.6,2.58Z" transform="translate(0 -8.43)"/><circle class="cls-252" cx="897.94" cy="68.66" r="3.94"/></svg>