<svg width="150" height="56" viewBox="0 0 150 56" fill="none" xmlns="http://www.w3.org/2000/svg">
<g filter="url(#filter0_d)">
<path d="M141.142 39.99C141.142 42.206 139.428 44 137.308 44H11.839C9.72 44 8 42.206 8 39.99V8.015C8 5.801 9.72 4 11.839 4H137.307C139.428 4 141.141 5.8 141.141 8.015L141.142 39.99Z" fill="#222222"/>
<path d="M37.238 22.894C37.209 19.671 39.877 18.103 39.999 18.03C38.488 15.827 36.146 15.526 35.323 15.502C33.356 15.295 31.448 16.679 30.446 16.679C29.424 16.679 27.881 15.522 26.218 15.556C24.078 15.589 22.076 16.828 20.978 18.752C18.712 22.675 20.402 28.44 22.573 31.611C23.659 33.164 24.928 34.898 26.589 34.837C28.214 34.77 28.821 33.801 30.782 33.801C32.725 33.801 33.295 34.837 34.989 34.798C36.733 34.77 37.831 33.238 38.879 31.671C40.134 29.891 40.638 28.138 40.658 28.048C40.617 28.034 37.271 26.757 37.238 22.894ZM34.038 13.416C34.912 12.323 35.51 10.836 35.344 9.32703C34.079 9.38303 32.497 10.202 31.586 11.271C30.78 12.213 30.06 13.757 30.246 15.209C31.667 15.315 33.126 14.492 34.038 13.416Z" fill="white"/>
<path d="M60.755 34.614H58.484L57.24 30.705H52.916L51.731 34.614H49.52L53.804 21.306H56.45L60.755 34.614ZM56.865 29.065L55.74 25.59C55.621 25.235 55.398 24.399 55.069 23.083H55.029C54.8295 23.9214 54.6188 24.7571 54.397 25.59L53.292 29.065H56.865ZM71.772 29.698C71.772 31.33 71.331 32.62 70.449 33.567C69.659 34.41 68.678 34.831 67.507 34.831C66.243 34.831 65.335 34.377 64.782 33.469H64.742V38.524H62.61V28.177C62.61 27.151 62.583 26.098 62.531 25.018H64.406L64.525 26.539H64.565C65.276 25.393 66.355 24.821 67.803 24.821C68.935 24.821 69.88 25.268 70.636 26.163C71.394 27.059 71.772 28.237 71.772 29.698ZM69.6 29.776C69.6 28.842 69.39 28.072 68.968 27.466C68.507 26.834 67.888 26.518 67.112 26.518C66.586 26.518 66.108 26.694 65.681 27.041C65.253 27.391 64.973 27.848 64.842 28.414C64.776 28.678 64.743 28.894 64.743 29.064V30.664C64.743 31.362 64.957 31.951 65.385 32.432C65.813 32.913 66.369 33.153 67.053 33.153C67.856 33.153 68.481 32.843 68.928 32.225C69.376 31.606 69.6 30.79 69.6 29.776ZM82.809 29.698C82.809 31.33 82.368 32.62 81.485 33.567C80.696 34.41 79.715 34.831 78.544 34.831C77.28 34.831 76.372 34.377 75.82 33.469H75.78V38.524H73.648V28.177C73.648 27.151 73.621 26.098 73.569 25.018H75.444L75.563 26.539H75.603C76.313 25.393 77.392 24.821 78.841 24.821C79.972 24.821 80.917 25.268 81.675 26.163C82.43 27.059 82.809 28.237 82.809 29.698ZM80.637 29.776C80.637 28.842 80.426 28.072 80.004 27.466C79.543 26.834 78.926 26.518 78.149 26.518C77.6249 26.5178 77.1177 26.7031 76.717 27.041C76.289 27.391 76.01 27.848 75.879 28.414C75.814 28.678 75.78 28.894 75.78 29.064V30.664C75.78 31.362 75.994 31.951 76.42 32.432C76.848 32.912 77.404 33.153 78.09 33.153C78.893 33.153 79.518 32.843 79.965 32.225C80.413 31.606 80.637 30.79 80.637 29.776ZM95.149 30.882C95.149 32.014 94.756 32.935 93.967 33.646C93.1 34.423 91.893 34.811 90.342 34.811C88.91 34.811 87.762 34.535 86.893 33.982L87.387 32.205C88.323 32.771 89.35 33.055 90.469 33.055C91.272 33.055 91.897 32.873 92.346 32.511C92.793 32.149 93.016 31.663 93.016 31.057C93.016 30.517 92.832 30.062 92.463 29.693C92.096 29.324 91.483 28.981 90.627 28.664C88.297 27.795 87.133 26.522 87.133 24.848C87.133 23.754 87.541 22.857 88.358 22.159C89.172 21.46 90.258 21.111 91.616 21.111C92.827 21.111 93.833 21.322 94.636 21.743L94.103 23.481C93.353 23.073 92.505 22.869 91.556 22.869C90.806 22.869 90.22 23.054 89.8 23.422C89.6297 23.5726 89.4939 23.7583 89.4019 23.9663C89.3099 24.1742 89.2639 24.3996 89.267 24.627C89.267 25.153 89.47 25.588 89.878 25.93C90.233 26.246 90.878 26.588 91.814 26.957C92.959 27.418 93.8 27.957 94.341 28.575C94.88 29.191 95.149 29.962 95.149 30.882ZM102.198 26.618H99.848V31.277C99.848 32.462 100.262 33.054 101.092 33.054C101.473 33.054 101.789 33.021 102.039 32.955L102.098 34.574C101.678 34.731 101.125 34.81 100.44 34.81C99.598 34.81 98.94 34.553 98.465 34.04C97.992 33.526 97.754 32.664 97.754 31.453V26.616H96.354V25.016H97.754V23.259L99.848 22.627V25.016H102.198V26.618ZM112.801 29.737C112.801 31.212 112.379 32.423 111.537 33.37C110.654 34.345 109.482 34.831 108.021 34.831C106.613 34.831 105.492 34.364 104.656 33.43C103.82 32.496 103.402 31.317 103.402 29.896C103.402 28.409 103.832 27.191 104.695 26.244C105.556 25.296 106.718 24.822 108.179 24.822C109.587 24.822 110.72 25.289 111.575 26.224C112.393 27.131 112.801 28.302 112.801 29.737ZM110.589 29.806C110.589 28.921 110.4 28.162 110.017 27.529C109.57 26.763 108.931 26.381 108.103 26.381C107.246 26.381 106.595 26.764 106.148 27.529C105.765 28.163 105.576 28.934 105.576 29.846C105.576 30.731 105.765 31.49 106.148 32.122C106.609 32.888 107.253 33.27 108.084 33.27C108.898 33.27 109.537 32.88 109.998 32.102C110.391 31.457 110.589 30.69 110.589 29.806ZM119.731 26.893C119.509 26.8529 119.284 26.8331 119.059 26.834C118.309 26.834 117.729 27.117 117.321 27.684C116.966 28.184 116.788 28.816 116.788 29.579V34.614H114.657L114.677 28.04C114.677 26.934 114.65 25.927 114.597 25.019H116.454L116.532 26.855H116.591C116.816 26.224 117.171 25.716 117.657 25.335C118.102 25.002 118.642 24.8218 119.198 24.821C119.395 24.821 119.573 24.835 119.731 24.86V26.893ZM129.266 29.362C129.271 29.6861 129.245 30.0099 129.188 30.329H122.792C122.817 31.277 123.126 32.002 123.72 32.502C124.259 32.949 124.956 33.173 125.812 33.173C126.759 33.173 127.623 33.022 128.4 32.719L128.734 34.199C127.826 34.595 126.754 34.792 125.517 34.792C124.029 34.792 122.861 34.354 122.011 33.479C121.163 32.604 120.738 31.429 120.738 29.955C120.738 28.508 121.133 27.303 121.924 26.342C122.752 25.316 123.871 24.803 125.279 24.803C126.662 24.803 127.709 25.316 128.42 26.342C128.983 27.157 129.266 28.165 129.266 29.362ZM127.233 28.809C127.247 28.177 127.108 27.631 126.819 27.17C126.45 26.577 125.883 26.281 125.12 26.281C124.423 26.281 123.856 26.57 123.423 27.15C123.068 27.611 122.857 28.164 122.792 28.808H127.233V28.809Z" fill="white"/>
<path d="M53.142 11.665H51.518V16.11H50.8425V11.665H49.215V11.0945H53.142V11.665ZM56.9802 15.557L56.9767 16.11H53.8862V11.0945H56.9767V11.6475H54.5652V13.3135H56.5182V13.8455H54.5652V15.557H56.9802ZM63.1448 11.0945V16.11H62.5498V12.4245C62.5498 12.3755 62.5509 12.323 62.5533 12.267C62.5579 12.211 62.5626 12.1538 62.5673 12.0955L60.8453 15.2315C60.7916 15.3365 60.7099 15.389 60.6003 15.389H60.5023C60.3926 15.389 60.3109 15.3365 60.2573 15.2315L58.5003 12.0815C58.5143 12.2052 58.5213 12.3195 58.5213 12.4245V16.11H57.9263V11.0945H58.4268C58.4874 11.0945 58.5341 11.1003 58.5668 11.112C58.5994 11.1237 58.6309 11.1563 58.6613 11.21L60.3938 14.297C60.4218 14.353 60.4486 14.4113 60.4743 14.472C60.5023 14.5327 60.5279 14.5945 60.5513 14.6575C60.5746 14.5945 60.5991 14.5327 60.6248 14.472C60.6504 14.409 60.6784 14.3495 60.7088 14.2935L62.4098 11.21C62.4378 11.1563 62.4681 11.1237 62.5008 11.112C62.5358 11.1003 62.5836 11.0945 62.6443 11.0945H63.1448ZM66.3627 15.571C66.5704 15.571 66.7559 15.536 66.9192 15.466C67.0826 15.396 67.2202 15.298 67.3322 15.172C67.4466 15.046 67.5329 14.8955 67.5912 14.7205C67.6519 14.5455 67.6822 14.353 67.6822 14.143V11.0945H68.3577V14.143C68.3577 14.4323 68.3111 14.7007 68.2177 14.948C68.1267 15.1953 67.9949 15.41 67.8222 15.592C67.6519 15.7717 67.4431 15.9128 67.1957 16.0155C66.9484 16.1182 66.6707 16.1695 66.3627 16.1695C66.0547 16.1695 65.7771 16.1182 65.5297 16.0155C65.2824 15.9128 65.0724 15.7717 64.8997 15.592C64.7271 15.41 64.5941 15.1953 64.5007 14.948C64.4097 14.7007 64.3642 14.4323 64.3642 14.143V11.0945H65.0397V14.1395C65.0397 14.3495 65.0689 14.542 65.1272 14.717C65.1879 14.892 65.2742 15.0425 65.3862 15.1685C65.5006 15.2945 65.6394 15.3937 65.8027 15.466C65.9684 15.536 66.1551 15.571 66.3627 15.571ZM70.2502 13.2925H70.5057C70.5944 13.2925 70.6655 13.282 70.7192 13.261C70.7729 13.2377 70.8219 13.1992 70.8662 13.1455L72.5357 11.2555C72.5824 11.1948 72.6314 11.1528 72.6827 11.1295C72.734 11.1062 72.797 11.0945 72.8717 11.0945H73.4457L71.5347 13.254C71.488 13.31 71.4425 13.3567 71.3982 13.394C71.3562 13.429 71.3107 13.4582 71.2617 13.4815C71.3247 13.5025 71.3819 13.534 71.4332 13.576C71.4845 13.6157 71.5347 13.6682 71.5837 13.7335L73.5787 16.11H72.9907C72.9464 16.11 72.9079 16.1077 72.8752 16.103C72.8449 16.096 72.818 16.0867 72.7947 16.075C72.7714 16.061 72.7504 16.0458 72.7317 16.0295C72.7154 16.0108 72.699 15.9898 72.6827 15.9665L70.9537 13.975C70.907 13.9167 70.8569 13.8758 70.8032 13.8525C70.7495 13.8268 70.6679 13.814 70.5582 13.814H70.2502V16.11H69.5747V11.0945H70.2502V13.2925ZM76.873 14.248L76.0855 12.2075C76.0621 12.1468 76.0376 12.0768 76.012 11.9975C75.9863 11.9158 75.9618 11.8295 75.9385 11.7385C75.8895 11.9275 75.8393 12.085 75.788 12.211L75.0005 14.248H76.873ZM78.287 16.11H77.762C77.7013 16.11 77.6523 16.0948 77.615 16.0645C77.5776 16.0342 77.5496 15.9957 77.531 15.949L77.062 14.738H74.8115L74.3425 15.949C74.3285 15.991 74.3016 16.0283 74.262 16.061C74.2223 16.0937 74.1733 16.11 74.115 16.11H73.59L75.5955 11.0945H76.2815L78.287 16.11ZM83.0103 11.0945V16.11H82.6708C82.6171 16.11 82.5716 16.1007 82.5343 16.082C82.4993 16.0633 82.4643 16.0318 82.4293 15.9875L79.5278 12.2075C79.5324 12.2658 79.5359 12.323 79.5383 12.379C79.5406 12.435 79.5418 12.4875 79.5418 12.5365V16.11H78.9468V11.0945H79.2968C79.3271 11.0945 79.3528 11.0968 79.3738 11.1015C79.3948 11.1038 79.4134 11.1097 79.4298 11.119C79.4461 11.126 79.4624 11.1377 79.4788 11.154C79.4951 11.168 79.5126 11.1867 79.5313 11.21L82.4328 14.9865C82.4281 14.9258 82.4234 14.8675 82.4188 14.8115C82.4164 14.7532 82.4153 14.6983 82.4153 14.647V11.0945H83.0103ZM90.4305 13.604C90.4305 13.9797 90.371 14.3215 90.252 14.6295C90.133 14.9375 89.965 15.2012 89.748 15.4205C89.531 15.6398 89.2697 15.8102 88.964 15.9315C88.6607 16.0505 88.3247 16.11 87.956 16.11H86.0835V11.0945H87.956C88.3247 11.0945 88.6607 11.1552 88.964 11.2765C89.2697 11.3955 89.531 11.5658 89.748 11.7875C89.965 12.0068 90.133 12.2705 90.252 12.5785C90.371 12.8865 90.4305 13.2283 90.4305 13.604ZM89.734 13.604C89.734 13.296 89.692 13.0207 89.608 12.778C89.524 12.5353 89.405 12.33 89.251 12.162C89.097 11.994 88.9103 11.8657 88.691 11.777C88.4717 11.6883 88.2267 11.644 87.956 11.644H86.7625V15.5605H87.956C88.2267 15.5605 88.4717 15.5162 88.691 15.4275C88.9103 15.3388 89.097 15.2117 89.251 15.046C89.405 14.878 89.524 14.6727 89.608 14.43C89.692 14.1873 89.734 13.912 89.734 13.604ZM92.0877 16.11H91.4087V11.0945H92.0877V16.11Z" fill="white"/>
</g>
<defs>
<filter id="filter0_d" x="0" y="0" width="149.142" height="56" filterUnits="userSpaceOnUse" color-interpolation-filters="sRGB">
<feFlood flood-opacity="0" result="BackgroundImageFix"/>
<feColorMatrix in="SourceAlpha" type="matrix" values="0 0 0 0 0 0 0 0 0 0 0 0 0 0 0 0 0 0 127 0"/>
<feOffset dy="4"/>
<feGaussianBlur stdDeviation="4"/>
<feColorMatrix type="matrix" values="0 0 0 0 0 0 0 0 0 0 0 0 0 0 0 0 0 0 0.3 0"/>
<feBlend mode="normal" in2="BackgroundImageFix" result="effect1_dropShadow"/>
<feBlend mode="normal" in="SourceGraphic" in2="effect1_dropShadow" result="shape"/>
</filter>
</defs>
</svg>
