<svg id="Layer_1_copy" data-name="Layer 1 copy" xmlns="http://www.w3.org/2000/svg" viewBox="0 0 245.95 89.21"><defs><style>.cls-1,.cls-2,.cls-3{fill:none;stroke:#000;stroke-miterlimit:10;}.cls-1{stroke-width:0.57px;}.cls-2{stroke-width:0.45px;}.cls-3{stroke-width:0.64px;}</style></defs><title>icon-tv-4k</title><path d="M115.83,2.19H15.3A5.88,5.88,0,0,0,9.42,8.07h0V71.83a5.88,5.88,0,0,0,5.87,5.89H115.83a5.89,5.89,0,0,0,5.89-5.89V8.08A5.89,5.89,0,0,0,115.83,2.19Zm1.49,66.72A4.12,4.12,0,0,1,113.21,73H17.9a4.12,4.12,0,0,1-4.12-4.12h0V10.6A4.11,4.11,0,0,1,17.9,6.48h95.28a4.12,4.12,0,0,1,4.11,4.12Z" transform="translate(0 -2.19)"/><rect x="31.1" y="80.73" width="68.93" height="6.29" rx="2.82"/><rect x="55.63" y="74.64" width="19.28" height="6.99"/><rect class="cls-1" x="7.04" y="1.86" width="112.3" height="75.54" rx="5.89"/><rect class="cls-1" x="28.73" y="82.59" width="68.93" height="6.29" rx="2.82"/><line class="cls-2" x1="63.07" y1="22.4" x2="39.29" y2="39.71"/><line class="cls-2" x1="87.1" y1="15.53" x2="40.17" y2="50.35"/><line class="cls-2" x1="87.1" y1="22.36" x2="58.33" y2="43.52"/><line class="cls-2" x1="87.1" y1="36.07" x2="68.81" y2="50.35"/><line class="cls-3" x1="195.16" y1="66.3" x2="214" y2="66.3"/><line class="cls-3" x1="133.5" y1="70.84" x2="185.5" y2="70.84"/><line class="cls-3" y1="88.89" x2="18.83" y2="88.89"/><line class="cls-3" x1="125.06" y1="88.89" x2="245.95" y2="88.89"/><line class="cls-3" x1="175.47" y1="77.39" x2="233.69" y2="77.39"/></svg>