<svg id="Layer_1" data-name="Layer 1" xmlns="http://www.w3.org/2000/svg" xmlns:xlink="http://www.w3.org/1999/xlink" viewBox="0 0 250 250"><defs><style>.cls-1{fill:none;}.cls-2{clip-path:url(#clip-path);}.cls-3{fill:#f9c900;}.cls-4{fill:#fff;}</style><clipPath id="clip-path"><polygon class="cls-1" points="188.75 242 159.6 222.21 134.35 242 108.01 222.21 81.38 242 55.23 223.18 27.27 242 27.27 138.45 188.75 138.45 188.75 242"/></clipPath></defs><title>icon-empty-white</title><g class="cls-2"><circle class="cls-3" cx="105.8" cy="221.2" r="76.9"/></g><path class="cls-4" d="M145,160.9H73.2a5.8,5.8,0,0,0,0,11.6H145a5.8,5.8,0,0,0,5.8-5.8A5.87,5.87,0,0,0,145,160.9Z"/><rect class="cls-1" width="250" height="250"/><path class="cls-4" d="M73.2,97.2h37a5.8,5.8,0,0,0,0-11.6h-37a5.8,5.8,0,0,0,0,11.6Z"/><path class="cls-4" d="M145,123.3H73.2a5.8,5.8,0,1,0,0,11.6H145a5.8,5.8,0,0,0,5.8-5.8A5.94,5.94,0,0,0,145,123.3Z"/><path class="cls-4" d="M227.7,204.3V22A21.13,21.13,0,0,0,207.5,0H81.6C68.9,0,57,9.3,57,22v9.8H46.9a25.22,25.22,0,0,0-24.6,24V238.4a10.26,10.26,0,0,0,5.8,8.1,8.88,8.88,0,0,0,9.8-1.7l17.6-15.9,21.1,18.8a8.34,8.34,0,0,0,5.8,2.3,9.58,9.58,0,0,0,5.8-2.3L109,228.9l20.8,18.8a8.82,8.82,0,0,0,11.6,0l21.1-18.8,17.4,15.9a6.9,6.9,0,0,0,8.7,1.7,8.51,8.51,0,0,0,4.3-8.1V197.3l3.5-2.6,17.7,15.9a8.05,8.05,0,0,0,6.1,2.3,4.92,4.92,0,0,0,2.9-.6A8.23,8.23,0,0,0,227.7,204.3Zm-46.3,27.8-13.6-13.3a8.13,8.13,0,0,0-11.3-.3l-21.1,18.8-20.5-18.8a9.32,9.32,0,0,0-11.6,0L82.5,237.3,61.4,218.5a9.43,9.43,0,0,0-12.4.3L34,232.1V55.9A13.58,13.58,0,0,1,47,43.5H171.4c6.4,0,10.1,6.1,10.1,12.4V232.1ZM216.1,22V197.9l-14.5-13.3c-2.3-2.3-2.9-2.9-8.7-2V55.9c0-12.7-9-24-21.7-24H68.6V22c0-6.4,6.7-10.4,13-10.4H206a9.45,9.45,0,0,1,10.1,8.9A3.79,3.79,0,0,1,216.1,22Z"/></svg>