<svg width="151" height="57" viewBox="0 0 151 57" fill="none" xmlns="http://www.w3.org/2000/svg">
<g filter="url(#filter0_d)">
<path fill-rule="evenodd" clip-rule="evenodd" d="M138 44.11H13C10.25 44.11 8 41.86 8 39.11V9.10999C8 6.35999 10.25 4.10999 13 4.10999H138C140.75 4.10999 143 6.35999 143 9.10999V39.11C143 41.86 140.75 44.11 138 44.11Z" fill="#222222"/>
<path fill-rule="evenodd" clip-rule="evenodd" d="M114.895 34.063H116.76V21.563H114.895V34.063ZM131.702 26.065L129.563 31.485H129.499L127.279 26.065H125.269L128.599 33.64L126.7 37.854H128.646L133.777 26.065H131.702ZM121.119 32.643C120.509 32.643 119.656 32.337 119.656 31.581C119.656 30.617 120.718 30.246 121.635 30.246C122.454 30.246 122.841 30.424 123.339 30.664C123.271 31.2066 123.008 31.7062 122.6 32.0702C122.192 32.4342 121.666 32.6381 121.119 32.644V32.643ZM121.345 25.791C119.994 25.791 118.595 26.387 118.016 27.705L119.672 28.397C120.026 27.705 120.685 27.48 121.377 27.48C122.342 27.48 123.323 28.06 123.339 29.088V29.218C123.001 29.024 122.277 28.735 121.393 28.735C119.607 28.735 117.79 29.716 117.79 31.549C117.79 33.222 119.254 34.3 120.894 34.3C122.148 34.3 122.841 33.737 123.274 33.077H123.339V34.042H125.141V29.25C125.141 27.031 123.483 25.792 121.345 25.792V25.791ZM109.813 27.587H107.159V23.302H109.813C111.208 23.302 112 24.456 112 25.444C112 26.414 111.208 27.587 109.813 27.587ZM109.765 21.561H105.294V34.063H107.159V29.327H109.765C111.833 29.327 113.866 27.829 113.866 25.444C113.866 23.059 111.833 21.561 109.765 21.561ZM85.384 32.645C84.095 32.645 83.016 31.566 83.016 30.085C83.016 28.585 84.095 27.49 85.384 27.49C86.656 27.49 87.655 28.585 87.655 30.084C87.655 31.566 86.656 32.645 85.384 32.645ZM87.526 26.765H87.462C87.043 26.266 86.237 25.815 85.223 25.815C83.096 25.815 81.146 27.683 81.146 30.085C81.146 32.468 83.096 34.321 85.223 34.321C86.237 34.321 87.043 33.871 87.462 33.354H87.526V33.966C87.526 35.594 86.656 36.463 85.255 36.463C84.111 36.463 83.402 35.643 83.112 34.949L81.485 35.626C81.952 36.753 83.192 38.139 85.255 38.139C87.446 38.139 89.299 36.85 89.299 33.709V26.072H87.526V26.765ZM90.588 34.063H92.456V21.563H90.588V34.063ZM95.211 29.939C95.163 28.295 96.484 27.459 97.434 27.459C98.176 27.459 98.804 27.829 99.014 28.36L95.211 29.94V29.939ZM101.011 28.521C100.656 27.571 99.577 25.814 97.37 25.814C95.179 25.814 93.358 27.538 93.358 30.068C93.358 32.452 95.163 34.321 97.579 34.321C99.528 34.321 100.656 33.129 101.124 32.436L99.674 31.469C99.19 32.179 98.53 32.645 97.579 32.645C96.629 32.645 95.952 32.21 95.518 31.356L101.204 29.004L101.011 28.521ZM55.703 27.121V28.924H60.02C59.892 29.939 59.553 30.68 59.038 31.195C58.409 31.825 57.426 32.517 55.703 32.517C53.044 32.517 50.966 30.374 50.966 27.717C50.966 25.058 53.044 22.914 55.703 22.914C57.137 22.914 58.184 23.478 58.957 24.204L60.23 22.931C59.15 21.901 57.717 21.111 55.703 21.111C52.061 21.11 49 24.074 49 27.715C49 31.355 52.061 34.32 55.703 34.32C57.668 34.32 59.15 33.675 60.31 32.467C61.502 31.275 61.873 29.599 61.873 28.247C61.873 27.828 61.841 27.441 61.776 27.119H55.703V27.121ZM66.781 32.645C65.493 32.645 64.381 31.582 64.381 30.068C64.381 28.538 65.493 27.49 66.781 27.49C68.07 27.49 69.182 28.537 69.182 30.068C69.182 31.582 68.07 32.645 66.781 32.645ZM66.781 25.815C64.429 25.815 62.512 27.603 62.512 30.068C62.512 32.518 64.429 34.321 66.781 34.321C69.134 34.321 71.051 32.517 71.051 30.068C71.051 27.603 69.134 25.814 66.781 25.814V25.815ZM76.095 32.645C74.806 32.645 73.694 31.582 73.694 30.068C73.694 28.538 74.806 27.49 76.095 27.49C77.384 27.49 78.495 28.537 78.495 30.068C78.495 31.582 77.384 32.645 76.095 32.645ZM76.095 25.815C73.743 25.815 71.826 27.603 71.826 30.068C71.826 32.518 73.743 34.321 76.095 34.321C78.447 34.321 80.364 32.517 80.364 30.068C80.364 27.603 78.447 25.814 76.095 25.814V25.815Z" fill="white"/>
<path d="M53.032 12.665H51.408V17.11H50.7325V12.665H49.105V12.0945H53.032V12.665ZM56.8702 16.557L56.8667 17.11H53.7762V12.0945H56.8667V12.6475H54.4552V14.3135H56.4082V14.8455H54.4552V16.557H56.8702ZM63.0348 12.0945V17.11H62.4398V13.4245C62.4398 13.3755 62.4409 13.323 62.4433 13.267C62.4479 13.211 62.4526 13.1538 62.4573 13.0955L60.7353 16.2315C60.6816 16.3365 60.5999 16.389 60.4903 16.389H60.3923C60.2826 16.389 60.2009 16.3365 60.1473 16.2315L58.3903 13.0815C58.4043 13.2052 58.4113 13.3195 58.4113 13.4245V17.11H57.8163V12.0945H58.3168C58.3774 12.0945 58.4241 12.1003 58.4568 12.112C58.4894 12.1237 58.5209 12.1563 58.5513 12.21L60.2838 15.297C60.3118 15.353 60.3386 15.4113 60.3643 15.472C60.3923 15.5327 60.4179 15.5945 60.4413 15.6575C60.4646 15.5945 60.4891 15.5327 60.5148 15.472C60.5404 15.409 60.5684 15.3495 60.5988 15.2935L62.2998 12.21C62.3278 12.1563 62.3581 12.1237 62.3908 12.112C62.4258 12.1003 62.4736 12.0945 62.5343 12.0945H63.0348ZM66.2528 16.571C66.4604 16.571 66.6459 16.536 66.8093 16.466C66.9726 16.396 67.1103 16.298 67.2223 16.172C67.3366 16.046 67.4229 15.8955 67.4813 15.7205C67.5419 15.5455 67.5723 15.353 67.5723 15.143V12.0945H68.2478V15.143C68.2478 15.4323 68.2011 15.7007 68.1078 15.948C68.0168 16.1953 67.8849 16.41 67.7123 16.592C67.5419 16.7717 67.3331 16.9128 67.0858 17.0155C66.8384 17.1182 66.5608 17.1695 66.2528 17.1695C65.9448 17.1695 65.6671 17.1182 65.4198 17.0155C65.1724 16.9128 64.9624 16.7717 64.7898 16.592C64.6171 16.41 64.4841 16.1953 64.3908 15.948C64.2998 15.7007 64.2543 15.4323 64.2543 15.143V12.0945H64.9298V15.1395C64.9298 15.3495 64.9589 15.542 65.0173 15.717C65.0779 15.892 65.1643 16.0425 65.2763 16.1685C65.3906 16.2945 65.5294 16.3937 65.6928 16.466C65.8584 16.536 66.0451 16.571 66.2528 16.571ZM70.1402 14.2925H70.3957C70.4844 14.2925 70.5556 14.282 70.6092 14.261C70.6629 14.2377 70.7119 14.1992 70.7562 14.1455L72.4257 12.2555C72.4724 12.1948 72.5214 12.1528 72.5727 12.1295C72.6241 12.1062 72.6871 12.0945 72.7617 12.0945H73.3357L71.4247 14.254C71.3781 14.31 71.3326 14.3567 71.2882 14.394C71.2462 14.429 71.2007 14.4582 71.1517 14.4815C71.2147 14.5025 71.2719 14.534 71.3232 14.576C71.3746 14.6157 71.4247 14.6682 71.4737 14.7335L73.4687 17.11H72.8807C72.8364 17.11 72.7979 17.1077 72.7652 17.103C72.7349 17.096 72.7081 17.0867 72.6847 17.075C72.6614 17.061 72.6404 17.0458 72.6217 17.0295C72.6054 17.0108 72.5891 16.9898 72.5727 16.9665L70.8437 14.975C70.7971 14.9167 70.7469 14.8758 70.6932 14.8525C70.6396 14.8268 70.5579 14.814 70.4482 14.814H70.1402V17.11H69.4647V12.0945H70.1402V14.2925ZM76.763 15.248L75.9755 13.2075C75.9522 13.1468 75.9277 13.0768 75.902 12.9975C75.8763 12.9158 75.8518 12.8295 75.8285 12.7385C75.7795 12.9275 75.7293 13.085 75.678 13.211L74.8905 15.248H76.763ZM78.177 17.11H77.652C77.5913 17.11 77.5423 17.0948 77.505 17.0645C77.4677 17.0342 77.4397 16.9957 77.421 16.949L76.952 15.738H74.7015L74.2325 16.949C74.2185 16.991 74.1917 17.0283 74.152 17.061C74.1123 17.0937 74.0633 17.11 74.005 17.11H73.48L75.4855 12.0945H76.1715L78.177 17.11ZM82.9003 12.0945V17.11H82.5608C82.5071 17.11 82.4616 17.1007 82.4243 17.082C82.3893 17.0633 82.3543 17.0318 82.3193 16.9875L79.4178 13.2075C79.4225 13.2658 79.426 13.323 79.4283 13.379C79.4306 13.435 79.4318 13.4875 79.4318 13.5365V17.11H78.8368V12.0945H79.1868C79.2171 12.0945 79.2428 12.0968 79.2638 12.1015C79.2848 12.1038 79.3035 12.1097 79.3198 12.119C79.3361 12.126 79.3525 12.1377 79.3688 12.154C79.3851 12.168 79.4026 12.1867 79.4213 12.21L82.3228 15.9865C82.3181 15.9258 82.3135 15.8675 82.3088 15.8115C82.3065 15.7532 82.3053 15.6983 82.3053 15.647V12.0945H82.9003ZM90.3205 14.604C90.3205 14.9797 90.261 15.3215 90.142 15.6295C90.023 15.9375 89.855 16.2012 89.638 16.4205C89.421 16.6398 89.1597 16.8102 88.854 16.9315C88.5507 17.0505 88.2147 17.11 87.846 17.11H85.9735V12.0945H87.846C88.2147 12.0945 88.5507 12.1552 88.854 12.2765C89.1597 12.3955 89.421 12.5658 89.638 12.7875C89.855 13.0068 90.023 13.2705 90.142 13.5785C90.261 13.8865 90.3205 14.2283 90.3205 14.604ZM89.624 14.604C89.624 14.296 89.582 14.0207 89.498 13.778C89.414 13.5353 89.295 13.33 89.141 13.162C88.987 12.994 88.8003 12.8657 88.581 12.777C88.3617 12.6883 88.1167 12.644 87.846 12.644H86.6525V16.5605H87.846C88.1167 16.5605 88.3617 16.5162 88.581 16.4275C88.8003 16.3388 88.987 16.2117 89.141 16.046C89.295 15.878 89.414 15.6727 89.498 15.43C89.582 15.1873 89.624 14.912 89.624 14.604ZM91.9777 17.11H91.2987V12.0945H91.9777V17.11Z" fill="white"/>
<path fill-rule="evenodd" clip-rule="evenodd" d="M18.436 11.648C18.145 11.956 17.973 12.434 17.973 13.053V35.17C17.973 35.79 18.145 36.267 18.436 36.574L18.509 36.647L30.899 24.258V23.966L18.509 11.576L18.436 11.649V11.648Z" fill="#00D3FF"/>
<path fill-rule="evenodd" clip-rule="evenodd" d="M30.899 23.965V24.257L35.028 28.388L35.122 28.336L40.015 25.556C41.412 24.761 41.412 23.461 40.015 22.667L35.122 19.887L35.029 19.834L30.899 23.965Z" fill="#FFD000"/>
<path fill-rule="evenodd" clip-rule="evenodd" d="M19.394 36.971C19.01 36.971 18.68 36.833 18.436 36.573L30.899 24.111L35.122 28.335L20.514 36.635C20.112 36.863 19.732 36.971 19.394 36.971Z" fill="#F83548"/>
<path fill-rule="evenodd" clip-rule="evenodd" d="M18.436 11.648C18.68 11.389 19.009 11.25 19.393 11.25C19.731 11.25 20.112 11.358 20.514 11.587L35.122 19.887L30.899 24.111L18.436 11.648Z" fill="#00F076"/>
<path fill-rule="evenodd" clip-rule="evenodd" d="M35.029 28.242L20.514 36.49C19.702 36.95 18.976 36.92 18.51 36.5L18.436 36.575L18.509 36.647V36.646C18.976 37.066 19.702 37.096 20.514 36.636L35.122 28.335L35.029 28.242ZM18.435 36.429C18.145 36.12 17.972 35.642 17.972 35.023V35.17C17.972 35.788 18.144 36.266 18.435 36.574L18.509 36.501L18.435 36.429ZM40.015 25.409L35.029 28.242L35.122 28.335L40.015 25.555C40.714 25.158 41.063 24.635 41.063 24.112C41.003 24.585 40.649 25.049 40.015 25.409Z" fill="black"/>
<path fill-rule="evenodd" clip-rule="evenodd" d="M20.514 11.733L40.014 22.813C40.649 23.173 41.004 23.637 41.063 24.111C41.063 23.588 40.713 23.064 40.015 22.667L20.514 11.587C19.116 10.793 17.973 11.453 17.973 13.053V13.199C17.973 11.599 19.116 10.939 20.513 11.733" fill="white"/>
</g>
<defs>
<filter id="filter0_d" x="0" y="0.109985" width="151" height="56" filterUnits="userSpaceOnUse" color-interpolation-filters="sRGB">
<feFlood flood-opacity="0" result="BackgroundImageFix"/>
<feColorMatrix in="SourceAlpha" type="matrix" values="0 0 0 0 0 0 0 0 0 0 0 0 0 0 0 0 0 0 127 0"/>
<feOffset dy="4"/>
<feGaussianBlur stdDeviation="4"/>
<feColorMatrix type="matrix" values="0 0 0 0 0 0 0 0 0 0 0 0 0 0 0 0 0 0 0.3 0"/>
<feBlend mode="normal" in2="BackgroundImageFix" result="effect1_dropShadow"/>
<feBlend mode="normal" in="SourceGraphic" in2="effect1_dropShadow" result="shape"/>
</filter>
</defs>
</svg>
