<svg id="Layer_1_copy" data-name="Layer 1 copy" xmlns="http://www.w3.org/2000/svg" viewBox="0 0 225.2 109.62"><defs><style>.cls-1{fill:none;stroke:#000;stroke-miterlimit:10;stroke-width:0.5px;}</style></defs><title>i-n</title><line class="cls-1" x1="1.59" y1="91.04" x2="33.86" y2="91.04"/><line class="cls-1" x1="16.03" y1="47.06" x2="35.84" y2="47.06"/><line class="cls-1" x1="175.69" y1="18.59" x2="206.95" y2="18.59"/><line class="cls-1" x1="181.42" y1="66.56" x2="193.93" y2="66.56"/><line class="cls-1" x1="200.53" y1="91.04" x2="223.6" y2="91.04"/><path d="M159.24,61.19v3.29a9.59,9.59,0,0,1-9.59,9.58H33.58a1.39,1.39,0,0,1-1.39-1.39h0v-.49a1.4,1.4,0,0,1,1.39-1.39h94.47a9.18,9.18,0,0,0,1-1.49,8.88,8.88,0,0,0,1-4.19V60.93a9.33,9.33,0,0,0-.28-2.23,8.92,8.92,0,0,0-1.68-3.25H33.53a1.4,1.4,0,0,1-1.39-1.39v-.48a1.39,1.39,0,0,1,1.39-1.39H150.24A9,9,0,0,1,159.24,61.19Z"/><polygon points="35.48 63.12 65.95 63.49 35.48 63.71 35.48 63.12"/><polygon points="35.48 66.56 84.59 66.93 35.48 67.15 35.48 66.56"/><path d="M50.26,91h65.93V74H49.72a8.23,8.23,0,0,0-8.23,8.23h0A8.79,8.79,0,0,0,50.26,91Z"/><path d="M98.83,91h91.24a1.27,1.27,0,0,0,1.27-1.28h0a1.27,1.27,0,0,0-1.27-1.27H98.83a1.27,1.27,0,0,0-1.27,1.27h0A1.27,1.27,0,0,0,98.83,91Z"/><path d="M98.83,76.56h91.24a1.27,1.27,0,0,0,1.27-1.27h0A1.27,1.27,0,0,0,190.07,74H98.83a1.27,1.27,0,0,0-1.27,1.27h0A1.27,1.27,0,0,0,98.83,76.56Z"/><polygon points="187.45 82.52 177.31 82.81 187.45 82.98 187.45 82.52"/><polygon points="187.45 78.61 137 78.89 187.45 79.06 187.45 78.61"/><path d="M163.59,78.84A4,4,0,0,1,165,80.77a3.12,3.12,0,0,1,.11.67c.05,1.6,0,5.21,0,5.21l3.05-1.8,3,1.8v-4.9a3.87,3.87,0,0,0-.74-2.41,1.15,1.15,0,0,0-.84-.5Z"/><path d="M44.45,36.93v5.38a6.27,6.27,0,0,0,6.3,6.16H174.14A1.54,1.54,0,0,1,175.69,50h0v.64a1.54,1.54,0,0,1-1.55,1.54H47.75a10.69,10.69,0,0,1-10.7-10.67V37.28a10,10,0,0,1,10-10h127a1.54,1.54,0,0,1,1.55,1.54h0v.64A1.54,1.54,0,0,1,174.14,31H50.49a6.06,6.06,0,0,0-4.44,1.94A6,6,0,0,0,44.45,36.93Z"/><polygon points="172.1 39.73 162.72 40.15 172.1 40.4 172.1 39.73"/><polygon points="172.1 33.98 116.19 34.4 172.1 34.65 172.1 33.98"/><path d="M150,34.32a4.67,4.67,0,0,1,2,2.09,2.58,2.58,0,0,1,.16.73c.07,1.73,0,5.65,0,5.65l4.34-2,4.34,2V37.48a3.59,3.59,0,0,0-1.07-2.62,1.74,1.74,0,0,0-1.19-.54Z"/></svg>