<?xml version="1.0" encoding="utf-8"?>
<!-- Generator: Adobe Illustrator 25.0.1, SVG Export Plug-In . SVG Version: 6.00 Build 0)  -->
<svg version="1.1" id="Layer_1" xmlns="http://www.w3.org/2000/svg" xmlns:xlink="http://www.w3.org/1999/xlink" x="0px" y="0px"
	 viewBox="0 0 256 256" style="enable-background:new 0 0 256 256;" xml:space="preserve">
<style type="text/css">
	.st0{fill-rule:evenodd;clip-rule:evenodd;}
</style>
<path class="st0" d="M196,60C178,42,154,32,128.4,32c-52.7,0-95.6,42.9-95.6,95.6c0,16.8,4.4,33.3,12.8,47.8l-12.8,46.6
	c-0.4,1.3,0.8,2.5,2.1,2.2l47.7-12.5c13.9,7.6,29.7,11.6,45.7,11.7h0c52.7,0,95.6-42.9,95.6-95.6C224,102.1,214.1,78.1,196,60z
	 M128.4,207.1L128.4,207.1c-14.3,0-28.3-3.8-40.5-11.1l-2.9-1.7l-27.2,7.1c-1.3,0.3-2.5-0.9-2.1-2.2l7.2-26.4l-1.9-3
	c-8-12.7-12.2-27.3-12.2-42.3c0-43.8,35.7-79.4,79.5-79.4c21.2,0,41.2,8.3,56.2,23.3c15,15,23.3,35,23.3,56.2
	C207.8,171.4,172.2,207.1,128.4,207.1z M172,147.6c-2.4-1.2-14.1-7-16.3-7.8c-2.2-0.8-3.8-1.2-5.4,1.2c-1.6,2.4-6.2,7.8-7.6,9.4
	c-1.4,1.6-2.8,1.8-5.2,0.6c-2.4-1.2-10.1-3.7-19.2-11.9c-7.1-6.3-11.9-14.2-13.3-16.5c-1.4-2.4-0.2-3.7,1-4.9
	c1.1-1.1,2.4-2.8,3.6-4.2c1.2-1.4,1.6-2.4,2.4-4c0.8-1.6,0.4-3-0.2-4.2s-5.4-13-7.4-17.8c-1.9-4.7-3.9-4-5.4-4.1
	c-1.4-0.1-3-0.1-4.6-0.1c-1.6,0-4.2,0.6-6.4,3c-2.2,2.4-8.3,8.2-8.3,19.9s8.6,23.1,9.8,24.7c1.2,1.6,16.8,25.7,40.8,36
	c5.7,2.5,10.1,3.9,13.6,5c5.7,1.8,10.9,1.6,15.1,1c4.6-0.7,14.1-5.8,16.1-11.4c2-5.6,2-10.3,1.4-11.3S174.4,148.8,172,147.6z"/>
</svg>
