<?xml version="1.0" encoding="utf-8"?>
<!-- Generator: Adobe Illustrator 24.0.2, SVG Export Plug-In . SVG Version: 6.00 Build 0)  -->
<svg version="1.1" id="Layer_1" xmlns="http://www.w3.org/2000/svg" xmlns:xlink="http://www.w3.org/1999/xlink" x="0px" y="0px"
	 viewBox="0 0 966.5 509.7" style="enable-background:new 0 0 966.5 509.7;" xml:space="preserve">
<style type="text/css">
	.st0{fill:none;stroke:#FFFFFF;stroke-width:3.3945;stroke-miterlimit:10;}
	.st1{fill:none;stroke:#FFFFFF;stroke-width:3.388;stroke-miterlimit:10;}
	.st2{fill:none;stroke:#FFFFFF;stroke-miterlimit:10;}
	.st3{fill:none;stroke:#FFFFFF;stroke-width:2.8073;stroke-miterlimit:10;}
	.st4{fill:none;stroke:#FFFFFF;stroke-width:3.5944;stroke-miterlimit:10;}
	.st5{fill:none;stroke:#FFFFFF;stroke-width:3.139;stroke-miterlimit:10;}
	.st6{fill:none;stroke:#FFFFFF;stroke-width:2.5416;stroke-miterlimit:10;}
	.st7{fill:#F8CA10;stroke:#231F20;stroke-width:4.211;stroke-miterlimit:10;}
	.st8{fill:#FFFFFF;stroke:#231F20;stroke-width:3.5875;stroke-miterlimit:10;}
	.st9{fill:#231F20;}
	.st10{fill:none;stroke:#231F20;stroke-width:3.5944;stroke-miterlimit:10;}
	.st11{fill:#FFFFFF;stroke:#231F20;stroke-width:3.5944;stroke-miterlimit:10;}
</style>
<g>
	<g>
		<path class="st0" d="M789.2,415.9H305c-12.8,0-23.3-10.4-23.3-23.3V69.1c0-12.8,10.4-23.3,23.3-23.3h484.2
			c12.8,0,23.3,10.4,23.3,23.3v323.5C812.4,405.4,802,415.9,789.2,415.9z"/>
		<path class="st1" d="M812.4,75.8H281.7v-8.5c0-11.9,9.6-21.5,21.5-21.5h487.7c11.9,0,21.5,9.6,21.5,21.5V75.8z"/>
		<circle class="st2" cx="324.2" cy="62.3" r="4"/>
		<circle class="st2" cx="338" cy="62.3" r="4"/>
		<circle class="st2" cx="351.8" cy="62.3" r="4"/>
		<line class="st0" x1="394.9" y1="45.9" x2="394.9" y2="75.8"/>
	</g>
	<circle class="st3" cx="326.9" cy="503" r="4.8"/>
	<circle class="st4" cx="863.1" cy="126.6" r="5.7"/>
	<circle class="st4" cx="116" cy="29.7" r="5.7"/>
	<line class="st5" x1="230" y1="477.4" x2="0" y2="477.4"/>
	<line class="st4" x1="966.5" y1="103.5" x2="834.1" y2="103.5"/>
	<line class="st5" x1="302.6" y1="492.8" x2="72.5" y2="492.8"/>
	<line class="st4" x1="834.1" y1="485.1" x2="960.4" y2="485.1"/>
	<line class="st5" x1="163.3" y1="46.9" x2="265.1" y2="46.9"/>
	<line class="st5" x1="240.5" y1="29.7" x2="138.7" y2="29.7"/>
	<line class="st4" x1="794.2" y1="469.8" x2="920.6" y2="469.8"/>
	<line class="st5" x1="909.2" y1="20.5" x2="733.8" y2="20.5"/>
	<line class="st5" x1="854.6" y1="2.7" x2="679.2" y2="2.7"/>
	<circle class="st6" cx="140.9" cy="433.7" r="7.4"/>
	<g>
		<path class="st7" d="M769.8,454.2H257.1c-13.6,0-24.6-11-24.6-24.6V87c0-13.6,11-24.6,24.6-24.6h512.7c13.6,0,24.6,11,24.6,24.6
			v342.5C794.4,443.2,783.4,454.2,769.8,454.2z"/>
		<path class="st8" d="M794.4,94.2h-562v-9c0-12.6,10.2-22.8,22.8-22.8h516.4c12.6,0,22.8,10.2,22.8,22.8V94.2z"/>
		<circle class="st9" cx="277.5" cy="79.8" r="4.2"/>
		<circle class="st9" cx="292.1" cy="79.8" r="4.2"/>
		<circle class="st9" cx="306.6" cy="79.8" r="4.2"/>
		<line class="st10" x1="352.3" y1="62.4" x2="352.3" y2="94.2"/>
	</g>
	<line class="st10" x1="748.3" y1="146.3" x2="329.6" y2="146.3"/>
	<line class="st10" x1="308" y1="146.3" x2="279.3" y2="146.3"/>
	<path class="st11" d="M734.5,412.9H293.1c-7.6,0-13.8-6.2-13.8-13.8V199.2c0-7.6,6.2-13.8,13.8-13.8h441.5
		c7.6,0,13.8,6.2,13.8,13.8v199.9C748.3,406.7,742.2,412.9,734.5,412.9z"/>
	<line class="st10" x1="310.9" y1="226.6" x2="384.8" y2="226.6"/>
	<line class="st10" x1="310.9" y1="343.9" x2="384.8" y2="343.9"/>
	<line class="st10" x1="310.9" y1="242.1" x2="459.1" y2="242.1"/>
	<line class="st10" x1="310.9" y1="357.3" x2="459.1" y2="357.3"/>
	<line class="st10" x1="718.9" y1="239.9" x2="645" y2="239.9"/>
	<line class="st10" x1="718.9" y1="226.6" x2="570.7" y2="226.6"/>
	<line class="st10" x1="310.9" y1="258.9" x2="499.8" y2="258.9"/>
	<line class="st10" x1="310.9" y1="273.9" x2="528.6" y2="273.9"/>
	<path class="st7" d="M625.5,285L509.7,485.5c-4.7,8.1,1.2,18.3,10.6,18.3h231.5c9.4,0,15.3-10.2,10.6-18.3L646.7,285
		C642,276.9,630.2,276.9,625.5,285z"/>
	<path class="st9" d="M636.4,444.7L636.4,444.7c-3.7,0-6.7-2.9-6.9-6.5l-3.7-80.4c-0.3-6.2,4.7-11.4,10.9-11.4h0
		c6.2,0,11.2,5.2,10.9,11.5l-4.3,80.4C643,441.9,640,444.7,636.4,444.7z"/>
	<circle class="st9" cx="636.6" cy="464.4" r="8.1"/>
</g>
</svg>
