<svg id="Layer_1_copy" data-name="Layer 1 copy" xmlns="http://www.w3.org/2000/svg" xmlns:xlink="http://www.w3.org/1999/xlink" viewBox="0 0 225.2 109.62"><defs><style>.cls-1,.cls-2,.cls-3,.cls-5,.cls-6,.cls-7,.cls-8,.cls-9{fill:none;}.cls-10,.cls-2,.cls-3,.cls-5,.cls-6,.cls-7,.cls-8,.cls-9{stroke:#000;stroke-miterlimit:10;}.cls-10,.cls-2{stroke-width:0.5px;}.cls-3{stroke-width:0.97px;}.cls-4{clip-path:url(#clip-path);}.cls-6{stroke-width:0.4px;}.cls-7{stroke-width:0.54px;}.cls-8{stroke-width:0.25px;}.cls-9{stroke-width:0.56px;}.cls-10{fill:#f8ca10;}</style><clipPath id="clip-path"><circle class="cls-1" cx="112.28" cy="56.67" r="36.43"/></clipPath></defs><title>i-n</title><line class="cls-2" x1="38.51" y1="59.15" x2="60.99" y2="59.15"/><line class="cls-2" x1="164.22" y1="62.64" x2="186.69" y2="62.64"/><line class="cls-2" x1="160.72" y1="26.13" x2="171.59" y2="26.13"/><line class="cls-2" x1="57.21" y1="47.31" x2="62.64" y2="47.31"/><line class="cls-2" x1="155.27" y1="38.23" x2="163.11" y2="38.23"/><line class="cls-2" x1="58.48" y1="86.38" x2="66.32" y2="86.38"/><circle class="cls-3" cx="112.28" cy="56.67" r="36.83"/><g class="cls-4"><path d="M79,54.61s2,6.33,4.86,7.86,9.43,8.41,9.71,7S97,63.17,91.86,60,80.15,49.47,79,54.61Z"/><path class="cls-5" d="M123.66,77.35c-1.4.91-8.28,4.85-8.85,9.71S110,94.77,110,94.77A40.44,40.44,0,0,0,142.25,80.3s.26-4.36-4.88-5.5A20,20,0,0,0,123.66,77.35Z"/><path d="M119.36,66.74c3.22-1.84,12.65-1.85,10.21,1.17S114.21,69.69,119.36,66.74Z"/><path d="M148.22,47.05c-3-4.27-6.85,7.19-11.14,5.19S127.2,47.45,126.16,47s-3.56,1.82-5.45,4.39,7,2.6,10.37,6.59,19.37,5.79,17.5,10.5C148.58,68.45,153.36,54.41,148.22,47.05Z"/><path d="M85,30s1.23,3.69,4.09,1.4,3-3.42,6-4.57,1.93-5.14,1.93-5.14A25.12,25.12,0,0,0,85,30Z"/><path class="cls-5" d="M74.54,65.48s13.66,2,15.68,9S99,89.27,95.85,89.34,88.48,88,80.8,78.23,74.54,65.48,74.54,65.48Z"/><path class="cls-5" d="M116.27,18.72s-8,6.08-4,9.51,7.1,1.21,10.52,3.85,13.33-5.23,13.33-5.23S128.39,18.06,116.27,18.72Z"/><path class="cls-6" d="M79,55.9s2,6.32,4.86,7.86,9.43,8.4,9.71,7,3.43-6.28-1.71-9.42S80.15,50.76,79,55.9Z"/><path class="cls-6" d="M123.66,78.64c-1.4.9-8.28,4.86-8.85,9.71S110,96.06,110,96.06a40.51,40.51,0,0,0,32.22-14.48s.26-4.36-4.88-5.5S126.43,76.85,123.66,78.64Z"/><path class="cls-6" d="M119.36,68c3.22-1.84,12.65-1.85,10.21,1.17S114.21,71,119.36,68Z"/><path class="cls-6" d="M148.22,48.33c-3-4.26-6.85,7.19-11.14,5.2s-9.88-4.78-10.92-5.25-3.56,1.82-5.45,4.39,7,2.59,10.37,6.59,19.37,5.78,17.5,10.5C148.58,69.75,153.36,55.69,148.22,48.33Z"/><path class="cls-6" d="M85,31.26s1.23,3.68,4.09,1.4,3-3.43,6-4.57S97.09,23,97.09,23A25.12,25.12,0,0,0,85,31.26Z"/><path class="cls-6" d="M74.54,66.76s13.66,2,15.68,9S99,90.56,95.85,90.64s-7.37-1.4-15-11.13S74.54,66.76,74.54,66.76Z"/><path class="cls-6" d="M116.27,20s-8,6.08-4,9.51,7.1,1.21,10.52,3.89,13.33-5.23,13.33-5.23S128.39,19.35,116.27,20Z"/></g><path class="cls-7" d="M81.75,27.13c-13.31-5.55-22.54-7.79-23.94-5.28-2.46,4.39,20,21.63,50.28,38.55s56.74,27,59.15,22.63c1.45-2.57-5.78-9.63-18.13-18.44"/><path class="cls-8" d="M81.75,29.47C68.44,24,59.21,21.72,57.81,24.23c-2.46,4.38,20,21.64,50.28,38.55s56.74,27,59.15,22.61c1.45-2.57-5.78-9.64-18.13-18.45"/><path class="cls-9" d="M82.5,81.53C75.22,93.85,71.74,102.64,74,104.38c4,3.05,24.14-16.71,45-44s34.5-52,30.49-55.09c-2.35-1.79-10.32,4.32-20.72,15.25"/><path class="cls-8" d="M80.78,81.53C73.5,93.85,70,102.64,72.3,104.38c4,3.05,24.13-16.71,45-44s34.49-52,30.49-55.09c-2.36-1.79-10.32,4.32-20.72,15.25"/><circle class="cls-10" cx="139.29" cy="31.91" r="3.3"/><circle class="cls-10" cx="103.74" cy="56.67" r="3.3"/><circle class="cls-10" cx="62.4" cy="29.43" r="3.3"/><circle class="cls-10" cx="163.68" cy="76.01" r="3.3"/><circle class="cls-10" cx="84.83" cy="98.91" r="3.3"/></svg>