<?xml version="1.0" encoding="utf-8"?>
<!-- Generator: Adobe Illustrator 25.0.1, SVG Export Plug-In . SVG Version: 6.00 Build 0)  -->
<svg version="1.1" id="Layer_1_copy" xmlns="http://www.w3.org/2000/svg" xmlns:xlink="http://www.w3.org/1999/xlink" x="0px"
	 y="0px" viewBox="0 0 1862 791.2" style="enable-background:new 0 0 1862 791.2;" xml:space="preserve">
<style type="text/css">
	.st0{fill:#F8CA10;}
	.st1{stroke:#000000;stroke-miterlimit:10;}
	.st2{fill:none;stroke:#000000;stroke-miterlimit:10;}
	.st3{fill:none;stroke:#000000;stroke-width:2;stroke-miterlimit:10;}
</style>
<ellipse transform="matrix(6.906000e-02 -0.9976 0.9976 6.906000e-02 -223.4688 549.4189)" class="st0" cx="182.6" cy="394.4" rx="110.9" ry="30"/>
<ellipse transform="matrix(0.9975 -7.132336e-02 7.132336e-02 0.9975 -23.8245 121.5515)" class="st0" cx="1690.1" cy="394.4" rx="30" ry="110.9"/>
<path class="st0" d="M813.6,328.3c2.2,0,69,0.6,76.1,1.5l0,0l0.6,0.2c-0.8,0.6-1.6,1.2-2.3,1.9l0.3,0.3c-11.7,6.8-26.2,6.4-39.5,3.8
	C837,333.6,825.5,329.7,813.6,328.3z"/>
<path class="st0" d="M882.6,455.3L882.6,455.3c-1.4,0.4-2.9,0.7-4.4,0.9c-8.5,1.1-17.1-1.1-25.4-3.3c0.2,0,0.1-0.3-0.1-0.9
	c0.8-2.6,5.9-9.8,5.9-9.8L882.6,455.3z"/>
<path class="st0" d="M852.7,452.8c0,0,0.1,0.1,0.1,0.1c-22.2-6-44.2-13-66.6-18.3l39.4-0.8L852.7,452.8z"/>
<path class="st0" d="M634.7,334.8c7.8,0.2,53.9-5.1,55.5-5.3c-3.1,0.7-6.2,1.5-9.2,2.5c-4.1,1.4-8.1,3.3-11.1,6.4s-4.7,7.7-3.5,11.9
	c0.7,2.1,1.9,4,3.7,5.4C670.1,355.8,640.8,337.4,634.7,334.8z"/>
<path class="st0" d="M805.1,490.8l20,7.2l0,0c-10.4,2.8-21.5,2.1-32.3,1.3c-9.1-0.7-18.3-0.9-26.6-4.6l18-5.5l21.3-8.6L805.1,490.8z
	"/>
<path class="st0" d="M593.9,264.6l-131.3,15.9l2.9-2.6l19.4-9c4.7-2.3,9.6-4.3,14.5-6c13-3.9,26.9-3,40.5-2l22.1,1.6
	C572.6,263.3,583.3,264,593.9,264.6z"/>
<path class="st0" d="M727.8,468.1l38.3,26.8l-65.7-5.6l-12.1-23.4c1.1,0.8,15.8,11.1,15.8,11.1L727.8,468.1z"/>
<path class="st0" d="M745.4,513.6l20.7-18.8c1.7,3-0.6,6.6-3.1,9c-5,4.7-10.8,8.4-17.2,10.9L745.4,513.6z"/>
<path class="st0" d="M670.9,409.7l71.2,5.2c1.1,1.2,44.1,19.6,44.1,19.6c-7.7-1.9-15.4-3.5-23.2-4.9c-17.2-3-34.6-4.6-51.5-8.8
	c-10.5-2.6-20.7-6.2-31-9.2C677.4,410.8,674.2,410.1,670.9,409.7z"/>
<path class="st0" d="M740.4,511.5l5,2.1l0.5,1.1c-12.4,5.1-26.7,6.8-40.3,8.1s-27.1,2.7-40.7,2.2c-1.3,0-2.5-0.1-3.8-0.2
	L740.4,511.5z"/>
<path class="st0" d="M688.3,465.9l12.1,23.4l-103.9-32.6l-4.1-21.8C592.5,434.9,687.2,465.1,688.3,465.9z"/>
<polygon class="st0" points="652.7,477.2 597.3,466.7 550.8,467.8 558.9,434.8 592.5,434.9 596.6,456.6 700.4,489.2 662.5,479.7 "/>
<path class="st0" d="M657.5,512.5l3.6,12.3c-14-0.8-27.8-3.2-41.7-4.9c-10.6-1.3-21.2-2.3-31.8-3l5.4-15.5
	C619.6,506.2,656.4,512.6,657.5,512.5z"/>
<path class="st0" d="M550.8,467.8l15.2,28.9l21.5,20.3c-27.7-1.8-55.5-1.8-83.3-2.1L550.8,467.8z"/>
<path class="st0" d="M504.2,514.9l-8.6-0.1c-21-0.3-42-0.9-62.5-5.1c-6-1.2-12-2.8-17.9-4.5c0,0,48.7-10.1,50-9.2l0,0
	C465.1,497.2,504.2,514.9,504.2,514.9z"/>
<polygon class="st0" points="414.9,433.3 415.1,505.1 348.3,473.3 "/>
<path class="st0" d="M415.1,505.1c-14.8-4.2-29.5-9.1-44.6-11.7c-18.4-3.2-40.2-4.8-56.1,4.2l33.9-24.3L415.1,505.1z"/>
<path class="st1" d="M272.6,478.4c-5.9-6.9-11-14.5-15.2-22.5c-15.4-29.1-21.6-62.1-17.8-94.7c2.2-18.6,8.4-31.2,18.6-37.5l0.1-0.1
	h0.1c7.5,1.3,14.1-0.8,20.3-3.3c2-0.8,4.1-1.7,6-2.6c5.8-2.6,11.8-5.3,18.2-6.3c5-0.8,10.1-0.6,15.1-0.3c1.3,0.1,2.5,0.1,3.8,0.2
	c4.4,0.2,9,0.1,13.5-0.1c13.7-0.9,27.3-3.1,40.5-6.6l0.2,0.8c-13.3,3.5-26.9,5.7-40.6,6.6c-4.6,0.3-9.2,0.3-13.6,0.1
	c-1.3,0-2.5-0.1-3.8-0.2c-4.9-0.2-10-0.5-14.9,0.3c-6.4,1.1-12.3,3.7-18,6.3c-2,0.9-4,1.8-6.1,2.6c-5.9,2.4-12.9,4.7-20.5,3.4
	c-9.9,6.2-16,18.6-18.1,36.8c-3.7,32.5,2.5,65.3,17.7,94.2c15.8,29.7,35,41.4,48.2,46h0.1l0.3,0.3c2.1-1.8,4.4-3.5,6.8-4.8
	c17-9.6,40.3-7,56.3-4.2c11.5,2,22.8,5.3,33.8,8.5c3.6,1,7.3,2.1,10.9,3.2c7,2,12.6,3.4,17.9,4.5c20.4,4.2,41.2,4.8,62.4,5.1
	l8.6,0.1l11.8,0.1c23.5,0.2,47.8,0.5,71.5,2c11.4,0.7,21.8,1.7,31.9,3c4,0.5,8.1,1.1,12,1.6c9.7,1.3,19.8,2.7,29.7,3.3
	c1.3,0.1,2.5,0.1,3.8,0.2c13.5,0.4,27.2-0.9,40.5-2.2h0.2c14.2-1.4,28-3,40.2-8c6.3-2.5,12.1-6.2,17.1-10.8c1.2-1.2,5-5.2,3-8.5
	l-0.6-1l1.1,0.5c7.3,3.2,15.4,3.8,23.2,4.3l3.3,0.2c10.2,0.8,21.7,1.6,32.2-1.3c1-0.3,2-0.6,3-0.9c4.2-1.5,9.6-4.3,11.4-9.4
	c1.5-4.1,0.5-9.2-2.7-14c-0.4-0.5-0.8-1.1-1.3-1.7c-6.3-8-16.2-11.7-23.3-13.4c-6.8-1.6-14-2.2-20.9-2.7c-2.8-0.2-5.8-0.5-8.6-0.8
	c-7.9-0.9-15.8-2.2-23.6-3.9l0.2-0.8c7.8,1.7,15.6,3,23.5,3.9c2.8,0.3,5.8,0.5,8.6,0.8c6.9,0.5,14.1,1.1,21,2.8
	c7.2,1.7,17.2,5.5,23.7,13.7c0.5,0.6,0.9,1.2,1.3,1.7c3.4,5,4.4,10.4,2.8,14.7c-2,5.4-7.6,8.3-11.9,9.8c-1,0.4-2,0.7-3.1,1
	c-10.7,2.9-22.3,2-32.5,1.3l-3.3-0.2c-7.6-0.5-15.4-1-22.5-4c1.1,3.6-2.4,7.4-3.6,8.5c-5,4.7-10.9,8.5-17.3,11
	c-12.3,5-26.1,6.7-40.4,8.1h-0.2c-13.3,1.3-27,2.6-40.6,2.2c-1.3,0-2.5-0.1-3.8-0.2c-10-0.5-20.1-1.9-29.8-3.3
	c-3.9-0.5-8-1.1-12-1.6c-10.1-1.3-20.5-2.2-31.8-3c-23.8-1.5-48-1.8-71.5-2l-11.8-0.1l-8.6-0.1c-21.3-0.3-42.1-0.9-62.6-5.2
	c-5.3-1.1-11-2.5-18-4.5c-3.6-1-7.3-2.1-10.9-3.2c-11-3.2-22.3-6.5-33.7-8.5c-15.9-2.8-39-5.3-55.8,4.1c-2.5,1.4-4.9,3.1-7,5
	l-0.3,0.3l-0.7-0.7C296.7,498.9,284.5,492.3,272.6,478.4z"/>
<path class="st1" d="M376.1,305.3l-0.2-0.8c4.3-1.1,8.8-2.3,13.3-3.7c2.9-0.9,5.9-1.8,9.1-2.8c6.7-2.1,13.6-4.4,20.2-6.6
	c11.8-3.9,24-8,36.2-11.3c2.3-0.7,4.7-0.8,7-0.4l2.8-2.5h0l12-5.6l7.4-3.4c4.7-2.3,9.6-4.3,14.6-6c13.3-4,27.8-3,40.6-2l22.1,1.6
	c11.8,0.9,22.2,1.5,31.9,2.1v0.8c-9.7-0.5-20.1-1.2-31.9-2.1l-22.1-1.6c-12.8-0.9-27.2-2-40.3,2c-5,1.7-9.8,3.7-14.5,6l-7.4,3.4
	l-12,5.6l-3,2.7h-0.2c-2.3-0.5-4.6-0.4-6.8,0.3c-12.2,3.4-24.4,7.4-36.2,11.3c-6.6,2.2-13.4,4.5-20.2,6.6c-3.2,1-6.2,1.9-9.1,2.8
	C384.9,302.9,380.5,304.2,376.1,305.3z"/>
<path class="st1" d="M593.2,264.7v-0.8c26.8,1.5,50.2,2.1,71.6,1.8l1-0.9h0.1l59-14.2c2.3-0.6,5.2-1.3,7.9-0.8
	c2.5,0.4,5.4,2.2,5.9,5.2c0.1,1.1,0.1,2.3-0.1,3.4c-0.2,1.6-0.4,3.1,0.5,4.3c0.4,0.6,1,0.9,1.7,1.1c1.3,0.3,2.7,0.3,4,0.2h0.3
	c7-0.5,13.9,1.9,20.5,4.2c2.3,0.8,4.7,1.6,7.1,2.3c6,1.6,12.1,2.9,18.3,3.7l28.4,4.5l37.8,6c6.1,1,12.5,2,18.4,4.5
	c5.1,2.3,9.9,5.3,14.2,8.9c0.8,0.6,1.6,1.2,2.3,1.9l0.1,0.1c4.1,3.3,8.6,7.4,9.3,12.8c0.5,3.8-1.1,8-4.3,11.4
	c-1.7,1.7-3.5,3.2-5.5,4.5c-0.7,0.5-1.3,0.9-2,1.4c-0.8,0.6-1.4,1.1-2,1.6l0.3,0.4l-0.4,0.2c-10.1,5.8-23.1,7.1-39.8,3.9
	c-4.7-0.9-9.5-2.1-14-3.3c-6.9-1.9-14-3.4-21-4.5l0.1-0.8c7.1,1.1,14.2,2.5,21.2,4.4c4.6,1.1,9.3,2.3,14,3.3c16.3,3.2,29,2,38.8-3.5
	l-0.2-0.2l0.3-0.3c0.7-0.6,1.4-1.2,2.3-1.9c0.7-0.5,1.3-1,2-1.5c1.9-1.3,3.7-2.7,5.4-4.4c3-3.3,4.6-7.2,4.1-10.8
	c-0.6-5.1-5-9-9-12.3l-0.1-0.1c-0.8-0.6-1.5-1.3-2.3-1.9c-4.3-3.5-9-6.5-14-8.8c-5.8-2.5-12.1-3.5-18.2-4.4l-37.8-6l-28.4-4.5
	c-6.2-0.9-12.4-2.1-18.5-3.7c-2.4-0.7-4.8-1.5-7.1-2.3c-6.5-2.3-13.3-4.6-20.2-4.1h-0.3c-1.4,0.2-2.8,0.1-4.2-0.2
	c-0.9-0.2-1.6-0.7-2.2-1.4c-1.1-1.4-0.8-3.2-0.6-4.9c0.2-1,0.2-2.1,0.1-3.1c-0.5-2.6-3-4.1-5.3-4.5c-2.6-0.5-5.3,0.2-7.6,0.8
	c-19.6,4.7-39.3,9.4-58.9,14.2l-1.1,1H665C643.5,266.8,620,266.2,593.2,264.7z"/>
<path class="st1" d="M689.6,329.6l-0.2-0.8c5.1-1.1,10.1-1.8,16.1-2.7l9.4-1.3l22.3-3.1c5.3-0.9,10.7-1.3,16.1-1.4
	c4.3,0.1,8.6,0.7,12.8,1.5c2.5,0.5,5.1,1.1,7.6,1.6c5.3,1.3,10.7,2.3,16.1,2.9c3.3,0.3,6.8,0.4,10.1,0.4c2.8,0,5.7,0.1,8.6,0.3
	c0.8,0,1.7,0.1,2.5,0.2l-0.1,0.8c-0.8-0.1-1.7-0.2-2.5-0.2c-2.8-0.2-5.8-0.2-8.6-0.3c-3.3,0-6.8-0.1-10.2-0.4
	c-5.5-0.6-10.9-1.6-16.2-2.9c-2.5-0.6-5-1.1-7.5-1.6c-4.2-0.9-8.4-1.4-12.7-1.5c-5.3,0-10.7,0.5-16,1.4l-22.3,3.1l-9.4,1.3
	C699.6,327.7,694.6,328.5,689.6,329.6z"/>
<path class="st1" d="M667.5,409.6v-0.8c0.9,0,1.8,0.1,2.7,0.2c3.3,0.4,6.5,1.1,9.6,2c3.9,1.1,7.8,2.3,11.6,3.5
	c6.3,2,12.9,4,19.4,5.6c11,2.7,22.3,4.4,33.3,6c6,0.9,12.2,1.8,18.2,2.8c7.2,1.3,14.8,2.9,23.2,4.9c14.3,3.4,28.8,7.6,42.7,11.6
	c7.8,2.3,15.9,4.6,23.9,6.8c9,2.4,17,4.3,25.2,3.3c1.5-0.2,2.9-0.5,4.3-0.9c7.5-2.2,13.1-7.1,15.2-13.2c1.1-3.6,1.1-7.5,0-11.2
	c-1.6-5.1-4.7-9.6-8.8-13c-3.2-2.6-6.8-4.7-10.6-6.3c-4.7-1.9-9.6-3.6-14.5-4.9l-7.3-2.2l-7-2l-13.2-3.9l-13.2-3.9L773,379.7
	c-11.1-3.3-22.6-6.6-34-9.1c-7.5-1.7-15.1-2.9-22.7-3.6h-0.9c-11.5-0.7-22.9-3.2-34.4-5.9c-5.4-1.3-9.3-3-11.9-5.2
	c-1.8-1.4-3.1-3.4-3.8-5.6c-1.2-3.9,0.3-8.7,3.6-12.3c2.6-2.7,6-4.7,11.2-6.5c3-1,6.1-1.9,9.3-2.6l0.2,0.8c-3.1,0.7-6.2,1.5-9.2,2.5
	c-5.1,1.8-8.4,3.7-10.9,6.3c-3.1,3.3-4.5,7.8-3.4,11.5c0.6,2.1,1.9,3.9,3.5,5.2c2.6,2.2,6.3,3.8,11.6,5c11.5,2.7,22.8,5.2,34.3,5.9
	h0.9c7.7,0.7,15.3,1.9,22.8,3.6c11.5,2.5,22.9,5.8,34,9.1l49.2,14.5l13.2,3.9l13.2,3.8l7,2l7.3,2.2c5,1.4,9.9,3,14.6,5
	c3.9,1.6,7.5,3.7,10.8,6.4c4.3,3.5,7.5,8.2,9.1,13.4c1.2,3.8,1.2,7.8,0,11.6c-2.1,6.3-8,11.4-15.7,13.7c-1.5,0.4-2.9,0.7-4.4,0.9
	c-8.4,1.1-16.5-0.9-25.5-3.3c-8-2.2-16.1-4.5-23.9-6.8c-13.9-4-28.4-8.2-42.7-11.6c-8.4-2-16-3.6-23.2-4.9c-6-1-12.2-2-18.2-2.8
	c-11-1.6-22.4-3.3-33.4-6c-6.6-1.6-13.1-3.7-19.5-5.6c-3.8-1.2-7.7-2.4-11.6-3.5c-3.1-0.9-6.3-1.6-9.5-2
	C669.3,409.7,668.4,409.6,667.5,409.6z"/>
<path class="st1" d="M665,409.7l-0.1-0.8c0.9,0,1.7,0,2.6,0v0.8C666.7,409.6,665.8,409.6,665,409.7z"/>
<path class="st1" d="M655.1,421.7c-1.6-1.8-2.5-4.5-1.5-6.9c0.7-1.4,1.7-2.5,3-3.3c2.5-1.6,5.3-2.5,8.3-2.7l0.1,0.8
	c-2.8,0.2-5.5,1-7.9,2.5c-1.2,0.7-2.1,1.7-2.7,2.9c-1.1,2.5,0.3,5.4,2.3,7c2.1,1.7,4.8,2.5,7.5,3.2l55.6,14.7l-0.2,0.8L663.8,426
	c-2.6-0.7-5.5-1.5-7.8-3.3C655.7,422.4,655.4,422.1,655.1,421.7z"/>
<path class="st1" d="M306.6,502.9l-0.2-0.3l-64.1-87.9v-0.2l15.8-90.8l117.8-19.2l85.9-24.6l131.4-16l1.1,0.1l-12.8,9.6l-9.5,23.8
	l22.1,24.4L563.4,337l-15,41.3l20.8,14.3l-18.8,12.2l-12.6,29.7l12.8,33.2l-0.2,0.2L503.5,515l-0.3-0.1c-0.1,0-9.9-4.5-19.5-9
	c-16.4-7.7-19.2-9.4-19.6-10c-1.9-0.3-30.7,5.3-49.6,9.3h-0.1l-66.7-31.8L306.6,502.9z M243.1,414.5l63.6,87.3l40.8-29.2l0.2,0.1
	l66.7,31.7c14.4-3,47.3-9.7,50-9.2l0,0l0.3,0.1v0.2c1.4,1.4,23.6,11.8,38.6,18.5l46.3-46.7l-12.7-33l12.8-30.2l0.1-0.1l17.9-11.6
	l-20.3-14l15.3-42.1l30.1-14.8l-21.7-24l9.8-24.5l11-8.2l-129.9,15.8l-85.9,24.6l-117.3,19.1L243.1,414.5z M464.8,495.6L464.8,495.6
	z"/>
<path class="st1" d="M889,329.9l0.1-0.8c0.6,0.1,0.7,0.1,0.8,0.2l0.4,0.3l-0.3,0.4l-0.3-0.3l0,0l0,0l-0.2,0.3
	C889.3,329.9,889.2,329.8,889,329.9z M889.6,329.6l-0.2-0.3L889.6,329.6z"/>
<path class="st1" d="M812.8,328.3l0.1-0.8h0.7c16.1,0.1,69.1,0.7,75.5,1.5l-0.1,0.8c-6.3-0.8-59.3-1.4-75.4-1.5H812.8z"/>
<path class="st1" d="M812.9,328.3l-0.2-0.8l41.6-9l-31.7-13.8l37-15.2l-3.5,28.9l33,10.6l-0.2,0.8l-33.2-10.7L812.9,328.3z
	 M858.7,290.8l-34,14l30.7,13.4L858.7,290.8z"/>
<polygon class="st1" points="888.9,329.8 889,329.4 888.8,329.2 889,329.4 889,329.1 889.1,329.1 889,329.5 889.3,329.8 889,329.8 
	889,329.9 889,329.8 "/>
<path class="st1" d="M663.2,280.5v-0.3h0.4v-0.4c0.4-0.1,3.2-1.9,6.2-3.7c10.6-6.6,16.2-9.9,17.5-9.5c0.1,0,0.3,0.1,0.3,0.2
	c2,0.9,32.8-1.4,53.1-3.1l0.6,0l-7.8,25.6l19.9,31.1l59.2,7.1l10.7-22.9l0.8-16l-5.5-10.4l71.1,20.1v0.3l0.3,31v0.5l-1.1-0.4
	l0.2-0.8h0.1l-0.3-30.1l-68.7-19.4l4.7,8.9l-0.8,16.4l-0.2,0.3l-10.8,23.2l-2.3-0.3l-57.9-7l-0.1-0.2l-20.2-31.6v-0.2l7.6-24.7
	c-2.7,0.2-14.3,1.2-25.8,2c-25.1,1.8-27,1.3-27.4,0.8c-1.5-0.1-11.4,6.1-16.8,9.5c-6.4,4-6.5,4-6.8,3.8L663.2,280.5z"/>
<path class="st1" d="M612.9,410l53.8-1.2l-18.5-20.4l6.2-23.7l14.3-9.3c-4-2.5-29-18.1-34.8-20.6c-0.9,0-1.2-0.1-1.3-0.3l-0.1-0.2
	v-0.2c0-0.1,0.1-0.3,0.3-0.3c0.2-0.1,0.5-0.1,1.3,0.2c7,0.1,42.7-3.9,54.5-5.2l-28.8-22.8v-0.2c0.3-2.6,3.3-25.3,3.5-25.8l0.8,0.2
	c-0.1,0.5-2.3,16.8-3.4,25.5l30.1,23.8h-1.2h-0.4c-10.4,1.2-43.5,4.9-53.4,5.2c8.3,4.2,32.8,19.5,33.9,20.2l0.5,0.3l-15,9.8l-6,23
	l0.1,0.1l19.3,21.3h-0.9h-2.5l-49.1,1.1l40.6,11.3l-0.2,0.8l-43.4-12c-0.2,0-0.4-0.2-0.4-0.4C612.5,410.1,612.7,410,612.9,410
	L612.9,410z"/>
<path class="st1" d="M649,388.2L649,388.2c4,2.2,63.7,10.1,73.6,11.4l-53.5-43.9l0.5-0.6l54.1,44.4l15.3-29.7l15.7,37.3l18.4-28.7
	l29.3,41.3c19.2-26.7,19.7-26.6,20-26.5s0.8,0.2,2.8,39.3l12.1-10.9l11-20.3c0.1-0.2,0.4-0.3,0.6-0.2c0.1,0.1,0.2,0.2,0.2,0.3
	l8.6,28.4c19.5-19.9,19.7-19.8,20-19.7c0.1,0,0.3,0.1,19.8,19.6l0.2,0.2l-0.2,0.3L882,455.5l-23.9-13.1c-0.9,1.3-4.9,7-5.7,9.3
	c0.2,0.6,0.2,0.9,0,1.2l-0.2,0.2H852c-0.2,0-0.3-0.1-0.4-0.3c-0.1-0.3-0.1-0.7,0-1c-0.6-1.8-2.5-6-5.7-12.4l-20.9-5.3l0,0l-0.5-0.2
	l0,0l-11.3-4.3l-10.7-8.5l-0.2-0.1l-0.2-0.1l-47.4-12.3h-0.2l-0.2,0.1l-13,6.5l-0.2-0.2l-17.4-14.4c-4.2-0.5-70.7-9.2-75.1-11.6
	c-0.2-0.1-0.3-0.2-0.4-0.4c-3.9-1.3-73.3,3.9-79.8,4.4l-0.1-0.8C569.3,392.2,647.3,386.1,649,388.2L649,388.2 M648.3,388.3
	L648.3,388.3z M739.1,371.1l-14.7,29l17.1,14.1l12.6-6.3L739.1,371.1z M773.2,380l-17.9,27.8l46.3,12L773.2,380z M822.2,394.5
	c-2.4,2.5-12.4,16.3-19.2,25.9l10.7,8.5l10.9,4.1c-0.7-14.2-1.9-34.8-2.4-38.5L822.2,394.5z M837.7,422.7l-11.8,10.7l19.7,5
	c-3.5-6.8-7.1-13.9-8-15.8L837.7,422.7z M847.1,439.6c2.6,5.3,4.3,9,5.1,11.1c1.6-2.9,3.3-5.7,5.3-8.4L847.1,439.6z M838.5,422.7
	c1.3,2.5,4.8,9.4,8,15.9l11.1,2.8c0.1-3.5,0-7-0.3-10.4l0-0.2C856.6,430.1,845.8,425.6,838.5,422.7z M848.7,402.5l-10.4,19.2
	c6.2,2.5,15.5,6.3,18.7,8L848.7,402.5z M858.1,430.8c0.3,1.7,0.3,8.7,0.3,10.8l0.3,0.1l-0.1,0.1l23.2,12.7l15.1-24.2
	c-5.1-5.1-17.4-17.4-19.2-19.1C875.9,412.7,865.3,423.4,858.1,430.8L858.1,430.8z"/>
<path class="st1" d="M568.2,392.3l63.4-57.4c0.2-0.1,0.2-0.4,0-0.5c0,0-0.1-0.1-0.2-0.1l-38.1-12.2c-0.2-0.1-0.3-0.3-0.3-0.5
	c0-0.1,0.1-0.2,0.3-0.3l66.7-15.8l73-16.7h0.1l92,16l-0.1,0.8l-1.5-0.3l-90.3-15.7H733l-72.8,16.6l-63.9,15.1
	c-0.2,0.1-0.3,0.3-0.3,0.5c0,0.1,0.1,0.2,0.3,0.3l36.7,11.7c0.2,0.1,0.3,0.3,0.3,0.5c0,0.1-0.1,0.1-0.1,0.2l-64.4,58.3L568.2,392.3z
	"/>
<path class="st1" d="M667.5,409.6l0-0.8l2.7,0.2l71.3,5.2l0.1,0.1c1,1,26.8,12.2,43.9,19.5l39.5-0.8l27.3,19.2l-0.4,0.7l-0.1-0.1
	l-27-18.9l-39.4,0.8h-0.1c-4.3-1.8-41.2-17.7-44.1-19.6L667.5,409.6z"/>
<path class="st1" d="M537.4,434.8V434l54.5,0.2c9.7,3.1,94.8,30.3,95.9,31s13.9,9.8,15.7,11l23.5-8.9h0.1l46.4,10.3l9.9,10.9
	l20.4-8.2l-45.5-29.8c-8.9-1.9-17.9-4.3-26.5-6.6l-3.7-1l-8.6-2.2l0.2-0.8l8.6,2.3l3.7,1c8.7,2.3,17.7,4.7,26.6,6.6h0.1l0.1,0.1
	l45.8,30l8.8-15.1l22.2,6.1l-11,27.4l-20.6-7.5l0.3-9.8l-21,8.5l-10.1-11.1l-46.1-10.2l-23.7,8.9l-0.2-0.1
	c-0.2-0.1-14.7-10.3-15.8-11.1c-1.5-0.8-63.2-20.5-95.7-30.9L537.4,434.8z M805.1,480.5l-0.3,9.7l19.4,7l10.4-25.8l-20.7-5.7
	L805.1,480.5z"/>
<path class="st1" d="M549.6,467.9l0.1-0.5l18.5-75.2h0.5l45.2,18l-21.6,24.6l4,21.3l102.7,32.3l-11.8-22.8l0.3-0.2l31.5-24.8
	c0.4-0.3,0.9-0.2,1.2,0.1c0.1,0.1,0.1,0.2,0.2,0.3l7.2,26.6l37.8,26.4L773,478l-14.8-27.6l0.7-0.4l15,28l-7.7,15.9l17.1-5.2l0.2,0.8
	l-17.8,5.4v0.1h-0.2h-0.1l-0.1,0l-64.9-5.5l0.1,0.2l-1-0.3l-47.7-12l-55.3-10.6L549.6,467.9z M568.7,393.1l-18.2,74l46.1-1.1
	l55.3,10.5l34.4,8.7l-90.9-28.6l-4.2-22.2l0.1-0.2l21-23.8L568.7,393.1z M688.1,465.7l11.8,22.9l64,5.4l-37.2-26l-7.3-27
	L688.1,465.7z"/>
<path class="st1" d="M306.3,502.4l-48.1-177.9c-0.1-0.2,0-0.5,0.3-0.6s0.5,0,0.6,0.3l0,0l44.5,86.9c0.1,0.2,0.4,0.3,0.6,0.2
	c0.1-0.1,0.2-0.1,0.2-0.3l28.9-98.9l0.5-0.6l57.6,58.8c0.2,0.2,0.4,0.2,0.6,0c0,0,0,0,0,0l39.1-50l0.1-0.2l0.2-0.2
	c0.1-0.1,0.2-0.2,0.3-0.3l30.2-39.9l0.3,0.2l101,56.4c0.2,0.1,0.3,0.4,0.2,0.6c-0.1,0.2-0.3,0.2-0.4,0.2l-128-16
	c-0.2,0-0.5,0.1-0.5,0.4c0,0.2,0,0.3,0.2,0.4l115.7,82.2c0.2,0.1,0.2,0.4,0.1,0.6c-0.1,0.1-0.2,0.2-0.3,0.2l-132.3,27.8
	c-0.2,0.1-0.4,0.3-0.3,0.5c0,0.2,0.2,0.3,0.3,0.3l132.6,33.7l0.1,0.2l14.6,27.9c0.1,0.2,0.4,0.3,0.6,0.2c0,0,0.1,0,0.1-0.1
	l30.5-29.2c0.2-0.2,0.5-0.2,0.6,0c0.1,0.1,0.1,0.1,0.1,0.2l3.1,12.4c0,0.2,0.2,0.3,0.4,0.3l61.3-0.1c0.1,0,0.3,0.1,0.4,0.2l18,27.1
	c0.1,0.2,0.4,0.3,0.6,0.1c0,0,0,0,0.1,0l18.8-17.9l0.2,0.1l38.5,13c0.1,0,0.2,0,0.3,0l26.5-7.4c0.2-0.1,0.5,0.1,0.5,0.3
	c0,0.2,0,0.3-0.1,0.5l-20.6,18.6c-0.1,0.1-0.3,0.2-0.5,0.1l-4.8-2c-0.1,0-0.2,0-0.2,0l-79.3,13.3l-0.2-0.2v-0.1l-3.4-11.7
	c-0.1-0.2-0.2-0.3-0.4-0.3c-2.2-0.3-12.2-1.9-63.3-10.9c-0.2,0-0.4,0.1-0.5,0.3l-5.3,15l-0.3,0.3L565,496.7H565l-0.1-0.1l-0.3-0.2
	l0.1-0.1L549.9,468c-0.1-0.1-0.2-0.2-0.3-0.2l-135.2-34.3c-0.1,0-0.2,0-0.3,0l-66.2,39.9c-0.2,0.1-0.4,0.1-0.6-0.1l-43.3-59.6h0
	l-0.3-0.5l-41.9-81.9c-0.1-0.2-0.3-0.3-0.6-0.3s-0.3,0.3-0.3,0.6l0,0l46.2,170.6L306.3,502.4z M305,413.7l42.5,58.5
	c0.1,0.2,0.4,0.2,0.6,0.1l65.3-39.3c0.2-0.1,0.3-0.3,0.2-0.5l-22-60.1c-0.1-0.2-0.3-0.4-0.6-0.3c0,0,0,0,0,0l-85.8,41
	C304.9,413.2,304.8,413.4,305,413.7C304.9,413.7,304.9,413.7,305,413.7z M333.3,313.3l-28.4,98.1c-0.1,0.2,0.1,0.5,0.3,0.5
	c0.1,0,0.2,0,0.3,0l84.8-40.5c0.2-0.1,0.3-0.4,0.2-0.6c0,0,0-0.1-0.1-0.1L334,313.1c-0.2-0.2-0.4-0.2-0.6,0
	C333.4,313.2,333.3,313.2,333.3,313.3z M392.1,371.5l22.2,60.6c0.1,0.2,0.3,0.3,0.5,0.3l133.3-28c0.2-0.1,0.4-0.3,0.3-0.5
	c0-0.1-0.1-0.2-0.2-0.3L432,321c-0.2-0.1-0.5-0.1-0.6,0.1l-39.3,50.2l0.1,0.2L392.1,371.5z M591.2,501.4l-23.3-4.1
	c-0.2,0-0.5,0.1-0.5,0.3c0,0.2,0,0.3,0.1,0.4l18.6,17.5c0.2,0.2,0.5,0.2,0.6,0c0,0,0.1-0.1,0.1-0.2l4.7-13.4
	C591.6,501.7,591.5,501.5,591.2,501.4C591.2,501.4,591.2,501.4,591.2,501.4z M595.8,467.6l-29.2,27.9c-0.2,0.2-0.2,0.4,0,0.6
	c0.1,0.1,0.1,0.1,0.2,0.1l24.7,4.4c0.2,0,0.4-0.1,0.5-0.3l7.3-20.8c0-0.1,0-0.2,0-0.3l-2.8-11.5c-0.1-0.2-0.3-0.4-0.5-0.3
	C596,467.5,595.9,467.6,595.8,467.6z M461.8,281.1l-29,38.2c-0.1,0.2-0.1,0.5,0.1,0.6c0.1,0,0.1,0.1,0.2,0.1l125.8,15.8
	c0.2,0,0.5-0.1,0.5-0.4c0-0.2-0.1-0.3-0.2-0.4l-96.8-54C462.1,280.9,461.9,280.9,461.8,281.1z M599.9,480.5l-7,19.8
	c-0.1,0.2,0,0.5,0.3,0.6c0,0,0,0,0.1,0c36,6.4,52.4,9.2,59.2,10.3c0.2,0,0.5-0.1,0.5-0.4c0-0.2-0.1-0.4-0.2-0.5l-52.2-30.1
	C600.3,480.2,600,480.3,599.9,480.5C599.9,480.5,599.9,480.5,599.9,480.5z M661.4,479.8l-58.4,0.1c-0.2,0-0.4,0.2-0.4,0.4
	c0,0.2,0.1,0.3,0.2,0.4l53.9,31.1c0.1,0,0.2,0.1,0.3,0.1c2.5-0.4,17.7-3.7,22.1-4.6c0.2,0,0.4-0.3,0.3-0.5c0-0.1,0-0.1-0.1-0.1
	L661.7,480C661.7,479.8,661.5,479.8,661.4,479.8z M657.4,513l3.1,10.7c0.1,0.2,0.3,0.3,0.5,0.3l77.8-13.1c0.2,0,0.4-0.2,0.4-0.4
	c0-3.6-0.3-7.5-0.8-8.1l0,0c-1.2,0.3-9.3,3.3-14.6,5.3h-0.1h-43.1l-0.2,0.2l-0.1-0.2c-2.4,0.5-18.2,3.9-22.5,4.7
	C657.5,512.6,657.3,512.8,657.4,513C657.4,513,657.4,513,657.4,513L657.4,513z M699.6,489.6l-17.4,16.6c-0.2,0.2-0.2,0.5,0,0.6
	c0.1,0.1,0.2,0.1,0.3,0.1h41h0.2c1.4-0.5,8.4-3.2,12.3-4.5c0.2-0.1,0.3-0.3,0.3-0.6c0-0.1-0.1-0.2-0.3-0.3l-35.9-12.1
	C699.9,489.4,699.7,489.5,699.6,489.6L699.6,489.6z M739.3,502.6c0.6,1.9,0.7,6,0.7,8c0,0.2,0.1,0.3,0.3,0.4l4,1.7
	c0.2,0.1,0.3,0,0.5-0.1l17.7-16c0.2-0.2,0.2-0.4,0-0.6c-0.1-0.1-0.3-0.2-0.4-0.1l-22.4,6.3C739.4,502.2,739.3,502.4,739.3,502.6
	L739.3,502.6z"/>
<polygon class="st1" points="414,504.8 413.8,431.8 464.7,495.4 464.1,495.9 464.1,495.9 414.6,434.1 414.8,504.8 "/>
<path class="st2" d="M203.7,393.1c-1.9,29.6-6.6,57.3-13.3,77.9c-3.9,12-11.9,32-22.3,31.4s-15.9-21.5-18.2-33.9
	c-4-21.3-5.1-49.3-3.2-79s6.6-57.3,13.3-77.9c3.9-12,11.9-32,22.3-31.4s15.9,21.6,18.2,34C204.4,335.5,205.6,363.5,203.7,393.1z
	 M147.4,389.5c-1.9,29.6-0.7,57.6,3.2,78.9c3.9,20.8,10.3,33.1,17.5,33.5s15.1-10.8,21.6-31c6.6-20.6,11.3-48.2,13.2-77.8
	s0.7-57.6-3.2-78.9c-3.9-20.9-10.3-33.1-17.4-33.5s-15.1,10.9-21.6,31C154,332.3,149.3,359.9,147.4,389.5L147.4,389.5z"/>
<path class="st0" d="M1062.1,328.3c-2.2,0-69,0.6-76.1,1.5l0,0l-0.6,0.2c0.8,0.6,1.6,1.2,2.3,1.9l-0.3,0.3
	c11.7,6.8,26.2,6.4,39.5,3.8C1038.7,333.6,1050.2,329.7,1062.1,328.3z"/>
<path class="st0" d="M993.1,455.3L993.1,455.3c1.4,0.4,2.9,0.7,4.4,0.9c8.5,1.1,17.1-1.1,25.4-3.3c-0.2,0-0.1-0.3,0.1-0.9
	c-0.8-2.6-5.9-9.8-5.9-9.8L993.1,455.3z"/>
<path class="st0" d="M1023,452.8c0,0-0.1,0.1-0.1,0.1c22.2-6,44.2-13,66.6-18.3l-39.4-0.8L1023,452.8z"/>
<path class="st0" d="M1241,334.8c-7.8,0.2-53.9-5.1-55.5-5.3c3.1,0.7,6.2,1.5,9.2,2.5c4.1,1.4,8.1,3.3,11.1,6.4s4.7,7.7,3.5,11.9
	c-0.7,2.1-1.9,4-3.7,5.4C1205.6,355.8,1234.9,337.4,1241,334.8z"/>
<path class="st0" d="M1070.6,490.8l-20,7.2l0,0c10.4,2.8,21.5,2.1,32.3,1.3c9.1-0.7,18.3-0.9,26.6-4.6l-18-5.5l-21.3-8.6
	L1070.6,490.8z"/>
<path class="st0" d="M1281.8,264.6l131.3,15.9l-2.9-2.6l-19.4-9c-4.7-2.3-9.6-4.3-14.5-6c-13-3.9-26.9-3-40.5-2l-22.1,1.6
	C1303,263.3,1292.4,264,1281.8,264.6z"/>
<path class="st0" d="M1147.9,468.1l-38.3,26.8l65.7-5.6l12.1-23.4c-1.1,0.8-15.8,11.1-15.8,11.1L1147.9,468.1z"/>
<path class="st0" d="M1130.3,513.6l-20.7-18.8c-1.7,3,0.6,6.6,3.1,9c5,4.7,10.8,8.4,17.2,10.9L1130.3,513.6z"/>
<path class="st0" d="M1204.7,409.7l-71.2,5.2c-1.1,1.2-44.1,19.6-44.1,19.6c7.7-1.8,15.4-3.5,23.2-4.9c17.2-3,34.6-4.6,51.5-8.8
	c10.5-2.6,20.7-6.2,31-9.2C1198.3,410.8,1201.5,410.1,1204.7,409.7z"/>
<path class="st0" d="M1135.3,511.5l-5,2.1l-0.5,1.1c12.4,5.1,26.7,6.8,40.3,8.1s27.1,2.7,40.7,2.2c1.3,0,2.5-0.1,3.8-0.2
	L1135.3,511.5z"/>
<path class="st0" d="M1187.3,465.9l-12.1,23.4l103.9-32.6l4.1-21.8C1283.2,434.9,1188.5,465.1,1187.3,465.9z"/>
<polygon class="st0" points="1223,477.2 1278.3,466.7 1324.9,467.8 1316.8,434.8 1283.2,434.9 1279.1,456.6 1175.3,489.2 
	1213.2,479.7 "/>
<path class="st0" d="M1218.2,512.5l-3.6,12.3c14-0.8,27.8-3.2,41.7-4.9c10.6-1.3,21.2-2.3,31.8-3l-5.4-15.5
	C1256.1,506.2,1219.3,512.6,1218.2,512.5z"/>
<path class="st0" d="M1324.9,467.8l-15.2,28.9l-21.6,20.3c27.7-1.8,55.5-1.8,83.3-2.1L1324.9,467.8z"/>
<path class="st0" d="M1371.5,514.9l8.6-0.1c21-0.3,42-0.9,62.5-5.1c6-1.2,12-2.8,17.9-4.5c0,0-48.7-10.1-50-9.2l0,0
	C1410.6,497.2,1371.5,514.9,1371.5,514.9z"/>
<polygon class="st0" points="1460.8,433.3 1460.5,505.1 1527.4,473.3 "/>
<path class="st0" d="M1460.5,505.1c14.8-4.2,29.5-9.1,44.6-11.7c18.3-3.2,40.2-4.8,56.1,4.2l-33.9-24.3L1460.5,505.1z"/>
<path class="st1" d="M1603.1,478.4c5.9-6.9,11-14.5,15.2-22.5c15.4-29.1,21.6-62.1,17.8-94.7c-2.2-18.6-8.4-31.2-18.6-37.5l-0.1-0.1
	h-0.2c-7.5,1.3-14.2-0.8-20.3-3.3c-2-0.8-4.1-1.7-6-2.6c-5.8-2.6-11.8-5.3-18.2-6.3c-5-0.8-10.1-0.6-15.1-0.3
	c-1.3,0.1-2.5,0.1-3.8,0.2c-4.4,0.2-9,0.1-13.6-0.1c-13.7-0.9-27.2-3.1-40.5-6.6l-0.2,0.8c13.3,3.5,26.9,5.7,40.6,6.6
	c4.6,0.3,9.2,0.3,13.6,0.1c1.3,0,2.5-0.1,3.8-0.2c4.9-0.2,10-0.5,14.9,0.3c6.3,1.1,12.3,3.7,18,6.3c2,0.9,4,1.8,6.1,2.6
	c5.9,2.4,12.9,4.7,20.5,3.4c9.9,6.2,16,18.6,18.1,36.8c3.7,32.5-2.5,65.3-17.7,94.2c-15.8,29.7-35,41.4-48.2,46h-0.1l-0.3,0.3
	c-2.1-1.8-4.4-3.5-6.8-4.8c-17-9.6-40.3-7-56.3-4.2c-11.5,2-22.8,5.3-33.8,8.5c-3.6,1-7.3,2.1-10.9,3.2c-7,2-12.7,3.4-17.9,4.5
	c-20.4,4.2-41.2,4.8-62.4,5.1l-8.6,0.1l-11.8,0.1c-23.5,0.2-47.8,0.5-71.5,2c-11.4,0.7-21.8,1.7-31.9,3c-4,0.5-8.1,1.1-12,1.6
	c-9.7,1.3-19.8,2.7-29.7,3.3c-1.3,0.1-2.6,0.1-3.8,0.2c-13.5,0.4-27.2-0.9-40.5-2.2h-0.2c-14.2-1.4-28-3-40.2-8
	c-6.3-2.5-12.1-6.2-17.1-10.8c-1.2-1.2-5-5.2-3-8.5l0.6-1l-1.1,0.5c-7.3,3.2-15.4,3.8-23.2,4.3l-3.3,0.2
	c-10.2,0.8-21.7,1.6-32.2-1.3c-1-0.3-2-0.6-3-0.9c-4.2-1.5-9.6-4.3-11.4-9.4c-1.5-4.1-0.5-9.2,2.7-14c0.4-0.5,0.8-1.1,1.3-1.7
	c6.3-8,16.2-11.7,23.3-13.4c6.8-1.6,14-2.2,20.9-2.7c2.8-0.2,5.8-0.5,8.6-0.8c7.9-0.9,15.8-2.2,23.6-3.9l-0.2-0.8
	c-7.8,1.7-15.6,3-23.5,3.9c-2.8,0.3-5.8,0.5-8.6,0.8c-6.9,0.5-14.1,1.1-21,2.8c-7.2,1.7-17.2,5.5-23.7,13.7
	c-0.5,0.6-0.9,1.2-1.3,1.7c-3.4,5-4.4,10.4-2.8,14.7c2,5.4,7.6,8.3,11.9,9.8c1,0.4,2,0.7,3.1,1c10.7,2.9,22.3,2,32.5,1.3l3.3-0.2
	c7.6-0.5,15.4-1,22.5-4c-1.1,3.6,2.4,7.4,3.6,8.5c5,4.7,10.9,8.5,17.3,11c12.3,5,26.1,6.7,40.4,8.1h0.2c13.3,1.3,27,2.6,40.6,2.2
	c1.3,0,2.5-0.1,3.8-0.2c10-0.5,20.1-1.9,29.8-3.3c3.9-0.5,8-1.1,12-1.6c10.1-1.3,20.5-2.2,31.8-3c23.8-1.5,48-1.8,71.5-2l11.8-0.1
	l8.6-0.1c21.3-0.3,42.2-0.9,62.6-5.2c5.3-1.1,11-2.5,18-4.5c3.7-1,7.3-2.1,10.9-3.2c11-3.2,22.3-6.5,33.7-8.5
	c15.9-2.8,39-5.3,55.8,4.1c2.5,1.4,4.9,3.1,7,5l0.3,0.3l0.7-0.7C1579,498.9,1591.2,492.3,1603.1,478.4z"/>
<path class="st1" d="M1499.5,305.3l0.2-0.8c-4.3-1.1-8.8-2.3-13.3-3.7c-2.9-0.9-5.9-1.8-9.1-2.8c-6.7-2.1-13.6-4.4-20.2-6.6
	c-11.8-3.9-24-8-36.2-11.3c-2.3-0.7-4.7-0.8-7-0.4l-2.8-2.5l0,0l-12-5.6l-7.3-3.4c-4.7-2.3-9.6-4.3-14.6-6c-13.3-4-27.8-3-40.6-2
	l-22.1,1.6c-11.8,0.9-22.2,1.5-31.9,2.1l0.1,0.8c9.7-0.5,20.1-1.2,31.9-2.1l22.1-1.6c12.8-0.9,27.2-2,40.3,2c5,1.7,9.8,3.7,14.5,6
	l7.4,3.4l12,5.6l3,2.7h0.2c2.3-0.5,4.6-0.4,6.8,0.3c12.2,3.4,24.4,7.4,36.2,11.3c6.6,2.2,13.4,4.5,20.2,6.6c3.2,1,6.2,1.9,9.1,2.8
	C1490.7,302.9,1495.2,304.2,1499.5,305.3z"/>
<path class="st1" d="M1282.5,264.7v-0.8c-26.8,1.5-50.2,2.1-71.6,1.8l-1-0.9h-0.1l-59-14.2c-2.3-0.6-5.2-1.3-7.9-0.8
	c-2.5,0.4-5.4,2.2-5.9,5.2c-0.1,1.1-0.1,2.3,0.1,3.4c0.2,1.6,0.4,3.1-0.4,4.3c-0.4,0.6-1,0.9-1.7,1.1c-1.3,0.3-2.7,0.3-4,0.2h-0.3
	c-7-0.5-13.9,1.9-20.5,4.2c-2.3,0.8-4.7,1.6-7.1,2.3c-6,1.6-12.1,2.9-18.3,3.7l-28.4,4.5l-37.8,6c-6.1,1-12.5,2-18.4,4.5
	c-5.1,2.3-9.9,5.3-14.2,8.9c-0.8,0.6-1.6,1.2-2.3,1.9l-0.1,0.1c-4.1,3.3-8.6,7.4-9.3,12.8c-0.5,3.8,1.1,8,4.3,11.4
	c1.7,1.7,3.5,3.2,5.5,4.5c0.7,0.5,1.3,0.9,2,1.4c0.8,0.6,1.4,1.1,2,1.6l-0.3,0.4l0.4,0.2c10.1,5.8,23.1,7.1,39.8,3.9
	c4.7-0.9,9.5-2.1,14.1-3.3c6.9-1.9,14-3.3,21.1-4.4l-0.1-0.8c-7.1,1.1-14.2,2.5-21.2,4.4c-4.6,1.1-9.3,2.3-14,3.3
	c-16.3,3.2-29,2-38.8-3.5l0.2-0.2l-0.3-0.3c-0.7-0.6-1.4-1.2-2.3-1.9c-0.7-0.5-1.3-1-2-1.5c-1.9-1.3-3.7-2.7-5.4-4.4
	c-3-3.3-4.6-7.2-4.1-10.8c0.6-5.1,5-9,9-12.3l0.1-0.1c0.8-0.6,1.5-1.3,2.3-1.9c4.3-3.5,9-6.5,14-8.8c5.8-2.5,12.1-3.5,18.2-4.4
	l37.8-6l28.4-4.5c6.2-0.9,12.4-2.1,18.5-3.7c2.4-0.7,4.8-1.5,7.1-2.3c6.5-2.3,13.3-4.6,20.2-4.1h0.3c1.4,0.2,2.8,0.1,4.2-0.2
	c0.9-0.2,1.6-0.7,2.2-1.4c1.1-1.4,0.8-3.2,0.6-4.9c-0.2-1-0.2-2.1-0.1-3.1c0.4-2.6,3-4.1,5.3-4.5c2.6-0.5,5.3,0.2,7.6,0.8
	c19.6,4.7,39.3,9.4,58.9,14.2l1.1,1h0.2C1232.2,266.8,1255.7,266.2,1282.5,264.7z"/>
<path class="st1" d="M1186.1,329.6l0.2-0.8c-5.1-1.1-10.1-1.8-16.1-2.7l-9.4-1.3l-22.3-3.1c-5.3-0.9-10.7-1.3-16.1-1.4
	c-4.3,0.1-8.6,0.7-12.8,1.5c-2.5,0.5-5.1,1.1-7.6,1.6c-5.3,1.3-10.7,2.3-16.1,2.9c-3.3,0.3-6.8,0.4-10.1,0.4c-2.8,0-5.7,0.1-8.6,0.3
	c-0.8,0-1.7,0.1-2.5,0.2l0.1,0.8c0.8-0.1,1.7-0.2,2.5-0.2c2.8-0.2,5.8-0.2,8.6-0.3c3.3,0,6.8-0.1,10.2-0.4
	c5.5-0.6,10.9-1.6,16.2-2.9c2.5-0.6,5-1.1,7.5-1.6c4.2-0.9,8.4-1.4,12.7-1.5c5.4,0,10.7,0.5,16,1.4l22.3,3.1l9.4,1.3
	C1176.1,327.7,1181.1,328.5,1186.1,329.6z"/>
<path class="st1" d="M1208.2,409.6v-0.8c-0.9,0-1.8,0.1-2.7,0.2c-3.3,0.4-6.5,1.1-9.6,2c-3.9,1.1-7.8,2.3-11.6,3.5
	c-6.3,2-12.9,4-19.4,5.6c-11,2.7-22.3,4.4-33.3,6c-6,0.9-12.2,1.8-18.2,2.8c-7.2,1.3-14.8,2.9-23.2,4.9
	c-14.3,3.4-28.8,7.6-42.7,11.6c-7.8,2.3-15.9,4.6-23.9,6.8c-8.9,2.4-17,4.3-25.2,3.3c-1.5-0.2-2.9-0.5-4.3-0.9
	c-7.5-2.2-13.1-7.1-15.2-13.2c-1.1-3.6-1.1-7.5,0-11.2c1.6-5.1,4.7-9.6,8.8-13c3.2-2.6,6.8-4.7,10.6-6.3c4.7-1.9,9.6-3.6,14.5-4.9
	l7.3-2.2l7-2l13.2-3.9l13.2-3.9l49.2-14.5c11.1-3.3,22.6-6.6,34-9.1c7.5-1.7,15.1-2.9,22.7-3.6h0.9c11.5-0.7,22.9-3.2,34.4-5.9
	c5.4-1.3,9.3-3,11.9-5.2c1.8-1.4,3.1-3.4,3.8-5.6c1.2-3.9-0.3-8.7-3.6-12.3c-2.6-2.7-6-4.7-11.2-6.5c-3-1-6.1-1.9-9.3-2.6l-0.2,0.8
	c3.1,0.7,6.2,1.5,9.2,2.5c5.1,1.8,8.4,3.7,10.9,6.3c3.1,3.3,4.5,7.8,3.4,11.5c-0.6,2.1-1.9,3.9-3.6,5.2c-2.6,2.2-6.3,3.8-11.6,5
	c-11.5,2.7-22.8,5.2-34.3,5.9h-0.9c-7.7,0.7-15.3,1.9-22.8,3.6c-11.5,2.5-22.9,5.8-34,9.1l-49.2,14.5l-13.2,3.9l-13.2,3.8l-7,2
	l-7.3,2.2c-5,1.4-9.9,3-14.6,5c-3.9,1.6-7.5,3.8-10.8,6.4c-4.3,3.5-7.4,8.2-9.1,13.4c-1.2,3.8-1.2,7.8,0,11.6
	c2.1,6.3,8,11.4,15.7,13.7c1.5,0.4,2.9,0.7,4.4,0.9c8.4,1.1,16.5-0.9,25.5-3.3c8-2.2,16.1-4.5,23.9-6.8c13.9-4,28.4-8.2,42.7-11.6
	c8.4-2,16-3.6,23.2-4.9c6-1,12.2-2,18.2-2.8c11-1.6,22.4-3.3,33.4-6c6.6-1.6,13.1-3.7,19.4-5.6c3.8-1.2,7.7-2.4,11.6-3.5
	c3.1-0.9,6.3-1.6,9.5-2C1206.4,409.7,1207.3,409.6,1208.2,409.6z"/>
<path class="st1" d="M1210.7,409.7l0.1-0.8c-0.9,0-1.7,0-2.6,0v0.8C1209,409.6,1209.8,409.6,1210.7,409.7z"/>
<path class="st1" d="M1220.6,421.7c1.6-1.8,2.5-4.5,1.5-6.9c-0.7-1.4-1.7-2.5-3-3.3c-2.5-1.6-5.3-2.5-8.3-2.7l-0.1,0.8
	c2.8,0.2,5.5,1,7.9,2.5c1.2,0.7,2.1,1.7,2.7,2.9c1.1,2.5-0.3,5.4-2.3,7c-2.1,1.7-4.8,2.5-7.5,3.2L1156,440l0.2,0.8l55.6-14.8
	c2.6-0.7,5.5-1.5,7.8-3.3C1220,422.4,1220.3,422.1,1220.6,421.7z"/>
<path class="st1" d="M1528.1,473.5l-66.7,31.8h-0.1c-18.9-3.9-47.7-9.6-49.6-9.3c-0.5,0.6-3.2,2.3-19.6,10c-9.7,4.5-19.4,8.9-19.5,9
	l-0.3,0.1l-46.8-47.4l-0.2-0.2l12.8-33.2l-12.6-29.6l-18.8-12.1l20.8-14.3l-15-41.3l-30.7-15.2l22.1-24.4l-9.5-23.8l-12.8-9.6
	l1.1-0.1l131.4,16l85.9,24.6l117.8,19.2l15.8,90.8v0.2l-64.1,87.9l-0.2,0.3L1528.1,473.5z M1616.9,324.4l-117.3-19.1l-85.9-24.6
	l-129.9-15.8l10.9,8.2l9.8,24.5l-21.7,24l30.1,14.9l15.3,42.1l-20.3,14l17.9,11.5l0.1,0.1l12.8,30.2l-12.7,33l46.3,46.7
	c14.9-6.7,37.2-17.1,38.6-18.5v-0.2l0.3-0.1l0,0c2.7-0.5,35.6,6.2,50,9.2l66.7-31.7l0.2-0.1l40.8,29.2l63.6-87.3L1616.9,324.4z
	 M1410.8,495.7L1410.8,495.7z"/>
<path class="st1" d="M986.3,329.9l-0.2-0.3l0,0l0,0l-0.3,0.3l-0.3-0.4l0.4-0.3c0.1-0.1,0.2-0.1,0.8-0.2l0.1,0.8
	C986.6,329.9,986.4,329.9,986.3,329.9z M986.3,329.4l-0.2,0.3L986.3,329.4z"/>
<path class="st1" d="M1062.8,328.3l-0.1-0.8h-0.7c-16.1,0.1-69.1,0.7-75.5,1.5l0.1,0.8c6.3-0.8,59.3-1.4,75.4-1.5H1062.8z"/>
<path class="st1" d="M1020,319.1l-33.2,10.7l-0.2-0.8l33-10.6l-3.4-27.7c-0.1-0.4,0.2-0.8,0.6-0.8c0.1,0,0.3,0,0.4,0.1l35.8,14.8
	l-31.7,13.9l41.6,9l-0.2,0.8L1020,319.1z M1020.3,318.1l30.6-13.4l-34-14L1020.3,318.1z"/>
<polygon class="st1" points="986.8,329.8 986.7,329.4 986.9,329.2 986.7,329.4 986.6,329.1 986.5,329.1 986.6,329.5 986.4,329.8 
	986.7,329.8 986.7,329.9 986.7,329.8 "/>
<path class="st1" d="M1212.3,280.6c-0.3,0.2-0.4,0.2-6.8-3.8c-5.4-3.4-15.4-9.6-16.8-9.5c-0.4,0.5-2.2,1-27.4-0.8
	c-11.5-0.8-23.1-1.8-25.8-2l7.6,24.7v0.2l-20.2,31.6l-0.1,0.2l-57.9,7l-2.3,0.3l-10.8-23.2l-0.2-0.3l-0.8-16.4l4.7-8.9L986.8,299
	l-0.3,30.1h0.1l0.2,0.8l-1.1,0.4v-0.5l0.3-31v-0.3l71.1-20.1l-5.4,10.4l0.8,16l10.7,22.9l59.2-7.1l19.9-31.1l-7.8-25.6l0.6,0
	c20.3,1.8,51.1,4.1,53.1,3.1c0.1-0.1,0.2-0.2,0.3-0.2c1.3-0.4,6.9,2.9,17.5,9.5c3,1.9,5.8,3.6,6.2,3.7v0.4h0.4v0.3L1212.3,280.6z"/>
<path class="st1" d="M1263.1,410.3l-54-1.5l18.5-20.4l-6.2-23.7l-14.3-9.3c4-2.5,29-18.1,34.8-20.6c0.9,0,1.2-0.1,1.3-0.3l0.1-0.2
	v-0.2c0-0.1-0.1-0.3-0.3-0.3c-0.2-0.1-0.5-0.1-1.3,0.2c-7,0.1-42.7-3.9-54.4-5.2l28.8-22.8v-0.2c-0.3-2.6-3.3-25.3-3.5-25.8
	l-0.8,0.2c0.1,0.5,2.3,16.8,3.4,25.5l-30.1,23.8h1.2h0.4c10.4,1.2,43.4,4.9,53.4,5.2c-8.3,4.2-32.8,19.5-33.9,20.2l-0.5,0.3l15,9.8
	l6,23l-0.1,0.1l-19.3,21.3h0.9h2.6l49.1,1.1l-40.6,11.3l0.2,0.8L1263.1,410.3z"/>
<path class="st1" d="M1227.4,388.5c-0.1,0.2-0.2,0.3-0.4,0.4c-4.4,2.4-70.9,11.1-75.1,11.6l-17.4,14.4l-0.2,0.2l-13-6.5l-0.2-0.1
	h-0.2l-47.4,12.3l-0.2,0.3l-0.1-0.1l-10.7,8.5l-11.3,4.3l0,0l-0.5,0.2l0,0l-20.9,5.3c-3.2,6.5-5.1,10.7-5.7,12.4
	c0.1,0.3,0.1,0.7,0,1c-0.1,0.1-0.2,0.2-0.4,0.3h-0.3l-0.2-0.2c-0.2-0.2-0.2-0.6,0-1.2c-0.8-2.3-4.7-7.9-5.7-9.3l-23.9,13.1
	l-15.6-25.1l-0.2-0.3l0.2-0.2c19.5-19.5,19.7-19.6,19.8-19.6c0.3-0.2,0.5-0.2,20,19.7l8.8-27.8c0.1-0.1,0.2-0.2,0.3-0.2
	c0.1,0,0.1,0.1,0.1,0.1l11.1,19.7l12.1,10.9c2-39.1,2.5-39.2,2.8-39.3s0.9-0.3,20,26.5l28.7-40.4c0.2-0.3,0.7-0.4,1-0.2
	c0.1,0.1,0.1,0.1,0.2,0.2l17.8,27.7l15-36.7c0.2-0.3,0.5-0.5,0.9-0.3c0.1,0.1,0.3,0.2,0.3,0.3l14.8,29.1l54.1-44.4l0.5,0.6
	l-53.4,43.8c9.9-1.3,69.6-9.2,73.5-11.4l0.1-0.1c-0.1,0.1-0.1,0.2-0.1,0.3l0.1-0.4l0,0c1.7-2,79.7,4.1,80.5,4.2l-0.1,0.8
	C1300.8,392.4,1231.3,387.2,1227.4,388.5z M1227.4,388.3L1227.4,388.3z M1121.6,407.8l12.6,6.3l17.1-14.1l-14.7-29L1121.6,407.8z
	 M1074.2,419.8l46.3-12l-17.9-27.9L1074.2,419.8z M1051.2,433l10.9-4.1l10.7-8.5c-6.8-9.6-16.9-23.4-19.1-25.9
	C1053,398.2,1051.8,418.7,1051.2,433L1051.2,433z M1030.2,438.4l19.7-5l-11.8-10.7C1037.2,424.5,1033.5,431.5,1030.2,438.4
	L1030.2,438.4z M1018.3,442.2c1.9,2.7,3.7,5.5,5.3,8.4c0.8-2,2.5-5.8,5.1-11.1L1018.3,442.2z M1018.4,430.9v0.2
	c-0.3,3.5-0.4,7-0.3,10.4l11.1-2.8c3.2-6.5,6.7-13.4,8-15.9C1029.8,425.6,1019.1,430.1,1018.4,430.9L1018.4,430.9z M1018.7,429.8
	c3.1-1.7,12.5-5.5,18.7-8l-10.4-19.3L1018.7,429.8z M998,411.2c-1.8,1.7-14.1,14-19.2,19.1l15.1,24.2l23.2-12.7l-0.1-0.1l0.3-0.1
	c0-2.1,0-9.1,0.3-10.8C1010.4,423.4,999.8,412.7,998,411.2L998,411.2z"/>
<polygon class="st1" points="1307.5,392.3 1243.6,334.4 1282.4,321.7 1215.7,305.6 1142.7,288.9 1142.6,288.9 1050.6,304.9 
	1050.7,305.7 1052.2,305.4 1142.7,289.7 1215.5,306.4 1280.7,321.8 1242.1,334.1 1307,392.9 "/>
<path class="st1" d="M1208.2,409.6v-0.8l-2.7,0.2l-71.3,5.2l-0.1,0.1c-1,1-26.8,12.2-43.9,19.5l-39.5-0.8l-27.3,19.2l0.4,0.7
	l0.1-0.1l27-18.9l39.4,0.8h0.1c4.3-1.8,41.2-17.7,44.1-19.6L1208.2,409.6z"/>
<path class="st1" d="M1284,435c-32.5,10.4-94.2,30.2-95.7,30.9c-1.1,0.8-15.7,11-15.8,11.1l-0.2,0.1l-23.7-8.9l-46.1,10.2
	l-10.1,11.1l-21-8.5l0.3,9.8l-20.6,7.5l-10.7-26.5c-0.2-0.4,0-0.9,0.5-1.1c0,0,0.1,0,0.1,0l21.3-5.9l8.8,15.1l45.8-30l0.1-0.1h0.1
	c8.9-1.9,17.9-4.3,26.6-6.6l3.7-1l8.6-2.3l0.2,0.8l-8.6,2.3l-3.7,1c-8.7,2.3-17.6,4.7-26.5,6.6l-45.6,29.8l20.3,8.2l9.9-10.9
	l46.4-10.3h0.1l23.5,8.9c1.7-1.2,14.6-10.3,15.7-11s86.2-27.9,95.9-31l54.6-0.2v0.8L1284,435z M1061.9,465.7l-20.8,5.7l10.4,25.8
	l19.4-7l-0.3-9.7L1061.9,465.7z"/>
<path class="st1" d="M1279.1,466.7l-55.3,10.5l-47.7,12l-1,0.3l0.1-0.2l-64.9,5.5l-0.1,0h-0.1h-0.2v-0.1l-17.8-5.4l0.2-0.8l17.1,5.2
	l-7.7-15.9l15-28l0.7,0.4l-14.8,27.6l7.7,15.9l37.8-26.4l7.1-26c0.2-0.7,0.9-1.1,1.6-0.9c0.2,0,0.3,0.1,0.5,0.2l30.9,24.4l0.3,0.2
	l-11.8,22.8l102.7-32.3l4-21.3l-21.6-24.5l45.2-18h0.5l18.5,75.2l0.1,0.5L1279.1,466.7z M1263.2,410.5l21,23.8l0.1,0.2l-4.2,22.2
	l-90.9,28.5l34.4-8.7l55.3-10.5l46.1,1.1l-18.2-74L1263.2,410.5z M1156.3,441l-7.3,27l-37.2,26l64-5.4l11.8-22.9L1156.3,441z"/>
<path class="st1" d="M1568.6,502.2l47.3-174.7l-43.8,85.6l-0.3,0.5l0,0l-43.6,59.9l-66.7-40.2l-135.7,34.4l-14.9,28.5l0.1,0.1
	l-0.3,0.2l-0.1,0.1h-0.1l-21.8,20.5l-0.3-0.3l-5.4-15.3c-54.2,9.6-62.5,10.8-63.9,11l-3.5,12v0.1l-0.2,0.2l-79.4-13.3l-5.1,2.1
	l-22.2-20.1l28.4,7.9l38.6-13l0.2-0.1l19.2,18.2l18.4-27.7l61.9,0.1l3.5-12.9l31.3,29.6l14.9-28.4l0.1-0.2l134.4-34.1l-134.2-28.2
	c-0.2,0-0.3-0.2-0.3-0.5c0-0.1,0.1-0.2,0.2-0.2l117.2-83.3l-129.1,15.8c-0.1,0-0.2,0-0.2-0.1c0-0.1,0-0.1,0.1-0.2l100.2-56.4
	l0.3-0.2l30.3,40.1l0.2,0.2l0.2,0.3l39.4,50.4l58-59.2l0.3,0.6l29.4,99.9l44.5-85.8c0.1-0.1,0.2-0.1,0.3-0.1
	c0.1,0.1,0.1,0.1,0.1,0.2l-47.3,176L1568.6,502.2z M1484.3,371.8l-22.3,60.9l66,39.7l43-59.2L1484.3,371.8z M1484.7,371.2l86.3,41.2
	l-28.8-99.8L1484.7,371.2z M1483.4,371.4l0.2-0.2l-39.5-50.5l-117.4,83.5l134.7,28.3l22.3-61L1483.4,371.4z M1289.1,516l20.2-19
	l-25.3,4.5L1289.1,516z M1276.2,479.4l7.5,21.3l25.9-4.6l-30.3-29L1276.2,479.4z M1314.5,336.1l128.8-16.2l-29.7-39.2L1314.5,336.1z
	 M1220.8,511.6c4.9-0.8,20.6-3.4,62.1-10.7l-7.3-20.8L1220.8,511.6z M1195.9,507.1c3.4,0.7,20.8,4.5,22.9,4.8l55.5-32l-60.3-0.1
	L1195.9,507.1z M1195.5,507.8l-0.1,0.2l-0.2-0.2H1152h-0.1c-5.3-2-13.4-5-14.6-5.3l0,0c-0.5,0.6-0.8,4.7-0.8,8.4l78.6,13.2l3.4-11.5
	C1215,512,1197.9,508.3,1195.5,507.8L1195.5,507.8z M1138.5,502c3.4,1.1,12.1,4.4,13.5,5h42.2l-18.5-17.6L1138.5,502z M1111.8,495.3
	l19.3,17.5l4.5-1.9c0-2,0.1-7.1,0.8-8.7L1111.8,495.3z"/>
<polygon class="st1" points="1461.7,504.8 1461.9,431.8 1411,495.4 1411.6,495.9 1411.6,495.9 1461.1,434.1 1460.9,504.8 "/>
<path class="st2" d="M1675.2,314.2c2.3-12.4,7.8-33.3,18.2-34s18.5,19.4,22.3,31.4c6.7,20.6,11.4,48.3,13.3,77.9s0.7,57.7-3.2,79
	c-2.3,12.4-7.8,33.3-18.2,33.9s-18.5-19.4-22.3-31.4c-6.7-20.6-11.4-48.3-13.3-77.9S1671.2,335.5,1675.2,314.2z M1715,311.7
	c-6.5-20.2-14.4-31.5-21.6-31s-13.6,12.7-17.4,33.5c-4,21.3-5.1,49.3-3.2,78.9s6.6,57.2,13.2,77.8c6.5,20.2,14.4,31.5,21.6,31
	s13.6-12.7,17.5-33.5c4-21.3,5.1-49.3,3.2-78.9S1721.6,332.3,1715,311.7z"/>
<line class="st3" x1="78.9" y1="676.7" x2="383.3" y2="676.7"/>
<line class="st3" x1="453.8" y1="676.7" x2="530.3" y2="676.7"/>
<line class="st3" x1="13.8" y1="722" x2="90.3" y2="722"/>
<line class="st3" x1="1489" y1="616.1" x2="1852" y2="616.1"/>
<line class="st3" x1="1526.4" y1="700.9" x2="1381.2" y2="700.9"/>
<line class="st3" x1="140.7" y1="616.1" x2="47" y2="616.1"/>
<line class="st3" x1="1862" y1="678.2" x2="1716.8" y2="678.2"/>
<line class="st3" x1="337.4" y1="789.9" x2="192.2" y2="789.9"/>
<line class="st3" x1="0" y1="186.9" x2="78.9" y2="186.9"/>
<line class="st3" x1="109.9" y1="186.9" x2="132.9" y2="186.9"/>
<line class="st3" x1="1853.3" y1="122.9" x2="1774.3" y2="122.9"/>
<line class="st3" x1="1624.3" y1="199.8" x2="1545.3" y2="199.8"/>
<line class="st3" x1="296.5" y1="122.9" x2="217.6" y2="122.9"/>
<line class="st3" x1="1761.3" y1="775.1" x2="1682.4" y2="775.1"/>
<line class="st3" x1="1743.3" y1="122.9" x2="1720.3" y2="122.9"/>
<line class="st3" x1="1831.8" y1="775.1" x2="1808.8" y2="775.1"/>
<line class="st3" x1="163.7" y1="722" x2="140.7" y2="722"/>
<line class="st3" x1="13.8" y1="64.5" x2="90.3" y2="64.5"/>
<line class="st3" x1="472.4" y1="64.5" x2="246.1" y2="64.5"/>
<line class="st3" x1="1494.9" y1="168.2" x2="1471.9" y2="168.2"/>
<line class="st3" x1="337.4" y1="168.2" x2="314.4" y2="168.2"/>
<line class="st3" x1="1350.5" y1="700.9" x2="1327.5" y2="700.9"/>
<line class="st3" x1="348.9" y1="616.1" x2="325.9" y2="616.1"/>
<line class="st3" x1="1526.4" y1="73.8" x2="1381.2" y2="73.8"/>
<line class="st3" x1="1862" y1="51.1" x2="1716.8" y2="51.1"/>
<line class="st3" x1="264.8" y1="2.3" x2="119.6" y2="2.3"/>
<line class="st3" x1="1350.5" y1="73.8" x2="1327.5" y2="73.8"/>
<circle class="st3" cx="1671.6" cy="122.9" r="6.8"/>
<circle class="st3" cx="163.7" cy="122.9" r="6.8"/>
<circle class="st3" cx="325.9" cy="730" r="6.8"/>
<circle class="st3" cx="1584.8" cy="700.9" r="6.8"/>
</svg>
