<svg id="Layer_1_copy" data-name="Layer 1 copy" xmlns="http://www.w3.org/2000/svg" viewBox="0 0 1189.83 764"><defs><style>.cls-1{fill:#f8ca10;}.cls-2{fill:#231f20;}.cls-3{fill:#fff;}</style></defs><rect class="cls-1" x="177.95" y="404.32" width="25.99" height="25.99"/><circle class="cls-1" cx="305.38" cy="211.62" r="24.9"/><circle class="cls-1" cx="348.03" cy="262.6" r="14.13"/><path class="cls-2" d="M753.7,686.91H307.57a19.46,19.46,0,0,1-19.44-19.44V404.82a19.46,19.46,0,0,1,19.44-19.44H753.7a19.46,19.46,0,0,1,19.44,19.44V667.47A19.46,19.46,0,0,1,753.7,686.91ZM307.57,388.38a16.46,16.46,0,0,0-16.44,16.44V667.47a16.46,16.46,0,0,0,16.44,16.44H753.7a16.46,16.46,0,0,0,16.44-16.44V404.82a16.46,16.46,0,0,0-16.44-16.44Z"/><rect class="cls-1" x="305.04" y="401.7" width="453.19" height="269.19" rx="8.39"/><path class="cls-2" d="M749.84,672.4H313.43a9.91,9.91,0,0,1-9.9-9.9V410.09a9.91,9.91,0,0,1,9.9-9.9H749.84a9.91,9.91,0,0,1,9.9,9.9V662.5A9.91,9.91,0,0,1,749.84,672.4ZM313.43,403.22a6.88,6.88,0,0,0-6.87,6.87V662.5a6.88,6.88,0,0,0,6.87,6.88H749.84a6.89,6.89,0,0,0,6.88-6.88V410.09a6.88,6.88,0,0,0-6.88-6.87Z"/><path class="cls-2" d="M454.64,534.29a2,2,0,0,1-.89-3.79l93.52-46.72a2,2,0,0,1,1.79,3.58l-93.53,46.72A2,2,0,0,1,454.64,534.29Z"/><path class="cls-2" d="M434.5,576.58a2,2,0,0,1-1.8-1.11,2,2,0,0,1,.9-2.68l170-84.9a2,2,0,1,1,1.78,3.58l-170,84.9A2,2,0,0,1,434.5,576.58Z"/><path class="cls-2" d="M488.15,588.72a2,2,0,0,1-.89-3.79l104.52-52.21a2,2,0,1,1,1.79,3.57L489.05,588.51A2.08,2.08,0,0,1,488.15,588.72Z"/><path class="cls-3" d="M854.48,407.65h-2.27a3.42,3.42,0,0,0-6.83,0h-2.27a5.69,5.69,0,1,1,11.37,0Z"/><path class="cls-3" d="M862.62,275.18h-2.28a3.41,3.41,0,0,0-6.82,0h-2.28a5.69,5.69,0,0,1,11.38,0Z"/><path class="cls-2" d="M499.6,659.77c8.34,0,8.35-13,0-13s-8.36,13,0,13Z"/><path class="cls-2" d="M525.73,659.77c8.35,0,8.36-13,0-13s-8.35,13,0,13Z"/><path class="cls-2" d="M551.87,659.77c8.35,0,8.36-13,0-13s-8.35,13,0,13Z"/><polygon class="cls-1" points="1017.92 720.14 1011.77 740.36 1075.78 740.36 1069.63 720.14 1017.92 720.14"/><path class="cls-2" d="M1077.8,741.86h-68.06l7.07-23.22h53.93Zm-64-3h60l-5.25-17.22H1019Z"/><polygon class="cls-1" points="1024.08 699.92 1063.47 699.92 1057.32 679.71 1030.23 679.71 1024.08 699.92"/><path class="cls-2" d="M1065.49,701.42h-43.44l7.07-23.21h29.31Zm-39.39-3h35.35l-5.25-17.21h-24.86Z"/><path class="cls-2" d="M1077.8,741.86h-68.06L1035.28,658h17Zm-64-3h60L1050.05,661H1037.5Z"/><rect class="cls-2" x="1006.48" y="740.36" width="74.59" height="9.24"/><polygon class="cls-1" points="804.72 720.14 798.56 740.36 862.57 740.36 856.42 720.14 804.72 720.14"/><path class="cls-2" d="M864.6,741.86H796.54l7.06-23.22h53.93Zm-64-3h60l-5.24-17.22H805.83Z"/><polygon class="cls-1" points="810.87 699.92 850.26 699.92 844.11 679.71 817.03 679.71 810.87 699.92"/><path class="cls-2" d="M852.29,701.42H808.85l7.07-23.21h29.3Zm-39.39-3h35.34L843,681.21H818.14Z"/><path class="cls-2" d="M864.6,741.86H796.54L822.07,658h17Zm-64-3h60L836.84,661H824.29Z"/><rect class="cls-2" x="793.27" y="740.36" width="74.59" height="9.24"/><path class="cls-1" d="M134.26,750.72h14.2v-55h72.91v55h14.21v-55h15V651.81h-12v-4.06h-20.7v4.06H153.33v-4.06h-20.7v4.06H119.46v43.91h14.8ZM246,656.4v.18l-8.75,34.56H221.65l8.8-34.74Zm-40.74,34.74H189.66l8.8-34.74h15.63Zm-32,0H157.67l8.8-34.74h15.62ZM134.48,656.4H150.1l-8.8,34.74H125.68Z"/><path class="cls-2" d="M237.33,752.47H219.62v-55H150.21v55h-17.7v-55h-14.8V650.06h13.17V646h24.2v4.06h61.09V646h24.2v4.06h12v47.41h-15ZM223.12,749h10.71V694h15V653.56h-12V649.5h-17.2v4.06H151.58V649.5h-17.2v4.06H121.21V694H136v55h10.7V694h76.41Zm15.52-56.08H219.4l9.69-38.24h18.69v2.15Zm-14.74-3.5h12l7.91-31.24h-12Zm-17.25,3.5H187.41l9.69-38.24h19.24Zm-14.74-3.5h12l7.92-31.24h-12Zm-17.25,3.5H155.42l9.69-38.24h19.23Zm-14.74-3.5h12l7.92-31.24h-12Zm-17.26,3.5H123.43l9.69-38.24h19.23Zm-14.73-3.5h12l7.91-31.24h-12Z"/><path class="cls-2" d="M308.63,251.49h-6a3.71,3.71,0,0,1-3.71-3.7v-5.26a1.64,1.64,0,0,0-1-1.39l-.15,0-7.49-3.1a1.66,1.66,0,0,0-1.71.24l-3.72,3.71a3.64,3.64,0,0,1-2.61,1.09h0a3.66,3.66,0,0,1-2.63-1.1l-4.26-4.25a3.69,3.69,0,0,1,0-5.24l3.71-3.7a1.63,1.63,0,0,0,.24-1.72l-.07-.15-3.07-7.48a1.65,1.65,0,0,0-1.39-1h-5.26a3.7,3.7,0,0,1-3.7-3.7v-6a3.7,3.7,0,0,1,3.7-3.7h5.26a1.65,1.65,0,0,0,1.39-1l0-.15,3.09-7.47a1.65,1.65,0,0,0-.25-1.73l-3.7-3.7a3.75,3.75,0,0,1-1.09-2.64,3.7,3.7,0,0,1,1.1-2.61l4.26-4.25a3.65,3.65,0,0,1,2.62-1.09h0a3.68,3.68,0,0,1,2.62,1.09l3.7,3.69a1.64,1.64,0,0,0,1.72.26l.15-.07,7.48-3.08a1.65,1.65,0,0,0,1-1.4v-5.24a3.71,3.71,0,0,1,3.71-3.71h6a3.72,3.72,0,0,1,3.71,3.71v5.24a1.63,1.63,0,0,0,1,1.4l.14,0,7.49,3.1a1.66,1.66,0,0,0,1.72-.26l3.71-3.7a3.64,3.64,0,0,1,2.61-1.08h0a3.68,3.68,0,0,1,2.62,1.08l4.26,4.27a3.71,3.71,0,0,1,0,5.24l-3.71,3.7a1.67,1.67,0,0,0-.23,1.72l.07.15,3.07,7.48a1.66,1.66,0,0,0,1.4,1h5.24a3.71,3.71,0,0,1,3.71,3.7v6a3.71,3.71,0,0,1-3.71,3.7h-5.24a1.68,1.68,0,0,0-1.4,1l-.05.16L332,227a1.68,1.68,0,0,0,.25,1.72l3.7,3.7a3.71,3.71,0,0,1,0,5.25l-4.25,4.25a3.68,3.68,0,0,1-2.62,1.09h0a3.62,3.62,0,0,1-2.62-1.1l-3.7-3.69A1.64,1.64,0,0,0,321,238l-.16.08-7.49,3.07a1.64,1.64,0,0,0-1,1.39v5.26A3.71,3.71,0,0,1,308.63,251.49Zm-9.85-13.21a4.66,4.66,0,0,1,3.12,4.25v5.26a.71.71,0,0,0,.71.7h6a.72.72,0,0,0,.71-.7v-5.26a4.66,4.66,0,0,1,3.11-4.25l7.2-3a4.67,4.67,0,0,1,5.2.79l3.71,3.71a.71.71,0,0,0,.49.21h0a.71.71,0,0,0,.49-.21h0l4.25-4.26a.7.7,0,0,0,0-1l-3.7-3.7a4.62,4.62,0,0,1-.8-5.2l3-7.2a4.64,4.64,0,0,1,4.25-3.12h5.24a.71.71,0,0,0,.71-.7v-6a.7.7,0,0,0-.71-.7h-5.24a4.66,4.66,0,0,1-4.25-3.12l-3-7.2a4.63,4.63,0,0,1,.79-5.2l3.71-3.7a.7.7,0,0,0,.21-.51.65.65,0,0,0-.2-.48l-4.26-4.28a.69.69,0,0,0-.5-.2h0a.67.67,0,0,0-.49.2l-3.71,3.71a4.69,4.69,0,0,1-5.19.81l-7.22-3a4.61,4.61,0,0,1-3.1-4.25v-5.24a.72.72,0,0,0-.71-.71h-6a.71.71,0,0,0-.71.71v5.24a4.61,4.61,0,0,1-3.11,4.25l-7.22,3a4.65,4.65,0,0,1-5.19-.82l-3.71-3.69a.69.69,0,0,0-1,0l-4.28,4.27a.75.75,0,0,0-.21.49.75.75,0,0,0,.21.51l3.71,3.7a4.6,4.6,0,0,1,.8,5.2l-3,7.2a4.67,4.67,0,0,1-4.24,3.12h-5.26a.7.7,0,0,0-.7.7v6a.71.71,0,0,0,.7.7h5.26a4.65,4.65,0,0,1,4.24,3.12l3,7.2a4.6,4.6,0,0,1-.8,5.19l-3.71,3.71a.7.7,0,0,0,0,1l4.27,4.26a.73.73,0,0,0,.5.21h0a.7.7,0,0,0,.48-.2l3.73-3.72a4.64,4.64,0,0,1,5.19-.79Zm6.84-7.55a19.11,19.11,0,1,1,19.1-19.11A19.13,19.13,0,0,1,305.62,230.73Zm0-35.21a16.11,16.11,0,1,0,16.1,16.1A16.12,16.12,0,0,0,305.62,195.52Z"/><path class="cls-2" d="M352.72,287.47a2.89,2.89,0,0,1-1.33-.34,2.84,2.84,0,0,1-1.41-1.7l-.94-3.11a.48.48,0,0,0-.33-.24h-.15l-5-.52a.54.54,0,0,0-.36.16l-1.55,2.88a2.86,2.86,0,0,1-3.88,1.17L334.46,284a2.91,2.91,0,0,1-1.19-3.88l1.54-2.87a.52.52,0,0,0-.06-.4l-.1-.11-3.22-3.93a.52.52,0,0,0-.37-.14l-3.1.93a2.86,2.86,0,0,1-3.58-1.92l-1.08-3.56a2.86,2.86,0,0,1,1.92-3.58l3.1-.94a.47.47,0,0,0,.24-.33v-.15l.51-5a.5.5,0,0,0-.16-.35L326,256.19a2.89,2.89,0,0,1-1.18-3.87l1.78-3.3a2.86,2.86,0,0,1,3.88-1.17l2.86,1.53a.53.53,0,0,0,.39,0l.12-.11,3.93-3.23a.5.5,0,0,0,.15-.37l-1-3.1a2.86,2.86,0,0,1,1.91-3.58l3.59-1.08a2.81,2.81,0,0,1,2.16.21,2.84,2.84,0,0,1,1.4,1.71l.95,3.1a.49.49,0,0,0,.31.24h.16l5.05.52a.6.6,0,0,0,.36-.17l1.54-2.86a2.86,2.86,0,0,1,3.89-1.17l3.28,1.76a2.88,2.88,0,0,1,1.17,3.88L361.25,248a.56.56,0,0,0,.06.4l.1.1,3.23,3.94a.48.48,0,0,0,.37.13l3.1-.94a2.89,2.89,0,0,1,3.58,1.91l1.07,3.58a2.86,2.86,0,0,1-1.9,3.57l-3.12.94a.58.58,0,0,0-.23.32v.16l-.53,5.08a.52.52,0,0,0,.18.33L370,269a2.89,2.89,0,0,1,1.17,3.89l-1.76,3.28a2.87,2.87,0,0,1-3.9,1.16l-2.85-1.53a.59.59,0,0,0-.39.06l-.12.11-3.94,3.23a.48.48,0,0,0-.12.35l.95,3.12a2.89,2.89,0,0,1-1.93,3.57l-3.57,1.08A3,3,0,0,1,352.72,287.47Zm0-3h0Zm-3.88-5.39a3.46,3.46,0,0,1,3.12,2.38l.89,3,3.33-1-.9-3a3.42,3.42,0,0,1,1.28-3.7l3.7-3a3.43,3.43,0,0,1,3.87-.53l2.76,1.48,1.65-3.09-2.77-1.45a3.43,3.43,0,0,1-1.7-3.51l.48-4.77a3.45,3.45,0,0,1,2.37-3.12l3-.89-1-3.33-3,.9a3.43,3.43,0,0,1-3.71-1.3l-3-3.68a3.45,3.45,0,0,1-.52-3.88l1.47-2.75L357,242.14l-1.45,2.76a3.46,3.46,0,0,1-3.52,1.71l-4.76-.48a3.44,3.44,0,0,1-3.12-2.38l-.9-3-3.32,1,.91,3a3.44,3.44,0,0,1-1.31,3.7l-3.68,3A3.43,3.43,0,0,1,332,252l-2.75-1.47-1.64,3.05,2.75,1.49a3.42,3.42,0,0,1,1.71,3.51l-.48,4.76a3.43,3.43,0,0,1-2.39,3.12l-3,.9,1,3.35,3-.94a3.46,3.46,0,0,1,3.68,1.29l3.05,3.7a3.47,3.47,0,0,1,.53,3.88L336,281.42l3.06,1.64,1.48-2.75A3.4,3.4,0,0,1,344,278.6Zm7.46,4.31Zm10.52-8.61h0Zm.18-.07h0Zm1.59-3.23Zm-41.3-.65Zm-1.16-3.4Zm.08-.18Zm1.29-13.71h0Zm1.64-3Zm.19-.06Zm27.62-8.34Zm-13.52-1.35Zm-.18-.09ZM348,275a12.41,12.41,0,1,1,11-6.56h0a12.27,12.27,0,0,1-7.35,6A12.44,12.44,0,0,1,348,275Zm0-21.83a9.44,9.44,0,0,0-8.31,5,9.41,9.41,0,0,0,16.59,8.88h0a9.42,9.42,0,0,0-8.28-13.86Z"/><circle class="cls-1" cx="1071.5" cy="594.56" r="11.7"/><path class="cls-2" d="M1075.38,614.89a2.16,2.16,0,0,1-2-1.51l-.77-2.58a.66.66,0,0,0-.51-.37h-.1l-4-.41a.67.67,0,0,0-.65.23l-1.28,2.39a2.14,2.14,0,0,1-2.89.87l-2.71-1.45a2.15,2.15,0,0,1-.88-2.89l1.27-2.37a.66.66,0,0,0-.09-.62l-.07-.07-2.65-3.23a.64.64,0,0,0-.57-.22l-2.58.78a2.1,2.1,0,0,1-1.63-.17,2.08,2.08,0,0,1-1-1.26l-.89-3a2.13,2.13,0,0,1,1.43-2.66l2.56-.78a.62.62,0,0,0,.37-.5l.43-4.26a.59.59,0,0,0-.26-.54l-2.38-1.29a2.14,2.14,0,0,1-.87-2.87l1.47-2.74a2.12,2.12,0,0,1,2.88-.87l2.37,1.27a.65.65,0,0,0,.6-.07l.08-.08,3.24-2.66a.61.61,0,0,0,.22-.58l-.78-2.56a2.13,2.13,0,0,1,1.42-2.67l3-.89a2.14,2.14,0,0,1,1.62.16,2.17,2.17,0,0,1,1,1.26l.78,2.57a.61.61,0,0,0,.49.37h0l4.21.43a.62.62,0,0,0,.56-.26l1.27-2.37a2.13,2.13,0,0,1,1.29-1,2.1,2.1,0,0,1,1.61.17l2.72,1.45a2.15,2.15,0,0,1,.86,2.89l-1.27,2.37a.66.66,0,0,0,.09.62l2.72,3.31a.64.64,0,0,0,.58.21l2.57-.78a2.14,2.14,0,0,1,2.66,1.42l.89,3a2.14,2.14,0,0,1-1.41,2.66l-2.58.78a.61.61,0,0,0-.36.49v0l-.44,4.23a.61.61,0,0,0,.27.54l2.36,1.28a2.08,2.08,0,0,1,1,1.28,2.06,2.06,0,0,1-.16,1.61l-1.46,2.71a2.12,2.12,0,0,1-2.9.87l-2.36-1.27a.67.67,0,0,0-.61.09l-.08.08-3.24,2.65a.64.64,0,0,0-.2.57l.78,2.58a2.14,2.14,0,0,1-1.43,2.65l-3,.9A2.16,2.16,0,0,1,1075.38,614.89Zm-3.26-6.45a2.58,2.58,0,0,1,2.36,1.79l.78,2.56a.1.1,0,0,0,.07.08l3.05-.88a.15.15,0,0,0,.1-.17l-.78-2.56a2.6,2.6,0,0,1,1-2.8l3.07-2.53a2.63,2.63,0,0,1,2.93-.41l2.48,1.29,1.54-2.79c0-.12,0-.16-.06-.18l-2.38-1.28a2.59,2.59,0,0,1-1.28-2.66l.41-4a2.63,2.63,0,0,1,1.78-2.36l2.58-.77a.14.14,0,0,0,.08-.17h0l-.89-3a.14.14,0,0,0-.17-.09l-2.57.78a2.57,2.57,0,0,1-2.8-1l-2.56-3.1a2.56,2.56,0,0,1-.37-2.9l1.27-2.37a.15.15,0,0,0-.06-.19l-2.71-1.45c-.11,0-.16,0-.18.06l-1.28,2.37a2.6,2.6,0,0,1-2.67,1.28l-4-.4a2.56,2.56,0,0,1-2.36-1.8l-.84-2.63h-.1l-3,.89a.13.13,0,0,0-.09.17l.78,2.56a2.59,2.59,0,0,1-1,2.8l-3.07,2.53a2.61,2.61,0,0,1-2.93.41l-2.38-1.27h0l-.17,0-1.47,2.72a.17.17,0,0,0,0,.18l2.38,1.28a2.57,2.57,0,0,1,1.29,2.66l-.4,4a2.57,2.57,0,0,1-1.8,2.33l-2.64.84.89,3c.08.09.11.11.16.09l2.58-.77a2.59,2.59,0,0,1,2.79,1l2.53,3.07a2.63,2.63,0,0,1,.41,2.94l-1.28,2.37a.15.15,0,0,0,.07.19l2.71,1.45a.14.14,0,0,0,.18-.06l1.28-2.37a2.57,2.57,0,0,1,2.71-1.28Zm-.63-3.85a10,10,0,1,1,4.75-18.88,10.05,10.05,0,0,1,4.1,13.58h0a10,10,0,0,1-8.85,5.3Zm0-18.07a7.79,7.79,0,0,0-2.33.35,8,8,0,1,0,9.4,11.47h0a8,8,0,0,0-7.07-11.82Z"/><path class="cls-1" d="M779.15,257.59a25.31,25.31,0,0,0-21.82,38.11l.41.7L732.12,322a4.49,4.49,0,0,0-1.26,2.91,5.57,5.57,0,0,0,1.93,3.89,6.1,6.1,0,0,0,4.29,2.07,5.14,5.14,0,0,0,3-1l25.56-25.57.7.42a25.31,25.31,0,1,0,12.8-47.13Zm0,43.09a17.79,17.79,0,0,1,0-35.58h0a17.79,17.79,0,1,1,0,35.58Z"/><path class="cls-1" d="M772.12,286.59h13.64a2.34,2.34,0,0,0,2.34-2.34h0a2.35,2.35,0,0,0-2.34-2.35H772.12a2.35,2.35,0,0,0-2.34,2.35h0A2.34,2.34,0,0,0,772.12,286.59Z"/><path class="cls-2" d="M734.08,331.89a7.06,7.06,0,0,1-5-2.36,6.53,6.53,0,0,1-2.23-4.61,5.42,5.42,0,0,1,1.54-3.59l25.09-25.09,0,0a26.3,26.3,0,1,1,9.38,9.37l0,0-25.18,25.16A6.25,6.25,0,0,1,734.08,331.89Zm42.07-73.3a24.3,24.3,0,0,0-21,36.6l.81,1.37-26.17,26.17a3.43,3.43,0,0,0-1,2.21,4.59,4.59,0,0,0,1.64,3.17,5.15,5.15,0,0,0,3.58,1.78,4.23,4.23,0,0,0,2.36-.78l26-26.06,1.37.81a24.31,24.31,0,1,0,12.29-45.27Zm0,43.09A18.79,18.79,0,1,1,795,282.89,18.81,18.81,0,0,1,776.16,301.68Zm0-35.58A16.79,16.79,0,1,0,793,282.89,16.81,16.81,0,0,0,776.16,266.1Z"/><path class="cls-2" d="M782.76,287.59H769.12a3.35,3.35,0,0,1,0-6.69h13.64a3.35,3.35,0,0,1,0,6.69Zm-13.64-4.69a1.35,1.35,0,0,0,0,2.69h13.64a1.35,1.35,0,0,0,0-2.69Z"/><circle class="cls-1" cx="543.3" cy="227.84" r="43.59" transform="translate(-1.98 450.9) rotate(-45)"/><path class="cls-2" d="M543.3,272.93a45.09,45.09,0,1,1,45.08-45.09A45.14,45.14,0,0,1,543.3,272.93Zm0-87.17a42.09,42.09,0,1,0,42.08,42.08A42.13,42.13,0,0,0,543.3,185.76Z"/><circle class="cls-3" cx="543.93" cy="227.84" r="32.65"/><path class="cls-2" d="M543.93,261.76a33.92,33.92,0,1,1,33.91-33.92A34,34,0,0,1,543.93,261.76Zm0-65.3a31.39,31.39,0,1,0,31.39,31.38A31.42,31.42,0,0,0,543.93,196.46Z"/><path class="cls-2" d="M543.93,230.72a1.3,1.3,0,0,1-1.27-1.32V212a1.27,1.27,0,1,1,2.53,0V229.4A1.29,1.29,0,0,1,543.93,230.72Z"/><path class="cls-2" d="M561.94,230.72h-18.1a1.33,1.33,0,0,1,0-2.64h18.1a1.33,1.33,0,0,1,0,2.64Z"/><path class="cls-2" d="M545.16,200.11a1.24,1.24,0,1,1-1.23-1.23A1.23,1.23,0,0,1,545.16,200.11Z"/><path class="cls-2" d="M543.93,202.35a2.24,2.24,0,1,1,2.23-2.24A2.24,2.24,0,0,1,543.93,202.35Zm0-2.47a.23.23,0,0,0-.24.23c0,.26.47.26.47,0A.23.23,0,0,0,543.93,199.88Z"/><circle class="cls-2" cx="563.54" cy="208.24" r="1.23"/><path class="cls-2" d="M563.54,210.47a2.23,2.23,0,1,1,2.23-2.23,2.25,2.25,0,0,1-.65,1.58h0A2.26,2.26,0,0,1,563.54,210.47Zm0-2.47a.22.22,0,0,0-.17.07.23.23,0,0,0,.33.33.22.22,0,0,0,.07-.16.22.22,0,0,0-.07-.17A.2.2,0,0,0,563.54,208Z"/><path class="cls-2" d="M571.66,229.08a1.24,1.24,0,1,1,1.23-1.24A1.24,1.24,0,0,1,571.66,229.08Z"/><path class="cls-2" d="M571.66,230.08a2.24,2.24,0,1,1,2.23-2.24A2.24,2.24,0,0,1,571.66,230.08Zm0-2.47a.23.23,0,0,0-.24.23c0,.26.47.26.47,0A.23.23,0,0,0,571.66,227.61Z"/><circle class="cls-2" cx="563.54" cy="247.45" r="1.23"/><path class="cls-2" d="M563.54,249.69A2.19,2.19,0,0,1,562,249h0a2.23,2.23,0,1,1,3.81-1.58,2.24,2.24,0,0,1-2.23,2.24Zm-.17-2.07a.24.24,0,0,0,.33,0,.22.22,0,0,0,.07-.17.21.21,0,0,0-.07-.16.23.23,0,0,0-.33.33Z"/><path class="cls-2" d="M542.69,255.57a1.24,1.24,0,1,1,1.24,1.24A1.24,1.24,0,0,1,542.69,255.57Z"/><path class="cls-2" d="M543.93,257.81a2.24,2.24,0,1,1,2.23-2.24A2.24,2.24,0,0,1,543.93,257.81Zm0-2.47a.24.24,0,0,0-.24.23c0,.26.47.26.47,0A.23.23,0,0,0,543.93,255.34Z"/><path class="cls-2" d="M523.45,246.58a1.23,1.23,0,1,1,0,1.75A1.23,1.23,0,0,1,523.45,246.58Z"/><path class="cls-2" d="M524.32,249.69a2.24,2.24,0,0,1-2.23-2.24,2.25,2.25,0,0,1,.65-1.58h0a2.3,2.3,0,0,1,3.16,0,2.24,2.24,0,0,1-1.58,3.82Zm0-2.47a.22.22,0,0,0-.17.07h0a.23.23,0,0,0-.06.16.25.25,0,0,0,.06.17.21.21,0,0,0,.33,0,.22.22,0,0,0,.07-.17.24.24,0,0,0-.23-.23Z"/><circle class="cls-2" cx="516.2" cy="227.84" r="1.23"/><path class="cls-2" d="M516.2,230.08a2.24,2.24,0,1,1,2.23-2.24A2.24,2.24,0,0,1,516.2,230.08Zm0-2.47a.23.23,0,0,0-.24.23c0,.26.47.26.47,0A.23.23,0,0,0,516.2,227.61Z"/><path class="cls-2" d="M525.19,207.36a1.23,1.23,0,0,1-1.74,1.75,1.23,1.23,0,0,1,1.74-1.75Z"/><path class="cls-2" d="M524.32,210.47a2.22,2.22,0,0,1-1.58-.65,2.25,2.25,0,0,1-.65-1.58,2.22,2.22,0,0,1,.65-1.58,2.28,2.28,0,0,1,3.16,0,2.22,2.22,0,0,1,.65,1.58,2.25,2.25,0,0,1-.65,1.58A2.22,2.22,0,0,1,524.32,210.47Zm0-2.47a.22.22,0,0,0-.17.07.25.25,0,0,0-.06.17.25.25,0,0,0,.06.16.2.2,0,0,0,.33,0,.22.22,0,0,0,.07-.16.22.22,0,0,0-.07-.17h0A.21.21,0,0,0,524.32,208Z"/><rect x="668.16" y="126.33" width="3.41" height="206.73"/><path d="M683.78,333.06a13.91,13.91,0,1,1-13.91-13.91A13.91,13.91,0,0,1,683.78,333.06Z"/><path d="M670.06,379.73a12.34,12.34,0,0,1-8.08-3.35c-2.21-2.21-3.34-5.28-3.34-9.12a1.85,1.85,0,0,1,3.69,0c0,2.83.75,5,2.25,6.51a8.73,8.73,0,0,0,5.48,2.28,9.42,9.42,0,1,0,0-18.83,1.84,1.84,0,0,1-1.84-1.84V345.16a1.84,1.84,0,1,1,3.68,0v8.51a13.1,13.1,0,0,1-1.84,26.06Z"/><path d="M595.86,390.52a1.73,1.73,0,0,1-1.39-1.53,1.89,1.89,0,0,1,1.48-2.12l76.38-13a1.69,1.69,0,0,1,1.94,1.53,1.91,1.91,0,0,1-1.48,2.13l-76.38,13A1.45,1.45,0,0,1,595.86,390.52Z"/><path d="M742.78,417.26a1.37,1.37,0,0,1-.51-.19l-70.51-39.59a2,2,0,0,1-.7-2.59,1.72,1.72,0,0,1,2.38-.86L744,413.62a2,2,0,0,1,.7,2.59A1.79,1.79,0,0,1,742.78,417.26Z"/><path class="cls-3" d="M573.51,386.88a16.08,16.08,0,0,0-15.82,13.32L539.46,505.08a16.08,16.08,0,0,0,13.08,18.58l183.11,31.81a16.08,16.08,0,0,0,18.58-13.07l18.22-104.89a16.06,16.06,0,0,0-13.07-18.57L576.26,387.12A16.05,16.05,0,0,0,573.51,386.88Z"/><path d="M738.44,557.22a17.35,17.35,0,0,1-3-.27L552.28,525.13A17.55,17.55,0,0,1,538,504.82l18.22-104.88a17.53,17.53,0,0,1,17.3-14.56,17.91,17.91,0,0,1,3,.26l183.12,31.82a17.55,17.55,0,0,1,14.29,20.31L755.71,542.65a17.6,17.6,0,0,1-17.27,14.57ZM573.51,388.38a14.53,14.53,0,0,0-14.34,12.07L540.94,505.34a14.57,14.57,0,0,0,11.86,16.84L735.91,554a14.58,14.58,0,0,0,16.84-11.85L771,437.26a14.55,14.55,0,0,0-11.86-16.84L576,388.6A14.08,14.08,0,0,0,573.51,388.38Z"/><path class="cls-1" d="M734.52,546.41,556.67,515.5a11.34,11.34,0,0,1-9.24-13.12l16.85-97a11.34,11.34,0,0,1,13.12-9.23l177.85,30.9a11.34,11.34,0,0,1,9.23,13.12l-16.84,97A11.36,11.36,0,0,1,734.52,546.41Z"/><path class="cls-2" d="M736.47,548.08a12.79,12.79,0,0,1-2.21-.2L556.41,517A12.84,12.84,0,0,1,546,502.13l16.84-97a12.86,12.86,0,0,1,14.86-10.45l177.85,30.9A12.86,12.86,0,0,1,766,440.47l-16.85,97A12.86,12.86,0,0,1,736.47,548.08Zm-161-150.56a9.86,9.86,0,0,0-9.69,8.16l-16.85,97a9.86,9.86,0,0,0,8,11.39l177.84,30.9a9.86,9.86,0,0,0,11.39-8L763,440a9.85,9.85,0,0,0-8-11.38L577.14,397.66A10.7,10.7,0,0,0,575.45,397.52Z"/><path class="cls-3" d="M650.15,531.75l38.68-35.45a7.3,7.3,0,0,1,11.55,2.29l21.26,45.58Z"/><path class="cls-2" d="M724.21,546.14,646.89,532.7l40.92-37.51A8.8,8.8,0,0,1,701.73,498Zm-70.8-15.35,65.65,11.41-20-43a5.81,5.81,0,0,0-9.18-1.83Z"/><path class="cls-3" d="M559.15,515.93l74.25-68A7.3,7.3,0,0,1,645,450.18L685.89,538Z"/><path class="cls-2" d="M688.47,539.93l-132.58-23,76.5-70.11a8.8,8.8,0,0,1,13.92,2.77ZM562.41,515l120.91,21-39.73-85.17a5.81,5.81,0,0,0-9.18-1.83Z"/><path class="cls-3" d="M737.75,455.34a11.41,11.41,0,1,1-9.29-13.2A11.4,11.4,0,0,1,737.75,455.34Z"/><path d="M726.54,467.87a15.11,15.11,0,0,1-2.51-.22,14.48,14.48,0,1,1,16.74-11.79,14.5,14.5,0,0,1-14.23,12Zm0-26a11.6,11.6,0,1,0,2,.18A11.24,11.24,0,0,0,726.49,441.9Z"/><rect class="cls-1" x="639.93" y="104.5" width="171.01" height="18.82"/><path class="cls-2" d="M320.23,330.28a5.71,5.71,0,1,1,5.54-5.71A5.46,5.46,0,0,1,320.23,330.28Zm0-9.42a3.71,3.71,0,1,0,3.54,3.71A3.45,3.45,0,0,0,320.23,320.86Z"/><path class="cls-2" d="M500.34,342.27a5.71,5.71,0,1,1,5.55-5.71A5.45,5.45,0,0,1,500.34,342.27Zm0-9.41a3.44,3.44,0,0,0-3.54,3.71,4,4,0,0,0,.89,2.58,3.3,3.3,0,0,0,2.65,1.12,3.71,3.71,0,0,0,0-7.41Z"/><path class="cls-2" d="M835.11,197.27a5.71,5.71,0,1,1,5.55-5.71A5.45,5.45,0,0,1,835.11,197.27Zm0-9.41a3.71,3.71,0,1,0,3.55,3.7A3.44,3.44,0,0,0,835.11,187.86Z"/><path class="cls-2" d="M1076.05,522.13a5.71,5.71,0,1,1,5.54-5.71A5.45,5.45,0,0,1,1076.05,522.13Zm0-9.41a3.45,3.45,0,0,0-3.55,3.71,4.05,4.05,0,0,0,.89,2.58,3.36,3.36,0,0,0,2.66,1.12,3.45,3.45,0,0,0,3.54-3.71,4,4,0,0,0-.89-2.58A3.3,3.3,0,0,0,1076.05,512.72Z"/><path class="cls-2" d="M851.24,566.32a5.71,5.71,0,1,1,5.55-5.71A5.45,5.45,0,0,1,851.24,566.32Zm0-9.42a3.45,3.45,0,0,0-3.54,3.71,4,4,0,0,0,.89,2.59,3.33,3.33,0,0,0,2.65,1.12,3.45,3.45,0,0,0,3.55-3.71,4,4,0,0,0-.9-2.58A3.3,3.3,0,0,0,851.24,556.9Z"/><path class="cls-2" d="M223.37,561.42a5.71,5.71,0,1,1,5.54-5.71A5.45,5.45,0,0,1,223.37,561.42Zm0-9.41a3.45,3.45,0,0,0-3.55,3.71,4,4,0,0,0,.89,2.58,3.36,3.36,0,0,0,2.66,1.12,3.45,3.45,0,0,0,3.54-3.71,4,4,0,0,0-.89-2.58A3.3,3.3,0,0,0,223.37,552Z"/><rect class="cls-2" x="590.72" y="215.7" width="56.04" height="2"/><rect class="cls-2" x="592.46" y="225.78" width="69.38" height="2"/><rect class="cls-2" x="593.59" y="236.83" width="44.54" height="2"/><rect class="cls-2" x="522.92" y="335.57" width="44.54" height="2"/><rect class="cls-2" x="572.89" y="335.57" width="15.23" height="2"/><rect class="cls-2" x="146.5" y="406.71" width="23.33" height="2"/><rect class="cls-2" x="146.5" y="418.05" width="23.33" height="2"/><rect class="cls-2" x="116.17" y="412.38" width="53.67" height="2"/><rect class="cls-2" x="802.45" y="193.86" width="23.33" height="2"/><rect class="cls-2" x="814.28" y="560.71" width="23.33" height="2"/><rect class="cls-2" x="768.12" y="188.19" width="53.67" height="2"/><rect class="cls-2" x="337.22" y="323.57" width="53.67" height="2"/><rect class="cls-2" x="348.67" y="328.28" width="53.67" height="2"/><rect class="cls-2" x="989.27" y="534.6" width="53.67" height="2"/><rect class="cls-2" x="1000.71" y="539.31" width="53.67" height="2"/><rect class="cls-2" x="146.64" y="552.36" width="53.67" height="2"/><rect class="cls-2" x="158.09" y="557.07" width="53.67" height="2"/><path class="cls-2" d="M200.83,426.93H173.72V399.82h27.11Zm-25.11-2h23.11V401.82H175.72Z"/><rect class="cls-1" x="685.53" y="706.87" width="25.99" height="25.99" transform="translate(1397.05 1439.73) rotate(-180)"/><rect class="cls-2" x="719.64" y="709.26" width="23.33" height="2"/><rect class="cls-2" x="719.64" y="720.59" width="23.33" height="2"/><rect class="cls-2" x="719.64" y="714.93" width="53.67" height="2"/><path class="cls-2" d="M715.75,729.48H688.64V702.37h27.11Zm-25.11-2h23.11V704.37H690.64Z"/><path class="cls-2" d="M810,129.06H635V107.83H810Zm-172-3H807V110.83H638Z"/><rect class="cls-2" x="440.83" y="740.89" width="171" height="10.84" rx="5.42"/><path class="cls-2" d="M580.1,743.84H472.24l1.56-2.48c14.31-22.71,13.81-55.41,13.8-55.73l0-1.65,80.92-.19,0,1.67c-1.05,30.64,12.93,55.72,13.07,56l1.36,2.42ZM478,740.6h99.4c-3.47-7-12.73-28-12.27-53.57l-74.32.18C490.78,694,489.75,720.09,478,740.6Z"/><path class="cls-2" d="M1145.17,753.23H95.83a1.5,1.5,0,0,1,0-3H1145.17a1.5,1.5,0,0,1,0,3Z"/><polygon class="cls-1" points="671.58 99.22 716.99 99.22 716.99 53.22 671.58 99.22"/><rect class="cls-1" x="716.99" y="53.22" width="283.84" height="46"/><rect class="cls-1" x="907.83" y="5.33" width="48" height="745"/><path class="cls-2" d="M951.29,751.84H901.51V702.05h49.78Zm-46.78-3h43.78V705.05H904.51Z"/><rect class="cls-2" x="924.9" y="693.87" width="3" height="66.16" transform="translate(-242.69 867.97) rotate(-45)"/><rect class="cls-2" x="893.32" y="725.45" width="66.16" height="3" transform="translate(-242.69 867.98) rotate(-45)"/><path class="cls-2" d="M951.29,705.05H901.51V655.27h49.78Zm-46.78-3h43.78V658.27H904.51Z"/><rect class="cls-2" x="924.9" y="647.08" width="3" height="66.16" transform="translate(-209.61 854.27) rotate(-45)"/><rect class="cls-2" x="893.32" y="678.66" width="66.16" height="3" transform="translate(-209.61 854.28) rotate(-45)"/><path class="cls-2" d="M951.29,658.27H901.51V608.49h49.78Zm-46.78-3h43.78V611.49H904.51Z"/><rect class="cls-2" x="924.9" y="600.3" width="3" height="66.16" transform="translate(-176.53 840.57) rotate(-45)"/><rect class="cls-2" x="893.32" y="631.88" width="66.16" height="3" transform="translate(-176.53 840.58) rotate(-45)"/><path class="cls-2" d="M951.29,611.49H901.51V561.71h49.78Zm-46.78-3h43.78V564.71H904.51Z"/><rect class="cls-2" x="924.9" y="553.52" width="3" height="66.16" transform="translate(-143.45 826.87) rotate(-45)"/><rect class="cls-2" x="893.32" y="585.1" width="66.16" height="3" transform="translate(-143.45 826.87) rotate(-45)"/><path class="cls-2" d="M951.29,564.71H901.51V514.92h49.78Zm-46.78-3h43.78V517.92H904.51Z"/><rect class="cls-2" x="924.9" y="506.73" width="3" height="66.16" transform="translate(-110.37 813.17) rotate(-45)"/><rect class="cls-2" x="893.32" y="538.31" width="66.16" height="3" transform="translate(-110.37 813.17) rotate(-45)"/><path class="cls-2" d="M951.29,517.92H901.51V468.14h49.78Zm-46.78-3h43.78V471.14H904.51Z"/><rect class="cls-2" x="924.9" y="459.95" width="3" height="66.16" transform="translate(-77.29 799.46) rotate(-45)"/><rect class="cls-2" x="893.32" y="491.53" width="66.16" height="3" transform="translate(-77.29 799.47) rotate(-45)"/><path class="cls-2" d="M951.29,471.14H901.51V421.36h49.78Zm-46.78-3h43.78V424.36H904.51Z"/><rect class="cls-2" x="924.9" y="413.17" width="3" height="66.16" transform="translate(-44.21 785.76) rotate(-45)"/><rect class="cls-2" x="893.32" y="444.75" width="66.16" height="3" transform="translate(-44.21 785.77) rotate(-45)"/><path class="cls-2" d="M951.29,424.36H901.51V374.57h49.78Zm-46.78-3h43.78V377.57H904.51Z"/><rect class="cls-2" x="924.9" y="366.39" width="3" height="66.16" transform="translate(-11.13 772.06) rotate(-45)"/><rect class="cls-2" x="893.32" y="397.97" width="66.16" height="3" transform="translate(-11.13 772.07) rotate(-45)"/><path class="cls-2" d="M951.29,377.57H901.51V327.79h49.78Zm-46.78-3h43.78V330.79H904.51Z"/><rect class="cls-2" x="924.9" y="319.6" width="3" height="66.16" transform="translate(21.95 758.36) rotate(-45)"/><rect class="cls-2" x="893.32" y="351.18" width="66.16" height="3" transform="translate(21.95 758.36) rotate(-45)"/><path class="cls-2" d="M951.29,330.79H901.51V281h49.78Zm-46.78-3h43.78V284H904.51Z"/><rect class="cls-2" x="924.9" y="272.82" width="3" height="66.16" transform="translate(55.03 744.65) rotate(-45)"/><rect class="cls-2" x="893.32" y="304.4" width="66.16" height="3" transform="translate(55.03 744.66) rotate(-45)"/><path class="cls-2" d="M951.29,284H901.51V234.23h49.78Zm-46.78-3h43.78V237.23H904.51Z"/><rect class="cls-2" x="924.9" y="226.04" width="3" height="66.16" transform="translate(88.11 730.95) rotate(-45)"/><rect class="cls-2" x="893.32" y="257.62" width="66.16" height="3" transform="translate(88.11 730.96) rotate(-45)"/><path class="cls-2" d="M951.29,237.23H901.51V187.44h49.78Zm-46.78-3h43.78V190.44H904.51Z"/><rect class="cls-2" x="924.9" y="179.25" width="3" height="66.16" transform="translate(121.19 717.25) rotate(-45)"/><rect class="cls-2" x="893.32" y="210.83" width="66.16" height="3" transform="translate(121.19 717.26) rotate(-45)"/><path class="cls-2" d="M951.29,190.44H901.51V140.66h49.78Zm-46.78-3h43.78V143.66H904.51Z"/><rect class="cls-2" x="924.9" y="132.47" width="3" height="66.16" transform="translate(154.27 703.55) rotate(-45)"/><rect class="cls-2" x="893.32" y="164.05" width="66.16" height="3" transform="translate(154.27 703.55) rotate(-45)"/><path class="cls-2" d="M951.29,143.66H901.51V93.88h49.78Zm-46.78-3h43.78V96.88H904.51Z"/><rect class="cls-2" x="924.9" y="85.69" width="3" height="66.16" transform="translate(187.35 689.85) rotate(-45)"/><rect class="cls-2" x="893.32" y="117.27" width="66.16" height="3" transform="translate(187.35 689.85) rotate(-45)"/><path class="cls-2" d="M951.29,96.88H901.51V47.09h49.78Zm-46.78-3h43.78V50.09H904.51Z"/><rect class="cls-2" x="924.9" y="38.91" width="3" height="66.16" transform="translate(220.43 676.14) rotate(-45)"/><rect class="cls-2" x="893.32" y="70.49" width="66.16" height="3" transform="translate(220.44 676.15) rotate(-45)"/><path class="cls-2" d="M998.37,96.88H948.59V47.09h49.78Zm-46.78-3h43.78V50.09H951.59Z"/><rect class="cls-2" x="971.98" y="38.9" width="3" height="66.16" transform="translate(234.23 709.44) rotate(-45)"/><rect class="cls-2" x="940.4" y="70.49" width="66.16" height="3" transform="translate(234.22 709.44) rotate(-45)"/><path class="cls-2" d="M951.29,50.09H901.51V.31h49.78Zm-46.78-3h43.78V3.31H904.51Z"/><rect class="cls-2" x="924.9" y="-7.88" width="3" height="66.16" transform="translate(253.51 662.44) rotate(-45)"/><rect class="cls-2" x="893.32" y="23.7" width="66.16" height="3" transform="translate(253.52 662.45) rotate(-45)"/><path class="cls-2" d="M904.51,96.58H854.73V46.8h49.78Zm-46.78-3h43.78V49.8H857.73Z"/><rect class="cls-2" x="846.54" y="70.19" width="66.16" height="3" transform="translate(206.94 642.98) rotate(-45)"/><rect class="cls-2" x="878.12" y="38.61" width="3" height="66.16" transform="translate(206.94 642.99) rotate(-45)"/><path class="cls-2" d="M857.73,96.58H807.94V46.8h49.79Zm-46.79-3h43.79V49.8H810.94Z"/><rect class="cls-2" x="799.75" y="70.19" width="66.16" height="3" transform="translate(193.24 609.9) rotate(-45)"/><rect class="cls-2" x="831.34" y="38.61" width="3" height="66.16" transform="translate(193.24 609.9) rotate(-45)"/><path class="cls-2" d="M810.94,96.58H761.16V46.8h49.78Zm-46.78-3h43.78V49.8H764.16Z"/><rect class="cls-2" x="752.97" y="70.19" width="66.16" height="3" transform="translate(179.54 576.82) rotate(-45)"/><rect class="cls-2" x="784.55" y="38.61" width="3" height="66.16" transform="translate(179.53 576.82) rotate(-45)"/><path class="cls-2" d="M764.16,96.58H714.38V46.8h49.78Zm-46.78-3h43.78V49.8H717.38Z"/><rect class="cls-2" x="706.19" y="70.19" width="66.16" height="3" transform="translate(165.83 543.74) rotate(-45)"/><rect class="cls-2" x="737.77" y="38.61" width="3" height="66.16" transform="translate(165.84 543.74) rotate(-45)"/><path class="cls-2" d="M717.38,96.58H665.94l48.56-49a1.68,1.68,0,0,1,2.88,1.19Zm-44.24-3h41.24V52Z"/><path class="cls-2" d="M382.33,753.57a2,2,0,0,1-2-2V506.47a2,2,0,0,1,4,0v245.1A2,2,0,0,1,382.33,753.57Z"/><path class="cls-2" d="M331.06,753.57a2,2,0,0,1-2-2V506.47a2,2,0,0,1,4,0v245.1A2,2,0,0,1,331.06,753.57Z"/><path class="cls-2" d="M389.32,529.76H323.93a2,2,0,0,1,0-4h65.39a2,2,0,0,1,0,4Z"/><path class="cls-2" d="M389.32,569.43H323.93a2,2,0,1,1,0-4h65.39a2,2,0,1,1,0,4Z"/><path class="cls-2" d="M389.32,609.1H323.93a2,2,0,1,1,0-4h65.39a2,2,0,1,1,0,4Z"/><path class="cls-2" d="M389.32,648.6H323.93a2,2,0,1,1,0-4h65.39a2,2,0,1,1,0,4Z"/><path class="cls-2" d="M389.32,688.27H323.93a2,2,0,0,1,0-4h65.39a2,2,0,0,1,0,4Z"/><path class="cls-2" d="M389.32,727.86H323.93a2,2,0,1,1,0-4h65.39a2,2,0,1,1,0,4Z"/><rect class="cls-2" x="134.26" y="742.22" width="14.2" height="7"/><rect class="cls-2" x="221.65" y="742.22" width="14.2" height="7"/><path class="cls-2" d="M1188.34,764.06H658.64a1.5,1.5,0,1,1,0-3h529.7a1.5,1.5,0,0,1,0,3Z"/><path class="cls-2" d="M636.5,764.06H1.65a1.5,1.5,0,1,1,0-3H636.5a1.5,1.5,0,0,1,0,3Z"/></svg>