<svg id="Layer_1" data-name="Layer 1" xmlns="http://www.w3.org/2000/svg" viewBox="0 0 1140 768"><defs><style>.cls-1,.cls-4,.cls-6{fill:#f8ca10;}.cls-2,.cls-5{fill:#fff;}.cls-10,.cls-11,.cls-12,.cls-13,.cls-14,.cls-15,.cls-16,.cls-17,.cls-3,.cls-7,.cls-8{fill:none;}.cls-14,.cls-15,.cls-3{stroke:#fffefe;}.cls-10,.cls-11,.cls-12,.cls-13,.cls-14,.cls-15,.cls-16,.cls-17,.cls-3,.cls-4,.cls-5,.cls-6,.cls-7,.cls-8{stroke-miterlimit:10;}.cls-10,.cls-11,.cls-16,.cls-3,.cls-6,.cls-8{stroke-width:2.11px;}.cls-12,.cls-13,.cls-16,.cls-17,.cls-4,.cls-5,.cls-6,.cls-7,.cls-8{stroke:#231f20;}.cls-14,.cls-4,.cls-5,.cls-7{stroke-width:1.76px;}.cls-9{fill:#231f20;}.cls-10{stroke:#fef5f9;}.cls-11{stroke:#fff;}.cls-12{stroke-width:2.13px;}.cls-13{stroke-width:1.54px;}.cls-15{stroke-width:1.48px;}.cls-16,.cls-17{stroke-linecap:round;}.cls-17{stroke-width:2.09px;}</style></defs><title>icon-rocket-about-gx</title><polygon class="cls-1" points="537.63 276.99 484.48 768 518.22 768 537.63 276.99"/><polygon class="cls-1" points="600.97 279.43 655.13 768 619.58 768 600.97 279.43"/><path class="cls-2" d="M550.83,45.14V156l-2.65,7.45L548.52,66S548.37,51.1,550.83,45.14Z"/><polygon class="cls-2" points="608.32 81.48 609.26 198.4 612.47 201.4 610.14 90.34 608.32 81.48"/><path class="cls-2" d="M536.63,67s-5.19,17.48-5.7,57.09c-.45,33.66-1.32,75.41-1.32,75.41l-3.35,1.94s1.94-105.73,2.21-109S530.64,73,536.63,67Z"/><path class="cls-2" d="M568.32,20.66s13.49,11.55,17.81,33.14c3.3,16.44,2.19,100.17,2.19,100.17l3.29,10.88-1.83-113S581,23.39,568.32,20.66Z"/><path class="cls-3" d="M580.13,80.41a31.27,31.27,0,0,0-4.43-.49"/><path class="cls-4" d="M573.48,22.6a6.06,6.06,0,0,0-8.26.32c-5.32,5.16-14.93,16.68-16.15,30.65-1.65,18.79-1.17,122.6-1.17,122.6h43.71s-.65-115.9-1.67-123.3C588.71,43.77,581,29.09,573.48,22.6Z"/><rect class="cls-5" x="532.44" y="239.55" width="12.07" height="20.06"/><path class="cls-6" d="M547.8,269.55H529.16v-3.11a9.11,9.11,0,0,1,9.11-9.11h.42a9.11,9.11,0,0,1,9.12,9.11v3.11Z"/><line class="cls-7" x1="532.79" y1="243.35" x2="544.51" y2="243.35"/><line class="cls-7" x1="532.79" y1="246.46" x2="544.51" y2="246.46"/><line class="cls-7" x1="532.79" y1="249.58" x2="540.49" y2="249.58"/><line class="cls-7" x1="532.79" y1="252.75" x2="538.76" y2="252.75"/><line class="cls-7" x1="541.52" y1="252.75" x2="544.51" y2="252.75"/><line class="cls-7" x1="542.43" y1="249.58" x2="544.51" y2="249.58"/><rect class="cls-5" x="594.82" y="239.55" width="12.07" height="20.06"/><path class="cls-6" d="M600.64,257.34h.42a9.1,9.1,0,0,1,9.11,9.07v3.11H591.53v-3.11A9.11,9.11,0,0,1,600.64,257.34Z"/><line class="cls-7" x1="606.53" y1="243.35" x2="594.82" y2="243.35"/><line class="cls-7" x1="606.53" y1="246.46" x2="594.82" y2="246.46"/><line class="cls-7" x1="606.53" y1="249.58" x2="598.84" y2="249.58"/><line class="cls-7" x1="606.53" y1="252.75" x2="600.56" y2="252.75"/><line class="cls-7" x1="597.81" y1="252.75" x2="594.82" y2="252.75"/><line class="cls-7" x1="596.9" y1="249.58" x2="594.82" y2="249.58"/><path class="cls-6" d="M569.71,97.36s-5.06-.53-9.84,11.61c-4.61,11.71-4.23,13.94-4.38,19.13s0,104.21,0,104.21h28.7s-.23-101.7-.31-106.86c-.08-5.54-2.39-12.82-4.93-18S574.39,97.79,569.71,97.36Z"/><path class="cls-5" d="M602.1,67c-2.39,0-6.61,13.39-8.16,22.33s1,112.11,1,112.11h17.54S611.18,96.32,610,89C609.14,83.45,604.7,67,602.1,67Z"/><path class="cls-8" d="M610.74,107.66a17.79,17.79,0,0,0-13.78-.8"/><path class="cls-8" d="M611.45,132.88a17.85,17.85,0,0,0-13.79-.8"/><path class="cls-8" d="M611.71,154a20.86,20.86,0,0,0-7.46-1.26"/><path class="cls-8" d="M602.11,152.7a16.17,16.17,0,0,0-3.53.44"/><path class="cls-5" d="M536.63,67c2.39,0,6.61,13.39,8.16,22.33s-1,112.11-1,112.11H526.26S527.59,96.32,528.73,89C529.59,83.45,534,67,536.63,67Z"/><path class="cls-8" d="M528,107.66a17.79,17.79,0,0,1,13.78-.8"/><path class="cls-8" d="M527.28,132.88a17.85,17.85,0,0,1,13.79-.8"/><path class="cls-8" d="M527,154a20.81,20.81,0,0,1,7.45-1.26"/><path class="cls-8" d="M536.62,152.7a16.17,16.17,0,0,1,3.53.44"/><path class="cls-9" d="M528.32,95.39a25.72,25.72,0,0,1,16.86.47l-.11-3.19a20.83,20.83,0,0,0-16.6-.31Z"/><path class="cls-9" d="M610.38,95.39a25.72,25.72,0,0,0-16.86.47l.11-3.19a20.86,20.86,0,0,1,16.61-.31Z"/><path class="cls-10" d="M549.82,84.25s4.79-4.79,18.35-4.3"/><path class="cls-8" d="M548.18,82.7s4.75-4.79,18.3-4.3"/><path class="cls-8" d="M583.9,79.92a20.5,20.5,0,0,1,6.85,2.48"/><path class="cls-8" d="M583.76,122.81c5.38.61,7.25,2.47,7.25,2.47"/><path class="cls-8" d="M547.83,125.88s1.83-1.69,7.59-2.46"/><path class="cls-11" d="M582.62,81.61a20.73,20.73,0,0,1,6.84,2.47"/><path class="cls-8" d="M581.94,79.51a32.82,32.82,0,0,0-4.43-.5"/><path class="cls-9" d="M561.22,105.86s7.07,4.79,16.7,0c0,0-3.62-9.09-8.2-8.52S561.22,105.86,561.22,105.86Z"/><path class="cls-8" d="M583.31,120.48s-6.08-3.19-16.85-2"/><path class="cls-8" d="M556.11,120.48a41.75,41.75,0,0,1,5.72-1.37"/><path class="cls-9" d="M575.51,115.4h-1.17a7.37,7.37,0,0,0-9.82,0h-1.19c.47-2.11,3-3.73,6.1-3.73S575.05,113.3,575.51,115.4Z"/><rect class="cls-9" x="562.02" y="125.28" width="2.72" height="3.89" rx="1.33"/><rect class="cls-9" x="566.26" y="125.28" width="2.72" height="3.89" rx="1.33"/><rect class="cls-9" x="570.5" y="125.28" width="2.72" height="3.89" rx="1.33"/><rect class="cls-9" x="574.74" y="125.28" width="2.72" height="3.89" rx="1.33"/><path class="cls-5" d="M583.9,135.63s8.41,41.21,20,56.56,28.2,21.93,28.82,44l-48.57,7.83Z"/><line class="cls-12" x1="632.58" y1="233.59" x2="606.1" y2="233.59"/><line class="cls-8" x1="588.24" y1="233.59" x2="595.72" y2="233.59"/><line class="cls-8" x1="599.39" y1="233.59" x2="603.43" y2="233.59"/><line class="cls-7" x1="631.91" y1="229.14" x2="586.59" y2="229.14"/><line class="cls-8" x1="628.27" y1="229.14" x2="628.27" y2="233.59"/><line class="cls-8" x1="624.81" y1="229.14" x2="624.81" y2="233.59"/><line class="cls-8" x1="621.11" y1="229.14" x2="621.11" y2="233.59"/><line class="cls-8" x1="617.56" y1="229.1" x2="617.56" y2="233.55"/><line class="cls-8" x1="614.09" y1="229.1" x2="614.09" y2="233.55"/><line class="cls-8" x1="610.39" y1="229.1" x2="610.39" y2="233.55"/><line class="cls-8" x1="606.88" y1="229.1" x2="606.88" y2="233.55"/><line class="cls-8" x1="593.38" y1="229.14" x2="593.38" y2="233.59"/><line class="cls-8" x1="601.16" y1="229.14" x2="601.16" y2="233.59"/><line class="cls-8" x1="589.68" y1="229.14" x2="589.68" y2="233.59"/><path class="cls-5" d="M555.42,135.63s-8.41,41.17-20,56.52-28.19,21.93-28.82,44L555.17,244Z"/><line class="cls-13" x1="506.74" y1="233.59" x2="533.21" y2="233.59"/><line class="cls-8" x1="551.08" y1="233.59" x2="543.6" y2="233.59"/><line class="cls-14" x1="508.78" y1="227.51" x2="552.73" y2="227.51"/><line class="cls-15" x1="585.96" y1="227.51" x2="630.86" y2="227.51"/><line class="cls-8" x1="540.3" y1="233.59" x2="536.27" y2="233.59"/><line class="cls-8" x1="507.41" y1="229.14" x2="552.73" y2="229.14"/><line class="cls-8" x1="511.05" y1="229.14" x2="511.05" y2="233.59"/><line class="cls-8" x1="514.52" y1="229.14" x2="514.52" y2="233.59"/><line class="cls-8" x1="518.22" y1="229.14" x2="518.22" y2="233.59"/><line class="cls-8" x1="521.76" y1="229.1" x2="521.76" y2="233.55"/><line class="cls-8" x1="525.23" y1="229.1" x2="525.23" y2="233.55"/><line class="cls-8" x1="528.93" y1="229.1" x2="528.93" y2="233.55"/><line class="cls-8" x1="532.44" y1="229.1" x2="532.44" y2="233.55"/><line class="cls-8" x1="545.94" y1="229.14" x2="545.94" y2="233.59"/><line class="cls-8" x1="538.16" y1="229.14" x2="538.16" y2="233.59"/><line class="cls-8" x1="549.65" y1="229.14" x2="549.65" y2="233.59"/><path class="cls-5" d="M569.11,219.14H570a18.28,18.28,0,0,1,18.28,18.28v9.85a3.14,3.14,0,0,1-3.08,3.19H554a3.13,3.13,0,0,1-3.13-3.13v-9.91a18.27,18.27,0,0,1,18.28-18.27Z"/><path class="cls-6" d="M556.47,250.46h26.44v.14a5.93,5.93,0,0,1-5.93,5.93H562.41a5.92,5.92,0,0,1-5.93-5.93h0v-.14h0Z"/><line class="cls-7" x1="588.24" y1="244.72" x2="551.08" y2="244.72"/><path class="cls-3" d="M530.22,108.87a18.64,18.64,0,0,1,11.55,0"/><path class="cls-3" d="M609.47,109.44a17.59,17.59,0,0,0-8.47-1"/><line class="cls-8" x1="595.86" y1="221.25" x2="608.41" y2="221.25"/><line class="cls-8" x1="610.9" y1="221.25" x2="614.04" y2="221.25"/><line class="cls-8" x1="544.59" y1="221.25" x2="532.04" y2="221.25"/><line class="cls-8" x1="529.55" y1="221.25" x2="526.41" y2="221.25"/><line class="cls-8" x1="531.21" y1="276.65" x2="500.41" y2="546.7"/><line class="cls-8" x1="496.04" y1="585" x2="482.02" y2="707.84"/><line class="cls-8" x1="544.63" y1="276.71" x2="534.31" y2="695.37"/><line class="cls-8" x1="537.63" y1="276.99" x2="527.3" y2="478.08"/><line class="cls-8" x1="524.91" y1="524.49" x2="514.53" y2="726.54"/><line class="cls-8" x1="608.48" y1="276.67" x2="638.07" y2="546.85"/><line class="cls-8" x1="642.26" y1="585.16" x2="657.98" y2="728.7"/><line class="cls-8" x1="594.69" y1="277.31" x2="603.12" y2="696.02"/><line class="cls-8" x1="602.06" y1="276.97" x2="611.49" y2="478.12"/><line class="cls-8" x1="613.66" y1="524.53" x2="623.13" y2="726.63"/><path class="cls-1" d="M705,767.39a11.53,11.53,0,0,1,18.18-7.32A23.51,23.51,0,0,1,756,754.79c.45.32.88.66,1.31,1a33.56,33.56,0,0,1,54.3,12.2,17.07,17.07,0,0,1,19.08-3.4,23.48,23.48,0,0,1,25.69-7.17,45.76,45.76,0,0,1,43.06-35.09c25.4-.91,46.79,18.76,47.78,43.92"/><path class="cls-1" d="M204.84,766.28a44.36,44.36,0,1,1,88.25-2.52,35,35,0,0,1,47.69,3.85,17.76,17.76,0,0,1,24.2-6.73l.33.19a24.46,24.46,0,0,1,43.59.64A12,12,0,0,1,431,766.53"/><path class="cls-16" d="M470.07,760.82a11.55,11.55,0,0,0-18.13-7.47,23.52,23.52,0,0,0-32.8-5.52c-.45.32-.88.65-1.3,1a33.58,33.58,0,0,0-54.43,11.78,17,17,0,0,0-14.7-4.83,17.2,17.2,0,0,0-4.34,1.28,23.47,23.47,0,0,0-25.65-7.34,46.08,46.08,0,0,0-90.87,8.11"/><path class="cls-16" d="M921.24,759.13A44.36,44.36,0,1,0,833,756.68a35,35,0,0,0-47.68,3.88,17.78,17.78,0,0,0-24.23-6.7l-.31.18a24.46,24.46,0,0,0-43.58.67,12,12,0,0,0-22.05,4.85"/><circle class="cls-16" cx="372.7" cy="670.12" r="9.24"/><circle class="cls-17" cx="757.75" cy="656.04" r="9.18"/><circle class="cls-17" cx="966.43" cy="714.08" r="4.65"/><circle class="cls-17" cx="883.88" cy="606.18" r="4.65"/><circle class="cls-17" cx="173.57" cy="701.13" r="4.65"/><circle class="cls-17" cx="262.89" cy="601.27" r="4.65"/></svg>