<svg id="Layer_1_copy" data-name="Layer 1 copy" xmlns="http://www.w3.org/2000/svg" viewBox="0 0 225.2 109.62"><defs><style>.cls-1,.cls-10,.cls-2,.cls-3,.cls-4,.cls-5,.cls-6,.cls-7,.cls-8{fill:none;}.cls-1,.cls-2,.cls-4,.cls-5,.cls-6,.cls-8{stroke:#000;}.cls-1,.cls-10,.cls-2,.cls-3,.cls-4,.cls-5,.cls-6,.cls-8{stroke-miterlimit:10;}.cls-1{stroke-width:0.51px;}.cls-2{stroke-width:0.48px;}.cls-3{stroke:#020202;}.cls-3,.cls-4{stroke-width:0.64px;}.cls-5{stroke-width:0.53px;}.cls-6{stroke-width:0.57px;}.cls-10,.cls-8{stroke-linecap:round;}.cls-8{stroke-width:1.23px;}.cls-9{fill:#020202;}.cls-10{stroke:#f8ca10;stroke-width:1.07px;}</style></defs><title>i-x</title><path class="cls-1" d="M147.27,41.61A37.88,37.88,0,1,0,93.84,76.15V93.33a3,3,0,0,0,3,3H121.9a3,3,0,0,0,3-3V76.15A37.85,37.85,0,0,0,147.27,41.61Z"/><line class="cls-2" x1="24.09" y1="27.89" x2="47.75" y2="27.89"/><line class="cls-3" x1="206.32" y1="33.07" x2="223.23" y2="33.07"/><line class="cls-4" x1="167.03" y1="21.44" x2="202.1" y2="21.44"/><line class="cls-4" x1="1.87" y1="106.08" x2="51.21" y2="106.08"/><line class="cls-5" x1="8.3" y1="47.2" x2="19.88" y2="47.2"/><line class="cls-4" x1="47.24" y1="33.07" x2="55.7" y2="33.07"/><line class="cls-4" x1="74.59" y1="102.74" x2="83.05" y2="102.74"/><line class="cls-4" x1="210.55" y1="106.08" x2="219.01" y2="106.08"/><line class="cls-4" x1="151.09" y1="106.08" x2="199.88" y2="106.08"/><line class="cls-6" x1="24.09" y1="47.2" x2="63.43" y2="47.2"/><path class="cls-7" d="M179.63,76a9.31,9.31,0,1,0-10.85-7.47A9.29,9.29,0,0,0,179.63,76Z"/><path class="cls-8" d="M156,61.66a22.28,22.28,0,0,0-.6,5.39l3.79,1.42c.05.59.13,1.18.24,1.78a3.19,3.19,0,0,0,.12.6l-3.22,2.5a22.66,22.66,0,0,0,2.17,5l4-.68A19.71,19.71,0,0,0,164,79.55l-1.54,3.77a22.8,22.8,0,0,0,4.36,3.21l3.14-2.59a19.39,19.39,0,0,0,2.25.88l.55,4a21.33,21.33,0,0,0,5.39.6l1.42-3.82q.89-.07,1.77-.24a3.14,3.14,0,0,0,.61-.12l2.49,3.22a21.76,21.76,0,0,0,5-2.17l-.68-4a16.24,16.24,0,0,0,1.89-1.51l3.77,1.54A21.8,21.8,0,0,0,197.59,78L195,74.82a18.14,18.14,0,0,0,.89-2.25l4-.55a22.17,22.17,0,0,0,.6-5.39l-3.82-1.41c0-.59-.13-1.19-.24-1.78a2.55,2.55,0,0,0-.13-.61l3.23-2.49a21.76,21.76,0,0,0-2.17-5l-4,.68a20.83,20.83,0,0,0-1.51-1.89l1.54-3.76A22.31,22.31,0,0,0,189,47.15l-3.1,2.65a19.85,19.85,0,0,0-2.25-.89l-.52-4.11a23.2,23.2,0,0,0-5.39-.6L176.33,48a10,10,0,0,0-1.78.24,2.58,2.58,0,0,0-.6.13l-2.5-3.23a22.87,22.87,0,0,0-5,2.17l.68,4a22.58,22.58,0,0,0-1.88,1.51l-3.77-1.54a22.87,22.87,0,0,0-3.21,4.37l2.59,3.14a23.8,23.8,0,0,0-.88,2.25Zm20.72-8a13.28,13.28,0,1,1-11.94,14.5V68.1a13.31,13.31,0,0,1,11.95-14.49Z"/><path d="M189.62,65.72a11.73,11.73,0,1,0-10.56,12.8A11.73,11.73,0,0,0,189.62,65.72Zm-20.4,2.72a8.87,8.87,0,1,1,10.34,7.11h0A8.87,8.87,0,0,1,169.22,68.44Z"/><path class="cls-7" d="M54.68,89.8a5.86,5.86,0,1,0-6.83-4.7,5.85,5.85,0,0,0,6.83,4.7Z"/><path class="cls-8" d="M39.78,80.8a14.33,14.33,0,0,0-.38,3.39l2.4.9q.06.55.15,1.11a2.7,2.7,0,0,0,.08.39l-2,1.57a14,14,0,0,0,1.36,3.12l2.53-.42A12.25,12.25,0,0,0,44.87,92l-1,2.37a14.11,14.11,0,0,0,2.75,2l2-1.64a10.73,10.73,0,0,0,1.42.56l.34,2.54a13.48,13.48,0,0,0,3.4.37l.89-2.4a10.4,10.4,0,0,0,1.12-.15l.38-.08,1.57,2a13.61,13.61,0,0,0,3.13-1.36l-.43-2.54a10.33,10.33,0,0,0,1.19-1l2.37,1A13.53,13.53,0,0,0,66,91l-1.64-2a9.63,9.63,0,0,0,.56-1.41l2.54-.35a13.83,13.83,0,0,0,.38-3.39l-2.41-.89a10.74,10.74,0,0,0-.15-1.12.69.69,0,0,0-.08-.39l2-1.57a13.69,13.69,0,0,0-1.33-3l-2.53.43a12.36,12.36,0,0,0-1-1.19l1-2.37a14.33,14.33,0,0,0-2.75-2l-2,1.64a12.54,12.54,0,0,0-1.41-.56l-.35-2.54a15.05,15.05,0,0,0-3.35-.41l-.89,2.4a10.74,10.74,0,0,0-1.12.15l-.38.08-1.57-2a14.51,14.51,0,0,0-3.13,1.37l.43,2.54a13.38,13.38,0,0,0-1.19,1l-2.37-1a15,15,0,0,0-2,2.75l1.63,2c-.21.47-.4.94-.56,1.42Zm13-5.07a8.36,8.36,0,1,1-7.47,9.17v-.1a8.39,8.39,0,0,1,7.52-9.1Z"/><path d="M60.86,83.33a7.27,7.27,0,1,0-6.55,7.94A7.26,7.26,0,0,0,60.86,83.33ZM48.21,85a5.5,5.5,0,1,1,6.41,4.41A5.5,5.5,0,0,1,48.21,85Z"/><path d="M101.87,99.39h20.67v5.14a1.54,1.54,0,0,1-1.54,1.54H103.41a1.54,1.54,0,0,1-1.54-1.54Z"/><line class="cls-8" x1="114.56" y1="79.81" x2="114.56" y2="47.2"/><circle class="cls-8" cx="118.07" cy="47.7" r="3.46"/><circle class="cls-8" cx="106.81" cy="47.7" r="3.46"/><line class="cls-8" x1="110.27" y1="79.81" x2="110.27" y2="47.2"/><path class="cls-9" d="M95.65,79.35h33V98a2.06,2.06,0,0,1-2.07,2.07H97.72A2.07,2.07,0,0,1,95.65,98V79.35Z"/><line class="cls-10" x1="126.8" y1="84.03" x2="115.89" y2="84.03"/><line class="cls-10" x1="126.8" y1="87.59" x2="107.96" y2="87.59"/><path class="cls-8" d="M149.91,41.61A37.88,37.88,0,1,0,96.47,76.15V93.33a3,3,0,0,0,3,3h25.07a3,3,0,0,0,3-3V76.15A37.85,37.85,0,0,0,149.91,41.61Z"/><path class="cls-8" d="M128,15s8.74,2.33,12,12.9"/></svg>