<?xml version="1.0" encoding="utf-8"?>
<!-- Generator: Adobe Illustrator 24.0.2, SVG Export Plug-In . SVG Version: 6.00 Build 0)  -->
<svg version="1.1" id="Layer_1" xmlns="http://www.w3.org/2000/svg" xmlns:xlink="http://www.w3.org/1999/xlink" x="0px" y="0px"
	 viewBox="0 0 250 250" style="enable-background:new 0 0 250 250;" xml:space="preserve">
<style type="text/css">
	.st0{fill:none;}
	.st1{fill:#C4C4C4;filter:url(#Adobe_OpacityMaskFilter);}
	.st2{mask:url(#mask0_1_);}
	.st3{fill:#F9C900;}
</style>
<rect class="st0" width="250" height="250"/>
<g>
	<defs>
		<filter id="Adobe_OpacityMaskFilter" filterUnits="userSpaceOnUse" x="28.8" y="144.2" width="153.8" height="153.8">
			<feColorMatrix  type="matrix" values="1 0 0 0 0  0 1 0 0 0  0 0 1 0 0  0 0 0 1 0"/>
		</filter>
	</defs>
	<mask maskUnits="userSpaceOnUse" x="28.8" y="144.2" width="153.8" height="153.8" id="mask0_1_">
		<path class="st1" d="M28.8,240.4v-52.9l33.7-57.7h76.9l48.1,48.1v62.5l-24-19.2l-28.8,24l-24-24l-28.8,24l-24-24L28.8,240.4z"/>
	</mask>
	<g class="st2">
		<circle class="st3" cx="105.8" cy="221.2" r="76.9"/>
	</g>
	<path d="M73.2,97.2h37c3.2,0,5.8-2.6,5.8-5.8c0-3.2-2.6-5.8-5.8-5.8h-37c-3.2,0-5.8,2.6-5.8,5.8C67.4,94.6,70,97.2,73.2,97.2z"/>
	<path d="M145,123.3H73.2c-3.2,0-5.8,2.6-5.8,5.8c0,3.2,2.6,5.8,5.8,5.8H145c3.2,0,5.8-2.6,5.8-5.8
		C150.7,125.9,148.1,123.3,145,123.3z"/>
	<path d="M145,160.9H73.2c-3.2,0-5.8,2.6-5.8,5.8s2.6,5.8,5.8,5.8H145c3.2,0,5.8-2.6,5.8-5.8S148.1,160.9,145,160.9z"/>
	<path d="M227.7,204.3V22c0.5-11.7-8.6-21.5-20.2-22c-0.5,0-1,0-1.5,0H81.6C68.9,0,57,9.3,57,22v9.8H46.9c-13.2,0.3-24,10.8-24.6,24
		v182.6c0.4,3.5,2.6,6.6,5.8,8.1c3.3,1.5,7.2,0.8,9.8-1.7l17.6-15.9l21.1,18.8c1.6,1.5,3.6,2.3,5.8,2.3c2.1-0.1,4.2-0.9,5.8-2.3
		l20.8-18.8l20.8,18.8c3.3,2.9,8.3,2.9,11.6,0l21.1-18.8l17.4,15.9c2.1,2.6,5.7,3.3,8.7,1.7c2.9-1.7,4.6-4.8,4.3-8.1v-41.1l3.5-2.6
		l17.7,15.9c1.6,1.6,3.8,2.4,6.1,2.3c1,0.1,2-0.1,2.9-0.6C226.1,210.9,227.9,207.7,227.7,204.3z M181.4,232.1l-13.6-13.3
		c-3.1-3.1-8.1-3.3-11.3-0.3l-21.1,18.8l-20.5-18.8c-3.4-2.7-8.2-2.7-11.6,0l-20.8,18.8l-21.1-18.8c-3.6-3-8.9-2.9-12.4,0.3
		l-15,13.3V55.9c0.6-6.8,6.2-12.2,13-12.4h124.4c6.4,0,10.1,6.1,10.1,12.4V232.1z M216.1,22v175.9l-14.5-13.3
		c-2.3-2.3-2.9-2.9-8.7-2V55.9c0-12.7-9-24-21.7-24H68.6V22c0-6.4,6.7-10.4,13-10.4H206c5.3-0.3,9.8,3.6,10.1,8.9
		C216.2,21,216.2,21.5,216.1,22z"/>
</g>
</svg>
