<svg id="Layer_1_copy" data-name="Layer 1 copy" xmlns="http://www.w3.org/2000/svg" viewBox="0 0 260.8 81.5"><defs><style>.cls-1,.cls-2,.cls-3{fill:none;stroke:#000;stroke-miterlimit:10;}.cls-1{stroke-width:0.51px;}.cls-2{stroke-width:0.64px;}.cls-3{stroke-width:0.69px;}</style></defs><title>icon-speed</title><path d="M161.47,75.26H130.05C125,44.17,103.76,20.44,71,20.44A65.84,65.84,0,0,0,5.81,75.26H5C5,34.85,38.62,2.09,80.15,2.09S158,34.05,161.47,75.26Z"/><path class="cls-1" d="M158.19,75.26H126.76c-5.1-31.09-26.29-54.82-59.1-54.82A65.82,65.82,0,0,0,2.52,75.26H1.66c0-40.41,33.66-73.17,75.19-73.17S154.76,34.05,158.19,75.26Z"/><path d="M97.15,44.16,65,67.73a5.88,5.88,0,1,0,6.59,7.4Z"/><path class="cls-1" d="M94.76,44.16,62.64,67.73a5.88,5.88,0,1,0,6.59,7.4Z"/><line class="cls-2" x1="19.64" y1="44.16" x2="27.23" y2="49.35"/><line class="cls-2" x1="40.02" y1="25.62" x2="45.62" y2="35.24"/><line class="cls-2" x1="67.61" y1="17.91" x2="68.56" y2="29.01"/><line class="cls-2" x1="4.95" y1="75.26" x2="19.96" y2="70.69"/><path class="cls-2" d="M10.49,77.33s8.21-51.1,65.74-51.71"/><line class="cls-2" x1="147.87" y1="21.1" x2="235.06" y2="21.1"/><line class="cls-2" x1="170.29" y1="52.99" x2="205.27" y2="52.99"/><line class="cls-3" x1="158.19" y1="30.01" x2="259.14" y2="30.01"/><line class="cls-2" x1="163.76" y1="42.53" x2="219.17" y2="42.53"/><line class="cls-2" x1="136.34" y1="12.2" x2="178.58" y2="12.2"/><line class="cls-2" x1="229.36" y1="42.53" x2="246.27" y2="42.53"/><line class="cls-2" x1="210.72" y1="52.99" x2="219.17" y2="52.99"/><line class="cls-2" x1="177.31" y1="63.57" x2="226.1" y2="63.57"/><line class="cls-2" x1="184.1" y1="12.2" x2="196.3" y2="12.2"/></svg>