<svg id="Layer_1" data-name="Layer 1" xmlns="http://www.w3.org/2000/svg" viewBox="0 0 1140 701.76"><defs><style>.cls-1,.cls-12,.cls-15,.cls-17,.cls-18,.cls-19,.cls-2,.cls-20,.cls-3,.cls-7{fill:none;}.cls-1,.cls-11,.cls-12,.cls-18,.cls-19,.cls-2,.cls-20,.cls-3,.cls-7{stroke:#fff;}.cls-1{stroke-miterlimit:10;stroke-width:1.48px;}.cls-11,.cls-12,.cls-15,.cls-18,.cls-19,.cls-2,.cls-20,.cls-4,.cls-9{stroke-miterlimit:10;}.cls-2,.cls-4{stroke-width:1.72px;}.cls-3{stroke-miterlimit:10;stroke-width:1.48px;}.cls-10,.cls-11,.cls-13,.cls-16,.cls-4,.cls-8,.cls-9{fill:#f7c910;}.cls-4{stroke:#221f1f;}.cls-5{fill:#221f1f;}.cls-6{fill:#fff;}.cls-7,.cls-8{stroke-miterlimit:10;}.cls-7{stroke-width:1.42px;}.cls-10,.cls-13,.cls-8,.cls-9{stroke:#000;}.cls-8{stroke-width:0.96px;}.cls-9{stroke-width:0.96px;}.cls-10{stroke-miterlimit:10.02;stroke-width:0.96px;}.cls-11{stroke-width:1.48px;}.cls-12{stroke-width:0.98px;}.cls-13{stroke-miterlimit:10;stroke-width:0.98px;}.cls-14{fill:#231f20;}.cls-15{stroke:#231f20;stroke-width:0.44px;}.cls-15,.cls-18,.cls-19,.cls-20{stroke-linecap:round;}.cls-18{stroke-width:1.79px;}.cls-19{stroke-width:2px;}.cls-20{stroke-width:2.01px;}</style></defs><title>rocket-page---index-white</title><path class="cls-1" d="M951,355.8l65.59,1.67a4.08,4.08,0,0,1,4,4.18h0l-1.18,46.45h0l-73.75-1.88h0l1.18-46.45a4.08,4.08,0,0,1,4.19-4Z"/><path class="cls-2" d="M1028.58,430.59l-93.2-2.37a.82.82,0,0,1-.8-.84.77.77,0,0,1,.09-.36l11-20.88L1019.4,408l9.93,21.42a.82.82,0,0,1-.38,1.08A.8.8,0,0,1,1028.58,430.59Z"/><rect class="cls-3" x="960.47" y="354.04" width="42.55" height="64.85" rx="2.8" transform="translate(566.02 1356.18) rotate(-88.28)"/><polygon class="cls-4" points="979.29 414.07 979.49 411.35 975.59 411.25 975.26 413.97 979.29 414.07"/><polygon class="cls-4" points="987.34 414.27 987.28 411.55 983.38 411.45 983.32 414.17 987.34 414.27"/><polygon class="cls-4" points="1008.24 417.71 1012.4 417.82 1011.5 414.89 1007.47 414.78 1008.24 417.71"/><polygon class="cls-4" points="975.26 413.97 975.59 411.25 971.7 411.15 971.24 413.86 975.26 413.97"/><polygon class="cls-4" points="967.21 413.76 967.8 411.05 963.9 410.95 963.19 413.66 967.21 413.76"/><polygon class="cls-4" points="1003.45 414.68 1002.86 411.94 998.96 411.85 999.42 414.58 1003.45 414.68"/><polygon class="cls-4" points="1007.47 414.78 1006.75 412.04 1002.86 411.94 1003.45 414.68 1007.47 414.78"/><polygon class="cls-4" points="963.19 413.66 963.9 410.95 960.01 410.86 959.16 413.56 963.19 413.66"/><polygon class="cls-4" points="991.37 414.38 991.17 411.65 987.28 411.55 987.34 414.27 991.37 414.38"/><polygon class="cls-4" points="1011.5 414.89 1010.65 412.14 1006.75 412.04 1007.47 414.78 1011.5 414.89"/><polygon class="cls-4" points="999.42 414.58 998.96 411.85 995.07 411.75 995.39 414.48 999.42 414.58"/><polygon class="cls-4" points="995.39 414.48 995.07 411.75 991.17 411.65 991.37 414.38 995.39 414.48"/><polygon class="cls-4" points="983.32 414.17 983.38 411.45 979.49 411.35 979.29 414.07 983.32 414.17"/><polygon class="cls-4" points="955.13 413.45 951.11 413.35 949.92 416.23 954.09 416.34 955.13 413.45"/><polygon class="cls-4" points="956.11 410.76 952.22 410.66 951.11 413.35 955.13 413.45 956.11 410.76"/><polygon class="cls-4" points="959.16 413.56 960.01 410.86 956.11 410.76 955.13 413.45 959.16 413.56"/><polygon class="cls-4" points="948.65 419.32 947.29 422.64 951.76 422.75 952.97 419.43 948.65 419.32"/><polygon class="cls-4" points="954.09 416.34 949.92 416.23 948.65 419.32 952.97 419.43 954.09 416.34"/><polygon class="cls-4" points="952.97 419.43 951.76 422.75 956.24 422.87 957.28 419.54 952.97 419.43"/><polygon class="cls-4" points="971.24 413.86 971.7 411.15 967.8 411.05 967.21 413.76 971.24 413.86"/><polygon class="cls-4" points="970.75 416.76 971.24 413.86 967.21 413.76 966.58 416.66 970.75 416.76"/><polygon class="cls-4" points="966.58 416.66 967.21 413.76 963.19 413.66 962.42 416.55 966.58 416.66"/><polygon class="cls-4" points="974.91 416.87 975.26 413.97 971.24 413.86 970.75 416.76 974.91 416.87"/><polygon class="cls-4" points="959.16 413.56 955.13 413.45 954.09 416.34 958.25 416.44 959.16 413.56"/><polygon class="cls-4" points="1009.05 420.86 1013.37 420.96 1012.4 417.82 1008.24 417.71 1009.05 420.86"/><polygon class="cls-4" points="962.42 416.55 963.19 413.66 959.16 413.56 958.25 416.44 962.42 416.55"/><polygon class="cls-4" points="954.09 416.34 952.97 419.43 957.28 419.54 958.25 416.44 954.09 416.34"/><polygon class="cls-4" points="999.9 417.5 999.42 414.58 995.39 414.48 995.74 417.4 999.9 417.5"/><polygon class="cls-4" points="995.74 417.4 995.39 414.48 991.37 414.38 991.57 417.29 995.74 417.4"/><polygon class="cls-4" points="1008.24 417.71 1007.47 414.78 1003.45 414.68 1004.07 417.61 1008.24 417.71"/><polygon class="cls-4" points="983.24 417.08 983.32 414.17 979.29 414.07 979.08 416.97 983.24 417.08"/><polygon class="cls-4" points="991.57 417.29 991.37 414.38 987.34 414.27 987.41 417.19 991.57 417.29"/><polygon class="cls-4" points="987.41 417.19 987.34 414.27 983.32 414.17 983.24 417.08 987.41 417.19"/><polygon class="cls-4" points="979.08 416.97 979.29 414.07 975.26 413.97 974.91 416.87 979.08 416.97"/><polygon class="cls-4" points="991.57 417.29 991.8 420.42 996.11 420.53 995.74 417.4 991.57 417.29"/><polygon class="cls-4" points="995.74 417.4 996.11 420.53 1000.42 420.64 999.9 417.5 995.74 417.4"/><polygon class="cls-4" points="958.25 416.44 957.28 419.54 961.6 419.65 962.42 416.55 958.25 416.44"/><polygon class="cls-4" points="999.9 417.5 1000.42 420.64 1004.74 420.75 1004.07 417.61 999.9 417.5"/><polygon class="cls-4" points="983.24 417.08 983.17 420.2 987.48 420.31 987.41 417.19 983.24 417.08"/><polygon class="cls-4" points="1004.07 417.61 1004.74 420.75 1009.05 420.86 1008.24 417.71 1004.07 417.61"/><polygon class="cls-4" points="987.41 417.19 987.48 420.31 991.8 420.42 991.57 417.29 987.41 417.19"/><polygon class="cls-4" points="966.58 416.66 965.91 419.76 970.23 419.87 970.75 416.76 966.58 416.66"/><polygon class="cls-4" points="962.42 416.55 961.6 419.65 965.91 419.76 966.58 416.66 962.42 416.55"/><polygon class="cls-4" points="979.08 416.97 978.85 420.09 983.17 420.2 983.24 417.08 979.08 416.97"/><polygon class="cls-4" points="974.91 416.87 974.54 419.98 978.85 420.09 979.08 416.97 974.91 416.87"/><polygon class="cls-4" points="970.75 416.76 970.23 419.87 974.54 419.98 974.91 416.87 970.75 416.76"/><polygon class="cls-4" points="1004.07 417.61 1003.45 414.68 999.42 414.58 999.9 417.5 1004.07 417.61"/><polygon class="cls-4" points="956.11 410.76 957.12 408 953.35 407.9 952.22 410.66 956.11 410.76"/><polygon class="cls-4" points="952.22 410.66 948.62 410.57 947.39 413.26 951.11 413.35 952.22 410.66"/><polygon class="cls-4" points="953.35 407.9 949.88 407.81 948.62 410.57 952.22 410.66 953.35 407.9"/><polygon class="cls-4" points="951.11 413.35 947.39 413.26 946.08 416.14 949.92 416.23 951.11 413.35"/><polygon class="cls-4" points="949.92 416.23 946.08 416.14 944.67 419.22 948.65 419.32 949.92 416.23"/><polygon class="cls-4" points="948.65 419.32 944.67 419.22 943.16 422.53 947.29 422.64 948.65 419.32"/><polygon class="cls-4" points="1015.52 414.99 1016.57 417.93 1020.25 418.02 1019.08 415.08 1015.52 414.99"/><polygon class="cls-4" points="1017.68 421.07 1021.5 421.17 1020.25 418.02 1016.57 417.93 1017.68 421.07"/><polygon class="cls-4" points="1018.88 424.46 1022.84 424.56 1021.5 421.17 1017.68 421.07 1018.88 424.46"/><polygon class="cls-4" points="987.28 411.55 987.21 408.76 983.45 408.66 983.38 411.45 987.28 411.55"/><polygon class="cls-4" points="1015.52 414.99 1019.08 415.08 1017.99 412.33 1014.55 412.24 1015.52 414.99"/><polygon class="cls-4" points="1013.37 420.96 1017.68 421.07 1016.57 417.93 1012.4 417.82 1013.37 420.96"/><polygon class="cls-4" points="960.01 410.86 960.88 408.09 957.12 408 956.11 410.76 960.01 410.86"/><polygon class="cls-4" points="1010.65 412.14 1011.5 414.89 1015.52 414.99 1014.55 412.24 1010.65 412.14"/><polygon class="cls-4" points="1017.99 412.33 1016.88 409.51 1013.55 409.43 1014.55 412.24 1017.99 412.33"/><polygon class="cls-4" points="1014.55 412.24 1013.55 409.43 1009.79 409.33 1010.65 412.14 1014.55 412.24"/><polygon class="cls-4" points="1000.42 420.64 1000.99 424 1005.46 424.12 1004.74 420.75 1000.42 420.64"/><polygon class="cls-4" points="1014.41 424.34 1018.88 424.46 1017.68 421.07 1013.37 420.96 1014.41 424.34"/><polygon class="cls-4" points="1010.65 412.14 1009.79 409.33 1006.02 409.24 1006.75 412.04 1010.65 412.14"/><polygon class="cls-4" points="1009.05 420.86 1009.93 424.23 1014.41 424.34 1013.37 420.96 1009.05 420.86"/><polygon class="cls-4" points="1004.74 420.75 1005.46 424.12 1009.93 424.23 1009.05 420.86 1004.74 420.75"/><polygon class="cls-4" points="1012.4 417.82 1016.57 417.93 1015.52 414.99 1011.5 414.89 1012.4 417.82"/><polygon class="cls-4" points="975.59 411.25 975.93 408.47 972.16 408.38 971.7 411.15 975.59 411.25"/><polygon class="cls-4" points="1006.75 412.04 1006.02 409.24 1002.26 409.14 1002.86 411.94 1006.75 412.04"/><polygon class="cls-4" points="971.7 411.15 972.16 408.38 968.4 408.28 967.8 411.05 971.7 411.15"/><polygon class="cls-4" points="983.38 411.45 983.45 408.66 979.69 408.57 979.49 411.35 983.38 411.45"/><polygon class="cls-4" points="967.8 411.05 968.4 408.28 964.64 408.19 963.9 410.95 967.8 411.05"/><polygon class="cls-4" points="963.9 410.95 964.64 408.19 960.88 408.09 960.01 410.86 963.9 410.95"/><polygon class="cls-4" points="979.49 411.35 979.69 408.57 975.93 408.47 975.59 411.25 979.49 411.35"/><polygon class="cls-4" points="1002.86 411.94 1002.26 409.14 998.5 409.05 998.96 411.85 1002.86 411.94"/><polygon class="cls-4" points="998.96 411.85 998.5 409.05 994.74 408.95 995.07 411.75 998.96 411.85"/><polygon class="cls-4" points="991.17 411.65 990.98 408.86 987.21 408.76 987.28 411.55 991.17 411.65"/><polygon class="cls-5" points="1000.35 421.11 996 421 991.64 420.89 987.29 420.78 982.93 420.67 978.58 420.56 974.22 420.45 969.87 420.34 965.51 420.23 961.16 420.12 956.8 420 955.75 423.33 960.27 423.44 964.78 423.56 969.3 423.67 973.82 423.79 978.34 423.9 982.85 424.02 987.37 424.13 991.89 424.25 996.4 424.36 1000.92 424.48 1000.35 421.11"/><polygon class="cls-4" points="995.07 411.75 994.74 408.95 990.98 408.86 991.17 411.65 995.07 411.75"/><rect class="cls-6" x="981.26" y="382.21" width="1.36" height="95.92" transform="translate(526.89 1400.83) rotate(-88.54)"/><rect class="cls-7" x="993.36" y="203.9" width="36.04" height="105.01" rx="1.23" transform="translate(544.1 1189.29) rotate(-77.62)"/><rect class="cls-8" x="965.91" y="231.19" width="3.77" height="3.77" rx="0.27" transform="translate(532.66 1128.4) rotate(-77.62)"/><rect class="cls-8" x="964.7" y="236.74" width="3.77" height="3.77" rx="0.27" transform="translate(526.28 1131.58) rotate(-77.62)"/><rect class="cls-8" x="968.99" y="237.67" width="3.77" height="3.77" rx="0.27" transform="translate(528.74 1136.5) rotate(-77.62)"/><rect class="cls-8" x="973.28" y="238.62" width="3.77" height="3.77" rx="0.27" transform="translate(531.18 1141.43) rotate(-77.62)"/><rect class="cls-8" x="977.59" y="239.57" width="3.77" height="3.77" rx="0.27" transform="translate(533.64 1146.38) rotate(-77.62)"/><rect class="cls-8" x="981.88" y="240.51" width="3.77" height="3.77" rx="0.27" transform="translate(536.09 1151.31) rotate(-77.62)"/><rect class="cls-8" x="986.18" y="241.45" width="3.77" height="3.77" rx="0.27" transform="translate(538.55 1156.25) rotate(-77.62)"/><rect class="cls-8" x="990.46" y="242.39" width="3.77" height="3.77" rx="0.27" transform="translate(541 1161.18) rotate(-77.62)"/><rect class="cls-8" x="994.76" y="243.33" width="3.77" height="3.77" rx="0.27" transform="translate(543.46 1166.12) rotate(-77.62)"/><rect class="cls-8" x="999.06" y="244.29" width="3.77" height="3.77" rx="0.27" transform="translate(545.9 1171.07) rotate(-77.62)"/><rect class="cls-8" x="1003.35" y="245.22" width="3.77" height="3.77" rx="0.27" transform="translate(548.36 1175.99) rotate(-77.62)"/><rect class="cls-8" x="1007.65" y="246.16" width="3.77" height="3.77" rx="0.27" transform="translate(550.82 1180.93) rotate(-77.62)"/><rect class="cls-8" x="1011.95" y="247.11" width="3.77" height="3.77" rx="0.27" transform="translate(553.27 1185.87) rotate(-77.62)"/><rect class="cls-8" x="1016.24" y="248.04" width="3.77" height="3.77" rx="0.27" transform="translate(555.73 1190.8) rotate(-77.62)"/><rect class="cls-8" x="1022.42" y="247.48" width="3.77" height="7.62" rx="0.27" transform="translate(559.25 1197.9) rotate(-77.62)"/><rect class="cls-8" x="964.58" y="240.5" width="3.77" height="5.52" rx="0.27" transform="translate(521.66 1135.1) rotate(-77.62)"/><rect class="cls-8" x="964.16" y="244.49" width="3.77" height="6.65" rx="0.27" transform="translate(516.88 1138.27) rotate(-77.62)"/><rect class="cls-8" x="964.29" y="248.02" width="3.77" height="8.9" rx="0.27" transform="translate(512.43 1142.05) rotate(-77.62)"/><rect class="cls-8" x="961.76" y="253.65" width="3.77" height="5.69" rx="0.27" transform="translate(506.51 1142.74) rotate(-77.62)"/><rect class="cls-8" x="969.85" y="242.53" width="3.77" height="3.77" rx="0.27" transform="translate(524.67 1141.16) rotate(-77.62)"/><rect class="cls-8" x="969.94" y="247.18" width="3.77" height="3.77" rx="0.27" transform="translate(520.2 1144.9) rotate(-77.62)"/><rect class="cls-8" x="974.38" y="248.15" width="3.77" height="3.77" rx="0.27" transform="translate(522.74 1150) rotate(-77.62)"/><rect class="cls-8" x="971.24" y="252.11" width="3.77" height="3.77" rx="0.27" transform="translate(516.4 1150.03) rotate(-77.62)"/><rect class="cls-8" x="967.08" y="255.77" width="3.77" height="3.77" rx="0.27" transform="translate(509.56 1148.84) rotate(-77.62)"/><rect class="cls-8" x="971.51" y="256.75" width="3.77" height="3.77" rx="0.27" transform="translate(512.09 1153.94) rotate(-77.62)"/><rect class="cls-8" x="975.92" y="257.71" width="3.77" height="3.77" rx="0.27" transform="translate(514.61 1159) rotate(-77.62)"/><rect class="cls-8" x="991.32" y="249.79" width="3.77" height="26.37" rx="0.27" transform="translate(523.41 1176.71) rotate(-77.62)"/><rect class="cls-8" x="975.7" y="253.1" width="3.77" height="3.77" rx="0.27" transform="translate(518.94 1155.17) rotate(-77.62)"/><rect class="cls-8" x="980.18" y="254.08" width="3.77" height="3.77" rx="0.27" transform="translate(521.5 1160.31) rotate(-77.62)"/><rect class="cls-8" x="984.65" y="255.06" width="3.77" height="3.77" rx="0.27" transform="translate(524.06 1165.46) rotate(-77.62)"/><rect class="cls-8" x="989.12" y="256.04" width="3.77" height="3.77" rx="0.27" transform="translate(526.61 1170.58) rotate(-77.62)"/><rect class="cls-8" x="993.59" y="257.02" width="3.77" height="3.77" rx="0.27" transform="translate(529.17 1175.73) rotate(-77.62)"/><rect class="cls-8" x="998.06" y="257.99" width="3.77" height="3.77" rx="0.27" transform="translate(531.73 1180.86) rotate(-77.62)"/><rect class="cls-8" x="1002.52" y="258.98" width="3.77" height="3.77" rx="0.27" transform="translate(534.27 1185.99) rotate(-77.62)"/><rect class="cls-8" x="1007" y="259.95" width="3.77" height="3.77" rx="0.27" transform="translate(536.84 1191.13) rotate(-77.62)"/><rect class="cls-8" x="1007.01" y="264.53" width="3.77" height="3.77" rx="0.27" transform="translate(532.37 1194.73) rotate(-77.62)"/><rect class="cls-8" x="1011.47" y="265.52" width="3.77" height="3.77" rx="0.27" transform="translate(534.92 1199.87) rotate(-77.62)"/><rect class="cls-8" x="1015.96" y="266.49" width="3.77" height="3.77" rx="0.27" transform="translate(537.49 1205.02) rotate(-77.62)"/><rect class="cls-8" x="1020.43" y="267.48" width="3.77" height="3.77" rx="0.27" transform="translate(540.04 1210.16) rotate(-77.62)"/><rect class="cls-8" x="1011.47" y="260.94" width="3.77" height="3.77" rx="0.27" transform="translate(539.38 1196.26) rotate(-77.62)"/><rect class="cls-8" x="1018.66" y="259.73" width="3.77" height="9.35" rx="0.27" transform="translate(543.49 1204.53) rotate(-77.62)"/><rect class="cls-8" x="978.82" y="249.14" width="3.77" height="3.77" rx="0.27" transform="translate(525.26 1155.11) rotate(-77.62)"/><rect class="cls-8" x="983.26" y="250.11" width="3.77" height="3.77" rx="0.27" transform="translate(527.8 1160.21) rotate(-77.62)"/><rect class="cls-8" x="987.7" y="251.09" width="3.77" height="3.77" rx="0.27" transform="translate(530.33 1165.31) rotate(-77.62)"/><rect class="cls-8" x="992.14" y="252.06" width="3.77" height="3.77" rx="0.27" transform="translate(532.87 1170.41) rotate(-77.62)"/><rect class="cls-8" x="996.58" y="253.03" width="3.77" height="3.77" rx="0.27" transform="translate(535.41 1175.51) rotate(-77.62)"/><rect class="cls-8" x="1001.02" y="254.01" width="3.77" height="3.77" rx="0.27" transform="translate(537.94 1180.61) rotate(-77.62)"/><rect class="cls-8" x="1005.46" y="254.99" width="3.77" height="3.77" rx="0.27" transform="translate(540.47 1185.72) rotate(-77.62)"/><rect class="cls-8" x="1009.91" y="255.96" width="3.77" height="3.77" rx="0.27" transform="translate(543.02 1190.83) rotate(-77.62)"/><rect class="cls-8" x="1014.33" y="256.93" width="3.77" height="3.77" rx="0.27" transform="translate(545.55 1195.92) rotate(-77.62)"/><rect class="cls-8" x="974.25" y="243.49" width="3.77" height="3.77" rx="0.27" transform="translate(527.19 1146.21) rotate(-77.62)"/><rect class="cls-8" x="978.64" y="244.46" width="3.77" height="3.77" rx="0.27" transform="translate(529.69 1151.26) rotate(-77.62)"/><rect class="cls-8" x="983.05" y="245.43" width="3.77" height="3.77" rx="0.27" transform="translate(532.21 1156.33) rotate(-77.62)"/><rect class="cls-8" x="987.44" y="246.39" width="3.77" height="3.77" rx="0.27" transform="translate(534.72 1161.37) rotate(-77.62)"/><rect class="cls-8" x="991.85" y="247.35" width="3.77" height="3.77" rx="0.27" transform="translate(537.24 1166.42) rotate(-77.62)"/><rect class="cls-8" x="996.23" y="248.33" width="3.77" height="3.77" rx="0.27" transform="translate(539.73 1171.48) rotate(-77.62)"/><rect class="cls-8" x="1000.64" y="249.29" width="3.77" height="3.77" rx="0.27" transform="translate(542.26 1176.54) rotate(-77.62)"/><rect class="cls-8" x="1005.04" y="250.24" width="3.77" height="3.77" rx="0.27" transform="translate(544.78 1181.58) rotate(-77.62)"/><rect class="cls-8" x="1009.43" y="251.22" width="3.77" height="3.77" rx="0.27" transform="translate(547.27 1186.65) rotate(-77.62)"/><rect class="cls-8" x="1013.83" y="252.18" width="3.77" height="3.77" rx="0.27" transform="translate(549.79 1191.69) rotate(-77.62)"/><rect class="cls-8" x="1018.23" y="253.14" width="3.77" height="3.77" rx="0.27" transform="translate(552.31 1196.74) rotate(-77.62)"/><path class="cls-9" d="M1023.28,253.79a.26.26,0,0,0-.31.2h0l-.7,3.16a.27.27,0,0,0,.21.32h0l1,.22a.26.26,0,0,1,.2.31h0l-.85,3.9a.27.27,0,0,0,.2.32l2.33.51a.28.28,0,0,0,.32-.2l1.66-7.59a.26.26,0,0,0-.2-.31h0Z"/><path class="cls-9" d="M1022.31,258.21l-.52-.11-2.35-.52a.27.27,0,0,0-.32.21h0l-.69,3.15a.27.27,0,0,0,.2.32l2.35.52.53.11.28.06a.27.27,0,0,0,.32-.2l.69-3.16a.26.26,0,0,0-.2-.31h0Z"/><rect class="cls-8" x="972.77" y="232.69" width="3.77" height="3.77" rx="0.27" transform="translate(536.57 1136.27) rotate(-77.62)"/><rect class="cls-8" x="977.55" y="233.74" width="3.77" height="3.77" rx="0.27" transform="translate(539.3 1141.76) rotate(-77.62)"/><rect class="cls-8" x="982.33" y="234.78" width="3.77" height="3.77" rx="0.27" transform="translate(542.04 1147.25) rotate(-77.62)"/><rect class="cls-8" x="987.1" y="235.84" width="3.77" height="3.77" rx="0.27" transform="translate(544.76 1152.74) rotate(-77.62)"/><rect class="cls-8" x="991.98" y="236.91" width="3.77" height="3.77" rx="0.27" transform="translate(547.54 1158.35) rotate(-77.62)"/><rect class="cls-8" x="996.76" y="237.96" width="3.77" height="3.77" rx="0.27" transform="translate(550.28 1163.84) rotate(-77.62)"/><rect class="cls-8" x="1001.54" y="239" width="3.77" height="3.77" rx="0.27" transform="translate(553.01 1169.33) rotate(-77.62)"/><rect class="cls-8" x="1006.32" y="240.05" width="3.77" height="3.77" rx="0.27" transform="translate(555.74 1174.82) rotate(-77.62)"/><rect class="cls-8" x="1011.19" y="241.12" width="3.77" height="3.77" rx="0.27" transform="translate(558.52 1180.42) rotate(-77.62)"/><rect class="cls-8" x="1015.97" y="242.17" width="3.77" height="3.77" rx="0.27" transform="translate(561.25 1185.91) rotate(-77.62)"/><rect class="cls-8" x="1020.75" y="243.21" width="3.77" height="3.77" rx="0.27" transform="translate(563.99 1191.4) rotate(-77.62)"/><rect class="cls-8" x="1025.53" y="244.26" width="3.77" height="3.77" rx="0.27" transform="translate(566.72 1196.89) rotate(-77.62)"/><rect class="cls-8" x="1031.38" y="245.55" width="3.77" height="3.77" rx="0.27" transform="translate(570.06 1203.63) rotate(-77.62)"/><rect class="cls-8" x="1036" y="246.56" width="3.77" height="3.77" rx="0.27" transform="translate(572.7 1208.93) rotate(-77.62)"/><rect class="cls-8" x="1040.63" y="247.57" width="3.77" height="3.77" rx="0.27" transform="translate(575.35 1214.25) rotate(-77.62)"/><rect class="cls-8" x="1030.16" y="251.11" width="3.77" height="3.77" rx="0.27" transform="translate(563.67 1206.8) rotate(-77.62)"/><rect class="cls-8" x="1034.79" y="252.12" width="3.77" height="3.77" rx="0.27" transform="translate(566.32 1212.12) rotate(-77.62)"/><rect class="cls-10" x="1035.66" y="248.62" width="3.78" height="3.78" rx="0.27" transform="translate(575.2 1212.54) rotate(-77.91)"/><rect class="cls-8" x="1044.45" y="254.24" width="3.77" height="3.77" rx="0.27" transform="translate(571.84 1223.22) rotate(-77.62)"/><rect class="cls-8" x="1048.84" y="255.2" width="3.77" height="3.77" rx="0.27" transform="translate(574.35 1228.26) rotate(-77.62)"/><rect class="cls-8" x="1053.24" y="256.16" width="3.77" height="3.77" rx="0.27" transform="translate(576.86 1233.32) rotate(-77.62)"/><rect class="cls-8" x="1057.63" y="257.13" width="3.77" height="3.77" rx="0.27" transform="translate(579.37 1238.36) rotate(-77.62)"/><rect class="cls-8" x="1043.48" y="258.69" width="3.77" height="3.77" rx="0.27" transform="translate(566.73 1225.76) rotate(-77.62)"/><rect class="cls-8" x="1047.87" y="259.65" width="3.77" height="3.77" rx="0.27" transform="translate(569.24 1230.81) rotate(-77.62)"/><rect class="cls-8" x="1052.26" y="260.61" width="3.77" height="3.77" rx="0.27" transform="translate(571.75 1235.85) rotate(-77.62)"/><rect class="cls-8" x="1056.66" y="261.58" width="3.77" height="3.77" rx="0.27" transform="translate(574.25 1240.91) rotate(-77.62)"/><rect class="cls-8" x="1042.5" y="263.13" width="3.77" height="3.77" rx="0.27" transform="translate(561.62 1228.29) rotate(-77.62)"/><rect class="cls-8" x="1046.9" y="264.1" width="3.77" height="3.77" rx="0.27" transform="translate(564.13 1233.35) rotate(-77.62)"/><rect class="cls-8" x="1051.29" y="265.07" width="3.77" height="3.77" rx="0.27" transform="translate(566.63 1238.4) rotate(-77.62)"/><rect class="cls-8" x="1055.69" y="266.03" width="3.77" height="3.77" rx="0.27" transform="translate(569.15 1243.45) rotate(-77.62)"/><rect class="cls-8" x="1041.52" y="267.58" width="3.77" height="3.77" rx="0.27" transform="translate(556.51 1230.84) rotate(-77.62)"/><rect class="cls-8" x="1045.91" y="268.55" width="3.77" height="3.77" rx="0.27" transform="translate(559.01 1235.89) rotate(-77.62)"/><rect class="cls-8" x="1050.31" y="269.51" width="3.77" height="3.77" rx="0.27" transform="translate(561.53 1240.94) rotate(-77.62)"/><rect class="cls-8" x="1052.01" y="272.63" width="8.19" height="3.77" rx="0.27" transform="translate(561.55 1247.21) rotate(-77.62)"/><rect class="cls-8" x="1042.74" y="270.27" width="3.77" height="8.26" rx="0.27" transform="translate(552.64 1235.9) rotate(-77.62)"/><rect class="cls-8" x="1049.33" y="273.96" width="3.77" height="3.77" rx="0.27" transform="translate(556.41 1243.48) rotate(-77.62)"/><rect class="cls-8" x="1029.19" y="255.55" width="3.77" height="3.77" rx="0.27" transform="translate(558.57 1209.34) rotate(-77.62)"/><rect class="cls-8" x="1033.82" y="256.57" width="3.77" height="3.77" rx="0.27" transform="translate(561.21 1214.66) rotate(-77.62)"/><rect class="cls-8" x="1038.43" y="257.58" width="3.77" height="3.77" rx="0.27" transform="translate(563.85 1219.97) rotate(-77.62)"/><rect class="cls-10" x="1028.2" y="260.78" width="3.78" height="3.78" rx="0.27" transform="translate(557.42 1214.86) rotate(-77.91)"/><rect class="cls-8" x="1026.28" y="268.77" width="3.77" height="3.77" rx="0.27" transform="translate(543.37 1216.88) rotate(-77.62)"/><rect class="cls-8" x="1030.91" y="269.78" width="3.77" height="3.77" rx="0.27" transform="translate(546.02 1222.2) rotate(-77.62)"/><rect class="cls-8" x="1035.53" y="270.8" width="3.77" height="3.77" rx="0.27" transform="translate(548.65 1227.51) rotate(-77.62)"/><path class="cls-9" d="M1050.8,250.68a1.17,1.17,0,1,1-2.29-.5,1.17,1.17,0,0,1,1.39-.89h0A1.17,1.17,0,0,1,1050.8,250.68Z"/><path class="cls-9" d="M1055,251.6a1.17,1.17,0,1,1-2.29-.5,1.17,1.17,0,0,1,1.39-.89h0A1.17,1.17,0,0,1,1055,251.6Z"/><path class="cls-9" d="M1059.2,252.52a1.17,1.17,0,1,1-2.29-.5,1.17,1.17,0,0,1,1.39-.89h0A1.17,1.17,0,0,1,1059.2,252.52Z"/><path class="cls-11" d="M1133.48,288.26c1.13,3.88-1.39,7-5.28,8.1h0c-3.89,1.13-7.67-.14-8.8-4l-3.32-11.48c-1.13-3.89,1.44-6.82,5.33-7.94h0c3.88-1.13,7.62,0,8.74,3.86Z"/><path d="M1125,284.73l-3.44-11.86-.35.1,3.44,11.87a17.86,17.86,0,0,1-7.35.31l.12.4a16.31,16.31,0,0,0,7.32-.35h0l.19-.06h.17a16.35,16.35,0,0,0,6.39-3.63l-.11-.4A17.91,17.91,0,0,1,1125,284.73Z"/><path d="M1125.43,281.42a1.5,1.5,0,0,1-1,1.85h0a1.48,1.48,0,0,1-1.85-1h0l-1.31-4.52a1.49,1.49,0,0,1,1-1.85h0a1.5,1.5,0,0,1,1.86,1Z"/><path d="M1125.08,281.12a1.25,1.25,0,0,1-.85,1.55h0a1.26,1.26,0,0,1-1.55-.85l-1.09-3.79a1.25,1.25,0,0,1,.84-1.54h0a1.22,1.22,0,0,1,1.54.83v0Z"/><path class="cls-12" d="M838.39,302.49h0l.83-4.49a2.75,2.75,0,0,0-2.2-3.2l-16.37-3a2.75,2.75,0,0,0-3.2,2.2l-.83,4.5h0a.36.36,0,0,0-.42.29h0l-.58,3.11a.37.37,0,0,0,.29.41h0l-.13.74h0a.35.35,0,0,0-.41.28h0l-.58,3.12a.35.35,0,0,0,.28.41h0l-5,27.25a2.74,2.74,0,0,0,2.18,3.19h0l16.37,3a2.74,2.74,0,0,0,3.19-2.18v0l5.54-29.89h0a.38.38,0,0,0,.42-.29l.93-5a.38.38,0,0,0-.32-.43Z"/><rect class="cls-13" x="802.91" y="306.51" width="43.34" height="19.28" rx="3.35" transform="translate(363.72 1069.47) rotate(-79.52)"/><path class="cls-14" d="M824.17,293.84l8.72,1.62h0a.8.8,0,0,1-.93.64l-7.16-1.33a.8.8,0,0,1-.64-.93h0Z"/><path class="cls-14" d="M811.6,331.78l19.5,3.61h0l-.25,1.38a3.08,3.08,0,0,1-3.59,2.47h0l-13.44-2.48a3.08,3.08,0,0,1-2.47-3.59h0l.26-1.41Z"/><circle class="cls-6" cx="820.92" cy="335.84" r="1.16"/><line class="cls-15" x1="821.27" y1="305.53" x2="831.34" y2="318.6"/><line class="cls-15" x1="822.15" y1="315.35" x2="828.74" y2="323.2"/><line class="cls-15" x1="825.9" y1="308.91" x2="830.66" y2="314.98"/><circle class="cls-16" cx="1104.14" cy="469.25" r="8.36"/><path class="cls-17" d="M1105.12,474.57a5.4,5.4,0,1,0-6.3-4.34A5.4,5.4,0,0,0,1105.12,474.57Z"/><path class="cls-18" d="M1091.38,466.25a13.24,13.24,0,0,0-.35,3.13l2.22.82a8.3,8.3,0,0,0,.14,1,.66.66,0,0,0,.07.36l-1.87,1.45a12.53,12.53,0,0,0,1.26,2.88l2.33-.4a9.43,9.43,0,0,0,.88,1.1l-.9,2.19a13.26,13.26,0,0,0,2.54,1.86l1.82-1.51a12.14,12.14,0,0,0,1.3.52l.32,2.34a13.23,13.23,0,0,0,3.13.34l.82-2.21a5.36,5.36,0,0,0,1-.14l.36-.07,1.44,1.87a13.26,13.26,0,0,0,2.89-1.26l-.4-2.34a10.25,10.25,0,0,0,1.1-.87l2.18.89a12.94,12.94,0,0,0,1.87-2.53l-1.51-1.82a9.87,9.87,0,0,0,.51-1.31l2.35-.31a13.77,13.77,0,0,0,.34-3.13l-2.21-.83a5.48,5.48,0,0,0-.14-1,1.47,1.47,0,0,0-.08-.35l1.87-1.45a13.15,13.15,0,0,0-1.25-2.88l-2.34.39a13,13,0,0,0-.87-1.09l.89-2.19a12.5,12.5,0,0,0-2.53-1.86l-1.83,1.5a10.3,10.3,0,0,0-1.3-.51l-.32-2.34a13.1,13.1,0,0,0-3.12-.35l-.83,2.22a8.3,8.3,0,0,0-1,.14l-.35.07-1.45-1.87a13.26,13.26,0,0,0-2.89,1.26l.4,2.33a11.46,11.46,0,0,0-1.1.88l-2.18-.9a13.31,13.31,0,0,0-1.87,2.54l1.51,1.82a9.87,9.87,0,0,0-.51,1.31Zm12-4.67a7.71,7.71,0,1,1-6.94,8.41,7.71,7.71,0,0,1,6.94-8.41h0Z"/><path class="cls-14" d="M1110.82,468.62a6.71,6.71,0,1,0-6,7.31h0A6.72,6.72,0,0,0,1110.82,468.62Zm-11.66,1.55a5.07,5.07,0,1,1,5.9,4.07h0a5.06,5.06,0,0,1-5.9-4.05v0Z"/><path class="cls-6" d="M877.9,252.89a2.53,2.53,0,1,0,3.57.22h0A2.53,2.53,0,0,0,877.9,252.89Z"/><path class="cls-6" d="M880.06,247a7.73,7.73,0,0,0-5.64,1.95,1.46,1.46,0,0,0-.15,2.06l0,0a1.48,1.48,0,0,0,2.09.13h0a4.85,4.85,0,0,1,6.82.42,1.5,1.5,0,0,0,1,.49,1.44,1.44,0,0,0,1.07-.36,1.48,1.48,0,0,0,.13-2.09h0A7.75,7.75,0,0,0,880.06,247Z"/><path class="cls-6" d="M880.35,242.14a12.61,12.61,0,0,0-9.16,3.16,1.49,1.49,0,0,0,2,2.21h0a9.7,9.7,0,0,1,13.69.83h0a1.47,1.47,0,0,0,1,.5,1.51,1.51,0,0,0,1.07-.37,1.48,1.48,0,0,0,.12-2.09h0A12.58,12.58,0,0,0,880.35,242.14Z"/><path class="cls-6" d="M892.72,243.16A17.54,17.54,0,0,0,868,241.64a1.48,1.48,0,0,0,1.82,2.34l.13-.12a14.56,14.56,0,0,1,20.57,1.24l0,0a1.49,1.49,0,1,0,2.22-2Z"/><circle class="cls-19" cx="703.72" cy="381.71" r="6.97"/><path class="cls-20" d="M1070.54,367.51a7,7,0,0,1,7.38-6.53,7.14,7.14,0,0,1,2.49.63v-.47a11.68,11.68,0,0,1,23.31-.07,5.38,5.38,0,0,1,2.78-.59,5.31,5.31,0,0,1,3.4,1.52,3.52,3.52,0,0,1,2.83-1.14"/><circle class="cls-19" cx="851.26" cy="388.67" r="3.53"/><circle class="cls-19" cx="754.36" cy="287.52" r="3.53"/><circle class="cls-19" cx="1113.2" cy="218.02" r="3.53"/></svg>