<svg id="Layer_1" data-name="Layer 1" xmlns="http://www.w3.org/2000/svg" viewBox="0 0 1140 701.76"><defs><style>.cls-1,.cls-24,.cls-28,.cls-31{fill:#fff;}.cls-10,.cls-11,.cls-17,.cls-18,.cls-19,.cls-2,.cls-20,.cls-22,.cls-23,.cls-24,.cls-25,.cls-27,.cls-3,.cls-31,.cls-34,.cls-4,.cls-5,.cls-8{stroke:#fff;}.cls-10,.cls-11,.cls-12,.cls-14,.cls-17,.cls-18,.cls-19,.cls-2,.cls-20,.cls-21,.cls-22,.cls-23,.cls-24,.cls-25,.cls-26,.cls-27,.cls-28,.cls-29,.cls-3,.cls-30,.cls-31,.cls-32,.cls-33,.cls-34,.cls-35,.cls-36,.cls-37,.cls-38,.cls-4,.cls-5,.cls-6,.cls-8,.cls-9{stroke-miterlimit:10;}.cls-2,.cls-3{stroke-width:1.05px;}.cls-10,.cls-12,.cls-15,.cls-21,.cls-27,.cls-29,.cls-3,.cls-6,.cls-9{fill:#f7c910;}.cls-11,.cls-14,.cls-16,.cls-17,.cls-18,.cls-19,.cls-20,.cls-22,.cls-25,.cls-26,.cls-30,.cls-32,.cls-33,.cls-34,.cls-35,.cls-36,.cls-37,.cls-38,.cls-4,.cls-5,.cls-8{fill:none;}.cls-10,.cls-4{stroke-width:1.48px;}.cls-5,.cls-6{stroke-width:1.72px;}.cls-28,.cls-29,.cls-30,.cls-32,.cls-35,.cls-36,.cls-6{stroke:#221f1f;}.cls-7{fill:#221f1f;}.cls-8{stroke-width:1.42px;}.cls-12,.cls-21,.cls-9{stroke:#000;}.cls-9{stroke-width:0.96px;}.cls-11,.cls-12{stroke-width:0.98px;}.cls-13{fill:#231f20;}.cls-14{stroke:#231f20;stroke-width:0.44px;}.cls-14,.cls-17,.cls-18,.cls-19,.cls-20,.cls-24{stroke-linecap:round;}.cls-17{stroke-width:1.79px;}.cls-18{stroke-width:2.01px;}.cls-19{stroke-width:2px;}.cls-20{stroke-width:2.45px;}.cls-21{stroke-width:0.59px;}.cls-22,.cls-23{stroke-width:2.16px;}.cls-24{stroke-width:2.16px;}.cls-25{stroke-width:2px;}.cls-26,.cls-37,.cls-38{stroke:#fffdfd;}.cls-26,.cls-29,.cls-32,.cls-33,.cls-34{stroke-width:2.01px;}.cls-27,.cls-28,.cls-30,.cls-31,.cls-37{stroke-width:1.68px;}.cls-33{stroke:#fdf4f8;}.cls-35{stroke-width:2.03px;}.cls-36{stroke-width:1.47px;}.cls-38{stroke-width:1.42px;}</style></defs><title>gx-index-rocket-white</title><path class="cls-1" d="M251.81,335.42l-10.05-14.25a.85.85,0,0,0-1.4,1l9.69,14.5a1.15,1.15,0,0,0-.07,1.24l10,13.6c.27.39.95.38,1.54,0s.83-1,.57-1.43L253,335.8A1.17,1.17,0,0,0,251.81,335.42Z"/><path class="cls-1" d="M294.84,329.18l5.59-16.51a.85.85,0,0,1,1.62.52l-5.18,16.65a1.16,1.16,0,0,1,.42,1.17l-5.73,15.88c-.15.45-.81.64-1.48.42s-1.1-.76-.95-1.21l4.69-16.22A1.17,1.17,0,0,1,294.84,329.18Z"/><path class="cls-2" d="M300.35,346.27l-48.81,7.08,2.53-6.2a1.06,1.06,0,0,1,.82-.64l40.3-5.84a1.05,1.05,0,0,1,1,.38Z"/><path class="cls-3" d="M251.73,349.78h49.32a0,0,0,0,1,0,0v4.35a1.93,1.93,0,0,1-1.93,1.93H253.66a1.93,1.93,0,0,1-1.93-1.93v-4.35A0,0,0,0,1,251.73,349.78Z" transform="translate(-47.75 43.28) rotate(-8.24)"/><path d="M275.74,354.41,257,357.13a1.38,1.38,0,0,1-1.57-1.17h0a1.38,1.38,0,0,1,1.17-1.57l18.76-2.72a1.39,1.39,0,0,1,1.57,1.17h0A1.38,1.38,0,0,1,275.74,354.41Z"/><circle cx="286.88" cy="351.23" r="1.22"/><path d="M293.05,350.34a1.22,1.22,0,1,0-1,1.37A1.21,1.21,0,0,0,293.05,350.34Z"/><circle cx="296.81" cy="349.79" r="1.22"/><path class="cls-4" d="M950.39,356.55H1016a4.08,4.08,0,0,1,4.08,4.08v46.46a0,0,0,0,1,0,0H946.31a0,0,0,0,1,0,0V360.63A4.08,4.08,0,0,1,950.39,356.55Z" transform="translate(10.01 -24.85) rotate(1.46)"/><path class="cls-5" d="M1028.58,430.59l-93.2-2.37a.82.82,0,0,1-.71-1.2l11-20.88,73.73,1.87,9.93,21.42A.81.81,0,0,1,1028.58,430.59Z"/><rect class="cls-4" x="950.78" y="360.55" width="64.82" height="42.53" rx="2.8" transform="matrix(1, 0.03, -0.03, 1, 10.01, -24.85)"/><polygon class="cls-6" points="979.29 414.07 979.49 411.35 975.59 411.25 975.26 413.97 979.29 414.07"/><polygon class="cls-6" points="987.34 414.27 987.28 411.55 983.38 411.45 983.32 414.17 987.34 414.27"/><polygon class="cls-6" points="1008.24 417.71 1012.4 417.82 1011.5 414.89 1007.47 414.78 1008.24 417.71"/><polygon class="cls-6" points="975.26 413.97 975.59 411.25 971.7 411.15 971.24 413.86 975.26 413.97"/><polygon class="cls-6" points="967.21 413.76 967.8 411.05 963.9 410.95 963.19 413.66 967.21 413.76"/><polygon class="cls-6" points="1003.45 414.68 1002.86 411.94 998.96 411.85 999.42 414.58 1003.45 414.68"/><polygon class="cls-6" points="1007.47 414.78 1006.75 412.04 1002.86 411.94 1003.45 414.68 1007.47 414.78"/><polygon class="cls-6" points="963.19 413.66 963.9 410.95 960.01 410.86 959.16 413.56 963.19 413.66"/><polygon class="cls-6" points="991.37 414.38 991.17 411.65 987.28 411.55 987.34 414.27 991.37 414.38"/><polygon class="cls-6" points="1011.5 414.89 1010.65 412.14 1006.75 412.04 1007.47 414.78 1011.5 414.89"/><polygon class="cls-6" points="999.42 414.58 998.96 411.85 995.07 411.75 995.39 414.48 999.42 414.58"/><polygon class="cls-6" points="995.39 414.48 995.07 411.75 991.17 411.65 991.37 414.38 995.39 414.48"/><polygon class="cls-6" points="983.32 414.17 983.38 411.45 979.49 411.35 979.29 414.07 983.32 414.17"/><polygon class="cls-6" points="955.13 413.45 951.11 413.35 949.92 416.23 954.09 416.34 955.13 413.45"/><polygon class="cls-6" points="956.11 410.76 952.22 410.66 951.11 413.35 955.13 413.45 956.11 410.76"/><polygon class="cls-6" points="959.16 413.56 960.01 410.86 956.11 410.76 955.13 413.45 959.16 413.56"/><polygon class="cls-6" points="948.65 419.32 947.29 422.64 951.76 422.75 952.97 419.43 948.65 419.32"/><polygon class="cls-6" points="954.09 416.34 949.92 416.23 948.65 419.32 952.97 419.43 954.09 416.34"/><polygon class="cls-6" points="952.97 419.43 951.76 422.75 956.24 422.87 957.28 419.54 952.97 419.43"/><polygon class="cls-6" points="971.24 413.86 971.7 411.15 967.8 411.05 967.21 413.76 971.24 413.86"/><polygon class="cls-6" points="970.75 416.76 971.24 413.86 967.21 413.76 966.58 416.66 970.75 416.76"/><polygon class="cls-6" points="966.58 416.66 967.21 413.76 963.19 413.66 962.42 416.55 966.58 416.66"/><polygon class="cls-6" points="974.91 416.87 975.26 413.97 971.24 413.86 970.75 416.76 974.91 416.87"/><polygon class="cls-6" points="959.16 413.56 955.13 413.45 954.09 416.34 958.25 416.44 959.16 413.56"/><polygon class="cls-6" points="1009.05 420.86 1013.37 420.96 1012.4 417.82 1008.24 417.71 1009.05 420.86"/><polygon class="cls-6" points="962.42 416.55 963.19 413.66 959.16 413.56 958.25 416.44 962.42 416.55"/><polygon class="cls-6" points="954.09 416.34 952.97 419.43 957.28 419.54 958.25 416.44 954.09 416.34"/><polygon class="cls-6" points="999.9 417.5 999.42 414.58 995.39 414.48 995.74 417.4 999.9 417.5"/><polygon class="cls-6" points="995.74 417.4 995.39 414.48 991.37 414.38 991.57 417.29 995.74 417.4"/><polygon class="cls-6" points="1008.24 417.71 1007.47 414.78 1003.45 414.68 1004.07 417.61 1008.24 417.71"/><polygon class="cls-6" points="983.24 417.08 983.32 414.17 979.29 414.07 979.08 416.97 983.24 417.08"/><polygon class="cls-6" points="991.57 417.29 991.37 414.38 987.34 414.27 987.41 417.19 991.57 417.29"/><polygon class="cls-6" points="987.41 417.19 987.34 414.27 983.32 414.17 983.24 417.08 987.41 417.19"/><polygon class="cls-6" points="979.08 416.97 979.29 414.07 975.26 413.97 974.91 416.87 979.08 416.97"/><polygon class="cls-6" points="991.57 417.29 991.8 420.42 996.11 420.53 995.74 417.4 991.57 417.29"/><polygon class="cls-6" points="995.74 417.4 996.11 420.53 1000.42 420.64 999.9 417.5 995.74 417.4"/><polygon class="cls-6" points="958.25 416.44 957.28 419.54 961.6 419.65 962.42 416.55 958.25 416.44"/><polygon class="cls-6" points="999.9 417.5 1000.42 420.64 1004.74 420.75 1004.07 417.61 999.9 417.5"/><polygon class="cls-6" points="983.24 417.08 983.17 420.2 987.48 420.31 987.41 417.19 983.24 417.08"/><polygon class="cls-6" points="1004.07 417.61 1004.74 420.75 1009.05 420.86 1008.24 417.71 1004.07 417.61"/><polygon class="cls-6" points="987.41 417.19 987.48 420.31 991.8 420.42 991.57 417.29 987.41 417.19"/><polygon class="cls-6" points="966.58 416.66 965.91 419.76 970.23 419.87 970.75 416.76 966.58 416.66"/><polygon class="cls-6" points="962.42 416.55 961.6 419.65 965.91 419.76 966.58 416.66 962.42 416.55"/><polygon class="cls-6" points="979.08 416.97 978.85 420.09 983.17 420.2 983.24 417.08 979.08 416.97"/><polygon class="cls-6" points="974.91 416.87 974.54 419.98 978.85 420.09 979.08 416.97 974.91 416.87"/><polygon class="cls-6" points="970.75 416.76 970.23 419.87 974.54 419.98 974.91 416.87 970.75 416.76"/><polygon class="cls-6" points="1004.07 417.61 1003.45 414.68 999.42 414.58 999.9 417.5 1004.07 417.61"/><polygon class="cls-6" points="956.11 410.76 957.12 408 953.35 407.9 952.22 410.66 956.11 410.76"/><polygon class="cls-6" points="952.22 410.66 948.62 410.57 947.39 413.26 951.11 413.35 952.22 410.66"/><polygon class="cls-6" points="953.35 407.9 949.88 407.81 948.62 410.57 952.22 410.66 953.35 407.9"/><polygon class="cls-6" points="951.11 413.35 947.39 413.26 946.08 416.14 949.92 416.23 951.11 413.35"/><polygon class="cls-6" points="949.92 416.23 946.08 416.14 944.67 419.22 948.65 419.32 949.92 416.23"/><polygon class="cls-6" points="948.65 419.32 944.67 419.22 943.16 422.53 947.29 422.64 948.65 419.32"/><polygon class="cls-6" points="1015.52 414.99 1016.57 417.93 1020.25 418.02 1019.08 415.08 1015.52 414.99"/><polygon class="cls-6" points="1017.68 421.07 1021.5 421.17 1020.25 418.02 1016.57 417.93 1017.68 421.07"/><polygon class="cls-6" points="1018.88 424.46 1022.84 424.56 1021.5 421.17 1017.68 421.07 1018.88 424.46"/><polygon class="cls-6" points="987.28 411.55 987.21 408.76 983.45 408.66 983.38 411.45 987.28 411.55"/><polygon class="cls-6" points="1015.52 414.99 1019.08 415.08 1017.99 412.33 1014.55 412.24 1015.52 414.99"/><polygon class="cls-6" points="1013.37 420.96 1017.68 421.07 1016.57 417.93 1012.4 417.82 1013.37 420.96"/><polygon class="cls-6" points="960.01 410.86 960.88 408.09 957.12 408 956.11 410.76 960.01 410.86"/><polygon class="cls-6" points="1010.65 412.14 1011.5 414.89 1015.52 414.99 1014.55 412.24 1010.65 412.14"/><polygon class="cls-6" points="1017.99 412.33 1016.88 409.51 1013.55 409.43 1014.55 412.24 1017.99 412.33"/><polygon class="cls-6" points="1014.55 412.24 1013.55 409.43 1009.79 409.33 1010.65 412.14 1014.55 412.24"/><polygon class="cls-6" points="1000.42 420.64 1000.99 424 1005.46 424.12 1004.74 420.75 1000.42 420.64"/><polygon class="cls-6" points="1014.41 424.34 1018.88 424.46 1017.68 421.07 1013.37 420.96 1014.41 424.34"/><polygon class="cls-6" points="1010.65 412.14 1009.79 409.33 1006.02 409.24 1006.75 412.04 1010.65 412.14"/><polygon class="cls-6" points="1009.05 420.86 1009.93 424.23 1014.41 424.34 1013.37 420.96 1009.05 420.86"/><polygon class="cls-6" points="1004.74 420.75 1005.46 424.12 1009.93 424.23 1009.05 420.86 1004.74 420.75"/><polygon class="cls-6" points="1012.4 417.82 1016.57 417.93 1015.52 414.99 1011.5 414.89 1012.4 417.82"/><polygon class="cls-6" points="975.59 411.25 975.93 408.47 972.16 408.38 971.7 411.15 975.59 411.25"/><polygon class="cls-6" points="1006.75 412.04 1006.02 409.24 1002.26 409.14 1002.86 411.94 1006.75 412.04"/><polygon class="cls-6" points="971.7 411.15 972.16 408.38 968.4 408.28 967.8 411.05 971.7 411.15"/><polygon class="cls-6" points="983.38 411.45 983.45 408.66 979.69 408.57 979.49 411.35 983.38 411.45"/><polygon class="cls-6" points="967.8 411.05 968.4 408.28 964.64 408.19 963.9 410.95 967.8 411.05"/><polygon class="cls-6" points="963.9 410.95 964.64 408.19 960.88 408.09 960.01 410.86 963.9 410.95"/><polygon class="cls-6" points="979.49 411.35 979.69 408.57 975.93 408.47 975.59 411.25 979.49 411.35"/><polygon class="cls-6" points="1002.86 411.94 1002.26 409.14 998.5 409.05 998.96 411.85 1002.86 411.94"/><polygon class="cls-6" points="998.96 411.85 998.5 409.05 994.74 408.95 995.07 411.75 998.96 411.85"/><polygon class="cls-6" points="991.17 411.65 990.98 408.86 987.21 408.76 987.28 411.55 991.17 411.65"/><polygon class="cls-7" points="1000.35 421.11 996 421 991.64 420.89 987.29 420.78 982.93 420.67 978.58 420.56 974.22 420.45 969.87 420.34 965.51 420.23 961.16 420.12 956.8 420 955.75 423.33 960.27 423.44 964.78 423.56 969.3 423.67 973.82 423.79 978.34 423.9 982.85 424.02 987.37 424.13 991.89 424.25 996.4 424.36 1000.92 424.48 1000.35 421.11"/><polygon class="cls-6" points="995.07 411.75 994.74 408.95 990.98 408.86 991.17 411.65 995.07 411.75"/><rect class="cls-1" x="934.02" y="429.41" width="95.92" height="1.36" transform="translate(11.24 -24.8) rotate(1.46)"/><rect class="cls-8" x="993.31" y="203.87" width="36.04" height="105.01" rx="1.23" transform="translate(544.14 1189.25) rotate(-77.62)"/><rect class="cls-9" x="965.87" y="231.16" width="3.77" height="3.77" rx="0.27" transform="translate(532.69 1128.36) rotate(-77.62)"/><rect class="cls-9" x="964.65" y="236.72" width="3.77" height="3.77" rx="0.27" transform="translate(526.31 1131.53) rotate(-77.62)"/><rect class="cls-9" x="968.95" y="237.66" width="3.77" height="3.77" rx="0.27" transform="translate(528.76 1136.46) rotate(-77.62)"/><rect class="cls-9" x="973.24" y="238.6" width="3.77" height="3.77" rx="0.27" transform="translate(531.21 1141.4) rotate(-77.62)"/><rect class="cls-9" x="977.54" y="239.55" width="3.77" height="3.77" rx="0.27" transform="translate(533.67 1146.34) rotate(-77.62)"/><rect class="cls-9" x="981.83" y="240.49" width="3.77" height="3.77" rx="0.27" transform="translate(536.12 1151.27) rotate(-77.62)"/><rect class="cls-9" x="986.13" y="241.43" width="3.77" height="3.77" rx="0.27" transform="translate(538.58 1156.21) rotate(-77.62)"/><rect class="cls-9" x="990.42" y="242.37" width="3.77" height="3.77" rx="0.27" transform="translate(541.03 1161.14) rotate(-77.62)"/><rect class="cls-9" x="994.72" y="243.32" width="3.77" height="3.77" rx="0.27" transform="translate(543.48 1166.08) rotate(-77.62)"/><rect class="cls-9" x="999.01" y="244.26" width="3.77" height="3.77" rx="0.27" transform="translate(545.94 1171.02) rotate(-77.62)"/><rect class="cls-9" x="1003.31" y="245.2" width="3.77" height="3.77" rx="0.27" transform="translate(548.39 1175.95) rotate(-77.62)"/><rect class="cls-9" x="1007.61" y="246.14" width="3.77" height="3.77" rx="0.27" transform="translate(550.85 1180.89) rotate(-77.62)"/><rect class="cls-9" x="1011.9" y="247.09" width="3.77" height="3.77" rx="0.27" transform="translate(553.3 1185.83) rotate(-77.62)"/><rect class="cls-9" x="1016.2" y="248.03" width="3.77" height="3.77" rx="0.27" transform="translate(555.75 1190.76) rotate(-77.62)"/><rect class="cls-9" x="1022.37" y="247.46" width="3.77" height="7.62" rx="0.27" transform="translate(559.28 1197.86) rotate(-77.62)"/><rect class="cls-9" x="964.53" y="240.48" width="3.77" height="5.52" rx="0.27" transform="translate(521.69 1135.05) rotate(-77.62)"/><rect class="cls-9" x="964.11" y="244.46" width="3.77" height="6.65" rx="0.27" transform="translate(516.92 1138.22) rotate(-77.62)"/><rect class="cls-9" x="964.24" y="248" width="3.77" height="8.9" rx="0.27" transform="translate(512.46 1142.01) rotate(-77.62)"/><rect class="cls-9" x="961.71" y="253.62" width="3.77" height="5.69" rx="0.27" transform="translate(506.55 1142.7) rotate(-77.62)"/><rect class="cls-9" x="969.81" y="242.51" width="3.77" height="3.77" rx="0.27" transform="translate(524.7 1141.12) rotate(-77.62)"/><rect class="cls-9" x="969.9" y="247.17" width="3.77" height="3.77" rx="0.27" transform="translate(520.22 1144.86) rotate(-77.62)"/><rect class="cls-9" x="974.34" y="248.14" width="3.77" height="3.77" rx="0.27" transform="translate(522.76 1149.96) rotate(-77.62)"/><rect class="cls-9" x="971.2" y="252.09" width="3.77" height="3.77" rx="0.27" transform="translate(516.43 1150) rotate(-77.62)"/><rect class="cls-9" x="967.03" y="255.75" width="3.77" height="3.77" rx="0.27" transform="translate(509.59 1148.8) rotate(-77.62)"/><rect class="cls-9" x="971.47" y="256.72" width="3.77" height="3.77" rx="0.27" transform="translate(512.12 1153.91) rotate(-77.62)"/><rect class="cls-9" x="975.87" y="257.69" width="3.77" height="3.77" rx="0.27" transform="translate(514.64 1158.96) rotate(-77.62)"/><rect class="cls-9" x="991.27" y="249.77" width="3.77" height="26.37" rx="0.27" transform="translate(523.44 1176.66) rotate(-77.62)"/><rect class="cls-9" x="975.66" y="253.07" width="3.77" height="3.77" rx="0.27" transform="translate(518.98 1155.14) rotate(-77.62)"/><rect class="cls-9" x="980.13" y="254.05" width="3.77" height="3.77" rx="0.27" transform="translate(521.54 1160.27) rotate(-77.62)"/><rect class="cls-9" x="984.6" y="255.04" width="3.77" height="3.77" rx="0.27" transform="translate(524.09 1165.41) rotate(-77.62)"/><rect class="cls-9" x="989.07" y="256.02" width="3.77" height="3.77" rx="0.27" transform="translate(526.64 1170.54) rotate(-77.62)"/><rect class="cls-9" x="993.54" y="257" width="3.77" height="3.77" rx="0.27" transform="translate(529.2 1175.68) rotate(-77.62)"/><rect class="cls-9" x="998.01" y="257.98" width="3.77" height="3.77" rx="0.27" transform="translate(531.75 1180.81) rotate(-77.62)"/><rect class="cls-9" x="1002.48" y="258.96" width="3.77" height="3.77" rx="0.27" transform="translate(534.3 1185.95) rotate(-77.62)"/><rect class="cls-9" x="1006.95" y="259.94" width="3.77" height="3.77" rx="0.27" transform="translate(536.86 1191.08) rotate(-77.62)"/><rect class="cls-9" x="1006.96" y="264.51" width="3.77" height="3.77" rx="0.27" transform="translate(532.4 1194.69) rotate(-77.62)"/><rect class="cls-9" x="1011.43" y="265.49" width="3.77" height="3.77" rx="0.27" transform="translate(534.95 1199.83) rotate(-77.62)"/><rect class="cls-9" x="1015.91" y="266.48" width="3.77" height="3.77" rx="0.27" transform="translate(537.51 1204.97) rotate(-77.62)"/><rect class="cls-9" x="1020.38" y="267.46" width="3.77" height="3.77" rx="0.27" transform="translate(540.07 1210.11) rotate(-77.62)"/><rect class="cls-9" x="1011.42" y="260.92" width="3.77" height="3.77" rx="0.27" transform="translate(539.41 1196.22) rotate(-77.62)"/><rect class="cls-9" x="1018.61" y="259.71" width="3.77" height="9.35" rx="0.27" transform="translate(543.52 1204.49) rotate(-77.62)"/><rect class="cls-9" x="978.78" y="249.12" width="3.77" height="3.77" rx="0.27" transform="translate(525.29 1155.07) rotate(-77.62)"/><rect class="cls-9" x="983.22" y="250.09" width="3.77" height="3.77" rx="0.27" transform="translate(527.83 1160.17) rotate(-77.62)"/><rect class="cls-9" x="987.65" y="251.07" width="3.77" height="3.77" rx="0.27" transform="translate(530.36 1165.27) rotate(-77.62)"/><rect class="cls-9" x="992.09" y="252.04" width="3.77" height="3.77" rx="0.27" transform="translate(532.9 1170.37) rotate(-77.62)"/><rect class="cls-9" x="996.53" y="253.01" width="3.77" height="3.77" rx="0.27" transform="translate(535.44 1175.47) rotate(-77.62)"/><rect class="cls-9" x="1000.97" y="253.99" width="3.77" height="3.77" rx="0.27" transform="translate(537.97 1180.57) rotate(-77.62)"/><rect class="cls-9" x="1005.41" y="254.96" width="3.77" height="3.77" rx="0.27" transform="translate(540.51 1185.68) rotate(-77.62)"/><rect class="cls-9" x="1009.85" y="255.94" width="3.77" height="3.77" rx="0.27" transform="translate(543.05 1190.78) rotate(-77.62)"/><rect class="cls-9" x="1014.29" y="256.91" width="3.77" height="3.77" rx="0.27" transform="translate(545.58 1195.88) rotate(-77.62)"/><rect class="cls-9" x="974.21" y="243.48" width="3.77" height="3.77" rx="0.27" transform="translate(527.21 1146.17) rotate(-77.62)"/><rect class="cls-9" x="978.6" y="244.44" width="3.77" height="3.77" rx="0.27" transform="translate(529.72 1151.22) rotate(-77.62)"/><rect class="cls-9" x="983" y="245.41" width="3.77" height="3.77" rx="0.27" transform="translate(532.24 1156.28) rotate(-77.62)"/><rect class="cls-9" x="987.4" y="246.37" width="3.77" height="3.77" rx="0.27" transform="translate(534.75 1161.33) rotate(-77.62)"/><rect class="cls-9" x="991.8" y="247.34" width="3.77" height="3.77" rx="0.27" transform="translate(537.26 1166.38) rotate(-77.62)"/><rect class="cls-9" x="996.19" y="248.3" width="3.77" height="3.77" rx="0.27" transform="translate(539.77 1171.44) rotate(-77.62)"/><rect class="cls-9" x="1000.59" y="249.27" width="3.77" height="3.77" rx="0.27" transform="translate(542.29 1176.49) rotate(-77.62)"/><rect class="cls-9" x="1004.99" y="250.23" width="3.77" height="3.77" rx="0.27" transform="translate(544.8 1181.54) rotate(-77.62)"/><rect class="cls-9" x="1009.38" y="251.2" width="3.77" height="3.77" rx="0.27" transform="translate(547.31 1186.6) rotate(-77.62)"/><rect class="cls-9" x="1013.78" y="252.16" width="3.77" height="3.77" rx="0.27" transform="translate(549.82 1191.65) rotate(-77.62)"/><rect class="cls-9" x="1018.18" y="253.13" width="3.77" height="3.77" rx="0.27" transform="translate(552.33 1196.7) rotate(-77.62)"/><path class="cls-9" d="M1023.28,253.79a.26.26,0,0,0-.31.2l-.7,3.16a.27.27,0,0,0,.21.32l1,.22a.26.26,0,0,1,.2.32l-.85,3.9a.27.27,0,0,0,.2.32l2.33.51a.28.28,0,0,0,.32-.2l1.66-7.59a.26.26,0,0,0-.2-.31Z"/><path class="cls-9" d="M1022.31,258.21l-.52-.11-2.35-.52a.27.27,0,0,0-.32.21l-.69,3.15a.27.27,0,0,0,.2.32l2.35.52.53.11.28.06a.27.27,0,0,0,.32-.2l.69-3.16a.26.26,0,0,0-.2-.31Z"/><rect class="cls-9" x="972.72" y="232.67" width="3.77" height="3.77" rx="0.27" transform="translate(536.6 1136.23) rotate(-77.62)"/><rect class="cls-9" x="977.5" y="233.72" width="3.77" height="3.77" rx="0.27" transform="translate(539.33 1141.72) rotate(-77.62)"/><rect class="cls-9" x="982.28" y="234.77" width="3.77" height="3.77" rx="0.27" transform="translate(542.06 1147.21) rotate(-77.62)"/><rect class="cls-9" x="987.06" y="235.81" width="3.77" height="3.77" rx="0.27" transform="translate(544.79 1152.71) rotate(-77.62)"/><rect class="cls-9" x="991.93" y="236.88" width="3.77" height="3.77" rx="0.27" transform="translate(547.58 1158.31) rotate(-77.62)"/><rect class="cls-9" x="996.71" y="237.93" width="3.77" height="3.77" rx="0.27" transform="translate(550.31 1163.8) rotate(-77.62)"/><rect class="cls-9" x="1001.49" y="238.98" width="3.77" height="3.77" rx="0.27" transform="translate(553.04 1169.29) rotate(-77.62)"/><rect class="cls-9" x="1006.27" y="240.03" width="3.77" height="3.77" rx="0.27" transform="translate(555.77 1174.78) rotate(-77.62)"/><rect class="cls-9" x="1011.14" y="241.1" width="3.77" height="3.77" rx="0.27" transform="translate(558.55 1180.38) rotate(-77.62)"/><rect class="cls-9" x="1015.92" y="242.15" width="3.77" height="3.77" rx="0.27" transform="translate(561.28 1185.87) rotate(-77.62)"/><rect class="cls-9" x="1020.7" y="243.2" width="3.77" height="3.77" rx="0.27" transform="translate(564.01 1191.36) rotate(-77.62)"/><rect class="cls-9" x="1025.48" y="244.25" width="3.77" height="3.77" rx="0.27" transform="translate(566.74 1196.85) rotate(-77.62)"/><rect class="cls-9" x="1031.33" y="245.53" width="3.77" height="3.77" rx="0.27" transform="translate(570.09 1203.58) rotate(-77.62)"/><rect class="cls-9" x="1035.95" y="246.54" width="3.77" height="3.77" rx="0.27" transform="translate(572.73 1208.89) rotate(-77.62)"/><rect class="cls-9" x="1040.58" y="247.56" width="3.77" height="3.77" rx="0.27" transform="translate(575.37 1214.2) rotate(-77.62)"/><rect class="cls-9" x="1030.11" y="251.08" width="3.77" height="3.77" rx="0.27" transform="translate(563.71 1206.76) rotate(-77.62)"/><rect class="cls-9" x="1034.74" y="252.1" width="3.77" height="3.77" rx="0.27" transform="translate(566.35 1212.07) rotate(-77.62)"/><rect class="cls-9" x="1039.36" y="253.11" width="3.77" height="3.77" rx="0.27" transform="matrix(0.21, -0.98, 0.98, 0.21, 568.99, 1217.38)"/><rect class="cls-9" x="1044.4" y="254.22" width="3.77" height="3.77" rx="0.27" transform="translate(571.87 1223.17) rotate(-77.62)"/><rect class="cls-9" x="1048.79" y="255.18" width="3.77" height="3.77" rx="0.27" transform="translate(574.38 1228.22) rotate(-77.62)"/><rect class="cls-9" x="1053.19" y="256.15" width="3.77" height="3.77" rx="0.27" transform="translate(576.89 1233.27) rotate(-77.62)"/><rect class="cls-9" x="1057.58" y="257.11" width="3.77" height="3.77" rx="0.27" transform="translate(579.4 1238.32) rotate(-77.62)"/><rect class="cls-9" x="1043.42" y="258.67" width="3.77" height="3.77" rx="0.27" transform="translate(566.76 1225.71) rotate(-77.62)"/><rect class="cls-9" x="1047.82" y="259.63" width="3.77" height="3.77" rx="0.27" transform="translate(569.27 1230.76) rotate(-77.62)"/><rect class="cls-9" x="1052.21" y="260.59" width="3.77" height="3.77" rx="0.27" transform="translate(571.78 1235.81) rotate(-77.62)"/><rect class="cls-9" x="1056.6" y="261.56" width="3.77" height="3.77" rx="0.27" transform="translate(574.29 1240.86) rotate(-77.62)"/><rect class="cls-9" x="1042.45" y="263.11" width="3.77" height="3.77" rx="0.27" transform="translate(561.65 1228.25) rotate(-77.62)"/><rect class="cls-9" x="1046.84" y="264.08" width="3.77" height="3.77" rx="0.27" transform="translate(564.16 1233.3) rotate(-77.62)"/><rect class="cls-9" x="1051.23" y="265.04" width="3.77" height="3.77" rx="0.27" transform="translate(566.67 1238.35) rotate(-77.62)"/><rect class="cls-9" x="1055.63" y="266.01" width="3.77" height="3.77" rx="0.27" transform="translate(569.18 1243.4) rotate(-77.62)"/><rect class="cls-9" x="1041.47" y="267.56" width="3.77" height="3.77" rx="0.27" transform="translate(556.54 1230.79) rotate(-77.62)"/><rect class="cls-9" x="1045.86" y="268.52" width="3.77" height="3.77" rx="0.27" transform="translate(559.05 1235.84) rotate(-77.62)"/><rect class="cls-9" x="1050.26" y="269.49" width="3.77" height="3.77" rx="0.27" transform="translate(561.56 1240.89) rotate(-77.62)"/><rect class="cls-9" x="1051.97" y="272.61" width="8.19" height="3.77" rx="0.27" transform="translate(561.58 1247.17) rotate(-77.62)"/><rect class="cls-9" x="1042.69" y="270.24" width="3.77" height="8.26" rx="0.27" transform="translate(552.68 1235.86) rotate(-77.62)"/><rect class="cls-9" x="1049.28" y="273.94" width="3.77" height="3.77" rx="0.27" transform="translate(556.44 1243.43) rotate(-77.62)"/><rect class="cls-9" x="1029.14" y="255.53" width="3.77" height="3.77" rx="0.27" transform="translate(558.6 1209.3) rotate(-77.62)"/><rect class="cls-9" x="1033.76" y="256.55" width="3.77" height="3.77" rx="0.27" transform="translate(561.24 1214.61) rotate(-77.62)"/><rect class="cls-9" x="1038.38" y="257.56" width="3.77" height="3.77" rx="0.27" transform="translate(563.88 1219.92) rotate(-77.62)"/><rect class="cls-9" x="1031.84" y="265.31" width="3.77" height="3.77" rx="0.27" transform="matrix(0.21, -0.98, 0.98, 0.21, 551.16, 1219.61)"/><rect class="cls-9" x="1026.24" y="268.74" width="3.77" height="3.77" rx="0.27" transform="translate(543.41 1216.85) rotate(-77.62)"/><rect class="cls-9" x="1030.86" y="269.76" width="3.77" height="3.77" rx="0.27" transform="translate(546.05 1222.16) rotate(-77.62)"/><rect class="cls-9" x="1035.48" y="270.77" width="3.77" height="3.77" rx="0.27" transform="translate(548.69 1227.47) rotate(-77.62)"/><path class="cls-9" d="M1050.8,250.68a1.17,1.17,0,1,1-.89-1.39A1.17,1.17,0,0,1,1050.8,250.68Z"/><path class="cls-9" d="M1055,251.6a1.17,1.17,0,1,1-.89-1.39A1.17,1.17,0,0,1,1055,251.6Z"/><path class="cls-9" d="M1059.2,252.52a1.17,1.17,0,1,1-.89-1.39A1.17,1.17,0,0,1,1059.2,252.52Z"/><path class="cls-10" d="M1133.48,288.26c1.13,3.88-1.39,7-5.28,8.1h0c-3.89,1.13-7.67-.14-8.8-4l-3.32-11.48c-1.13-3.89,1.44-6.82,5.33-7.94h0c3.88-1.13,7.62,0,8.74,3.86Z"/><path d="M1125,284.73l-3.44-11.86-.35.1,3.44,11.87a17.83,17.83,0,0,1-7.35.31l.12.4a16.38,16.38,0,0,0,7.32-.35h0l.19-.06.17,0h0a16.38,16.38,0,0,0,6.39-3.63l-.11-.4A17.89,17.89,0,0,1,1125,284.73Z"/><path d="M1125.43,281.42a1.5,1.5,0,0,1-1,1.85h0a1.48,1.48,0,0,1-1.85-1l-1.31-4.52a1.49,1.49,0,0,1,1-1.85h0a1.5,1.5,0,0,1,1.86,1Z"/><path d="M1125.08,281.12a1.25,1.25,0,0,1-.85,1.55h0a1.26,1.26,0,0,1-1.55-.85l-1.09-3.79a1.24,1.24,0,0,1,.85-1.54h0a1.24,1.24,0,0,1,1.55.85Z"/><path class="cls-11" d="M838.39,302.49h0l.83-4.49a2.75,2.75,0,0,0-2.2-3.2l-16.37-3a2.75,2.75,0,0,0-3.2,2.2l-.83,4.5h0a.36.36,0,0,0-.42.29l-.58,3.11a.36.36,0,0,0,.29.41h0l-.13.74h0a.35.35,0,0,0-.41.28l-.58,3.12a.35.35,0,0,0,.29.41h0l-5,27.25a2.73,2.73,0,0,0,2.2,3.19l16.37,3a2.73,2.73,0,0,0,3.19-2.2l5.54-29.89h0a.38.38,0,0,0,.42-.29l.93-5A.38.38,0,0,0,838.39,302.49Z"/><rect class="cls-12" x="814.91" y="294.53" width="19.28" height="43.34" rx="3.35" transform="translate(71.3 -144.75) rotate(10.48)"/><path class="cls-13" d="M824,294.69h8.87a0,0,0,0,1,0,0v0a.8.8,0,0,1-.8.8h-7.28a.8.8,0,0,1-.8-.8v0A0,0,0,0,1,824,294.69Z" transform="translate(67.52 -145.81) rotate(10.48)"/><path class="cls-13" d="M811,333.59h19.83a0,0,0,0,1,0,0V335a3.08,3.08,0,0,1-3.08,3.08H814.08A3.08,3.08,0,0,1,811,335v-1.43A0,0,0,0,1,811,333.59Z" transform="translate(74.81 -143.76) rotate(10.48)"/><circle class="cls-1" cx="820.92" cy="335.84" r="1.16"/><line class="cls-14" x1="821.27" y1="305.53" x2="831.34" y2="318.6"/><line class="cls-14" x1="822.15" y1="315.35" x2="828.74" y2="323.2"/><line class="cls-14" x1="825.9" y1="308.91" x2="830.66" y2="314.98"/><circle class="cls-15" cx="1104.14" cy="469.25" r="8.36"/><path class="cls-16" d="M1105.12,474.57a5.4,5.4,0,1,0-6.3-4.34A5.41,5.41,0,0,0,1105.12,474.57Z"/><path class="cls-17" d="M1091.38,466.25a13,13,0,0,0-.35,3.13l2.22.82a8.8,8.8,0,0,0,.14,1c0,.12,0,.24.07.36l-1.87,1.45a12.58,12.58,0,0,0,1.26,2.88l2.33-.4a9.43,9.43,0,0,0,.88,1.1l-.9,2.19a13.26,13.26,0,0,0,2.54,1.86l1.82-1.51a12.14,12.14,0,0,0,1.3.52l.32,2.34a13,13,0,0,0,3.13.34l.82-2.21c.34,0,.69-.08,1-.14l.36-.07,1.44,1.87a13.38,13.38,0,0,0,2.89-1.26l-.4-2.34a10.25,10.25,0,0,0,1.1-.87l2.18.89a12.83,12.83,0,0,0,1.87-2.53l-1.51-1.82a10.44,10.44,0,0,0,.51-1.31l2.35-.31a13.59,13.59,0,0,0,.34-3.13l-2.21-.83c0-.34-.08-.68-.14-1,0-.12-.05-.23-.08-.35l1.87-1.45a13,13,0,0,0-1.25-2.88l-2.34.39a11.54,11.54,0,0,0-.87-1.09l.89-2.19a12.79,12.79,0,0,0-2.53-1.86l-1.83,1.5a9.74,9.74,0,0,0-1.3-.51l-.32-2.34a13,13,0,0,0-3.12-.35l-.83,2.22a9.09,9.09,0,0,0-1,.14l-.35.07-1.45-1.87a13.11,13.11,0,0,0-2.89,1.26l.4,2.33a11.46,11.46,0,0,0-1.1.88l-2.18-.9a13.31,13.31,0,0,0-1.87,2.54l1.51,1.82a9.87,9.87,0,0,0-.51,1.31Zm12-4.67a7.71,7.71,0,1,1-6.94,8.41A7.71,7.71,0,0,1,1103.41,461.58Z"/><path class="cls-13" d="M1110.82,468.62a6.71,6.71,0,1,0-6,7.31A6.72,6.72,0,0,0,1110.82,468.62Zm-11.66,1.55a5.07,5.07,0,1,1,5.9,4.07A5.06,5.06,0,0,1,1099.16,470.17Z"/><path class="cls-1" d="M294.44,236.68a2,2,0,1,0,2.82-.67A2.06,2.06,0,0,0,294.44,236.68Z"/><path class="cls-1" d="M294.72,231.62a6.23,6.23,0,0,0-3.91,2.83,1.2,1.2,0,1,0,2,1.25,3.88,3.88,0,0,1,2.43-1.75,3.83,3.83,0,0,1,3,.47,1.23,1.23,0,0,0,.91.14,1.17,1.17,0,0,0,.74-.53,1.2,1.2,0,0,0-.39-1.65A6.29,6.29,0,0,0,294.72,231.62Z"/><path class="cls-1" d="M293.8,227.78a10.2,10.2,0,0,0-6.35,4.61,1.2,1.2,0,0,0,2,1.25,7.86,7.86,0,0,1,10.81-2.58,1.2,1.2,0,0,0,.9.15,1.22,1.22,0,0,0,.74-.54,1.2,1.2,0,0,0-.39-1.65A10.23,10.23,0,0,0,293.8,227.78Z"/><path class="cls-1" d="M303.62,225.66a14.19,14.19,0,0,0-19.53,4.66,1.19,1.19,0,0,0,.39,1.64,1.16,1.16,0,0,0,.9.15,1.23,1.23,0,0,0,.75-.54,11.8,11.8,0,0,1,16.24-3.87,1.2,1.2,0,0,0,1.25-2Z"/><circle class="cls-18" cx="392.59" cy="382.34" r="7.02"/><path class="cls-18" d="M49.68,258.47a7,7,0,0,0-5.19-8.37,7.06,7.06,0,0,0-2.58-.11c0-.15.09-.3.12-.46a11.68,11.68,0,0,0-22.31-6.74,5.29,5.29,0,0,0-6.19-.89,3.52,3.52,0,0,0-2.38-1.9"/><circle class="cls-19" cx="216.51" cy="389.31" r="3.53"/><circle class="cls-19" cx="369.16" cy="290.3" r="3.53"/><path class="cls-1" d="M877.9,252.89a2.53,2.53,0,1,0,3.57.22A2.53,2.53,0,0,0,877.9,252.89Z"/><path class="cls-1" d="M880.06,247a7.76,7.76,0,0,0-5.64,1.95,1.46,1.46,0,0,0-.13,2.08,1.48,1.48,0,0,0,2.09.13,4.84,4.84,0,0,1,6.82.42,1.48,1.48,0,0,0,1,.49,1.44,1.44,0,0,0,1.07-.36,1.48,1.48,0,0,0,.13-2.09A7.77,7.77,0,0,0,880.06,247Z"/><path class="cls-1" d="M880.35,242.14a12.61,12.61,0,0,0-9.16,3.16,1.48,1.48,0,1,0,2,2.21,9.7,9.7,0,0,1,13.7.84,1.45,1.45,0,0,0,1,.5,1.51,1.51,0,0,0,1.07-.37,1.48,1.48,0,0,0,.12-2.09A12.6,12.6,0,0,0,880.35,242.14Z"/><path class="cls-1" d="M892.72,243.16A17.54,17.54,0,0,0,868,241.64a1.48,1.48,0,1,0,1.95,2.22,14.57,14.57,0,0,1,20.59,1.26,1.48,1.48,0,1,0,2.22-2Z"/><circle class="cls-19" cx="703.72" cy="381.71" r="6.97"/><path class="cls-18" d="M1070.54,367.51a7,7,0,0,1,7.38-6.53,7.08,7.08,0,0,1,2.49.63c0-.15,0-.31,0-.47a11.68,11.68,0,0,1,23.31-.07,5.33,5.33,0,0,1,2.78-.59,5.26,5.26,0,0,1,3.4,1.52,3.53,3.53,0,0,1,2.83-1.14"/><circle class="cls-19" cx="851.26" cy="388.67" r="3.53"/><circle class="cls-19" cx="754.36" cy="287.52" r="3.53"/><circle class="cls-19" cx="1113.2" cy="218.02" r="3.53"/><circle class="cls-15" cx="149.78" cy="349.46" r="10.84"/><path class="cls-16" d="M151.12,356.73a7.4,7.4,0,1,0-8.61-5.93A7.4,7.4,0,0,0,151.12,356.73Z"/><path class="cls-20" d="M132.32,345.35a17.39,17.39,0,0,0-.47,4.28l3,1.13c0,.46.11.94.2,1.41,0,.16.06.32.09.48l-2.55,2a17.9,17.9,0,0,0,1.72,3.95l3.19-.55a14.6,14.6,0,0,0,1.2,1.5l-1.22,3a17.71,17.71,0,0,0,3.46,2.56l2.5-2.06a17.32,17.32,0,0,0,1.78.7l.44,3.2a17.39,17.39,0,0,0,4.28.47l1.12-3a13.63,13.63,0,0,0,1.41-.19l.49-.1,2,2.56a17.82,17.82,0,0,0,3.94-1.72l-.54-3.19a14.6,14.6,0,0,0,1.5-1.2l3,1.22a17.33,17.33,0,0,0,2.55-3.47l-2.06-2.49A14.29,14.29,0,0,0,164,354l3.21-.44a18.35,18.35,0,0,0,.47-4.28l-3-1.12a14.19,14.19,0,0,0-.19-1.42c0-.16-.07-.32-.1-.48l2.56-2a18.3,18.3,0,0,0-1.72-3.94l-3.2.54a14.6,14.6,0,0,0-1.2-1.5l1.23-3a18.08,18.08,0,0,0-3.47-2.56l-2.49,2.07a14.49,14.49,0,0,0-1.79-.71l-.43-3.2a18,18,0,0,0-4.28-.47l-1.13,3a13.63,13.63,0,0,0-1.41.19l-.48.1-2-2.56a17.7,17.7,0,0,0-4,1.72l.54,3.19a17.13,17.13,0,0,0-1.5,1.2l-3-1.22a18.14,18.14,0,0,0-2.55,3.47l2.06,2.49a15.45,15.45,0,0,0-.7,1.79ZM148.78,339a10.54,10.54,0,1,1-9.5,11.5A10.54,10.54,0,0,1,148.78,339Z"/><path class="cls-13" d="M158.92,348.58a9.18,9.18,0,1,0-8.27,10A9.18,9.18,0,0,0,158.92,348.58Zm-16,2.13a6.93,6.93,0,1,1,8.08,5.57A6.95,6.95,0,0,1,143,350.71Z"/><path d="M48.05,359.57l-1.43-.7C53,346,52.38,339.66,52.37,339.6v-.09A17.12,17.12,0,0,0,35.25,322.4H33.74a17.12,17.12,0,0,0-17.12,17.11v.09a18.73,18.73,0,0,0,.47,4.77,62.81,62.81,0,0,0,5.28,14.5l-1.42.7c-6.35-12.86-6-19.42-5.91-20.09a18.71,18.71,0,0,1,18.7-18.67h1.51A18.69,18.69,0,0,1,54,339.48C54,340.15,54.39,346.71,48.05,359.57Z"/><path class="cls-1" d="M48.05,360a.48.48,0,0,1-.18,0l-1.43-.71a.4.4,0,0,1-.18-.54c6.26-12.7,5.71-19,5.71-19.05v-.13A16.71,16.71,0,0,0,35.25,322.8H33.74A16.71,16.71,0,0,0,17,339.51v.14a18.32,18.32,0,0,0,.47,4.64,62.75,62.75,0,0,0,5.24,14.4.4.4,0,0,1-.18.54l-1.42.71a.47.47,0,0,1-.31,0,.42.42,0,0,1-.24-.21c-6.38-12.95-6-19.6-5.95-20.31a19.12,19.12,0,0,1,19.11-19h1.51a19.12,19.12,0,0,1,19.11,19.07c.06.69.43,7.34-6,20.28a.43.43,0,0,1-.23.21Zm-.88-1.3.69.35c6.1-12.5,5.75-18.83,5.69-19.52a18.3,18.3,0,0,0-18.3-18.29H33.74a18.3,18.3,0,0,0-18.3,18.26c-.06.72-.41,7,5.69,19.55l.69-.35a61.91,61.91,0,0,1-5.12-14.24,18.93,18.93,0,0,1-.49-4.88v-.05A17.51,17.51,0,0,1,33.74,322h1.51a17.51,17.51,0,0,1,17.52,17.52v.05C52.78,339.62,53.41,345.88,47.17,358.68Z"/><path class="cls-15" d="M19.76,351.31a1.61,1.61,0,0,0-.62,2l3.34,7.3a1.61,1.61,0,0,0,1.94.86l-4.63-10.12Z"/><path d="M23.93,362a2,2,0,0,1-1.82-1.17l-3.34-7.3a2,2,0,0,1,.78-2.54l.41-.25.2.49L25,361.74l-.44.14A1.86,1.86,0,0,1,23.93,362Zm-4.31-10a1.2,1.2,0,0,0-.11,1.19l3.33,7.29a1.22,1.22,0,0,0,1,.69Z"/><path class="cls-15" d="M28.54,359.72l-4.67-10.21a2.24,2.24,0,0,0-4.11,1.8l0,.07,4.63,10.12,0,.09a2.24,2.24,0,1,0,4.08-1.87Z"/><path d="M26.75,363.31a2.68,2.68,0,0,1-2.41-1.55l-4.7-10.29A2.65,2.65,0,0,1,23,348a2.61,2.61,0,0,1,1.48,1.38l4.67,10.21a2.6,2.6,0,0,1,.08,2,2.66,2.66,0,0,1-1.38,1.49A2.71,2.71,0,0,1,26.75,363.31ZM22.08,348.6a1.84,1.84,0,0,0-1.69,2.55l0,.06,4.67,10.21a1.83,1.83,0,0,0,1,1,1.86,1.86,0,0,0,1.41-.05,1.9,1.9,0,0,0,1-1,1.82,1.82,0,0,0-.06-1.41l-4.67-10.21a1.8,1.8,0,0,0-1-1A1.73,1.73,0,0,0,22.08,348.6Z"/><path class="cls-15" d="M49.21,351.31a1.61,1.61,0,0,1,.62,2l-3.34,7.3a1.61,1.61,0,0,1-1.94.86l4.63-10.12Z"/><path d="M45,362a1.81,1.81,0,0,1-.61-.1l-.44-.14,5-11,.41.25a2,2,0,0,1,.78,2.54l-3.34,7.3A2,2,0,0,1,45,362Zm4.31-10-4.2,9.17a1.21,1.21,0,0,0,1-.69l3.34-7.29A1.23,1.23,0,0,0,49.35,352Z"/><path class="cls-21" d="M40.43,359.72l4.67-10.21a2.24,2.24,0,0,1,4.11,1.8l0,.07L44.55,361.5l0,.09a2.24,2.24,0,1,1-4.08-1.87Z"/><path d="M42.46,363.31a2.66,2.66,0,0,1-2.41-3.76l4.67-10.21a2.65,2.65,0,0,1,4.86,2.13l0,.07-4.67,10.22a2.68,2.68,0,0,1-2.42,1.55Zm4.68-14.71a1.86,1.86,0,0,0-1.68,1.08l-4.67,10.21a1.86,1.86,0,0,0,0,1.41,1.83,1.83,0,0,0,1,1,1.86,1.86,0,0,0,1.41.05,1.83,1.83,0,0,0,1-1l4.69-10.26a1.85,1.85,0,0,0-1.69-2.56Z"/><path class="cls-13" d="M54.39,339.51H51.93a16.71,16.71,0,0,0-12.2-16.07,17,17,0,0,0-4.48-.61H33.74a16.68,16.68,0,0,0-16.68,16.68H14.6a19.17,19.17,0,0,1,14.74-18.63,19.53,19.53,0,0,1,4.4-.5h1.51a19.14,19.14,0,0,1,19.14,19.13Z"/><path class="cls-1" d="M54.39,340.12H51.93a.61.61,0,0,1-.61-.61,16.08,16.08,0,0,0-16.07-16.07H33.74a15.93,15.93,0,0,0-4.24.57,16.12,16.12,0,0,0-11.83,15.5.61.61,0,0,1-.61.61H14.6a.61.61,0,0,1-.61-.61,19.76,19.76,0,0,1,19.75-19.75h1.51a20.4,20.4,0,0,1,4.62.54A19.77,19.77,0,0,1,55,339.51.61.61,0,0,1,54.39,340.12Zm-1.86-1.22h1.24a18.55,18.55,0,0,0-14.19-17.41,18.92,18.92,0,0,0-4.33-.5H33.74a19,19,0,0,0-4.26.48A18.56,18.56,0,0,0,15.22,338.9h1.24a17.28,17.28,0,0,1,17.28-16.68h1.51A17.32,17.32,0,0,1,52.53,338.9Z"/><rect class="cls-15" x="121.34" y="244.52" width="71.61" height="11.2" transform="translate(38.95 -20.59) rotate(8.55)"/><rect class="cls-22" x="124.63" y="200.5" width="71.61" height="55.46" rx="3.59" transform="translate(35.74 -21.33) rotate(8.55)"/><circle cx="157.37" cy="250.15" r="1.71"/><polygon class="cls-23" points="163.01 268.22 146.22 265.69 150.25 254.74 162.91 256.65 163.01 268.22"/><line class="cls-24" x1="137.89" y1="264.44" x2="170.55" y2="269.35"/><line class="cls-25" x1="122.57" y1="239.25" x2="193.38" y2="249.91"/><path class="cls-1" d="M555.4,27.62V112l-2,5.69.25-74.18S553.53,32.18,555.4,27.62Z"/><polygon class="cls-1" points="599.18 55.29 599.89 144.32 602.34 146.6 600.56 62.03 599.18 55.29"/><path class="cls-1" d="M544.59,44.23s-4,13.32-4.34,43.47c-.34,25.63-1,57.42-1,57.42l-2.55,1.48s1.47-80.5,1.68-83S540,48.85,544.59,44.23Z"/><path class="cls-1" d="M568.72,9S579,17.77,582.28,34.21c2.51,12.53,1.66,76.26,1.66,76.26l2.51,8.29L585.06,32.7S578.4,11.06,568.72,9Z"/><path class="cls-26" d="M577.71,54.47a24.83,24.83,0,0,0-3.37-.37"/><path class="cls-27" d="M572.65,10.46a4.6,4.6,0,0,0-6.28.24C562.31,14.63,555,23.41,554.06,34c-1.25,14.32-.89,93.36-.89,93.36h33.28s-.5-88.25-1.26-93.89C584.25,26.58,578.37,15.4,572.65,10.46Z"/><rect class="cls-28" x="541.4" y="175.65" width="9.19" height="15.27" transform="translate(1091.99 366.56) rotate(-180)"/><path class="cls-29" d="M538.9,189.19h14.2a0,0,0,0,1,0,0v2.21a7.1,7.1,0,0,1-7.1,7.1h0a7.1,7.1,0,0,1-7.1-7.1v-2.21A0,0,0,0,1,538.9,189.19Z" transform="translate(1091.99 387.68) rotate(-180)"/><line class="cls-30" x1="541.67" y1="178.54" x2="550.59" y2="178.54"/><line class="cls-30" x1="541.67" y1="180.91" x2="550.59" y2="180.91"/><line class="cls-30" x1="541.67" y1="183.28" x2="547.53" y2="183.28"/><line class="cls-30" x1="541.67" y1="185.7" x2="546.22" y2="185.7"/><line class="cls-30" x1="548.31" y1="185.7" x2="550.59" y2="185.7"/><line class="cls-30" x1="549.01" y1="183.28" x2="550.59" y2="183.28"/><rect class="cls-28" x="588.9" y="175.65" width="9.19" height="15.27"/><path class="cls-29" d="M593.49,189.19h0a7.1,7.1,0,0,1,7.1,7.1v2.21a0,0,0,0,1,0,0h-14.2a0,0,0,0,1,0,0v-2.21A7.1,7.1,0,0,1,593.49,189.19Z"/><line class="cls-30" x1="597.82" y1="178.54" x2="588.9" y2="178.54"/><line class="cls-30" x1="597.82" y1="180.91" x2="588.9" y2="180.91"/><line class="cls-30" x1="597.82" y1="183.28" x2="591.96" y2="183.28"/><line class="cls-30" x1="597.82" y1="185.7" x2="593.27" y2="185.7"/><line class="cls-30" x1="591.17" y1="185.7" x2="588.9" y2="185.7"/><line class="cls-30" x1="590.48" y1="183.28" x2="588.9" y2="183.28"/><path class="cls-29" d="M569.79,67.36s-3.86-.4-7.5,8.85c-3.51,8.91-3.22,10.62-3.34,14.55s0,79.34,0,79.34h21.84s-.19-77.43-.24-81.38C580.49,84.5,578.7,79,576.79,75S573.34,67.71,569.79,67.36Z"/><path class="cls-31" d="M594.44,44.23c-1.82,0-5,10.2-6.21,17s.75,85.36.75,85.36h13.36s-1-80-1.88-85.57C599.8,56.79,596.42,44.23,594.44,44.23Z"/><path class="cls-32" d="M601,75.22a13.57,13.57,0,0,0-10.49-.59"/><path class="cls-32" d="M601.56,94.43a13.56,13.56,0,0,0-10.5-.6"/><path class="cls-32" d="M601.75,110.47a15.74,15.74,0,0,0-5.67-1"/><path class="cls-32" d="M594.45,109.51a12.61,12.61,0,0,0-2.69.35"/><path class="cls-31" d="M544.59,44.23c1.83,0,5,10.2,6.22,17s-.76,85.36-.76,85.36H536.7s1-80,1.88-85.57C539.24,56.79,542.62,44.23,544.59,44.23Z"/><path class="cls-32" d="M538,75.22a13.59,13.59,0,0,1,10.5-.59"/><path class="cls-32" d="M537.48,94.43a13.54,13.54,0,0,1,10.49-.6"/><path class="cls-32" d="M537.28,110.47a15.83,15.83,0,0,1,5.68-1"/><path class="cls-32" d="M544.59,109.51a12.49,12.49,0,0,1,2.68.35"/><path class="cls-7" d="M538.27,65.88a19.5,19.5,0,0,1,12.83.36L551,63.8a15.85,15.85,0,0,0-12.64-.24Z"/><path class="cls-7" d="M600.76,65.88a19.51,19.51,0,0,0-12.83.36L588,63.8a15.84,15.84,0,0,1,12.64-.24Z"/><path class="cls-33" d="M554.64,57.4s3.61-3.63,13.93-3.28"/><path class="cls-32" d="M553.37,56.22s3.61-3.63,13.93-3.28"/><path class="cls-32" d="M580.59,54.1A15.92,15.92,0,0,1,585.8,56"/><path class="cls-32" d="M580.48,86.76c4.09.46,5.52,1.88,5.52,1.88"/><path class="cls-32" d="M553.12,89.1s1.39-1.29,5.78-1.88"/><path class="cls-34" d="M579.6,55.38a15.77,15.77,0,0,1,5.22,1.89"/><path class="cls-32" d="M579.09,53.79a24.2,24.2,0,0,0-3.37-.38"/><path class="cls-13" d="M563.32,73.86s5.38,3.61,12.71,0c0,0-2.76-6.93-6.24-6.5S563.32,73.86,563.32,73.86Z"/><path class="cls-32" d="M580.14,85s-4.63-2.45-12.84-1.49"/><path class="cls-32" d="M559.43,85a33.88,33.88,0,0,1,4.36-1"/><path class="cls-13" d="M574.19,81.12h-.89a5.59,5.59,0,0,0-7.47,0h-.92c.36-1.61,2.3-2.84,4.65-2.84S573.84,79.51,574.19,81.12Z"/><rect class="cls-13" x="563.92" y="88.64" width="2.07" height="2.96" rx="1.04"/><rect class="cls-13" x="567.15" y="88.64" width="2.07" height="2.96" rx="1.04"/><rect class="cls-13" x="570.38" y="88.64" width="2.07" height="2.96" rx="1.04"/><rect class="cls-13" x="573.61" y="88.64" width="2.07" height="2.96" rx="1.04"/><path class="cls-28" d="M580.59,96.49s6.4,31.38,15.23,43.07,21.47,16.7,21.95,33.52l-37,6Z"/><line class="cls-35" x1="617.65" y1="171.11" x2="597.49" y2="171.11"/><line class="cls-32" x1="583.89" y1="171.11" x2="589.58" y2="171.11"/><line class="cls-32" x1="592.38" y1="171.11" x2="595.45" y2="171.11"/><line class="cls-30" x1="617.14" y1="167.72" x2="582.63" y2="167.72"/><line class="cls-32" x1="614.37" y1="167.72" x2="614.37" y2="171.11"/><line class="cls-32" x1="611.73" y1="167.72" x2="611.73" y2="171.11"/><line class="cls-32" x1="608.91" y1="167.72" x2="608.91" y2="171.11"/><line class="cls-32" x1="606.21" y1="167.69" x2="606.21" y2="171.08"/><line class="cls-32" x1="603.57" y1="167.69" x2="603.57" y2="171.08"/><line class="cls-32" x1="600.75" y1="167.69" x2="600.75" y2="171.08"/><line class="cls-32" x1="598.08" y1="167.69" x2="598.08" y2="171.08"/><line class="cls-32" x1="587.8" y1="167.72" x2="587.8" y2="171.11"/><line class="cls-32" x1="593.73" y1="167.72" x2="593.73" y2="171.11"/><line class="cls-32" x1="584.98" y1="167.72" x2="584.98" y2="171.11"/><path class="cls-28" d="M558.9,96.49s-6.4,31.38-15.23,43.07-21.48,16.7-21.95,33.52l37,6Z"/><line class="cls-36" x1="521.83" y1="171.11" x2="541.99" y2="171.11"/><line class="cls-32" x1="555.6" y1="171.11" x2="549.9" y2="171.11"/><line class="cls-37" x1="523.38" y1="166.48" x2="556.85" y2="166.48"/><line class="cls-38" x1="582.15" y1="166.48" x2="616.34" y2="166.48"/><line class="cls-32" x1="547.39" y1="171.11" x2="544.32" y2="171.11"/><line class="cls-32" x1="522.34" y1="167.72" x2="556.85" y2="167.72"/><line class="cls-32" x1="525.12" y1="167.72" x2="525.12" y2="171.11"/><line class="cls-32" x1="527.76" y1="167.72" x2="527.76" y2="171.11"/><line class="cls-32" x1="530.57" y1="167.72" x2="530.57" y2="171.11"/><line class="cls-32" x1="533.27" y1="167.69" x2="533.27" y2="171.08"/><line class="cls-32" x1="535.91" y1="167.69" x2="535.91" y2="171.08"/><line class="cls-32" x1="538.73" y1="167.69" x2="538.73" y2="171.08"/><line class="cls-32" x1="541.4" y1="167.69" x2="541.4" y2="171.08"/><line class="cls-32" x1="551.68" y1="167.72" x2="551.68" y2="171.11"/><line class="cls-32" x1="545.76" y1="167.72" x2="545.76" y2="171.11"/><line class="cls-32" x1="554.5" y1="167.72" x2="554.5" y2="171.11"/><path class="cls-28" d="M569.65,160.11h0a14.24,14.24,0,0,1,14.24,14.24v7.15a2.44,2.44,0,0,1-2.44,2.44h-23.6a2.44,2.44,0,0,1-2.44-2.44v-7.15A14.24,14.24,0,0,1,569.65,160.11Z"/><path class="cls-29" d="M559.7,183.94h20.13a0,0,0,0,1,0,0v0a4.62,4.62,0,0,1-4.62,4.62H564.32a4.62,4.62,0,0,1-4.62-4.62v0A0,0,0,0,1,559.7,183.94Z"/><line class="cls-28" x1="583.89" y1="179.58" x2="555.6" y2="179.58"/><path class="cls-26" d="M539.71,76.14a14.26,14.26,0,0,1,8.8,0"/><path class="cls-26" d="M600.05,76.58a13.37,13.37,0,0,0-6.44-.78"/><line class="cls-32" x1="589.69" y1="161.71" x2="599.25" y2="161.71"/><line class="cls-32" x1="601.14" y1="161.71" x2="603.53" y2="161.71"/><line class="cls-32" x1="550.65" y1="161.71" x2="541.1" y2="161.71"/><line class="cls-32" x1="539.2" y1="161.71" x2="536.81" y2="161.71"/><line class="cls-34" x1="540.47" y1="203.9" x2="517.01" y2="409.52"/><line class="cls-32" x1="545.36" y1="204.15" x2="537.49" y2="357.27"/><line class="cls-34" x1="599.3" y1="203.91" x2="621.83" y2="409.63"/><line class="cls-32" x1="594.41" y1="204.14" x2="601.59" y2="357.29"/><polygon class="cls-15" points="545.36 204.15 504.88 578.02 530.58 578.02 545.36 204.15"/><polygon class="cls-15" points="593.58 206.01 634.82 578.02 607.75 578.02 593.58 206.01"/><line class="cls-34" x1="513.68" y1="438.68" x2="503.01" y2="532.21"/><line class="cls-34" x1="550.69" y1="203.94" x2="542.82" y2="522.72"/><line class="cls-34" x1="535.67" y1="392.61" x2="527.76" y2="546.45"/><line class="cls-34" x1="625.02" y1="438.8" x2="636.99" y2="548.1"/><line class="cls-34" x1="588.8" y1="204.4" x2="595.22" y2="523.2"/><line class="cls-34" x1="603.24" y1="392.63" x2="610.45" y2="546.52"/><circle class="cls-15" cx="260.6" cy="532.21" r="85.81"/><circle class="cls-15" cx="292.7" cy="601.85" r="85.81"/><circle class="cls-15" cx="184.61" cy="602.31" r="85.81"/><circle class="cls-15" cx="477.45" cy="572.11" r="51.53"/><circle class="cls-15" cx="371.32" cy="550.31" r="51.53"/><circle class="cls-15" cx="420.03" cy="561.24" r="28.86"/><circle class="cls-15" cx="546.18" cy="579.63" r="28.86"/><circle class="cls-15" cx="607.96" cy="575.61" r="28.86"/><circle class="cls-15" cx="583.94" cy="585.36" r="28.86"/><circle class="cls-15" cx="421.61" cy="614.31" r="34.68"/><circle class="cls-15" cx="889.1" cy="532.21" r="85.81"/><circle class="cls-15" cx="829.91" cy="588.79" r="71.2"/><circle class="cls-15" cx="517.32" cy="604.59" r="47.64"/><circle class="cls-15" cx="592.3" cy="624.46" r="56.08"/><circle class="cls-15" cx="965.15" cy="601.85" r="85.81"/><circle class="cls-15" cx="895.58" cy="601.85" r="85.81"/><circle class="cls-15" cx="669.21" cy="576.75" r="57.63"/><circle class="cls-15" cx="778.38" cy="551.58" r="51.53"/><circle class="cls-15" cx="729.66" cy="561.24" r="28.86"/><circle class="cls-15" cx="660.02" cy="633.46" r="28.86"/><circle class="cls-15" cx="448.9" cy="623.64" r="47.4"/><circle class="cls-15" cx="741.58" cy="614.31" r="66.72"/><circle class="cls-15" cx="378.51" cy="607.87" r="52.17"/><path class="cls-34" d="M920.27,557.47a22.81,22.81,0,0,1,26-19.17,22.57,22.57,0,0,1,8,2.78c.06-.51.11-1,.19-1.55a38.25,38.25,0,0,1,76.07,6.51,17.34,17.34,0,0,1,19.9,4.8,11.57,11.57,0,0,1,9.56-2.9"/><path class="cls-34" d="M219.73,557.47a22.81,22.81,0,0,0-26-19.17,22.57,22.57,0,0,0-8,2.78c-.06-.51-.11-1-.19-1.55A38.25,38.25,0,0,0,109.55,546a17.34,17.34,0,0,0-19.9,4.8,11.57,11.57,0,0,0-9.56-2.9"/><path class="cls-34" d="M421,588.79a10.41,10.41,0,0,0-11.19-9.56,9.91,9.91,0,0,0-3.71,1c0-.24,0-.48,0-.72a17.45,17.45,0,0,0-34.82.49,7.95,7.95,0,0,0-9.21,1.54,5.28,5.28,0,0,0-4.26-1.63"/><path class="cls-34" d="M702.27,590.07a10.4,10.4,0,0,1,11.19-9.57,10.21,10.21,0,0,1,3.71,1c0-.24,0-.47,0-.72a17.44,17.44,0,0,1,34.81.49,8,8,0,0,1,9.22,1.54,5.29,5.29,0,0,1,4.25-1.63"/><path class="cls-34" d="M512.41,647.46a14.06,14.06,0,0,1,22.41-6.15c.09-.31.19-.61.29-.92a23.59,23.59,0,0,1,45.41,12.45,10.66,10.66,0,0,1,5.74.35"/><path class="cls-34" d="M953.06,495c-1.63-34.2-30.95-60.58-65.48-58.93S826.38,466.82,828,501a61.71,61.71,0,0,0,1.81,12.17,49.43,49.43,0,0,0-65.32,17,25.09,25.09,0,0,0-35.7-3.06,34.51,34.51,0,0,0-60.41,11.58,17,17,0,0,0-29.45,12.12"/><path class="cls-34" d="M1041.61,648.72c-1.29-27-24.43-47.82-51.69-46.52s-48.3,24.24-47,51.24a48.12,48.12,0,0,0,1.42,9.6,39,39,0,0,0-51.56,13.46,19.79,19.79,0,0,0-28.17-2.42,27.24,27.24,0,0,0-47.68,9.14,13.4,13.4,0,0,0-23.25,9.56"/><path class="cls-34" d="M186.26,495c1.63-34.2,31-60.58,65.48-58.93s61.2,30.71,59.57,64.91a61.71,61.71,0,0,1-1.81,12.17,49.43,49.43,0,0,1,65.32,17,25.09,25.09,0,0,1,35.7-3.06,34.51,34.51,0,0,1,60.41,11.58,17,17,0,0,1,29.45,12.12"/><path class="cls-34" d="M114.31,658.84c0-27.75,22.72-50.26,50.75-50.26s50.74,22.5,50.74,50.26a50,50,0,0,1-1,9.93A40.08,40.08,0,0,1,268.37,680a20.32,20.32,0,0,1,28.78-3.86,28,28,0,0,1,49.37,7,13.77,13.77,0,0,1,24.32,8.67"/></svg>