<svg id="Layer_1" data-name="Layer 1" xmlns="http://www.w3.org/2000/svg" viewBox="0 0 1140 701.76"><defs><style>.cls-1,.cls-7{fill:#fff;}.cls-1,.cls-14,.cls-15,.cls-16,.cls-17,.cls-18{stroke:#221f1f;}.cls-1,.cls-13,.cls-14,.cls-15,.cls-17,.cls-18,.cls-19,.cls-4{stroke-miterlimit:10;}.cls-10,.cls-2,.cls-3,.cls-4{fill:#f7c910;}.cls-19,.cls-2,.cls-4,.cls-5,.cls-6,.cls-9{stroke:#000;}.cls-2{stroke-miterlimit:10;}.cls-4{stroke-width:0.56px;}.cls-5{stroke-miterlimit:10.06;stroke-width:1.27px;}.cls-6,.cls-8,.cls-9{fill:#231f20;}.cls-10,.cls-6{stroke-miterlimit:10;}.cls-6{stroke-width:1.26px;}.cls-9{stroke-miterlimit:10;stroke-width:1.26px;}.cls-10,.cls-13{stroke:#231f20;}.cls-10{stroke-width:0.67px;}.cls-11{fill:#212120;}.cls-12,.cls-13,.cls-14,.cls-15,.cls-16,.cls-18,.cls-19{fill:none;}.cls-13,.cls-14,.cls-15,.cls-18{stroke-linecap:round;}.cls-13{stroke-width:2.34px;}.cls-14{stroke-width:2.01px;}.cls-15{stroke-width:2px;}.cls-16{stroke-miterlimit:10;stroke-width:2.06px;}.cls-17,.cls-18{stroke-width:2.06px;}.cls-19{stroke-width:1.91px;}</style></defs><title>rocket-icon-move-page-index-black</title><path d="M249.54,336.68,239.93,323a.82.82,0,0,0-1.35.93l9.28,13.88a1.1,1.1,0,0,0-.07,1.18l9.58,13c.25.38.91.37,1.47,0s.8-1,.55-1.36L250.67,337A1.09,1.09,0,0,0,249.54,336.68Z"/><path d="M290.75,330.71l5.35-15.82a.82.82,0,0,1,1-.62.81.81,0,0,1,.62,1,.75.75,0,0,1-.05.16l-4.95,15.94a1.1,1.1,0,0,1,.39,1.12l-5.48,15.2c-.14.43-.78.61-1.42.4s-1.05-.72-.91-1.15l4.49-15.53A1.09,1.09,0,0,1,290.75,330.71Z"/><path class="cls-1" d="M296,347.07l-46.73,6.77,2.42-5.93a1,1,0,0,1,.79-.61l38.58-5.59a1,1,0,0,1,.93.36Z"/><path class="cls-2" d="M249.26,353.87,296,347.1h0l.6,4.13a1.84,1.84,0,0,1-1.56,2.08L252,359.55a1.83,1.83,0,0,1-2.08-1.56l-.6-4.12h0Z"/><path d="M272.46,354.86l-18,2.61a1.34,1.34,0,0,1-1.51-1.13h0a1.32,1.32,0,0,1,1.13-1.5l18-2.6a1.32,1.32,0,0,1,1.5,1.11h0a1.32,1.32,0,0,1-1.09,1.5Z"/><circle cx="283.13" cy="351.82" r="1.16"/><path d="M289,351a1.16,1.16,0,1,0-1,1.31A1.15,1.15,0,0,0,289,351Z"/><circle cx="292.63" cy="350.44" r="1.16"/><path d="M43.54,359l-1.36-.68c6.09-12.34,5.51-18.39,5.51-18.45v-.08A16.39,16.39,0,0,0,31.3,323.4H29.85a16.39,16.39,0,0,0-16.39,16.39h0v.08a18,18,0,0,0,.46,4.57A59.94,59.94,0,0,0,19,358.29l-1.4.71c-6.08-12.32-5.72-18.6-5.66-19.25a17.9,17.9,0,0,1,17.91-17.87h1.44A17.92,17.92,0,0,1,49.2,339.72C49.26,340.37,49.62,346.65,43.54,359Z"/><path d="M43.54,359.36h-.17L42,358.64a.4.4,0,0,1-.18-.52c6-12.16,5.48-18.18,5.47-18.23v-.05h0a16,16,0,0,0-16-16H29.85a16,16,0,0,0-16,16h0v.05a17.49,17.49,0,0,0,.45,4.44,59.26,59.26,0,0,0,5,13.79.4.4,0,0,1-.18.52l-1.36.68a.39.39,0,0,1-.3,0,.35.35,0,0,1-.22-.19c-6.12-12.4-5.76-18.77-5.7-19.45a18.3,18.3,0,0,1,18.3-18.23h1.44a18.3,18.3,0,0,1,18.3,18.26c.06.66.41,7-5.7,19.42a.35.35,0,0,1-.22.19A.28.28,0,0,1,43.54,359.36Zm-.84-1.24.67.32c5.84-12,5.5-18,5.44-18.68a17.51,17.51,0,0,0-17.5-17.52H29.85a17.51,17.51,0,0,0-17.52,17.48c-.06.69-.4,6.75,5.44,18.72l.67-.32a59.13,59.13,0,0,1-4.91-13.64,18.34,18.34,0,0,1-.47-4.67v-.05A16.78,16.78,0,0,1,29.85,323h1.44a16.78,16.78,0,0,1,16.78,16.78h0C48.08,339.86,48.68,345.85,42.7,358.12Z"/><path class="cls-3" d="M16.46,351.06a1.53,1.53,0,0,0-.59,1.94l3.19,7a1.55,1.55,0,0,0,1.86.82l-4.43-9.69Z"/><path d="M20.46,361.27a1.93,1.93,0,0,1-1.75-1.12l-3.2-7a1.93,1.93,0,0,1,.75-2.44l.39-.24.19.47L21.46,361l-.42.13A1.92,1.92,0,0,1,20.46,361.27Zm-4.13-9.56a1.14,1.14,0,0,0-.11,1.13l3.19,7a1.17,1.17,0,0,0,.93.67Z"/><path class="cls-3" d="M24.87,359.11l-4.47-9.78a2.15,2.15,0,0,0-3.94,1.73h0v.06l4.43,9.69v.09a2.15,2.15,0,0,0,3.91-1.79Z"/><path d="M23.16,362.54a2.54,2.54,0,0,1-2.31-1.48l-4.51-9.85a2.54,2.54,0,0,1,4.66-2h0L25.47,359a2.56,2.56,0,0,1,.07,1.94,2.51,2.51,0,0,1-1.33,1.42A2.35,2.35,0,0,1,23.16,362.54Zm-4.48-14.08a2,2,0,0,0-.73.16,1.76,1.76,0,0,0-.89,2.29h0l4.47,9.78a1.77,1.77,0,0,0,2.36.84,1.82,1.82,0,0,0,.89-2.31l-4.47-9.78a1.75,1.75,0,0,0-1-.91,1.68,1.68,0,0,0-.63-.07Z"/><path class="cls-3" d="M44.65,351.06a1.52,1.52,0,0,1,.6,1.94l-3.19,7a1.55,1.55,0,0,1-1.86.82l4.43-9.69A.19.19,0,0,0,44.65,351.06Z"/><path d="M40.66,361.27a1.9,1.9,0,0,1-.58-.09l-.42-.13,4.81-10.56.39.24a1.92,1.92,0,0,1,.74,2.44l-3.19,7A1.9,1.9,0,0,1,40.66,361.27Zm4.13-9.56-4,8.78a1.15,1.15,0,0,0,.93-.67l3.2-7A1.16,1.16,0,0,0,44.79,351.71Z"/><path class="cls-4" d="M36.25,359.11l4.47-9.78a2.15,2.15,0,0,1,3.93,1.73v.06l-4.43,9.69v.09a2.15,2.15,0,1,1-3.91-1.79Z"/><path d="M38.2,362.54a2.4,2.4,0,0,1-1.05-.23,2.51,2.51,0,0,1-1.33-1.42,2.56,2.56,0,0,1,.07-1.94l4.47-9.78a2.54,2.54,0,0,1,1.43-1.32,2.47,2.47,0,0,1,1.94.07A2.52,2.52,0,0,1,45,351.21v.07l-4.47,9.78a2.54,2.54,0,0,1-2.31,1.48Zm4.47-14.08a1.58,1.58,0,0,0-.61.12,1.79,1.79,0,0,0-1,.91l-4.47,9.78a1.76,1.76,0,0,0,3.2,1.49l4.49-9.83a1.74,1.74,0,0,0-.89-2.29,1.82,1.82,0,0,0-.72-.18Z"/><path class="cls-3" d="M49.62,339.76H47.26a15.94,15.94,0,0,0-15.88-16H29.85a16.25,16.25,0,0,0-4.22.56,16,16,0,0,0-11.75,15.41H11.52a18.33,18.33,0,0,1,14.11-17.84,18.71,18.71,0,0,1,4.22-.48h1.44a18.83,18.83,0,0,1,4.29.5,18.33,18.33,0,0,1,14,17.82Z"/><path d="M49.62,340.35H47.26a.6.6,0,0,1-.58-.59,15.44,15.44,0,0,0-11.26-14.82,15.14,15.14,0,0,0-4.13-.57H29.85a15.4,15.4,0,0,0-15.39,15.39.6.6,0,0,1-.58.59H11.52a.6.6,0,0,1-.58-.59A18.94,18.94,0,0,1,25.5,321.35a19.35,19.35,0,0,1,4.35-.5h1.44a19.35,19.35,0,0,1,4.42.52A18.93,18.93,0,0,1,50.2,339.76.6.6,0,0,1,49.62,340.35Zm-1.78-1.17H49A17.79,17.79,0,0,0,35.44,322.5a18.1,18.1,0,0,0-4.15-.48H29.85a18.11,18.11,0,0,0-4.08.47,17.75,17.75,0,0,0-13.65,16.69H13.3a16.53,16.53,0,0,1,16.55-16h1.44A16.53,16.53,0,0,1,47.84,339.18Z"/><rect class="cls-5" x="52.55" y="421.39" width="24.09" height="41.12" transform="translate(-376.51 371.78) rotate(-72.65)"/><path class="cls-6" d="M50.58,422.22h0l-7.09,22.92h0a7.9,7.9,0,0,1-5.22-9.89h0l2.4-7.77a7.91,7.91,0,0,1,9.89-5.22h0Z"/><circle class="cls-7" cx="44.45" cy="428.56" r="1.69"/><circle class="cls-7" cx="42.81" cy="434.03" r="0.61"/><circle class="cls-7" cx="42" cy="436.64" r="0.61"/><circle class="cls-7" cx="41.17" cy="434.95" r="0.61"/><circle class="cls-7" cx="43.62" cy="435.71" r="0.61"/><rect class="cls-7" x="42.36" y="438.34" width="0.69" height="0.61" transform="translate(-388.99 349.88) rotate(-72.82)"/><rect class="cls-8" x="48.63" y="423.04" width="0.28" height="0.96" transform="translate(-370.26 345.01) rotate(-72.82)"/><path class="cls-9" d="M82.33,457.09h0l7.09-22.93h0a7.92,7.92,0,0,1,5.22,9.9h0l-2.4,7.76a7.92,7.92,0,0,1-9.86,5.29Z"/><circle class="cls-7" cx="88.61" cy="450.2" r="1.69"/><circle class="cls-7" cx="90.25" cy="444.72" r="0.61"/><circle class="cls-7" cx="91.06" cy="442.11" r="0.61"/><circle class="cls-7" cx="91.89" cy="443.81" r="0.61"/><circle class="cls-7" cx="89.44" cy="443.05" r="0.61"/><circle class="cls-7" cx="86" cy="452.93" r="0.37"/><rect class="cls-7" x="91.65" y="433.25" width="0.28" height="0.97" transform="translate(-349.58 391.97) rotate(-72.65)"/><rect class="cls-7" x="89.71" y="436.02" width="0.96" height="0.28" transform="translate(-353.15 393.5) rotate(-72.82)"/><rect class="cls-10" x="55.66" y="420.67" width="21.61" height="37.96" rx="1.53" transform="translate(-373.2 373.29) rotate(-72.82)"/><path class="cls-11" d="M291.34,236.85a2,2,0,1,0,2.82-.67h0A2.07,2.07,0,0,0,291.34,236.85Z"/><path class="cls-11" d="M291.62,231.77a6.33,6.33,0,0,0-3.92,2.84,1.2,1.2,0,0,0,1.78,1.61,1.15,1.15,0,0,0,.22-.35,3.94,3.94,0,0,1,5.4-1.29,1.21,1.21,0,0,0,.91.15,1.25,1.25,0,0,0,.75-.54,1.19,1.19,0,0,0-.4-1.65h0A6.26,6.26,0,0,0,291.62,231.77Z"/><path class="cls-11" d="M290.7,227.93a10.15,10.15,0,0,0-6.37,4.61,1.2,1.2,0,0,0,1.78,1.61,1.15,1.15,0,0,0,.22-.35,7.88,7.88,0,0,1,10.84-2.59h0a1.21,1.21,0,0,0,.91.15,1.25,1.25,0,0,0,.75-.54,1.19,1.19,0,0,0-.4-1.65h0A10.18,10.18,0,0,0,290.7,227.93Z"/><path class="cls-11" d="M300.55,225.79a14.25,14.25,0,0,0-19.6,4.68,1.22,1.22,0,0,0,.42,1.66,1.18,1.18,0,0,0,.88.14,1.25,1.25,0,0,0,.75-.54,11.85,11.85,0,0,1,16.29-3.89h0a1.2,1.2,0,0,0,1.26-2.05Z"/><circle class="cls-3" cx="146.23" cy="350.44" r="10.38"/><path class="cls-12" d="M147.51,357.4a7.08,7.08,0,1,0-8.25-5.68,7.06,7.06,0,0,0,8.25,5.68Z"/><path class="cls-13" d="M129.51,346.51a17,17,0,0,0-.46,4.09l2.9,1.08a12.52,12.52,0,0,0,.19,1.35,2.6,2.6,0,0,0,.09.47l-2.45,1.89a16.93,16.93,0,0,0,1.65,3.78l3.06-.52a12.3,12.3,0,0,0,1.15,1.44L134.46,363a17,17,0,0,0,3.32,2.45l2.39-2a14.78,14.78,0,0,0,1.71.67l.41,3.07a16.63,16.63,0,0,0,4.1.45l1.08-2.9q.67-.06,1.35-.18l.47-.1,1.89,2.46a17.4,17.4,0,0,0,3.78-1.65l-.52-3.06a12.3,12.3,0,0,0,1.44-1.15l2.86,1.17a16.51,16.51,0,0,0,2.44-3.32l-2-2.39a14.63,14.63,0,0,0,.67-1.7l3.07-.42a16.63,16.63,0,0,0,.45-4.1l-2.9-1.08q-.06-.68-.18-1.35a1.9,1.9,0,0,0-.1-.46l2.45-1.9a16.66,16.66,0,0,0-1.65-3.77l-3.05.51a16,16,0,0,0-1.15-1.43L158,338a17,17,0,0,0-3.32-2.45l-2.39,2a14.84,14.84,0,0,0-1.71-.68l-.41-3.06a17.13,17.13,0,0,0-4.1-.46l-1,2.86q-.67.06-1.35.18a2.34,2.34,0,0,0-.46.09l-1.9-2.45a17.4,17.4,0,0,0-3.78,1.65l.52,3.06a13.09,13.09,0,0,0-1.43,1.15l-2.87-1.18a17.63,17.63,0,0,0-2.44,3.32l2,2.39a17.81,17.81,0,0,0-.67,1.71Zm15.76-6.12a10.1,10.1,0,1,1-9.1,11h0a10.1,10.1,0,0,1,9.1-11Z"/><path class="cls-8" d="M155,349.6a8.79,8.79,0,1,0-7.92,9.59A8.79,8.79,0,0,0,155,349.6Zm-15.28,2a6.64,6.64,0,1,1,7.73,5.33h0a6.63,6.63,0,0,1-7.75-5.28h0Z"/><circle class="cls-14" cx="389.8" cy="382.97" r="7.04"/><path class="cls-14" d="M45.81,258.71a7,7,0,0,0-5.22-8.39,6.59,6.59,0,0,0-2.58-.11l.12-.47A11.71,11.71,0,0,0,15.75,243a5.31,5.31,0,0,0-6.21-.89,3.57,3.57,0,0,0-2.39-1.91"/><circle class="cls-15" cx="213.16" cy="389.96" r="3.54"/><circle class="cls-15" cx="366.3" cy="290.64" r="3.54"/><rect class="cls-3" x="148.26" y="216.53" width="10.72" height="68.56" transform="translate(-117.24 365.44) rotate(-81.45)"/><rect class="cls-16" x="130.22" y="195.57" width="53.1" height="68.56" rx="3.43" transform="translate(-93.83 350.71) rotate(-81.45)"/><circle cx="153.81" cy="250.85" r="1.64"/><polygon class="cls-17" points="159.22 268.15 143.14 265.73 147 255.25 159.12 257.07 159.22 268.15"/><line class="cls-18" x1="135.16" y1="264.53" x2="166.44" y2="269.24"/><line class="cls-19" x1="120.5" y1="240.42" x2="188.3" y2="250.62"/></svg>