<?xml version="1.0" encoding="utf-8"?>
<!-- Generator: Adobe Illustrator 24.0.2, SVG Export Plug-In . SVG Version: 6.00 Build 0)  -->
<svg version="1.1" id="Layer_1" xmlns="http://www.w3.org/2000/svg" xmlns:xlink="http://www.w3.org/1999/xlink" x="0px" y="0px"
	 viewBox="0 0 1140 701.8" style="enable-background:new 0 0 1140 701.8;" xml:space="preserve">
<style type="text/css">
	.st0{fill:#FFFFFF;}
	.st1{stroke:#FFFFFF;stroke-width:1.05;stroke-miterlimit:10;}
	.st2{fill:#F7C910;stroke:#FFFFFF;stroke-width:1.05;stroke-miterlimit:10;}
	.st3{fill:none;stroke:#FFFFFF;stroke-width:2.01;stroke-linecap:round;stroke-miterlimit:10;}
	.st4{fill:none;stroke:#FFFFFF;stroke-width:2;stroke-linecap:round;stroke-miterlimit:10;}
	.st5{fill:#F7C910;}
	.st6{fill:none;}
	.st7{fill:none;stroke:#FFFFFF;stroke-width:2.45;stroke-linecap:round;stroke-miterlimit:10;}
	.st8{fill:#231F20;}
	.st9{fill:#F7C910;stroke:#000000;stroke-width:0.59;stroke-miterlimit:10;}
	.st10{fill:none;stroke:#FFFFFF;stroke-width:2.16;stroke-miterlimit:10;}
	.st11{stroke:#FFFFFF;stroke-width:2.16;stroke-miterlimit:10;}
	.st12{fill:none;stroke:#FFFFFF;stroke-width:2.16;stroke-linecap:round;stroke-miterlimit:10;}
	.st13{fill:none;stroke:#FFFFFF;stroke-width:2;stroke-miterlimit:10;}
</style>
<path class="st0" d="M251.8,335.4l-10.1-14.2c-0.3-0.4-0.8-0.5-1.2-0.2c-0.4,0.3-0.5,0.8-0.2,1.2l9.7,14.5c-0.3,0.4-0.3,0.8-0.1,1.2
	l10,13.6c0.3,0.4,1,0.4,1.5,0s0.8-1,0.6-1.4l-9.1-14.3C252.7,335.5,252.2,335.3,251.8,335.4z"/>
<path class="st0" d="M294.8,329.2l5.6-16.5c0.1-0.4,0.6-0.7,1.1-0.5c0.4,0.1,0.7,0.6,0.6,1.1l-5.2,16.6c0.4,0.3,0.5,0.7,0.4,1.2
	l-5.7,15.9c-0.1,0.5-0.8,0.6-1.5,0.4s-1.1-0.8-1-1.2l4.7-16.2C294,329.5,294.4,329.2,294.8,329.2z"/>
<path class="st1" d="M300.4,346.3l-48.8,7.1l2.5-6.2c0.1-0.3,0.5-0.6,0.8-0.6l40.3-5.8c0.4-0.1,0.8,0.1,1,0.4L300.4,346.3z"/>
<path class="st2" d="M251.5,353.4l48.8-7.1l0,0l0.6,4.3c0.2,1.1-0.6,2-1.6,2.2l-45,6.5c-1.1,0.2-2-0.6-2.2-1.6L251.5,353.4
	L251.5,353.4z"/>
<path d="M275.7,354.4l-18.7,2.7c-0.8,0.1-1.5-0.4-1.6-1.2c0,0,0,0,0,0l0,0c-0.1-0.8,0.4-1.5,1.2-1.6c0,0,0,0,0,0l18.8-2.7
	c0.8-0.1,1.5,0.4,1.6,1.2l0,0C277,353.6,276.5,354.3,275.7,354.4C275.8,354.4,275.7,354.4,275.7,354.4z"/>
<circle cx="286.9" cy="351.2" r="1.2"/>
<path d="M293,350.3c-0.1-0.7-0.7-1.1-1.4-1s-1.1,0.7-1,1.4c0.1,0.7,0.7,1.1,1.4,1c0,0,0,0,0,0C292.7,351.6,293.1,351,293,350.3z"/>
<circle cx="296.8" cy="349.8" r="1.2"/>
<path class="st0" d="M294.4,236.7c-0.6,1-0.2,2.2,0.7,2.7c1,0.6,2.2,0.2,2.7-0.7c0.5-0.9,0.3-2.1-0.6-2.7
	C296.3,235.4,295,235.7,294.4,236.7z"/>
<path class="st0" d="M294.7,231.6c-1.6,0.4-3,1.4-3.9,2.8c-0.4,0.5-0.4,1.2,0.1,1.7c0.5,0.4,1.2,0.4,1.7-0.1
	c0.1-0.1,0.2-0.2,0.2-0.4c0.5-0.9,1.4-1.5,2.4-1.8c1-0.3,2.1-0.1,3,0.5c0.3,0.2,0.6,0.2,0.9,0.1c0.3-0.1,0.6-0.3,0.7-0.5
	c0.3-0.6,0.2-1.3-0.4-1.6C298.1,231.5,296.4,231.2,294.7,231.6z"/>
<path class="st0" d="M293.8,227.8c-2.6,0.6-4.9,2.3-6.4,4.6c-0.2,0.6,0.1,1.3,0.7,1.6c0.5,0.2,1,0.1,1.3-0.3
	c2.3-3.7,7.1-4.9,10.8-2.6c0.3,0.2,0.6,0.2,0.9,0.1c0.3-0.1,0.6-0.3,0.7-0.5c0.3-0.6,0.2-1.3-0.4-1.6
	C299.2,227.6,296.4,227.2,293.8,227.8z"/>
<path class="st0" d="M303.6,225.7c-6.7-4.1-15.4-2-19.5,4.6c0,0,0,0,0,0c-0.3,0.6-0.2,1.3,0.4,1.6c0,0,0,0,0,0
	c0.3,0.2,0.6,0.2,0.9,0.1c0.3-0.1,0.6-0.3,0.8-0.5c3.4-5.6,10.7-7.3,16.2-3.9c0,0,0,0,0,0c0.6,0.2,1.3-0.1,1.6-0.7
	C304.1,226.6,304,226,303.6,225.7L303.6,225.7z"/>
<circle class="st3" cx="392.6" cy="382.3" r="7"/>
<path class="st3" d="M49.7,258.5c0.9-3.7-1.5-7.5-5.2-8.4c-0.8-0.2-1.7-0.2-2.6-0.1c0-0.1,0.1-0.3,0.1-0.5c1.4-6.3-2.5-12.6-8.8-14
	c-5.7-1.3-11.5,1.8-13.5,7.3c-1.6-1.6-4.2-2-6.2-0.9c-0.5-1-1.3-1.7-2.4-1.9"/>
<circle class="st4" cx="216.5" cy="389.3" r="3.5"/>
<circle class="st4" cx="369.2" cy="290.3" r="3.5"/>
<circle class="st5" cx="149.8" cy="349.5" r="10.8"/>
<path class="st6" d="M151.1,356.7c4-0.7,6.7-4.6,5.9-8.6s-4.6-6.7-8.6-5.9c-4,0.7-6.7,4.6-5.9,8.6c0,0,0,0,0,0
	C143.3,354.8,147.1,357.5,151.1,356.7z"/>
<path class="st7" d="M132.3,345.4c-0.3,1.4-0.5,2.8-0.5,4.3l3,1.1c0,0.5,0.1,0.9,0.2,1.4c0,0.2,0.1,0.3,0.1,0.5l-2.6,2
	c0.4,1.4,1,2.7,1.7,4l3.2-0.5c0.4,0.5,0.8,1,1.2,1.5l-1.2,3c1,1,2.2,1.9,3.5,2.6l2.5-2.1c0.6,0.3,1.2,0.5,1.8,0.7l0.4,3.2
	c1.4,0.3,2.8,0.5,4.3,0.5l1.1-3c0.5,0,0.9-0.1,1.4-0.2l0.5-0.1l2,2.6c1.4-0.4,2.7-1,3.9-1.7l-0.5-3.2c0.5-0.4,1-0.8,1.5-1.2l3,1.2
	c1-1,1.8-2.2,2.6-3.5l-2.1-2.5c0.3-0.6,0.5-1.2,0.6-1.8l3.2-0.4c0.3-1.4,0.5-2.8,0.5-4.3l-3-1.1c0-0.5-0.1-1-0.2-1.4
	c0-0.2-0.1-0.3-0.1-0.5l2.6-2c-0.4-1.4-1-2.7-1.7-3.9l-3.2,0.5c-0.4-0.5-0.8-1-1.2-1.5l1.2-3c-1.1-1-2.2-1.8-3.5-2.6l-2.5,2.1
	c-0.6-0.3-1.2-0.5-1.8-0.7l-0.4-3.2c-1.4-0.3-2.8-0.5-4.3-0.5l-1.1,3c-0.5,0-0.9,0.1-1.4,0.2l-0.5,0.1l-2-2.6c-1.4,0.4-2.7,1-4,1.7
	l0.5,3.2c-0.5,0.4-1,0.8-1.5,1.2l-3-1.2c-1,1.1-1.8,2.2-2.6,3.5l2.1,2.5c-0.3,0.6-0.5,1.2-0.7,1.8L132.3,345.4z M148.8,339
	c5.8-0.5,10.9,3.7,11.5,9.5s-3.7,10.9-9.5,11.5c-5.8,0.5-10.9-3.7-11.5-9.5C138.7,344.7,143,339.6,148.8,339
	C148.8,339,148.8,339,148.8,339z"/>
<path class="st8" d="M158.9,348.6c-0.5-5-5-8.8-10-8.3c-5,0.5-8.8,5-8.3,10c0.5,5,5,8.8,10,8.3c0,0,0,0,0,0
	C155.7,358.1,159.4,353.6,158.9,348.6z M142.9,350.7c-0.7-3.8,1.8-7.4,5.6-8.1c3.8-0.7,7.4,1.8,8.1,5.6c0.7,3.8-1.8,7.4-5.6,8.1
	C147.3,356.9,143.7,354.4,142.9,350.7L142.9,350.7z"/>
<path d="M48,359.6l-1.4-0.7c6.4-12.9,5.8-19.2,5.8-19.3v-0.1c0-9.5-7.7-17.1-17.1-17.1h-1.5c-9.5,0-17.1,7.7-17.1,17.1v0.1
	c0,1.6,0.1,3.2,0.5,4.8c1.2,5,2.9,9.9,5.3,14.5l-1.4,0.7c-6.4-12.9-6-19.4-5.9-20.1c0-10.3,8.4-18.7,18.7-18.7h1.5
	c10.3,0,18.7,8.3,18.7,18.6c0,0,0,0,0,0C54,340.1,54.4,346.7,48,359.6z"/>
<path class="st0" d="M48,360c-0.1,0-0.1,0-0.2,0l-1.4-0.7c-0.2-0.1-0.3-0.3-0.2-0.5c0,0,0,0,0,0c6.3-12.7,5.7-19,5.7-19v-0.1
	c0-9.2-7.4-16.7-16.6-16.8c0,0,0,0-0.1,0h-1.5c-9.2,0-16.7,7.5-16.7,16.7c0,0,0,0,0,0v0.1c0,1.6,0.1,3.1,0.5,4.6
	c1.2,5,2.9,9.8,5.2,14.4c0.1,0.2,0,0.4-0.2,0.5c0,0,0,0,0,0l-1.4,0.7c-0.1,0-0.2,0-0.3,0c-0.1,0-0.2-0.1-0.2-0.2
	c-6.4-13-6-19.6-5.9-20.3c0.1-10.5,8.6-19,19.1-19h1.5c10.5,0,19.1,8.5,19.1,19.1c0.1,0.7,0.4,7.3-6,20.3
	C48.3,359.9,48.2,359.9,48,360L48,360z M47.2,358.7l0.7,0.4c6.1-12.5,5.8-18.8,5.7-19.5c0-10.1-8.2-18.3-18.3-18.3h-1.5
	c-10.1,0-18.3,8.2-18.3,18.3c-0.1,0.7-0.4,7,5.7,19.5l0.7-0.4c-2.3-4.5-4-9.3-5.1-14.2c-0.4-1.6-0.5-3.2-0.5-4.9v0
	c0-9.7,7.8-17.5,17.5-17.5c0,0,0,0,0,0h1.5c9.7,0,17.5,7.8,17.5,17.5c0,0,0,0,0,0v0C52.8,339.6,53.4,345.9,47.2,358.7L47.2,358.7z"
	/>
<path class="st5" d="M19.8,351.3c-0.7,0.4-0.9,1.3-0.6,2l3.3,7.3c0.3,0.7,1.2,1.1,1.9,0.9L19.8,351.3L19.8,351.3z"/>
<path d="M23.9,362c-0.8,0-1.5-0.5-1.8-1.2l-3.3-7.3c-0.4-0.9-0.1-2,0.8-2.5l0.4-0.2l0.2,0.5l4.8,10.5l-0.4,0.1
	C24.4,362,24.1,362,23.9,362z M19.6,352c-0.2,0.3-0.3,0.8-0.1,1.2l3.3,7.3c0.2,0.4,0.6,0.7,1,0.7L19.6,352z"/>
<path class="st5" d="M28.5,359.7l-4.7-10.2c-0.5-1.1-1.8-1.7-3-1.2c-1.1,0.5-1.7,1.8-1.2,3v0.1l4.6,10.1v0.1c0.5,1.1,1.8,1.6,3,1.1
	C28.5,362.2,29,360.8,28.5,359.7L28.5,359.7L28.5,359.7z"/>
<path d="M26.8,363.3c-1,0-2-0.6-2.4-1.5l-4.7-10.3c-0.5-1.4,0.1-2.9,1.5-3.4c0.6-0.2,1.3-0.2,1.9,0c0.7,0.2,1.2,0.7,1.5,1.4
	l4.7,10.2c0.3,0.6,0.3,1.3,0.1,2c-0.2,0.7-0.7,1.2-1.4,1.5C27.5,363.2,27.1,363.3,26.8,363.3z M22.1,348.6c-1,0-1.8,0.8-1.8,1.8
	c0,0.2,0,0.5,0.1,0.7v0.1l4.7,10.2c0.2,0.5,0.5,0.8,1,1c0.5,0.2,1,0.2,1.4,0c0.4-0.2,0.8-0.6,1-1c0.2-0.5,0.1-1-0.1-1.4l-4.7-10.2
	c-0.2-0.5-0.5-0.8-1-1C22.5,348.7,22.3,348.6,22.1,348.6z"/>
<path class="st5" d="M49.2,351.3c0.7,0.4,0.9,1.3,0.6,2l-3.3,7.3c-0.3,0.7-1.2,1.1-1.9,0.9L49.2,351.3L49.2,351.3z"/>
<path d="M45,362c-0.2,0-0.4,0-0.6-0.1l-0.4-0.1l5-11l0.4,0.2c0.9,0.5,1.2,1.6,0.8,2.5l-3.3,7.3C46.5,361.5,45.8,362,45,362z
	 M49.3,352l-4.2,9.2c0.4,0,0.8-0.3,1-0.7l3.3-7.3C49.6,352.8,49.6,352.4,49.3,352L49.3,352z"/>
<path class="st9" d="M40.4,359.7l4.7-10.2c0.5-1.1,1.8-1.7,3-1.2c1.1,0.5,1.7,1.8,1.2,3l0,0v0.1l-4.7,10.1v0.1
	c-0.5,1.1-1.8,1.6-3,1.1C40.4,362.2,40,360.8,40.4,359.7L40.4,359.7z"/>
<path d="M42.5,363.3c-1.5,0-2.7-1.2-2.6-2.7c0-0.4,0.1-0.7,0.2-1.1l4.7-10.2c0.6-1.3,2.2-2,3.5-1.4c1.3,0.6,2,2.2,1.4,3.5v0.1
	l-4.7,10.2C44.5,362.7,43.5,363.3,42.5,363.3L42.5,363.3z M47.1,348.6c-0.7,0-1.4,0.4-1.7,1.1l-4.7,10.2c-0.2,0.5-0.2,1,0,1.4
	c0.2,0.5,0.5,0.8,1,1c0.4,0.2,1,0.2,1.4,0c0.5-0.2,0.8-0.5,1-1l4.7-10.3c0.4-0.9-0.1-2-1-2.4C47.7,348.6,47.4,348.5,47.1,348.6
	L47.1,348.6z"/>
<path class="st8" d="M54.4,339.5h-2.5c0-7.5-5-14-12.2-16.1c-1.5-0.4-3-0.6-4.5-0.6h-1.5c-9.2,0-16.7,7.5-16.7,16.7h-2.5
	c0-8.9,6.1-16.6,14.7-18.6c1.4-0.3,2.9-0.5,4.4-0.5h1.5C45.8,320.4,54.4,328.9,54.4,339.5z"/>
<path class="st0" d="M54.4,340.1h-2.5c-0.3,0-0.6-0.3-0.6-0.6c0-8.9-7.2-16.1-16.1-16.1h-1.5c-1.4,0-2.9,0.2-4.2,0.6
	c-7,1.9-11.8,8.3-11.8,15.5c0,0.3-0.3,0.6-0.6,0.6h-2.5c-0.3,0-0.6-0.3-0.6-0.6c0-10.9,8.8-19.7,19.8-19.8h1.5
	c1.6,0,3.1,0.2,4.6,0.5c8.9,2.1,15.1,10.1,15.1,19.2C55,339.8,54.7,340.1,54.4,340.1z M52.5,338.9h1.2c-0.3-8.3-6.1-15.5-14.2-17.4
	c-1.4-0.3-2.9-0.5-4.3-0.5h-1.5c-1.4,0-2.9,0.2-4.3,0.5c-8.1,1.9-14,9.1-14.3,17.4h1.2c0.3-9.3,8-16.7,17.3-16.7h1.5
	C44.6,322.2,52.2,329.6,52.5,338.9z"/>
<rect x="151.6" y="214.3" transform="matrix(0.1487 -0.9889 0.9889 0.1487 -113.5369 368.3444)" class="st5" width="11.2" height="71.6"/>
<path class="st10" d="M132.7,196l63.7,9.6c2,0.3,3.3,2.1,3,4.1l-7.2,47.7c-0.3,2-2.1,3.3-4.1,3l-63.7-9.6c-2-0.3-3.3-2.1-3-4.1
	l7.2-47.7C128.9,197.1,130.8,195.7,132.7,196z"/>
<circle cx="157.4" cy="250.1" r="1.7"/>
<polygon class="st11" points="163,268.2 146.2,265.7 150.2,254.7 162.9,256.6 "/>
<line class="st12" x1="137.9" y1="264.4" x2="170.6" y2="269.4"/>
<line class="st13" x1="122.6" y1="239.2" x2="193.4" y2="249.9"/>
</svg>
