<svg id="Layer_1" data-name="Layer 1" xmlns="http://www.w3.org/2000/svg" viewBox="0 0 1140 701.76"><defs><style>.cls-1,.cls-17,.cls-20,.cls-30,.cls-7{fill:#fff;}.cls-1,.cls-13,.cls-14,.cls-15,.cls-16,.cls-17,.cls-20,.cls-21,.cls-29,.cls-30,.cls-31,.cls-32,.cls-33,.cls-36,.cls-37,.cls-40{stroke:#221f1f;}.cls-1,.cls-12,.cls-13,.cls-14,.cls-15,.cls-16,.cls-17,.cls-18,.cls-19,.cls-2,.cls-20,.cls-21,.cls-23,.cls-24,.cls-25,.cls-26,.cls-27,.cls-28,.cls-29,.cls-30,.cls-31,.cls-32,.cls-33,.cls-34,.cls-35,.cls-36,.cls-37,.cls-38,.cls-39,.cls-4,.cls-40,.cls-5,.cls-6,.cls-9{stroke-miterlimit:10;}.cls-1,.cls-2{stroke-width:1px;}.cls-2,.cls-21,.cls-23,.cls-24,.cls-29,.cls-3,.cls-31,.cls-4,.cls-9{fill:#f7c910;}.cls-18,.cls-2,.cls-23,.cls-4,.cls-5,.cls-6{stroke:#000;}.cls-4{stroke-width:0.56px;}.cls-5,.cls-6{stroke-width:1.26px;}.cls-6,.cls-8{fill:#231f20;}.cls-12,.cls-25,.cls-26,.cls-27,.cls-9{stroke:#231f20;}.cls-9{stroke-width:0.67px;}.cls-10{fill:#212120;}.cls-11,.cls-12,.cls-13,.cls-14,.cls-15,.cls-18,.cls-19,.cls-25,.cls-26,.cls-27,.cls-28,.cls-32,.cls-33,.cls-34,.cls-35,.cls-36,.cls-37,.cls-38,.cls-39,.cls-40{fill:none;}.cls-12,.cls-13,.cls-14,.cls-17,.cls-26,.cls-27{stroke-linecap:round;}.cls-12{stroke-width:2.34px;}.cls-13{stroke-width:2.01px;}.cls-14{stroke-width:2px;}.cls-15,.cls-16{stroke-width:2.06px;}.cls-17{stroke-width:2.06px;}.cls-18{stroke-width:1.91px;}.cls-19,.cls-24{stroke:#010101;stroke-width:1.41px;}.cls-20,.cls-21{stroke-width:1.64px;}.cls-22{fill:#221f1f;}.cls-23,.cls-25{stroke-width:0.95px;}.cls-26{stroke-width:0.43px;}.cls-27{stroke-width:1.71px;}.cls-28,.cls-38,.cls-39{stroke:#fffdfd;}.cls-28,.cls-31,.cls-33,.cls-34,.cls-35{stroke-width:2.01px;}.cls-29,.cls-30,.cls-32,.cls-38{stroke-width:1.68px;}.cls-34{stroke:#fdf4f8;}.cls-35{stroke:#fff;}.cls-36{stroke-width:2.03px;}.cls-37{stroke-width:1.47px;}.cls-39{stroke-width:1.42px;}.cls-40{stroke-width:2.12px;}</style></defs><title>gx-index-rocket-black</title><path d="M249.54,336.68,239.93,323a.82.82,0,0,0-1.35.93l9.28,13.88a1.11,1.11,0,0,0-.07,1.18l9.58,13c.25.38.91.37,1.47,0s.8-1,.55-1.36L250.67,337A1.1,1.1,0,0,0,249.54,336.68Z"/><path d="M290.75,330.71l5.35-15.82a.82.82,0,1,1,1.55.51l-4.95,15.94a1.11,1.11,0,0,1,.39,1.12l-5.48,15.2c-.14.43-.78.61-1.42.4s-1.05-.72-.91-1.15l4.49-15.53A1.1,1.1,0,0,1,290.75,330.71Z"/><path class="cls-1" d="M296,347.07l-46.73,6.77,2.42-5.93a1,1,0,0,1,.79-.61l38.58-5.59a1,1,0,0,1,.93.36Z"/><path class="cls-2" d="M249.47,350.43H296.7a0,0,0,0,1,0,0v4.17a1.84,1.84,0,0,1-1.84,1.84H251.32a1.84,1.84,0,0,1-1.84-1.84v-4.17a0,0,0,0,1,0,0Z" transform="translate(-47.86 42.81) rotate(-8.24)"/><path d="M272.46,354.86l-18,2.61a1.34,1.34,0,0,1-1.51-1.13h0a1.33,1.33,0,0,1,1.13-1.5l18-2.6a1.32,1.32,0,0,1,1.5,1.12h0A1.31,1.31,0,0,1,272.46,354.86Z"/><circle cx="283.13" cy="351.82" r="1.16"/><path d="M289,351a1.16,1.16,0,0,0-2.3.33A1.16,1.16,0,1,0,289,351Z"/><circle cx="292.63" cy="350.44" r="1.16"/><path d="M43.54,359l-1.36-.68c6.09-12.34,5.51-18.39,5.51-18.45v-.08a16.39,16.39,0,0,0-16.39-16.39H29.85a16.39,16.39,0,0,0-16.39,16.39v.08a18,18,0,0,0,.46,4.57A59.86,59.86,0,0,0,19,358.29L17.6,359c-6.08-12.32-5.72-18.6-5.66-19.25a17.91,17.91,0,0,1,17.91-17.87h1.44A17.91,17.91,0,0,1,49.2,339.72C49.26,340.37,49.62,346.65,43.54,359Z"/><path d="M43.54,359.36a.53.53,0,0,1-.17,0L42,358.64a.4.4,0,0,1-.18-.52c6-12.16,5.48-18.18,5.47-18.23v-.05s0,0,0,0v0a16,16,0,0,0-16-16H29.85a16,16,0,0,0-16,16v0s0,0,0,0v.05a17.75,17.75,0,0,0,.45,4.44,59.43,59.43,0,0,0,5,13.79.4.4,0,0,1-.18.52l-1.36.68a.39.39,0,0,1-.3,0,.35.35,0,0,1-.22-.19c-6.12-12.4-5.76-18.77-5.7-19.45a18.3,18.3,0,0,1,18.3-18.23h1.44a18.3,18.3,0,0,1,18.3,18.26c.06.66.41,7-5.7,19.42a.35.35,0,0,1-.22.19A.28.28,0,0,1,43.54,359.36Zm-.84-1.24.67.32c5.84-12,5.5-18,5.44-18.68a17.51,17.51,0,0,0-17.52-17.52H29.85a17.51,17.51,0,0,0-17.52,17.48c-.06.69-.4,6.75,5.44,18.72l.67-.32a59.29,59.29,0,0,1-4.91-13.64,18.31,18.31,0,0,1-.47-4.67v-.05A16.78,16.78,0,0,1,29.85,323h1.44a16.78,16.78,0,0,1,16.78,16.78v0C48.08,339.86,48.68,345.85,42.7,358.12Z"/><path class="cls-3" d="M16.46,351.06a1.53,1.53,0,0,0-.59,1.94l3.19,7a1.54,1.54,0,0,0,1.86.82l-4.43-9.69Z"/><path d="M20.46,361.27a1.92,1.92,0,0,1-1.75-1.12l-3.2-7a1.93,1.93,0,0,1,.75-2.44l.39-.24.19.47,4.62,10.09-.42.13A2,2,0,0,1,20.46,361.27Zm-4.13-9.56a1.14,1.14,0,0,0-.11,1.13l3.19,7a1.17,1.17,0,0,0,.93.67Z"/><path class="cls-3" d="M24.87,359.11l-4.47-9.78a2.15,2.15,0,0,0-3.94,1.73l0,.06,4.43,9.69,0,.09a2.15,2.15,0,0,0,3.91-1.79Z"/><path d="M23.16,362.54a2.54,2.54,0,0,1-2.31-1.48l-4.51-9.85a2.53,2.53,0,0,1,1.29-3.29A2.54,2.54,0,0,1,21,349.17L25.47,359a2.56,2.56,0,0,1,.07,1.94,2.51,2.51,0,0,1-1.33,1.42A2.4,2.4,0,0,1,23.16,362.54Zm-4.48-14.08a1.92,1.92,0,0,0-.73.16,1.76,1.76,0,0,0-.89,2.29l0,0,4.47,9.78a1.77,1.77,0,0,0,3.25-.12,1.8,1.8,0,0,0,0-1.35l-4.47-9.78a1.74,1.74,0,0,0-1-.91A1.67,1.67,0,0,0,18.68,348.46Z"/><path class="cls-3" d="M44.65,351.06a1.52,1.52,0,0,1,.6,1.94l-3.19,7a1.54,1.54,0,0,1-1.86.82l4.43-9.69A.14.14,0,0,0,44.65,351.06Z"/><path d="M40.66,361.27a2,2,0,0,1-.58-.09l-.42-.13,4.81-10.56.39.24a1.91,1.91,0,0,1,.74,2.44l-3.19,7A1.92,1.92,0,0,1,40.66,361.27Zm4.13-9.56-4,8.78a1.14,1.14,0,0,0,.93-.67l3.2-7A1.14,1.14,0,0,0,44.79,351.71Z"/><path class="cls-4" d="M36.25,359.11l4.47-9.78a2.15,2.15,0,0,1,3.93,1.73.14.14,0,0,1,0,.06l-4.43,9.69,0,.09a2.15,2.15,0,1,1-3.91-1.79Z"/><path d="M38.2,362.54a2.4,2.4,0,0,1-1.05-.23,2.51,2.51,0,0,1-1.33-1.42,2.56,2.56,0,0,1,.07-1.94l4.47-9.78a2.51,2.51,0,0,1,1.43-1.32,2.47,2.47,0,0,1,1.94.07A2.52,2.52,0,0,1,45,351.21l0,.07-4.47,9.78a2.54,2.54,0,0,1-2.31,1.48Zm4.47-14.08a1.66,1.66,0,0,0-.61.12,1.77,1.77,0,0,0-1,.91l-4.47,9.78a1.76,1.76,0,0,0-.05,1.35,1.74,1.74,0,0,0,.92,1,1.76,1.76,0,0,0,2.33-.86l4.49-9.83a1.74,1.74,0,0,0-.89-2.29A1.84,1.84,0,0,0,42.67,348.46Z"/><path class="cls-3" d="M49.62,339.76H47.26a15.94,15.94,0,0,0-16-16H29.85a16.33,16.33,0,0,0-4.22.56,16,16,0,0,0-11.75,15.41H11.52a18.34,18.34,0,0,1,14.11-17.84,18.51,18.51,0,0,1,4.22-.48h1.44a18.51,18.51,0,0,1,4.29.5,18.33,18.33,0,0,1,14,17.82Z"/><path d="M49.62,340.35H47.26a.59.59,0,0,1-.58-.59,15.43,15.43,0,0,0-11.26-14.82,15.14,15.14,0,0,0-4.13-.57H29.85a15.41,15.41,0,0,0-15.39,15.39.59.59,0,0,1-.58.59H11.52a.59.59,0,0,1-.58-.59A18.94,18.94,0,0,1,25.5,321.35a19.22,19.22,0,0,1,4.35-.5h1.44a19.15,19.15,0,0,1,4.42.52A18.93,18.93,0,0,1,50.2,339.76.59.59,0,0,1,49.62,340.35Zm-1.78-1.17H49A17.79,17.79,0,0,0,35.44,322.5a18,18,0,0,0-4.15-.48H29.85a17.92,17.92,0,0,0-4.08.47,17.75,17.75,0,0,0-13.65,16.69H13.3a16.53,16.53,0,0,1,16.55-16h1.44a16.53,16.53,0,0,1,16.55,16Z"/><rect class="cls-5" x="45.89" y="427.64" width="40.88" height="23.95" transform="matrix(0.96, 0.3, -0.3, 0.96, 132.8, 0.02)"/><path class="cls-6" d="M47.22,420.51h0a0,0,0,0,1,0,0v24a0,0,0,0,1,0,0h0a7.91,7.91,0,0,1-7.91-7.91v-8.13a7.91,7.91,0,0,1,7.91-7.91Z" transform="translate(129.67 6.52) rotate(17.18)"/><circle class="cls-7" cx="44.45" cy="428.56" r="1.69"/><circle class="cls-7" cx="42.81" cy="434.03" r="0.61"/><circle class="cls-7" cx="42" cy="436.64" r="0.61"/><circle class="cls-7" cx="41.17" cy="434.95" r="0.61"/><circle class="cls-7" cx="43.62" cy="435.71" r="0.61"/><rect class="cls-7" x="42.41" y="438.31" width="0.61" height="0.69" transform="translate(131.46 6.95) rotate(17.18)"/><rect class="cls-8" x="48.3" y="423.38" width="0.96" height="0.28" transform="translate(127.26 4.49) rotate(17.18)"/><path class="cls-6" d="M93.58,434.85h0a0,0,0,0,1,0,0v24a0,0,0,0,1,0,0h0a7.91,7.91,0,0,1-7.91-7.91v-8.13A7.91,7.91,0,0,1,93.58,434.85Z" transform="translate(43.29 900.18) rotate(-162.82)"/><circle class="cls-7" cx="88.61" cy="450.2" r="1.69"/><circle class="cls-7" cx="90.25" cy="444.72" r="0.61"/><circle class="cls-7" cx="91.06" cy="442.11" r="0.61"/><circle class="cls-7" cx="91.89" cy="443.81" r="0.61"/><circle class="cls-7" cx="89.44" cy="443.05" r="0.61"/><circle class="cls-7" cx="86" cy="452.93" r="0.37"/><rect class="cls-7" x="89.69" y="436.03" width="0.96" height="0.28" transform="matrix(-0.96, -0.3, 0.3, -0.96, 47.5, 879.51)"/><rect class="cls-7" x="89.71" y="436.04" width="0.96" height="0.28" transform="translate(533.55 478.83) rotate(107.18)"/><rect class="cls-9" x="47.49" y="428.85" width="37.96" height="21.61" rx="1.53" transform="translate(132.82 -0.02) rotate(17.18)"/><path class="cls-10" d="M291.34,236.85a2.05,2.05,0,1,0,2.82-.67A2.07,2.07,0,0,0,291.34,236.85Z"/><path class="cls-10" d="M291.62,231.77a6.31,6.31,0,0,0-3.92,2.84,1.2,1.2,0,1,0,2,1.26,3.94,3.94,0,0,1,5.4-1.29,1.19,1.19,0,0,0,.91.15,1.23,1.23,0,0,0,.75-.54,1.2,1.2,0,0,0-.4-1.65A6.27,6.27,0,0,0,291.62,231.77Z"/><path class="cls-10" d="M290.7,227.93a10.18,10.18,0,0,0-6.37,4.61,1.2,1.2,0,1,0,2,1.26,7.88,7.88,0,0,1,10.84-2.59,1.19,1.19,0,0,0,.91.15,1.23,1.23,0,0,0,.75-.54,1.2,1.2,0,0,0-.4-1.65A10.19,10.19,0,0,0,290.7,227.93Z"/><path class="cls-10" d="M300.55,225.79a14.25,14.25,0,0,0-19.6,4.68,1.21,1.21,0,0,0,1.3,1.8,1.24,1.24,0,0,0,.75-.54,11.84,11.84,0,0,1,16.29-3.89,1.2,1.2,0,0,0,1.26-2.05Z"/><circle class="cls-3" cx="146.23" cy="350.44" r="10.38"/><path class="cls-11" d="M147.51,357.4a7.08,7.08,0,1,0-8.25-5.68A7.07,7.07,0,0,0,147.51,357.4Z"/><path class="cls-12" d="M129.51,346.51a16.88,16.88,0,0,0-.46,4.09l2.9,1.08a12.52,12.52,0,0,0,.19,1.35c0,.16.06.31.09.47l-2.45,1.89a16.85,16.85,0,0,0,1.65,3.78l3.06-.52a12.3,12.3,0,0,0,1.15,1.44L134.46,363a17.26,17.26,0,0,0,3.32,2.45l2.39-2a14.11,14.11,0,0,0,1.71.67l.41,3.07a17,17,0,0,0,4.1.45l1.08-2.9q.67-.06,1.35-.18l.47-.1,1.89,2.46a17.53,17.53,0,0,0,3.78-1.65l-.52-3.06a13.44,13.44,0,0,0,1.44-1.15l2.86,1.17a16.51,16.51,0,0,0,2.44-3.32l-2-2.39a14.63,14.63,0,0,0,.67-1.7l3.07-.42a16.9,16.9,0,0,0,.45-4.1l-2.9-1.08q-.06-.68-.18-1.35c0-.15-.06-.31-.1-.46l2.45-1.9a16.77,16.77,0,0,0-1.65-3.77l-3.05.51a16,16,0,0,0-1.15-1.43l1.17-2.86a17,17,0,0,0-3.32-2.45l-2.39,2a14.16,14.16,0,0,0-1.71-.68l-.41-3.06a17,17,0,0,0-4.1-.46L145,336.17a12.48,12.48,0,0,0-1.35.18c-.16,0-.31.06-.46.09l-1.9-2.45a17.53,17.53,0,0,0-3.78,1.65l.52,3.06a13.09,13.09,0,0,0-1.43,1.15l-2.87-1.18a17.63,17.63,0,0,0-2.44,3.32l2,2.39a16.84,16.84,0,0,0-.67,1.71Zm15.76-6.12a10.1,10.1,0,1,1-9.1,11A10.1,10.1,0,0,1,145.27,340.39Z"/><path class="cls-8" d="M155,349.6a8.79,8.79,0,1,0-7.92,9.59A8.8,8.8,0,0,0,155,349.6Zm-15.28,2a6.64,6.64,0,1,1,7.73,5.33A6.63,6.63,0,0,1,139.7,351.64Z"/><circle class="cls-13" cx="389.8" cy="382.97" r="7.04"/><path class="cls-13" d="M45.81,258.71a7,7,0,0,0-5.22-8.39,6.64,6.64,0,0,0-2.58-.11l.12-.47A11.71,11.71,0,0,0,15.75,243a5.32,5.32,0,0,0-6.21-.89,3.55,3.55,0,0,0-2.39-1.91"/><circle class="cls-14" cx="213.16" cy="389.96" r="3.54"/><circle class="cls-14" cx="366.3" cy="290.64" r="3.54"/><rect class="cls-3" x="119.32" y="245.46" width="68.56" height="10.72" transform="translate(39.02 -20.06) rotate(8.55)"/><rect class="cls-15" x="122.47" y="203.31" width="68.56" height="53.1" rx="3.43" transform="translate(35.94 -20.76) rotate(8.55)"/><circle cx="153.81" cy="250.85" r="1.64"/><polygon class="cls-16" points="159.22 268.15 143.14 265.73 147 255.25 159.12 257.07 159.22 268.15"/><line class="cls-17" x1="135.16" y1="264.53" x2="166.44" y2="269.24"/><line class="cls-18" x1="120.5" y1="240.42" x2="188.3" y2="250.62"/><path class="cls-19" d="M951,359.32h62.83a3.89,3.89,0,0,1,3.89,3.89V407.7a0,0,0,0,1,0,0H947.06a0,0,0,0,1,0,0V363.21A3.89,3.89,0,0,1,951,359.32Z" transform="translate(10.06 -24.82) rotate(1.46)"/><path class="cls-20" d="M1025.83,430.21l-89.24-2.27a.79.79,0,0,1-.68-1.15l10.55-20,70.59,1.79,9.51,20.51A.78.78,0,0,1,1025.83,430.21Z"/><rect class="cls-19" x="951.34" y="363.15" width="62.06" height="40.72" rx="2.67" transform="translate(10.06 -24.82) rotate(1.46)"/><polygon class="cls-21" points="978.64 414.39 978.82 411.79 975.09 411.69 974.78 414.29 978.64 414.39"/><polygon class="cls-21" points="986.35 414.58 986.28 411.98 982.55 411.88 982.49 414.49 986.35 414.58"/><polygon class="cls-21" points="1006.35 417.88 1010.34 417.98 1009.47 415.17 1005.62 415.07 1006.35 417.88"/><polygon class="cls-21" points="974.78 414.29 975.09 411.69 971.36 411.6 970.93 414.19 974.78 414.29"/><polygon class="cls-21" points="967.07 414.1 967.63 411.5 963.9 411.41 963.22 414 967.07 414.1"/><polygon class="cls-21" points="1001.76 414.98 1001.2 412.36 997.47 412.26 997.91 414.88 1001.76 414.98"/><polygon class="cls-21" points="1005.62 415.07 1004.93 412.45 1001.2 412.36 1001.76 414.98 1005.62 415.07"/><polygon class="cls-21" points="963.22 414 963.9 411.41 960.17 411.31 959.36 413.9 963.22 414"/><polygon class="cls-21" points="990.2 414.68 990.01 412.07 986.28 411.98 986.35 414.58 990.2 414.68"/><polygon class="cls-21" points="1009.47 415.17 1008.66 412.55 1004.93 412.45 1005.62 415.07 1009.47 415.17"/><polygon class="cls-21" points="997.91 414.88 997.47 412.26 993.74 412.17 994.05 414.78 997.91 414.88"/><polygon class="cls-21" points="994.05 414.78 993.74 412.17 990.01 412.07 990.2 414.68 994.05 414.78"/><polygon class="cls-21" points="982.49 414.49 982.55 411.88 978.82 411.79 978.64 414.39 982.49 414.49"/><polygon class="cls-21" points="955.51 413.8 951.65 413.7 950.52 416.46 954.51 416.56 955.51 413.8"/><polygon class="cls-21" points="956.45 411.22 952.72 411.12 951.65 413.7 955.51 413.8 956.45 411.22"/><polygon class="cls-21" points="959.36 413.9 960.17 411.31 956.45 411.22 955.51 413.8 959.36 413.9"/><polygon class="cls-21" points="949.3 419.42 948 422.6 952.28 422.7 953.43 419.52 949.3 419.42"/><polygon class="cls-21" points="954.51 416.56 950.52 416.46 949.3 419.42 953.43 419.52 954.51 416.56"/><polygon class="cls-21" points="953.43 419.52 952.28 422.7 956.56 422.81 957.56 419.63 953.43 419.52"/><polygon class="cls-21" points="970.93 414.19 971.36 411.6 967.63 411.5 967.07 414.1 970.93 414.19"/><polygon class="cls-21" points="970.46 416.97 970.93 414.19 967.07 414.1 966.47 416.87 970.46 416.97"/><polygon class="cls-21" points="966.47 416.87 967.07 414.1 963.22 414 962.48 416.77 966.47 416.87"/><polygon class="cls-21" points="974.45 417.07 974.78 414.29 970.93 414.19 970.46 416.97 974.45 417.07"/><polygon class="cls-21" points="959.36 413.9 955.51 413.8 954.51 416.56 958.49 416.67 959.36 413.9"/><polygon class="cls-21" points="1007.13 420.89 1011.27 420.99 1010.34 417.98 1006.35 417.88 1007.13 420.89"/><polygon class="cls-21" points="962.48 416.77 963.22 414 959.36 413.9 958.49 416.67 962.48 416.77"/><polygon class="cls-21" points="954.51 416.56 953.43 419.52 957.56 419.63 958.49 416.67 954.51 416.56"/><polygon class="cls-21" points="998.37 417.68 997.91 414.88 994.05 414.78 994.39 417.58 998.37 417.68"/><polygon class="cls-21" points="994.39 417.58 994.05 414.78 990.2 414.68 990.4 417.48 994.39 417.58"/><polygon class="cls-21" points="1006.35 417.88 1005.62 415.07 1001.76 414.98 1002.36 417.78 1006.35 417.88"/><polygon class="cls-21" points="982.42 417.27 982.49 414.49 978.64 414.39 978.43 417.17 982.42 417.27"/><polygon class="cls-21" points="990.4 417.48 990.2 414.68 986.35 414.58 986.41 417.38 990.4 417.48"/><polygon class="cls-21" points="986.41 417.38 986.35 414.58 982.49 414.49 982.42 417.27 986.41 417.38"/><polygon class="cls-21" points="978.43 417.17 978.64 414.39 974.78 414.29 974.45 417.07 978.43 417.17"/><polygon class="cls-21" points="990.4 417.48 990.61 420.47 994.74 420.57 994.39 417.58 990.4 417.48"/><polygon class="cls-21" points="994.39 417.58 994.74 420.57 998.87 420.68 998.37 417.68 994.39 417.58"/><polygon class="cls-21" points="958.49 416.67 957.56 419.63 961.69 419.73 962.48 416.77 958.49 416.67"/><polygon class="cls-21" points="998.37 417.68 998.87 420.68 1003 420.78 1002.36 417.78 998.37 417.68"/><polygon class="cls-21" points="982.42 417.27 982.35 420.26 986.48 420.36 986.41 417.38 982.42 417.27"/><polygon class="cls-21" points="1002.36 417.78 1003 420.78 1007.13 420.89 1006.35 417.88 1002.36 417.78"/><polygon class="cls-21" points="986.41 417.38 986.48 420.36 990.61 420.47 990.4 417.48 986.41 417.38"/><polygon class="cls-21" points="966.47 416.87 965.83 419.84 969.96 419.94 970.46 416.97 966.47 416.87"/><polygon class="cls-21" points="962.48 416.77 961.69 419.73 965.83 419.84 966.47 416.87 962.48 416.77"/><polygon class="cls-21" points="978.43 417.17 978.22 420.15 982.35 420.26 982.42 417.27 978.43 417.17"/><polygon class="cls-21" points="974.45 417.07 974.09 420.05 978.22 420.15 978.43 417.17 974.45 417.07"/><polygon class="cls-21" points="970.46 416.97 969.96 419.94 974.09 420.05 974.45 417.07 970.46 416.97"/><polygon class="cls-21" points="1002.36 417.78 1001.76 414.98 997.91 414.88 998.37 417.68 1002.36 417.78"/><polygon class="cls-21" points="956.45 411.22 957.4 408.57 953.8 408.48 952.72 411.12 956.45 411.22"/><polygon class="cls-21" points="952.72 411.12 949.27 411.04 948.1 413.61 951.65 413.7 952.72 411.12"/><polygon class="cls-21" points="953.8 408.48 950.48 408.4 949.27 411.04 952.72 411.12 953.8 408.48"/><polygon class="cls-21" points="951.65 413.7 948.1 413.61 946.84 416.37 950.52 416.46 951.65 413.7"/><polygon class="cls-21" points="950.52 416.46 946.84 416.37 945.49 419.32 949.3 419.42 950.52 416.46"/><polygon class="cls-21" points="949.3 419.42 945.49 419.32 944.04 422.5 948 422.6 949.3 419.42"/><polygon class="cls-21" points="1013.33 415.27 1014.33 418.08 1017.85 418.17 1016.74 415.36 1013.33 415.27"/><polygon class="cls-21" points="1015.4 421.1 1019.05 421.19 1017.85 418.17 1014.33 418.08 1015.4 421.1"/><polygon class="cls-21" points="1016.55 424.34 1020.34 424.43 1019.05 421.19 1015.4 421.1 1016.55 424.34"/><polygon class="cls-21" points="986.28 411.98 986.22 409.31 982.62 409.21 982.55 411.88 986.28 411.98"/><polygon class="cls-21" points="1013.33 415.27 1016.74 415.36 1015.69 412.72 1012.39 412.64 1013.33 415.27"/><polygon class="cls-21" points="1011.27 420.99 1015.4 421.1 1014.33 418.08 1010.34 417.98 1011.27 420.99"/><polygon class="cls-21" points="960.17 411.31 961.01 408.67 957.4 408.57 956.45 411.22 960.17 411.31"/><polygon class="cls-21" points="1008.66 412.55 1009.47 415.17 1013.33 415.27 1012.39 412.64 1008.66 412.55"/><polygon class="cls-21" points="1015.69 412.72 1014.62 410.03 1011.44 409.95 1012.39 412.64 1015.69 412.72"/><polygon class="cls-21" points="1012.39 412.64 1011.44 409.95 1007.84 409.86 1008.66 412.55 1012.39 412.64"/><polygon class="cls-21" points="998.87 420.68 999.41 423.9 1003.69 424.01 1003 420.78 998.87 420.68"/><polygon class="cls-21" points="1012.26 424.23 1016.55 424.34 1015.4 421.1 1011.27 420.99 1012.26 424.23"/><polygon class="cls-21" points="1008.66 412.55 1007.84 409.86 1004.23 409.76 1004.93 412.45 1008.66 412.55"/><polygon class="cls-21" points="1007.13 420.89 1007.98 424.12 1012.26 424.23 1011.27 420.99 1007.13 420.89"/><polygon class="cls-21" points="1003 420.78 1003.69 424.01 1007.98 424.12 1007.13 420.89 1003 420.78"/><polygon class="cls-21" points="1010.34 417.98 1014.33 418.08 1013.33 415.27 1009.47 415.17 1010.34 417.98"/><polygon class="cls-21" points="975.09 411.69 975.41 409.03 971.81 408.94 971.36 411.6 975.09 411.69"/><polygon class="cls-21" points="1004.93 412.45 1004.23 409.76 1000.63 409.67 1001.2 412.36 1004.93 412.45"/><polygon class="cls-21" points="971.36 411.6 971.81 408.94 968.21 408.85 967.63 411.5 971.36 411.6"/><polygon class="cls-21" points="982.55 411.88 982.62 409.21 979.02 409.12 978.82 411.79 982.55 411.88"/><polygon class="cls-21" points="967.63 411.5 968.21 408.85 964.61 408.76 963.9 411.41 967.63 411.5"/><polygon class="cls-21" points="963.9 411.41 964.61 408.76 961.01 408.67 960.17 411.31 963.9 411.41"/><polygon class="cls-21" points="978.82 411.79 979.02 409.12 975.41 409.03 975.09 411.69 978.82 411.79"/><polygon class="cls-21" points="1001.2 412.36 1000.63 409.67 997.03 409.58 997.47 412.26 1001.2 412.36"/><polygon class="cls-21" points="997.47 412.26 997.03 409.58 993.43 409.49 993.74 412.17 997.47 412.26"/><polygon class="cls-21" points="990.01 412.07 989.82 409.4 986.22 409.31 986.28 411.98 990.01 412.07"/><polygon class="cls-22" points="998.8 421.13 994.63 421.03 990.47 420.92 986.29 420.81 982.13 420.71 977.96 420.6 973.78 420.5 969.62 420.39 965.45 420.29 961.27 420.18 957.11 420.07 956.1 423.26 960.42 423.37 964.75 423.48 969.07 423.59 973.4 423.7 977.72 423.81 982.05 423.92 986.37 424.03 990.7 424.14 995.02 424.25 999.35 424.36 998.8 421.13"/><polygon class="cls-21" points="993.74 412.17 993.43 409.49 989.82 409.4 990.01 412.07 993.74 412.17"/><rect class="cls-22" x="935.29" y="429.08" width="91.84" height="1.3" transform="translate(11.23 -24.78) rotate(1.46)"/><rect class="cls-19" x="992.46" y="204.01" width="35.95" height="104.75" rx="1.23" transform="translate(548.6 1190.96) rotate(-77.94)"/><rect class="cls-23" x="964.96" y="231.48" width="3.76" height="3.76" rx="0.27" transform="translate(536.63 1130.1) rotate(-77.94)"/><rect class="cls-23" x="963.78" y="237.03" width="3.76" height="3.76" rx="0.27" transform="translate(530.27 1133.33) rotate(-77.94)"/><rect class="cls-23" x="968.07" y="237.94" width="3.76" height="3.76" rx="0.27" transform="translate(532.77 1138.25) rotate(-77.94)"/><rect class="cls-23" x="972.36" y="238.86" width="3.76" height="3.76" rx="0.27" transform="translate(535.26 1143.17) rotate(-77.94)"/><rect class="cls-23" x="976.64" y="239.78" width="3.76" height="3.76" rx="0.27" transform="translate(537.76 1148.09) rotate(-77.94)"/><rect class="cls-23" x="980.93" y="240.69" width="3.76" height="3.76" rx="0.27" transform="translate(540.26 1153.01) rotate(-77.94)"/><rect class="cls-23" x="985.22" y="241.61" width="3.76" height="3.76" rx="0.27" transform="translate(542.76 1157.93) rotate(-77.94)"/><rect class="cls-23" x="989.51" y="242.53" width="3.76" height="3.76" rx="0.27" transform="translate(545.25 1162.85) rotate(-77.94)"/><rect class="cls-23" x="993.8" y="243.44" width="3.76" height="3.76" rx="0.27" transform="translate(547.75 1167.77) rotate(-77.94)"/><rect class="cls-23" x="998.09" y="244.36" width="3.76" height="3.76" rx="0.27" transform="translate(550.25 1172.69) rotate(-77.94)"/><rect class="cls-23" x="1002.38" y="245.27" width="3.76" height="3.76" rx="0.27" transform="translate(552.74 1177.61) rotate(-77.94)"/><rect class="cls-23" x="1006.67" y="246.19" width="3.76" height="3.76" rx="0.27" transform="translate(555.24 1182.53) rotate(-77.94)"/><rect class="cls-23" x="1010.96" y="247.11" width="3.76" height="3.76" rx="0.27" transform="translate(557.74 1187.45) rotate(-77.94)"/><rect class="cls-23" x="1015.25" y="248.02" width="3.76" height="3.76" rx="0.27" transform="translate(560.24 1192.37) rotate(-77.94)"/><rect class="cls-23" x="1021.42" y="247.42" width="3.76" height="7.6" rx="0.27" transform="translate(563.83 1199.45) rotate(-77.94)"/><rect class="cls-23" x="963.68" y="240.78" width="3.76" height="5.51" rx="0.27" transform="translate(525.67 1136.9) rotate(-77.94)"/><rect class="cls-23" x="963.29" y="244.75" width="3.76" height="6.64" rx="0.27" transform="translate(520.93 1140.11) rotate(-77.94)"/><rect class="cls-23" x="963.44" y="248.28" width="3.76" height="8.88" rx="0.27" transform="translate(516.49 1143.94) rotate(-77.94)"/><rect class="cls-23" x="960.95" y="253.9" width="3.76" height="5.67" rx="0.27" transform="translate(510.59 1144.67) rotate(-77.94)"/><rect class="cls-23" x="968.95" y="242.78" width="3.76" height="3.76" rx="0.27" transform="translate(528.74 1142.95) rotate(-77.94)"/><rect class="cls-23" x="969.07" y="247.42" width="3.76" height="3.76" rx="0.27" transform="translate(524.29 1146.73) rotate(-77.94)"/><rect class="cls-23" x="973.5" y="248.37" width="3.76" height="3.76" rx="0.27" transform="translate(526.87 1151.82) rotate(-77.94)"/><rect class="cls-23" x="970.39" y="252.33" width="3.76" height="3.76" rx="0.27" transform="translate(520.54 1151.9) rotate(-77.94)"/><rect class="cls-23" x="966.25" y="256" width="3.76" height="3.76" rx="0.27" transform="translate(513.68 1150.76) rotate(-77.94)"/><rect class="cls-23" x="970.69" y="256.94" width="3.76" height="3.76" rx="0.27" transform="translate(516.26 1155.85) rotate(-77.94)"/><rect class="cls-23" x="975.08" y="257.88" width="3.76" height="3.76" rx="0.27" transform="translate(518.82 1160.89) rotate(-77.94)"/><rect class="cls-23" x="990.46" y="249.89" width="3.76" height="26.31" rx="0.27" transform="translate(527.77 1178.53) rotate(-77.94)"/><rect class="cls-23" x="974.85" y="253.28" width="3.76" height="3.76" rx="0.27" transform="translate(523.14 1157.02) rotate(-77.94)"/><rect class="cls-23" x="979.31" y="254.23" width="3.76" height="3.76" rx="0.27" transform="translate(525.73 1162.14) rotate(-77.94)"/><rect class="cls-23" x="983.78" y="255.19" width="3.76" height="3.76" rx="0.27" transform="translate(528.33 1167.26) rotate(-77.94)"/><rect class="cls-23" x="988.24" y="256.14" width="3.76" height="3.76" rx="0.27" transform="translate(530.93 1172.38) rotate(-77.94)"/><rect class="cls-23" x="992.7" y="257.09" width="3.76" height="3.76" rx="0.27" transform="translate(533.53 1177.5) rotate(-77.94)"/><rect class="cls-23" x="997.17" y="258.05" width="3.76" height="3.76" rx="0.27" transform="translate(536.13 1182.62) rotate(-77.94)"/><rect class="cls-23" x="1001.63" y="259" width="3.76" height="3.76" rx="0.27" transform="translate(538.73 1187.74) rotate(-77.94)"/><rect class="cls-23" x="1006.09" y="259.95" width="3.76" height="3.76" rx="0.27" transform="translate(541.32 1192.85) rotate(-77.94)"/><rect class="cls-23" x="1006.13" y="264.52" width="3.76" height="3.76" rx="0.27" transform="translate(536.89 1196.5) rotate(-77.94)"/><rect class="cls-23" x="1010.6" y="265.47" width="3.76" height="3.76" rx="0.27" transform="translate(539.49 1201.62) rotate(-77.94)"/><rect class="cls-23" x="1015.07" y="266.42" width="3.76" height="3.76" rx="0.27" transform="translate(542.09 1206.75) rotate(-77.94)"/><rect class="cls-23" x="1019.54" y="267.38" width="3.76" height="3.76" rx="0.27" transform="translate(544.7 1211.87) rotate(-77.94)"/><rect class="cls-23" x="1010.56" y="260.91" width="3.76" height="3.76" rx="0.27" transform="translate(543.92 1197.97) rotate(-77.94)"/><rect class="cls-23" x="1017.74" y="259.66" width="3.76" height="9.33" rx="0.27" transform="matrix(0.21, -0.98, 0.98, 0.21, 548.1, 1206.22)"/><rect class="cls-23" x="977.93" y="249.32" width="3.76" height="3.76" rx="0.27" transform="translate(529.45 1156.9) rotate(-77.94)"/><rect class="cls-23" x="982.37" y="250.26" width="3.76" height="3.76" rx="0.27" transform="translate(532.03 1161.99) rotate(-77.94)"/><rect class="cls-23" x="986.8" y="251.21" width="3.76" height="3.76" rx="0.27" transform="translate(534.61 1167.07) rotate(-77.94)"/><rect class="cls-23" x="991.23" y="252.16" width="3.76" height="3.76" rx="0.27" transform="translate(537.19 1172.16) rotate(-77.94)"/><rect class="cls-23" x="995.67" y="253.11" width="3.76" height="3.76" rx="0.27" transform="translate(539.77 1177.24) rotate(-77.94)"/><rect class="cls-23" x="1000.1" y="254.05" width="3.76" height="3.76" rx="0.27" transform="translate(542.35 1182.33) rotate(-77.94)"/><rect class="cls-23" x="1004.53" y="255" width="3.76" height="3.76" rx="0.27" transform="translate(544.94 1187.41) rotate(-77.94)"/><rect class="cls-23" x="1008.97" y="255.95" width="3.76" height="3.76" rx="0.27" transform="translate(547.52 1192.5) rotate(-77.94)"/><rect class="cls-23" x="1013.4" y="256.89" width="3.76" height="3.76" rx="0.27" transform="translate(550.1 1197.58) rotate(-77.94)"/><rect class="cls-23" x="973.34" y="243.71" width="3.76" height="3.76" rx="0.27" transform="translate(531.3 1147.98) rotate(-77.94)"/><rect class="cls-23" x="977.74" y="244.65" width="3.76" height="3.76" rx="0.27" transform="translate(533.85 1153.02) rotate(-77.94)"/><rect class="cls-23" x="982.13" y="245.59" width="3.76" height="3.76" rx="0.27" transform="translate(536.41 1158.06) rotate(-77.94)"/><rect class="cls-23" x="986.52" y="246.53" width="3.76" height="3.76" rx="0.27" transform="translate(538.97 1163.09) rotate(-77.94)"/><rect class="cls-23" x="990.91" y="247.47" width="3.76" height="3.76" rx="0.27" transform="translate(541.52 1168.13) rotate(-77.94)"/><rect class="cls-23" x="995.3" y="248.41" width="3.76" height="3.76" rx="0.27" transform="translate(544.08 1173.17) rotate(-77.94)"/><rect class="cls-23" x="999.69" y="249.34" width="3.76" height="3.76" rx="0.27" transform="translate(546.64 1178.2) rotate(-77.94)"/><rect class="cls-23" x="1004.08" y="250.28" width="3.76" height="3.76" rx="0.27" transform="translate(549.19 1183.24) rotate(-77.94)"/><rect class="cls-23" x="1008.48" y="251.22" width="3.76" height="3.76" rx="0.27" transform="translate(551.75 1188.28) rotate(-77.94)"/><rect class="cls-23" x="1012.87" y="252.16" width="3.76" height="3.76" rx="0.27" transform="translate(554.31 1193.31) rotate(-77.94)"/><rect class="cls-23" x="1017.26" y="253.1" width="3.76" height="3.76" rx="0.27" transform="translate(556.86 1198.35) rotate(-77.94)"/><path class="cls-23" d="M1022.34,253.74a.26.26,0,0,0-.31.2l-.68,3.16a.27.27,0,0,0,.21.31l1,.22a.26.26,0,0,1,.21.31l-.84,3.9a.27.27,0,0,0,.21.32l2.32.5a.27.27,0,0,0,.32-.21l1.62-7.57a.28.28,0,0,0-.21-.32Z"/><path class="cls-23" d="M1021.4,258.16l-.52-.11-2.35-.5a.27.27,0,0,0-.32.2l-.67,3.15a.27.27,0,0,0,.2.32l2.35.5.52.11.29.06a.26.26,0,0,0,.31-.2l.68-3.16a.27.27,0,0,0-.21-.31Z"/><rect class="cls-23" x="971.8" y="232.94" width="3.76" height="3.76" rx="0.27" transform="translate(540.61 1137.95) rotate(-77.94)"/><rect class="cls-23" x="976.58" y="233.96" width="3.76" height="3.76" rx="0.27" transform="translate(543.39 1143.43) rotate(-77.94)"/><rect class="cls-23" x="981.35" y="234.98" width="3.76" height="3.76" rx="0.27" transform="translate(546.17 1148.9) rotate(-77.94)"/><rect class="cls-23" x="986.12" y="236" width="3.76" height="3.76" rx="0.27" transform="translate(548.95 1154.37) rotate(-77.94)"/><rect class="cls-23" x="990.99" y="237.04" width="3.76" height="3.76" rx="0.27" transform="translate(551.78 1159.96) rotate(-77.94)"/><rect class="cls-23" x="995.76" y="238.06" width="3.76" height="3.76" rx="0.27" transform="translate(554.56 1165.43) rotate(-77.94)"/><rect class="cls-23" x="1000.53" y="239.08" width="3.76" height="3.76" rx="0.27" transform="translate(557.34 1170.9) rotate(-77.94)"/><rect class="cls-23" x="1005.3" y="240.1" width="3.76" height="3.76" rx="0.27" transform="matrix(0.21, -0.98, 0.98, 0.21, 560.12, 1176.38)"/><rect class="cls-23" x="1010.17" y="241.14" width="3.76" height="3.76" rx="0.27" transform="translate(562.95 1181.96) rotate(-77.94)"/><rect class="cls-23" x="1014.94" y="242.16" width="3.76" height="3.76" rx="0.27" transform="translate(565.73 1187.43) rotate(-77.94)"/><rect class="cls-23" x="1019.72" y="243.18" width="3.76" height="3.76" rx="0.27" transform="translate(568.51 1192.91) rotate(-77.94)"/><rect class="cls-23" x="1024.49" y="244.2" width="3.76" height="3.76" rx="0.27" transform="translate(571.28 1198.38) rotate(-77.94)"/><rect class="cls-23" x="1030.34" y="245.45" width="3.76" height="3.76" rx="0.27" transform="translate(574.69 1205.09) rotate(-77.94)"/><rect class="cls-23" x="1034.95" y="246.43" width="3.76" height="3.76" rx="0.27" transform="translate(577.38 1210.38) rotate(-77.94)"/><rect class="cls-23" x="1039.57" y="247.42" width="3.76" height="3.76" rx="0.27" transform="translate(580.06 1215.67) rotate(-77.94)"/><rect class="cls-23" x="1029.15" y="250.99" width="3.76" height="3.76" rx="0.27" transform="translate(568.33 1208.32) rotate(-77.94)"/><rect class="cls-23" x="1033.77" y="251.98" width="3.76" height="3.76" rx="0.27" transform="translate(571.01 1213.61) rotate(-77.94)"/><rect class="cls-23" x="1038.38" y="252.97" width="3.76" height="3.76" rx="0.27" transform="translate(573.7 1218.9) rotate(-77.94)"/><rect class="cls-23" x="1043.42" y="254.04" width="3.76" height="3.76" rx="0.27" transform="translate(576.63 1224.68) rotate(-77.94)"/><rect class="cls-23" x="1047.81" y="254.98" width="3.76" height="3.76" rx="0.27" transform="translate(579.19 1229.71) rotate(-77.94)"/><rect class="cls-23" x="1052.19" y="255.92" width="3.76" height="3.76" rx="0.27" transform="translate(581.74 1234.74) rotate(-77.94)"/><rect class="cls-23" x="1056.58" y="256.85" width="3.76" height="3.76" rx="0.27" transform="translate(584.29 1239.77) rotate(-77.94)"/><rect class="cls-23" x="1042.47" y="258.48" width="3.76" height="3.76" rx="0.27" transform="translate(571.54 1227.26) rotate(-77.94)"/><rect class="cls-23" x="1046.86" y="259.42" width="3.76" height="3.76" rx="0.27" transform="translate(574.09 1232.3) rotate(-77.94)"/><rect class="cls-23" x="1051.24" y="260.36" width="3.76" height="3.76" rx="0.27" transform="translate(576.65 1237.33) rotate(-77.94)"/><rect class="cls-23" x="1055.63" y="261.29" width="3.76" height="3.76" rx="0.27" transform="translate(579.2 1242.36) rotate(-77.94)"/><rect class="cls-23" x="1041.52" y="262.92" width="3.76" height="3.76" rx="0.27" transform="translate(566.44 1229.85) rotate(-77.94)"/><rect class="cls-23" x="1045.91" y="263.86" width="3.76" height="3.76" rx="0.27" transform="matrix(0.21, -0.98, 0.98, 0.21, 569, 1234.88)"/><rect class="cls-23" x="1050.3" y="264.8" width="3.76" height="3.76" rx="0.27" transform="translate(571.55 1239.91) rotate(-77.94)"/><rect class="cls-23" x="1054.68" y="265.74" width="3.76" height="3.76" rx="0.27" transform="translate(574.11 1244.95) rotate(-77.94)"/><rect class="cls-23" x="1040.57" y="267.37" width="3.76" height="3.76" rx="0.27" transform="translate(561.35 1232.44) rotate(-77.94)"/><rect class="cls-23" x="1044.96" y="268.3" width="3.76" height="3.76" rx="0.27" transform="translate(563.9 1237.47) rotate(-77.94)"/><rect class="cls-23" x="1049.35" y="269.24" width="3.76" height="3.76" rx="0.27" transform="translate(566.46 1242.5) rotate(-77.94)"/><rect class="cls-23" x="1051.07" y="272.33" width="8.16" height="3.76" rx="0.27" transform="translate(566.54 1248.79) rotate(-77.94)"/><rect class="cls-23" x="1041.82" y="270.03" width="3.76" height="8.24" rx="0.27" transform="translate(557.53 1237.54) rotate(-77.94)"/><rect class="cls-23" x="1048.4" y="273.68" width="3.76" height="3.76" rx="0.27" transform="translate(561.36 1245.08) rotate(-77.94)"/><rect class="cls-23" x="1028.2" y="255.44" width="3.76" height="3.76" rx="0.27" transform="translate(563.23 1210.9) rotate(-77.94)"/><rect class="cls-23" x="1032.82" y="256.42" width="3.76" height="3.76" rx="0.27" transform="translate(565.92 1216.2) rotate(-77.94)"/><rect class="cls-23" x="1037.43" y="257.41" width="3.76" height="3.76" rx="0.27" transform="translate(568.61 1221.49) rotate(-77.94)"/><rect class="cls-23" x="1030.95" y="265.17" width="3.76" height="3.76" rx="0.27" transform="translate(555.88 1221.29) rotate(-77.94)"/><rect class="cls-23" x="1025.39" y="268.63" width="3.76" height="3.76" rx="0.27" transform="translate(548.1 1218.58) rotate(-77.94)"/><rect class="cls-23" x="1030" y="269.62" width="3.76" height="3.76" rx="0.27" transform="translate(550.79 1223.88) rotate(-77.94)"/><rect class="cls-23" x="1034.61" y="270.6" width="3.76" height="3.76" rx="0.27" transform="translate(553.47 1229.17) rotate(-77.94)"/><path class="cls-23" d="M1049.77,250.48a1.17,1.17,0,0,1-1.38.9,1.15,1.15,0,0,1-.89-1.38,1.16,1.16,0,1,1,2.27.48Z"/><path class="cls-23" d="M1054,251.38a1.17,1.17,0,0,1-1.38.9,1.18,1.18,0,0,1-.89-1.39,1.17,1.17,0,0,1,1.38-.89A1.15,1.15,0,0,1,1054,251.38Z"/><path class="cls-23" d="M1058.16,252.28a1.17,1.17,0,1,1-.9-1.38A1.16,1.16,0,0,1,1058.16,252.28Z"/><path class="cls-24" d="M1132.69,288.92c.85,3.79-1.74,6.59-5.52,7.44h0c-3.78.85-7.32-.58-8.17-4.36l-2.51-11.16c-.85-3.78,1.78-6.43,5.56-7.28h0c3.78-.85,7.28.42,8.13,4.2Z"/><path d="M1124.81,285.06l-2.59-11.54-.34.08,2.59,11.54a17.07,17.07,0,0,1-7-.13l.08.39a15.72,15.72,0,0,0,7,.09h0l.19,0,.16,0h0a15.62,15.62,0,0,0,6.32-3.1l-.08-.39A17.05,17.05,0,0,1,1124.81,285.06Z"/><path d="M1125.39,281.92a1.43,1.43,0,0,1-1.08,1.71h0a1.43,1.43,0,0,1-1.71-1.08l-1-4.4a1.43,1.43,0,0,1,1.08-1.71h0a1.43,1.43,0,0,1,1.71,1.08Z"/><path d="M1125.08,281.61a1.19,1.19,0,0,1-.9,1.43h0a1.19,1.19,0,0,1-1.43-.9l-.83-3.68a1.19,1.19,0,0,1,.91-1.43h0a1.2,1.2,0,0,1,1.43.9Z"/><path class="cls-25" d="M836.38,303.37h0l.84-4.4a2.68,2.68,0,0,0-2.14-3.14l-16-3a2.69,2.69,0,0,0-3.15,2.14l-.83,4.4h0a.35.35,0,0,0-.41.28l-.58,3a.35.35,0,0,0,.28.41h0l-.14.72h0a.35.35,0,0,0-.41.28l-.58,3a.36.36,0,0,0,.28.41h0l-5.06,26.64a2.68,2.68,0,0,0,2.14,3.14l16,3a2.69,2.69,0,0,0,3.14-2.14L835.27,309h0a.35.35,0,0,0,.41-.28l.93-4.91A.34.34,0,0,0,836.38,303.37Z"/><rect class="cls-23" x="813.34" y="295.52" width="18.87" height="42.42" rx="3.27" transform="translate(73.47 -147.84) rotate(10.74)"/><path class="cls-8" d="M822.34,295.69H831a0,0,0,0,1,0,0v0a.78.78,0,0,1-.78.78h-7.13a.78.78,0,0,1-.78-.78v0A0,0,0,0,1,822.34,295.69Z" transform="translate(69.69 -148.93) rotate(10.74)"/><path class="cls-8" d="M809.43,333.73h19.41a0,0,0,0,1,0,0v1.41a3,3,0,0,1-3,3h-13.4a3,3,0,0,1-3-3v-1.41A0,0,0,0,1,809.43,333.73Z" transform="translate(76.99 -146.82) rotate(10.74)"/><circle class="cls-7" cx="819.13" cy="335.93" r="1.13"/><line class="cls-26" x1="819.61" y1="306.27" x2="829.4" y2="319.1"/><line class="cls-26" x1="820.43" y1="315.89" x2="826.84" y2="323.6"/><line class="cls-26" x1="824.13" y1="309.6" x2="828.76" y2="315.56"/><path class="cls-10" d="M876.66,253.11a2.53,2.53,0,1,0,3.57.22A2.53,2.53,0,0,0,876.66,253.11Z"/><path class="cls-10" d="M878.81,247.21a7.75,7.75,0,0,0-5.66,1.95,1.48,1.48,0,0,0,2,2.22,4.85,4.85,0,0,1,6.85.42,1.53,1.53,0,0,0,1,.5,1.49,1.49,0,0,0,1.2-2.47A7.78,7.78,0,0,0,878.81,247.21Z"/><path class="cls-10" d="M879.11,242.33a12.59,12.59,0,0,0-9.19,3.17,1.48,1.48,0,0,0,2,2.22,9.74,9.74,0,0,1,13.75.84,1.45,1.45,0,0,0,1,.5,1.48,1.48,0,0,0,1.2-2.46A12.61,12.61,0,0,0,879.11,242.33Z"/><path class="cls-10" d="M891.52,243.35a17.62,17.62,0,0,0-24.85-1.52,1.47,1.47,0,0,0-.12,2.09,1.48,1.48,0,0,0,2.09.13,14.63,14.63,0,0,1,20.65,1.27,1.49,1.49,0,0,0,2.23-2Z"/><circle class="cls-3" cx="1103.61" cy="469.53" r="8"/><path class="cls-11" d="M1104.23,474.67a5.18,5.18,0,1,0-5.76-4.52A5.19,5.19,0,0,0,1104.23,474.67Z"/><path class="cls-27" d="M1091.59,465.91a12.24,12.24,0,0,0-.52,3l2.07.92c0,.33,0,.66.07,1,0,.12,0,.23,0,.34l-1.87,1.28a12.42,12.42,0,0,0,1,2.83l2.26-.24a9.3,9.3,0,0,0,.77,1.09l-1,2a12.93,12.93,0,0,0,2.31,1.93l1.83-1.33a10.37,10.37,0,0,0,1.22.56l.16,2.26a12.84,12.84,0,0,0,3,.52l.92-2.07c.33,0,.66,0,1-.08l.34-.05,1.28,1.88a12.93,12.93,0,0,0,2.83-1l-.24-2.25a10.66,10.66,0,0,0,1.09-.77l2,1a12.14,12.14,0,0,0,1.93-2.31l-1.33-1.83c.21-.4.4-.8.57-1.22l2.25-.17a12.15,12.15,0,0,0,.51-3l-2.06-.91a8.59,8.59,0,0,0-.08-1c0-.11,0-.22,0-.34l1.88-1.27a12.75,12.75,0,0,0-1-2.83l-2.25.24a12,12,0,0,0-.77-1.1l1-2a12.58,12.58,0,0,0-2.31-1.94l-1.83,1.34a9.63,9.63,0,0,0-1.22-.57l-.17-2.26a12.65,12.65,0,0,0-3-.51l-.92,2.07c-.33,0-.66,0-1,.07l-.34.05-1.27-1.87a12.25,12.25,0,0,0-2.83,1l.24,2.26a10.34,10.34,0,0,0-1.1.77l-2-1a12.26,12.26,0,0,0-1.94,2.31l1.34,1.83a12.36,12.36,0,0,0-.57,1.22Zm11.77-3.76a7.38,7.38,0,1,1-7.13,7.63A7.38,7.38,0,0,1,1103.36,462.15Z"/><path class="cls-8" d="M1110,469.31a6.42,6.42,0,1,0-6.2,6.64A6.43,6.43,0,0,0,1110,469.31Zm-11.24.8a4.86,4.86,0,1,1,5.41,4.24A4.85,4.85,0,0,1,1098.79,470.11Z"/><circle class="cls-14" cx="701.92" cy="382.34" r="6.99"/><path class="cls-13" d="M1069.9,368.1a7,7,0,0,1,9.91-5.92c0-.16,0-.31,0-.48a11.72,11.72,0,0,1,23.39-.06,5.25,5.25,0,0,1,2.79-.6,5.31,5.31,0,0,1,3.41,1.53,3.54,3.54,0,0,1,2.84-1.14"/><circle class="cls-14" cx="849.93" cy="389.33" r="3.54"/><circle class="cls-14" cx="752.72" cy="287.85" r="3.54"/><circle class="cls-14" cx="1112.7" cy="218.13" r="3.54"/><path class="cls-7" d="M555.4,27.62V112l-2,5.69.25-74.18S553.53,32.18,555.4,27.62Z"/><polygon class="cls-7" points="599.18 55.29 599.89 144.32 602.34 146.6 600.56 62.03 599.18 55.29"/><path class="cls-7" d="M544.59,44.23s-4,13.32-4.34,43.47c-.34,25.63-1,57.42-1,57.42l-2.55,1.48s1.47-80.5,1.68-83S540,48.85,544.59,44.23Z"/><path class="cls-7" d="M568.72,9S579,17.77,582.28,34.21c2.51,12.53,1.66,76.26,1.66,76.26l2.51,8.29L585.06,32.7S578.4,11.06,568.72,9Z"/><path class="cls-28" d="M577.71,54.47a24.83,24.83,0,0,0-3.37-.37"/><path class="cls-29" d="M572.65,10.46a4.6,4.6,0,0,0-6.28.24C562.31,14.63,555,23.41,554.06,34c-1.25,14.32-.89,93.36-.89,93.36h33.28s-.5-88.25-1.26-93.89C584.25,26.58,578.37,15.4,572.65,10.46Z"/><rect class="cls-30" x="541.4" y="175.65" width="9.19" height="15.27" transform="translate(1091.99 366.56) rotate(-180)"/><path class="cls-31" d="M538.9,189.19h14.2a0,0,0,0,1,0,0v2.21a7.1,7.1,0,0,1-7.1,7.1h0a7.1,7.1,0,0,1-7.1-7.1v-2.21a0,0,0,0,1,0,0Z" transform="translate(1091.99 387.68) rotate(-180)"/><line class="cls-32" x1="541.67" y1="178.54" x2="550.59" y2="178.54"/><line class="cls-32" x1="541.67" y1="180.91" x2="550.59" y2="180.91"/><line class="cls-32" x1="541.67" y1="183.28" x2="547.53" y2="183.28"/><line class="cls-32" x1="541.67" y1="185.7" x2="546.22" y2="185.7"/><line class="cls-32" x1="548.31" y1="185.7" x2="550.59" y2="185.7"/><line class="cls-32" x1="549.01" y1="183.28" x2="550.59" y2="183.28"/><rect class="cls-30" x="588.9" y="175.65" width="9.19" height="15.27"/><path class="cls-31" d="M593.49,189.19h0a7.1,7.1,0,0,1,7.1,7.1v2.21a0,0,0,0,1,0,0h-14.2a0,0,0,0,1,0,0v-2.21a7.1,7.1,0,0,1,7.1-7.1Z"/><line class="cls-32" x1="597.82" y1="178.54" x2="588.9" y2="178.54"/><line class="cls-32" x1="597.82" y1="180.91" x2="588.9" y2="180.91"/><line class="cls-32" x1="597.82" y1="183.28" x2="591.96" y2="183.28"/><line class="cls-32" x1="597.82" y1="185.7" x2="593.27" y2="185.7"/><line class="cls-32" x1="591.17" y1="185.7" x2="588.9" y2="185.7"/><line class="cls-32" x1="590.48" y1="183.28" x2="588.9" y2="183.28"/><path class="cls-31" d="M569.79,67.36s-3.86-.4-7.5,8.85c-3.51,8.91-3.22,10.62-3.34,14.55s0,79.34,0,79.34h21.84s-.19-77.43-.24-81.38C580.49,84.5,578.7,79,576.79,75S573.34,67.71,569.79,67.36Z"/><path class="cls-30" d="M594.44,44.23c-1.82,0-5,10.2-6.21,17s.75,85.36.75,85.36h13.36s-1-80-1.88-85.57C599.8,56.79,596.42,44.23,594.44,44.23Z"/><path class="cls-33" d="M601,75.22a13.57,13.57,0,0,0-10.49-.59"/><path class="cls-33" d="M601.56,94.43a13.56,13.56,0,0,0-10.5-.6"/><path class="cls-33" d="M601.75,110.47a15.74,15.74,0,0,0-5.67-1"/><path class="cls-33" d="M594.45,109.51a12.61,12.61,0,0,0-2.69.35"/><path class="cls-30" d="M544.59,44.23c1.83,0,5,10.2,6.22,17s-.76,85.36-.76,85.36H536.7s1-80,1.88-85.57C539.24,56.79,542.62,44.23,544.59,44.23Z"/><path class="cls-33" d="M538,75.22a13.59,13.59,0,0,1,10.5-.59"/><path class="cls-33" d="M537.48,94.43a13.54,13.54,0,0,1,10.49-.6"/><path class="cls-33" d="M537.28,110.47a15.83,15.83,0,0,1,5.68-1"/><path class="cls-33" d="M544.59,109.51a12.49,12.49,0,0,1,2.68.35"/><path class="cls-22" d="M538.27,65.88a19.5,19.5,0,0,1,12.83.36L551,63.8a15.85,15.85,0,0,0-12.64-.24Z"/><path class="cls-22" d="M600.76,65.88a19.51,19.51,0,0,0-12.83.36L588,63.8a15.84,15.84,0,0,1,12.64-.24Z"/><path class="cls-34" d="M554.64,57.4s3.61-3.63,13.93-3.28"/><path class="cls-33" d="M553.37,56.22s3.61-3.63,13.93-3.28"/><path class="cls-33" d="M580.59,54.1A15.92,15.92,0,0,1,585.8,56"/><path class="cls-33" d="M580.48,86.76c4.09.46,5.52,1.88,5.52,1.88"/><path class="cls-33" d="M553.12,89.1s1.39-1.29,5.78-1.88"/><path class="cls-35" d="M579.6,55.38a15.77,15.77,0,0,1,5.22,1.89"/><path class="cls-33" d="M579.09,53.79a24.2,24.2,0,0,0-3.37-.38"/><path class="cls-8" d="M563.32,73.86s5.38,3.61,12.71,0c0,0-2.76-6.93-6.24-6.5S563.32,73.86,563.32,73.86Z"/><path class="cls-33" d="M580.14,85s-4.63-2.45-12.84-1.49"/><path class="cls-33" d="M559.43,85a33.88,33.88,0,0,1,4.36-1"/><path class="cls-8" d="M574.19,81.12h-.89a5.59,5.59,0,0,0-7.47,0h-.92c.36-1.61,2.3-2.84,4.65-2.84S573.84,79.51,574.19,81.12Z"/><rect class="cls-8" x="563.92" y="88.64" width="2.07" height="2.96" rx="1.04"/><rect class="cls-8" x="567.15" y="88.64" width="2.07" height="2.96" rx="1.04"/><rect class="cls-8" x="570.38" y="88.64" width="2.07" height="2.96" rx="1.04"/><rect class="cls-8" x="573.61" y="88.64" width="2.07" height="2.96" rx="1.04"/><path class="cls-30" d="M580.59,96.49s6.4,31.38,15.23,43.07,21.47,16.7,21.95,33.52l-37,6Z"/><line class="cls-36" x1="617.65" y1="171.11" x2="597.49" y2="171.11"/><line class="cls-33" x1="583.89" y1="171.11" x2="589.58" y2="171.11"/><line class="cls-33" x1="592.38" y1="171.11" x2="595.45" y2="171.11"/><line class="cls-32" x1="617.14" y1="167.72" x2="582.63" y2="167.72"/><line class="cls-33" x1="614.37" y1="167.72" x2="614.37" y2="171.11"/><line class="cls-33" x1="611.73" y1="167.72" x2="611.73" y2="171.11"/><line class="cls-33" x1="608.91" y1="167.72" x2="608.91" y2="171.11"/><line class="cls-33" x1="606.21" y1="167.69" x2="606.21" y2="171.08"/><line class="cls-33" x1="603.57" y1="167.69" x2="603.57" y2="171.08"/><line class="cls-33" x1="600.75" y1="167.69" x2="600.75" y2="171.08"/><line class="cls-33" x1="598.08" y1="167.69" x2="598.08" y2="171.08"/><line class="cls-33" x1="587.8" y1="167.72" x2="587.8" y2="171.11"/><line class="cls-33" x1="593.73" y1="167.72" x2="593.73" y2="171.11"/><line class="cls-33" x1="584.98" y1="167.72" x2="584.98" y2="171.11"/><path class="cls-30" d="M558.9,96.49s-6.4,31.38-15.23,43.07-21.48,16.7-21.95,33.52l37,6Z"/><line class="cls-37" x1="521.83" y1="171.11" x2="541.99" y2="171.11"/><line class="cls-33" x1="555.6" y1="171.11" x2="549.9" y2="171.11"/><line class="cls-38" x1="523.38" y1="166.48" x2="556.85" y2="166.48"/><line class="cls-39" x1="582.15" y1="166.48" x2="616.34" y2="166.48"/><line class="cls-33" x1="547.39" y1="171.11" x2="544.32" y2="171.11"/><line class="cls-33" x1="522.34" y1="167.72" x2="556.85" y2="167.72"/><line class="cls-33" x1="525.12" y1="167.72" x2="525.12" y2="171.11"/><line class="cls-33" x1="527.76" y1="167.72" x2="527.76" y2="171.11"/><line class="cls-33" x1="530.57" y1="167.72" x2="530.57" y2="171.11"/><line class="cls-33" x1="533.27" y1="167.69" x2="533.27" y2="171.08"/><line class="cls-33" x1="535.91" y1="167.69" x2="535.91" y2="171.08"/><line class="cls-33" x1="538.73" y1="167.69" x2="538.73" y2="171.08"/><line class="cls-33" x1="541.4" y1="167.69" x2="541.4" y2="171.08"/><line class="cls-33" x1="551.68" y1="167.72" x2="551.68" y2="171.11"/><line class="cls-33" x1="545.76" y1="167.72" x2="545.76" y2="171.11"/><line class="cls-33" x1="554.5" y1="167.72" x2="554.5" y2="171.11"/><path class="cls-30" d="M569.65,160.11h0a14.24,14.24,0,0,1,14.24,14.24v7.15a2.44,2.44,0,0,1-2.44,2.44h-23.6a2.44,2.44,0,0,1-2.44-2.44v-7.15a14.24,14.24,0,0,1,14.24-14.24Z"/><path class="cls-31" d="M559.7,183.94h20.13a0,0,0,0,1,0,0v0a4.62,4.62,0,0,1-4.62,4.62H564.32a4.62,4.62,0,0,1-4.62-4.62v0A0,0,0,0,1,559.7,183.94Z"/><line class="cls-30" x1="583.89" y1="179.58" x2="555.6" y2="179.58"/><path class="cls-28" d="M539.71,76.14a14.26,14.26,0,0,1,8.8,0"/><path class="cls-28" d="M600.05,76.58a13.37,13.37,0,0,0-6.44-.78"/><line class="cls-33" x1="589.69" y1="161.71" x2="599.25" y2="161.71"/><line class="cls-33" x1="601.14" y1="161.71" x2="603.53" y2="161.71"/><line class="cls-33" x1="550.65" y1="161.71" x2="541.1" y2="161.71"/><line class="cls-33" x1="539.2" y1="161.71" x2="536.81" y2="161.71"/><line class="cls-33" x1="540.47" y1="203.9" x2="517.01" y2="409.52"/><line class="cls-33" x1="545.36" y1="204.15" x2="537.49" y2="357.27"/><line class="cls-33" x1="599.3" y1="203.91" x2="621.83" y2="409.63"/><line class="cls-33" x1="594.41" y1="204.14" x2="601.59" y2="357.29"/><polygon class="cls-3" points="545.36 204.15 504.88 578.02 530.58 578.02 545.36 204.15"/><polygon class="cls-3" points="593.58 206.01 634.82 578.02 607.75 578.02 593.58 206.01"/><line class="cls-33" x1="513.68" y1="438.68" x2="503.01" y2="532.21"/><line class="cls-33" x1="550.69" y1="203.94" x2="542.82" y2="522.72"/><line class="cls-33" x1="535.67" y1="392.61" x2="527.76" y2="546.45"/><line class="cls-33" x1="625.02" y1="438.8" x2="636.99" y2="548.1"/><line class="cls-33" x1="588.8" y1="204.4" x2="595.22" y2="523.2"/><line class="cls-33" x1="603.24" y1="392.63" x2="610.45" y2="546.52"/><circle class="cls-3" cx="260.6" cy="532.21" r="85.81"/><circle class="cls-3" cx="292.7" cy="601.85" r="85.81"/><circle class="cls-3" cx="184.61" cy="602.31" r="85.81"/><circle class="cls-3" cx="477.45" cy="572.11" r="51.53"/><circle class="cls-3" cx="371.32" cy="550.31" r="51.53"/><circle class="cls-3" cx="420.03" cy="561.24" r="28.86"/><circle class="cls-3" cx="546.18" cy="579.63" r="28.86"/><circle class="cls-3" cx="607.96" cy="575.61" r="28.86"/><circle class="cls-3" cx="583.94" cy="585.36" r="28.86"/><circle class="cls-3" cx="421.61" cy="614.31" r="34.68"/><circle class="cls-3" cx="889.1" cy="532.21" r="85.81"/><circle class="cls-3" cx="829.91" cy="588.79" r="71.2"/><circle class="cls-3" cx="517.32" cy="604.59" r="47.64"/><circle class="cls-3" cx="592.3" cy="624.46" r="56.08"/><circle class="cls-3" cx="965.15" cy="601.85" r="85.81"/><circle class="cls-3" cx="895.58" cy="601.85" r="85.81"/><circle class="cls-3" cx="669.21" cy="576.75" r="57.63"/><circle class="cls-3" cx="778.38" cy="551.58" r="51.53"/><circle class="cls-3" cx="729.66" cy="561.24" r="28.86"/><circle class="cls-3" cx="660.02" cy="633.46" r="28.86"/><circle class="cls-3" cx="448.9" cy="623.64" r="47.4"/><circle class="cls-3" cx="741.58" cy="614.31" r="66.72"/><circle class="cls-3" cx="378.51" cy="607.87" r="52.17"/><path class="cls-33" d="M920.27,557.47a22.81,22.81,0,0,1,26-19.17,22.57,22.57,0,0,1,8,2.78c.06-.51.11-1,.19-1.55a38.25,38.25,0,0,1,76.07,6.51,17.34,17.34,0,0,1,19.9,4.8,11.57,11.57,0,0,1,9.56-2.9"/><path class="cls-33" d="M219.73,557.47a22.81,22.81,0,0,0-26-19.17,22.57,22.57,0,0,0-8,2.78c-.06-.51-.11-1-.19-1.55A38.25,38.25,0,0,0,109.55,546a17.34,17.34,0,0,0-19.9,4.8,11.57,11.57,0,0,0-9.56-2.9"/><path class="cls-33" d="M421,588.79a10.41,10.41,0,0,0-11.19-9.56,9.91,9.91,0,0,0-3.71,1c0-.24,0-.48,0-.72a17.45,17.45,0,0,0-34.82.49,7.95,7.95,0,0,0-9.21,1.54,5.28,5.28,0,0,0-4.26-1.63"/><path class="cls-33" d="M702.27,590.07a10.4,10.4,0,0,1,11.19-9.57,10.21,10.21,0,0,1,3.71,1c0-.24,0-.47,0-.72a17.44,17.44,0,0,1,34.81.49,8,8,0,0,1,9.22,1.54,5.29,5.29,0,0,1,4.25-1.63"/><path class="cls-33" d="M512.41,647.46a14.06,14.06,0,0,1,22.41-6.15c.09-.31.19-.61.29-.92a23.59,23.59,0,0,1,45.41,12.45,10.66,10.66,0,0,1,5.74.35"/><path class="cls-33" d="M953.06,495c-1.63-34.2-30.95-60.58-65.48-58.93S826.38,466.82,828,501a61.71,61.71,0,0,0,1.81,12.17,49.43,49.43,0,0,0-65.32,17,25.09,25.09,0,0,0-35.7-3.06,34.51,34.51,0,0,0-60.41,11.58,17,17,0,0,0-29.45,12.12"/><path class="cls-40" d="M1041.61,648.72c-1.29-27-24.43-47.82-51.69-46.52s-48.3,24.24-47,51.24a48.12,48.12,0,0,0,1.42,9.6,39,39,0,0,0-51.56,13.46,19.79,19.79,0,0,0-28.17-2.42,27.24,27.24,0,0,0-47.68,9.14,13.4,13.4,0,0,0-23.25,9.56"/><path class="cls-33" d="M186.26,495c1.63-34.2,31-60.58,65.48-58.93s61.2,30.71,59.57,64.91a61.71,61.71,0,0,1-1.81,12.17,49.43,49.43,0,0,1,65.32,17,25.09,25.09,0,0,1,35.7-3.06,34.51,34.51,0,0,1,60.41,11.58,17,17,0,0,1,29.45,12.12"/><path class="cls-33" d="M114.31,658.84c0-27.75,22.72-50.26,50.75-50.26s50.74,22.5,50.74,50.26a50,50,0,0,1-1,9.93A40.08,40.08,0,0,1,268.37,680a20.32,20.32,0,0,1,28.78-3.86,28,28,0,0,1,49.37,7,13.77,13.77,0,0,1,24.32,8.67"/></svg>