<svg id="Layer_1" data-name="Layer 1" xmlns="http://www.w3.org/2000/svg" viewBox="0 0 1140 701.76"><defs><style>.cls-1,.cls-10,.cls-14,.cls-17,.cls-18,.cls-19,.cls-20,.cls-5{fill:none;}.cls-1,.cls-5,.cls-9{stroke:#010101;}.cls-1{stroke-miterlimit:10;stroke-width:1.41px;}.cls-13,.cls-2{fill:#fff;}.cls-19,.cls-2,.cls-20,.cls-3{stroke:#221f1f;}.cls-10,.cls-14,.cls-18,.cls-19,.cls-2,.cls-20,.cls-3,.cls-8,.cls-9{stroke-miterlimit:10;}.cls-2,.cls-3{stroke-width:1.64px;}.cls-11,.cls-16,.cls-3,.cls-6,.cls-7,.cls-8,.cls-9{fill:#f7c910;}.cls-4{fill:#221f1f;}.cls-5,.cls-6{stroke-miterlimit:10;}.cls-5{stroke-width:1.41px;}.cls-11,.cls-6,.cls-7,.cls-8{stroke:#000;}.cls-6{stroke-width:0.95px;}.cls-7{stroke-miterlimit:10.02;stroke-width:0.95px;}.cls-10,.cls-8{stroke-width:0.95px;}.cls-9{stroke-width:1.41px;}.cls-10,.cls-14,.cls-18{stroke:#231f20;}.cls-11{stroke-miterlimit:10;stroke-width:0.95px;}.cls-12{fill:#231f20;}.cls-14,.cls-18,.cls-19,.cls-20{stroke-linecap:round;}.cls-14{stroke-width:0.43px;}.cls-15{fill:#212120;}.cls-18{stroke-width:1.71px;}.cls-19{stroke-width:2px;}.cls-20{stroke-width:2.01px;}</style></defs><title>rocket-icon-move-page-index-black</title><path class="cls-1" d="M951.6,358.61l62.81,1.6a3.9,3.9,0,0,1,3.79,4h0l-1.14,44.48h0l-70.64-1.8h0l1.14-44.48a3.89,3.89,0,0,1,4-3.79Z"/><path class="cls-2" d="M1025.83,430.21l-89.24-2.27a.79.79,0,0,1-.77-.81,1,1,0,0,1,.09-.34l10.55-20,70.59,1.79,9.51,20.51a.77.77,0,0,1-.36,1A.8.8,0,0,1,1025.83,430.21Z"/><rect class="cls-1" x="961.98" y="352.57" width="40.72" height="62.06" rx="2.67" transform="translate(573.84 1355.84) rotate(-88.54)"/><polygon class="cls-3" points="978.64 414.39 978.82 411.79 975.09 411.69 974.78 414.29 978.64 414.39"/><polygon class="cls-3" points="986.35 414.58 986.28 411.98 982.55 411.88 982.49 414.49 986.35 414.58"/><polygon class="cls-3" points="1006.35 417.88 1010.34 417.98 1009.47 415.17 1005.62 415.07 1006.35 417.88"/><polygon class="cls-3" points="974.78 414.29 975.09 411.69 971.36 411.6 970.93 414.19 974.78 414.29"/><polygon class="cls-3" points="967.07 414.1 967.63 411.5 963.9 411.41 963.22 414 967.07 414.1"/><polygon class="cls-3" points="1001.76 414.98 1001.2 412.36 997.47 412.26 997.91 414.88 1001.76 414.98"/><polygon class="cls-3" points="1005.62 415.07 1004.93 412.45 1001.2 412.36 1001.76 414.98 1005.62 415.07"/><polygon class="cls-3" points="963.22 414 963.9 411.41 960.17 411.31 959.36 413.9 963.22 414"/><polygon class="cls-3" points="990.2 414.68 990.01 412.07 986.28 411.98 986.35 414.58 990.2 414.68"/><polygon class="cls-3" points="1009.47 415.17 1008.66 412.55 1004.93 412.45 1005.62 415.07 1009.47 415.17"/><polygon class="cls-3" points="997.91 414.88 997.47 412.26 993.74 412.17 994.05 414.78 997.91 414.88"/><polygon class="cls-3" points="994.05 414.78 993.74 412.17 990.01 412.07 990.2 414.68 994.05 414.78"/><polygon class="cls-3" points="982.49 414.49 982.55 411.88 978.82 411.79 978.64 414.39 982.49 414.49"/><polygon class="cls-3" points="955.51 413.8 951.65 413.7 950.52 416.46 954.51 416.56 955.51 413.8"/><polygon class="cls-3" points="956.45 411.22 952.72 411.12 951.65 413.7 955.51 413.8 956.45 411.22"/><polygon class="cls-3" points="959.36 413.9 960.17 411.31 956.45 411.22 955.51 413.8 959.36 413.9"/><polygon class="cls-3" points="949.3 419.42 948 422.6 952.28 422.7 953.43 419.52 949.3 419.42"/><polygon class="cls-3" points="954.51 416.56 950.52 416.46 949.3 419.42 953.43 419.52 954.51 416.56"/><polygon class="cls-3" points="953.43 419.52 952.28 422.7 956.56 422.81 957.56 419.63 953.43 419.52"/><polygon class="cls-3" points="970.93 414.19 971.36 411.6 967.63 411.5 967.07 414.1 970.93 414.19"/><polygon class="cls-3" points="970.46 416.97 970.93 414.19 967.07 414.1 966.47 416.87 970.46 416.97"/><polygon class="cls-3" points="966.47 416.87 967.07 414.1 963.22 414 962.48 416.77 966.47 416.87"/><polygon class="cls-3" points="974.45 417.07 974.78 414.29 970.93 414.19 970.46 416.97 974.45 417.07"/><polygon class="cls-3" points="959.36 413.9 955.51 413.8 954.51 416.56 958.49 416.67 959.36 413.9"/><polygon class="cls-3" points="1007.13 420.89 1011.27 420.99 1010.34 417.98 1006.35 417.88 1007.13 420.89"/><polygon class="cls-3" points="962.48 416.77 963.22 414 959.36 413.9 958.49 416.67 962.48 416.77"/><polygon class="cls-3" points="954.51 416.56 953.43 419.52 957.56 419.63 958.49 416.67 954.51 416.56"/><polygon class="cls-3" points="998.37 417.68 997.91 414.88 994.05 414.78 994.39 417.58 998.37 417.68"/><polygon class="cls-3" points="994.39 417.58 994.05 414.78 990.2 414.68 990.4 417.48 994.39 417.58"/><polygon class="cls-3" points="1006.35 417.88 1005.62 415.07 1001.76 414.98 1002.36 417.78 1006.35 417.88"/><polygon class="cls-3" points="982.42 417.27 982.49 414.49 978.64 414.39 978.43 417.17 982.42 417.27"/><polygon class="cls-3" points="990.4 417.48 990.2 414.68 986.35 414.58 986.41 417.38 990.4 417.48"/><polygon class="cls-3" points="986.41 417.38 986.35 414.58 982.49 414.49 982.42 417.27 986.41 417.38"/><polygon class="cls-3" points="978.43 417.17 978.64 414.39 974.78 414.29 974.45 417.07 978.43 417.17"/><polygon class="cls-3" points="990.4 417.48 990.61 420.47 994.74 420.57 994.39 417.58 990.4 417.48"/><polygon class="cls-3" points="994.39 417.58 994.74 420.57 998.87 420.68 998.37 417.68 994.39 417.58"/><polygon class="cls-3" points="958.49 416.67 957.56 419.63 961.69 419.73 962.48 416.77 958.49 416.67"/><polygon class="cls-3" points="998.37 417.68 998.87 420.68 1003 420.78 1002.36 417.78 998.37 417.68"/><polygon class="cls-3" points="982.42 417.27 982.35 420.26 986.48 420.36 986.41 417.38 982.42 417.27"/><polygon class="cls-3" points="1002.36 417.78 1003 420.78 1007.13 420.89 1006.35 417.88 1002.36 417.78"/><polygon class="cls-3" points="986.41 417.38 986.48 420.36 990.61 420.47 990.4 417.48 986.41 417.38"/><polygon class="cls-3" points="966.47 416.87 965.83 419.84 969.96 419.94 970.46 416.97 966.47 416.87"/><polygon class="cls-3" points="962.48 416.77 961.69 419.73 965.83 419.84 966.47 416.87 962.48 416.77"/><polygon class="cls-3" points="978.43 417.17 978.22 420.15 982.35 420.26 982.42 417.27 978.43 417.17"/><polygon class="cls-3" points="974.45 417.07 974.09 420.05 978.22 420.15 978.43 417.17 974.45 417.07"/><polygon class="cls-3" points="970.46 416.97 969.96 419.94 974.09 420.05 974.45 417.07 970.46 416.97"/><polygon class="cls-3" points="1002.36 417.78 1001.76 414.98 997.91 414.88 998.37 417.68 1002.36 417.78"/><polygon class="cls-3" points="956.45 411.22 957.4 408.57 953.8 408.48 952.72 411.12 956.45 411.22"/><polygon class="cls-3" points="952.72 411.12 949.27 411.04 948.1 413.61 951.65 413.7 952.72 411.12"/><polygon class="cls-3" points="953.8 408.48 950.48 408.4 949.27 411.04 952.72 411.12 953.8 408.48"/><polygon class="cls-3" points="951.65 413.7 948.1 413.61 946.84 416.37 950.52 416.46 951.65 413.7"/><polygon class="cls-3" points="950.52 416.46 946.84 416.37 945.49 419.32 949.3 419.42 950.52 416.46"/><polygon class="cls-3" points="949.3 419.42 945.49 419.32 944.04 422.5 948 422.6 949.3 419.42"/><polygon class="cls-3" points="1013.33 415.27 1014.33 418.08 1017.85 418.17 1016.74 415.36 1013.33 415.27"/><polygon class="cls-3" points="1015.4 421.1 1019.05 421.19 1017.85 418.17 1014.33 418.08 1015.4 421.1"/><polygon class="cls-3" points="1016.55 424.34 1020.34 424.43 1019.05 421.19 1015.4 421.1 1016.55 424.34"/><polygon class="cls-3" points="986.28 411.98 986.22 409.31 982.62 409.21 982.55 411.88 986.28 411.98"/><polygon class="cls-3" points="1013.33 415.27 1016.74 415.36 1015.69 412.72 1012.39 412.64 1013.33 415.27"/><polygon class="cls-3" points="1011.27 420.99 1015.4 421.1 1014.33 418.08 1010.34 417.98 1011.27 420.99"/><polygon class="cls-3" points="960.17 411.31 961.01 408.67 957.4 408.57 956.45 411.22 960.17 411.31"/><polygon class="cls-3" points="1008.66 412.55 1009.47 415.17 1013.33 415.27 1012.39 412.64 1008.66 412.55"/><polygon class="cls-3" points="1015.69 412.72 1014.62 410.03 1011.44 409.95 1012.39 412.64 1015.69 412.72"/><polygon class="cls-3" points="1012.39 412.64 1011.44 409.95 1007.84 409.86 1008.66 412.55 1012.39 412.64"/><polygon class="cls-3" points="998.87 420.68 999.41 423.9 1003.69 424.01 1003 420.78 998.87 420.68"/><polygon class="cls-3" points="1012.26 424.23 1016.55 424.34 1015.4 421.1 1011.27 420.99 1012.26 424.23"/><polygon class="cls-3" points="1008.66 412.55 1007.84 409.86 1004.23 409.76 1004.93 412.45 1008.66 412.55"/><polygon class="cls-3" points="1007.13 420.89 1007.98 424.12 1012.26 424.23 1011.27 420.99 1007.13 420.89"/><polygon class="cls-3" points="1003 420.78 1003.69 424.01 1007.98 424.12 1007.13 420.89 1003 420.78"/><polygon class="cls-3" points="1010.34 417.98 1014.33 418.08 1013.33 415.27 1009.47 415.17 1010.34 417.98"/><polygon class="cls-3" points="975.09 411.69 975.41 409.03 971.81 408.94 971.36 411.6 975.09 411.69"/><polygon class="cls-3" points="1004.93 412.45 1004.23 409.76 1000.63 409.67 1001.2 412.36 1004.93 412.45"/><polygon class="cls-3" points="971.36 411.6 971.81 408.94 968.21 408.85 967.63 411.5 971.36 411.6"/><polygon class="cls-3" points="982.55 411.88 982.62 409.21 979.02 409.12 978.82 411.79 982.55 411.88"/><polygon class="cls-3" points="967.63 411.5 968.21 408.85 964.61 408.76 963.9 411.41 967.63 411.5"/><polygon class="cls-3" points="963.9 411.41 964.61 408.76 961.01 408.67 960.17 411.31 963.9 411.41"/><polygon class="cls-3" points="978.82 411.79 979.02 409.12 975.41 409.03 975.09 411.69 978.82 411.79"/><polygon class="cls-3" points="1001.2 412.36 1000.63 409.67 997.03 409.58 997.47 412.26 1001.2 412.36"/><polygon class="cls-3" points="997.47 412.26 997.03 409.58 993.43 409.49 993.74 412.17 997.47 412.26"/><polygon class="cls-3" points="990.01 412.07 989.82 409.4 986.22 409.31 986.28 411.98 990.01 412.07"/><polygon class="cls-4" points="998.8 421.13 994.63 421.03 990.47 420.92 986.29 420.81 982.13 420.71 977.96 420.6 973.78 420.5 969.62 420.39 965.45 420.29 961.27 420.18 957.11 420.07 956.1 423.26 960.42 423.37 964.75 423.48 969.07 423.59 973.4 423.7 977.72 423.81 982.05 423.92 986.37 424.03 990.7 424.14 995.02 424.25 999.35 424.36 998.8 421.13"/><polygon class="cls-3" points="993.74 412.17 993.43 409.49 989.82 409.4 990.01 412.07 993.74 412.17"/><rect class="cls-4" x="980.52" y="383.89" width="1.3" height="91.84" transform="translate(526.5 1399.71) rotate(-88.54)"/><rect class="cls-5" x="992.47" y="204.02" width="35.95" height="104.75" rx="1.23" transform="translate(548.59 1190.97) rotate(-77.94)"/><rect class="cls-6" x="964.97" y="231.48" width="3.76" height="3.76" rx="0.27" transform="translate(536.63 1130.11) rotate(-77.94)"/><rect class="cls-6" x="963.79" y="237.02" width="3.76" height="3.76" rx="0.27" transform="translate(530.28 1133.34) rotate(-77.94)"/><rect class="cls-6" x="968.07" y="237.93" width="3.76" height="3.76" rx="0.27" transform="translate(532.77 1138.26) rotate(-77.94)"/><rect class="cls-6" x="972.36" y="238.85" width="3.76" height="3.76" rx="0.27" transform="translate(535.27 1143.17) rotate(-77.94)"/><rect class="cls-6" x="976.65" y="239.78" width="3.76" height="3.76" rx="0.27" transform="translate(537.76 1148.1) rotate(-77.94)"/><rect class="cls-6" x="980.94" y="240.69" width="3.76" height="3.76" rx="0.27" transform="translate(540.26 1153.02) rotate(-77.94)"/><rect class="cls-6" x="985.24" y="241.61" width="3.76" height="3.76" rx="0.27" transform="translate(542.76 1157.95) rotate(-77.94)"/><rect class="cls-6" x="989.52" y="242.53" width="3.76" height="3.76" rx="0.27" transform="translate(545.25 1162.86) rotate(-77.94)"/><rect class="cls-6" x="993.81" y="243.44" width="3.76" height="3.76" rx="0.27" transform="translate(547.75 1167.78) rotate(-77.94)"/><rect class="cls-6" x="998.1" y="244.36" width="3.76" height="3.76" rx="0.27" transform="translate(550.25 1172.7) rotate(-77.94)"/><rect class="cls-6" x="1002.38" y="245.27" width="3.76" height="3.76" rx="0.27" transform="translate(552.74 1177.61) rotate(-77.94)"/><rect class="cls-6" x="1006.68" y="246.19" width="3.76" height="3.76" rx="0.27" transform="translate(555.24 1182.54) rotate(-77.94)"/><rect class="cls-6" x="1010.97" y="247.11" width="3.76" height="3.76" rx="0.27" transform="translate(557.74 1187.46) rotate(-77.94)"/><rect class="cls-6" x="1015.26" y="248.02" width="3.76" height="3.76" rx="0.27" transform="translate(560.24 1192.38) rotate(-77.94)"/><rect class="cls-6" x="1021.43" y="247.42" width="3.76" height="7.6" rx="0.27" transform="translate(563.82 1199.46) rotate(-77.94)"/><rect class="cls-6" x="963.69" y="240.78" width="3.76" height="5.51" rx="0.27" transform="translate(525.67 1136.91) rotate(-77.94)"/><rect class="cls-6" x="963.3" y="244.75" width="3.76" height="6.64" rx="0.27" transform="translate(520.92 1140.12) rotate(-77.94)"/><rect class="cls-6" x="963.44" y="248.29" width="3.76" height="8.88" rx="0.27" transform="translate(516.48 1143.94) rotate(-77.94)"/><rect class="cls-6" x="960.95" y="253.9" width="3.76" height="5.67" rx="0.27" transform="translate(510.59 1144.67) rotate(-77.94)"/><rect class="cls-6" x="968.96" y="242.79" width="3.76" height="3.76" rx="0.27" transform="translate(528.73 1142.96) rotate(-77.94)"/><rect class="cls-6" x="969.07" y="247.42" width="3.76" height="3.76" rx="0.27" transform="translate(524.29 1146.73) rotate(-77.94)"/><rect class="cls-6" x="973.51" y="248.37" width="3.76" height="3.76" rx="0.27" transform="translate(526.86 1151.83) rotate(-77.94)"/><rect class="cls-6" x="970.4" y="252.32" width="3.76" height="3.76" rx="0.27" transform="translate(520.55 1151.91) rotate(-77.94)"/><rect class="cls-6" x="966.27" y="256" width="3.76" height="3.76" rx="0.27" transform="translate(513.68 1150.78) rotate(-77.94)"/><rect class="cls-6" x="970.69" y="256.94" width="3.76" height="3.76" rx="0.27" transform="translate(516.26 1155.85) rotate(-77.94)"/><rect class="cls-6" x="975.09" y="257.89" width="3.76" height="3.76" rx="0.27" transform="translate(518.81 1160.9) rotate(-77.94)"/><rect class="cls-6" x="990.46" y="249.9" width="3.76" height="26.31" rx="0.27" transform="translate(527.76 1178.53) rotate(-77.94)"/><rect class="cls-6" x="974.86" y="253.28" width="3.76" height="3.76" rx="0.27" transform="translate(523.14 1157.03) rotate(-77.94)"/><rect class="cls-6" x="979.31" y="254.24" width="3.76" height="3.76" rx="0.27" transform="translate(525.72 1162.14) rotate(-77.94)"/><rect class="cls-6" x="983.79" y="255.19" width="3.76" height="3.76" rx="0.27" transform="translate(528.33 1167.27) rotate(-77.94)"/><rect class="cls-6" x="988.25" y="256.14" width="3.76" height="3.76" rx="0.27" transform="translate(530.93 1172.39) rotate(-77.94)"/><rect class="cls-6" x="992.71" y="257.1" width="3.76" height="3.76" rx="0.27" transform="translate(533.52 1177.51) rotate(-77.94)"/><rect class="cls-6" x="997.18" y="258.05" width="3.76" height="3.76" rx="0.27" transform="translate(536.13 1182.63) rotate(-77.94)"/><rect class="cls-6" x="1001.64" y="259.01" width="3.76" height="3.76" rx="0.27" transform="translate(538.72 1187.75) rotate(-77.94)"/><rect class="cls-6" x="1006.09" y="259.95" width="3.76" height="3.76" rx="0.27" transform="translate(541.32 1192.85) rotate(-77.94)"/><rect class="cls-6" x="1006.14" y="264.52" width="3.76" height="3.76" rx="0.27" transform="translate(536.89 1196.51) rotate(-77.94)"/><rect class="cls-6" x="1010.6" y="265.47" width="3.76" height="3.76" rx="0.27" transform="translate(539.49 1201.62) rotate(-77.94)"/><rect class="cls-6" x="1015.07" y="266.42" width="3.76" height="3.76" rx="0.27" transform="translate(542.09 1206.75) rotate(-77.94)"/><rect class="cls-6" x="1019.55" y="267.37" width="3.76" height="3.76" rx="0.27" transform="translate(544.71 1211.88) rotate(-77.94)"/><rect class="cls-6" x="1010.57" y="260.9" width="3.76" height="3.76" rx="0.27" transform="translate(543.93 1197.98) rotate(-77.94)"/><rect class="cls-7" x="1019.37" y="257.83" width="3.77" height="9.35" rx="0.27" transform="translate(550.6 1206.09) rotate(-77.91)"/><rect class="cls-6" x="977.94" y="249.32" width="3.76" height="3.76" rx="0.27" transform="translate(529.45 1156.91) rotate(-77.94)"/><rect class="cls-6" x="982.37" y="250.26" width="3.76" height="3.76" rx="0.27" transform="translate(532.03 1161.99) rotate(-77.94)"/><rect class="cls-6" x="986.8" y="251.21" width="3.76" height="3.76" rx="0.27" transform="translate(534.61 1167.07) rotate(-77.94)"/><rect class="cls-6" x="991.24" y="252.17" width="3.76" height="3.76" rx="0.27" transform="translate(537.18 1172.17) rotate(-77.94)"/><rect class="cls-6" x="995.68" y="253.1" width="3.76" height="3.76" rx="0.27" transform="translate(539.78 1177.25) rotate(-77.94)"/><rect class="cls-6" x="1000.1" y="254.06" width="3.76" height="3.76" rx="0.27" transform="translate(542.34 1182.33) rotate(-77.94)"/><rect class="cls-6" x="1004.55" y="255" width="3.76" height="3.76" rx="0.27" transform="translate(544.93 1187.42) rotate(-77.94)"/><rect class="cls-6" x="1008.98" y="255.95" width="3.76" height="3.76" rx="0.27" transform="translate(547.52 1192.51) rotate(-77.94)"/><rect class="cls-6" x="1013.41" y="256.89" width="3.76" height="3.76" rx="0.27" transform="translate(550.09 1197.59) rotate(-77.94)"/><rect class="cls-6" x="973.35" y="243.72" width="3.76" height="3.76" rx="0.27" transform="translate(531.29 1147.99) rotate(-77.94)"/><rect class="cls-6" x="977.74" y="244.65" width="3.76" height="3.76" rx="0.27" transform="translate(533.85 1153.02) rotate(-77.94)"/><rect class="cls-6" x="982.13" y="245.59" width="3.76" height="3.76" rx="0.27" transform="translate(536.41 1158.06) rotate(-77.94)"/><rect class="cls-6" x="986.53" y="246.53" width="3.76" height="3.76" rx="0.27" transform="translate(538.97 1163.1) rotate(-77.94)"/><rect class="cls-6" x="990.92" y="247.47" width="3.76" height="3.76" rx="0.27" transform="translate(541.52 1168.14) rotate(-77.94)"/><rect class="cls-6" x="995.31" y="248.41" width="3.76" height="3.76" rx="0.27" transform="translate(544.07 1173.18) rotate(-77.94)"/><rect class="cls-6" x="999.7" y="249.34" width="3.76" height="3.76" rx="0.27" transform="translate(546.63 1178.21) rotate(-77.94)"/><rect class="cls-6" x="1004.09" y="250.29" width="3.76" height="3.76" rx="0.27" transform="translate(549.18 1183.24) rotate(-77.94)"/><rect class="cls-6" x="1008.48" y="251.22" width="3.76" height="3.76" rx="0.27" transform="translate(551.75 1188.28) rotate(-77.94)"/><rect class="cls-6" x="1012.88" y="252.15" width="3.76" height="3.76" rx="0.27" transform="translate(554.31 1193.32) rotate(-77.94)"/><rect class="cls-6" x="1017.27" y="253.1" width="3.76" height="3.76" rx="0.27" transform="translate(556.86 1198.36) rotate(-77.94)"/><path class="cls-8" d="M1022.34,253.74a.26.26,0,0,0-.31.2h0l-.68,3.16a.28.28,0,0,0,.21.31l1,.22a.25.25,0,0,1,.21.3h0l-.84,3.9a.27.27,0,0,0,.21.32h0l2.32.5a.27.27,0,0,0,.32-.21h0l1.62-7.57a.27.27,0,0,0-.21-.32Z"/><path class="cls-8" d="M1021.4,258.16l-.52-.11-2.35-.5a.27.27,0,0,0-.32.2l-.67,3.15a.27.27,0,0,0,.2.32l2.35.5.52.11.29.06a.26.26,0,0,0,.31-.2h0l.68-3.16a.28.28,0,0,0-.21-.31Z"/><rect class="cls-6" x="971.8" y="232.94" width="3.76" height="3.76" rx="0.27" transform="translate(540.61 1137.95) rotate(-77.94)"/><rect class="cls-6" x="976.58" y="233.96" width="3.76" height="3.76" rx="0.27" transform="translate(543.39 1143.43) rotate(-77.94)"/><rect class="cls-6" x="981.35" y="234.98" width="3.76" height="3.76" rx="0.27" transform="translate(546.17 1148.9) rotate(-77.94)"/><rect class="cls-6" x="986.13" y="236" width="3.76" height="3.76" rx="0.27" transform="translate(548.95 1154.38) rotate(-77.94)"/><rect class="cls-6" x="990.99" y="237.04" width="3.76" height="3.76" rx="0.27" transform="translate(551.78 1159.96) rotate(-77.94)"/><rect class="cls-6" x="995.77" y="238.06" width="3.76" height="3.76" rx="0.27" transform="translate(554.56 1165.44) rotate(-77.94)"/><rect class="cls-6" x="1000.54" y="239.08" width="3.76" height="3.76" rx="0.27" transform="translate(557.34 1170.91) rotate(-77.94)"/><rect class="cls-7" x="1006.88" y="238.28" width="3.77" height="3.77" rx="0.27" transform="translate(562.57 1176.21) rotate(-77.91)"/><rect class="cls-6" x="1010.18" y="241.14" width="3.76" height="3.76" rx="0.27" transform="translate(562.95 1181.97) rotate(-77.94)"/><rect class="cls-6" x="1014.95" y="242.16" width="3.76" height="3.76" rx="0.27" transform="translate(565.73 1187.44) rotate(-77.94)"/><rect class="cls-6" x="1019.73" y="243.18" width="3.76" height="3.76" rx="0.27" transform="translate(568.51 1192.92) rotate(-77.94)"/><rect class="cls-6" x="1024.49" y="244.2" width="3.76" height="3.76" rx="0.27" transform="translate(571.28 1198.38) rotate(-77.94)"/><rect class="cls-6" x="1030.35" y="245.45" width="3.76" height="3.76" rx="0.27" transform="translate(574.69 1205.1) rotate(-77.94)"/><rect class="cls-6" x="1034.96" y="246.43" width="3.76" height="3.76" rx="0.27" transform="translate(577.37 1210.39) rotate(-77.94)"/><rect class="cls-6" x="1039.57" y="247.41" width="3.76" height="3.76" rx="0.27" transform="translate(580.07 1215.68) rotate(-77.94)"/><rect class="cls-6" x="1029.16" y="251" width="3.76" height="3.76" rx="0.27" transform="translate(568.32 1208.33) rotate(-77.94)"/><rect class="cls-6" x="1033.77" y="251.98" width="3.76" height="3.76" rx="0.27" transform="translate(571.01 1213.61) rotate(-77.94)"/><rect class="cls-6" x="1038.39" y="252.97" width="3.76" height="3.76" rx="0.27" transform="translate(573.7 1218.91) rotate(-77.94)"/><rect class="cls-6" x="1043.42" y="254.04" width="3.76" height="3.76" rx="0.27" transform="translate(576.63 1224.68) rotate(-77.94)"/><rect class="cls-6" x="1047.82" y="254.97" width="3.76" height="3.76" rx="0.27" transform="translate(579.19 1229.72) rotate(-77.94)"/><rect class="cls-6" x="1052.2" y="255.92" width="3.76" height="3.76" rx="0.27" transform="translate(581.74 1234.75) rotate(-77.94)"/><rect class="cls-6" x="1056.58" y="256.85" width="3.76" height="3.76" rx="0.27" transform="translate(584.29 1239.77) rotate(-77.94)"/><rect class="cls-6" x="1042.48" y="258.48" width="3.76" height="3.76" rx="0.27" transform="translate(571.54 1227.27) rotate(-77.94)"/><rect class="cls-6" x="1046.86" y="259.42" width="3.76" height="3.76" rx="0.27" transform="translate(574.09 1232.3) rotate(-77.94)"/><rect class="cls-6" x="1051.26" y="260.36" width="3.76" height="3.76" rx="0.27" transform="translate(576.64 1237.35) rotate(-77.94)"/><rect class="cls-6" x="1055.63" y="261.3" width="3.76" height="3.76" rx="0.27" transform="translate(579.19 1242.36) rotate(-77.94)"/><rect class="cls-6" x="1041.52" y="262.92" width="3.76" height="3.76" rx="0.27" transform="translate(566.44 1229.85) rotate(-77.94)"/><rect class="cls-7" x="1047.58" y="261.97" width="3.77" height="3.77" rx="0.27" transform="translate(571.57 1234.73) rotate(-77.91)"/><rect class="cls-6" x="1050.3" y="264.79" width="3.76" height="3.76" rx="0.27" transform="translate(571.56 1239.91) rotate(-77.94)"/><rect class="cls-6" x="1054.7" y="265.74" width="3.76" height="3.76" rx="0.27" transform="translate(574.1 1244.97) rotate(-77.94)"/><rect class="cls-6" x="1040.58" y="267.37" width="3.76" height="3.76" rx="0.27" transform="translate(561.34 1232.45) rotate(-77.94)"/><rect class="cls-6" x="1044.96" y="268.3" width="3.76" height="3.76" rx="0.27" transform="translate(563.9 1237.47) rotate(-77.94)"/><rect class="cls-6" x="1049.36" y="269.24" width="3.76" height="3.76" rx="0.27" transform="translate(566.46 1242.51) rotate(-77.94)"/><rect class="cls-6" x="1051.08" y="272.34" width="8.16" height="3.76" rx="0.27" transform="translate(566.53 1248.79) rotate(-77.94)"/><rect class="cls-6" x="1041.82" y="270.03" width="3.76" height="8.24" rx="0.27" transform="translate(557.53 1237.53) rotate(-77.94)"/><rect class="cls-6" x="1048.4" y="273.67" width="3.76" height="3.76" rx="0.27" transform="translate(561.37 1245.08) rotate(-77.94)"/><rect class="cls-6" x="1028.21" y="255.44" width="3.76" height="3.76" rx="0.27" transform="translate(563.23 1210.91) rotate(-77.94)"/><rect class="cls-6" x="1032.83" y="256.42" width="3.76" height="3.76" rx="0.27" transform="translate(565.91 1216.2) rotate(-77.94)"/><rect class="cls-6" x="1037.45" y="257.41" width="3.76" height="3.76" rx="0.27" transform="translate(568.6 1221.51) rotate(-77.94)"/><rect class="cls-6" x="1030.95" y="265.17" width="3.76" height="3.76" rx="0.27" transform="translate(555.88 1221.29) rotate(-77.94)"/><rect class="cls-6" x="1025.39" y="268.62" width="3.76" height="3.76" rx="0.27" transform="translate(548.11 1218.58) rotate(-77.94)"/><rect class="cls-6" x="1030.01" y="269.62" width="3.76" height="3.76" rx="0.27" transform="translate(550.79 1223.89) rotate(-77.94)"/><rect class="cls-6" x="1034.62" y="270.61" width="3.76" height="3.76" rx="0.27" transform="translate(553.46 1229.17) rotate(-77.94)"/><path class="cls-8" d="M1049.77,250.48a1.17,1.17,0,0,1-1.38.9,1.15,1.15,0,0,1-.89-1.36v0a1.16,1.16,0,1,1,2.27.48Z"/><path class="cls-8" d="M1054,251.38a1.16,1.16,0,1,1-.89-1.38,1.15,1.15,0,0,1,.89,1.36Z"/><path class="cls-8" d="M1058.16,252.28a1.17,1.17,0,1,1-.91-1.38h0a1.16,1.16,0,0,1,.9,1.37Z"/><path class="cls-9" d="M1132.69,288.92c.85,3.79-1.74,6.59-5.52,7.44h0c-3.78.85-7.32-.58-8.17-4.36l-2.51-11.16c-.85-3.78,1.78-6.43,5.56-7.28h0c3.78-.85,7.28.42,8.13,4.2Z"/><path d="M1124.81,285.06l-2.59-11.54-.34.08,2.59,11.54a17,17,0,0,1-7-.13l.08.39a15.61,15.61,0,0,0,7,.09h.35a15.59,15.59,0,0,0,6.32-3.1l-.08-.39A17,17,0,0,1,1124.81,285.06Z"/><path d="M1125.39,281.92a1.43,1.43,0,0,1-1.08,1.71h0a1.43,1.43,0,0,1-1.71-1.08h0l-1-4.4a1.43,1.43,0,0,1,1.08-1.71h0a1.43,1.43,0,0,1,1.71,1.08h0Z"/><path d="M1125.08,281.61a1.19,1.19,0,0,1-.89,1.43h0a1.19,1.19,0,0,1-1.43-.89h0l-.83-3.68a1.19,1.19,0,0,1,.89-1.43h0a1.21,1.21,0,0,1,1.43.9Z"/><path class="cls-10" d="M836.38,303.37h0l.84-4.4a2.68,2.68,0,0,0-2.13-3.14h0l-16-3a2.69,2.69,0,0,0-3.15,2.13h0l-.83,4.4h0a.35.35,0,0,0-.41.28h0l-.58,3a.35.35,0,0,0,.28.41h0l-.14.72h0a.35.35,0,0,0-.41.28h0l-.58,3a.36.36,0,0,0,.28.41h0l-5.06,26.64a2.68,2.68,0,0,0,2.13,3.14h0l16,3a2.69,2.69,0,0,0,3.14-2.14L835.27,309h0a.35.35,0,0,0,.41-.28h0l.93-4.91a.33.33,0,0,0-.21-.43Z"/><rect class="cls-11" x="801.6" y="307.23" width="42.42" height="18.87" rx="3.27" transform="translate(358.36 1066.05) rotate(-79.26)"/><path class="cls-12" d="M822.52,294.83l8.51,1.61h0a.78.78,0,0,1-.91.62h0l-7-1.33a.78.78,0,0,1-.62-.91h0Z"/><path class="cls-12" d="M810.05,331.9l19.07,3.62h0l-.26,1.39a3,3,0,0,1-3.51,2.38l-13.16-2.49a3,3,0,0,1-2.39-3.51l.26-1.38Z"/><circle class="cls-13" cx="819.13" cy="335.93" r="1.13"/><line class="cls-14" x1="819.61" y1="306.27" x2="829.4" y2="319.1"/><line class="cls-14" x1="820.43" y1="315.89" x2="826.84" y2="323.6"/><line class="cls-14" x1="824.13" y1="309.6" x2="828.76" y2="315.56"/><path class="cls-15" d="M876.66,253.11a2.53,2.53,0,1,0,3.57.22h0A2.53,2.53,0,0,0,876.66,253.11Z"/><path class="cls-15" d="M878.81,247.21a7.78,7.78,0,0,0-5.66,1.95,1.49,1.49,0,0,0,2,2.22,4.85,4.85,0,0,1,6.85.42h0a1.47,1.47,0,0,0,2.57-.91,1.47,1.47,0,0,0-.37-1.06A7.78,7.78,0,0,0,878.81,247.21Z"/><path class="cls-15" d="M879.11,242.33a12.61,12.61,0,0,0-9.19,3.17,1.49,1.49,0,0,0,2,2.22,9.74,9.74,0,0,1,13.75.84h0a1.47,1.47,0,1,0,2.2-2A12.61,12.61,0,0,0,879.11,242.33Z"/><path class="cls-15" d="M891.52,243.35a17.63,17.63,0,0,0-24.85-1.52,1.46,1.46,0,0,0-.13,2.07v0a1.48,1.48,0,0,0,2.09.13h0a14.63,14.63,0,0,1,20.65,1.27,1.5,1.5,0,0,0,2.23-2h0Z"/><circle class="cls-16" cx="1103.61" cy="469.53" r="8"/><path class="cls-17" d="M1104.23,474.67a5.18,5.18,0,1,0-5.76-4.53h0A5.18,5.18,0,0,0,1104.23,474.67Z"/><path class="cls-18" d="M1091.59,465.91a12.17,12.17,0,0,0-.52,3l2.07.92a4.86,4.86,0,0,0,.07,1v.34l-1.87,1.28a12.38,12.38,0,0,0,1,2.83l2.26-.24a9.3,9.3,0,0,0,.77,1.09l-1,2a12.93,12.93,0,0,0,2.31,1.93l1.83-1.33a10.37,10.37,0,0,0,1.22.56l.16,2.26a12.75,12.75,0,0,0,3,.52l.92-2.07a4.26,4.26,0,0,0,1-.08l.34-.05,1.28,1.88a12.87,12.87,0,0,0,2.83-1l-.24-2.25a10.22,10.22,0,0,0,1.09-.77l2,1a12.21,12.21,0,0,0,1.93-2.31l-1.33-1.83c.21-.4.4-.8.57-1.22l2.25-.17a12.16,12.16,0,0,0,.51-3l-2.06-.91a8.42,8.42,0,0,0-.08-1V468l1.88-1.27a12.87,12.87,0,0,0-1-2.83l-2.25.24a12,12,0,0,0-.77-1.1l1-2a12.58,12.58,0,0,0-2.31-1.94l-1.83,1.34a9,9,0,0,0-1.22-.57l-.17-2.26a12.73,12.73,0,0,0-3-.51l-.92,2.07a4.86,4.86,0,0,0-1,.07l-.34.05-1.27-1.87a12.38,12.38,0,0,0-2.83,1l.24,2.26a10.34,10.34,0,0,0-1.1.77l-2-1a12.26,12.26,0,0,0-1.94,2.31l1.34,1.83c-.21.4-.4.8-.57,1.22Zm11.77-3.76a7.38,7.38,0,1,1-7.13,7.63,7.38,7.38,0,0,1,7.13-7.63Z"/><path class="cls-12" d="M1110,469.31a6.42,6.42,0,1,0-6.2,6.64A6.42,6.42,0,0,0,1110,469.31Zm-11.24.8a4.86,4.86,0,1,1,5.41,4.24,4.87,4.87,0,0,1-5.41-4.24Z"/><circle class="cls-19" cx="701.92" cy="382.34" r="6.99"/><path class="cls-20" d="M1069.9,368.1a7,7,0,0,1,7.43-6.55,7.09,7.09,0,0,1,2.48.63v-.48a11.72,11.72,0,0,1,23.39-.06,5.29,5.29,0,0,1,6.2.93,3.55,3.55,0,0,1,2.84-1.14"/><circle class="cls-19" cx="849.93" cy="389.33" r="3.54"/><circle class="cls-19" cx="752.72" cy="287.85" r="3.54"/><circle class="cls-19" cx="1112.7" cy="218.13" r="3.54"/></svg>