<svg id="Layer_1" data-name="Layer 1" xmlns="http://www.w3.org/2000/svg" viewBox="0 0 1140 701.76"><defs><style>.cls-1,.cls-4{fill:#fff;}.cls-10,.cls-12,.cls-13,.cls-14,.cls-15,.cls-17,.cls-2,.cls-6,.cls-7,.cls-9{fill:none;}.cls-14,.cls-15,.cls-2{stroke:#fffdfd;}.cls-10,.cls-12,.cls-13,.cls-14,.cls-15,.cls-17,.cls-2,.cls-3,.cls-4,.cls-5,.cls-6,.cls-7,.cls-9{stroke-miterlimit:10;}.cls-10,.cls-2,.cls-5,.cls-7,.cls-9{stroke-width:2.01px;}.cls-16,.cls-3,.cls-5{fill:#f7c910;}.cls-12,.cls-13,.cls-17,.cls-3,.cls-4,.cls-5,.cls-6,.cls-7{stroke:#221f1f;}.cls-14,.cls-3,.cls-4,.cls-6{stroke-width:1.68px;}.cls-8{fill:#221f1f;}.cls-9{stroke:#fdf4f8;}.cls-10{stroke:#fff;}.cls-11{fill:#231f20;}.cls-12{stroke-width:2.03px;}.cls-13{stroke-width:1.47px;}.cls-15{stroke-width:1.42px;}.cls-17{stroke-width:2.12px;}</style></defs><title>rocket-main-page-index-black</title><path class="cls-1" d="M555.4,27.62V112l-2,5.69.25-74.18S553.53,32.18,555.4,27.62Z"/><polygon class="cls-1" points="599.18 55.29 599.89 144.32 602.34 146.6 600.56 62.03 599.18 55.29"/><path class="cls-1" d="M544.59,44.23s-4,13.32-4.34,43.47c-.34,25.63-1,57.42-1,57.42l-2.55,1.48s1.47-80.5,1.68-83S540,48.85,544.59,44.23Z"/><path class="cls-1" d="M568.72,9S579,17.77,582.28,34.21c2.51,12.53,1.66,76.26,1.66,76.26l2.51,8.29L585.06,32.7S578.4,11.06,568.72,9Z"/><path class="cls-2" d="M577.71,54.47a25.35,25.35,0,0,0-3.37-.37"/><path class="cls-3" d="M572.65,10.46a4.6,4.6,0,0,0-6.28.24C562.31,14.63,555,23.41,554.06,34c-1.25,14.32-.89,93.36-.89,93.36h33.28s-.5-88.25-1.26-93.89C584.25,26.58,578.37,15.4,572.65,10.46Z"/><rect class="cls-4" x="541.4" y="175.64" width="9.19" height="15.27"/><path class="cls-5" d="M553.09,198.49h-14.2v-2.21a7.1,7.1,0,0,1,7.1-7.1h0a7.1,7.1,0,0,1,7.1,7.1v2.21Z"/><line class="cls-6" x1="541.67" y1="178.54" x2="550.59" y2="178.54"/><line class="cls-6" x1="541.67" y1="180.91" x2="550.59" y2="180.91"/><line class="cls-6" x1="541.67" y1="183.28" x2="547.53" y2="183.28"/><line class="cls-6" x1="541.67" y1="185.7" x2="546.22" y2="185.7"/><line class="cls-6" x1="548.31" y1="185.7" x2="550.59" y2="185.7"/><line class="cls-6" x1="549.01" y1="183.28" x2="550.59" y2="183.28"/><rect class="cls-4" x="588.9" y="175.65" width="9.19" height="15.27"/><path class="cls-5" d="M593.49,189.19h0a7.1,7.1,0,0,1,7.1,7.1v2.21h-14.2v-2.21a7.1,7.1,0,0,1,7.1-7.1Z"/><line class="cls-6" x1="597.82" y1="178.54" x2="588.9" y2="178.54"/><line class="cls-6" x1="597.82" y1="180.91" x2="588.9" y2="180.91"/><line class="cls-6" x1="597.82" y1="183.28" x2="591.96" y2="183.28"/><line class="cls-6" x1="597.82" y1="185.7" x2="593.27" y2="185.7"/><line class="cls-6" x1="591.17" y1="185.7" x2="588.9" y2="185.7"/><line class="cls-6" x1="590.48" y1="183.28" x2="588.9" y2="183.28"/><path class="cls-5" d="M569.79,67.36s-3.86-.4-7.5,8.85c-3.51,8.91-3.22,10.62-3.34,14.55s0,79.34,0,79.34h21.84s-.19-77.43-.24-81.38C580.49,84.5,578.7,79,576.79,75S573.34,67.71,569.79,67.36Z"/><path class="cls-4" d="M594.44,44.23c-1.82,0-5,10.2-6.21,17s.75,85.36.75,85.36h13.36s-1-80-1.88-85.57C599.8,56.79,596.42,44.23,594.44,44.23Z"/><path class="cls-7" d="M601,75.22a13.56,13.56,0,0,0-10.49-.59"/><path class="cls-7" d="M601.56,94.43a13.58,13.58,0,0,0-10.5-.6"/><path class="cls-7" d="M601.75,110.47a15.65,15.65,0,0,0-5.67-1"/><path class="cls-7" d="M594.45,109.51a12.79,12.79,0,0,0-2.69.35"/><path class="cls-4" d="M544.59,44.23c1.83,0,5,10.2,6.22,17s-.76,85.36-.76,85.36H536.7s1-80,1.88-85.57C539.24,56.79,542.62,44.23,544.59,44.23Z"/><path class="cls-7" d="M538,75.22a13.58,13.58,0,0,1,10.5-.59"/><path class="cls-7" d="M537.48,94.43a13.56,13.56,0,0,1,10.49-.6"/><path class="cls-7" d="M537.28,110.47a15.74,15.74,0,0,1,5.68-1"/><path class="cls-7" d="M544.59,109.51a12.78,12.78,0,0,1,2.68.35"/><path class="cls-8" d="M538.27,65.88a19.54,19.54,0,0,1,12.83.36L551,63.8a15.83,15.83,0,0,0-12.64-.24Z"/><path class="cls-8" d="M600.76,65.88a19.54,19.54,0,0,0-12.83.36L588,63.8a15.83,15.83,0,0,1,12.64-.24Z"/><path class="cls-9" d="M554.64,57.4s3.61-3.63,13.93-3.28"/><path class="cls-7" d="M553.37,56.22s3.61-3.63,13.93-3.28"/><path class="cls-7" d="M580.59,54.1A15.93,15.93,0,0,1,585.8,56"/><path class="cls-7" d="M580.48,86.76c4.09.46,5.52,1.88,5.52,1.88"/><path class="cls-7" d="M553.12,89.1s1.39-1.29,5.78-1.88"/><path class="cls-10" d="M579.6,55.38a15.88,15.88,0,0,1,5.22,1.89"/><path class="cls-7" d="M579.09,53.79a23.81,23.81,0,0,0-3.37-.38"/><path class="cls-11" d="M563.32,73.86s5.38,3.61,12.71,0c0,0-2.76-6.93-6.24-6.5S563.32,73.86,563.32,73.86Z"/><path class="cls-7" d="M580.14,85s-4.63-2.45-12.84-1.49"/><path class="cls-7" d="M559.43,85a34.39,34.39,0,0,1,4.36-1"/><path class="cls-11" d="M574.19,81.12h-.89a5.59,5.59,0,0,0-7.47,0h-.92c.36-1.61,2.3-2.84,4.65-2.84S573.84,79.51,574.19,81.12Z"/><rect class="cls-11" x="563.92" y="88.64" width="2.07" height="2.96" rx="1.03"/><path class="cls-11" d="M568.18,88.64h0a1,1,0,0,1,1,1v.89a1,1,0,0,1-1,1h0a1,1,0,0,1-1-1v-.89A1,1,0,0,1,568.18,88.64Z"/><rect class="cls-11" x="570.38" y="88.64" width="2.07" height="2.96" rx="1.03"/><rect class="cls-11" x="573.61" y="88.64" width="2.07" height="2.96" rx="1.03"/><path class="cls-4" d="M580.59,96.49s6.4,31.38,15.23,43.07,21.47,16.7,21.95,33.52l-37,6Z"/><line class="cls-12" x1="617.65" y1="171.11" x2="597.49" y2="171.11"/><line class="cls-7" x1="583.89" y1="171.11" x2="589.58" y2="171.11"/><line class="cls-7" x1="592.38" y1="171.11" x2="595.45" y2="171.11"/><line class="cls-6" x1="617.14" y1="167.72" x2="582.63" y2="167.72"/><line class="cls-7" x1="614.37" y1="167.72" x2="614.37" y2="171.11"/><line class="cls-7" x1="611.73" y1="167.72" x2="611.73" y2="171.11"/><line class="cls-7" x1="608.91" y1="167.72" x2="608.91" y2="171.11"/><line class="cls-7" x1="606.21" y1="167.69" x2="606.21" y2="171.08"/><line class="cls-7" x1="603.57" y1="167.69" x2="603.57" y2="171.08"/><line class="cls-7" x1="600.75" y1="167.69" x2="600.75" y2="171.08"/><line class="cls-7" x1="598.08" y1="167.69" x2="598.08" y2="171.08"/><line class="cls-7" x1="587.8" y1="167.72" x2="587.8" y2="171.11"/><line class="cls-7" x1="593.73" y1="167.72" x2="593.73" y2="171.11"/><line class="cls-7" x1="584.98" y1="167.72" x2="584.98" y2="171.11"/><path class="cls-4" d="M558.9,96.49s-6.4,31.38-15.23,43.07-21.48,16.7-21.95,33.52l37,6Z"/><line class="cls-13" x1="521.83" y1="171.11" x2="541.99" y2="171.11"/><line class="cls-7" x1="555.6" y1="171.11" x2="549.9" y2="171.11"/><line class="cls-14" x1="523.38" y1="166.48" x2="556.85" y2="166.48"/><line class="cls-15" x1="582.15" y1="166.48" x2="616.34" y2="166.48"/><line class="cls-7" x1="547.39" y1="171.11" x2="544.32" y2="171.11"/><line class="cls-7" x1="522.34" y1="167.72" x2="556.85" y2="167.72"/><line class="cls-7" x1="525.12" y1="167.72" x2="525.12" y2="171.11"/><line class="cls-7" x1="527.76" y1="167.72" x2="527.76" y2="171.11"/><line class="cls-7" x1="530.57" y1="167.72" x2="530.57" y2="171.11"/><line class="cls-7" x1="533.27" y1="167.69" x2="533.27" y2="171.08"/><line class="cls-7" x1="535.91" y1="167.69" x2="535.91" y2="171.08"/><line class="cls-7" x1="538.73" y1="167.69" x2="538.73" y2="171.08"/><line class="cls-7" x1="541.4" y1="167.69" x2="541.4" y2="171.08"/><line class="cls-7" x1="551.68" y1="167.72" x2="551.68" y2="171.11"/><line class="cls-7" x1="545.76" y1="167.72" x2="545.76" y2="171.11"/><line class="cls-7" x1="554.5" y1="167.72" x2="554.5" y2="171.11"/><path class="cls-4" d="M569.65,160.11h0a14.25,14.25,0,0,1,14.24,14.24v7.15a2.44,2.44,0,0,1-2.44,2.44h-23.6a2.44,2.44,0,0,1-2.44-2.44h0v-7.15A14.25,14.25,0,0,1,569.65,160.11Z"/><path class="cls-5" d="M559.7,183.94h20.13a4.62,4.62,0,0,1-4.62,4.62H564.32a4.62,4.62,0,0,1-4.62-4.62Z"/><line class="cls-6" x1="583.89" y1="179.58" x2="555.6" y2="179.58"/><path class="cls-2" d="M539.71,76.14a14.23,14.23,0,0,1,8.8,0"/><path class="cls-2" d="M600.05,76.58a13.46,13.46,0,0,0-6.44-.78"/><line class="cls-7" x1="589.69" y1="161.71" x2="599.25" y2="161.71"/><line class="cls-7" x1="601.14" y1="161.71" x2="603.53" y2="161.71"/><line class="cls-7" x1="550.65" y1="161.71" x2="541.1" y2="161.71"/><line class="cls-7" x1="539.2" y1="161.71" x2="536.81" y2="161.71"/><line class="cls-7" x1="540.47" y1="203.9" x2="517.01" y2="409.52"/><line class="cls-7" x1="545.36" y1="204.15" x2="537.49" y2="357.27"/><line class="cls-7" x1="599.3" y1="203.91" x2="621.83" y2="409.63"/><line class="cls-7" x1="594.41" y1="204.14" x2="601.59" y2="357.29"/><polygon class="cls-16" points="545.36 204.15 504.88 578.02 530.58 578.02 545.36 204.15"/><polygon class="cls-16" points="593.58 206.01 634.82 578.02 607.75 578.02 593.58 206.01"/><line class="cls-7" x1="513.68" y1="438.68" x2="503.01" y2="532.21"/><line class="cls-7" x1="550.69" y1="203.94" x2="542.82" y2="522.72"/><line class="cls-7" x1="535.67" y1="392.61" x2="527.76" y2="546.45"/><line class="cls-7" x1="625.02" y1="438.8" x2="636.99" y2="548.1"/><line class="cls-7" x1="588.8" y1="204.4" x2="595.22" y2="523.2"/><line class="cls-7" x1="603.24" y1="392.63" x2="610.45" y2="546.52"/><circle class="cls-16" cx="260.6" cy="532.21" r="85.81"/><circle class="cls-16" cx="292.7" cy="601.85" r="85.81"/><circle class="cls-16" cx="184.61" cy="602.31" r="85.81"/><circle class="cls-16" cx="477.45" cy="572.11" r="51.53" transform="translate(-127.07 1007.8) rotate(-85.93)"/><circle class="cls-16" cx="371.32" cy="550.31" r="51.53"/><circle class="cls-16" cx="420.03" cy="561.24" r="28.86"/><circle class="cls-16" cx="546.18" cy="579.63" r="28.86"/><circle class="cls-16" cx="607.96" cy="575.61" r="28.86"/><circle class="cls-16" cx="583.94" cy="585.36" r="28.86"/><circle class="cls-16" cx="421.61" cy="614.31" r="34.68"/><circle class="cls-16" cx="889.1" cy="532.21" r="85.81"/><circle class="cls-16" cx="829.91" cy="588.79" r="71.2"/><circle class="cls-16" cx="517.32" cy="604.59" r="47.64"/><circle class="cls-16" cx="592.3" cy="624.46" r="56.08"/><circle class="cls-16" cx="965.15" cy="601.85" r="85.81" transform="translate(-142.89 858.74) rotate(-45)"/><circle class="cls-16" cx="895.58" cy="601.85" r="85.81"/><circle class="cls-16" cx="669.21" cy="576.75" r="57.63"/><circle class="cls-16" cx="778.38" cy="551.58" r="51.53"/><circle class="cls-16" cx="729.66" cy="561.24" r="28.86"/><circle class="cls-16" cx="660.02" cy="633.46" r="28.86"/><circle class="cls-16" cx="448.9" cy="623.64" r="47.4"/><circle class="cls-16" cx="741.58" cy="614.31" r="66.72"/><circle class="cls-16" cx="378.51" cy="607.87" r="52.17"/><path class="cls-7" d="M920.27,557.47a22.81,22.81,0,0,1,25.94-19.18h.06a22.57,22.57,0,0,1,8,2.78c.06-.51.11-1,.19-1.55a38.25,38.25,0,0,1,76.07,6.51,17.35,17.35,0,0,1,19.9,4.8,11.58,11.58,0,0,1,9.56-2.9"/><path class="cls-7" d="M219.73,557.47a22.81,22.81,0,0,0-25.94-19.18h-.06a22.57,22.57,0,0,0-8,2.78c-.06-.51-.11-1-.19-1.55a38.25,38.25,0,0,0-76,6.47,17.35,17.35,0,0,0-19.9,4.8,11.58,11.58,0,0,0-9.56-2.9"/><path class="cls-7" d="M421,588.79a10.41,10.41,0,0,0-11.19-9.56,10,10,0,0,0-3.71,1v-.72a17.45,17.45,0,0,0-34.82.49,8,8,0,0,0-9.21,1.54,5.28,5.28,0,0,0-4.26-1.63"/><path class="cls-7" d="M702.27,590.07a10.4,10.4,0,0,1,11.17-9.57h0a10.18,10.18,0,0,1,3.71,1v-.72a17.44,17.44,0,0,1,34.81.49,8,8,0,0,1,9.22,1.54,5.26,5.26,0,0,1,4.25-1.63"/><path class="cls-7" d="M512.41,647.46a14.06,14.06,0,0,1,22.41-6.15c.09-.31.19-.61.29-.92a23.59,23.59,0,0,1,45.41,12.45,10.68,10.68,0,0,1,5.74.35"/><path class="cls-7" d="M953.06,495c-1.63-34.2-30.95-60.58-65.48-58.93S826.38,466.82,828,501a61.78,61.78,0,0,0,1.81,12.17,49.44,49.44,0,0,0-65.32,17,25.09,25.09,0,0,0-35.32-3.38l-.38.32a34.51,34.51,0,0,0-60.41,11.58,17,17,0,0,0-29.45,12.12"/><path class="cls-17" d="M1041.61,648.72c-1.29-27-24.43-47.82-51.69-46.52s-48.3,24.24-47,51.24a47.86,47.86,0,0,0,1.42,9.6,39,39,0,0,0-51.56,13.46,19.8,19.8,0,0,0-27.86-2.68l-.31.26a27.24,27.24,0,0,0-47.68,9.14,13.4,13.4,0,0,0-23.25,9.56"/><path class="cls-7" d="M186.26,495c1.63-34.2,31-60.58,65.48-58.93s61.2,30.71,59.57,64.91a61.78,61.78,0,0,1-1.81,12.17,49.44,49.44,0,0,1,65.32,17,25.09,25.09,0,0,1,35.32-3.38l.38.32a34.51,34.51,0,0,1,60.41,11.58,17,17,0,0,1,29.45,12.12"/><path class="cls-7" d="M114.31,658.84c0-27.75,22.72-50.26,50.75-50.26s50.74,22.5,50.74,50.26a50.15,50.15,0,0,1-1,9.93A40.08,40.08,0,0,1,268.37,680a20.32,20.32,0,0,1,28.44-4.12l.34.26a28,28,0,0,1,49.37,7,13.77,13.77,0,0,1,24.32,8.67"/></svg>