<?xml version="1.0" encoding="utf-8"?>
<!-- Generator: Adobe Illustrator 25.0.1, SVG Export Plug-In . SVG Version: 6.00 Build 0)  -->
<svg version="1.1" id="Layer_1_copy" xmlns="http://www.w3.org/2000/svg" xmlns:xlink="http://www.w3.org/1999/xlink" x="0px"
	 y="0px" viewBox="0 0 1920 1841.3" style="enable-background:new 0 0 1920 1841.3;" xml:space="preserve">
<style type="text/css">
	.st0{fill:none;stroke:#FFFFFF;stroke-width:2;stroke-miterlimit:10;}
	.st1{fill:none;stroke:#FFFFFF;stroke-width:2;stroke-miterlimit:10;stroke-dasharray:10.32,10.32;}
	.st2{fill:#FFFFFF;}
	.st3{font-family:'Arial-BoldMT';}
	.st4{font-size:19.7px;}
	.st5{fill:none;stroke:#FFFFFF;stroke-width:1.99;stroke-miterlimit:10;}
	.st6{fill:none;stroke:#FFFFFF;stroke-width:1.99;stroke-miterlimit:10;stroke-dasharray:10.29,10.29;}
	.st7{fill:none;stroke:#FFFFFF;stroke-width:2;stroke-miterlimit:10;stroke-dasharray:10.37,10.37;}
	.st8{font-family:'Montserrat-Bold';}
	.st9{font-size:25.58px;}
	.st10{letter-spacing:-1;}
</style>
<line class="st0" x1="397.8" y1="950.4" x2="403" y2="950.4"/>
<line class="st1" x1="413.3" y1="950.4" x2="676.5" y2="950.4"/>
<line class="st0" x1="681.6" y1="950.4" x2="686.8" y2="950.4"/>
<line class="st0" x1="1238.5" y1="950.4" x2="1243.7" y2="950.4"/>
<line class="st1" x1="1254" y1="950.4" x2="1517.2" y2="950.4"/>
<line class="st0" x1="1522.3" y1="950.4" x2="1527.5" y2="950.4"/>
<image style="overflow:visible;enable-background:new    ;" width="800" height="290" xlink:href="D:\graphic design (GX)\trans\brosur tv box trans 2021\decoder.png"  transform="matrix(0.88 0 0 0.88 634.94 823.46)">
</image>
<rect x="1571.7" y="1380.2" class="st2" width="60.8" height="8"/>
<rect x="1598.2" y="1353.8" class="st2" width="8" height="60.8"/>
<text transform="matrix(1 0 0 1 1615.14 1411.48)" class="st2 st3 st4">MORE </text>
<text transform="matrix(1 0 0 1 1615.14 1429.48)" class="st2 st3 st4">APPS &amp; </text>
<text transform="matrix(1 0 0 1 1615.14 1447.48)" class="st2 st3 st4">GAMES</text>
<circle class="st0" cx="295.8" cy="472.8" r="104"/>
<circle class="st0" cx="1631.6" cy="472.8" r="104"/>
<circle class="st0" cx="1631.6" cy="954.2" r="104"/>
<circle class="st0" cx="293.8" cy="949.4" r="104"/>
<circle class="st0" cx="293.8" cy="1404.1" r="104"/>
<circle class="st0" cx="970.1" cy="473.5" r="104"/>
<circle class="st0" cx="1634.5" cy="1404.1" r="104"/>
<line class="st5" x1="970.1" y1="576.8" x2="970.1" y2="581.8"/>
<line class="st6" x1="970.1" y1="592.1" x2="970.1" y2="833.9"/>
<line class="st5" x1="970.1" y1="839" x2="970.1" y2="844"/>
<polyline class="st7" points="399.8,472.8 700.8,472.8 700.8,697.6 808.8,697.6 808.8,850.2 "/>
<polyline class="st7" points="1527.7,472.8 1226.7,472.8 1226.7,697.6 1118.7,697.6 1118.7,850.2 "/>
<polyline class="st7" points="1527.7,1404.1 1226.7,1404.1 1226.7,1179.3 1118.7,1179.3 1118.7,1026.7 "/>
<polyline class="st7" points="399.8,1404.1 700.8,1404.1 700.8,1179.3 808.8,1179.3 808.8,1026.7 "/>
<image style="overflow:visible;enable-background:new    ;" width="1181" height="1181" xlink:href="../bahan/xstream box/google play movie.png"  transform="matrix(9.000000e-02 0 0 9.000000e-02 247.72 421.47)">
</image>
<image style="overflow:visible;enable-background:new    ;" width="1181" height="1181" xlink:href="../bahan/xstream box/youtube-white.png"  transform="matrix(0.13 0 0 0.13 1552.09 395.01)">
</image>
<image style="overflow:visible;enable-background:new    ;" width="1181" height="1181" xlink:href="../bahan/xstream box/spotify-white.png"  transform="matrix(0.19 0 0 0.19 181.44 838.37)">
</image>
<image style="overflow:visible;enable-background:new    ;" width="1181" height="1181" xlink:href="../bahan/xstream box/20d-putih.png"  transform="matrix(0.15 0 0 0.15 1550.86 867.66)">
</image>
<image style="overflow:visible;enable-background:new    ;" width="1181" height="1181" xlink:href="../bahan/xstream box/white .png"  transform="matrix(0.1 0 0 0.1 237.24 1350.84)">
</image>
<image style="overflow:visible;enable-background:new    ;" width="1181" height="1181" xlink:href="../bahan/xstream box/joystic-white.png"  transform="matrix(0.12 0 0 0.12 901.4 402.45)">
</image>
<text transform="matrix(1 0 0 1 203.53 340.18)" class="st2 st8 st9">Google M</text>
<text transform="matrix(1 0 0 1 330.17 340.18)" class="st2 st8 st9">o</text>
<text transform="matrix(1 0 0 1 346.55 340.18)" class="st2 st8 st9">vie</text>
<text transform="matrix(1 0 0 1 244.73 823.46)" class="st2 st8 st9">Spoti</text>
<text transform="matrix(1 0 0 1 314.28 823.46)" class="st2 st8 st9">f</text>
<text transform="matrix(1 0 0 1 324.44 823.46)" class="st2 st8 st9">y</text>
<text transform="matrix(1 0 0 1 201.97 1278.5)" class="st2 st8 st9">Mi</text>
<text transform="matrix(1 0 0 1 234.1 1278.5)" class="st2 st8 st9">r</text>
<text transform="matrix(1 0 0 1 244.89 1278.5)" class="st2 st8 st9">or </text>
<text transform="matrix(1 0 0 1 279.91 1278.5)" class="st2 st8 st9">C</text>
<text transform="matrix(1 0 0 1 298.56 1278.5)" class="st2 st8 st9">asti</text>
<text transform="matrix(1 0 0 1 346.75 1278.5)" class="st2 st8 st9">n</text>
<text transform="matrix(1 0 0 1 364.58 1278.5)" class="st2 st8 st9">g</text>
<text transform="matrix(1 0 0 1 1514.72 1278.5)" class="st2 st8 st9">Google Pl</text>
<text transform="matrix(1 0 0 1 1643.36 1278.5)" class="st2 st8 st9">a</text>
<text transform="matrix(1 0 0 1 1658.89 1278.5)" class="st2 st8 st9">y</text>
<text transform="matrix(1 0 0 1 1673.98 1278.5)" class="st2 st8 st9">s</text>
<text transform="matrix(1 0 0 1 1687.5599 1278.5)" class="st2 st8 st9">t</text>
<text transform="matrix(1 0 0 1 1698.25 1278.5)" class="st2 st8 st9">o</text>
<text transform="matrix(1 0 0 1 1715.01 1278.5)" class="st2 st8 st9">r</text>
<text transform="matrix(1 0 0 1 1725.7999 1278.5)" class="st2 st8 st9">e</text>
<text transform="matrix(1 0 0 1 1574.79 825.46)" class="st2 st8 st9">2</text>
<text transform="matrix(1 0 0 1 1589.8301 825.46)" class="st2 st8 st9">0 Detik</text>
<text transform="matrix(1 0 0 1 922.44 340.18)" class="st2 st8 st9">Ga</text>
<text transform="matrix(1 0 0 1 957.94 340.18)" class="st2 st8 st9">m</text>
<text transform="matrix(1 0 0 1 984.93 340.18)" class="st2 st8 st9">es</text>
<text transform="matrix(1 0 0 1 1570.67 340.18)" class="st2 st8 st9 st10">Y</text>
<text transform="matrix(1 0 0 1 1586.4301 340.18)" class="st2 st8 st9">o</text>
<text transform="matrix(1 0 0 1 1603.1801 340.18)" class="st2 st8 st9 st10">u</text>
<text transform="matrix(1 0 0 1 1619.12 340.18)" class="st2 st8 st9">T</text>
<text transform="matrix(1 0 0 1 1634.62 340.18)" class="st2 st8 st9">ube</text>
</svg>
