<?xml version="1.0" encoding="utf-8"?>
<!-- Generator: Adobe Illustrator 25.0.1, SVG Export Plug-In . SVG Version: 6.00 Build 0)  -->
<svg version="1.1" id="Layer_1_copy" xmlns="http://www.w3.org/2000/svg" xmlns:xlink="http://www.w3.org/1999/xlink" x="0px"
	 y="0px" viewBox="0 0 378.1 328.8" style="enable-background:new 0 0 378.1 328.8;" xml:space="preserve">
<style type="text/css">
	.st0{fill:#FFFFFF;}
</style>
<path class="st0" d="M60.7,328l-1.6-1.5C20.7,290-0.7,239.2,0.2,186.2C2.1,82.1,88.2-1.1,192.4,0.7s187.3,87.9,185.5,192.1
	c-0.7,50.7-22,98.9-58.9,133.7l-1.7,1.6l-21.7-25.2l1.5-1.5c29.8-28.6,47-67.9,47.5-109.3c1.5-85.8-67.1-156.8-152.9-158.3
	S34.9,101,33.4,186.8c-0.8,44.1,17.2,86.4,49.5,116.5l1.8,1.6L60.7,328z M192.3,5.1C90.6,3.3,6.4,84.6,4.6,186.3
	c-0.8,50.9,19.5,100,56,135.5l17.5-16.9C46,274,28.2,231.2,28.9,186.7c1.5-88.3,74.6-158.8,162.9-157.3
	c88.3,1.5,158.8,74.6,157.3,162.9c-0.6,41.8-17.6,81.6-47.4,111l15.9,18.4c35-33.8,55.1-80.3,55.8-128.9
	C375.2,91,293.9,6.9,192.3,5.1L192.3,5.1z"/>
<path class="st0" d="M249.3,28.5c-2.5,7.3-10.3,11.2-17.7,9c-20.2-5.7-41.3-7.3-62-4.9c-71.5,8.5-129,65.8-137.7,137.2
	c-6.4,50.7,12.2,101.3,49.9,135.9L61,325.6C19.1,286.4-2.3,230.1,2.8,173C10.8,79.5,89.1,5.7,183,2.9c19.2-0.7,38.5,1.7,57,7
	c7.6,2.2,11.9,10.2,9.6,17.8C249.4,28,249.3,28.3,249.3,28.5z"/>
</svg>
