<?xml version="1.0" encoding="utf-8"?>
<!-- Generator: Adobe Illustrator 25.0.1, SVG Export Plug-In . SVG Version: 6.00 Build 0)  -->
<svg version="1.1" id="Layer_1_copy" xmlns="http://www.w3.org/2000/svg" xmlns:xlink="http://www.w3.org/1999/xlink" x="0px"
	 y="0px" viewBox="0 0 383 332" style="enable-background:new 0 0 383 332;" xml:space="preserve">
<style type="text/css">
	.st0{fill:#FFFFFF;}
</style>
<path class="st0" d="M61.8,330.3l-1.6-1.5C21.8,292.1,0.5,241,1.6,187.8C3.8,83.4,90.6,0.1,195.1,2.2s187.7,88.9,185.6,193.4
	c-0.9,50.9-22.4,99.3-59.5,134.1l-1.7,1.6l-21.7-25.4l1.5-1.5c30.1-28.6,47.4-68.1,48.1-109.5c1.8-86.1-66.8-157.6-152.9-159.4
	S36.8,102.5,35,188.6c-0.9,44.3,17,86.7,49.3,117.1l1.7,1.6L61.8,330.3z M195,6.8C92.9,4.7,8.2,85.9,6.1,187.9
	C5,239.1,25.3,288.3,61.8,324.1l17.6-16.9C47.4,276,29.6,233,30.5,188.3C32.3,99.8,106,29.3,194.6,31.1s159.2,75.4,157.3,164
	c-0.8,41.9-18,81.9-48,111.2l15.8,18.5c35.3-33.9,55.5-80.4,56.5-129.2C378.2,93.6,297.1,8.9,195,6.8z"/>
<path class="st0" d="M86.3,310.5l-20.2,20.7c-21.9-20.3-38.7-45.6-48.9-73.7c-2.8-7.5,1.1-15.9,8.6-18.7c1-0.4,2-0.6,3-0.8
	c0.7-0.1,1.3-0.1,2-0.1c6,0,11.5,3.9,13.5,9.6C52.9,271.5,67.4,293.1,86.3,310.5z"/>
</svg>
