<?xml version="1.0" encoding="utf-8"?>
<!-- Generator: Adobe Illustrator 25.0.1, SVG Export Plug-In . SVG Version: 6.00 Build 0)  -->
<svg version="1.1" id="Layer_1_copy" xmlns="http://www.w3.org/2000/svg" xmlns:xlink="http://www.w3.org/1999/xlink" x="0px"
	 y="0px" viewBox="0 0 383.5 331.9" style="enable-background:new 0 0 383.5 331.9;" xml:space="preserve">
<style type="text/css">
	.st0{fill:#FFFFFF;}
</style>
<path class="st0" d="M61.8,332.4l-1.6-1.5C21.1,294.1-0.7,242.6,0.1,188.9C1.5,83.5,88.5-1.1,194,0.3s190,88.4,188.5,193.8
	c-0.5,51.4-21.9,100.3-59.2,135.7l-1.7,1.7l-22.1-25.4l1.5-1.5c30.1-29.1,47.3-69.1,47.7-110.9C350,106.9,280.3,35.2,193.4,34
	c-86.9-1.2-158.6,68.5-159.8,155.3c-0.6,44.6,17.8,87.5,50.6,117.8l1.8,1.6L61.8,332.4z M193.9,4.8C90.9,3.4,6,86.1,4.6,188.9
	c-0.6,51.6,20,101.2,57.2,137.1l17.6-17.2c-32.7-31.2-50.8-74.4-50.3-119.5c1.2-89.4,75-161.1,164.4-159.8
	c89.4,1.2,161.1,74.9,159.8,164.3c-0.5,42.3-17.5,82.8-47.6,112.6L322,325c35.4-34.4,55.5-81.4,56-130.8
	C379.5,91.2,296.8,6.3,193.9,4.8z"/>
<path class="st0" d="M190,18.3l0,0.3c-0.1,7.5-5.9,13.7-13.4,14.3C88.7,40.9,24,118.7,32,206.6c3.7,39.4,21.7,76,50.8,102.9
	l-20.7,20.5C-14.1,258.7-18,139.1,53.2,62.9c31.8-34,74.9-55,121.1-59.1c8-0.6,15,5.4,15.6,13.4C190.1,17.6,190.1,17.9,190,18.3z"/>
</svg>
