<?xml version="1.0" encoding="utf-8"?>
<!-- Generator: Adobe Illustrator 25.0.1, SVG Export Plug-In . SVG Version: 6.00 Build 0)  -->
<svg version="1.1" id="Layer_1_copy" xmlns="http://www.w3.org/2000/svg" xmlns:xlink="http://www.w3.org/1999/xlink" x="0px"
	 y="0px" viewBox="0 0 379.7 329.1" style="enable-background:new 0 0 379.7 329.1;" xml:space="preserve">
<style type="text/css">
	.st0{fill:#FFFFFF;}
</style>
<path class="st0" d="M61.7,329.1l-1.6-1.5C21.3,291.2-0.4,240.3,0.3,187.2C1.5,82.8,87.4-1.1,191.8,0.2s188.3,87.1,187.1,191.5
	c-0.4,50.8-21.5,99.4-58.3,134.4l-1.7,1.7l-21.9-25.1l1.5-1.5c29.7-28.9,46.7-68.4,47-109.9c1-86-68.2-156.7-154.1-157.7
	c-85.9-1-156.8,68-157.8,154c-0.5,44.2,17.8,86.5,50.2,116.5l1.8,1.6L61.7,329.1z M191.7,4.7C89.8,3.5,6,85.4,4.8,187.3
	c-0.5,51.1,20,100.1,56.8,135.5l17.4-17C46.6,275,28.5,232.2,29.1,187.6c1-88.5,73.9-159.5,162.4-158.5
	c88.5,1,159.5,73.9,158.5,162.3c-0.4,41.9-17.3,81.9-46.9,111.5l16,18.3c34.9-34.1,54.8-80.8,55.2-129.6
	C375.5,89.7,293.6,5.9,191.7,4.7z"/>
<path class="st0" d="M83.2,307l-20.5,20.5C23.7,291.7,1.8,241.1,2.2,188.3c0.2-7.9,6.8-14.2,14.7-14c0.4,0,0.7,0,1.1,0.1
	c3.6,0.2,7,2,9.4,4.7c2.4,2.7,3.7,6.2,3.7,9.9C30.8,233.9,49.8,276.8,83.2,307z"/>
</svg>
