<?xml version="1.0" encoding="utf-8"?>
<!-- Generator: Adobe Illustrator 25.0.1, SVG Export Plug-In . SVG Version: 6.00 Build 0)  -->
<svg version="1.1" id="Layer_1_copy" xmlns="http://www.w3.org/2000/svg" xmlns:xlink="http://www.w3.org/1999/xlink" x="0px"
	 y="0px" viewBox="0 0 377.8 329.3" style="enable-background:new 0 0 377.8 329.3;" xml:space="preserve">
<style type="text/css">
	.st0{fill:#F8CA10;}
</style>
<path class="st0" d="M61.2,328.2l-1.6-1.5C21,290.5-0.7,239.7-0.1,186.8C1,82.7,86.7-1.1,190.9,0.1s187.9,86.8,186.7,191
	c-0.4,50.7-21.4,99.1-58.1,134.1l-1.7,1.6l-21.9-25l1.5-1.5c29.6-28.8,46.5-68.2,46.9-109.5c1-85.8-68-156.4-153.8-157.3
	c-85.8-1-156.4,68-157.4,153.8c-0.5,44.1,17.8,86.3,50.2,116.2l1.8,1.6L61.2,328.2z M190.9,4.5C89.2,3.4,5.5,85.1,4.4,186.8
	c-0.5,50.9,20,99.8,56.8,135.1l17.3-17c-32.3-30.7-50.3-73.4-49.9-117.9c1-88.3,73.6-159.3,161.9-158.3s159.2,73.6,158.3,161.9
	c-0.3,41.8-17.1,81.8-46.7,111.3l16,18.3c34.8-34,54.6-80.6,55-129.3C374.2,89.3,292.5,5.7,190.9,4.5L190.9,4.5z"/>
<path class="st0" d="M248,27.6c-2.5,7.2-10.2,11.3-17.6,9.2c-20.2-5.6-41.3-7.1-62.1-4.5c-71.4,8.8-128.6,66.6-136.8,138
	c-6,50.8,12.9,101.3,50.8,135.6l-20.8,20c-42.1-38.9-64-95.1-59.2-152.2C9.8,80.1,87.7,5.8,181.5,2.4c19.2-0.8,38.5,1.5,57,6.6
	c7.6,2.2,11.9,10.2,9.7,17.8C248.1,27.1,248.1,27.3,248,27.6z"/>
</svg>
