<?xml version="1.0" encoding="utf-8"?>
<!-- Generator: Adobe Illustrator 25.0.1, SVG Export Plug-In . SVG Version: 6.00 Build 0)  -->
<svg version="1.1" id="Layer_1_copy" xmlns="http://www.w3.org/2000/svg" xmlns:xlink="http://www.w3.org/1999/xlink" x="0px"
	 y="0px" viewBox="0 0 381.7 331.2" style="enable-background:new 0 0 381.7 331.2;" xml:space="preserve">
<style type="text/css">
	.st0{fill:#F8CA10;}
</style>
<path class="st0" d="M61.3,331.2l-1.2-1.1C21.1,293.3-0.7,242,0,188.4C1.4,83.2,88.2-1.2,193.5,0.2s189.6,88.2,188.2,193.4
	c-0.5,51.3-21.8,100.1-59,135.4l-1.3,1.3L300,305.6l1.2-1.1c30.2-29.2,47.5-69.3,47.9-111.4c1.2-87.2-68.8-159.2-156-160.4
	c-87.2-1.2-159.2,68.9-160.4,156.1c-0.6,44.8,17.9,87.8,50.8,118.3l1.3,1.2L61.3,331.2z M193.5,3.7C90.1,2.3,4.9,85.2,3.5,188.5
	c-0.7,52,20.3,101.9,57.8,137.9l18.4-17.9C46.9,277.4,28.6,234,29.2,188.8c1.2-89.2,74.8-160.7,163.9-159.5s160.7,74.7,159.5,163.9
	c-0.4,42.4-17.6,82.9-47.8,112.6l16.9,19.4c35.7-34.6,56.1-82,56.6-131.7C379.6,90.3,296.8,5.1,193.5,3.7z"/>
<path class="st0" d="M189.6,17.6l0,0.2c-0.1,7.5-5.9,13.7-13.4,14.3c-88,8.1-152.7,86.1-144.6,174c3.6,39.4,21.7,76,50.7,102.8
	l-20.7,20.6c-76.3-71.3-80.3-191-8.9-267.3c31.7-33.9,74.9-55,121.2-59.2c8-0.6,15,5.4,15.7,13.4C189.6,16.9,189.6,17.3,189.6,17.6z
	"/>
</svg>
