<?xml version="1.0" encoding="utf-8"?>
<!-- Generator: Adobe Illustrator 25.0.1, SVG Export Plug-In . SVG Version: 6.00 Build 0)  -->
<svg version="1.1" id="Layer_1_copy" xmlns="http://www.w3.org/2000/svg" xmlns:xlink="http://www.w3.org/1999/xlink" x="0px"
	 y="0px" viewBox="0 0 381.2 328.9" style="enable-background:new 0 0 381.2 328.9;" xml:space="preserve">
<style type="text/css">
	.st0{fill:#F6C72A;}
</style>
<path class="st0" d="M381.1,193.4c-0.6,45.5-17.5,89.2-47.7,123.2c-5.4,6-14.7,6.4-20.6,1c-0.4-0.4-0.9-0.8-1.3-1.3l0,0
	c-4.8-5.6-4.7-13.8,0.1-19.3c26.6-30.2,40.9-69.3,40.1-109.5c-1.5-82.2-66.6-151.2-148.5-157.5C109.9,22.8,31.1,95.8,29.7,188
	c-0.7,45.6,18,89.4,51.5,120.4l-21.1,20.5C19,290.2-2.8,235.2,0.7,178.8C6.5,83.2,84.3,5.6,180,0.4
	C291.4-5.7,382.8,83.7,381.1,193.4z"/>
</svg>
