<?xml version="1.0" encoding="utf-8"?>
<!-- Generator: Adobe Illustrator 25.0.1, SVG Export Plug-In . SVG Version: 6.00 Build 0)  -->
<svg version="1.1" id="Layer_1_copy" xmlns="http://www.w3.org/2000/svg" xmlns:xlink="http://www.w3.org/1999/xlink" x="0px"
	 y="0px" viewBox="0 0 384.1 331.7" style="enable-background:new 0 0 384.1 331.7;" xml:space="preserve">
<style type="text/css">
	.st0{fill:#F8CA10;}
</style>
<path class="st0" d="M62.3,331.5l-1.2-1.1C22.3,293.5,0.7,242.1,1.6,188.6C3.5,83.4,90.6-0.7,195.8,1.2S385,90.1,383.2,195.3
	c-0.7,51.2-22.2,100-59.5,135.1l-1.3,1.2L301,307l1.2-1.1c30.3-29.1,47.8-69.1,48.4-111.2c1.5-87.2-68.2-159.4-155.4-161
	c-87.2-1.5-159.5,68.2-161,155.4c-0.7,44.8,17.5,87.9,50.3,118.5l1.3,1.2L62.3,331.5z M195.7,4.6C92.4,2.8,6.9,85.3,5.1,188.6
	c-0.9,52,19.8,102,57.2,138.1l18.5-17.9c-32.7-31.2-50.8-74.6-50-119.8c1.6-89.1,75.4-160.4,164.5-158.8S355.6,105.7,354,194.8
	c-0.6,42.4-18,82.8-48.3,112.4l16.8,19.5c35.9-34.4,56.4-81.7,57.1-131.4C381.5,92,299,6.4,195.7,4.6z"/>
<path class="st0" d="M82.9,307.9l-21.3,20.2C23.2,290.9,2.4,239.3,4.3,185.9c0.4-8,7.2-14.2,15.2-13.8c0.4,0,0.7,0,1.1,0.1
	c3.7,0.4,7.1,2.2,9.4,5c2.4,2.8,3.6,6.4,3.4,10.1C32,232.7,49.9,276.6,82.9,307.9z"/>
</svg>
