<?xml version="1.0" encoding="utf-8"?>
<!-- Generator: Adobe Illustrator 25.0.1, SVG Export Plug-In . SVG Version: 6.00 Build 0)  -->
<svg version="1.1" id="Layer_1_copy" xmlns="http://www.w3.org/2000/svg" xmlns:xlink="http://www.w3.org/1999/xlink" x="0px"
	 y="0px" viewBox="0 0 381.9 331.7" style="enable-background:new 0 0 381.9 331.7;" xml:space="preserve">
<style type="text/css">
	.st0{fill:#F8CA10;}
	.st1{fill:#F6C72A;}
</style>
<path class="st0" d="M62.2,331.7l-1.6-1.5c-39.1-36.6-61-87.9-60.4-141.4C1.4,83.6,87.9-1,193.1,0.2S382.9,87.9,381.7,193
	c-0.4,51.2-21.6,100.1-58.7,135.5l-1.7,1.7l-22.1-25.2l1.5-1.5c30-29.1,47-69,47.4-110.7c1-86.7-68.7-157.9-155.4-158.9
	s-158,68.7-159,155.4c-0.5,44.5,18,87.2,50.7,117.4l1.8,1.6L62.2,331.7z M193.1,4.7C90.4,3.5,5.9,86.1,4.7,188.8
	C4.2,240.3,25,289.7,62.1,325.4l17.5-17.2c-32.6-31-50.9-74.1-50.4-119.1c1-89.2,74.4-160.9,163.6-159.9s160.9,74.3,159.9,163.5
	c-0.3,42.2-17.3,82.6-47.2,112.4l16.1,18.5c35.2-34.4,55.2-81.4,55.6-130.6C378.4,90.3,295.8,5.8,193.1,4.7z"/>
<path class="st1" d="M308,61.7c-5,6.2-14.1,7.2-20.4,2.3c-29.7-22.7-66.4-34.1-103.8-32.3C104.2,35.2,38.4,98.8,32.2,178.3
	c-3.9,49.2,15.1,97.4,51.7,130.6l-20.5,20.6C20.9,290.4-1.2,234,3.3,176.5C10.3,83.2,86.6,8.2,179.9,2.7
	c45.2-2.8,89.8,10.9,125.7,38.4c6.3,4.9,7.4,14,2.5,20.3C308.1,61.5,308,61.6,308,61.7z"/>
</svg>
