<?xml version="1.0" encoding="utf-8"?>
<!-- Generator: Adobe Illustrator 25.0.1, SVG Export Plug-In . SVG Version: 6.00 Build 0)  -->
<svg version="1.1" id="Layer_1_copy" xmlns="http://www.w3.org/2000/svg" xmlns:xlink="http://www.w3.org/1999/xlink" x="0px"
	 y="0px" viewBox="0 0 380.9 330.1" style="enable-background:new 0 0 380.9 330.1;" xml:space="preserve">
<style type="text/css">
	.st0{fill:#F8CA10;}
</style>
<path class="st0" d="M61.4,330.1l-1.6-1.5C21,292-0.6,240.8,0.1,187.4C1.7,82.6,88.3-1.5,193.2,0.1s188.9,88.2,187.3,193
	c-0.6,51.1-21.9,99.7-59,134.9l-1.7,1.6l-21.9-25.3l1.5-1.5c30-28.9,47.2-68.6,47.7-110.2c1.3-86.4-67.9-157.7-154.3-159
	s-157.8,68-159.1,154.4c-0.6,44.4,17.6,87,50.1,117.2l1.8,1.7L61.4,330.1z M193.1,4.6C90.7,3.1,6.2,85.1,4.7,187.5
	C4,238.8,24.5,288.2,61.4,323.8l17.6-17c-32.4-31-50.5-74.1-49.8-118.9c1.3-88.9,74.7-160.1,163.6-158.8
	c88.9,1.3,160.1,74.7,158.8,163.6c-0.5,42.1-17.5,82.3-47.5,111.9l16,18.5c35.2-34.2,55.3-81,55.9-130
	C377.5,90.7,295.5,6.2,193.1,4.6z"/>
<path class="st0" d="M329.4,85.1c-6,5.5-15.3,5.1-20.8-0.9c-0.1-0.1-0.1-0.2-0.2-0.2c-33.2-37-81.8-56.3-131.3-52.2
	C103,37.8,42,96,32.7,169.7c-6.8,51.5,12.1,103,50.5,138l-21.1,20c-42.3-39.4-64.1-96-59.1-153.5C10.8,81,88,6.8,181.5,2.5
	C238-0.2,292.8,22.8,330.4,65C335.6,70.9,335.2,79.8,329.4,85.1z"/>
</svg>
