<svg width="94" height="92" viewBox="0 0 94 92" fill="none" xmlns="http://www.w3.org/2000/svg">
<path d="M76.4477 9.64848C68.2795 3.22497 58.4724 0 47 0C33.5186 0 22.3105 4.44094 13.3757 13.2964C4.46738 22.1783 0 33.0427 0 45.9162C0 48.7975 0.264342 51.5467 0.713723 54.2165L76.4477 9.64848Z" fill="black"/>
<path d="M83.6378 16.5742L40.0478 91.2244C42.2947 91.5152 44.5945 91.7002 47 91.7002C60.4814 91.7002 71.6895 87.2857 80.6243 78.4831C89.559 69.6805 94 58.8161 94 45.9426C94 34.5759 90.5371 24.8217 83.6378 16.5742Z" fill="black"/>
<path d="M69.1255 24.108L3.09283 62.9927C5.31331 68.7025 8.72332 73.8836 13.4022 78.4831C18.5304 83.5585 24.4517 87.1271 31.0866 89.2683L69.1255 24.108Z" fill="#F9C900"/>
</svg>
