<svg id="Layer_1" data-name="Layer 1" xmlns="http://www.w3.org/2000/svg" viewBox="0 0 335.04 509.47"><defs><style>.cls-1{fill:none;stroke:#fff;stroke-miterlimit:10;stroke-width:2px;}</style></defs><title>icon-white-right-line</title><line class="cls-1" x1="92.32" y1="432.03" x2="285.08" y2="432.03"/><line class="cls-1" x1="-0.77" y1="432.03" x2="47.67" y2="432.03"/><line class="cls-1" x1="277.86" y1="460.71" x2="326.3" y2="460.71"/><line class="cls-1" x1="305.28" y1="393.65" x2="245.94" y2="393.65"/><line class="cls-1" x1="213.33" y1="503.71" x2="121.38" y2="503.71"/><line class="cls-1" x1="285.08" y1="121.86" x2="335.04" y2="121.86"/><line class="cls-1" x1="250.88" y1="121.86" x2="265.45" y2="121.86"/><line class="cls-1" x1="197.25" y1="81.33" x2="147.28" y2="81.33"/><line class="cls-1" x1="245.94" y1="460.71" x2="231.38" y2="460.71"/><line class="cls-1" x1="277.86" y1="44.35" x2="326.3" y2="44.35"/><line class="cls-1" x1="179.2" y1="44.35" x2="35.89" y2="44.35"/><line class="cls-1" x1="135.95" y1="110.02" x2="121.38" y2="110.02"/><line class="cls-1" x1="128.67" y1="393.65" x2="114.1" y2="393.65"/><line class="cls-1" x1="259.31" y1="4.96" x2="167.36" y2="4.96"/><circle class="cls-1" cx="231.38" cy="81.33" r="4.31"/><circle class="cls-1" cx="128.67" cy="465.78" r="4.31"/></svg>