<svg id="Layer_1" data-name="Layer 1" xmlns="http://www.w3.org/2000/svg" viewBox="0 0 335.04 509.47"><defs><style>.cls-1{fill:none;stroke:#000;stroke-miterlimit:10;stroke-width:2px;}</style></defs><title>gx-menu-hand</title><line class="cls-1" x1="49.19" y1="432.03" x2="241.95" y2="432.03"/><line class="cls-1" x1="286.6" y1="432.03" x2="335.04" y2="432.03"/><line class="cls-1" x1="7.97" y1="460.71" x2="56.41" y2="460.71"/><line class="cls-1" x1="88.33" y1="393.65" x2="28.99" y2="393.65"/><line class="cls-1" x1="212.89" y1="503.71" x2="120.94" y2="503.71"/><line class="cls-1" x1="-0.77" y1="121.86" x2="49.19" y2="121.86"/><line class="cls-1" x1="68.82" y1="121.86" x2="83.39" y2="121.86"/><line class="cls-1" x1="186.99" y1="81.33" x2="137.02" y2="81.33"/><line class="cls-1" x1="102.89" y1="460.71" x2="88.33" y2="460.71"/><line class="cls-1" x1="7.97" y1="44.35" x2="56.41" y2="44.35"/><line class="cls-1" x1="298.38" y1="44.35" x2="155.07" y2="44.35"/><line class="cls-1" x1="212.89" y1="110.02" x2="198.32" y2="110.02"/><line class="cls-1" x1="220.17" y1="393.65" x2="205.61" y2="393.65"/><line class="cls-1" x1="166.91" y1="4.96" x2="74.97" y2="4.96"/><circle class="cls-1" cx="102.89" cy="81.33" r="4.31"/><circle class="cls-1" cx="205.61" cy="465.78" r="4.31"/></svg>