<svg id="Layer_1" data-name="Layer 1" xmlns="http://www.w3.org/2000/svg" viewBox="0 0 478.45 183.7"><defs><style>.cls-1{fill:#f8ca10;}.cls-2{fill:#fff;}.cls-2,.cls-4{stroke:#fff;}.cls-2,.cls-3,.cls-4{stroke-miterlimit:10;}.cls-3{stroke:#000;}.cls-4{fill:none;}</style></defs><title>icon-white-left-hand</title><ellipse class="cls-1" cx="23.31" cy="96.37" rx="70.23" ry="19" transform="translate(-74.44 112.97) rotate(-86.04)"/><path class="cls-1" d="M422.89,54.45c1.39,0,43.69.38,48.19.95h0l.38.12A13,13,0,0,0,470,56.73l.19.19c-7.4,4.3-16.59,4-25,2.4C437.71,57.8,430.43,55.33,422.89,54.45Z"/><path class="cls-1" d="M466.58,134.87h0a21.75,21.75,0,0,1-2.78.57c-5.38.7-10.83-.7-16.09-2.09.13,0,.07-.19-.06-.57.51-1.65,3.74-6.21,3.74-6.21Z"/><path class="cls-1" d="M447.65,133.29l.06.06c-14-3.8-28-8.23-42.17-11.59l24.95-.5Z"/><path class="cls-1" d="M309.6,58.56c4.94.13,34.13-3.23,35.15-3.35q-3,.65-5.83,1.58a17.37,17.37,0,0,0-7,4.05,8,8,0,0,0-2.21,7.54A7.08,7.08,0,0,0,332,71.8C332,71.86,313.46,60.21,309.6,58.56Z"/><path class="cls-1" d="M417.51,157.35l12.66,4.56h0c-6.58,1.77-13.61,1.33-20.45.82-5.76-.44-11.59-.57-16.85-2.91l11.4-3.48,13.49-5.45Z"/><path class="cls-1" d="M283.76,14.11,200.62,24.18l1.83-1.65,12.29-5.7a86.49,86.49,0,0,1,9.18-3.8c8.23-2.47,17-1.9,25.65-1.26l14,1C270.28,13.29,277.05,13.73,283.76,14.11Z"/><path class="cls-1" d="M368.56,143l24.25,17-41.6-3.55-7.67-14.82c.7.51,10,7,10,7Z"/><path class="cls-1" d="M379.7,171.79l13.11-11.91c1.08,1.9-.38,4.18-2,5.7A34,34,0,0,1,380,172.49Z"/><path class="cls-1" d="M332.52,106l45.09,3.3c.7.76,27.93,12.41,27.93,12.41-4.88-1.2-9.75-2.22-14.69-3.1-10.89-1.9-21.91-2.92-32.61-5.58-6.65-1.64-13.11-3.92-19.64-5.82A46.71,46.71,0,0,0,332.52,106Z"/><path class="cls-1" d="M376.54,170.46l3.16,1.33.32.7c-7.85,3.23-16.91,4.3-25.52,5.13s-17.16,1.7-25.77,1.39c-.83,0-1.59-.07-2.41-.13Z"/><path class="cls-1" d="M343.54,141.58l7.67,14.82-65.8-20.64L282.81,122C282.88,122,342.85,141.08,343.54,141.58Z"/><polygon class="cls-1" points="321 148.74 285.92 142.09 256.47 142.79 261.6 121.89 282.88 121.95 285.47 135.69 351.21 156.34 327.21 150.32 321 148.74"/><path class="cls-1" d="M324,171.09l2.28,7.79c-8.87-.5-17.61-2-26.41-3.1q-10.06-1.23-20.14-1.9l3.42-9.82C300,167.1,323.34,171.16,324,171.09Z"/><path class="cls-1" d="M256.47,142.79l9.63,18.3,13.61,12.85c-17.54-1.14-35.14-1.14-52.75-1.33Z"/><path class="cls-1" d="M227,172.61l-5.44-.06c-13.3-.19-26.6-.57-39.58-3.23-3.8-.76-7.6-1.77-11.34-2.85,0,0,30.84-6.4,31.66-5.83h0C202.2,161.4,227,172.61,227,172.61Z"/><polygon class="cls-1" points="170.41 120.94 170.54 166.41 128.24 146.27 170.41 120.94"/><path class="cls-1" d="M170.54,166.41c-9.37-2.66-18.68-5.77-28.24-7.41-11.66-2-25.46-3-35.53,2.66l21.47-15.39Z"/><path class="cls-2" d="M80.3,149.5a76.85,76.85,0,0,1-9.63-14.25,102.74,102.74,0,0,1-11.27-60c1.4-11.78,5.32-19.76,11.78-23.75l.06-.06h.07c4.75.82,8.93-.51,12.85-2.09,1.27-.51,2.6-1.08,3.8-1.65,3.68-1.64,7.47-3.35,11.53-4a43.67,43.67,0,0,1,9.56-.19c.82.06,1.58.06,2.41.12,2.78.13,5.7.07,8.55-.06a134.08,134.08,0,0,0,25.64-4.18l.13.51a136.51,136.51,0,0,1-25.71,4.18,77.29,77.29,0,0,1-8.61.06c-.83,0-1.59-.06-2.41-.13a48,48,0,0,0-9.44.19,47,47,0,0,0-11.39,4c-1.27.57-2.54,1.14-3.87,1.65-3.73,1.52-8.17,3-13,2.15C65.1,56,61.24,63.82,59.91,75.34A103.06,103.06,0,0,0,71.12,135c10,18.8,22.16,26.21,30.52,29.13h.06l.19.19a25.17,25.17,0,0,1,4.31-3c10.77-6.08,25.52-4.44,35.65-2.66A197,197,0,0,1,163.26,164c2.28.63,4.62,1.33,6.9,2,4.43,1.26,8,2.15,11.33,2.85,12.92,2.66,26.09,3,39.52,3.23l5.44.06,7.48.06c14.88.13,30.27.32,45.27,1.27,7.22.44,13.81,1.08,20.21,1.9,2.53.32,5.13.7,7.59,1,6.15.83,12.54,1.71,18.81,2.09.83.06,1.59.06,2.41.13,8.55.25,17.22-.57,25.65-1.39H354c9-.89,17.73-1.9,25.46-5.07a35.25,35.25,0,0,0,10.83-6.84c.76-.76,3.16-3.29,1.9-5.38l-.38-.64.69.32c4.63,2,9.76,2.41,14.7,2.72l2.09.13c6.45.51,13.74,1,20.39-.82l1.9-.57c2.66-1,6.07-2.73,7.21-6,1-2.59.32-5.82-1.7-8.86-.26-.32-.51-.7-.83-1.08-4-5.06-10.26-7.41-14.75-8.48A83.28,83.28,0,0,0,408.26,135c-1.77-.13-3.67-.32-5.44-.51A151.31,151.31,0,0,1,387.87,132l.13-.51A146.67,146.67,0,0,0,402.88,134c1.77.19,3.67.32,5.45.51a80.38,80.38,0,0,1,13.29,1.77c4.56,1.08,10.9,3.49,15,8.68.32.38.57.76.83,1.08,2.15,3.16,2.78,6.58,1.77,9.3-1.27,3.42-4.81,5.26-7.54,6.21a17.19,17.19,0,0,1-2,.63c-6.78,1.84-14.12,1.27-20.58.83l-2.09-.13c-4.81-.32-9.75-.63-14.25-2.53.7,2.28-1.52,4.68-2.28,5.38a34.42,34.42,0,0,1-11,7c-7.79,3.16-16.53,4.24-25.59,5.13h-.12a204.5,204.5,0,0,1-25.71,1.39c-.83,0-1.59-.07-2.41-.13-6.33-.32-12.73-1.2-18.87-2.09-2.47-.31-5.07-.69-7.6-1-6.4-.82-13-1.39-20.14-1.9-15.07-.95-30.39-1.14-45.28-1.27l-7.47-.06-5.44-.06c-13.49-.19-26.66-.57-39.65-3.3-3.35-.69-7-1.58-11.39-2.85-2.28-.63-4.63-1.33-6.91-2a203.14,203.14,0,0,0-21.34-5.39c-10.07-1.77-24.69-3.35-35.33,2.6a24.74,24.74,0,0,0-4.44,3.17l-.19.19-.44-.45A51.13,51.13,0,0,1,80.3,149.5Z"/><path class="cls-2" d="M145.84,39.88l-.12-.5c2.72-.7,5.57-1.46,8.42-2.35l5.76-1.77c4.24-1.33,8.61-2.79,12.79-4.18,7.47-2.47,15.2-5.07,22.93-7.16a9.62,9.62,0,0,1,4.43-.25l1.77-1.58h0l7.6-3.55,4.69-2.15a79,79,0,0,1,9.24-3.8c8.42-2.53,17.61-1.9,25.71-1.27l14,1c7.47.57,14.06.95,20.2,1.33v.5c-6.14-.31-12.73-.76-20.2-1.33l-14-1c-8.1-.57-17.22-1.27-25.52,1.27a77.43,77.43,0,0,0-9.18,3.8L209.67,19l-7.6,3.54-1.9,1.71h-.12a8.41,8.41,0,0,0-4.31.19c-7.72,2.16-15.45,4.69-22.92,7.16C168.64,33,164.33,34.5,160,35.83l-5.77,1.77C151.41,38.36,148.63,39.19,145.84,39.88Z"/><path class="cls-2" d="M283.32,14.17v-.5c17,.95,31.79,1.33,45.34,1.14l.64-.57h.06l37.36-9a11.93,11.93,0,0,1,5-.5A4.38,4.38,0,0,1,375.46,8a8.59,8.59,0,0,1-.06,2.15,3.6,3.6,0,0,0,.31,2.73,1.78,1.78,0,0,0,1.08.69,8.58,8.58,0,0,0,2.53.13h.19c4.44-.32,8.8,1.2,13,2.66,1.46.51,3,1,4.5,1.46a91.49,91.49,0,0,0,11.59,2.34l18,2.85,23.94,3.8a50.23,50.23,0,0,1,11.65,2.85,38.75,38.75,0,0,1,9,5.63,11.3,11.3,0,0,1,1.46,1.21l.06.06c2.6,2.09,5.45,4.69,5.89,8.11a9.08,9.08,0,0,1-2.72,7.21,21.65,21.65,0,0,1-3.48,2.85c-.45.32-.83.57-1.27.89s-.89.7-1.27,1l.19.26-.25.12c-6.39,3.68-14.63,4.5-25.2,2.47-3-.57-6-1.33-8.87-2.09a121.05,121.05,0,0,0-13.3-2.85l.07-.5a122.88,122.88,0,0,1,13.42,2.78c2.91.7,5.89,1.46,8.87,2.09,10.32,2,18.36,1.27,24.57-2.21l-.13-.13.19-.19c.44-.38.89-.76,1.46-1.2s.82-.64,1.26-1a22.9,22.9,0,0,0,3.42-2.79,8.71,8.71,0,0,0,2.6-6.84c-.38-3.23-3.17-5.7-5.7-7.79l-.06-.06c-.51-.38-1-.82-1.46-1.2A41.86,41.86,0,0,0,462,30a46.22,46.22,0,0,0-11.53-2.78l-23.94-3.8-18-2.85a106.1,106.1,0,0,1-11.72-2.34c-1.52-.45-3-.95-4.49-1.46-4.12-1.46-8.42-2.91-12.79-2.6h-.19a7.43,7.43,0,0,1-2.66-.12,2.65,2.65,0,0,1-1.4-.89c-.69-.89-.5-2-.38-3.1a7.05,7.05,0,0,0,.07-2,4,4,0,0,0-3.36-2.85,11.22,11.22,0,0,0-4.81.51c-12.41,3-24.89,6-37.3,9l-.7.64h-.06C315.17,15.5,300.29,15.12,283.32,14.17Z"/><path class="cls-2" d="M344.37,55.27l-.13-.51c3.23-.69,6.4-1.14,10.2-1.71l5.95-.82,14.12-2a68.27,68.27,0,0,1,10.19-.89,49,49,0,0,1,8.11.95c1.58.32,3.23.7,4.81,1a78.43,78.43,0,0,0,10.2,1.84c2.09.19,4.3.25,6.39.25,1.78,0,3.61.07,5.45.19a13.83,13.83,0,0,1,1.58.13l-.06.51a11.88,11.88,0,0,0-1.58-.13c-1.78-.13-3.68-.13-5.45-.19-2.09,0-4.3-.06-6.46-.25a79.33,79.33,0,0,1-10.26-1.84c-1.58-.38-3.16-.7-4.75-1a42.29,42.29,0,0,0-8-1,60.34,60.34,0,0,0-10.13.88l-14.12,2-5.95.82C350.7,54.07,347.53,54.57,344.37,55.27Z"/><path class="cls-2" d="M330.37,105.93v-.51a16.4,16.4,0,0,1,1.71.13,38.18,38.18,0,0,1,6.08,1.27c2.47.69,4.94,1.45,7.35,2.21,4,1.27,8.17,2.54,12.28,3.55,7,1.71,14.12,2.79,21.09,3.8,3.8.57,7.72,1.14,11.52,1.77,4.56.83,9.38,1.84,14.7,3.11,9,2.15,18.23,4.81,27,7.34,4.94,1.46,10.06,2.91,15.13,4.31,5.7,1.52,10.77,2.72,16,2.09a20.85,20.85,0,0,0,2.72-.57c4.75-1.4,8.3-4.5,9.63-8.36a12.4,12.4,0,0,0,0-7.09,17.66,17.66,0,0,0-5.58-8.24,28,28,0,0,0-6.71-4,78,78,0,0,0-9.18-3.1l-4.62-1.39L445.05,101l-8.35-2.47-8.36-2.47-31.16-9c-7-2.09-14.31-4.18-21.53-5.77A112.66,112.66,0,0,0,361.27,79h-.57a128.24,128.24,0,0,1-21.78-3.73c-3.42-.83-5.89-1.9-7.53-3.29a7.35,7.35,0,0,1-2.39-3.6c-.76-2.47.19-5.51,2.28-7.79a17,17,0,0,1,7.09-4.12,57.1,57.1,0,0,1,5.89-1.64l.13.5a59.1,59.1,0,0,0-5.83,1.59,16.73,16.73,0,0,0-6.9,4,7.8,7.8,0,0,0-2.15,7.28,6.64,6.64,0,0,0,2.21,3.29c1.65,1.4,4,2.41,7.35,3.17,7.28,1.71,14.44,3.29,21.72,3.73h.57a113.55,113.55,0,0,1,14.44,2.28c7.28,1.59,14.5,3.68,21.53,5.77l31.15,9.18,8.36,2.47,8.36,2.4,4.43,1.27,4.63,1.39a76.85,76.85,0,0,1,9.24,3.17,26.39,26.39,0,0,1,6.84,4,17.78,17.78,0,0,1,5.76,8.49,12.1,12.1,0,0,1,0,7.34c-1.33,4-5.06,7.22-9.94,8.68a22.26,22.26,0,0,1-2.79.57c-5.31.7-10.44-.57-16.14-2.09C442.14,132,437,130.5,432.07,129c-8.8-2.53-18-5.19-27-7.34-5.32-1.27-10.13-2.28-14.69-3.1-3.8-.64-7.72-1.27-11.52-1.78-7-1-14.19-2.09-21.16-3.8-4.17-1-8.29-2.34-12.34-3.54-2.41-.76-4.88-1.52-7.35-2.22a39.51,39.51,0,0,0-6-1.27C331.51,106,330.94,105.93,330.37,105.93Z"/><path class="cls-3" d="M328.79,106l-.06-.5h1.64v.5A7,7,0,0,0,328.79,106Z"/><path class="cls-2" d="M322.52,113.59a4.29,4.29,0,0,1-.95-4.37,5,5,0,0,1,1.9-2.09,11.07,11.07,0,0,1,5.26-1.71l.06.51a10.82,10.82,0,0,0-5,1.58,4.34,4.34,0,0,0-1.71,1.84c-.7,1.58.19,3.42,1.45,4.43a12.12,12.12,0,0,0,4.75,2l35.21,9.31-.13.51L328,116.32a13.51,13.51,0,0,1-4.94-2.09A4.69,4.69,0,0,1,322.52,113.59Z"/><path class="cls-2" d="M101.83,165l-.13-.19L61.11,109.16V109l10-57.5,74.6-12.15,54.4-15.55,83.21-10.13.7.06-8.11,6.08-6,15.07,14,15.45L264.45,60,255,86.11l13.17,9.06-11.9,7.72-8,18.81,8.1,21-.12.13-29.7,29.83-.19-.07c-.06,0-6.27-2.85-12.35-5.7-10.39-4.87-12.16-5.95-12.41-6.33-1.21-.19-19.44,3.36-31.41,5.89h-.06l-42.24-20.14ZM61.62,109l40.27,55.29,25.84-18.49.13.06L170.1,166c9.11-1.9,30-6.14,31.66-5.82h0l.19.06v.13c.88.88,14.94,7.47,24.44,11.71l29.32-29.57-8-20.9,8.1-19.12.07-.07L267.17,95l-12.85-8.87L264,59.51l19.06-9.37-13.74-15.2,6.2-15.51,7-5.19-82.26,10-54.4,15.58L71.56,51.91Z"/><path class="cls-2" d="M422.38,54.45l.07-.51h.44c10.2.06,43.76.44,47.81,1l-.06.51c-4-.51-37.55-.89-47.75-1Z"/><path class="cls-2" d="M422.45,54.45l-.13-.51,26.34-5.7L428.59,39.5,452,29.88l-2.22,18.3,20.9,6.71-.13.51-21-6.78Zm29-23.75-21.53,8.87,19.44,8.48Z"/><path class="cls-2" d="M327.65,24.18V24h.25v-.26c.26-.06,2-1.2,3.93-2.34,6.71-4.18,10.26-6.27,11.08-6,.06,0,.19.06.19.12,1.27.57,20.77-.88,33.63-2h.38l-4.94,16.21,12.6,19.69,37.49,4.5L429,39.44l.51-10.13L426,22.72l45,12.73v.19l.19,19.63v.32l-.7-.26.13-.5h.06l-.19-19.06L427,23.48l3,5.64-.51,10.38-.13.19-6.84,14.69-1.45-.19-36.67-4.43-.06-.13-12.79-20V29.5l4.81-15.64c-1.71.12-9.06.76-16.34,1.26-15.89,1.14-17.1.83-17.35.51-1-.06-7.22,3.86-10.64,6-4.05,2.54-4.11,2.54-4.3,2.41Z"/><path class="cls-2" d="M295.8,106.18l34.07-.76L318.15,92.51l3.93-15,9.05-5.89c-2.53-1.58-18.36-11.46-22-13-.57,0-.76-.06-.82-.19l-.06-.12v-.13a.21.21,0,0,1,.19-.19c.12-.06.31-.06.82.13,4.43.06,27-2.47,34.51-3.3L325.5,40.33V40.2c.19-1.65,2.09-16,2.21-16.34l.51.13c-.06.31-1.46,10.64-2.15,16.15l19.06,15.07h-1c-6.58.76-27.54,3.1-33.81,3.29,5.25,2.66,20.77,12.35,21.46,12.79l.32.19-9.5,6.21-3.8,14.56.07.07,12.22,13.48h-2.15l-31.1.7,25.71,7.16-.12.5-27.49-7.6a.28.28,0,0,1-.25-.25c-.13-.06,0-.13.13-.13Z"/><path class="cls-2" d="M318.66,92.38h0c2.53,1.39,40.33,6.4,46.6,7.22L331.39,71.8l.31-.38L366,99.54l9.69-18.81,9.94,23.62,11.65-18.18,18.56,26.16C428,95.42,428.27,95.48,428.46,95.55s.51.12,1.78,24.88l7.66-6.9,7-12.86a.3.3,0,0,1,.38-.12c.07.06.13.12.13.19l5.45,18c12.35-12.6,12.47-12.54,12.66-12.47s.19.06,12.54,12.41l.13.13L476,119l-9.82,16-15.13-8.3a41.3,41.3,0,0,0-3.61,5.89c.13.38.13.57,0,.76l-.13.13h-.12c-.13,0-.19-.07-.26-.19a1.16,1.16,0,0,1,0-.64,80.67,80.67,0,0,0-3.61-7.85l-13.23-3.35h0l-.32-.13h0l-7.15-2.72-6.78-5.39-.13-.06-.12-.06-30-7.79h-.13l-.12.06-8.23,4.12-.13-.13-11-9.12c-2.66-.31-44.77-5.82-47.56-7.34a.53.53,0,0,1-.25-.26c-2.47-.82-46.42,2.47-50.53,2.79l-.07-.51c.64,0,50-3.86,51.11-2.53h0Zm57.07-10.83L366.4,99.91l10.83,8.93,8-4Zm21.6,5.64L386,104.79l29.32,7.6Zm31,9.18c-1.52,1.58-7.86,10.32-12.16,16.4l6.77,5.38,6.91,2.6C429.4,111.75,428.64,98.75,428.33,96.37Zm9.81,17.86L430.68,121l12.47,3.17c-2.21-4.31-4.49-8.8-5.06-10Zm6,10.7c1.65,3.35,2.73,5.7,3.23,7a46.68,46.68,0,0,1,3.36-5.32Zm-5.44-10.7c.82,1.58,3,6,5.06,10.07l7,1.77a55.73,55.73,0,0,0-.19-6.59v-.12c-.45-.45-7.29-3.3-11.91-5.13Zm6.46-12.8-6.59,12.16c3.93,1.59,9.82,4,11.84,5.07Zm5.95,17.93c.19,1.07.19,5.51.19,6.83l.19.07-.06.06,14.69,8L475.64,119c-3.23-3.23-11-11-12.16-12.1-1.14,1-7.85,7.73-12.41,12.42Z"/><path class="cls-2" d="M267.49,95l40.15-36.35a.19.19,0,0,0,.06-.26.17.17,0,0,0-.06-.06.31.31,0,0,0-.13-.06l-24.13-7.73a.36.36,0,0,1-.19-.32c0-.06.07-.12.19-.19l42.24-10,46.23-10.58h.06l58.26,10.14-.06.5-.95-.19L372,29.94h-.13l-46.1,10.51L285.28,50a.36.36,0,0,0-.19.32c0,.06.07.13.19.19l23.24,7.41a.34.34,0,0,1,.19.32c0,.06-.06.06-.06.12L267.87,95.29Z"/><path class="cls-2" d="M330.37,105.93v-.51l1.71.13,45.15,3.29.07.07c.63.63,17,7.72,27.8,12.35l25-.51,17.29,12.16-.26.44-.06-.06-17.1-12-25,.51h0c-2.72-1.14-26.09-11.21-27.93-12.42Z"/><path class="cls-2" d="M248,121.89v-.51l34.51.13c6.14,2,60,19.19,60.73,19.63s8.8,6.21,9.94,7l14.88-5.64h.06L397.5,149l6.27,6.9,12.91-5.19-28.81-18.87c-5.63-1.2-11.33-2.72-16.78-4.18l-2.34-.63-5.45-1.39.13-.51,5.44,1.45,2.35.64c5.51,1.45,11.21,3,16.84,4.18h.06l.07.06,29,19,5.57-9.56,14.06,3.86-7,17.35-13.05-4.75.19-6.2-13.3,5.38-6.39-7L368.11,143l-15,5.64-.13-.07c-.13-.06-9.31-6.52-10-7-1-.5-40-13-60.6-19.56Zm169.52,28.94-.19,6.14,12.28,4.43,6.59-16.33-13.11-3.61Z"/><path class="cls-2" d="M255.71,142.85l.06-.32,11.72-47.62h.32l28.62,11.4-13.68,15.58,2.53,13.49,65,20.45-7.47-14.44.19-.12,20-15.71a.58.58,0,0,1,.76.07c.07.06.07.12.13.19l4.56,16.84,23.94,16.72,4.81-10.13-9.37-17.48.44-.26,9.5,17.74-4.88,10.06L403.7,156l.13.51L392.56,160h-.26l-41.09-3.48.06.12-.63-.19-30.21-7.59-35-6.72Zm12.1-47.37-11.53,46.86,29.19-.69,35,6.65,21.79,5.5-57.57-18.11-2.66-14,.07-.13,13.3-15.07Zm75.61,46,7.47,14.5,40.53,3.42-23.56-16.47-4.62-17.09Z"/><path class="cls-2" d="M101.64,164.7,71.18,52a.29.29,0,0,1,.15-.37h0a.27.27,0,0,1,.36.13.14.14,0,0,1,0,.06h0l28.18,55a.3.3,0,0,0,.38.13c.06-.07.13-.07.13-.19l18.3-62.63.32-.38L155.53,81a.24.24,0,0,0,.32.06l.06-.06h0l24.76-31.66.06-.13.13-.12.19-.19,19.13-25.27.18.13,64,35.71a.31.31,0,0,1,.13.38.26.26,0,0,1-.25.13l-81.1-10.09c-.13,0-.32.06-.32.25s0,.19.13.25l73.27,52.06c.12.06.12.25.06.38a.35.35,0,0,1-.19.12l-83.78,17.61c-.12.06-.25.19-.19.32a.21.21,0,0,0,.19.19l84,21.34.06.12,9.25,17.67a.3.3,0,0,0,.38.13.06.06,0,0,0,.06-.06h0l19.32-18.49a.25.25,0,0,1,.34,0l0,0c.06.07.06.07.06.13l2,7.85c0,.13.13.19.26.19l38.82-.06a.41.41,0,0,1,.25.13l11.4,17.16a.24.24,0,0,0,.32.1l.06,0H339l11.91-11.34.12.07,24.38,8.23h.19l16.78-4.69a.25.25,0,0,1,.31.16v0a.59.59,0,0,1-.06.32l-13.05,11.78a.26.26,0,0,1-.31.06l-3-1.26H376L325.81,179l-.12-.13v-.06l-2.16-7.41c-.06-.13-.12-.19-.25-.19-1.39-.19-7.73-1.2-40.09-6.9a.34.34,0,0,0-.31.19l-3.36,9.5-.19.19-13.87-13.11h0l-.06-.07-.19-.12.06-.07L255.9,142.9a.35.35,0,0,0-.19-.12L170.1,121.07h-.19L128,146.33a.29.29,0,0,1-.38-.06L100.2,108.53h0l-.19-.32L73.46,56.35a.37.37,0,0,0-.38-.19c-.19,0-.19.19-.19.38h0l29.26,108Zm-.82-56.17,26.91,37c.06.13.25.13.38.07l41.35-24.89a.23.23,0,0,0,.14-.29v0l-13.93-38a.32.32,0,0,0-.38-.19h0l-54.34,26c-.19.06-.25.19-.12.38ZM118.74,45l-18,62.12a.25.25,0,0,0,.16.31h.22l53.7-25.65a.3.3,0,0,0,.13-.38.06.06,0,0,0-.06-.06L119.18,44.82a.25.25,0,0,0-.35,0l0,0C118.8,44.89,118.74,44.89,118.74,45ZM156,81.8l14,38.38a.36.36,0,0,0,.32.19l84.41-17.73c.13-.07.25-.19.19-.32a.29.29,0,0,0-.13-.19L181.24,49.82c-.13-.06-.32-.06-.38.07L156,81.68l.07.12Zm126.08,82.26-14.75-2.59c-.13,0-.32.06-.32.19s0,.19.07.25L278.83,173c.12.13.31.13.37,0a.19.19,0,0,0,.07-.12l3-8.49c.07-.13,0-.25-.19-.32Zm2.92-21.4-18.49,17.67a.24.24,0,0,0-.06.32l.06.06c.06.06.06.06.12.06l15.64,2.79a.36.36,0,0,0,.32-.19l4.62-13.17V150l-1.77-7.29c-.06-.12-.19-.25-.32-.19a.13.13,0,0,1-.12.14ZM200.11,24.56,181.75,48.75a.28.28,0,0,0,.06.38c.06,0,.06.06.13.06l79.66,10c.13,0,.32-.07.32-.26a.34.34,0,0,0-.13-.25l-61.3-34.2C200.3,24.43,200.17,24.43,200.11,24.56Zm87.45,126.27-4.43,12.54a.28.28,0,0,0,.17.37h.08c22.8,4.05,33.19,5.82,37.49,6.52.13,0,.32-.06.32-.25a.48.48,0,0,0-.13-.32L288,150.64a.5.5,0,0,0-.45.19Zm38.95-.44-37,.06a.27.27,0,0,0-.26.25.33.33,0,0,0,.13.26l34.13,19.69c.07,0,.13.06.19.06,1.59-.25,11.21-2.34,14-2.91a.25.25,0,0,0,.2-.29v0c0-.06,0-.06-.07-.06L326.7,150.51C326.7,150.39,326.57,150.39,326.51,150.39Zm-2.53,21,2,6.78a.36.36,0,0,0,.32.19l49.26-8.3a.27.27,0,0,0,.26-.25c0-2.28-.19-4.75-.51-5.13h0c-.76.19-5.89,2.09-9.25,3.35H338.67l-.13.13-.06-.13c-1.52.32-11.53,2.47-14.25,3-.19.13-.32.25-.25.38Zm26.72-14.82-11,10.51c-.13.13-.13.32,0,.38a.23.23,0,0,0,.19.07H366c.89-.32,5.32-2,7.79-2.85a.39.39,0,0,0,.19-.38c0-.07-.06-.13-.19-.19L351,156.46a.48.48,0,0,0-.32.13Zm25.14,8.23a22.72,22.72,0,0,1,.44,5.07c0,.13.07.19.19.25L379,171.2c.12.06.19,0,.31-.06L390.53,161a.24.24,0,0,0,.06-.32l-.06-.06c-.06-.06-.19-.12-.25-.06l-14.19,4a.23.23,0,0,0-.25.21v0Z"/><polygon class="cls-2" points="169.84 166.22 169.72 119.99 201.95 160.26 201.57 160.58 201.57 160.58 170.22 121.45 170.35 166.22 169.84 166.22"/><path class="cls-4" d="M36.67,95.48c-1.2,18.75-4.18,36.29-8.42,49.33-2.47,7.6-7.54,20.27-14.12,19.89S4.06,151.08,2.6,143.23C.07,129.74-.63,112,.57,93.2S4.75,56.92,9,43.87c2.47-7.6,7.53-20.26,14.12-19.88S33.19,37.67,34.64,45.52C37.11,59,37.87,76.74,36.67,95.48ZM1,93.2c-1.21,18.75-.45,36.48,2,50,2.47,13.17,6.53,21,11.09,21.21s9.56-6.84,13.67-19.63C32,131.7,35,114.23,36.16,95.48s.45-36.47-2-50c-2.47-13.24-6.53-21-11-21.22s-9.6,7-13.72,19.68C5.2,57,2.22,74.46,1,93.2Z"/></svg>