<svg id="Layer_1" data-name="Layer 1" xmlns="http://www.w3.org/2000/svg" viewBox="0 0 478.45 183.7"><defs><style>.cls-1{fill:#f8ca10;}.cls-2{fill:#fff;}.cls-2,.cls-4{stroke:#fff;}.cls-2,.cls-3,.cls-4{stroke-miterlimit:10;}.cls-3{stroke:#000;}.cls-4{fill:none;}</style></defs><title>icon-white-right-hand</title><ellipse class="cls-1" cx="456.49" cy="96.17" rx="19.05" ry="70.4" transform="matrix(1, -0.07, 0.07, 1, -5.6, 32.11)"/><path class="cls-1" d="M33.43,59.32c-8.42,1.65-17.6,1.9-25-2.4l.19-.19a13,13,0,0,0-1.46-1.21l.38-.12h0c4.5-.57,46.8-.95,48.19-.95C48.18,55.33,40.9,57.8,33.43,59.32Z"/><path class="cls-1" d="M27.22,126.57s3.23,4.56,3.74,6.21c-.13.38-.19.57-.06.57-5.26,1.39-10.71,2.79-16.09,2.09a21.75,21.75,0,0,1-2.78-.57h0Z"/><path class="cls-1" d="M48.12,121.26l24.95.5C58.89,125.12,45,129.55,30.9,133.35l.06-.06Z"/><path class="cls-1" d="M146.59,71.8a7.08,7.08,0,0,0,2.34-3.42,8,8,0,0,0-2.21-7.54,17.37,17.37,0,0,0-7-4.05q-2.88-.93-5.83-1.58c1,.12,30.21,3.48,35.15,3.35C165.15,60.21,146.59,71.86,146.59,71.8Z"/><path class="cls-1" d="M60.85,150.89l13.49,5.45,11.4,3.48c-5.26,2.34-11.09,2.47-16.85,2.91-6.84.51-13.87,1-20.45-.82h0l12.66-4.56Z"/><path class="cls-1" d="M215.05,12.78l14-1c8.61-.64,17.42-1.21,25.65,1.26a86.49,86.49,0,0,1,9.18,3.8l12.29,5.7L278,24.18,194.85,14.11C201.56,13.73,208.33,13.29,215.05,12.78Z"/><path class="cls-1" d="M125.06,148.61l10-7L127.4,156.4,85.8,160l24.25-17Z"/><path class="cls-1" d="M98.65,172.49a34,34,0,0,1-10.89-6.91c-1.58-1.52-3-3.8-2-5.7l13.11,11.91Z"/><path class="cls-1" d="M140,107.2c-6.53,1.9-13,4.18-19.63,5.82-10.71,2.66-21.73,3.68-32.62,5.58-4.94.88-9.81,1.9-14.69,3.1,0,0,27.23-11.65,27.93-12.41l45.09-3.3A46.71,46.71,0,0,0,140,107.2Z"/><path class="cls-1" d="M152.29,178.88c-.82.06-1.58.13-2.41.13-8.61.31-17.16-.57-25.77-1.39s-17.67-1.9-25.52-5.13l.32-.7,3.16-1.33Z"/><path class="cls-1" d="M195.8,122l-2.6,13.81L127.4,156.4l7.67-14.82C135.76,141.08,195.73,122,195.8,122Z"/><polygon class="cls-1" points="151.41 150.32 127.4 156.34 193.14 135.69 195.73 121.95 217.01 121.89 222.14 142.79 192.69 142.09 157.61 148.74 151.41 150.32"/><path class="cls-1" d="M195.42,164.06l3.42,9.82q-10.08.66-20.14,1.9c-8.8,1.08-17.54,2.6-26.41,3.1l2.28-7.79C155.27,171.16,178.57,167.1,195.42,164.06Z"/><path class="cls-1" d="M251.65,172.61c-17.61.19-35.21.19-52.75,1.33l13.61-12.85,9.63-18.3Z"/><path class="cls-1" d="M276.35,160.64h0c.82-.57,31.66,5.83,31.66,5.83-3.74,1.08-7.54,2.09-11.34,2.85-13,2.66-26.28,3-39.58,3.23l-5.44.06S276.41,161.4,276.35,160.64Z"/><polygon class="cls-1" points="350.37 146.27 308.07 166.41 308.2 120.94 350.37 146.27"/><path class="cls-1" d="M350.37,146.27l21.47,15.39C361.77,156,348,157,336.31,159c-9.56,1.64-18.87,4.75-28.24,7.41Z"/><path class="cls-2" d="M377.35,164.63l-.44.45-.19-.19a24.74,24.74,0,0,0-4.44-3.17c-10.64-5.95-25.26-4.37-35.33-2.6a203.14,203.14,0,0,0-21.34,5.39c-2.28.69-4.63,1.39-6.91,2-4.43,1.27-8,2.16-11.39,2.85-13,2.73-26.16,3.11-39.65,3.3l-5.44.06-7.47.06c-14.89.13-30.21.32-45.28,1.27-7.16.51-13.74,1.08-20.14,1.9-2.53.32-5.13.7-7.6,1-6.14.89-12.54,1.77-18.87,2.09-.82.06-1.58.13-2.41.13a204.5,204.5,0,0,1-25.71-1.39h-.12c-9.06-.89-17.8-2-25.59-5.13a34.47,34.47,0,0,1-11-7c-.76-.7-3-3.1-2.28-5.38-4.5,1.9-9.44,2.21-14.25,2.53l-2.09.13c-6.46.44-13.8,1-20.58-.83a17.19,17.19,0,0,1-2-.63c-2.73-.95-6.27-2.79-7.54-6.21-1-2.72-.38-6.14,1.78-9.3.25-.32.5-.7.82-1.08,4.11-5.19,10.45-7.6,15-8.68a80.38,80.38,0,0,1,13.29-1.77c1.78-.19,3.68-.32,5.45-.51a146.54,146.54,0,0,0,14.88-2.47l.13.51a148.36,148.36,0,0,1-15,2.47c-1.77.19-3.67.38-5.44.51A84.31,84.31,0,0,0,57,136.65c-4.49,1.07-10.76,3.42-14.75,8.48-.32.38-.57.76-.82,1.08-2,3-2.66,6.27-1.71,8.86,1.14,3.23,4.55,5,7.21,6l1.9.57c6.65,1.83,13.94,1.33,20.4.82l2.08-.13c4.94-.31,10.07-.69,14.7-2.72l.69-.32-.38.64c-1.26,2.09,1.14,4.62,1.9,5.38a35.25,35.25,0,0,0,10.83,6.84c7.73,3.17,16.47,4.18,25.46,5.07h.12c8.43.82,17.1,1.64,25.65,1.39.82-.07,1.58-.07,2.41-.13,6.27-.38,12.66-1.26,18.81-2.09,2.47-.31,5.06-.69,7.59-1,6.4-.82,13-1.46,20.21-1.9,15-1,30.39-1.14,45.27-1.27l7.48-.06,5.44-.06c13.43-.19,26.6-.57,39.52-3.23,3.35-.7,6.9-1.59,11.33-2.85,2.28-.7,4.62-1.4,6.9-2a197.15,197.15,0,0,1,21.41-5.38c10.13-1.78,24.88-3.42,35.65,2.66a25.17,25.17,0,0,1,4.31,3l.19-.19H377c8.36-2.92,20.52-10.33,30.52-29.13A103.07,103.07,0,0,0,418.7,75.34C417.37,63.82,413.51,56,407.24,52c-4.81.82-9.25-.63-13-2.15-1.33-.51-2.6-1.08-3.87-1.65a47,47,0,0,0-11.39-4,48,48,0,0,0-9.44-.19c-.82.07-1.58.13-2.41.13a77.29,77.29,0,0,1-8.61-.06A137,137,0,0,1,332.83,40l.13-.51a134.05,134.05,0,0,0,25.65,4.18c2.84.13,5.76.19,8.54.06.83-.06,1.59-.06,2.41-.12a43.67,43.67,0,0,1,9.56.19c4.06.63,7.85,2.34,11.53,4,1.2.57,2.53,1.14,3.8,1.65,3.92,1.58,8.1,2.91,12.85,2.09h.07l.06.06c6.46,4,10.38,12,11.78,23.75a102.74,102.74,0,0,1-11.27,60,76.85,76.85,0,0,1-9.63,14.25A51.21,51.21,0,0,1,377.35,164.63Z"/><path class="cls-2" d="M324.35,37.6l-5.77-1.77c-4.3-1.33-8.61-2.79-12.79-4.18-7.47-2.47-15.2-5-22.92-7.16a8.41,8.41,0,0,0-4.31-.19h-.12l-1.9-1.71-7.6-3.54-4.69-2.15a77.43,77.43,0,0,0-9.18-3.8c-8.3-2.54-17.42-1.84-25.52-1.27l-14,1c-7.47.57-14.06,1-20.2,1.33v-.5c6.14-.38,12.73-.76,20.2-1.33l14-1c8.1-.63,17.29-1.26,25.71,1.27a79,79,0,0,1,9.24,3.8l4.69,2.15,7.6,3.55h0l1.77,1.58a9.62,9.62,0,0,1,4.43.25c7.73,2.09,15.46,4.69,22.93,7.16,4.18,1.39,8.55,2.85,12.79,4.18L324.47,37c2.85.89,5.7,1.65,8.43,2.35l-.13.5C330,39.19,327.2,38.36,324.35,37.6Z"/><path class="cls-2" d="M149.82,15.38h-.06l-.7-.64-37.3-9a11.14,11.14,0,0,0-4.76-.5,4,4,0,0,0-3.36,2.85,7.05,7.05,0,0,0,.07,2c.12,1.07.31,2.21-.38,3.1a2.65,2.65,0,0,1-1.4.89,7.43,7.43,0,0,1-2.66.12H99c-4.36-.31-8.67,1.14-12.79,2.6-1.45.51-3,1-4.49,1.46A106,106,0,0,1,70,20.57L52,23.42l-23.94,3.8A45.77,45.77,0,0,0,16.59,30a41.52,41.52,0,0,0-8.87,5.58c-.51.38-1,.82-1.46,1.2l-.06.06C3.67,38.93.88,41.4.5,44.63a8.71,8.71,0,0,0,2.6,6.84,22.9,22.9,0,0,0,3.42,2.79c.44.31.82.63,1.26,1l1.46,1.2.19.19-.13.13C15.51,60.26,23.55,61,33.87,59c3-.63,6-1.39,8.87-2.09a122.88,122.88,0,0,1,13.42-2.78l.07.5a121.05,121.05,0,0,0-13.3,2.85c-2.85.76-5.89,1.52-8.87,2.09-10.57,2-18.8,1.21-25.2-2.47L8.61,57l.19-.26c-.38-.31-.76-.63-1.27-1s-.82-.57-1.27-.89A21.65,21.65,0,0,1,2.78,52,9.06,9.06,0,0,1,.06,44.7c.44-3.42,3.29-6,5.89-8.11l0-.06a11.3,11.3,0,0,1,1.46-1.21,38.75,38.75,0,0,1,9-5.63,50.23,50.23,0,0,1,11.65-2.85L52.05,23l18-2.85a91.49,91.49,0,0,0,11.59-2.34c1.52-.45,3-1,4.5-1.46,4.18-1.46,8.55-3,13-2.66h.19a8.58,8.58,0,0,0,2.53-.13,1.78,1.78,0,0,0,1.08-.69,3.6,3.6,0,0,0,.31-2.73,8.54,8.54,0,0,1-.1-2.14,4.37,4.37,0,0,1,3.74-3.29,11.93,11.93,0,0,1,5,.5l37.36,9h.06l.64.57c13.55.19,28.37-.19,45.34-1.14v.5C178.32,15.12,163.44,15.5,149.82,15.38Z"/><path class="cls-2" d="M124.17,53.56l-6-.82-14.12-2a60.42,60.42,0,0,0-10-.85,42.29,42.29,0,0,0-8,1c-1.59.31-3.17.63-4.75,1A79.33,79.33,0,0,1,71,53.73c-2.15.19-4.37.25-6.46.25-1.77.06-3.67.06-5.45.19a11.88,11.88,0,0,0-1.58.13l-.06-.51A13.77,13.77,0,0,1,59,53.62c1.84-.12,3.67-.19,5.45-.19,2.09,0,4.3-.06,6.39-.25A79.55,79.55,0,0,0,81,51.34c1.58-.31,3.23-.69,4.81-1a49,49,0,0,1,8.11-1,68.27,68.27,0,0,1,10.19.89l14.12,2,6,.82c3.8.57,7,1,10.2,1.71l-.13.51C131.08,54.57,127.91,54.07,124.17,53.56Z"/><path class="cls-2" d="M146.66,106a39.51,39.51,0,0,0-6,1.27c-2.47.7-4.94,1.46-7.35,2.22-4,1.2-8.17,2.53-12.34,3.54-7,1.71-14.19,2.79-21.16,3.8-3.79.51-7.72,1.14-11.52,1.78-4.56.82-9.37,1.83-14.69,3.1-9.06,2.15-18.24,4.81-27,7.34-5,1.45-10.13,2.95-15.2,4.3-5.7,1.52-10.83,2.79-16.14,2.09a22.26,22.26,0,0,1-2.79-.57c-4.88-1.46-8.61-4.69-9.94-8.68a12.1,12.1,0,0,1,0-7.34,17.78,17.78,0,0,1,5.76-8.49,26.39,26.39,0,0,1,6.84-4,76.85,76.85,0,0,1,9.24-3.17L29,101.75l4.43-1.27,8.36-2.4,8.36-2.47L81.3,86.43c7-2.09,14.25-4.18,21.53-5.77a113.55,113.55,0,0,1,14.44-2.28h.57a127.56,127.56,0,0,0,21.72-3.73c3.36-.76,5.7-1.77,7.35-3.17a6.66,6.66,0,0,0,2.22-3.29A7.8,7.8,0,0,0,147,60.91a16.73,16.73,0,0,0-6.9-4,59.1,59.1,0,0,0-5.83-1.59l.13-.5a57.1,57.1,0,0,1,5.89,1.64,17,17,0,0,1,7.09,4.12,8.48,8.48,0,0,1,2.28,7.79,7.3,7.3,0,0,1-2.4,3.55,18.36,18.36,0,0,1-7.54,3.29c-7.28,1.71-14.5,3.29-21.78,3.73h-.57A114.59,114.59,0,0,0,103,81.23C95.78,82.82,88.5,84.91,81.47,87L50.31,96,42,98.47,33.56,101l-4.44,1.27-4.62,1.39a78,78,0,0,0-9.18,3.1,28,28,0,0,0-6.71,4A17.67,17.67,0,0,0,3,119a12.4,12.4,0,0,0,0,7.09c1.33,3.86,4.88,7,9.63,8.36a20.85,20.85,0,0,0,2.72.57c5.19.63,10.26-.57,16-2.09,5.07-1.4,10.2-2.85,15.13-4.31,8.81-2.53,18-5.19,27-7.34,5.32-1.27,10.14-2.28,14.7-3.11,3.8-.63,7.72-1.2,11.52-1.77,7-1,14.12-2.09,21.09-3.8,4.11-1,8.29-2.28,12.28-3.55,2.41-.76,4.88-1.52,7.35-2.21a38.18,38.18,0,0,1,6.08-1.27,16.4,16.4,0,0,1,1.71-.13V106C147.67,105.93,147.1,106,146.66,106Z"/><path class="cls-3" d="M148.24,106v-.5h1.64l-.06.5A7,7,0,0,0,148.24,106Z"/><path class="cls-2" d="M155.52,114.23a13.51,13.51,0,0,1-4.94,2.09l-35.33,9.31-.13-.51,35.21-9.31a12.12,12.12,0,0,0,4.75-2,3.93,3.93,0,0,0,1.45-4.43,4.34,4.34,0,0,0-1.71-1.84,10.82,10.82,0,0,0-5-1.58l.06-.51a11.07,11.07,0,0,1,5.26,1.71,5,5,0,0,1,1.9,2.09,4.29,4.29,0,0,1-.95,4.37A4.68,4.68,0,0,1,155.52,114.23Z"/><path class="cls-2" d="M350.75,146.33l-42.24,20.14h-.06c-12-2.53-30.2-6.08-31.41-5.89-.25.38-2,1.46-12.41,6.33-6.08,2.85-12.28,5.7-12.35,5.7l-.19.07-29.7-29.83-.12-.13,8.1-21-8-18.81-11.9-7.72,13.17-9.06L214.16,60l-19.44-9.63,14-15.45-6-15.07-8.11-6.08.7-.06L278.5,23.8l54.4,15.58,74.59,12.15,10,57.5v.13L376.9,164.82l-.13.19Zm56.3-94.42L332.77,39.82l-54.4-15.58-82.26-10,7,5.19,6.2,15.51-13.74,15.2,19.06,9.37,9.69,26.66L211.44,95l11.33,7.34.07.07,8.1,19.12-8,20.9L252.22,172c9.5-4.24,23.56-10.83,24.44-11.71v-.13l.19-.06h0c1.71-.32,22.55,3.92,31.66,5.82l42.24-20.07.13-.06,25.84,18.49L417,109Z"/><path class="cls-2" d="M55.72,54.45c-10.2.06-43.76.44-47.75.95l-.06-.51c4.05-.51,37.61-.89,47.81-1h.44l.07.51Z"/><path class="cls-2" d="M29.06,48.62,8,55.4l-.13-.51,20.9-6.71-2.22-18.3L50,39.5,30,48.24l26.34,5.7-.13.51Zm.19-.57,19.44-8.48L27.16,30.7Z"/><path class="cls-2" d="M150.83,24.05c-.19.13-.25.13-4.3-2.41-3.42-2.15-9.69-6.07-10.64-6-.25.32-1.46.63-17.35-.51-7.28-.5-14.63-1.14-16.34-1.26L107,29.5v.12l-12.79,20-.06.13L57.49,54.19,56,54.38,49.2,39.69l-.13-.19-.51-10.38,3-5.64L8,35.77,7.85,54.83h.06l.13.5-.7.26v-.32l.19-19.63v-.19l45-12.73-3.48,6.59.51,10.13,6.77,14.5,37.49-4.5,12.6-19.69L101.5,13.54h.38c12.86,1.08,32.36,2.53,33.63,2,0-.06.13-.12.19-.12.82-.26,4.37,1.83,11.08,6,1.9,1.14,3.67,2.28,3.93,2.34V24H151v.19Z"/><path class="cls-2" d="M182.81,106.18c.13,0,.26.07.13.13a.28.28,0,0,1-.25.25l-27.49,7.6-.12-.5,25.71-7.16-31.1-.7h-2.15l12.22-13.48.07-.07L156,77.69l-9.5-6.21.32-.19c.69-.44,16.21-10.13,21.46-12.79-6.28-.19-27.2-2.5-33.78-3.29h-1l19.06-15.07c-.69-5.51-2.09-15.84-2.15-16.15l.51-.13c.12.32,2,14.69,2.21,16.34v.13L134.88,54.76c7.47.83,30.08,3.36,34.51,3.3.51-.19.7-.19.82-.13a.21.21,0,0,1,.19.19v.13l-.06.12c-.06.13-.25.19-.82.19-3.68,1.59-19.51,11.47-22,13l9,5.89,3.93,15-11.72,12.91,34.07.76Z"/><path class="cls-2" d="M160,92.38h0c1.08-1.33,50.47,2.53,51.11,2.53l-.07.51c-4.11-.32-48.06-3.61-50.53-2.79a.53.53,0,0,1-.25.26c-2.79,1.52-44.9,7-47.56,7.34l-11,9.12-.13.13-8.23-4.12-.12-.06H93l-30,7.79-.12.06-.13.06L56,118.6l-7.15,2.72h0l-.32.13h0L35.27,124.8a80.67,80.67,0,0,0-3.61,7.85,1.16,1.16,0,0,1,0,.64c-.07.12-.13.19-.26.19h-.12l-.13-.13c-.13-.19-.13-.38,0-.76a41.3,41.3,0,0,0-3.61-5.89L12.41,135,2.59,119l-.13-.19.13-.13c12.35-12.35,12.48-12.41,12.54-12.41s.32-.13,12.66,12.47l5.45-18c0-.07.06-.13.13-.19a.3.3,0,0,1,.38.12l7,12.86,7.66,6.9C49.64,95.67,50,95.61,50.15,95.55s.5-.13,12.66,16.78L81.37,86.17,93,104.35l10-23.62,9.69,18.81L147,71.42l.32.38L113.35,99.6c6.27-.82,44.07-5.83,46.6-7.22H160ZM93.4,104.85l8,4,10.83-8.93L102.9,81.55Zm-30.08,7.54,29.32-7.6L81.3,87.19Zm-13-16c-.31,2.34-1.07,15.39-1.52,24.38l6.91-2.6,6.77-5.38C58.18,106.71,51.84,98,50.32,96.39Zm-9.75,17.79c-.57,1.21-2.85,5.7-5.06,10L47.93,121l-7.47-6.77ZM28,126.66A46.54,46.54,0,0,1,31.28,132c.5-1.33,1.58-3.68,3.23-7Zm.13-7.28v.12a55.73,55.73,0,0,0-.19,6.59l7-1.77c2-4.12,4.24-8.49,5.06-10.07-4.64,1.81-11.48,4.66-11.92,5.11Zm.19-.7c2-1.08,7.91-3.48,11.84-5.07l-6.59-12.16Zm-.7.7C23,114.69,16.32,107.91,15.18,107,14,108,6.2,115.81,3,119l9.56,15.32,14.69-8-.06-.06.19-.07c0-1.32,0-5.76.19-6.83Z"/><path class="cls-2" d="M210.74,95.29,170,58.37c0-.06-.06-.06-.06-.12a.34.34,0,0,1,.19-.32l23.24-7.41c.12-.06.19-.13.19-.19a.36.36,0,0,0-.19-.32L152.9,40.45,106.8,29.94h-.13L49.45,39.88l-1,.19-.06-.5L106.7,29.43h.06L153,40l42.24,10c.12.07.19.13.19.19a.36.36,0,0,1-.19.32L171.1,58.25a.31.31,0,0,0-.13.06.19.19,0,0,0-.06.26.17.17,0,0,0,.06.06L211.12,95Z"/><path class="cls-2" d="M101.57,109.41c-1.84,1.21-25.21,11.28-27.93,12.42h-.06l-24.95-.51-17.1,12-.06.06-.26-.44L48.5,120.75l25,.51c10.83-4.63,27.17-11.72,27.8-12.35l.07-.07,45.15-3.29,1.71-.13v.51Z"/><path class="cls-2" d="M196.24,122c-20.58,6.58-59.65,19.06-60.6,19.56-.7.51-9.88,7-10,7l-.13.07-15-5.64L81.3,149.5l-6.39,7-13.3-5.38.19,6.2-13,4.75-7-17.35,14.06-3.86,5.57,9.56,29-19,.07-.06h.06c5.63-1.21,11.33-2.73,16.84-4.18l2.35-.64,5.44-1.45.13.51-5.46,1.4-2.34.63c-5.45,1.46-11.15,3-16.78,4.18L61.93,150.7l12.91,5.19,6.27-6.9,29.39-6.52h.06l14.88,5.64c1.14-.76,9.25-6.53,9.94-7s54.59-17.67,60.73-19.63l34.51-.13v.51ZM55.53,141.46l-13.11,3.61L49,161.4,61.29,157l-.19-6.14Z"/><path class="cls-2" d="M193.2,142.15l-35,6.72L128,156.46l-.63.19.06-.12L86.31,160h-.26l-11.27-3.42.13-.51,10.83,3.29L80.86,149.3l9.5-17.74.44.26L81.43,149.3l4.81,10.13,23.94-16.72,4.56-16.84c.06-.07.06-.13.13-.19a.58.58,0,0,1,.76-.07l19.94,15.71.19.12-7.47,14.44,65-20.45,2.53-13.49-13.68-15.58L210.76,95h.32l11.72,47.62.06.32Zm-10-35.71,13.3,15.07.07.13-2.66,14L136.33,153.8l21.79-5.5,35-6.65,29.19.69L210.8,95.48Zm-67.82,19.38-4.62,17.09L87.19,159.38,127.72,156l7.47-14.5Z"/><path class="cls-2" d="M376.46,164.57l29.26-108h0c0-.19,0-.38-.19-.38a.37.37,0,0,0-.38.19l-26.53,51.86-.19.32h0L351,146.27a.29.29,0,0,1-.38.06L308.7,121.07h-.19L222.9,142.79a.35.35,0,0,0-.19.12l-9.37,17.92.06.07-.19.12-.06.07h0L199.28,174.2l-.19-.19-3.36-9.5a.34.34,0,0,0-.31-.19c-32.36,5.7-38.7,6.71-40.09,6.9-.13,0-.19.06-.25.19l-2.16,7.41v.06l-.12.13-50.22-8.42h-.13l-3,1.26a.26.26,0,0,1-.31-.06L86.05,160a.59.59,0,0,1-.06-.32.25.25,0,0,1,.29-.2h0l16.78,4.69h.19L127.66,156l.12-.07,11.91,11.34h.06a.25.25,0,0,0,.34,0,.21.21,0,0,0,0-.06L151.53,150a.41.41,0,0,1,.25-.13l38.82.06c.13,0,.26-.06.26-.19l2-7.85c0-.06,0-.06.06-.13a.25.25,0,0,1,.34,0l0,0,19.32,18.49s0,.06,0,.07h0a.3.3,0,0,0,.38-.13l9.25-17.67.06-.12,84-21.34a.21.21,0,0,0,.19-.19c.06-.13-.06-.26-.19-.32L222.52,103a.35.35,0,0,1-.19-.12c-.06-.13-.06-.32.06-.38l73.27-52.06c.13-.06.13-.12.13-.25s-.19-.25-.32-.25L214.41,60a.26.26,0,0,1-.25-.13.31.31,0,0,1,.13-.38l64-35.71.19-.13L297.6,48.92l.19.19.13.12.06.13L322.7,81h0a.24.24,0,0,0,.32.06l.06-.06,36.48-37.23.31.38,18.3,62.63c0,.12.07.12.13.19a.3.3,0,0,0,.38-.13l28.18-55h0a.27.27,0,0,1,.32-.21l.06,0a.28.28,0,0,1,.2.34.06.06,0,0,1,0,0L377,164.7Zm1.33-56c.13-.19.07-.32-.12-.38l-54.34-26h0a.32.32,0,0,0-.38.19L309,120.43a.23.23,0,0,0,.1.31h0l41.35,24.89c.13.06.32.06.38-.07l26.91-37Zm-18-63.71a.25.25,0,0,0-.35,0l0,0L323.71,81.3a.06.06,0,0,0-.06.06.3.3,0,0,0,.13.38l53.7,25.65h.19a.25.25,0,0,0,.2-.29v0L359.87,45c0-.11-.06-.11-.06-.18Zm-37.24,37,.07-.12L297.75,49.89c-.06-.13-.25-.13-.38-.07l-73.58,52.31a.29.29,0,0,0-.13.19c-.06.13.06.25.19.32l84.41,17.73a.36.36,0,0,0,.32-.19L322.64,81.8Zm-126,82.26c-.19.07-.26.19-.19.32l3,8.49a.19.19,0,0,0,.07.12c.06.13.25.13.38,0L211.58,162c.07-.06.07-.13.07-.25s-.19-.19-.32-.19l-14.75,2.59Zm-3-21.53c-.13-.06-.26.07-.32.19l-1.8,7.22v.19l4.62,13.17a.36.36,0,0,0,.32.19L212,160.77c.06,0,.06,0,.12-.06a.24.24,0,0,0,.06-.32l-.06-.06-18.49-17.67a.14.14,0,0,1-.11-.13Zm84.6-118-61.3,34.2a.34.34,0,0,0-.13.25c0,.19.19.26.32.26l79.66-10c.07,0,.07-.06.13-.06a.28.28,0,0,0,.06-.38L278.5,24.56c-.06-.13-.19-.13-.38-.07Zm-87.1,126.24a.5.5,0,0,0-.45-.19l-33,19.06a.48.48,0,0,0-.13.32c0,.19.19.25.32.25,4.3-.7,14.69-2.47,37.49-6.52h.06a.3.3,0,0,0,.2-.36v0l-4.43-12.54Zm-39.14-.32-11.14,16.91c-.07,0-.07,0-.07.06a.25.25,0,0,0,.16.31h0c2.79.57,12.41,2.66,14,2.91.06,0,.12-.06.19-.06L189.21,151a.33.33,0,0,0,.13-.26.27.27,0,0,0-.26-.25l-37-.06C152,150.39,151.91,150.39,151.91,150.51Zm2.72,20.9h0c.07-.13-.06-.25-.25-.38-2.72-.51-12.73-2.66-14.25-3l-.06.13-.13-.13H112.59c-3.36-1.26-8.49-3.16-9.25-3.35h0c-.32.38-.51,2.85-.51,5.13a.27.27,0,0,0,.26.25l49.26,8.3a.36.36,0,0,0,.32-.19l2-6.78Zm-26.72-14.82a.48.48,0,0,0-.32-.13l-22.73,7.67c-.13.06-.19.12-.19.19a.39.39,0,0,0,.19.38c2.47.82,6.9,2.53,7.79,2.85h26.09a.23.23,0,0,0,.19-.07c.13-.06.13-.25,0-.38l-11-10.51Zm-25.14,8.23a.23.23,0,0,0-.21-.25h0l-14.19-4c-.06-.06-.19,0-.25.06A.24.24,0,0,0,88,161l.06.06,11.21,10.14c.12.06.19.12.31.06l2.54-1.08c.12-.06.19-.12.19-.25a22.72,22.72,0,0,1,.44-5.07Z"/><polygon class="cls-2" points="308.26 166.22 308.39 121.45 277.04 160.58 277.04 160.58 276.66 160.26 308.89 119.99 308.77 166.22 308.26 166.22"/><path class="cls-4" d="M444,45.52c1.45-7.85,4.94-21.15,11.52-21.53s11.65,12.28,14.12,19.88c4.25,13.05,7.22,30.52,8.43,49.33s.5,36.54-2,50c-1.46,7.85-4.94,21.09-11.52,21.47s-11.66-12.29-14.13-19.89c-4.24-13-7.22-30.58-8.42-49.33S441.5,59,444,45.52ZM477.59,93.2c-1.2-18.74-4.18-36.22-8.42-49.26C465.05,31.21,460,24.05,455.49,24.3s-8.55,8-11,21.22c-2.47,13.49-3.23,31.22-2,50s4.18,36.22,8.36,49.27c4.11,12.79,9.12,19.88,13.68,19.63s8.61-8,11.08-21.21c2.47-13.49,3.23-31.22,2-50Z"/></svg>