<svg id="Layer_1_copy" data-name="Layer 1 copy" xmlns="http://www.w3.org/2000/svg" viewBox="0 0 817.01 513.03"><defs><style>.cls-1{fill:#f8ca10;}</style></defs><polygon class="cls-1" points="265.75 250.12 329.5 191.91 295.91 269.47 265.75 250.12"/><polygon class="cls-1" points="75.32 92.19 82.94 193.17 265.95 249.45 75.32 92.19"/><polygon class="cls-1" points="453.93 257.52 410.63 106.97 518.86 123.17 453.93 257.52"/><polygon class="cls-1" points="453.93 257.52 298.4 268.78 399.36 289.83 453.93 257.52"/><polygon class="cls-1" points="453.93 257.52 396.62 289.83 455.29 462.69 500.23 340.17 453.93 257.52"/><polygon class="cls-1" points="530.5 179.25 500.45 340.84 665.81 287.34 530.5 179.25"/><path d="M195.28,129.26l-122.11-37L248.8,24l.25.65.63.32ZM77.46,92.11l117.12,35.47L247.58,26Z"/><path d="M193.66,129.34l54.78-105,.62.32.58-.38,54.95,86.85ZM249.12,26.07,196.2,127.5l106.08-17.41Z"/><path d="M301.7,111.37,408.07,3.56l.49.49h.71l2.07,103.61ZM407.9,5.72,305.17,109.85l104.75-3.56Z"/><path d="M520.73,124.16,409.94,107.57V107L407.87,4.06h.7l.51-.48Zm-109.42-17.8L517,122.18,409.3,5.88Z"/><polygon points="0 180.25 0 182.73 31.75 229.24 0 224.93 0 226.34 34.68 231.04 0 180.25"/><polygon points="0 118.34 0 123.16 31.22 225.97 0 180.25 0 182.73 32.63 230.53 33.88 229.93 0 118.34"/><path d="M31.92,232,74.61,92.13l0-.28,2-1.4L76,92.29l7.65,101.22Zm43-136L34.51,228.31l47.71-35.47Z"/><polygon points="0 41.11 0 42.8 74.5 92.49 33.22 227.74 0 118.34 0 123.16 33.21 232.54 76.15 91.9 0 41.11"/><path d="M265.75,250.12,82.29,193.7,74.59,91.85l.76-.53.42.33L266.4,248.91ZM83.61,192.64l179.17,55.1L76.14,93.77Z"/><path d="M265.51,250,74.88,92.74l.65-1.22,119.86,36.31L266.55,249.1ZM78.46,93.88,263.35,246.4,194.46,129Z"/><path d="M453.6,258.14,328.92,192.39l-26.16-81.56.42-.14.73-.59L454.41,257ZM330.07,191.42,450,254.65,305,113.07Z"/><path d="M455.33,259.88,301.76,110l109.39-3.71ZM305.09,111.25,452.53,255.18,410.11,107.69Z"/><path d="M454.42,258l-1.13-.8L519.15,121l11.47,58.89Zm64.16-132.65L456.43,254l72.68-74.54Z"/><path d="M453.76,259.48l-44.1-153.37,110.25,16.52ZM411.61,107.82l42.48,147.76,63.73-131.85Z"/><path d="M665.37,287.88,529.23,180,518.18,123.3l.72-.15.48-.44,147,164.15ZM530.5,179.25,659.83,281.71,520,125.54Z"/><path d="M666.27,288.9,517.58,122.79l1.11-.29L700.45,74.79ZM520.15,123.56l145.2,162.22L698.73,76.69Z"/><polygon points="33.99 229.93 34.13 229.42 33.5 229.44 32.85 228.78 32.67 229.46 0 230.29 0 231.68 32.3 230.87 6.61 327.54 0 319.41 0 321.63 7.26 330.55 33.76 230.83 34.86 230.79 33.99 229.93"/><polygon points="0 224.93 0 226.35 24.46 229.66 0 230.29 0 231.68 33.24 230.84 33.31 229.45 0 224.93"/><path d="M5.93,330.13,32.85,228.78l.86.86,78.35,64.64Zm27.68-98.76L8,328l101.27-34.22Z"/><path d="M111.9,296,32.09,230.12,83.35,192ZM34.36,230.17l75,61.9L82.54,194.35Z"/><path d="M296.37,269.82,264.8,249.54,329,191.39l1.11.8ZM267.1,249.36l28.64,18.4,31.82-73.16Z"/><path d="M396.73,290.57l-.26-.06-100.56-21,.1-1.39,157.86-11.24.31,1,.16.22-.16-.22.08.27Zm-95.62-21.44,95.4,20,54.35-30.64Z"/><path d="M502.16,342.45l-107-52.58,58.46-32.95.38.58.57-.31Zm-104-52.66,100.63,49.43-45.1-80.74Z"/><path d="M500.79,342.87l-47.74-85.45L531,177.51Zm-46-85.22,45.33,81.15,28.65-157Z"/><polygon points="500.57 341.52 500.23 340.17 665.6 286.67 666.02 288 509.63 338.61 615.87 320.98 616.1 322.37 500.57 341.52"/><path d="M499.56,341.86l29.82-163.49L667.27,287.61Zm30.78-160.94-29,158.88,163-52.72Z"/><polygon points="616.05 322.37 615.93 320.97 809.86 304.4 665.73 288.03 665.89 286.64 817.01 303.81 817 305.2 616.05 322.37"/><polygon points="0 319.41 0 321.63 6.19 329.25 0 362.58 0 370.25 7.68 328.85 0 319.41"/><polygon points="0 400.64 0 402.59 110.34 295.29 159.28 437.39 0 410.02 0 411.45 161.37 439.18 111.45 294.22 112.03 293.64 111.17 293.43 110.94 292.75 110.44 293.24 109.56 293.02 109.84 293.83 0 400.64"/><polygon points="0 370.25 7.55 329.58 107.94 295.67 0 400.64 0 402.59 111.14 294.51 110.42 293.36 6.33 328.51 0 362.58 0 370.25"/><path d="M224.85,406.44l71.06-138.92.8,1,44,115.41ZM296,270.5l-68.55,134,111.44-21.64Z"/><path d="M454.9,460.93,339.23,383.87,295.4,269l.65-.26.54-.45L455.83,459.9Zm-114.53-78L451.68,457.1,298.21,272.48Z"/><path d="M454.75,460.79,294.23,267.68l102.92,21.54.13.38L456,460.11ZM297.87,269.88,453.39,457l-57.3-166.52Z"/><path d="M527,469.39l-72.64-8.46,45.6-120.68L501,340l.15.72Zm-70.7-9.64,69,8-25-124.42Z"/><path d="M455.26,462.41l-59.86-174,105.93,52ZM397.83,291.2l57.49,167.08,44.25-117.1Z"/><polygon points="525.4 468.73 499.85 341.38 497.95 340.74 500.99 339.98 501.05 340.3 694.58 405.42 694.13 406.75 501.37 341.89 526.77 468.46 525.4 468.73"/><polygon points="694.13 406.75 500.23 341.5 500.34 340.14 615.87 320.98 616.1 322.37 503.33 341.06 694.58 405.42 694.13 406.75"/><polygon points="694.8 406.63 693.91 405.55 814.77 305.41 616.05 322.37 615.93 320.97 819.11 303.63 694.8 406.63"/><polygon points="344.09 506.08 339.13 384.25 226.26 406.17 225.99 404.79 340.47 382.56 345.49 506.01 344.09 506.08"/><path d="M344.13,507.07l-5.09-125,117.73,78.43Zm-3.57-122.32L345.45,505,453.81,460.2Z"/><path d="M252.38,24.66a3.32,3.32,0,1,1-3.32-3.33A3.32,3.32,0,0,1,252.38,24.66Z"/><path d="M198.66,128.43a3.74,3.74,0,1,1-3.73-3.75A3.73,3.73,0,0,1,198.66,128.43Z"/><path d="M79.39,92.19a4.08,4.08,0,1,1-4.07-4.08A4.08,4.08,0,0,1,79.39,92.19Z"/><path d="M198.66,128.43a3.73,3.73,0,1,1-3.73-3.74A3.73,3.73,0,0,1,198.66,128.43Z"/><path d="M306.05,110.61a2.63,2.63,0,1,1-2.62-2.63A2.62,2.62,0,0,1,306.05,110.61Z"/><path d="M412.39,4.05A3.83,3.83,0,1,1,408.57.22,3.83,3.83,0,0,1,412.39,4.05Z"/><path d="M308.09,110.61a4.66,4.66,0,1,1-4.66-4.67A4.67,4.67,0,0,1,308.09,110.61Z"/><path d="M412.19,4.05A3.63,3.63,0,1,1,408.56.42,3.63,3.63,0,0,1,412.19,4.05Z"/><path d="M416.46,107a5.83,5.83,0,1,1-5.83-5.84A5.83,5.83,0,0,1,416.46,107Z"/><path d="M524.11,123.17a5.25,5.25,0,1,1-5.25-5.27A5.25,5.25,0,0,1,524.11,123.17Z"/><path d="M523,123.17a4.13,4.13,0,1,1-4.13-4.13A4.14,4.14,0,0,1,523,123.17Z"/><path d="M35.47,230.14a2.26,2.26,0,1,1-2.26-2.27A2.26,2.26,0,0,1,35.47,230.14Z"/><path d="M35.71,230.14a2.5,2.5,0,1,1-2.5-2.5A2.5,2.5,0,0,1,35.71,230.14Z"/><ellipse cx="82.94" cy="193.17" rx="3.51" ry="3.52"/><path d="M37.38,230.14A4.17,4.17,0,1,1,33.21,226,4.18,4.18,0,0,1,37.38,230.14Z"/><path d="M79.07,92.19a3.75,3.75,0,1,1-3.75-3.75A3.76,3.76,0,0,1,79.07,92.19Z"/><path d="M37.7,230.14a4.49,4.49,0,1,1-4.49-4.5A4.5,4.5,0,0,1,37.7,230.14Z"/><path d="M78.64,92.19a3.32,3.32,0,1,1-3.32-3.33A3.32,3.32,0,0,1,78.64,92.19Z"/><ellipse cx="82.94" cy="193.17" rx="2.2" ry="2.21"/><path d="M269.77,249.45a3.82,3.82,0,1,1-3.82-3.83A3.83,3.83,0,0,1,269.77,249.45Z"/><path d="M198.26,128.43a3.33,3.33,0,1,1-3.33-3.34A3.34,3.34,0,0,1,198.26,128.43Z"/><path d="M199.25,128.43a4.32,4.32,0,1,1-4.32-4.33A4.33,4.33,0,0,1,199.25,128.43Z"/><path d="M272.22,249.45a6.27,6.27,0,1,1-6.27-6.28A6.28,6.28,0,0,1,272.22,249.45Z"/><path d="M333.72,191.91a4.23,4.23,0,1,1-4.22-4.24A4.23,4.23,0,0,1,333.72,191.91Z"/><path d="M414.16,107a3.54,3.54,0,1,1-3.53-3.55A3.54,3.54,0,0,1,414.16,107Z"/><path d="M413.79,107a3.16,3.16,0,1,1-3.16-3.17A3.17,3.17,0,0,1,413.79,107Z"/><path d="M525.27,123.17a6.41,6.41,0,1,1-6.41-6.42A6.41,6.41,0,0,1,525.27,123.17Z"/><path d="M533.58,179.65a3.72,3.72,0,1,1-3.72-3.73A3.72,3.72,0,0,1,533.58,179.65Z"/><path d="M525.71,123.17a6.85,6.85,0,1,1-6.85-6.85A6.86,6.86,0,0,1,525.71,123.17Z"/><path d="M415.68,107a5.05,5.05,0,1,1-5.05-5.06A5.07,5.07,0,0,1,415.68,107Z"/><path d="M458.39,257.53a4.47,4.47,0,1,1-4.47-4.48A4.47,4.47,0,0,1,458.39,257.53Z"/><path d="M522.82,123.17a4,4,0,1,1-4-4A4,4,0,0,1,522.82,123.17Z"/><path d="M669.64,287.34a3.83,3.83,0,1,1-3.83-3.84A3.85,3.85,0,0,1,669.64,287.34Z"/><path d="M522.05,123.17a3.19,3.19,0,1,1-3.19-3.19A3.19,3.19,0,0,1,522.05,123.17Z"/><path d="M521.68,123.17a2.82,2.82,0,1,1-2.82-2.82A2.82,2.82,0,0,1,521.68,123.17Z"/><path d="M534.75,179.65a4.89,4.89,0,1,1-4.89-4.9A4.89,4.89,0,0,1,534.75,179.65Z"/><path d="M670.41,287.34a4.6,4.6,0,1,1-4.6-4.62A4.62,4.62,0,0,1,670.41,287.34Z"/><path d="M668,287.34a2.19,2.19,0,1,1-2.19-2.2A2.2,2.2,0,0,1,668,287.34Z"/><path d="M523.51,123.17a4.65,4.65,0,1,1-4.65-4.66A4.66,4.66,0,0,1,523.51,123.17Z"/><path d="M703.36,75.74A3.77,3.77,0,1,1,699.59,72,3.78,3.78,0,0,1,703.36,75.74Z"/><path d="M704.89,75.74a5.3,5.3,0,1,1-5.3-5.32A5.3,5.3,0,0,1,704.89,75.74Z"/><path d="M669.77,287.34a4,4,0,1,1-4-4A4,4,0,0,1,669.77,287.34Z"/><path d="M671.27,287.34a5.46,5.46,0,1,1-5.46-5.48A5.45,5.45,0,0,1,671.27,287.34Z"/><path d="M670.28,287.34a4.47,4.47,0,1,1-4.47-4.49A4.47,4.47,0,0,1,670.28,287.34Z"/><path d="M670.36,287.34a4.55,4.55,0,1,1-4.55-4.58A4.56,4.56,0,0,1,670.36,287.34Z"/><ellipse cx="33.21" cy="230.14" rx="3.7" ry="3.7"/><path d="M38.06,230.14a4.84,4.84,0,1,1-4.84-4.84A4.85,4.85,0,0,1,38.06,230.14Z"/><path d="M10.59,329a3.65,3.65,0,1,1-3.65-3.65A3.67,3.67,0,0,1,10.59,329Z"/><path d="M89.18,193.17a6.24,6.24,0,1,1-6.24-6.25A6.25,6.25,0,0,1,89.18,193.17Z"/><path d="M86.81,193.17a3.87,3.87,0,1,1-3.87-3.88A3.88,3.88,0,0,1,86.81,193.17Z"/><path d="M332.5,191.91a3,3,0,1,1-3-3A3,3,0,0,1,332.5,191.91Z"/><path d="M299.39,268.79a3.34,3.34,0,1,1-3.33-3.35A3.33,3.33,0,0,1,299.39,268.79Z"/><path d="M400.33,289.83a3.72,3.72,0,1,1-3.72-3.73A3.72,3.72,0,0,1,400.33,289.83Z"/><path d="M400.18,289.83a3.57,3.57,0,1,1-3.57-3.58A3.57,3.57,0,0,1,400.18,289.83Z"/><path d="M503.26,340.83a2.81,2.81,0,1,1-2.81-2.81A2.81,2.81,0,0,1,503.26,340.83Z"/><path d="M532.58,179.65a2.72,2.72,0,1,1-2.72-2.74A2.72,2.72,0,0,1,532.58,179.65Z"/><path d="M536.65,179.65a6.79,6.79,0,1,1-6.79-6.81A6.79,6.79,0,0,1,536.65,179.65Z"/><path d="M504,340.83a3.53,3.53,0,1,1-3.53-3.53A3.53,3.53,0,0,1,504,340.83Z"/><path d="M671.59,287.34a5.78,5.78,0,1,1-5.78-5.8A5.78,5.78,0,0,1,671.59,287.34Z"/><path d="M670.18,287.34a4.37,4.37,0,1,1-4.37-4.39A4.38,4.38,0,0,1,670.18,287.34Z"/><path d="M535.15,179.65a5.29,5.29,0,1,1-5.29-5.31A5.3,5.3,0,0,1,535.15,179.65Z"/><path d="M11.8,329a4.86,4.86,0,1,1-4.86-4.87A4.87,4.87,0,0,1,11.8,329Z"/><path d="M165.11,438.28a4.79,4.79,0,1,1-4.79-4.8A4.78,4.78,0,0,1,165.11,438.28Z"/><path d="M115.1,294a4.45,4.45,0,1,1-4.45-4.45A4.46,4.46,0,0,1,115.1,294Z"/><path d="M113.43,294a2.79,2.79,0,1,1-2.79-2.79A2.79,2.79,0,0,1,113.43,294Z"/><path d="M165.36,438.28a5,5,0,1,1-5-5A5,5,0,0,1,165.36,438.28Z"/><path d="M11.21,329a4.27,4.27,0,1,1-4.27-4.27A4.27,4.27,0,0,1,11.21,329Z"/><path d="M114.51,294a3.87,3.87,0,1,1-3.86-3.86A3.87,3.87,0,0,1,114.51,294Z"/><path d="M231.84,405.48a5.72,5.72,0,1,1-5.71-5.73A5.73,5.73,0,0,1,231.84,405.48Z"/><path d="M300.48,268.78a4.43,4.43,0,1,1-4.43-4.44A4.43,4.43,0,0,1,300.48,268.78Z"/><path d="M345.74,383.41a5.94,5.94,0,1,1-5.94-6A5.95,5.95,0,0,1,345.74,383.41Z"/><path d="M228.87,405.48a2.75,2.75,0,1,1-2.74-2.76A2.75,2.75,0,0,1,228.87,405.48Z"/><path d="M299.71,268.79a3.65,3.65,0,1,1-3.65-3.66A3.65,3.65,0,0,1,299.71,268.79Z"/><path d="M345.27,383.41a5.47,5.47,0,1,1-5.47-5.48A5.48,5.48,0,0,1,345.27,383.41Z"/><path d="M457.39,460.35a2.11,2.11,0,1,1-2.1-2.12A2.1,2.1,0,0,1,457.39,460.35Z"/><path d="M298.4,268.78a2.35,2.35,0,1,1-2.35-2.35A2.36,2.36,0,0,1,298.4,268.78Z"/><path d="M399.36,289.83a2.75,2.75,0,1,1-2.75-2.75A2.76,2.76,0,0,1,399.36,289.83Z"/><path d="M457.9,460.35a2.62,2.62,0,1,1-2.61-2.62A2.62,2.62,0,0,1,457.9,460.35Z"/><path d="M300,268.78a3.91,3.91,0,1,1-3.91-3.91A3.91,3.91,0,0,1,300,268.78Z"/><path d="M530,468.59a3.88,3.88,0,1,1-3.88-3.88A3.88,3.88,0,0,1,530,468.59Z"/><path d="M457.63,460.35a2.34,2.34,0,1,1-2.34-2.35A2.35,2.35,0,0,1,457.63,460.35Z"/><path d="M531,468.59a4.93,4.93,0,1,1-4.93-4.93A4.94,4.94,0,0,1,531,468.59Z"/><path d="M400.47,289.83a3.85,3.85,0,1,1-3.86-3.86A3.86,3.86,0,0,1,400.47,289.83Z"/><path d="M461.19,460.35a5.91,5.91,0,1,1-5.9-5.92A5.91,5.91,0,0,1,461.19,460.35Z"/><ellipse cx="694.35" cy="406.09" rx="4.61" ry="4.63"/><path d="M529.4,468.59a3.31,3.31,0,1,1-3.31-3.32A3.32,3.32,0,0,1,529.4,468.59Z"/><circle cx="694.35" cy="406.09" r="2.06"/><path d="M696.78,406.09a2.43,2.43,0,1,1-2.43-2.43A2.43,2.43,0,0,1,696.78,406.09Z"/><path d="M230.93,405.48a4.81,4.81,0,1,1-4.8-4.82A4.81,4.81,0,0,1,230.93,405.48Z"/><path d="M343,383.41a3.21,3.21,0,1,1-3.21-3.22A3.22,3.22,0,0,1,343,383.41Z"/><path d="M344,383.41a4.16,4.16,0,1,1-4.15-4.17A4.15,4.15,0,0,1,344,383.41Z"/><path d="M348.42,506a3.64,3.64,0,1,1-3.63-3.64A3.63,3.63,0,0,1,348.42,506Z"/><path d="M351.75,506a7,7,0,1,1-7-7A7,7,0,0,1,351.75,506Z"/><path d="M343.55,383.41a3.76,3.76,0,1,1-3.75-3.76A3.77,3.77,0,0,1,343.55,383.41Z"/><path d="M343.71,383.41a3.91,3.91,0,1,1-3.91-3.92A3.91,3.91,0,0,1,343.71,383.41Z"/></svg>