<svg id="Layer_1_copy" data-name="Layer 1 copy" xmlns="http://www.w3.org/2000/svg" viewBox="0 0 1001.87 649.69"><defs><style>.cls-1{fill:#f8ca10;}</style></defs><polygon class="cls-1" points="830.04 405.52 739.01 505.43 826.22 516.82 830.04 405.52"/><polygon class="cls-1" points="668.6 446.56 519.67 268.72 501.29 353.14 668.6 446.56"/><polygon class="cls-1" points="403.81 407.52 519.67 268.72 454.05 253.93 403.81 407.52"/><polygon class="cls-1" points="337.69 302.35 488.71 189.86 454.05 253.93 337.69 302.35"/><polygon class="cls-1" points="263.81 238.49 238.77 368.26 332.54 305.29 263.81 238.49"/><polygon class="cls-1" points="165.33 332.96 238.77 368.26 228.5 518.59 152.5 407.51 165.33 332.96"/><polygon class="cls-1" points="739.01 505.43 606.72 587.75 669.64 461.87 739.01 505.43"/><polygon class="cls-1" points="4.92 387.89 165.33 332.96 151.75 404.37 4.92 387.89"/><polygon points="244.93 139.16 244.57 137.8 312.81 119.69 316.02 4.35 317.42 4.39 314.18 120.78 244.93 139.16"/><path d="M488.44,190.51,312.78,120.7,316,4.35l.69,0,.52-.47,172,185.48ZM314.2,119.77l171.88,68.3-168.7-182Z"/><polygon points="264.71 239.48 148.84 205.76 149.23 204.41 262.9 237.5 244.06 138.61 245.43 138.34 264.71 239.48"/><path d="M332.06,305.79l-68.9-67,0-.22-19.06-100,.68-.13.62-.34L333.15,305Zm-67.61-67.65,65.42,63.58L246.31,142.94Z"/><path d="M331.92,305.62,243.72,138l70.37-18.67.1.81,19.05,185.06Zm-86.14-166.7,85.69,162.84-18.6-180.64Z"/><path d="M332.8,305.94l-.68-1.22,156-115.32.46-.85,1.06,1.46-.45.33L453.48,255l-.23.1ZM486.52,192.35l-148.83,110,114.8-48.48Z"/><path d="M332,306.58,312.67,119.16l177.47,70.52ZM314.3,121.32,333.1,304,487.28,190.05Z"/><path d="M520.8,269.69l-68.89-14.78,36.71-66.35.73,1Zm-66.75-15.76,64.5,13.84-30-76.27Z"/><path d="M519,269l-31.31-79.75,35.4-2.72-2.74,82.23Zm-29.31-78.5,29.38,74.83L521.66,188Z"/><polygon points="519.91 269.39 519.34 268.11 704.38 168.09 705.04 169.31 528.02 265.01 626.72 229.86 627.18 231.18 519.91 269.39"/><path d="M518.93,269.92l2.77-83.28.61-.06L704.64,168l.4,1.3Zm4.12-82-2.64,79.62,180.88-97.77Z"/><polygon points="0.77 388.56 0.33 387.23 164.56 332.48 148.34 205.17 149.73 204.99 166.1 333.44 0.77 388.56"/><rect x="-42.97" y="295.79" width="235.52" height="1.4" transform="translate(-202.52 167.65) rotate(-50.92)"/><rect x="-42.97" y="295.79" width="235.52" height="1.4" transform="translate(-202.52 167.65) rotate(-50.92)"/><path d="M240.44,369.84l-75.76-36.41-.05-.38L148.34,205.17l.71-.09.6-.33ZM166,332.49l71.13,34.2L150.2,208.63Z"/><path d="M239.09,370.3l-.93-1.7L147.61,203.94l117,34.05-.12.63ZM150.47,206.23l88,160L263,239Z"/><path d="M236.26,369.1,332,304.8l.12-.21h2.7l-1.79,1.2-36.2,60Zm94.05-61.46-89,59.78,54.75-3Z"/><path d="M237.76,369.78l25.61-132.7,70.29,68.31Zm26.49-129.89L239.77,366.74l91.66-61.55Z"/><path d="M405.71,409,295.43,365.46l36.71-60.87h.76l.21.29ZM297.47,364.75,401.91,406l-69.32-99.45Z"/><path d="M404,409.09,331.47,305l122.65-51.8ZM333.62,305.6l70,100.37,48.27-150.31Z"/><path d="M404.15,408.14l-.88-1.06L519.13,268.27l1.22.59L501.9,353.6l-.27.15ZM518.39,271.36,406.77,405.07l93.9-52.39Z"/><path d="M404.34,408l-1.19-.67L452.5,253.6,521,268.28Zm49.12-152.74L405.58,404.33,518.39,269.16Z"/><path d="M668.26,447.17,500.49,353.49l18.81-86.31.91,1.09L669.13,446.11ZM502.08,352.78l163.54,91.31L520.06,270.26Z"/><path d="M669.8,449.08,668.06,447,518.5,268.4l109-38.81ZM520.86,269,667.39,444l-41-212.59Z"/><polygon points="1001.87 309.43 931.22 458.24 831.9 404.98 1001.87 289.52 1001.87 287.82 829.2 405.11 931.21 459.81 931.86 460.17 1001.87 312.69 1001.87 309.43"/><polygon points="1001.87 437.94 932.84 458.09 1001.87 312.69 1001.87 309.43 930.23 460.32 1001.87 439.41 1001.87 437.94"/><path d="M152.24,405.83l-.65-.07L.47,388.59l-.14-1.36,165.91-55.31ZM3.78,387.56,151.1,404.3,164.42,334Z"/><path d="M228.5,518.59,150.61,404.76l88.95-37.59ZM152.73,405.38,227.4,514.49,238,369.35Z"/><path d="M150.74,406.22l14.07-74.28,75.67,36.36ZM165.84,334,152.6,403.92l84.47-35.7Z"/><path d="M338.56,519,237.51,367.63,297,364.37l.15.54L339.8,518.4ZM240,368.89l97.26,145.68L295.93,365.84Z"/><path d="M337.81,519.47l66.7-114.53v2.45l37.81,98.28Zm65.87-110.33L340.45,517.71l99.93-13.19Z"/><path d="M338.91,520.38,295.4,363.94l1.3.51,108.13,42.72-.42.71ZM297.5,366.27l41.87,150.54L402.8,407.88Z"/><polygon points="440.69 505.35 403.11 407.66 403.11 405.93 404.29 407.01 492.54 488.59 491.59 489.62 405.54 410.08 441.99 504.84 440.69 505.35"/><path d="M492.66,490.61l-1.07-1-89-82.24,99.45-55.48ZM405,407.66l86.48,79.94,9-133.23Z"/><path d="M491.31,490l9.36-138L670.5,446.82Zm10.61-135.71L492.83,488.2,666.7,446.29Z"/><path d="M738.64,506,669,462.28l-1.09-16,.68-.68.49.41,70.4,58.86Zm-68.33-44.55,60.35,37.89L669.4,448.13Z"/><path d="M739.94,507.11l-72.27-60.43.36-.53,53.62-78.42.23,1.81Zm-70.4-60.69,68.54,57.32L720.74,371.53Z"/><path d="M826.89,517.61l-89.3-11.67L830,404.56l.65.48.56,0Zm-86.46-12.7L825.56,516l4.22-109.09Z"/><path d="M738.51,507l-.2-1.5-18-136.89L831.8,404.7ZM722,370.64l17.47,133.2,89.81-98.47Z"/><path d="M979.36,563.2,825.51,517.33v-.55l4.34-111.94.57-.95.64.67ZM826.94,516.29l147.86,44.1L831.18,406.73Z"/><path d="M976.56,562.27,830,405.52l.84-1.1,101.2,54.27.09.23,45.55,102.59ZM834,407.66l140.8,150.63L931,459.71Z"/><polygon points="1001.87 544.46 982.45 557.38 1001.87 537.83 1001.87 535.85 976.58 561.3 977.46 562.38 1001.87 546.14 1001.87 544.46"/><polygon points="1001.87 535.83 977.31 560.58 932.5 459.65 1001.87 439.41 1001.87 437.96 930.57 458.76 976.85 563.01 1001.87 537.83 1001.87 535.83"/><path d="M158.94,563.79l-8.09-161.16,78.08,114.1ZM152.5,407.51l7.72,153.73L227,516.35Z"/><path d="M605,589.65l64.39-128.78,71,44.56Zm64.95-126.77-61.47,123L737.7,505.43Z"/><path d="M904.35,645.43l-167.61-141,89.91,11.74,78.74,128.37Zm-163.06-139L901.94,641.57,825.8,517.46Z"/><polygon points="904.2 645.26 824.66 515.62 977.28 561.12 976.89 562.46 827.77 518 905.39 644.53 904.2 645.26"/><polygon points="1001.87 544.46 976.7 561.2 977.47 562.38 1001.87 546.14 1001.87 544.46"/><path d="M319,4.37a2.3,2.3,0,1,1-2.29-2.3A2.31,2.31,0,0,1,319,4.37Z"/><path d="M316.86,120.24a3.37,3.37,0,1,1-3.38-3.39A3.38,3.38,0,0,1,316.86,120.24Z"/><path d="M250.48,138.48a5.74,5.74,0,1,1-5.73-5.75A5.74,5.74,0,0,1,250.48,138.48Z"/><path d="M319.41,4.37a2.69,2.69,0,1,1-2.68-2.7A2.69,2.69,0,0,1,319.41,4.37Z"/><path d="M492,189.86a3.27,3.27,0,1,1-3.27-3.27A3.26,3.26,0,0,1,492,189.86Z"/><path d="M320.39,4.37A3.67,3.67,0,1,1,316.71.69,3.68,3.68,0,0,1,320.39,4.37Z"/><path d="M336.6,305.29a4.07,4.07,0,1,1-4.07-4.07A4.07,4.07,0,0,1,336.6,305.29Z"/><path d="M336.79,305.29a4.26,4.26,0,1,1-4.26-4.27A4.25,4.25,0,0,1,336.79,305.29Z"/><path d="M491.88,189.86a3.18,3.18,0,1,1-3.18-3.19A3.18,3.18,0,0,1,491.88,189.86Z"/><path d="M456.39,254.42A3.41,3.41,0,1,1,453,251,3.4,3.4,0,0,1,456.39,254.42Z"/><path d="M335,305.29a2.44,2.44,0,1,1-2.44-2.45A2.44,2.44,0,0,1,335,305.29Z"/><path d="M491.1,189.86a2.4,2.4,0,1,1-2.4-2.39A2.39,2.39,0,0,1,491.1,189.86Z"/><path d="M335.2,305.29a2.67,2.67,0,1,1-2.67-2.68A2.67,2.67,0,0,1,335.2,305.29Z"/><path d="M491.8,189.86a3.09,3.09,0,1,1-3.1-3.08A3.1,3.1,0,0,1,491.8,189.86Z"/><path d="M492.94,189.86a4.23,4.23,0,1,1-4.24-4.24A4.24,4.24,0,0,1,492.94,189.86Z"/><path d="M456.85,254.42a3.86,3.86,0,1,1-3.87-3.87A3.87,3.87,0,0,1,456.85,254.42Z"/><path d="M523.84,268.73a4.17,4.17,0,1,1-4.16-4.18A4.18,4.18,0,0,1,523.84,268.73Z"/><path d="M491.71,189.86a3,3,0,1,1-3-3A3,3,0,0,1,491.71,189.86Z"/><path d="M525.22,187.28a2.85,2.85,0,1,1-2.84-2.86A2.85,2.85,0,0,1,525.22,187.28Z"/><path d="M524.93,187.28a2.56,2.56,0,1,1-2.55-2.57A2.56,2.56,0,0,1,524.93,187.28Z"/><path d="M524.93,268.73a5.26,5.26,0,1,1-5.25-5.27A5.25,5.25,0,0,1,524.93,268.73Z"/><path d="M492.69,189.86a4,4,0,1,1-4-4A4,4,0,0,1,492.69,189.86Z"/><path d="M632.49,230.52A5.55,5.55,0,1,1,627,225,5.55,5.55,0,0,1,632.49,230.52Z"/><path d="M524.94,268.73a5.27,5.27,0,1,1-5.26-5.28A5.27,5.27,0,0,1,524.94,268.73Z"/><path d="M709.11,168.7a4.41,4.41,0,1,1-4.4-4.42A4.42,4.42,0,0,1,709.11,168.7Z"/><path d="M708.37,168.7a3.67,3.67,0,1,1-3.66-3.67A3.66,3.66,0,0,1,708.37,168.7Z"/><path d="M525.31,187.28a2.93,2.93,0,1,1-2.93-2.95A2.93,2.93,0,0,1,525.31,187.28Z"/><path d="M529,187.28a6.59,6.59,0,1,1-6.59-6.61A6.6,6.6,0,0,1,529,187.28Z"/><path d="M524.55,268.73a4.87,4.87,0,1,1-4.87-4.88A4.88,4.88,0,0,1,524.55,268.73Z"/><path d="M707.77,168.7a3.07,3.07,0,1,1-3.06-3.07A3.07,3.07,0,0,1,707.77,168.7Z"/><path d="M170.52,333a5.19,5.19,0,1,1-5.19-5.2A5.21,5.21,0,0,1,170.52,333Z"/><path d="M151.94,205.08a2.91,2.91,0,1,1-2.9-2.91A2.9,2.9,0,0,1,151.94,205.08Z"/><path d="M241.88,368.26a3.1,3.1,0,1,1-6.2,0,3.1,3.1,0,1,1,6.2,0Z"/><path d="M152.37,205.09a3.33,3.33,0,1,1-3.33-3.34A3.34,3.34,0,0,1,152.37,205.09Z"/><path d="M270.09,238.49a6.29,6.29,0,1,1-6.29-6.31A6.3,6.3,0,0,1,270.09,238.49Z"/><path d="M244.29,368.26a5.52,5.52,0,1,1-5.52-5.53A5.53,5.53,0,0,1,244.29,368.26Z"/><path d="M335,305.29a2.44,2.44,0,1,1-2.44-2.44A2.44,2.44,0,0,1,335,305.29Z"/><path d="M298.8,365.1a2.36,2.36,0,1,1-2.36-2.36A2.37,2.37,0,0,1,298.8,365.1Z"/><path d="M243.65,368.26a4.89,4.89,0,1,1-4.88-4.89A4.89,4.89,0,0,1,243.65,368.26Z"/><path d="M336.14,305.29a3.6,3.6,0,1,1-3.59-3.61A3.6,3.6,0,0,1,336.14,305.29Z"/><path d="M337.6,305.29a5.06,5.06,0,1,1-5.05-5.08A5.06,5.06,0,0,1,337.6,305.29Z"/><path d="M338,305.29a5.48,5.48,0,1,1-5.48-5.49A5.48,5.48,0,0,1,338,305.29Z"/><path d="M300.25,365.1a3.81,3.81,0,1,1-3.81-3.82A3.81,3.81,0,0,1,300.25,365.1Z"/><path d="M337.9,305.29a5.36,5.36,0,1,1-5.35-5.38A5.36,5.36,0,0,1,337.9,305.29Z"/><ellipse cx="452.98" cy="254.42" rx="4.86" ry="4.87"/><path d="M455.75,254.42a2.76,2.76,0,1,1-2.77-2.77A2.77,2.77,0,0,1,455.75,254.42Z"/><ellipse cx="519.68" cy="268.73" rx="2.89" ry="2.9"/><path d="M504.55,353.14a3.26,3.26,0,1,1-3.26-3.27A3.26,3.26,0,0,1,504.55,353.14Z"/><path d="M406.82,407.53a3,3,0,1,1-3-3A3,3,0,0,1,406.82,407.53Z"/><path d="M523.34,268.72a3.67,3.67,0,1,1-3.66-3.68A3.67,3.67,0,0,1,523.34,268.72Z"/><path d="M459,254.42a6,6,0,1,1-6-6.06A6.06,6.06,0,0,1,459,254.42Z"/><path d="M459.32,254.42a6.34,6.34,0,1,1-6.34-6.35A6.34,6.34,0,0,1,459.32,254.42Z"/><path d="M526.51,268.72a6.85,6.85,0,1,1-6.83-6.86A6.85,6.85,0,0,1,526.51,268.72Z"/><path d="M504.79,353.14a3.5,3.5,0,1,1-3.5-3.52A3.51,3.51,0,0,1,504.79,353.14Z"/><ellipse cx="668.6" cy="446.56" rx="4.11" ry="4.12"/><path d="M635,230.52a8.1,8.1,0,1,1-8.09-8.11A8.11,8.11,0,0,1,635,230.52Z"/><path d="M632.76,230.52a5.81,5.81,0,1,1-5.81-5.81A5.82,5.82,0,0,1,632.76,230.52Z"/><path d="M934.15,459.2a2.61,2.61,0,1,1-2.62-2.61A2.62,2.62,0,0,1,934.15,459.2Z"/><path d="M836.84,405a6.29,6.29,0,1,1-6.29-6.3A6.29,6.29,0,0,1,836.84,405Z"/><path d="M936.09,459.2a4.55,4.55,0,1,1-4.56-4.57A4.56,4.56,0,0,1,936.09,459.2Z"/><path d="M155.38,405.07a3.71,3.71,0,1,1-3.71-3.72A3.71,3.71,0,0,1,155.38,405.07Z"/><path d="M156.67,405.07a5,5,0,1,1-5-5A5,5,0,0,1,156.67,405.07Z"/><path d="M232.89,516.54a4.95,4.95,0,1,1-4.94-4.95A4.94,4.94,0,0,1,232.89,516.54Z"/><path d="M157,405.07a5.37,5.37,0,1,1-5.37-5.38A5.37,5.37,0,0,1,157,405.07Z"/><path d="M155.24,405.07a3.57,3.57,0,1,1-3.57-3.58A3.57,3.57,0,0,1,155.24,405.07Z"/><path d="M300.88,365.1a4.43,4.43,0,1,1-4.44-4.43A4.44,4.44,0,0,1,300.88,365.1Z"/><path d="M299.06,365.1a2.62,2.62,0,1,1-2.62-2.62A2.62,2.62,0,0,1,299.06,365.1Z"/><path d="M342.05,518.59a2.92,2.92,0,1,1-2.91-2.93A2.91,2.91,0,0,1,342.05,518.59Z"/><path d="M443.86,505.1a2.52,2.52,0,1,1-2.52-2.52A2.52,2.52,0,0,1,443.86,505.1Z"/><path d="M343.43,518.59a4.3,4.3,0,1,1-4.29-4.3A4.3,4.3,0,0,1,343.43,518.59Z"/><path d="M407.16,407.53a3.36,3.36,0,1,1-3.35-3.37A3.35,3.35,0,0,1,407.16,407.53Z"/><path d="M445.42,505.1a4.08,4.08,0,1,1-4.08-4.1A4.09,4.09,0,0,1,445.42,505.1Z"/><ellipse cx="296.44" cy="365.1" rx="4.17" ry="4.18"/><path d="M343.3,518.59a4.17,4.17,0,1,1-4.16-4.17A4.18,4.18,0,0,1,343.3,518.59Z"/><path d="M408.36,407.53a4.55,4.55,0,1,1-4.55-4.56A4.55,4.55,0,0,1,408.36,407.53Z"/><path d="M495.16,489.11a3.1,3.1,0,1,1-3.09-3.11A3.09,3.09,0,0,1,495.16,489.11Z"/><path d="M408.66,407.53a4.85,4.85,0,1,1-4.85-4.86A4.85,4.85,0,0,1,408.66,407.53Z"/><path d="M447.39,505.1a6.05,6.05,0,1,1-6.05-6.08A6.06,6.06,0,0,1,447.39,505.1Z"/><path d="M408.29,407.53a4.49,4.49,0,1,1-4.48-4.51A4.49,4.49,0,0,1,408.29,407.53Z"/><path d="M506.92,353.14a5.64,5.64,0,1,1-5.63-5.65A5.64,5.64,0,0,1,506.92,353.14Z"/><path d="M505.74,353.14a4.45,4.45,0,1,1-4.45-4.46A4.45,4.45,0,0,1,505.74,353.14Z"/><path d="M506.38,353.14a5.09,5.09,0,1,1-5.09-5.1A5.09,5.09,0,0,1,506.38,353.14Z"/><path d="M672.23,461.88a2.58,2.58,0,1,1-2.58-2.59A2.58,2.58,0,0,1,672.23,461.88Z"/><path d="M742.35,505.43a3.34,3.34,0,1,1-3.35-3.35A3.34,3.34,0,0,1,742.35,505.43Z"/><circle cx="721.19" cy="369.63" r="3.23"/><path d="M724.58,369.63a3.39,3.39,0,1,1-3.39-3.4A3.4,3.4,0,0,1,724.58,369.63Z"/><path d="M744.06,505.43a5.05,5.05,0,1,1-5.06-5.06A5.06,5.06,0,0,1,744.06,505.43Z"/><path d="M741.84,505.43a2.83,2.83,0,1,1-2.84-2.84A2.82,2.82,0,0,1,741.84,505.43Z"/><path d="M835.52,405a5,5,0,1,1-5-5A5,5,0,0,1,835.52,405Z"/><path d="M725,369.63a3.84,3.84,0,1,1-3.84-3.85A3.85,3.85,0,0,1,725,369.63Z"/><path d="M726.79,369.63a5.6,5.6,0,1,1-5.6-5.61A5.61,5.61,0,0,1,726.79,369.63Z"/><path d="M744.21,505.43a5.2,5.2,0,1,1-5.21-5.21A5.22,5.22,0,0,1,744.21,505.43Z"/><path d="M835.53,405a5,5,0,1,1-5-5A5,5,0,0,1,835.53,405Z"/><path d="M836.5,405a5.95,5.95,0,1,1-6-6A6,6,0,0,1,836.5,405Z"/><path d="M980,561.8a2.88,2.88,0,1,1-2.88-2.89A2.88,2.88,0,0,1,980,561.8Z"/><path d="M934.37,459.2a2.84,2.84,0,1,1-2.84-2.84A2.83,2.83,0,0,1,934.37,459.2Z"/><path d="M936.12,459.2a4.58,4.58,0,1,1-4.59-4.6A4.58,4.58,0,0,1,936.12,459.2Z"/><path d="M979.4,561.8a2.32,2.32,0,1,1-2.32-2.33A2.33,2.33,0,0,1,979.4,561.8Z"/><path d="M155.18,405.07a3.51,3.51,0,1,1-3.51-3.51A3.52,3.52,0,0,1,155.18,405.07Z"/><path d="M165.47,562.52a5.89,5.89,0,1,1-5.89-5.9A5.9,5.9,0,0,1,165.47,562.52Z"/><path d="M159.08,405.07a7.41,7.41,0,1,1-7.41-7.42A7.41,7.41,0,0,1,159.08,405.07Z"/><path d="M165.28,562.52a5.71,5.71,0,1,1-5.7-5.73A5.71,5.71,0,0,1,165.28,562.52Z"/><path d="M609.42,587.75a2.71,2.71,0,1,1-2.71-2.71A2.71,2.71,0,0,1,609.42,587.75Z"/><path d="M674.48,461.88a4.84,4.84,0,1,1-4.83-4.86A4.84,4.84,0,0,1,674.48,461.88Z"/><path d="M609.9,587.75a3.19,3.19,0,1,1-3.19-3.19A3.19,3.19,0,0,1,609.9,587.75Z"/><path d="M829.44,516.81a3.22,3.22,0,1,1-3.21-3.22A3.22,3.22,0,0,1,829.44,516.81Z"/><path d="M830.4,516.81a4.18,4.18,0,1,1-4.17-4.18A4.18,4.18,0,0,1,830.4,516.81Z"/><path d="M909.58,644.9a4.79,4.79,0,1,1-4.79-4.8A4.79,4.79,0,0,1,909.58,644.9Z"/><path d="M829.35,516.81a3.13,3.13,0,1,1-3.12-3.12A3.13,3.13,0,0,1,829.35,516.81Z"/><path d="M830.88,516.81a4.66,4.66,0,1,1-4.65-4.67A4.67,4.67,0,0,1,830.88,516.81Z"/></svg>