<svg id="Layer_1_copy" data-name="Layer 1 copy" xmlns="http://www.w3.org/2000/svg" viewBox="0 0 1002.59 649.26"><defs><style>.cls-1{fill:#f8ca10;}.cls-2{fill:#fff;}</style></defs><polygon class="cls-1" points="830.76 404.83 739.73 504.74 826.94 516.13 830.76 404.83"/><polygon class="cls-1" points="669.32 445.87 520.39 268.03 502.01 352.45 669.32 445.87"/><polygon class="cls-1" points="404.53 406.83 520.39 268.03 454.77 253.24 404.53 406.83"/><polygon class="cls-1" points="338.41 301.66 489.43 189.17 454.77 253.24 338.41 301.66"/><polygon class="cls-1" points="264.53 237.8 239.49 367.57 333.27 304.6 264.53 237.8"/><polygon class="cls-1" points="166.05 332.27 239.49 367.57 229.22 517.9 153.22 406.82 166.05 332.27"/><polygon class="cls-1" points="739.73 504.74 607.44 587.06 670.36 461.18 739.73 504.74"/><polygon class="cls-1" points="5.64 387.2 166.05 332.27 152.47 403.68 5.64 387.2"/><polygon class="cls-2" points="245.65 138.47 245.3 137.11 313.53 119 316.74 3.66 318.14 3.7 314.9 120.09 245.65 138.47"/><path class="cls-2" d="M489.17,189.82,313.5,120,316.74,3.66l.69,0,.52-.47,172,185.48ZM314.92,119.08l171.88,68.3L318.1,5.42Z"/><polygon class="cls-2" points="265.43 238.79 149.56 205.07 149.95 203.72 263.63 236.81 244.78 137.92 246.15 137.65 265.43 238.79"/><path class="cls-2" d="M332.78,305.1l-68.9-67,0-.22-19.06-100,.68-.13.62-.34,87.8,166.82Zm-67.61-67.65L330.59,301,247,142.25Z"/><path class="cls-2" d="M332.64,304.93l-88.2-167.6,70.37-18.67.1.81,19,185.06ZM246.5,138.23l85.69,162.84-18.6-180.64Z"/><path class="cls-2" d="M333.52,305.25l-.67-1.22,156-115.32.46-.85,1.06,1.46-.45.33L454.2,254.28l-.23.1ZM487.24,191.66l-148.83,110,114.8-48.48Z"/><path class="cls-2" d="M332.68,305.89,313.39,118.47,490.86,189ZM315,120.63l18.8,182.68L488,189.36Z"/><path class="cls-2" d="M521.52,269l-68.89-14.78,36.71-66.35.73,1Zm-66.75-15.76,64.5,13.84-29.95-76.27Z"/><path class="cls-2" d="M519.75,268.3l-31.32-79.75,35.4-2.72-2.74,82.23Zm-29.32-78.5,29.38,74.83,2.57-77.29Z"/><polygon class="cls-2" points="520.63 268.7 520.06 267.42 705.1 167.4 705.76 168.63 528.74 264.32 627.44 229.17 627.9 230.49 520.63 268.7"/><path class="cls-2" d="M519.65,269.23,522.42,186l.61-.06,182.33-18.57.41,1.3Zm4.13-82-2.65,79.62L702,169.07Z"/><polygon class="cls-2" points="1.49 387.87 1.05 386.54 165.28 331.79 149.06 204.48 150.45 204.3 166.82 332.75 1.49 387.87"/><rect class="cls-2" x="-42.25" y="295.1" width="235.52" height="1.4" transform="translate(-201.71 167.96) rotate(-50.92)"/><rect class="cls-2" x="-42.25" y="295.1" width="235.52" height="1.4" transform="translate(-201.71 167.96) rotate(-50.92)"/><path class="cls-2" d="M241.16,369.15,165.4,332.74l-.05-.38L149.07,204.48l.7-.09.6-.33ZM166.69,331.8,237.82,366l-86.9-158.06Z"/><path class="cls-2" d="M239.82,369.61l-.94-1.7L148.33,203.25l117,34.05-.12.63ZM151.19,205.54l88,160,24.54-127.25Z"/><path class="cls-2" d="M237,368.41l95.76-64.3.12-.21h2.7l-1.79,1.2-36.2,60ZM331,307l-89,59.78,54.76-3Z"/><path class="cls-2" d="M238.49,369.09l25.6-132.7,70.29,68.31ZM265,239.2,240.49,366.05l91.66-61.55Z"/><path class="cls-2" d="M406.43,408.34,296.15,364.77l36.71-60.87h.76l.22.29ZM298.2,364.06l104.43,41.27-69.32-99.45Z"/><path class="cls-2" d="M404.77,408.4,332.19,304.29l122.65-51.8ZM334.34,304.91l70,100.37L452.58,255Z"/><path class="cls-2" d="M404.87,407.45l-.88-1.06L519.85,267.58l1.23.59-18.46,84.74-.27.15ZM519.11,270.67,407.49,404.38,501.39,352Z"/><path class="cls-2" d="M405.06,407.29l-1.19-.67,49.36-153.71,68.44,14.68Zm49.12-152.74L406.3,403.64,519.11,268.47Z"/><path class="cls-2" d="M669,446.48,501.21,352.8,520,266.49l.91,1.09L669.85,445.42ZM502.8,352.09,666.34,443.4,520.78,269.57Z"/><path class="cls-2" d="M670.52,448.39l-1.74-2.07L519.22,267.71l109-38.81Zm-148.94-180,146.54,175-41-212.59Z"/><polygon class="cls-2" points="1002.59 308.74 931.94 457.55 832.62 404.29 1002.59 288.83 1002.59 287.13 829.92 404.42 931.93 459.13 932.58 459.48 1002.59 312 1002.59 308.74"/><polygon class="cls-2" points="1002.59 437.25 933.56 457.4 1002.59 312 1002.59 308.74 930.95 459.63 1002.59 438.72 1002.59 437.25"/><path class="cls-2" d="M153,405.14l-.65-.07L1.19,387.9l-.14-1.36L167,331.23ZM4.5,386.87l147.33,16.74,13.31-70.3Z"/><path class="cls-2" d="M229.22,517.9,151.33,404.07l88.95-37.59ZM153.45,404.69,228.12,513.8l10.6-145.14Z"/><path class="cls-2" d="M151.47,405.53l14.06-74.28,75.67,36.36Zm15.1-72.23-13.25,69.93,84.47-35.7Z"/><path class="cls-2" d="M339.28,518.29l-101-151.35,59.46-3.26.15.54,42.68,153.49ZM240.75,368.2,338,513.88,296.65,365.15Z"/><path class="cls-2" d="M338.53,518.78l66.7-114.53v2.45L443,505ZM404.4,408.45,341.18,517l99.92-13.19Z"/><path class="cls-2" d="M339.63,519.69,296.12,363.25l1.3.51,108.13,42.72-.42.71ZM298.22,365.58l41.87,150.54,63.43-108.93Z"/><polygon class="cls-2" points="441.41 504.65 403.83 406.97 403.83 405.24 405.01 406.32 493.26 487.9 492.31 488.93 406.26 409.39 442.71 504.15 441.41 504.65"/><path class="cls-2" d="M493.39,489.92l-1.08-1-89-82.24,99.45-55.48ZM405.71,407l86.48,79.94,9-133.23Z"/><path class="cls-2" d="M492,489.31l9.36-138,169.83,94.84ZM502.64,353.6l-9.09,133.91L667.42,445.6Z"/><path class="cls-2" d="M739.36,505.33l-69.67-43.74-1.08-16,.67-.68.49.41,70.4,58.86ZM671,460.78l60.35,37.89-61.26-51.23Z"/><path class="cls-2" d="M740.66,506.42,668.39,446l.36-.53L722.37,367l.23,1.81Zm-70.4-60.69,68.54,57.32L721.46,370.84Z"/><path class="cls-2" d="M827.61,516.92l-89.3-11.67,92.45-101.38.65.48.56,0Zm-86.46-12.7,85.13,11.11,4.22-109.09Z"/><path class="cls-2" d="M739.23,506.33l-.2-1.5-18-136.89L832.52,404ZM722.75,370l17.47,133.2L830,404.68Z"/><path class="cls-2" d="M980.08,562.51,826.23,516.64v-.55l4.34-111.94.57-.95.64.67ZM827.67,515.6l147.85,44.1L831.9,406Z"/><path class="cls-2" d="M977.28,561.58,830.76,404.83l.84-1.1L932.8,458l.09.23,45.55,102.59ZM834.68,407,975.48,557.6,931.71,459Z"/><polygon class="cls-2" points="1002.59 543.77 983.17 556.69 1002.59 537.13 1002.59 535.15 977.3 560.61 978.18 561.69 1002.59 545.45 1002.59 543.77"/><polygon class="cls-2" points="1002.59 535.14 978.03 559.89 933.22 458.96 1002.59 438.72 1002.59 437.27 931.29 458.07 977.57 562.32 1002.59 537.13 1002.59 535.14"/><path class="cls-2" d="M159.66,563.1l-8.09-161.16L229.65,516Zm-6.44-156.28,7.72,153.73,66.76-44.89Z"/><path class="cls-2" d="M605.69,589l64.39-128.78,71,44.56Zm64.95-126.77-61.47,123,129.25-80.42Z"/><path class="cls-2" d="M905.07,644.74l-167.61-141,89.91,11.74,78.74,128.37ZM742,505.74,902.66,640.88,826.53,516.77Z"/><polygon class="cls-2" points="904.92 644.57 825.39 514.93 978 560.43 977.61 561.77 828.49 517.31 906.11 643.84 904.92 644.57"/><polygon class="cls-2" points="1002.59 543.77 977.42 560.51 978.19 561.69 1002.59 545.45 1002.59 543.77"/><path class="cls-2" d="M319.74,3.68a2.3,2.3,0,1,1-2.29-2.3A2.31,2.31,0,0,1,319.74,3.68Z"/><path class="cls-2" d="M317.58,119.55a3.37,3.37,0,1,1-3.38-3.39A3.38,3.38,0,0,1,317.58,119.55Z"/><path class="cls-2" d="M251.2,137.79a5.74,5.74,0,1,1-5.73-5.75A5.74,5.74,0,0,1,251.2,137.79Z"/><path class="cls-2" d="M320.13,3.68A2.69,2.69,0,1,1,317.45,1,2.69,2.69,0,0,1,320.13,3.68Z"/><path class="cls-2" d="M492.69,189.17a3.27,3.27,0,1,1-3.27-3.27A3.26,3.26,0,0,1,492.69,189.17Z"/><path class="cls-2" d="M321.11,3.68A3.67,3.67,0,1,1,317.43,0,3.68,3.68,0,0,1,321.11,3.68Z"/><path class="cls-2" d="M337.32,304.6a4.06,4.06,0,1,1-4.07-4.07A4.07,4.07,0,0,1,337.32,304.6Z"/><path class="cls-2" d="M337.51,304.6a4.25,4.25,0,1,1-4.26-4.27A4.25,4.25,0,0,1,337.51,304.6Z"/><path class="cls-2" d="M492.6,189.17a3.18,3.18,0,1,1-3.18-3.19A3.18,3.18,0,0,1,492.6,189.17Z"/><path class="cls-2" d="M457.11,253.73a3.41,3.41,0,1,1-3.41-3.42A3.4,3.4,0,0,1,457.11,253.73Z"/><path class="cls-2" d="M335.69,304.6a2.44,2.44,0,1,1-2.44-2.45A2.44,2.44,0,0,1,335.69,304.6Z"/><path class="cls-2" d="M491.83,189.17a2.4,2.4,0,1,1-2.41-2.39A2.4,2.4,0,0,1,491.83,189.17Z"/><path class="cls-2" d="M335.93,304.6a2.67,2.67,0,1,1-2.68-2.68A2.68,2.68,0,0,1,335.93,304.6Z"/><path class="cls-2" d="M492.52,189.17a3.09,3.09,0,1,1-3.1-3.08A3.1,3.1,0,0,1,492.52,189.17Z"/><path class="cls-2" d="M493.66,189.17a4.23,4.23,0,1,1-4.24-4.24A4.24,4.24,0,0,1,493.66,189.17Z"/><path class="cls-2" d="M457.57,253.73a3.86,3.86,0,1,1-3.87-3.87A3.87,3.87,0,0,1,457.57,253.73Z"/><path class="cls-2" d="M524.56,268a4.17,4.17,0,1,1-4.16-4.18A4.18,4.18,0,0,1,524.56,268Z"/><path class="cls-2" d="M492.44,189.17a3,3,0,1,1-3-3A3,3,0,0,1,492.44,189.17Z"/><path class="cls-2" d="M526,186.59a2.85,2.85,0,1,1-2.85-2.86A2.86,2.86,0,0,1,526,186.59Z"/><path class="cls-2" d="M525.65,186.59A2.55,2.55,0,1,1,523.1,184,2.56,2.56,0,0,1,525.65,186.59Z"/><path class="cls-2" d="M525.65,268a5.26,5.26,0,1,1-5.25-5.27A5.25,5.25,0,0,1,525.65,268Z"/><path class="cls-2" d="M493.41,189.17a4,4,0,1,1-4-4A4,4,0,0,1,493.41,189.17Z"/><path class="cls-2" d="M633.21,229.83a5.55,5.55,0,1,1-5.54-5.55A5.54,5.54,0,0,1,633.21,229.83Z"/><path class="cls-2" d="M525.66,268a5.27,5.27,0,1,1-5.26-5.28A5.27,5.27,0,0,1,525.66,268Z"/><path class="cls-2" d="M709.83,168a4.41,4.41,0,1,1-4.4-4.42A4.42,4.42,0,0,1,709.83,168Z"/><path class="cls-2" d="M709.09,168a3.67,3.67,0,1,1-3.66-3.67A3.66,3.66,0,0,1,709.09,168Z"/><path class="cls-2" d="M526,186.59a2.93,2.93,0,1,1-2.93-3A2.93,2.93,0,0,1,526,186.59Z"/><path class="cls-2" d="M529.69,186.59A6.59,6.59,0,1,1,523.1,180,6.6,6.6,0,0,1,529.69,186.59Z"/><path class="cls-2" d="M525.27,268a4.87,4.87,0,1,1-4.87-4.88A4.88,4.88,0,0,1,525.27,268Z"/><path class="cls-2" d="M708.49,168a3.07,3.07,0,1,1-3.06-3.07A3.07,3.07,0,0,1,708.49,168Z"/><path class="cls-2" d="M171.24,332.27a5.19,5.19,0,1,1-5.19-5.2A5.21,5.21,0,0,1,171.24,332.27Z"/><path class="cls-2" d="M152.66,204.39a2.91,2.91,0,1,1-2.9-2.91A2.9,2.9,0,0,1,152.66,204.39Z"/><path class="cls-2" d="M242.6,367.57a3.1,3.1,0,1,1-6.2,0,3.1,3.1,0,1,1,6.2,0Z"/><path class="cls-2" d="M153.09,204.4a3.33,3.33,0,1,1-3.33-3.34A3.34,3.34,0,0,1,153.09,204.4Z"/><path class="cls-2" d="M270.82,237.8a6.29,6.29,0,1,1-6.3-6.31A6.31,6.31,0,0,1,270.82,237.8Z"/><path class="cls-2" d="M245,367.57a5.52,5.52,0,1,1-5.52-5.53A5.53,5.53,0,0,1,245,367.57Z"/><path class="cls-2" d="M335.69,304.6a2.44,2.44,0,1,1-2.44-2.44A2.43,2.43,0,0,1,335.69,304.6Z"/><path class="cls-2" d="M299.52,364.41a2.36,2.36,0,1,1-2.36-2.36A2.37,2.37,0,0,1,299.52,364.41Z"/><path class="cls-2" d="M244.37,367.57a4.88,4.88,0,1,1-4.88-4.89A4.89,4.89,0,0,1,244.37,367.57Z"/><path class="cls-2" d="M336.86,304.6a3.6,3.6,0,1,1-3.59-3.61A3.6,3.6,0,0,1,336.86,304.6Z"/><path class="cls-2" d="M338.33,304.6a5.06,5.06,0,1,1-5.06-5.08A5.07,5.07,0,0,1,338.33,304.6Z"/><path class="cls-2" d="M338.73,304.6a5.48,5.48,0,1,1-5.48-5.49A5.48,5.48,0,0,1,338.73,304.6Z"/><path class="cls-2" d="M301,364.41a3.82,3.82,0,1,1-3.82-3.82A3.82,3.82,0,0,1,301,364.41Z"/><path class="cls-2" d="M338.62,304.6a5.36,5.36,0,1,1-5.35-5.38A5.36,5.36,0,0,1,338.62,304.6Z"/><ellipse class="cls-2" cx="453.7" cy="253.73" rx="4.86" ry="4.87"/><path class="cls-2" d="M456.47,253.73A2.76,2.76,0,1,1,453.7,251,2.77,2.77,0,0,1,456.47,253.73Z"/><ellipse class="cls-2" cx="520.4" cy="268.04" rx="2.89" ry="2.9"/><path class="cls-2" d="M505.27,352.45a3.26,3.26,0,1,1-3.26-3.27A3.26,3.26,0,0,1,505.27,352.45Z"/><path class="cls-2" d="M407.55,406.84a3,3,0,1,1-3-3A3,3,0,0,1,407.55,406.84Z"/><path class="cls-2" d="M524.06,268a3.67,3.67,0,1,1-3.66-3.68A3.67,3.67,0,0,1,524.06,268Z"/><path class="cls-2" d="M459.75,253.73a6,6,0,1,1-6.05-6.06A6.06,6.06,0,0,1,459.75,253.73Z"/><path class="cls-2" d="M460,253.73a6.34,6.34,0,1,1-6.34-6.35A6.34,6.34,0,0,1,460,253.73Z"/><path class="cls-2" d="M527.24,268a6.85,6.85,0,1,1-6.84-6.86A6.85,6.85,0,0,1,527.24,268Z"/><path class="cls-2" d="M505.51,352.45a3.5,3.5,0,1,1-3.5-3.52A3.51,3.51,0,0,1,505.51,352.45Z"/><ellipse class="cls-2" cx="669.32" cy="445.87" rx="4.11" ry="4.12"/><path class="cls-2" d="M635.76,229.83a8.1,8.1,0,1,1-8.09-8.11A8.11,8.11,0,0,1,635.76,229.83Z"/><path class="cls-2" d="M633.48,229.83a5.81,5.81,0,1,1-5.81-5.81A5.82,5.82,0,0,1,633.48,229.83Z"/><path class="cls-2" d="M934.87,458.51a2.61,2.61,0,1,1-2.62-2.61A2.62,2.62,0,0,1,934.87,458.51Z"/><path class="cls-2" d="M837.56,404.35a6.29,6.29,0,1,1-6.29-6.3A6.29,6.29,0,0,1,837.56,404.35Z"/><path class="cls-2" d="M936.81,458.51a4.55,4.55,0,1,1-4.56-4.57A4.56,4.56,0,0,1,936.81,458.51Z"/><path class="cls-2" d="M156.1,404.38a3.71,3.71,0,1,1-3.7-3.72A3.71,3.71,0,0,1,156.1,404.38Z"/><path class="cls-2" d="M157.4,404.38a5,5,0,1,1-5-5A5,5,0,0,1,157.4,404.38Z"/><path class="cls-2" d="M233.61,515.85a4.95,4.95,0,1,1-4.93-5A4.94,4.94,0,0,1,233.61,515.85Z"/><path class="cls-2" d="M157.76,404.38A5.37,5.37,0,1,1,152.4,399,5.37,5.37,0,0,1,157.76,404.38Z"/><path class="cls-2" d="M156,404.38a3.57,3.57,0,1,1-3.56-3.58A3.57,3.57,0,0,1,156,404.38Z"/><path class="cls-2" d="M301.6,364.41a4.43,4.43,0,1,1-4.44-4.43A4.44,4.44,0,0,1,301.6,364.41Z"/><path class="cls-2" d="M299.78,364.41a2.62,2.62,0,1,1-2.62-2.62A2.62,2.62,0,0,1,299.78,364.41Z"/><path class="cls-2" d="M342.78,517.9a2.93,2.93,0,1,1-2.92-2.93A2.92,2.92,0,0,1,342.78,517.9Z"/><path class="cls-2" d="M444.58,504.41a2.52,2.52,0,1,1-2.52-2.52A2.52,2.52,0,0,1,444.58,504.41Z"/><path class="cls-2" d="M344.15,517.9a4.3,4.3,0,1,1-4.29-4.3A4.3,4.3,0,0,1,344.15,517.9Z"/><path class="cls-2" d="M407.89,406.84a3.36,3.36,0,1,1-3.36-3.37A3.36,3.36,0,0,1,407.89,406.84Z"/><path class="cls-2" d="M446.14,504.41a4.08,4.08,0,1,1-4.08-4.1A4.09,4.09,0,0,1,446.14,504.41Z"/><ellipse class="cls-2" cx="297.16" cy="364.41" rx="4.17" ry="4.18"/><path class="cls-2" d="M344,517.9a4.17,4.17,0,1,1-4.16-4.17A4.18,4.18,0,0,1,344,517.9Z"/><path class="cls-2" d="M409.08,406.84a4.55,4.55,0,1,1-4.55-4.56A4.55,4.55,0,0,1,409.08,406.84Z"/><path class="cls-2" d="M495.88,488.42a3.1,3.1,0,1,1-3.09-3.11A3.09,3.09,0,0,1,495.88,488.42Z"/><path class="cls-2" d="M409.38,406.84a4.85,4.85,0,1,1-4.85-4.86A4.85,4.85,0,0,1,409.38,406.84Z"/><path class="cls-2" d="M448.11,504.41a6.05,6.05,0,1,1-6.05-6.08A6.06,6.06,0,0,1,448.11,504.41Z"/><path class="cls-2" d="M409,406.84a4.49,4.49,0,1,1-4.48-4.51A4.49,4.49,0,0,1,409,406.84Z"/><path class="cls-2" d="M507.64,352.45A5.64,5.64,0,1,1,502,346.8,5.64,5.64,0,0,1,507.64,352.45Z"/><path class="cls-2" d="M506.46,352.45A4.45,4.45,0,1,1,502,348,4.45,4.45,0,0,1,506.46,352.45Z"/><path class="cls-2" d="M507.1,352.45a5.09,5.09,0,1,1-5.09-5.1A5.09,5.09,0,0,1,507.1,352.45Z"/><path class="cls-2" d="M673,461.19a2.58,2.58,0,1,1-2.58-2.59A2.58,2.58,0,0,1,673,461.19Z"/><path class="cls-2" d="M743.07,504.74a3.34,3.34,0,1,1-3.35-3.35A3.34,3.34,0,0,1,743.07,504.74Z"/><circle class="cls-2" cx="721.91" cy="368.94" r="3.23"/><path class="cls-2" d="M725.3,368.94a3.39,3.39,0,1,1-3.39-3.4A3.4,3.4,0,0,1,725.3,368.94Z"/><path class="cls-2" d="M744.78,504.74a5.05,5.05,0,1,1-5.06-5.06A5.06,5.06,0,0,1,744.78,504.74Z"/><path class="cls-2" d="M742.56,504.74a2.83,2.83,0,1,1-2.84-2.84A2.82,2.82,0,0,1,742.56,504.74Z"/><path class="cls-2" d="M836.24,404.34a5,5,0,1,1-5-5A5,5,0,0,1,836.24,404.34Z"/><path class="cls-2" d="M725.75,368.94a3.84,3.84,0,1,1-3.84-3.85A3.85,3.85,0,0,1,725.75,368.94Z"/><path class="cls-2" d="M727.51,368.94a5.6,5.6,0,1,1-5.6-5.61A5.61,5.61,0,0,1,727.51,368.94Z"/><path class="cls-2" d="M744.93,504.74a5.2,5.2,0,1,1-5.21-5.21A5.22,5.22,0,0,1,744.93,504.74Z"/><path class="cls-2" d="M836.25,404.34a5,5,0,1,1-5-5A5,5,0,0,1,836.25,404.34Z"/><path class="cls-2" d="M837.22,404.35a5.95,5.95,0,1,1-6-6A6,6,0,0,1,837.22,404.35Z"/><path class="cls-2" d="M980.68,561.11a2.88,2.88,0,1,1-2.88-2.89A2.88,2.88,0,0,1,980.68,561.11Z"/><path class="cls-2" d="M935.09,458.51a2.84,2.84,0,1,1-2.84-2.84A2.83,2.83,0,0,1,935.09,458.51Z"/><path class="cls-2" d="M936.84,458.51a4.58,4.58,0,1,1-4.59-4.6A4.58,4.58,0,0,1,936.84,458.51Z"/><path class="cls-2" d="M980.12,561.11a2.32,2.32,0,1,1-2.32-2.33A2.33,2.33,0,0,1,980.12,561.11Z"/><path class="cls-2" d="M155.9,404.38a3.51,3.51,0,1,1-3.5-3.51A3.51,3.51,0,0,1,155.9,404.38Z"/><path class="cls-2" d="M166.19,561.83a5.89,5.89,0,1,1-5.89-5.9A5.9,5.9,0,0,1,166.19,561.83Z"/><path class="cls-2" d="M159.8,404.38a7.41,7.41,0,1,1-7.4-7.42A7.41,7.41,0,0,1,159.8,404.38Z"/><path class="cls-2" d="M166,561.83a5.71,5.71,0,1,1-5.7-5.73A5.7,5.7,0,0,1,166,561.83Z"/><path class="cls-2" d="M610.14,587.06a2.71,2.71,0,1,1-2.71-2.71A2.7,2.7,0,0,1,610.14,587.06Z"/><path class="cls-2" d="M675.2,461.19a4.84,4.84,0,1,1-4.83-4.86A4.84,4.84,0,0,1,675.2,461.19Z"/><path class="cls-2" d="M610.62,587.06a3.18,3.18,0,1,1-3.19-3.19A3.19,3.19,0,0,1,610.62,587.06Z"/><path class="cls-2" d="M830.16,516.12A3.22,3.22,0,1,1,827,512.9,3.22,3.22,0,0,1,830.16,516.12Z"/><path class="cls-2" d="M831.13,516.12a4.18,4.18,0,1,1-4.18-4.18A4.19,4.19,0,0,1,831.13,516.12Z"/><path class="cls-2" d="M910.3,644.21a4.79,4.79,0,1,1-4.79-4.8A4.79,4.79,0,0,1,910.3,644.21Z"/><path class="cls-2" d="M830.07,516.12A3.12,3.12,0,1,1,827,513,3.13,3.13,0,0,1,830.07,516.12Z"/><path class="cls-2" d="M831.6,516.12a4.66,4.66,0,1,1-4.65-4.67A4.67,4.67,0,0,1,831.6,516.12Z"/></svg>