<svg id="Layer_1_copy" data-name="Layer 1 copy" xmlns="http://www.w3.org/2000/svg" viewBox="0 0 820.17 513.47"><defs><style>.cls-1{fill:#f8ca10;}.cls-2{fill:#fff;}</style></defs><polygon class="cls-1" points="266.26 250.22 330.01 192.01 296.43 269.57 266.26 250.22"/><polygon class="cls-1" points="75.84 92.29 83.46 193.27 266.47 249.55 75.84 92.29"/><polygon class="cls-1" points="454.44 257.62 411.14 107.07 519.38 123.27 454.44 257.62"/><polygon class="cls-1" points="454.44 257.62 298.92 268.87 399.88 289.93 454.44 257.62"/><polygon class="cls-1" points="454.44 257.62 397.13 289.92 455.8 462.79 500.75 340.26 454.44 257.62"/><polygon class="cls-1" points="531.02 179.35 500.97 340.94 666.33 287.43 531.02 179.35"/><path class="cls-2" d="M195.8,129.36l-122.11-37L249.32,24.1l.25.65.63.33ZM78,92.21,195.1,127.68l53-101.6Z"/><path class="cls-2" d="M194.18,129.44,249,24.44l.61.31.59-.37,54.94,86.85ZM249.63,26.16,196.72,127.6l106.07-17.41Z"/><path class="cls-2" d="M302.21,111.47,408.58,3.66l.5.48h.7l2.08,103.61ZM408.41,5.82,305.68,110l104.75-3.56Z"/><path class="cls-2" d="M521.24,124.25,410.46,107.67v-.59L408.38,4.16l.7,0,.51-.47ZM411.83,106.46,517.5,122.28,409.81,6Z"/><polygon class="cls-2" points="0.52 180.35 0.52 182.82 32.26 229.33 0.52 225.03 0.52 226.44 35.19 231.14 0.52 180.35"/><polygon class="cls-2" points="0.52 118.44 0.52 123.26 31.73 226.07 0.52 180.35 0.52 182.82 33.15 230.63 34.4 230.03 0.52 118.44"/><path class="cls-2" d="M32.44,232.07,75.13,92.23l0-.28,2-1.4-.55,1.84L84.18,193.6Zm43-136L35,228.4l47.71-35.46Z"/><polygon class="cls-2" points="0.52 41.21 0.52 42.89 75.02 92.58 33.73 227.83 0.52 118.44 0.52 123.26 33.73 232.64 76.66 91.99 0.52 41.21"/><path class="cls-2" d="M266.26,250.22,82.8,193.8,75.11,92l.76-.53.41.33L266.91,249ZM84.12,192.74l179.18,55.1L76.65,93.86Z"/><path class="cls-2" d="M266,250.09,75.39,92.83,76,91.62l119.87,36.3,71.16,121.27ZM79,94,263.86,246.5,195,129.11Z"/><path class="cls-2" d="M454.11,258.24,329.44,192.49l-26.16-81.56.41-.14.74-.59,150.5,146.92ZM330.59,191.52,450.5,254.75l-145-141.58Z"/><path class="cls-2" d="M455.84,260,302.28,110.06l109.39-3.71ZM305.61,111.35,453,255.28l-42.42-147.5Z"/><path class="cls-2" d="M454.94,258.12l-1.13-.81,65.85-136.24L531.13,180Zm64.15-132.65L456.94,254.06l72.68-74.55Z"/><path class="cls-2" d="M454.27,259.58l-44.1-153.37,110.25,16.51ZM412.12,107.92l42.49,147.75,63.72-131.84Z"/><path class="cls-2" d="M665.89,288,529.74,180.13l-11-56.73.72-.16.49-.44L666.84,287ZM531,179.35,660.35,281.8,520.55,125.63Z"/><path class="cls-2" d="M666.78,289,518.09,122.88l1.11-.29L701,74.88ZM520.66,123.66,665.87,285.87,699.25,76.78Z"/><polygon class="cls-2" points="34.51 230.02 34.64 229.52 34.02 229.54 33.37 228.88 33.19 229.56 0.52 230.38 0.52 231.78 32.81 230.97 7.13 327.63 0.52 319.51 0.52 321.73 7.78 330.64 34.27 230.93 35.38 230.89 34.51 230.02"/><polygon class="cls-2" points="0.52 225.03 0.52 226.45 24.98 229.76 0.52 230.38 0.52 231.78 33.76 230.94 33.83 229.55 0.52 225.03"/><path class="cls-2" d="M6.44,330.22,33.37,228.88l.85.86,78.35,64.64Zm27.69-98.75L8.47,328.07l101.27-34.22Z"/><path class="cls-2" d="M112.42,296.06,32.6,230.21,83.86,192.1ZM34.87,230.27l75,61.9L83.06,194.44Z"/><path class="cls-2" d="M296.88,269.92l-31.57-20.28,64.24-58.15,1.1.8Zm-29.27-20.47,28.65,18.41,31.81-73.16Z"/><path class="cls-2" d="M397.24,290.66l-.25-.05-100.56-21,.09-1.39,157.86-11.25.32,1,.16.21-.16-.21.08.27Zm-95.62-21.43L397,289.18l54.35-30.63Z"/><path class="cls-2" d="M502.68,342.54,395.63,290l58.47-33,.38.58.56-.31Zm-104-52.65,100.62,49.42-45.09-80.73Z"/><path class="cls-2" d="M501.31,343l-47.74-85.44,77.91-79.91Zm-46-85.21,45.33,81.14,28.65-157Z"/><polygon class="cls-2" points="501.08 341.62 500.75 340.26 666.11 286.77 666.54 288.1 510.14 338.7 616.39 321.08 616.62 322.46 501.08 341.62"/><path class="cls-2" d="M500.07,342,529.9,178.47,667.79,287.71ZM530.85,181l-29,158.89,163-52.72Z"/><polygon class="cls-2" points="616.57 322.46 616.44 321.07 810.37 304.5 666.25 288.13 666.4 286.74 817.53 303.9 817.51 305.3 616.57 322.46"/><polygon class="cls-2" points="0.52 319.51 0.52 321.73 6.71 329.34 0.52 362.68 0.52 370.34 8.2 328.95 0.52 319.51"/><polygon class="cls-2" points="0.52 400.73 0.52 402.69 110.86 295.38 159.79 437.49 0.52 410.12 0.52 411.55 161.89 439.28 111.96 294.31 112.55 293.74 111.69 293.52 111.46 292.85 110.95 293.34 110.08 293.12 110.36 293.93 0.52 400.73"/><polygon class="cls-2" points="0.52 370.34 8.07 329.68 108.45 295.76 0.52 400.73 0.52 402.69 111.65 294.61 110.94 293.46 6.84 328.61 0.52 362.68 0.52 370.34"/><path class="cls-2" d="M225.36,406.54l71.07-138.93.79,1,44,115.4ZM296.47,270.6l-68.55,134L339.36,383Z"/><path class="cls-2" d="M455.41,461,339.74,384,295.92,269.13l.64-.26.55-.44L456.34,460ZM340.89,383,452.2,457.2,298.73,272.58Z"/><path class="cls-2" d="M455.26,460.89,294.75,267.77l102.92,21.55.12.38,58.68,170.51ZM298.39,270,453.9,457.05,396.6,290.53Z"/><path class="cls-2" d="M527.48,469.49,454.83,461l45.61-120.69,1.06-.27.15.72Zm-70.7-9.65,69,8-25-124.43Z"/><path class="cls-2" d="M455.77,462.5,395.92,288.55l105.92,52ZM398.34,291.3l57.49,167.08,44.25-117.1Z"/><polygon class="cls-2" points="525.92 468.83 500.36 341.47 498.47 340.83 501.5 340.07 501.57 340.4 695.09 405.52 694.64 406.85 501.89 341.99 527.29 468.56 525.92 468.83"/><polygon class="cls-2" points="694.64 406.85 500.74 341.59 500.85 340.24 616.39 321.08 616.62 322.46 503.85 341.16 695.09 405.52 694.64 406.85"/><polygon class="cls-2" points="695.32 406.73 694.43 405.64 815.28 305.5 616.57 322.46 616.44 321.07 819.62 303.73 695.32 406.73"/><polygon class="cls-2" points="344.61 506.18 339.64 384.34 226.77 406.27 226.51 404.88 340.98 382.66 346 506.11 344.61 506.18"/><path class="cls-2" d="M344.65,507.17l-5.09-125,117.73,78.43Zm-3.58-122.32L346,505.1l108.36-44.81Z"/><path class="cls-2" d="M252.9,24.76a3.32,3.32,0,1,1-3.33-3.33A3.32,3.32,0,0,1,252.9,24.76Z"/><path class="cls-2" d="M199.18,128.52a3.74,3.74,0,1,1-3.73-3.74A3.74,3.74,0,0,1,199.18,128.52Z"/><path class="cls-2" d="M79.91,92.29a4.08,4.08,0,1,1-4.08-4.08A4.08,4.08,0,0,1,79.91,92.29Z"/><path class="cls-2" d="M199.17,128.52a3.73,3.73,0,1,1-3.72-3.74A3.73,3.73,0,0,1,199.17,128.52Z"/><path class="cls-2" d="M306.57,110.71a2.63,2.63,0,1,1-2.63-2.63A2.63,2.63,0,0,1,306.57,110.71Z"/><path class="cls-2" d="M412.91,4.14A3.83,3.83,0,1,1,409.08.31,3.84,3.84,0,0,1,412.91,4.14Z"/><path class="cls-2" d="M308.6,110.71a4.66,4.66,0,1,1-4.66-4.68A4.66,4.66,0,0,1,308.6,110.71Z"/><path class="cls-2" d="M412.7,4.15A3.63,3.63,0,1,1,409.08.52,3.63,3.63,0,0,1,412.7,4.15Z"/><path class="cls-2" d="M417,107.06a5.83,5.83,0,1,1-5.83-5.84A5.83,5.83,0,0,1,417,107.06Z"/><path class="cls-2" d="M524.63,123.27a5.25,5.25,0,1,1-5.25-5.27A5.26,5.26,0,0,1,524.63,123.27Z"/><path class="cls-2" d="M523.5,123.27a4.13,4.13,0,1,1-4.12-4.14A4.12,4.12,0,0,1,523.5,123.27Z"/><path class="cls-2" d="M36,230.24A2.26,2.26,0,1,1,33.73,228,2.26,2.26,0,0,1,36,230.24Z"/><path class="cls-2" d="M36.22,230.24a2.49,2.49,0,1,1-2.49-2.5A2.5,2.5,0,0,1,36.22,230.24Z"/><ellipse class="cls-2" cx="83.46" cy="193.27" rx="3.51" ry="3.52"/><path class="cls-2" d="M37.9,230.24a4.17,4.17,0,1,1-4.17-4.18A4.17,4.17,0,0,1,37.9,230.24Z"/><path class="cls-2" d="M79.58,92.29a3.75,3.75,0,1,1-3.74-3.76A3.74,3.74,0,0,1,79.58,92.29Z"/><path class="cls-2" d="M38.22,230.24a4.49,4.49,0,1,1-4.49-4.5A4.5,4.5,0,0,1,38.22,230.24Z"/><path class="cls-2" d="M79.16,92.29A3.32,3.32,0,1,1,75.84,89,3.32,3.32,0,0,1,79.16,92.29Z"/><ellipse class="cls-2" cx="83.46" cy="193.27" rx="2.2" ry="2.21"/><path class="cls-2" d="M270.28,249.55a3.82,3.82,0,1,1-3.81-3.83A3.83,3.83,0,0,1,270.28,249.55Z"/><path class="cls-2" d="M198.77,128.52a3.33,3.33,0,1,1-3.32-3.33A3.33,3.33,0,0,1,198.77,128.52Z"/><path class="cls-2" d="M199.76,128.52a4.32,4.32,0,1,1-4.31-4.33A4.31,4.31,0,0,1,199.76,128.52Z"/><path class="cls-2" d="M272.73,249.55a6.27,6.27,0,1,1-6.26-6.28A6.29,6.29,0,0,1,272.73,249.55Z"/><path class="cls-2" d="M334.24,192a4.23,4.23,0,1,1-4.23-4.23A4.23,4.23,0,0,1,334.24,192Z"/><path class="cls-2" d="M414.68,107.06a3.54,3.54,0,1,1-3.54-3.54A3.54,3.54,0,0,1,414.68,107.06Z"/><path class="cls-2" d="M414.31,107.06a3.17,3.17,0,1,1-3.17-3.16A3.16,3.16,0,0,1,414.31,107.06Z"/><path class="cls-2" d="M525.78,123.27a6.41,6.41,0,1,1-6.4-6.42A6.42,6.42,0,0,1,525.78,123.27Z"/><path class="cls-2" d="M534.1,179.74a3.72,3.72,0,1,1-3.72-3.73A3.73,3.73,0,0,1,534.1,179.74Z"/><path class="cls-2" d="M526.22,123.27a6.85,6.85,0,1,1-6.84-6.86A6.85,6.85,0,0,1,526.22,123.27Z"/><path class="cls-2" d="M416.2,107.06a5.06,5.06,0,1,1-5.06-5A5.07,5.07,0,0,1,416.2,107.06Z"/><path class="cls-2" d="M458.9,257.63a4.46,4.46,0,1,1-4.46-4.48A4.46,4.46,0,0,1,458.9,257.63Z"/><path class="cls-2" d="M523.33,123.27a4,4,0,1,1-4-4A4,4,0,0,1,523.33,123.27Z"/><path class="cls-2" d="M670.16,287.43a3.83,3.83,0,1,1-3.84-3.84A3.84,3.84,0,0,1,670.16,287.43Z"/><path class="cls-2" d="M522.56,123.27a3.19,3.19,0,1,1-3.18-3.19A3.19,3.19,0,0,1,522.56,123.27Z"/><path class="cls-2" d="M522.19,123.27a2.82,2.82,0,1,1-2.81-2.83A2.81,2.81,0,0,1,522.19,123.27Z"/><path class="cls-2" d="M535.26,179.74a4.88,4.88,0,1,1-4.88-4.89A4.9,4.9,0,0,1,535.26,179.74Z"/><path class="cls-2" d="M670.92,287.43a4.6,4.6,0,1,1-4.6-4.61A4.61,4.61,0,0,1,670.92,287.43Z"/><path class="cls-2" d="M668.52,287.43a2.2,2.2,0,1,1-2.2-2.19A2.2,2.2,0,0,1,668.52,287.43Z"/><path class="cls-2" d="M524,123.27a4.66,4.66,0,1,1-4.65-4.67A4.66,4.66,0,0,1,524,123.27Z"/><path class="cls-2" d="M703.88,75.83a3.78,3.78,0,1,1-3.78-3.78A3.78,3.78,0,0,1,703.88,75.83Z"/><path class="cls-2" d="M705.41,75.83a5.3,5.3,0,1,1-5.31-5.31A5.32,5.32,0,0,1,705.41,75.83Z"/><path class="cls-2" d="M670.29,287.43a4,4,0,1,1-4-4A4,4,0,0,1,670.29,287.43Z"/><path class="cls-2" d="M671.78,287.43a5.46,5.46,0,1,1-5.46-5.48A5.46,5.46,0,0,1,671.78,287.43Z"/><path class="cls-2" d="M670.8,287.43a4.48,4.48,0,1,1-4.48-4.49A4.48,4.48,0,0,1,670.8,287.43Z"/><path class="cls-2" d="M670.87,287.43a4.55,4.55,0,1,1-4.55-4.57A4.56,4.56,0,0,1,670.87,287.43Z"/><ellipse class="cls-2" cx="33.73" cy="230.24" rx="3.7" ry="3.7"/><path class="cls-2" d="M38.57,230.24a4.84,4.84,0,1,1-4.84-4.84A4.85,4.85,0,0,1,38.57,230.24Z"/><path class="cls-2" d="M11.1,329.14a3.65,3.65,0,1,1-3.65-3.65A3.65,3.65,0,0,1,11.1,329.14Z"/><path class="cls-2" d="M89.7,193.27A6.24,6.24,0,1,1,83.46,187,6.26,6.26,0,0,1,89.7,193.27Z"/><path class="cls-2" d="M87.32,193.27a3.87,3.87,0,1,1-3.86-3.88A3.86,3.86,0,0,1,87.32,193.27Z"/><path class="cls-2" d="M333,192a3,3,0,1,1-3-3A3,3,0,0,1,333,192Z"/><path class="cls-2" d="M299.91,268.89a3.34,3.34,0,1,1-3.34-3.35A3.33,3.33,0,0,1,299.91,268.89Z"/><path class="cls-2" d="M400.85,289.93a3.72,3.72,0,1,1-3.72-3.73A3.72,3.72,0,0,1,400.85,289.93Z"/><path class="cls-2" d="M400.7,289.93a3.57,3.57,0,1,1-3.57-3.58A3.57,3.57,0,0,1,400.7,289.93Z"/><path class="cls-2" d="M503.77,340.93a2.81,2.81,0,1,1-2.8-2.81A2.8,2.8,0,0,1,503.77,340.93Z"/><path class="cls-2" d="M533.1,179.74a2.72,2.72,0,1,1-2.72-2.73A2.72,2.72,0,0,1,533.1,179.74Z"/><path class="cls-2" d="M537.16,179.74a6.79,6.79,0,1,1-6.78-6.8A6.79,6.79,0,0,1,537.16,179.74Z"/><path class="cls-2" d="M504.49,340.93A3.53,3.53,0,1,1,501,337.4,3.54,3.54,0,0,1,504.49,340.93Z"/><path class="cls-2" d="M672.11,287.43a5.79,5.79,0,1,1-5.79-5.79A5.79,5.79,0,0,1,672.11,287.43Z"/><path class="cls-2" d="M670.7,287.43a4.38,4.38,0,1,1-4.38-4.38A4.39,4.39,0,0,1,670.7,287.43Z"/><path class="cls-2" d="M535.66,179.74a5.29,5.29,0,1,1-5.28-5.3A5.29,5.29,0,0,1,535.66,179.74Z"/><path class="cls-2" d="M12.32,329.14a4.87,4.87,0,1,1-4.87-4.87A4.87,4.87,0,0,1,12.32,329.14Z"/><path class="cls-2" d="M165.63,438.38a4.79,4.79,0,1,1-4.79-4.8A4.79,4.79,0,0,1,165.63,438.38Z"/><path class="cls-2" d="M115.61,294.11a4.45,4.45,0,1,1-4.45-4.45A4.45,4.45,0,0,1,115.61,294.11Z"/><path class="cls-2" d="M114,294.11a2.79,2.79,0,1,1-2.79-2.8A2.8,2.8,0,0,1,114,294.11Z"/><path class="cls-2" d="M165.88,438.38a5,5,0,1,1-5-5.05A5.05,5.05,0,0,1,165.88,438.38Z"/><path class="cls-2" d="M11.73,329.14a4.28,4.28,0,1,1-4.28-4.27A4.29,4.29,0,0,1,11.73,329.14Z"/><path class="cls-2" d="M115,294.11a3.87,3.87,0,1,1-3.87-3.87A3.88,3.88,0,0,1,115,294.11Z"/><path class="cls-2" d="M232.36,405.58a5.72,5.72,0,1,1-5.71-5.73A5.72,5.72,0,0,1,232.36,405.58Z"/><path class="cls-2" d="M301,268.87a4.43,4.43,0,1,1-4.43-4.43A4.43,4.43,0,0,1,301,268.87Z"/><path class="cls-2" d="M346.25,383.5a5.94,5.94,0,1,1-5.94-5.94A6,6,0,0,1,346.25,383.5Z"/><path class="cls-2" d="M229.39,405.58a2.75,2.75,0,1,1-2.74-2.76A2.75,2.75,0,0,1,229.39,405.58Z"/><path class="cls-2" d="M300.22,268.89a3.65,3.65,0,1,1-3.65-3.67A3.64,3.64,0,0,1,300.22,268.89Z"/><path class="cls-2" d="M345.78,383.5a5.47,5.47,0,1,1-5.47-5.48A5.47,5.47,0,0,1,345.78,383.5Z"/><path class="cls-2" d="M457.91,460.44a2.11,2.11,0,0,1-4.21,0,2.11,2.11,0,1,1,4.21,0Z"/><path class="cls-2" d="M298.92,268.87a2.35,2.35,0,1,1-2.36-2.34A2.35,2.35,0,0,1,298.92,268.87Z"/><path class="cls-2" d="M399.88,289.93a2.75,2.75,0,1,1-2.75-2.75A2.75,2.75,0,0,1,399.88,289.93Z"/><path class="cls-2" d="M458.42,460.44a2.62,2.62,0,1,1-2.62-2.62A2.62,2.62,0,0,1,458.42,460.44Z"/><path class="cls-2" d="M300.48,268.87a3.91,3.91,0,1,1-3.92-3.9A3.91,3.91,0,0,1,300.48,268.87Z"/><path class="cls-2" d="M530.48,468.69a3.88,3.88,0,1,1-3.88-3.88A3.88,3.88,0,0,1,530.48,468.69Z"/><path class="cls-2" d="M458.15,460.44a2.35,2.35,0,1,1-2.35-2.35A2.35,2.35,0,0,1,458.15,460.44Z"/><path class="cls-2" d="M531.53,468.69a4.93,4.93,0,1,1-4.93-4.94A4.93,4.93,0,0,1,531.53,468.69Z"/><path class="cls-2" d="M401,289.93a3.85,3.85,0,1,1-3.85-3.87A3.85,3.85,0,0,1,401,289.93Z"/><path class="cls-2" d="M461.71,460.44a5.91,5.91,0,1,1-5.91-5.91A5.92,5.92,0,0,1,461.71,460.44Z"/><ellipse class="cls-2" cx="694.87" cy="406.19" rx="4.61" ry="4.63"/><path class="cls-2" d="M529.92,468.69a3.32,3.32,0,1,1-3.32-3.32A3.32,3.32,0,0,1,529.92,468.69Z"/><circle class="cls-2" cx="694.87" cy="406.19" r="2.06"/><path class="cls-2" d="M697.3,406.19a2.43,2.43,0,1,1-2.43-2.43A2.43,2.43,0,0,1,697.3,406.19Z"/><path class="cls-2" d="M231.45,405.58a4.81,4.81,0,1,1-4.8-4.82A4.8,4.8,0,0,1,231.45,405.58Z"/><path class="cls-2" d="M343.53,383.5a3.22,3.22,0,1,1-3.22-3.21A3.23,3.23,0,0,1,343.53,383.5Z"/><path class="cls-2" d="M344.47,383.5a4.16,4.16,0,1,1-4.16-4.16A4.16,4.16,0,0,1,344.47,383.5Z"/><path class="cls-2" d="M348.94,506.14a3.64,3.64,0,1,1-3.64-3.64A3.64,3.64,0,0,1,348.94,506.14Z"/><path class="cls-2" d="M352.26,506.14a7,7,0,1,1-7-7A7,7,0,0,1,352.26,506.14Z"/><path class="cls-2" d="M344.07,383.5a3.76,3.76,0,1,1-3.76-3.76A3.76,3.76,0,0,1,344.07,383.5Z"/><path class="cls-2" d="M344.22,383.5a3.91,3.91,0,1,1-3.91-3.92A3.91,3.91,0,0,1,344.22,383.5Z"/></svg>